<svg width="293" height="18" viewBox="0 0 293 18" fill="none" xmlns="http://www.w3.org/2000/svg">
<g clip-path="url(#clip0)">
<path d="M14.9471 3.90625H1.4403C0.647112 3.90625 0 4.53737 0 5.3125V14.6875C0 15.46 0.644232 16.0938 1.4403 16.0938H14.9471C15.7384 16.0938 16.3874 15.4647 16.3874 14.6875V5.3125C16.3874 4.54 15.7432 3.90625 14.9471 3.90625ZM14.7483 4.84375L8.22426 11.2135L1.64383 4.84375H14.7483ZM0.960202 14.4934V5.50216L5.5845 9.97841L0.960202 14.4934ZM1.63916 15.1562L6.26638 10.6384L7.88774 12.2079C8.07543 12.3896 8.37831 12.389 8.56523 12.2064L10.1461 10.6629L14.7483 15.1562H1.63916ZM15.4272 14.4933L10.8251 10L15.4272 5.50662V14.4933Z" fill="#BFFBDE"/>
</g>
<path d="M33.3169 9.23926H28.937V12.5205H34.0566V14H27.084V3.33594H34.0054V4.83008H28.937V7.77441H33.3169V9.23926ZM37.9678 3.33594L41.0439 11.5098L44.1128 3.33594H46.5078V14H44.6621V10.4844L44.8452 5.78223L41.6958 14H40.3701L37.228 5.78955L37.4111 10.4844V14H35.5654V3.33594H37.9678ZM54.8062 11.5171H50.6753L49.811 14H47.8848L51.9131 3.33594H53.5757L57.6113 14H55.6777L54.8062 11.5171ZM51.1953 10.0229H54.2861L52.7407 5.59912L51.1953 10.0229ZM60.7827 14H58.937V3.33594H60.7827V14ZM64.9136 12.5205H69.7549V14H63.0605V3.33594H64.9136V12.5205ZM72.0767 12.125C72.4087 12.125 72.665 12.2202 72.8457 12.4106C73.0264 12.5962 73.1167 12.8306 73.1167 13.1138C73.1167 13.3921 73.0264 13.624 72.8457 13.8096C72.665 13.9902 72.4087 14.0806 72.0767 14.0806C71.7593 14.0806 71.5078 13.9902 71.3223 13.8096C71.1367 13.6289 71.0439 13.397 71.0439 13.1138C71.0439 12.8306 71.1343 12.5962 71.3149 12.4106C71.4956 12.2202 71.7495 12.125 72.0767 12.125ZM72.0767 5.90674C72.4087 5.90674 72.665 6.00195 72.8457 6.19238C73.0264 6.37793 73.1167 6.6123 73.1167 6.89551C73.1167 7.17383 73.0264 7.40576 72.8457 7.59131C72.665 7.77197 72.4087 7.8623 72.0767 7.8623C71.7593 7.8623 71.5078 7.77197 71.3223 7.59131C71.1367 7.41064 71.0439 7.17871 71.0439 6.89551C71.0439 6.6123 71.1343 6.37793 71.3149 6.19238C71.4956 6.00195 71.7495 5.90674 72.0767 5.90674ZM83.1655 11.8467C83.1655 11.5293 83.0337 11.2876 82.77 11.1216C82.5112 10.9556 82.0791 10.8091 81.4736 10.6821C80.8682 10.5552 80.3628 10.394 79.9575 10.1987C79.0688 9.76904 78.6245 9.14648 78.6245 8.33105C78.6245 7.64746 78.9126 7.07617 79.4888 6.61719C80.0649 6.1582 80.7974 5.92871 81.686 5.92871C82.6333 5.92871 83.3975 6.16309 83.9785 6.63184C84.5645 7.10059 84.8574 7.7085 84.8574 8.45557H83.0776C83.0776 8.11377 82.9507 7.83057 82.6968 7.60596C82.4429 7.37646 82.106 7.26172 81.686 7.26172C81.2954 7.26172 80.9756 7.35205 80.7266 7.53271C80.4824 7.71338 80.3604 7.95508 80.3604 8.25781C80.3604 8.53125 80.4751 8.74365 80.7046 8.89502C80.9341 9.04639 81.3979 9.2002 82.0962 9.35645C82.7944 9.50781 83.3413 9.69092 83.7368 9.90576C84.1372 10.1157 84.4326 10.3696 84.623 10.6675C84.8184 10.9653 84.916 11.3267 84.916 11.7515C84.916 12.4644 84.6206 13.043 84.0298 13.4873C83.439 13.9268 82.665 14.1465 81.708 14.1465C81.0586 14.1465 80.48 14.0293 79.9722 13.7949C79.4644 13.5605 79.0688 13.2383 78.7856 12.8281C78.5024 12.418 78.3608 11.9761 78.3608 11.5024H80.0894C80.1138 11.9224 80.2725 12.2471 80.5654 12.4766C80.8584 12.7012 81.2466 12.8135 81.73 12.8135C82.1987 12.8135 82.5552 12.7256 82.7993 12.5498C83.0435 12.3691 83.1655 12.1348 83.1655 11.8467ZM91.2075 14C91.1294 13.8486 91.061 13.6021 91.0024 13.2603C90.436 13.8511 89.7427 14.1465 88.9224 14.1465C88.1265 14.1465 87.4771 13.9194 86.9741 13.4653C86.4712 13.0112 86.2197 12.4497 86.2197 11.7808C86.2197 10.936 86.5322 10.2891 87.1572 9.83984C87.7871 9.38574 88.6855 9.15869 89.8525 9.15869H90.9438V8.63867C90.9438 8.22852 90.8291 7.90137 90.5996 7.65723C90.3701 7.4082 90.021 7.28369 89.5522 7.28369C89.147 7.28369 88.8149 7.38623 88.5562 7.59131C88.2974 7.7915 88.168 8.04785 88.168 8.36035H86.3882C86.3882 7.92578 86.5322 7.52051 86.8203 7.14453C87.1084 6.76367 87.499 6.46582 87.9922 6.25098C88.4902 6.03613 89.0444 5.92871 89.6548 5.92871C90.5825 5.92871 91.3223 6.16309 91.874 6.63184C92.4258 7.0957 92.709 7.75 92.7236 8.59473V12.1689C92.7236 12.8818 92.8237 13.4507 93.0239 13.8755V14H91.2075ZM89.252 12.7183C89.6035 12.7183 89.9331 12.6328 90.2407 12.4619C90.5532 12.291 90.7876 12.0615 90.9438 11.7734V10.2793H89.9844C89.3252 10.2793 88.8296 10.394 88.4976 10.6235C88.1655 10.853 87.9995 11.1777 87.9995 11.5977C87.9995 11.9395 88.1118 12.2129 88.3364 12.418C88.5659 12.6182 88.8711 12.7183 89.252 12.7183ZM96.2393 6.0752L96.2905 6.99072C96.8765 6.28271 97.6455 5.92871 98.5977 5.92871C100.248 5.92871 101.088 6.87354 101.117 8.76318V14H99.3374V8.86572C99.3374 8.36279 99.2275 7.9917 99.0078 7.75244C98.793 7.5083 98.439 7.38623 97.9458 7.38623C97.228 7.38623 96.6934 7.71094 96.3418 8.36035V14H94.562V6.0752H96.2393ZM104.794 6.0752V14.7031C104.794 15.5137 104.591 16.1313 104.186 16.5562C103.786 16.9858 103.197 17.2007 102.421 17.2007C102.094 17.2007 101.779 17.1592 101.476 17.0762V15.6699C101.662 15.7139 101.872 15.7358 102.106 15.7358C102.697 15.7358 103 15.4136 103.014 14.769V6.0752H104.794ZM102.86 4.01709C102.86 3.74365 102.946 3.5166 103.117 3.33594C103.292 3.15527 103.542 3.06494 103.864 3.06494C104.186 3.06494 104.435 3.15527 104.611 3.33594C104.787 3.5166 104.875 3.74365 104.875 4.01709C104.875 4.28564 104.787 4.51025 104.611 4.69092C104.435 4.8667 104.186 4.95459 103.864 4.95459C103.542 4.95459 103.292 4.8667 103.117 4.69092C102.946 4.51025 102.86 4.28564 102.86 4.01709ZM111.437 14C111.359 13.8486 111.291 13.6021 111.232 13.2603C110.666 13.8511 109.972 14.1465 109.152 14.1465C108.356 14.1465 107.707 13.9194 107.204 13.4653C106.701 13.0112 106.449 12.4497 106.449 11.7808C106.449 10.936 106.762 10.2891 107.387 9.83984C108.017 9.38574 108.915 9.15869 110.082 9.15869H111.173V8.63867C111.173 8.22852 111.059 7.90137 110.829 7.65723C110.6 7.4082 110.25 7.28369 109.782 7.28369C109.376 7.28369 109.044 7.38623 108.786 7.59131C108.527 7.7915 108.397 8.04785 108.397 8.36035H106.618C106.618 7.92578 106.762 7.52051 107.05 7.14453C107.338 6.76367 107.729 6.46582 108.222 6.25098C108.72 6.03613 109.274 5.92871 109.884 5.92871C110.812 5.92871 111.552 6.16309 112.104 6.63184C112.655 7.0957 112.938 7.75 112.953 8.59473V12.1689C112.953 12.8818 113.053 13.4507 113.253 13.8755V14H111.437ZM109.481 12.7183C109.833 12.7183 110.163 12.6328 110.47 12.4619C110.783 12.291 111.017 12.0615 111.173 11.7734V10.2793H110.214C109.555 10.2793 109.059 10.394 108.727 10.6235C108.395 10.853 108.229 11.1777 108.229 11.5977C108.229 11.9395 108.341 12.2129 108.566 12.418C108.795 12.6182 109.101 12.7183 109.481 12.7183ZM116.469 6.0752L116.52 6.99072C117.106 6.28271 117.875 5.92871 118.827 5.92871C120.478 5.92871 121.317 6.87354 121.347 8.76318V14H119.567V8.86572C119.567 8.36279 119.457 7.9917 119.237 7.75244C119.022 7.5083 118.668 7.38623 118.175 7.38623C117.458 7.38623 116.923 7.71094 116.571 8.36035V14H114.792V6.0752H116.469ZM127.902 14C127.824 13.8486 127.755 13.6021 127.697 13.2603C127.13 13.8511 126.437 14.1465 125.617 14.1465C124.821 14.1465 124.171 13.9194 123.668 13.4653C123.166 13.0112 122.914 12.4497 122.914 11.7808C122.914 10.936 123.227 10.2891 123.852 9.83984C124.481 9.38574 125.38 9.15869 126.547 9.15869H127.638V8.63867C127.638 8.22852 127.523 7.90137 127.294 7.65723C127.064 7.4082 126.715 7.28369 126.247 7.28369C125.841 7.28369 125.509 7.38623 125.25 7.59131C124.992 7.7915 124.862 8.04785 124.862 8.36035H123.083C123.083 7.92578 123.227 7.52051 123.515 7.14453C123.803 6.76367 124.193 6.46582 124.687 6.25098C125.185 6.03613 125.739 5.92871 126.349 5.92871C127.277 5.92871 128.017 6.16309 128.568 6.63184C129.12 7.0957 129.403 7.75 129.418 8.59473V12.1689C129.418 12.8818 129.518 13.4507 129.718 13.8755V14H127.902ZM125.946 12.7183C126.298 12.7183 126.627 12.6328 126.935 12.4619C127.248 12.291 127.482 12.0615 127.638 11.7734V10.2793H126.679C126.02 10.2793 125.524 10.394 125.192 10.6235C124.86 10.853 124.694 11.1777 124.694 11.5977C124.694 11.9395 124.806 12.2129 125.031 12.418C125.26 12.6182 125.565 12.7183 125.946 12.7183ZM138.236 10.1182C138.236 11.3486 137.96 12.3276 137.409 13.0552C136.862 13.7827 136.107 14.1465 135.146 14.1465C134.218 14.1465 133.495 13.812 132.978 13.1431L132.89 14H131.278V2.75H133.058V6.83691C133.571 6.23145 134.262 5.92871 135.131 5.92871C136.098 5.92871 136.857 6.2876 137.409 7.00537C137.96 7.72314 138.236 8.72656 138.236 10.0156V10.1182ZM136.457 9.96436C136.457 9.10498 136.305 8.46045 136.002 8.03076C135.7 7.60107 135.26 7.38623 134.684 7.38623C133.913 7.38623 133.371 7.72314 133.058 8.39697V11.6636C133.375 12.3521 133.922 12.6963 134.699 12.6963C135.255 12.6963 135.685 12.4888 135.988 12.0737C136.291 11.6587 136.447 11.0312 136.457 10.1914V9.96436ZM141.488 6.93945C142.069 6.26562 142.804 5.92871 143.693 5.92871C145.382 5.92871 146.239 6.89307 146.264 8.82178V14H144.484V8.8877C144.484 8.34082 144.364 7.95508 144.125 7.73047C143.891 7.50098 143.544 7.38623 143.085 7.38623C142.372 7.38623 141.84 7.70361 141.488 8.33838V14H139.708V2.75H141.488V6.93945ZM152.804 14C152.726 13.8486 152.658 13.6021 152.599 13.2603C152.033 13.8511 151.339 14.1465 150.519 14.1465C149.723 14.1465 149.074 13.9194 148.571 13.4653C148.068 13.0112 147.816 12.4497 147.816 11.7808C147.816 10.936 148.129 10.2891 148.754 9.83984C149.384 9.38574 150.282 9.15869 151.449 9.15869H152.541V8.63867C152.541 8.22852 152.426 7.90137 152.196 7.65723C151.967 7.4082 151.618 7.28369 151.149 7.28369C150.744 7.28369 150.412 7.38623 150.153 7.59131C149.894 7.7915 149.765 8.04785 149.765 8.36035H147.985C147.985 7.92578 148.129 7.52051 148.417 7.14453C148.705 6.76367 149.096 6.46582 149.589 6.25098C150.087 6.03613 150.641 5.92871 151.251 5.92871C152.179 5.92871 152.919 6.16309 153.471 6.63184C154.022 7.0957 154.306 7.75 154.32 8.59473V12.1689C154.32 12.8818 154.42 13.4507 154.621 13.8755V14H152.804ZM150.849 12.7183C151.2 12.7183 151.53 12.6328 151.837 12.4619C152.15 12.291 152.384 12.0615 152.541 11.7734V10.2793H151.581C150.922 10.2793 150.426 10.394 150.094 10.6235C149.762 10.853 149.596 11.1777 149.596 11.5977C149.596 11.9395 149.708 12.2129 149.933 12.418C150.163 12.6182 150.468 12.7183 150.849 12.7183ZM160.333 7.70117C160.099 7.66211 159.857 7.64258 159.608 7.64258C158.793 7.64258 158.244 7.95508 157.96 8.58008V14H156.181V6.0752H157.88L157.924 6.96143C158.354 6.27295 158.949 5.92871 159.711 5.92871C159.965 5.92871 160.175 5.96289 160.341 6.03125L160.333 7.70117ZM165.973 14C165.895 13.8486 165.827 13.6021 165.768 13.2603C165.202 13.8511 164.508 14.1465 163.688 14.1465C162.892 14.1465 162.243 13.9194 161.74 13.4653C161.237 13.0112 160.985 12.4497 160.985 11.7808C160.985 10.936 161.298 10.2891 161.923 9.83984C162.553 9.38574 163.451 9.15869 164.618 9.15869H165.709V8.63867C165.709 8.22852 165.595 7.90137 165.365 7.65723C165.136 7.4082 164.787 7.28369 164.318 7.28369C163.913 7.28369 163.581 7.38623 163.322 7.59131C163.063 7.7915 162.934 8.04785 162.934 8.36035H161.154C161.154 7.92578 161.298 7.52051 161.586 7.14453C161.874 6.76367 162.265 6.46582 162.758 6.25098C163.256 6.03613 163.81 5.92871 164.42 5.92871C165.348 5.92871 166.088 6.16309 166.64 6.63184C167.191 7.0957 167.475 7.75 167.489 8.59473V12.1689C167.489 12.8818 167.589 13.4507 167.79 13.8755V14H165.973ZM164.018 12.7183C164.369 12.7183 164.699 12.6328 165.006 12.4619C165.319 12.291 165.553 12.0615 165.709 11.7734V10.2793H164.75C164.091 10.2793 163.595 10.394 163.263 10.6235C162.931 10.853 162.765 11.1777 162.765 11.5977C162.765 11.9395 162.877 12.2129 163.102 12.418C163.332 12.6182 163.637 12.7183 164.018 12.7183ZM169.02 9.979C169.02 8.7583 169.303 7.7793 169.87 7.04199C170.436 6.2998 171.195 5.92871 172.147 5.92871C172.987 5.92871 173.666 6.22168 174.184 6.80762V2.75H175.963V14H174.352L174.264 13.1797C173.732 13.8242 173.021 14.1465 172.133 14.1465C171.205 14.1465 170.453 13.7729 169.877 13.0259C169.306 12.2788 169.02 11.2632 169.02 9.979ZM170.8 10.1328C170.8 10.9385 170.954 11.5684 171.261 12.0225C171.574 12.4717 172.016 12.6963 172.587 12.6963C173.314 12.6963 173.847 12.3716 174.184 11.7222V8.33838C173.856 7.70361 173.329 7.38623 172.602 7.38623C172.025 7.38623 171.581 7.61572 171.269 8.07471C170.956 8.52881 170.8 9.21484 170.8 10.1328ZM184.782 11.5464L186.042 6.0752H187.777L185.617 14H184.152L182.453 8.55811L180.783 14H179.318L177.15 6.0752H178.886L180.167 11.4878L181.793 6.0752H183.134L184.782 11.5464ZM193.703 14C193.625 13.8486 193.556 13.6021 193.498 13.2603C192.931 13.8511 192.238 14.1465 191.417 14.1465C190.622 14.1465 189.972 13.9194 189.469 13.4653C188.966 13.0112 188.715 12.4497 188.715 11.7808C188.715 10.936 189.027 10.2891 189.652 9.83984C190.282 9.38574 191.181 9.15869 192.348 9.15869H193.439V8.63867C193.439 8.22852 193.324 7.90137 193.095 7.65723C192.865 7.4082 192.516 7.28369 192.047 7.28369C191.642 7.28369 191.31 7.38623 191.051 7.59131C190.792 7.7915 190.663 8.04785 190.663 8.36035H188.883C188.883 7.92578 189.027 7.52051 189.315 7.14453C189.604 6.76367 189.994 6.46582 190.487 6.25098C190.985 6.03613 191.54 5.92871 192.15 5.92871C193.078 5.92871 193.817 6.16309 194.369 6.63184C194.921 7.0957 195.204 7.75 195.219 8.59473V12.1689C195.219 12.8818 195.319 13.4507 195.519 13.8755V14H193.703ZM191.747 12.7183C192.099 12.7183 192.428 12.6328 192.736 12.4619C193.048 12.291 193.283 12.0615 193.439 11.7734V10.2793H192.479C191.82 10.2793 191.325 10.394 190.993 10.6235C190.661 10.853 190.495 11.1777 190.495 11.5977C190.495 11.9395 190.607 12.2129 190.832 12.418C191.061 12.6182 191.366 12.7183 191.747 12.7183ZM198.939 6.0752V14.7031C198.939 15.5137 198.737 16.1313 198.332 16.5562C197.931 16.9858 197.343 17.2007 196.566 17.2007C196.239 17.2007 195.924 17.1592 195.622 17.0762V15.6699C195.807 15.7139 196.017 15.7358 196.251 15.7358C196.842 15.7358 197.145 15.4136 197.16 14.769V6.0752H198.939ZM197.006 4.01709C197.006 3.74365 197.091 3.5166 197.262 3.33594C197.438 3.15527 197.687 3.06494 198.009 3.06494C198.332 3.06494 198.581 3.15527 198.756 3.33594C198.932 3.5166 199.02 3.74365 199.02 4.01709C199.02 4.28564 198.932 4.51025 198.756 4.69092C198.581 4.8667 198.332 4.95459 198.009 4.95459C197.687 4.95459 197.438 4.8667 197.262 4.69092C197.091 4.51025 197.006 4.28564 197.006 4.01709ZM205.583 14C205.504 13.8486 205.436 13.6021 205.377 13.2603C204.811 13.8511 204.118 14.1465 203.297 14.1465C202.501 14.1465 201.852 13.9194 201.349 13.4653C200.846 13.0112 200.595 12.4497 200.595 11.7808C200.595 10.936 200.907 10.2891 201.532 9.83984C202.162 9.38574 203.061 9.15869 204.228 9.15869H205.319V8.63867C205.319 8.22852 205.204 7.90137 204.975 7.65723C204.745 7.4082 204.396 7.28369 203.927 7.28369C203.522 7.28369 203.19 7.38623 202.931 7.59131C202.672 7.7915 202.543 8.04785 202.543 8.36035H200.763C200.763 7.92578 200.907 7.52051 201.195 7.14453C201.483 6.76367 201.874 6.46582 202.367 6.25098C202.865 6.03613 203.419 5.92871 204.03 5.92871C204.958 5.92871 205.697 6.16309 206.249 6.63184C206.801 7.0957 207.084 7.75 207.099 8.59473V12.1689C207.099 12.8818 207.199 13.4507 207.399 13.8755V14H205.583ZM203.627 12.7183C203.979 12.7183 204.308 12.6328 204.616 12.4619C204.928 12.291 205.163 12.0615 205.319 11.7734V10.2793H204.359C203.7 10.2793 203.205 10.394 202.873 10.6235C202.541 10.853 202.375 11.1777 202.375 11.5977C202.375 11.9395 202.487 12.2129 202.711 12.418C202.941 12.6182 203.246 12.7183 203.627 12.7183ZM220.802 10.2061C220.744 11.4268 220.443 12.3911 219.901 13.0991C219.359 13.8022 218.625 14.1538 217.697 14.1538C216.813 14.1538 216.222 13.7778 215.924 13.0259C215.675 13.397 215.385 13.6753 215.053 13.8608C214.726 14.0464 214.381 14.1392 214.02 14.1392C213.307 14.1392 212.765 13.8462 212.394 13.2603C212.028 12.6743 211.889 11.8906 211.977 10.9092C212.055 10.1133 212.248 9.39551 212.555 8.75586C212.868 8.11621 213.261 7.62305 213.734 7.27637C214.213 6.9248 214.721 6.74902 215.258 6.74902C215.668 6.74902 216.029 6.80029 216.342 6.90283C216.659 7.00537 217.03 7.21777 217.455 7.54004L217.074 11.6636C216.981 12.6304 217.26 13.1138 217.909 13.1138C218.407 13.1138 218.815 12.8477 219.132 12.3154C219.455 11.7783 219.63 11.085 219.66 10.2354C219.743 8.43359 219.394 7.0542 218.612 6.09717C217.836 5.14014 216.667 4.66162 215.104 4.66162C214.147 4.66162 213.297 4.90088 212.555 5.37939C211.818 5.85791 211.232 6.55127 210.797 7.45947C210.363 8.36279 210.124 9.39307 210.08 10.5503C210.021 11.7271 210.16 12.7427 210.497 13.5972C210.839 14.4468 211.359 15.0938 212.057 15.5381C212.76 15.9824 213.617 16.2046 214.628 16.2046C215.038 16.2046 215.465 16.1558 215.91 16.0581C216.359 15.9604 216.74 15.8286 217.052 15.6626L217.331 16.666C217.033 16.8613 216.63 17.0176 216.122 17.1348C215.619 17.2568 215.111 17.3179 214.599 17.3179C213.358 17.3179 212.294 17.0542 211.405 16.5269C210.517 16.0044 209.85 15.2451 209.406 14.249C208.947 13.2188 208.744 11.9858 208.798 10.5503C208.856 9.2124 209.157 8.01123 209.699 6.94678C210.241 5.87744 210.98 5.04736 211.918 4.45654C212.86 3.86572 213.932 3.57031 215.133 3.57031C216.349 3.57031 217.394 3.83887 218.268 4.37598C219.147 4.9082 219.804 5.67725 220.238 6.68311C220.673 7.68408 220.861 8.8584 220.802 10.2061ZM213.412 10.9092C213.349 11.5732 213.407 12.0786 213.588 12.4253C213.769 12.7671 214.057 12.938 214.452 12.938C214.716 12.938 214.965 12.8232 215.199 12.5938C215.434 12.3594 215.624 12.0396 215.771 11.6343L216.1 8.02344C215.856 7.93066 215.619 7.88428 215.39 7.88428C214.848 7.88428 214.406 8.14062 214.064 8.65332C213.722 9.16113 213.505 9.91309 213.412 10.9092ZM222.069 9.979C222.069 8.74854 222.357 7.76709 222.934 7.03467C223.515 6.29736 224.284 5.92871 225.241 5.92871C226.144 5.92871 226.854 6.24365 227.372 6.87354L227.453 6.0752H229.057V13.7583C229.057 14.7983 228.732 15.6187 228.083 16.2192C227.438 16.8198 226.566 17.1201 225.468 17.1201C224.887 17.1201 224.318 16.998 223.761 16.7539C223.209 16.5146 222.79 16.1997 222.501 15.8091L223.344 14.7397C223.891 15.3892 224.564 15.7139 225.365 15.7139C225.956 15.7139 226.422 15.5527 226.764 15.2305C227.106 14.9131 227.277 14.4443 227.277 13.8242V13.2896C226.764 13.8608 226.081 14.1465 225.226 14.1465C224.298 14.1465 223.539 13.7778 222.948 13.0405C222.362 12.3032 222.069 11.2827 222.069 9.979ZM223.842 10.1328C223.842 10.9287 224.003 11.5562 224.325 12.0151C224.652 12.4692 225.104 12.6963 225.68 12.6963C226.398 12.6963 226.93 12.3887 227.277 11.7734V8.28711C226.94 7.68652 226.413 7.38623 225.695 7.38623C225.109 7.38623 224.652 7.61816 224.325 8.08203C224.003 8.5459 223.842 9.22949 223.842 10.1328ZM232.565 6.0752L232.616 6.90283C233.173 6.25342 233.935 5.92871 234.901 5.92871C235.961 5.92871 236.686 6.33398 237.077 7.14453C237.653 6.33398 238.463 5.92871 239.508 5.92871C240.382 5.92871 241.032 6.17041 241.457 6.65381C241.886 7.13721 242.106 7.8501 242.116 8.79248V14H240.336V8.84375C240.336 8.34082 240.226 7.97217 240.006 7.73779C239.787 7.50342 239.423 7.38623 238.915 7.38623C238.51 7.38623 238.178 7.49609 237.919 7.71582C237.665 7.93066 237.487 8.21387 237.384 8.56543L237.392 14H235.612V8.78516C235.587 7.85254 235.111 7.38623 234.184 7.38623C233.471 7.38623 232.965 7.67676 232.667 8.25781V14H230.888V6.0752H232.565ZM248.678 14C248.6 13.8486 248.532 13.6021 248.473 13.2603C247.907 13.8511 247.213 14.1465 246.393 14.1465C245.597 14.1465 244.948 13.9194 244.445 13.4653C243.942 13.0112 243.69 12.4497 243.69 11.7808C243.69 10.936 244.003 10.2891 244.628 9.83984C245.258 9.38574 246.156 9.15869 247.323 9.15869H248.415V8.63867C248.415 8.22852 248.3 7.90137 248.07 7.65723C247.841 7.4082 247.492 7.28369 247.023 7.28369C246.618 7.28369 246.286 7.38623 246.027 7.59131C245.768 7.7915 245.639 8.04785 245.639 8.36035H243.859C243.859 7.92578 244.003 7.52051 244.291 7.14453C244.579 6.76367 244.97 6.46582 245.463 6.25098C245.961 6.03613 246.515 5.92871 247.125 5.92871C248.053 5.92871 248.793 6.16309 249.345 6.63184C249.896 7.0957 250.18 7.75 250.194 8.59473V12.1689C250.194 12.8818 250.294 13.4507 250.495 13.8755V14H248.678ZM246.723 12.7183C247.074 12.7183 247.404 12.6328 247.711 12.4619C248.024 12.291 248.258 12.0615 248.415 11.7734V10.2793H247.455C246.796 10.2793 246.3 10.394 245.968 10.6235C245.636 10.853 245.47 11.1777 245.47 11.5977C245.47 11.9395 245.583 12.2129 245.807 12.418C246.037 12.6182 246.342 12.7183 246.723 12.7183ZM253.952 14H252.172V6.0752H253.952V14ZM252.062 4.01709C252.062 3.74365 252.147 3.5166 252.318 3.33594C252.494 3.15527 252.743 3.06494 253.065 3.06494C253.388 3.06494 253.637 3.15527 253.812 3.33594C253.988 3.5166 254.076 3.74365 254.076 4.01709C254.076 4.28564 253.988 4.51025 253.812 4.69092C253.637 4.8667 253.388 4.95459 253.065 4.95459C252.743 4.95459 252.494 4.8667 252.318 4.69092C252.147 4.51025 252.062 4.28564 252.062 4.01709ZM257.79 14H256.01V2.75H257.79V14ZM260.844 12.125C261.176 12.125 261.432 12.2202 261.613 12.4106C261.793 12.5962 261.884 12.8306 261.884 13.1138C261.884 13.3921 261.793 13.624 261.613 13.8096C261.432 13.9902 261.176 14.0806 260.844 14.0806C260.526 14.0806 260.275 13.9902 260.089 13.8096C259.904 13.6289 259.811 13.397 259.811 13.1138C259.811 12.8306 259.901 12.5962 260.082 12.4106C260.263 12.2202 260.517 12.125 260.844 12.125ZM267.179 12.7256C267.624 12.7256 267.992 12.5962 268.285 12.3374C268.578 12.0786 268.734 11.7588 268.754 11.3779H270.431C270.412 11.8711 270.258 12.3325 269.97 12.7622C269.682 13.187 269.291 13.5239 268.798 13.7729C268.305 14.022 267.772 14.1465 267.201 14.1465C266.093 14.1465 265.214 13.7876 264.564 13.0698C263.915 12.3521 263.59 11.3608 263.59 10.0962V9.91309C263.59 8.70703 263.913 7.74268 264.557 7.02002C265.202 6.29248 266.081 5.92871 267.194 5.92871C268.136 5.92871 268.903 6.20459 269.494 6.75635C270.089 7.30322 270.402 8.02344 270.431 8.91699H268.754C268.734 8.46289 268.578 8.08936 268.285 7.79639C267.997 7.50342 267.628 7.35693 267.179 7.35693C266.603 7.35693 266.159 7.56689 265.846 7.98682C265.534 8.40186 265.375 9.03418 265.37 9.88379V10.1694C265.37 11.0288 265.524 11.6709 265.832 12.0957C266.144 12.5156 266.593 12.7256 267.179 12.7256ZM271.442 9.96436C271.442 9.18799 271.596 8.48975 271.903 7.86963C272.211 7.24463 272.643 6.76611 273.2 6.43408C273.756 6.09717 274.396 5.92871 275.119 5.92871C276.188 5.92871 277.055 6.27295 277.719 6.96143C278.388 7.6499 278.749 8.56299 278.803 9.70068L278.81 10.1182C278.81 10.8994 278.659 11.5977 278.356 12.2129C278.058 12.8281 277.628 13.3042 277.067 13.6411C276.51 13.978 275.866 14.1465 275.133 14.1465C274.015 14.1465 273.119 13.7754 272.445 13.0332C271.776 12.2861 271.442 11.2925 271.442 10.0522V9.96436ZM273.222 10.1182C273.222 10.9336 273.39 11.5732 273.727 12.0371C274.064 12.4961 274.533 12.7256 275.133 12.7256C275.734 12.7256 276.2 12.4912 276.532 12.0225C276.869 11.5537 277.038 10.8677 277.038 9.96436C277.038 9.16357 276.864 8.52881 276.518 8.06006C276.176 7.59131 275.709 7.35693 275.119 7.35693C274.538 7.35693 274.076 7.58887 273.734 8.05273C273.393 8.51172 273.222 9.2002 273.222 10.1182ZM281.989 6.0752L282.04 6.90283C282.597 6.25342 283.358 5.92871 284.325 5.92871C285.385 5.92871 286.11 6.33398 286.5 7.14453C287.077 6.33398 287.887 5.92871 288.932 5.92871C289.806 5.92871 290.456 6.17041 290.88 6.65381C291.31 7.13721 291.53 7.8501 291.54 8.79248V14H289.76V8.84375C289.76 8.34082 289.65 7.97217 289.43 7.73779C289.21 7.50342 288.847 7.38623 288.339 7.38623C287.934 7.38623 287.602 7.49609 287.343 7.71582C287.089 7.93066 286.911 8.21387 286.808 8.56543L286.815 14H285.036V8.78516C285.011 7.85254 284.535 7.38623 283.607 7.38623C282.895 7.38623 282.389 7.67676 282.091 8.25781V14H280.312V6.0752H281.989Z" fill="#BFFBDE"/>
<defs>
<clipPath id="clip0">
<rect width="16.3874" height="16" fill="white" transform="translate(0 2)"/>
</clipPath>
</defs>
</svg>
