<svg width="733" height="66" viewBox="0 0 733 66" fill="none" xmlns="http://www.w3.org/2000/svg">
<path d="M110.561 33.5742H100.049V41.4492H112.336V45H95.6016V19.4062H112.213V22.9922H100.049V30.0586H110.561V33.5742ZM121.723 19.4062L129.105 39.0234L136.471 19.4062H142.219V45H137.789V36.5625L138.229 25.2773L130.67 45H127.488L119.947 25.2949L120.387 36.5625V45H115.957V19.4062H121.723ZM162.135 39.041H152.221L150.146 45H145.523L155.191 19.4062H159.182L168.867 45H164.227L162.135 39.041ZM153.469 35.4551H160.887L157.178 24.8379L153.469 35.4551ZM176.479 45H172.049V19.4062H176.479V45ZM186.393 41.4492H198.012V45H181.945V19.4062H186.393V41.4492ZM203.584 40.5C204.381 40.5 204.996 40.7285 205.43 41.1855C205.863 41.6309 206.08 42.1934 206.08 42.873C206.08 43.541 205.863 44.0977 205.43 44.543C204.996 44.9766 204.381 45.1934 203.584 45.1934C202.822 45.1934 202.219 44.9766 201.773 44.543C201.328 44.1094 201.105 43.5527 201.105 42.873C201.105 42.1934 201.322 41.6309 201.756 41.1855C202.189 40.7285 202.799 40.5 203.584 40.5ZM203.584 25.5762C204.381 25.5762 204.996 25.8047 205.43 26.2617C205.863 26.707 206.08 27.2695 206.08 27.9492C206.08 28.6172 205.863 29.1738 205.43 29.6191C204.996 30.0527 204.381 30.2695 203.584 30.2695C202.822 30.2695 202.219 30.0527 201.773 29.6191C201.328 29.1855 201.105 28.6289 201.105 27.9492C201.105 27.2695 201.322 26.707 201.756 26.2617C202.189 25.8047 202.799 25.5762 203.584 25.5762ZM230.197 39.832C230.197 39.0703 229.881 38.4902 229.248 38.0918C228.627 37.6934 227.59 37.3418 226.137 37.0371C224.684 36.7324 223.471 36.3457 222.498 35.877C220.365 34.8457 219.299 33.3516 219.299 31.3945C219.299 29.7539 219.99 28.3828 221.373 27.2812C222.756 26.1797 224.514 25.6289 226.646 25.6289C228.92 25.6289 230.754 26.1914 232.148 27.3164C233.555 28.4414 234.258 29.9004 234.258 31.6934H229.986C229.986 30.873 229.682 30.1934 229.072 29.6543C228.463 29.1035 227.654 28.8281 226.646 28.8281C225.709 28.8281 224.941 29.0449 224.344 29.4785C223.758 29.9121 223.465 30.4922 223.465 31.2188C223.465 31.875 223.74 32.3848 224.291 32.748C224.842 33.1113 225.955 33.4805 227.631 33.8555C229.307 34.2188 230.619 34.6582 231.568 35.1738C232.529 35.6777 233.238 36.2871 233.695 37.002C234.164 37.7168 234.398 38.584 234.398 39.6035C234.398 41.3145 233.689 42.7031 232.271 43.7695C230.854 44.8242 228.996 45.3516 226.699 45.3516C225.141 45.3516 223.752 45.0703 222.533 44.5078C221.314 43.9453 220.365 43.1719 219.686 42.1875C219.006 41.2031 218.666 40.1426 218.666 39.0059H222.814C222.873 40.0137 223.254 40.793 223.957 41.3438C224.66 41.8828 225.592 42.1523 226.752 42.1523C227.877 42.1523 228.732 41.9414 229.318 41.5195C229.904 41.0859 230.197 40.5234 230.197 39.832ZM249.498 45C249.311 44.6367 249.146 44.0449 249.006 43.2246C247.646 44.6426 245.982 45.3516 244.014 45.3516C242.104 45.3516 240.545 44.8066 239.338 43.7168C238.131 42.627 237.527 41.2793 237.527 39.6738C237.527 37.6465 238.277 36.0938 239.777 35.0156C241.289 33.9258 243.445 33.3809 246.246 33.3809H248.865V32.1328C248.865 31.1484 248.59 30.3633 248.039 29.7773C247.488 29.1797 246.65 28.8809 245.525 28.8809C244.553 28.8809 243.756 29.127 243.135 29.6191C242.514 30.0996 242.203 30.7148 242.203 31.4648H237.932C237.932 30.4219 238.277 29.4492 238.969 28.5469C239.66 27.6328 240.598 26.918 241.781 26.4023C242.977 25.8867 244.307 25.6289 245.771 25.6289C247.998 25.6289 249.773 26.1914 251.098 27.3164C252.422 28.4297 253.102 30 253.137 32.0273V40.6055C253.137 42.3164 253.377 43.6816 253.857 44.7012V45H249.498ZM244.805 41.9238C245.648 41.9238 246.439 41.7188 247.178 41.3086C247.928 40.8984 248.49 40.3477 248.865 39.6562V36.0703H246.562C244.98 36.0703 243.791 36.3457 242.994 36.8965C242.197 37.4473 241.799 38.2266 241.799 39.2344C241.799 40.0547 242.068 40.7109 242.607 41.2031C243.158 41.6836 243.891 41.9238 244.805 41.9238ZM261.574 25.9805L261.697 28.1777C263.104 26.4785 264.949 25.6289 267.234 25.6289C271.195 25.6289 273.211 27.8965 273.281 32.4316V45H269.01V32.6777C269.01 31.4707 268.746 30.5801 268.219 30.0059C267.703 29.4199 266.854 29.127 265.67 29.127C263.947 29.127 262.664 29.9062 261.82 31.4648V45H257.549V25.9805H261.574ZM282.105 25.9805V46.6875C282.105 48.6328 281.619 50.1152 280.646 51.1348C279.686 52.166 278.273 52.6816 276.41 52.6816C275.625 52.6816 274.869 52.582 274.143 52.3828V49.0078C274.588 49.1133 275.092 49.166 275.654 49.166C277.072 49.166 277.799 48.3926 277.834 46.8457V25.9805H282.105ZM277.465 21.041C277.465 20.3848 277.67 19.8398 278.08 19.4062C278.502 18.9727 279.1 18.7559 279.873 18.7559C280.646 18.7559 281.244 18.9727 281.666 19.4062C282.088 19.8398 282.299 20.3848 282.299 21.041C282.299 21.6855 282.088 22.2246 281.666 22.6582C281.244 23.0801 280.646 23.291 279.873 23.291C279.1 23.291 278.502 23.0801 278.08 22.6582C277.67 22.2246 277.465 21.6855 277.465 21.041ZM298.049 45C297.861 44.6367 297.697 44.0449 297.557 43.2246C296.197 44.6426 294.533 45.3516 292.564 45.3516C290.654 45.3516 289.096 44.8066 287.889 43.7168C286.682 42.627 286.078 41.2793 286.078 39.6738C286.078 37.6465 286.828 36.0938 288.328 35.0156C289.84 33.9258 291.996 33.3809 294.797 33.3809H297.416V32.1328C297.416 31.1484 297.141 30.3633 296.59 29.7773C296.039 29.1797 295.201 28.8809 294.076 28.8809C293.104 28.8809 292.307 29.127 291.686 29.6191C291.064 30.0996 290.754 30.7148 290.754 31.4648H286.482C286.482 30.4219 286.828 29.4492 287.52 28.5469C288.211 27.6328 289.148 26.918 290.332 26.4023C291.527 25.8867 292.857 25.6289 294.322 25.6289C296.549 25.6289 298.324 26.1914 299.648 27.3164C300.973 28.4297 301.652 30 301.688 32.0273V40.6055C301.688 42.3164 301.928 43.6816 302.408 44.7012V45H298.049ZM293.355 41.9238C294.199 41.9238 294.99 41.7188 295.729 41.3086C296.479 40.8984 297.041 40.3477 297.416 39.6562V36.0703H295.113C293.531 36.0703 292.342 36.3457 291.545 36.8965C290.748 37.4473 290.35 38.2266 290.35 39.2344C290.35 40.0547 290.619 40.7109 291.158 41.2031C291.709 41.6836 292.441 41.9238 293.355 41.9238ZM310.125 25.9805L310.248 28.1777C311.654 26.4785 313.5 25.6289 315.785 25.6289C319.746 25.6289 321.762 27.8965 321.832 32.4316V45H317.561V32.6777C317.561 31.4707 317.297 30.5801 316.77 30.0059C316.254 29.4199 315.404 29.127 314.221 29.127C312.498 29.127 311.215 29.9062 310.371 31.4648V45H306.1V25.9805H310.125ZM337.564 45C337.377 44.6367 337.213 44.0449 337.072 43.2246C335.713 44.6426 334.049 45.3516 332.08 45.3516C330.17 45.3516 328.611 44.8066 327.404 43.7168C326.197 42.627 325.594 41.2793 325.594 39.6738C325.594 37.6465 326.344 36.0938 327.844 35.0156C329.355 33.9258 331.512 33.3809 334.312 33.3809H336.932V32.1328C336.932 31.1484 336.656 30.3633 336.105 29.7773C335.555 29.1797 334.717 28.8809 333.592 28.8809C332.619 28.8809 331.822 29.127 331.201 29.6191C330.58 30.0996 330.27 30.7148 330.27 31.4648H325.998C325.998 30.4219 326.344 29.4492 327.035 28.5469C327.727 27.6328 328.664 26.918 329.848 26.4023C331.043 25.8867 332.373 25.6289 333.838 25.6289C336.064 25.6289 337.84 26.1914 339.164 27.3164C340.488 28.4297 341.168 30 341.203 32.0273V40.6055C341.203 42.3164 341.443 43.6816 341.924 44.7012V45H337.564ZM332.871 41.9238C333.715 41.9238 334.506 41.7188 335.244 41.3086C335.994 40.8984 336.557 40.3477 336.932 39.6562V36.0703H334.629C333.047 36.0703 331.857 36.3457 331.061 36.8965C330.264 37.4473 329.865 38.2266 329.865 39.2344C329.865 40.0547 330.135 40.7109 330.674 41.2031C331.225 41.6836 331.957 41.9238 332.871 41.9238ZM362.367 35.6836C362.367 38.6367 361.705 40.9863 360.381 42.7324C359.068 44.4785 357.258 45.3516 354.949 45.3516C352.723 45.3516 350.988 44.5488 349.746 42.9434L349.535 45H345.668V18H349.939V27.8086C351.17 26.3555 352.828 25.6289 354.914 25.6289C357.234 25.6289 359.057 26.4902 360.381 28.2129C361.705 29.9355 362.367 32.3438 362.367 35.4375V35.6836ZM358.096 35.3145C358.096 33.252 357.732 31.7051 357.006 30.6738C356.279 29.6426 355.225 29.127 353.842 29.127C351.99 29.127 350.689 29.9355 349.939 31.5527V39.3926C350.701 41.0449 352.014 41.8711 353.877 41.8711C355.213 41.8711 356.244 41.373 356.971 40.377C357.697 39.3809 358.072 37.875 358.096 35.8594V35.3145ZM370.172 28.0547C371.566 26.4375 373.33 25.6289 375.463 25.6289C379.518 25.6289 381.574 27.9434 381.633 32.5723V45H377.361V32.7305C377.361 31.418 377.074 30.4922 376.5 29.9531C375.938 29.4023 375.105 29.127 374.004 29.127C372.293 29.127 371.016 29.8887 370.172 31.4121V45H365.9V18H370.172V28.0547ZM397.33 45C397.143 44.6367 396.979 44.0449 396.838 43.2246C395.479 44.6426 393.814 45.3516 391.846 45.3516C389.936 45.3516 388.377 44.8066 387.17 43.7168C385.963 42.627 385.359 41.2793 385.359 39.6738C385.359 37.6465 386.109 36.0938 387.609 35.0156C389.121 33.9258 391.277 33.3809 394.078 33.3809H396.697V32.1328C396.697 31.1484 396.422 30.3633 395.871 29.7773C395.32 29.1797 394.482 28.8809 393.357 28.8809C392.385 28.8809 391.588 29.127 390.967 29.6191C390.346 30.0996 390.035 30.7148 390.035 31.4648H385.764C385.764 30.4219 386.109 29.4492 386.801 28.5469C387.492 27.6328 388.43 26.918 389.613 26.4023C390.809 25.8867 392.139 25.6289 393.604 25.6289C395.83 25.6289 397.605 26.1914 398.93 27.3164C400.254 28.4297 400.934 30 400.969 32.0273V40.6055C400.969 42.3164 401.209 43.6816 401.689 44.7012V45H397.33ZM392.637 41.9238C393.48 41.9238 394.271 41.7188 395.01 41.3086C395.76 40.8984 396.322 40.3477 396.697 39.6562V36.0703H394.395C392.812 36.0703 391.623 36.3457 390.826 36.8965C390.029 37.4473 389.631 38.2266 389.631 39.2344C389.631 40.0547 389.9 40.7109 390.439 41.2031C390.99 41.6836 391.723 41.9238 392.637 41.9238ZM415.4 29.8828C414.838 29.7891 414.258 29.7422 413.66 29.7422C411.703 29.7422 410.385 30.4922 409.705 31.9922V45H405.434V25.9805H409.512L409.617 28.1074C410.648 26.4551 412.078 25.6289 413.906 25.6289C414.516 25.6289 415.02 25.7109 415.418 25.875L415.4 29.8828ZM428.936 45C428.748 44.6367 428.584 44.0449 428.443 43.2246C427.084 44.6426 425.42 45.3516 423.451 45.3516C421.541 45.3516 419.982 44.8066 418.775 43.7168C417.568 42.627 416.965 41.2793 416.965 39.6738C416.965 37.6465 417.715 36.0938 419.215 35.0156C420.727 33.9258 422.883 33.3809 425.684 33.3809H428.303V32.1328C428.303 31.1484 428.027 30.3633 427.477 29.7773C426.926 29.1797 426.088 28.8809 424.963 28.8809C423.99 28.8809 423.193 29.127 422.572 29.6191C421.951 30.0996 421.641 30.7148 421.641 31.4648H417.369C417.369 30.4219 417.715 29.4492 418.406 28.5469C419.098 27.6328 420.035 26.918 421.219 26.4023C422.414 25.8867 423.744 25.6289 425.209 25.6289C427.436 25.6289 429.211 26.1914 430.535 27.3164C431.859 28.4297 432.539 30 432.574 32.0273V40.6055C432.574 42.3164 432.814 43.6816 433.295 44.7012V45H428.936ZM424.242 41.9238C425.086 41.9238 425.877 41.7188 426.615 41.3086C427.365 40.8984 427.928 40.3477 428.303 39.6562V36.0703H426C424.418 36.0703 423.229 36.3457 422.432 36.8965C421.635 37.4473 421.236 38.2266 421.236 39.2344C421.236 40.0547 421.506 40.7109 422.045 41.2031C422.596 41.6836 423.328 41.9238 424.242 41.9238ZM436.248 35.3496C436.248 32.4199 436.928 30.0703 438.287 28.3008C439.646 26.5195 441.469 25.6289 443.754 25.6289C445.77 25.6289 447.398 26.332 448.641 27.7383V18H452.912V45H449.045L448.834 43.0312C447.557 44.5781 445.852 45.3516 443.719 45.3516C441.492 45.3516 439.688 44.4551 438.305 42.6621C436.934 40.8691 436.248 38.4316 436.248 35.3496ZM440.52 35.7188C440.52 37.6523 440.889 39.1641 441.627 40.2539C442.377 41.332 443.438 41.8711 444.809 41.8711C446.555 41.8711 447.832 41.0918 448.641 39.5332V31.4121C447.855 29.8887 446.59 29.127 444.844 29.127C443.461 29.127 442.395 29.6777 441.645 30.7793C440.895 31.8691 440.52 33.5156 440.52 35.7188ZM474.076 39.1113L477.1 25.9805H481.266L476.08 45H472.564L468.486 31.9395L464.479 45H460.963L455.76 25.9805H459.926L463.002 38.9707L466.904 25.9805H470.121L474.076 39.1113ZM495.486 45C495.299 44.6367 495.135 44.0449 494.994 43.2246C493.635 44.6426 491.971 45.3516 490.002 45.3516C488.092 45.3516 486.533 44.8066 485.326 43.7168C484.119 42.627 483.516 41.2793 483.516 39.6738C483.516 37.6465 484.266 36.0938 485.766 35.0156C487.277 33.9258 489.434 33.3809 492.234 33.3809H494.854V32.1328C494.854 31.1484 494.578 30.3633 494.027 29.7773C493.477 29.1797 492.639 28.8809 491.514 28.8809C490.541 28.8809 489.744 29.127 489.123 29.6191C488.502 30.0996 488.191 30.7148 488.191 31.4648H483.92C483.92 30.4219 484.266 29.4492 484.957 28.5469C485.648 27.6328 486.586 26.918 487.77 26.4023C488.965 25.8867 490.295 25.6289 491.76 25.6289C493.986 25.6289 495.762 26.1914 497.086 27.3164C498.41 28.4297 499.09 30 499.125 32.0273V40.6055C499.125 42.3164 499.365 43.6816 499.846 44.7012V45H495.486ZM490.793 41.9238C491.637 41.9238 492.428 41.7188 493.166 41.3086C493.916 40.8984 494.479 40.3477 494.854 39.6562V36.0703H492.551C490.969 36.0703 489.779 36.3457 488.982 36.8965C488.186 37.4473 487.787 38.2266 487.787 39.2344C487.787 40.0547 488.057 40.7109 488.596 41.2031C489.146 41.6836 489.879 41.9238 490.793 41.9238ZM508.055 25.9805V46.6875C508.055 48.6328 507.568 50.1152 506.596 51.1348C505.635 52.166 504.223 52.6816 502.359 52.6816C501.574 52.6816 500.818 52.582 500.092 52.3828V49.0078C500.537 49.1133 501.041 49.166 501.604 49.166C503.021 49.166 503.748 48.3926 503.783 46.8457V25.9805H508.055ZM503.414 21.041C503.414 20.3848 503.619 19.8398 504.029 19.4062C504.451 18.9727 505.049 18.7559 505.822 18.7559C506.596 18.7559 507.193 18.9727 507.615 19.4062C508.037 19.8398 508.248 20.3848 508.248 21.041C508.248 21.6855 508.037 22.2246 507.615 22.6582C507.193 23.0801 506.596 23.291 505.822 23.291C505.049 23.291 504.451 23.0801 504.029 22.6582C503.619 22.2246 503.414 21.6855 503.414 21.041ZM523.998 45C523.811 44.6367 523.646 44.0449 523.506 43.2246C522.146 44.6426 520.482 45.3516 518.514 45.3516C516.604 45.3516 515.045 44.8066 513.838 43.7168C512.631 42.627 512.027 41.2793 512.027 39.6738C512.027 37.6465 512.777 36.0938 514.277 35.0156C515.789 33.9258 517.945 33.3809 520.746 33.3809H523.365V32.1328C523.365 31.1484 523.09 30.3633 522.539 29.7773C521.988 29.1797 521.15 28.8809 520.025 28.8809C519.053 28.8809 518.256 29.127 517.635 29.6191C517.014 30.0996 516.703 30.7148 516.703 31.4648H512.432C512.432 30.4219 512.777 29.4492 513.469 28.5469C514.16 27.6328 515.098 26.918 516.281 26.4023C517.477 25.8867 518.807 25.6289 520.271 25.6289C522.498 25.6289 524.273 26.1914 525.598 27.3164C526.922 28.4297 527.602 30 527.637 32.0273V40.6055C527.637 42.3164 527.877 43.6816 528.357 44.7012V45H523.998ZM519.305 41.9238C520.148 41.9238 520.939 41.7188 521.678 41.3086C522.428 40.8984 522.99 40.3477 523.365 39.6562V36.0703H521.062C519.48 36.0703 518.291 36.3457 517.494 36.8965C516.697 37.4473 516.299 38.2266 516.299 39.2344C516.299 40.0547 516.568 40.7109 517.107 41.2031C517.658 41.6836 518.391 41.9238 519.305 41.9238ZM560.525 35.8945C560.385 38.8242 559.664 41.1387 558.363 42.8379C557.062 44.5254 555.299 45.3691 553.072 45.3691C550.951 45.3691 549.533 44.4668 548.818 42.6621C548.221 43.5527 547.523 44.2207 546.727 44.666C545.941 45.1113 545.115 45.334 544.248 45.334C542.537 45.334 541.236 44.6309 540.346 43.2246C539.467 41.8184 539.133 39.9375 539.344 37.582C539.531 35.6719 539.994 33.9492 540.732 32.4141C541.482 30.8789 542.426 29.6953 543.562 28.8633C544.711 28.0195 545.93 27.5977 547.219 27.5977C548.203 27.5977 549.07 27.7207 549.82 27.9668C550.582 28.2129 551.473 28.7227 552.492 29.4961L551.578 39.3926C551.355 41.7129 552.023 42.873 553.582 42.873C554.777 42.873 555.756 42.2344 556.518 40.957C557.291 39.668 557.713 38.0039 557.783 35.9648C557.982 31.6406 557.145 28.3301 555.27 26.0332C553.406 23.7363 550.6 22.5879 546.85 22.5879C544.553 22.5879 542.514 23.1621 540.732 24.3105C538.963 25.459 537.557 27.123 536.514 29.3027C535.471 31.4707 534.896 33.9434 534.791 36.7207C534.65 39.5449 534.984 41.9824 535.793 44.0332C536.613 46.0723 537.861 47.625 539.537 48.6914C541.225 49.7578 543.281 50.291 545.707 50.291C546.691 50.291 547.717 50.1738 548.783 49.9395C549.861 49.7051 550.775 49.3887 551.525 48.9902L552.193 51.3984C551.479 51.8672 550.512 52.2422 549.293 52.5234C548.086 52.8164 546.867 52.9629 545.637 52.9629C542.66 52.9629 540.105 52.3301 537.973 51.0645C535.84 49.8105 534.24 47.9883 533.174 45.5977C532.072 43.125 531.586 40.166 531.715 36.7207C531.855 33.5098 532.576 30.627 533.877 28.0723C535.178 25.5059 536.953 23.5137 539.203 22.0957C541.465 20.6777 544.037 19.9688 546.92 19.9688C549.838 19.9688 552.346 20.6133 554.443 21.9023C556.553 23.1797 558.129 25.0254 559.172 27.4395C560.215 29.8418 560.666 32.6602 560.525 35.8945ZM542.789 37.582C542.637 39.1758 542.777 40.3887 543.211 41.2207C543.645 42.041 544.336 42.4512 545.285 42.4512C545.918 42.4512 546.516 42.1758 547.078 41.625C547.641 41.0625 548.098 40.2949 548.449 39.3223L549.24 30.6562C548.654 30.4336 548.086 30.3223 547.535 30.3223C546.234 30.3223 545.174 30.9375 544.354 32.168C543.533 33.3867 543.012 35.1914 542.789 37.582ZM563.566 35.3496C563.566 32.3965 564.258 30.041 565.641 28.2832C567.035 26.5137 568.881 25.6289 571.178 25.6289C573.346 25.6289 575.051 26.3848 576.293 27.8965L576.486 25.9805H580.336V44.4199C580.336 46.916 579.557 48.8848 577.998 50.3262C576.451 51.7676 574.359 52.4883 571.723 52.4883C570.328 52.4883 568.963 52.1953 567.627 51.6094C566.303 51.0352 565.295 50.2793 564.604 49.3418L566.625 46.7754C567.938 48.334 569.555 49.1133 571.477 49.1133C572.895 49.1133 574.014 48.7266 574.834 47.9531C575.654 47.1914 576.064 46.0664 576.064 44.5781V43.2949C574.834 44.666 573.193 45.3516 571.143 45.3516C568.916 45.3516 567.094 44.4668 565.676 42.6973C564.27 40.9277 563.566 38.4785 563.566 35.3496ZM567.82 35.7188C567.82 37.6289 568.207 39.1348 568.98 40.2363C569.766 41.3262 570.85 41.8711 572.232 41.8711C573.955 41.8711 575.232 41.1328 576.064 39.6562V31.2891C575.256 29.8477 573.99 29.127 572.268 29.127C570.861 29.127 569.766 29.6836 568.98 30.7969C568.207 31.9102 567.82 33.5508 567.82 35.7188ZM588.756 25.9805L588.879 27.9668C590.215 26.4082 592.043 25.6289 594.363 25.6289C596.906 25.6289 598.646 26.6016 599.584 28.5469C600.967 26.6016 602.912 25.6289 605.42 25.6289C607.518 25.6289 609.076 26.209 610.096 27.3691C611.127 28.5293 611.654 30.2402 611.678 32.502V45H607.406V32.625C607.406 31.418 607.143 30.5332 606.615 29.9707C606.088 29.4082 605.215 29.127 603.996 29.127C603.023 29.127 602.227 29.3906 601.605 29.918C600.996 30.4336 600.568 31.1133 600.322 31.957L600.34 45H596.068V32.4844C596.01 30.2461 594.867 29.127 592.641 29.127C590.93 29.127 589.717 29.8242 589.002 31.2188V45H584.73V25.9805H588.756ZM627.428 45C627.24 44.6367 627.076 44.0449 626.936 43.2246C625.576 44.6426 623.912 45.3516 621.943 45.3516C620.033 45.3516 618.475 44.8066 617.268 43.7168C616.061 42.627 615.457 41.2793 615.457 39.6738C615.457 37.6465 616.207 36.0938 617.707 35.0156C619.219 33.9258 621.375 33.3809 624.176 33.3809H626.795V32.1328C626.795 31.1484 626.52 30.3633 625.969 29.7773C625.418 29.1797 624.58 28.8809 623.455 28.8809C622.482 28.8809 621.686 29.127 621.064 29.6191C620.443 30.0996 620.133 30.7148 620.133 31.4648H615.861C615.861 30.4219 616.207 29.4492 616.898 28.5469C617.59 27.6328 618.527 26.918 619.711 26.4023C620.906 25.8867 622.236 25.6289 623.701 25.6289C625.928 25.6289 627.703 26.1914 629.027 27.3164C630.352 28.4297 631.031 30 631.066 32.0273V40.6055C631.066 42.3164 631.307 43.6816 631.787 44.7012V45H627.428ZM622.734 41.9238C623.578 41.9238 624.369 41.7188 625.107 41.3086C625.857 40.8984 626.42 40.3477 626.795 39.6562V36.0703H624.492C622.91 36.0703 621.721 36.3457 620.924 36.8965C620.127 37.4473 619.729 38.2266 619.729 39.2344C619.729 40.0547 619.998 40.7109 620.537 41.2031C621.088 41.6836 621.82 41.9238 622.734 41.9238ZM640.084 45H635.812V25.9805H640.084V45ZM635.549 21.041C635.549 20.3848 635.754 19.8398 636.164 19.4062C636.586 18.9727 637.184 18.7559 637.957 18.7559C638.73 18.7559 639.328 18.9727 639.75 19.4062C640.172 19.8398 640.383 20.3848 640.383 21.041C640.383 21.6855 640.172 22.2246 639.75 22.6582C639.328 23.0801 638.73 23.291 637.957 23.291C637.184 23.291 636.586 23.0801 636.164 22.6582C635.754 22.2246 635.549 21.6855 635.549 21.041ZM649.295 45H645.023V18H649.295V45ZM656.625 40.5C657.422 40.5 658.037 40.7285 658.471 41.1855C658.904 41.6309 659.121 42.1934 659.121 42.873C659.121 43.541 658.904 44.0977 658.471 44.543C658.037 44.9766 657.422 45.1934 656.625 45.1934C655.863 45.1934 655.26 44.9766 654.814 44.543C654.369 44.1094 654.146 43.5527 654.146 42.873C654.146 42.1934 654.363 41.6309 654.797 41.1855C655.23 40.7285 655.84 40.5 656.625 40.5ZM671.83 41.9414C672.896 41.9414 673.781 41.6309 674.484 41.0098C675.188 40.3887 675.562 39.6211 675.609 38.707H679.635C679.588 39.8906 679.219 40.998 678.527 42.0293C677.836 43.0488 676.898 43.8574 675.715 44.4551C674.531 45.0527 673.254 45.3516 671.883 45.3516C669.223 45.3516 667.113 44.4902 665.555 42.7676C663.996 41.0449 663.217 38.666 663.217 35.6309V35.1914C663.217 32.2969 663.99 29.9824 665.537 28.248C667.084 26.502 669.193 25.6289 671.865 25.6289C674.127 25.6289 675.967 26.291 677.385 27.6152C678.814 28.9277 679.564 30.6562 679.635 32.8008H675.609C675.562 31.7109 675.188 30.8145 674.484 30.1113C673.793 29.4082 672.908 29.0566 671.83 29.0566C670.447 29.0566 669.381 29.5605 668.631 30.5684C667.881 31.5645 667.5 33.082 667.488 35.1211V35.8066C667.488 37.8691 667.857 39.4102 668.596 40.4297C669.346 41.4375 670.424 41.9414 671.83 41.9414ZM682.061 35.3145C682.061 33.4512 682.43 31.7754 683.168 30.2871C683.906 28.7871 684.943 27.6387 686.279 26.8418C687.615 26.0332 689.15 25.6289 690.885 25.6289C693.451 25.6289 695.531 26.4551 697.125 28.1074C698.73 29.7598 699.598 31.9512 699.727 34.6816L699.744 35.6836C699.744 37.5586 699.381 39.2344 698.654 40.7109C697.939 42.1875 696.908 43.3301 695.561 44.1387C694.225 44.9473 692.678 45.3516 690.92 45.3516C688.236 45.3516 686.086 44.4609 684.469 42.6797C682.863 40.8867 682.061 38.502 682.061 35.5254V35.3145ZM686.332 35.6836C686.332 37.6406 686.736 39.1758 687.545 40.2891C688.354 41.3906 689.479 41.9414 690.92 41.9414C692.361 41.9414 693.48 41.3789 694.277 40.2539C695.086 39.1289 695.49 37.4824 695.49 35.3145C695.49 33.3926 695.074 31.8691 694.242 30.7441C693.422 29.6191 692.303 29.0566 690.885 29.0566C689.49 29.0566 688.383 29.6133 687.562 30.7266C686.742 31.8281 686.332 33.4805 686.332 35.6836ZM707.373 25.9805L707.496 27.9668C708.832 26.4082 710.66 25.6289 712.98 25.6289C715.523 25.6289 717.264 26.6016 718.201 28.5469C719.584 26.6016 721.529 25.6289 724.037 25.6289C726.135 25.6289 727.693 26.209 728.713 27.3691C729.744 28.5293 730.271 30.2402 730.295 32.502V45H726.023V32.625C726.023 31.418 725.76 30.5332 725.232 29.9707C724.705 29.4082 723.832 29.127 722.613 29.127C721.641 29.127 720.844 29.3906 720.223 29.918C719.613 30.4336 719.186 31.1133 718.939 31.957L718.957 45H714.686V32.4844C714.627 30.2461 713.484 29.127 711.258 29.127C709.547 29.127 708.334 29.8242 707.619 31.2188V45H703.348V25.9805H707.373Z" fill="#BFFBDE"/>
<path d="M60.1992 7.86328H5.80078C2.60623 7.86328 0 10.4667 0 13.6641V52.3359C0 55.5225 2.59462 58.1367 5.80078 58.1367H60.1992C63.3858 58.1367 66 55.5421 66 52.3359V13.6641C66 10.4775 63.4054 7.86328 60.1992 7.86328ZM59.3982 11.7305L33.123 38.0058L6.6205 11.7305H59.3982ZM3.86719 51.5352V14.4464L22.4914 32.9109L3.86719 51.5352ZM6.60168 54.2695L25.2377 35.6336L31.7677 42.1075C32.5236 42.8569 33.7434 42.8545 34.4962 42.1016L40.8633 35.7345L59.3983 54.2695H6.60168ZM62.1328 51.535L43.5978 33L62.1328 14.4648V51.535Z" fill="#BFFBDE"/>
</svg>
