<svg width="61" height="18" viewBox="0 0 61 18" fill="none" xmlns="http://www.w3.org/2000/svg">
<path d="M26.6137 14H24.768V9.26123H19.9999V14H18.1469V3.33594H19.9999V7.77441H24.768V3.33594H26.6137V14ZM37.3217 8.94629C37.3217 9.99121 37.1411 10.9092 36.7797 11.7002C36.4184 12.4863 35.9008 13.0918 35.227 13.5166C34.558 13.9365 33.7866 14.1465 32.9125 14.1465C32.0483 14.1465 31.2768 13.9365 30.5981 13.5166C29.9243 13.0918 29.4018 12.4888 29.0307 11.7075C28.6645 10.9263 28.4789 10.0254 28.4741 9.00488V8.4043C28.4741 7.36426 28.6572 6.44629 29.0234 5.65039C29.3945 4.85449 29.9145 4.24658 30.5834 3.82666C31.2573 3.40186 32.0287 3.18945 32.8979 3.18945C33.767 3.18945 34.5361 3.39941 35.205 3.81934C35.8788 4.23438 36.3989 4.83496 36.7651 5.62109C37.1313 6.40234 37.3168 7.31299 37.3217 8.35303V8.94629ZM35.4687 8.38965C35.4687 7.20801 35.2441 6.30225 34.7949 5.67236C34.3505 5.04248 33.7182 4.72754 32.8979 4.72754C32.0971 4.72754 31.4697 5.04248 31.0156 5.67236C30.5663 6.29736 30.3369 7.18359 30.3271 8.33105V8.94629C30.3271 10.1182 30.5541 11.0239 31.0082 11.6636C31.4672 12.3032 32.102 12.623 32.9125 12.623C33.7328 12.623 34.3627 12.3105 34.8022 11.6855C35.2465 11.0605 35.4687 10.1475 35.4687 8.94629V8.38965ZM41.5698 3.33594L44.6459 11.5098L47.7148 3.33594H50.1098V14H48.2641V10.4844L48.4472 5.78223L45.2978 14H43.9721L40.83 5.78955L41.0131 10.4844V14H39.1674V3.33594H41.5698ZM58.54 9.23926H54.1601V12.5205H59.2797V14H52.3071V3.33594H59.2285V4.83008H54.1601V7.77441H58.54V9.23926Z" fill="#405C50"/>
<path d="M6.04318 13.8571V10.2143H8.46043V13.8571H11.482V9H13.2949L7.2518 3.53571L1.20868 9H3.02162V13.8571H6.04318Z" fill="#405C50"/>
</svg>
