<svg width="145" height="42" viewBox="0 0 145 42" fill="none" xmlns="http://www.w3.org/2000/svg">
<path d="M14.1666 32.3333V23.8333H19.8333V32.3333H26.9166V21H31.1666L16.9999 8.25L2.83325 21H7.08325V32.3333H14.1666Z" fill="#405C50"/>
<path d="M64.9219 33H60.4922V21.627H49.0488V33H44.6016V7.40625H49.0488V18.0586H60.4922V7.40625H64.9219V33ZM90.6211 20.8711C90.6211 23.3789 90.1875 25.582 89.3203 27.4805C88.4531 29.3672 87.2109 30.8203 85.5938 31.8398C83.9883 32.8477 82.1367 33.3516 80.0391 33.3516C77.9648 33.3516 76.1133 32.8477 74.4844 31.8398C72.8672 30.8203 71.6133 29.373 70.7227 27.498C69.8438 25.623 69.3984 23.4609 69.3867 21.0117V19.5703C69.3867 17.0742 69.8262 14.8711 70.7051 12.9609C71.5957 11.0508 72.8438 9.5918 74.4492 8.58398C76.0664 7.56445 77.918 7.05469 80.0039 7.05469C82.0898 7.05469 83.9355 7.55859 85.541 8.56641C87.1582 9.5625 88.4062 11.0039 89.2852 12.8906C90.1641 14.7656 90.6094 16.9512 90.6211 19.4473V20.8711ZM86.1738 19.5352C86.1738 16.6992 85.6348 14.5254 84.5566 13.0137C83.4902 11.502 81.9727 10.7461 80.0039 10.7461C78.082 10.7461 76.5762 11.502 75.4863 13.0137C74.4082 14.5137 73.8574 16.6406 73.834 19.3945V20.8711C73.834 23.6836 74.3789 25.8574 75.4688 27.3926C76.5703 28.9277 78.0938 29.6953 80.0391 29.6953C82.0078 29.6953 83.5195 28.9453 84.5742 27.4453C85.6406 25.9453 86.1738 23.7539 86.1738 20.8711V19.5352ZM100.816 7.40625L108.199 27.0234L115.564 7.40625H121.312V33H116.883V24.5625L117.322 13.2773L109.764 33H106.582L99.041 13.2949L99.4805 24.5625V33H95.0508V7.40625H100.816ZM141.545 21.5742H131.033V29.4492H143.32V33H126.586V7.40625H143.197V10.9922H131.033V18.0586H141.545V21.5742Z" fill="#405C50"/>
</svg>
