<svg width="143" height="42" viewBox="0 0 143 42" fill="none" xmlns="http://www.w3.org/2000/svg">
<path d="M62.9219 33H58.4922V21.627H47.0488V33H42.6016V7.40625H47.0488V18.0586H58.4922V7.40625H62.9219V33ZM88.6211 20.8711C88.6211 23.3789 88.1875 25.582 87.3203 27.4805C86.4531 29.3672 85.2109 30.8203 83.5938 31.8398C81.9883 32.8477 80.1367 33.3516 78.0391 33.3516C75.9648 33.3516 74.1133 32.8477 72.4844 31.8398C70.8672 30.8203 69.6133 29.373 68.7227 27.498C67.8438 25.623 67.3984 23.4609 67.3867 21.0117V19.5703C67.3867 17.0742 67.8262 14.8711 68.7051 12.9609C69.5957 11.0508 70.8438 9.5918 72.4492 8.58398C74.0664 7.56445 75.918 7.05469 78.0039 7.05469C80.0898 7.05469 81.9355 7.55859 83.541 8.56641C85.1582 9.5625 86.4062 11.0039 87.2852 12.8906C88.1641 14.7656 88.6094 16.9512 88.6211 19.4473V20.8711ZM84.1738 19.5352C84.1738 16.6992 83.6348 14.5254 82.5566 13.0137C81.4902 11.502 79.9727 10.7461 78.0039 10.7461C76.082 10.7461 74.5762 11.502 73.4863 13.0137C72.4082 14.5137 71.8574 16.6406 71.834 19.3945V20.8711C71.834 23.6836 72.3789 25.8574 73.4688 27.3926C74.5703 28.9277 76.0938 29.6953 78.0391 29.6953C80.0078 29.6953 81.5195 28.9453 82.5742 27.4453C83.6406 25.9453 84.1738 23.7539 84.1738 20.8711V19.5352ZM98.8164 7.40625L106.199 27.0234L113.564 7.40625H119.312V33H114.883V24.5625L115.322 13.2773L107.764 33H104.582L97.041 13.2949L97.4805 24.5625V33H93.0508V7.40625H98.8164ZM139.545 21.5742H129.033V29.4492H141.32V33H124.586V7.40625H141.197V10.9922H129.033V18.0586H139.545V21.5742Z" fill="#BFFBDE"/>
<path d="M14.1666 32.3333V23.8333H19.8333V32.3333H26.9166V21H31.1666L16.9999 8.25L2.83325 21H7.08325V32.3333H14.1666Z" fill="#BFFBDE"/>
</svg>
