<svg width="1026" height="54" viewBox="0 0 1026 54" fill="none" xmlns="http://www.w3.org/2000/svg">
<path d="M92.0488 41.4492H103.668V45H87.6016V19.4062H92.0488V41.4492ZM111.771 45H107.342V19.4062H111.771V45ZM137.541 45H133.094L121.686 26.8418V45H117.238V19.4062H121.686L133.129 37.6348V19.4062H137.541V45ZM150.145 33.9434L147.244 37.0195V45H142.797V19.4062H147.244V31.4121L149.705 28.3711L157.193 19.4062H162.572L153.062 30.7441L163.117 45H157.844L150.145 33.9434ZM180.467 33.5742H169.955V41.4492H182.242V45H165.508V19.4062H182.119V22.9922H169.955V30.0586H180.467V33.5742ZM185.863 45V19.4062H193.422C195.684 19.4062 197.688 19.9102 199.434 20.918C201.191 21.9258 202.551 23.3555 203.512 25.207C204.473 27.0586 204.953 29.1797 204.953 31.5703V32.8535C204.953 35.2793 204.467 37.4121 203.494 39.252C202.533 41.0918 201.156 42.5098 199.363 43.5059C197.582 44.502 195.537 45 193.229 45H185.863ZM190.311 22.9922V41.4492H193.211C195.543 41.4492 197.33 40.7227 198.572 39.2695C199.826 37.8047 200.465 35.707 200.488 32.9766V31.5527C200.488 28.7754 199.885 26.6543 198.678 25.1895C197.471 23.7246 195.719 22.9922 193.422 22.9922H190.311ZM214.076 45H209.646V19.4062H214.076V45ZM239.846 45H235.398L223.99 26.8418V45H219.543V19.4062H223.99L235.434 37.6348V19.4062H239.846V45ZM247.264 40.5C248.061 40.5 248.676 40.7285 249.109 41.1855C249.543 41.6309 249.76 42.1934 249.76 42.873C249.76 43.541 249.543 44.0977 249.109 44.543C248.676 44.9766 248.061 45.1934 247.264 45.1934C246.502 45.1934 245.898 44.9766 245.453 44.543C245.008 44.1094 244.785 43.5527 244.785 42.873C244.785 42.1934 245.002 41.6309 245.436 41.1855C245.869 40.7285 246.479 40.5 247.264 40.5ZM247.264 25.5762C248.061 25.5762 248.676 25.8047 249.109 26.2617C249.543 26.707 249.76 27.2695 249.76 27.9492C249.76 28.6172 249.543 29.1738 249.109 29.6191C248.676 30.0527 248.061 30.2695 247.264 30.2695C246.502 30.2695 245.898 30.0527 245.453 29.6191C245.008 29.1855 244.785 28.6289 244.785 27.9492C244.785 27.2695 245.002 26.707 245.436 26.2617C245.869 25.8047 246.479 25.5762 247.264 25.5762ZM267.76 45H263.488V18H267.76V45ZM276.971 45H272.699V25.9805H276.971V45ZM272.436 21.041C272.436 20.3848 272.641 19.8398 273.051 19.4062C273.473 18.9727 274.07 18.7559 274.844 18.7559C275.617 18.7559 276.215 18.9727 276.637 19.4062C277.059 19.8398 277.27 20.3848 277.27 21.041C277.27 21.6855 277.059 22.2246 276.637 22.6582C276.215 23.0801 275.617 23.291 274.844 23.291C274.07 23.291 273.473 23.0801 273.051 22.6582C272.641 22.2246 272.436 21.6855 272.436 21.041ZM285.602 25.9805L285.725 28.1777C287.131 26.4785 288.977 25.6289 291.262 25.6289C295.223 25.6289 297.238 27.8965 297.309 32.4316V45H293.037V32.6777C293.037 31.4707 292.773 30.5801 292.246 30.0059C291.73 29.4199 290.881 29.127 289.697 29.127C287.975 29.127 286.691 29.9062 285.848 31.4648V45H281.576V25.9805H285.602ZM307.855 36.8438L305.957 38.7949V45H301.686V18H305.957V33.5742L307.293 31.9043L312.549 25.9805H317.682L310.615 33.9082L318.438 45H313.498L307.855 36.8438ZM328.51 45.3516C325.803 45.3516 323.605 44.502 321.918 42.8027C320.242 41.0918 319.404 38.8184 319.404 35.9824V35.4551C319.404 33.5566 319.768 31.8633 320.494 30.375C321.232 28.875 322.264 27.709 323.588 26.877C324.912 26.0449 326.389 25.6289 328.018 25.6289C330.607 25.6289 332.605 26.4551 334.012 28.1074C335.43 29.7598 336.139 32.0977 336.139 35.1211V36.8438H323.711C323.84 38.4141 324.361 39.6562 325.275 40.5703C326.201 41.4844 327.361 41.9414 328.756 41.9414C330.713 41.9414 332.307 41.1504 333.537 39.5684L335.84 41.7656C335.078 42.9023 334.059 43.7871 332.781 44.4199C331.516 45.041 330.092 45.3516 328.51 45.3516ZM328 29.0566C326.828 29.0566 325.879 29.4668 325.152 30.2871C324.438 31.1074 323.98 32.25 323.781 33.7148H331.92V33.3984C331.826 31.9688 331.445 30.8906 330.777 30.1641C330.109 29.4258 329.184 29.0566 328 29.0566ZM338.67 35.3496C338.67 32.4199 339.35 30.0703 340.709 28.3008C342.068 26.5195 343.891 25.6289 346.176 25.6289C348.191 25.6289 349.82 26.332 351.062 27.7383V18H355.334V45H351.467L351.256 43.0312C349.979 44.5781 348.273 45.3516 346.141 45.3516C343.914 45.3516 342.109 44.4551 340.727 42.6621C339.355 40.8691 338.67 38.4316 338.67 35.3496ZM342.941 35.7188C342.941 37.6523 343.311 39.1641 344.049 40.2539C344.799 41.332 345.859 41.8711 347.23 41.8711C348.977 41.8711 350.254 41.0918 351.062 39.5332V31.4121C350.277 29.8887 349.012 29.127 347.266 29.127C345.883 29.127 344.816 29.6777 344.066 30.7793C343.316 31.8691 342.941 33.5156 342.941 35.7188ZM364.334 45H360.062V25.9805H364.334V45ZM359.799 21.041C359.799 20.3848 360.004 19.8398 360.414 19.4062C360.836 18.9727 361.434 18.7559 362.207 18.7559C362.98 18.7559 363.578 18.9727 364 19.4062C364.422 19.8398 364.633 20.3848 364.633 21.041C364.633 21.6855 364.422 22.2246 364 22.6582C363.578 23.0801 362.98 23.291 362.207 23.291C361.434 23.291 360.836 23.0801 360.414 22.6582C360.004 22.2246 359.799 21.6855 359.799 21.041ZM372.965 25.9805L373.088 28.1777C374.494 26.4785 376.34 25.6289 378.625 25.6289C382.586 25.6289 384.602 27.8965 384.672 32.4316V45H380.4V32.6777C380.4 31.4707 380.137 30.5801 379.609 30.0059C379.094 29.4199 378.244 29.127 377.061 29.127C375.338 29.127 374.055 29.9062 373.211 31.4648V45H368.939V25.9805H372.965ZM391.703 40.5C392.5 40.5 393.115 40.7285 393.549 41.1855C393.982 41.6309 394.199 42.1934 394.199 42.873C394.199 43.541 393.982 44.0977 393.549 44.543C393.115 44.9766 392.5 45.1934 391.703 45.1934C390.941 45.1934 390.338 44.9766 389.893 44.543C389.447 44.1094 389.225 43.5527 389.225 42.873C389.225 42.1934 389.441 41.6309 389.875 41.1855C390.309 40.7285 390.918 40.5 391.703 40.5ZM406.908 41.9414C407.975 41.9414 408.859 41.6309 409.562 41.0098C410.266 40.3887 410.641 39.6211 410.688 38.707H414.713C414.666 39.8906 414.297 40.998 413.605 42.0293C412.914 43.0488 411.977 43.8574 410.793 44.4551C409.609 45.0527 408.332 45.3516 406.961 45.3516C404.301 45.3516 402.191 44.4902 400.633 42.7676C399.074 41.0449 398.295 38.666 398.295 35.6309V35.1914C398.295 32.2969 399.068 29.9824 400.615 28.248C402.162 26.502 404.271 25.6289 406.943 25.6289C409.205 25.6289 411.045 26.291 412.463 27.6152C413.893 28.9277 414.643 30.6562 414.713 32.8008H410.688C410.641 31.7109 410.266 30.8145 409.562 30.1113C408.871 29.4082 407.986 29.0566 406.908 29.0566C405.525 29.0566 404.459 29.5605 403.709 30.5684C402.959 31.5645 402.578 33.082 402.566 35.1211V35.8066C402.566 37.8691 402.936 39.4102 403.674 40.4297C404.424 41.4375 405.502 41.9414 406.908 41.9414ZM417.139 35.3145C417.139 33.4512 417.508 31.7754 418.246 30.2871C418.984 28.7871 420.021 27.6387 421.357 26.8418C422.693 26.0332 424.229 25.6289 425.963 25.6289C428.529 25.6289 430.609 26.4551 432.203 28.1074C433.809 29.7598 434.676 31.9512 434.805 34.6816L434.822 35.6836C434.822 37.5586 434.459 39.2344 433.732 40.7109C433.018 42.1875 431.986 43.3301 430.639 44.1387C429.303 44.9473 427.756 45.3516 425.998 45.3516C423.314 45.3516 421.164 44.4609 419.547 42.6797C417.941 40.8867 417.139 38.502 417.139 35.5254V35.3145ZM421.41 35.6836C421.41 37.6406 421.814 39.1758 422.623 40.2891C423.432 41.3906 424.557 41.9414 425.998 41.9414C427.439 41.9414 428.559 41.3789 429.355 40.2539C430.164 39.1289 430.568 37.4824 430.568 35.3145C430.568 33.3926 430.152 31.8691 429.32 30.7441C428.5 29.6191 427.381 29.0566 425.963 29.0566C424.568 29.0566 423.461 29.6133 422.641 30.7266C421.82 31.8281 421.41 33.4805 421.41 35.6836ZM442.451 25.9805L442.574 27.9668C443.91 26.4082 445.738 25.6289 448.059 25.6289C450.602 25.6289 452.342 26.6016 453.279 28.5469C454.662 26.6016 456.607 25.6289 459.115 25.6289C461.213 25.6289 462.771 26.209 463.791 27.3691C464.822 28.5293 465.35 30.2402 465.373 32.502V45H461.102V32.625C461.102 31.418 460.838 30.5332 460.311 29.9707C459.783 29.4082 458.91 29.127 457.691 29.127C456.719 29.127 455.922 29.3906 455.301 29.918C454.691 30.4336 454.264 31.1133 454.018 31.957L454.035 45H449.764V32.4844C449.705 30.2461 448.562 29.127 446.336 29.127C444.625 29.127 443.412 29.8242 442.697 31.2188V45H438.426V25.9805H442.451ZM470.963 47.1973H467.605L477.678 19.4062H481.035L470.963 47.1973ZM488.541 45H484.27V25.9805H488.541V45ZM484.006 21.041C484.006 20.3848 484.211 19.8398 484.621 19.4062C485.043 18.9727 485.641 18.7559 486.414 18.7559C487.188 18.7559 487.785 18.9727 488.207 19.4062C488.629 19.8398 488.84 20.3848 488.84 21.041C488.84 21.6855 488.629 22.2246 488.207 22.6582C487.785 23.0801 487.188 23.291 486.414 23.291C485.641 23.291 485.043 23.0801 484.621 22.6582C484.211 22.2246 484.006 21.6855 484.006 21.041ZM497.172 25.9805L497.295 28.1777C498.701 26.4785 500.547 25.6289 502.832 25.6289C506.793 25.6289 508.809 27.8965 508.879 32.4316V45H504.607V32.6777C504.607 31.4707 504.344 30.5801 503.816 30.0059C503.301 29.4199 502.451 29.127 501.268 29.127C499.545 29.127 498.262 29.9062 497.418 31.4648V45H493.146V25.9805H497.172ZM514.451 47.1973H511.094L521.166 19.4062H524.523L514.451 47.1973ZM538.146 39.832C538.146 39.0703 537.83 38.4902 537.197 38.0918C536.576 37.6934 535.539 37.3418 534.086 37.0371C532.633 36.7324 531.42 36.3457 530.447 35.877C528.314 34.8457 527.248 33.3516 527.248 31.3945C527.248 29.7539 527.939 28.3828 529.322 27.2812C530.705 26.1797 532.463 25.6289 534.596 25.6289C536.869 25.6289 538.703 26.1914 540.098 27.3164C541.504 28.4414 542.207 29.9004 542.207 31.6934H537.936C537.936 30.873 537.631 30.1934 537.021 29.6543C536.412 29.1035 535.604 28.8281 534.596 28.8281C533.658 28.8281 532.891 29.0449 532.293 29.4785C531.707 29.9121 531.414 30.4922 531.414 31.2188C531.414 31.875 531.689 32.3848 532.24 32.748C532.791 33.1113 533.904 33.4805 535.58 33.8555C537.256 34.2188 538.568 34.6582 539.518 35.1738C540.479 35.6777 541.188 36.2871 541.645 37.002C542.113 37.7168 542.348 38.584 542.348 39.6035C542.348 41.3145 541.639 42.7031 540.221 43.7695C538.803 44.8242 536.945 45.3516 534.648 45.3516C533.09 45.3516 531.701 45.0703 530.482 44.5078C529.264 43.9453 528.314 43.1719 527.635 42.1875C526.955 41.2031 526.615 40.1426 526.615 39.0059H530.764C530.822 40.0137 531.203 40.793 531.906 41.3438C532.609 41.8828 533.541 42.1523 534.701 42.1523C535.826 42.1523 536.682 41.9414 537.268 41.5195C537.854 41.0859 538.146 40.5234 538.146 39.832ZM557.447 45C557.26 44.6367 557.096 44.0449 556.955 43.2246C555.596 44.6426 553.932 45.3516 551.963 45.3516C550.053 45.3516 548.494 44.8066 547.287 43.7168C546.08 42.627 545.477 41.2793 545.477 39.6738C545.477 37.6465 546.227 36.0938 547.727 35.0156C549.238 33.9258 551.395 33.3809 554.195 33.3809H556.814V32.1328C556.814 31.1484 556.539 30.3633 555.988 29.7773C555.438 29.1797 554.6 28.8809 553.475 28.8809C552.502 28.8809 551.705 29.127 551.084 29.6191C550.463 30.0996 550.152 30.7148 550.152 31.4648H545.881C545.881 30.4219 546.227 29.4492 546.918 28.5469C547.609 27.6328 548.547 26.918 549.73 26.4023C550.926 25.8867 552.256 25.6289 553.721 25.6289C555.947 25.6289 557.723 26.1914 559.047 27.3164C560.371 28.4297 561.051 30 561.086 32.0273V40.6055C561.086 42.3164 561.326 43.6816 561.807 44.7012V45H557.447ZM552.754 41.9238C553.598 41.9238 554.389 41.7188 555.127 41.3086C555.877 40.8984 556.439 40.3477 556.814 39.6562V36.0703H554.512C552.93 36.0703 551.74 36.3457 550.943 36.8965C550.146 37.4473 549.748 38.2266 549.748 39.2344C549.748 40.0547 550.018 40.7109 550.557 41.2031C551.107 41.6836 551.84 41.9238 552.754 41.9238ZM569.523 25.9805L569.646 28.1777C571.053 26.4785 572.898 25.6289 575.184 25.6289C579.145 25.6289 581.16 27.8965 581.23 32.4316V45H576.959V32.6777C576.959 31.4707 576.695 30.5801 576.168 30.0059C575.652 29.4199 574.803 29.127 573.619 29.127C571.896 29.127 570.613 29.9062 569.77 31.4648V45H565.498V25.9805H569.523ZM590.055 25.9805V46.6875C590.055 48.6328 589.568 50.1152 588.596 51.1348C587.635 52.166 586.223 52.6816 584.359 52.6816C583.574 52.6816 582.818 52.582 582.092 52.3828V49.0078C582.537 49.1133 583.041 49.166 583.604 49.166C585.021 49.166 585.748 48.3926 585.783 46.8457V25.9805H590.055ZM585.414 21.041C585.414 20.3848 585.619 19.8398 586.029 19.4062C586.451 18.9727 587.049 18.7559 587.822 18.7559C588.596 18.7559 589.193 18.9727 589.615 19.4062C590.037 19.8398 590.248 20.3848 590.248 21.041C590.248 21.6855 590.037 22.2246 589.615 22.6582C589.193 23.0801 588.596 23.291 587.822 23.291C587.049 23.291 586.451 23.0801 586.029 22.6582C585.619 22.2246 585.414 21.6855 585.414 21.041ZM605.998 45C605.811 44.6367 605.646 44.0449 605.506 43.2246C604.146 44.6426 602.482 45.3516 600.514 45.3516C598.604 45.3516 597.045 44.8066 595.838 43.7168C594.631 42.627 594.027 41.2793 594.027 39.6738C594.027 37.6465 594.777 36.0938 596.277 35.0156C597.789 33.9258 599.945 33.3809 602.746 33.3809H605.365V32.1328C605.365 31.1484 605.09 30.3633 604.539 29.7773C603.988 29.1797 603.15 28.8809 602.025 28.8809C601.053 28.8809 600.256 29.127 599.635 29.6191C599.014 30.0996 598.703 30.7148 598.703 31.4648H594.432C594.432 30.4219 594.777 29.4492 595.469 28.5469C596.16 27.6328 597.098 26.918 598.281 26.4023C599.477 25.8867 600.807 25.6289 602.271 25.6289C604.498 25.6289 606.273 26.1914 607.598 27.3164C608.922 28.4297 609.602 30 609.637 32.0273V40.6055C609.637 42.3164 609.877 43.6816 610.357 44.7012V45H605.998ZM601.305 41.9238C602.148 41.9238 602.939 41.7188 603.678 41.3086C604.428 40.8984 604.99 40.3477 605.365 39.6562V36.0703H603.062C601.48 36.0703 600.291 36.3457 599.494 36.8965C598.697 37.4473 598.299 38.2266 598.299 39.2344C598.299 40.0547 598.568 40.7109 599.107 41.2031C599.658 41.6836 600.391 41.9238 601.305 41.9238ZM618.074 25.9805L618.197 28.1777C619.604 26.4785 621.449 25.6289 623.734 25.6289C627.695 25.6289 629.711 27.8965 629.781 32.4316V45H625.51V32.6777C625.51 31.4707 625.246 30.5801 624.719 30.0059C624.203 29.4199 623.354 29.127 622.17 29.127C620.447 29.127 619.164 29.9062 618.32 31.4648V45H614.049V25.9805H618.074ZM645.514 45C645.326 44.6367 645.162 44.0449 645.021 43.2246C643.662 44.6426 641.998 45.3516 640.029 45.3516C638.119 45.3516 636.561 44.8066 635.354 43.7168C634.146 42.627 633.543 41.2793 633.543 39.6738C633.543 37.6465 634.293 36.0938 635.793 35.0156C637.305 33.9258 639.461 33.3809 642.262 33.3809H644.881V32.1328C644.881 31.1484 644.605 30.3633 644.055 29.7773C643.504 29.1797 642.666 28.8809 641.541 28.8809C640.568 28.8809 639.771 29.127 639.15 29.6191C638.529 30.0996 638.219 30.7148 638.219 31.4648H633.947C633.947 30.4219 634.293 29.4492 634.984 28.5469C635.676 27.6328 636.613 26.918 637.797 26.4023C638.992 25.8867 640.322 25.6289 641.787 25.6289C644.014 25.6289 645.789 26.1914 647.113 27.3164C648.438 28.4297 649.117 30 649.152 32.0273V40.6055C649.152 42.3164 649.393 43.6816 649.873 44.7012V45H645.514ZM640.82 41.9238C641.664 41.9238 642.455 41.7188 643.193 41.3086C643.943 40.8984 644.506 40.3477 644.881 39.6562V36.0703H642.578C640.996 36.0703 639.807 36.3457 639.01 36.8965C638.213 37.4473 637.814 38.2266 637.814 39.2344C637.814 40.0547 638.084 40.7109 638.623 41.2031C639.174 41.6836 639.906 41.9238 640.82 41.9238ZM661.914 35.8418H652.686V32.3965H661.914V35.8418ZM682.129 35.6836C682.129 38.6367 681.467 40.9863 680.143 42.7324C678.83 44.4785 677.02 45.3516 674.711 45.3516C672.484 45.3516 670.75 44.5488 669.508 42.9434L669.297 45H665.43V18H669.701V27.8086C670.932 26.3555 672.59 25.6289 674.676 25.6289C676.996 25.6289 678.818 26.4902 680.143 28.2129C681.467 29.9355 682.129 32.3438 682.129 35.4375V35.6836ZM677.857 35.3145C677.857 33.252 677.494 31.7051 676.768 30.6738C676.041 29.6426 674.986 29.127 673.604 29.127C671.752 29.127 670.451 29.9355 669.701 31.5527V39.3926C670.463 41.0449 671.775 41.8711 673.639 41.8711C674.975 41.8711 676.006 41.373 676.732 40.377C677.459 39.3809 677.834 37.875 677.857 35.8594V35.3145ZM689.934 28.0547C691.328 26.4375 693.092 25.6289 695.225 25.6289C699.279 25.6289 701.336 27.9434 701.395 32.5723V45H697.123V32.7305C697.123 31.418 696.836 30.4922 696.262 29.9531C695.699 29.4023 694.867 29.127 693.766 29.127C692.055 29.127 690.777 29.8887 689.934 31.4121V45H685.662V18H689.934V28.0547ZM717.092 45C716.904 44.6367 716.74 44.0449 716.6 43.2246C715.24 44.6426 713.576 45.3516 711.607 45.3516C709.697 45.3516 708.139 44.8066 706.932 43.7168C705.725 42.627 705.121 41.2793 705.121 39.6738C705.121 37.6465 705.871 36.0938 707.371 35.0156C708.883 33.9258 711.039 33.3809 713.84 33.3809H716.459V32.1328C716.459 31.1484 716.184 30.3633 715.633 29.7773C715.082 29.1797 714.244 28.8809 713.119 28.8809C712.146 28.8809 711.35 29.127 710.729 29.6191C710.107 30.0996 709.797 30.7148 709.797 31.4648H705.525C705.525 30.4219 705.871 29.4492 706.562 28.5469C707.254 27.6328 708.191 26.918 709.375 26.4023C710.57 25.8867 711.9 25.6289 713.365 25.6289C715.592 25.6289 717.367 26.1914 718.691 27.3164C720.016 28.4297 720.695 30 720.73 32.0273V40.6055C720.73 42.3164 720.971 43.6816 721.451 44.7012V45H717.092ZM712.398 41.9238C713.242 41.9238 714.033 41.7188 714.771 41.3086C715.521 40.8984 716.084 40.3477 716.459 39.6562V36.0703H714.156C712.574 36.0703 711.385 36.3457 710.588 36.8965C709.791 37.4473 709.393 38.2266 709.393 39.2344C709.393 40.0547 709.662 40.7109 710.201 41.2031C710.752 41.6836 711.484 41.9238 712.398 41.9238ZM735.162 29.8828C734.6 29.7891 734.02 29.7422 733.422 29.7422C731.465 29.7422 730.146 30.4922 729.467 31.9922V45H725.195V25.9805H729.273L729.379 28.1074C730.41 26.4551 731.84 25.6289 733.668 25.6289C734.277 25.6289 734.781 25.7109 735.18 25.875L735.162 29.8828ZM748.697 45C748.51 44.6367 748.346 44.0449 748.205 43.2246C746.846 44.6426 745.182 45.3516 743.213 45.3516C741.303 45.3516 739.744 44.8066 738.537 43.7168C737.33 42.627 736.727 41.2793 736.727 39.6738C736.727 37.6465 737.477 36.0938 738.977 35.0156C740.488 33.9258 742.645 33.3809 745.445 33.3809H748.064V32.1328C748.064 31.1484 747.789 30.3633 747.238 29.7773C746.688 29.1797 745.85 28.8809 744.725 28.8809C743.752 28.8809 742.955 29.127 742.334 29.6191C741.713 30.0996 741.402 30.7148 741.402 31.4648H737.131C737.131 30.4219 737.477 29.4492 738.168 28.5469C738.859 27.6328 739.797 26.918 740.98 26.4023C742.176 25.8867 743.506 25.6289 744.971 25.6289C747.197 25.6289 748.973 26.1914 750.297 27.3164C751.621 28.4297 752.301 30 752.336 32.0273V40.6055C752.336 42.3164 752.576 43.6816 753.057 44.7012V45H748.697ZM744.004 41.9238C744.848 41.9238 745.639 41.7188 746.377 41.3086C747.127 40.8984 747.689 40.3477 748.064 39.6562V36.0703H745.762C744.18 36.0703 742.99 36.3457 742.193 36.8965C741.396 37.4473 740.998 38.2266 740.998 39.2344C740.998 40.0547 741.268 40.7109 741.807 41.2031C742.357 41.6836 743.09 41.9238 744.004 41.9238ZM756.01 35.3496C756.01 32.4199 756.689 30.0703 758.049 28.3008C759.408 26.5195 761.23 25.6289 763.516 25.6289C765.531 25.6289 767.16 26.332 768.402 27.7383V18H772.674V45H768.807L768.596 43.0312C767.318 44.5781 765.613 45.3516 763.48 45.3516C761.254 45.3516 759.449 44.4551 758.066 42.6621C756.695 40.8691 756.01 38.4316 756.01 35.3496ZM760.281 35.7188C760.281 37.6523 760.65 39.1641 761.389 40.2539C762.139 41.332 763.199 41.8711 764.57 41.8711C766.316 41.8711 767.594 41.0918 768.402 39.5332V31.4121C767.617 29.8887 766.352 29.127 764.605 29.127C763.223 29.127 762.156 29.6777 761.406 30.7793C760.656 31.8691 760.281 33.5156 760.281 35.7188ZM793.838 39.1113L796.861 25.9805H801.027L795.842 45H792.326L788.248 31.9395L784.24 45H780.725L775.521 25.9805H779.688L782.764 38.9707L786.666 25.9805H789.883L793.838 39.1113ZM815.248 45C815.061 44.6367 814.896 44.0449 814.756 43.2246C813.396 44.6426 811.732 45.3516 809.764 45.3516C807.854 45.3516 806.295 44.8066 805.088 43.7168C803.881 42.627 803.277 41.2793 803.277 39.6738C803.277 37.6465 804.027 36.0938 805.527 35.0156C807.039 33.9258 809.195 33.3809 811.996 33.3809H814.615V32.1328C814.615 31.1484 814.34 30.3633 813.789 29.7773C813.238 29.1797 812.4 28.8809 811.275 28.8809C810.303 28.8809 809.506 29.127 808.885 29.6191C808.264 30.0996 807.953 30.7148 807.953 31.4648H803.682C803.682 30.4219 804.027 29.4492 804.719 28.5469C805.41 27.6328 806.348 26.918 807.531 26.4023C808.727 25.8867 810.057 25.6289 811.521 25.6289C813.748 25.6289 815.523 26.1914 816.848 27.3164C818.172 28.4297 818.852 30 818.887 32.0273V40.6055C818.887 42.3164 819.127 43.6816 819.607 44.7012V45H815.248ZM810.555 41.9238C811.398 41.9238 812.189 41.7188 812.928 41.3086C813.678 40.8984 814.24 40.3477 814.615 39.6562V36.0703H812.312C810.73 36.0703 809.541 36.3457 808.744 36.8965C807.947 37.4473 807.549 38.2266 807.549 39.2344C807.549 40.0547 807.818 40.7109 808.357 41.2031C808.908 41.6836 809.641 41.9238 810.555 41.9238ZM827.816 25.9805V46.6875C827.816 48.6328 827.33 50.1152 826.357 51.1348C825.396 52.166 823.984 52.6816 822.121 52.6816C821.336 52.6816 820.58 52.582 819.854 52.3828V49.0078C820.299 49.1133 820.803 49.166 821.365 49.166C822.783 49.166 823.51 48.3926 823.545 46.8457V25.9805H827.816ZM823.176 21.041C823.176 20.3848 823.381 19.8398 823.791 19.4062C824.213 18.9727 824.811 18.7559 825.584 18.7559C826.357 18.7559 826.955 18.9727 827.377 19.4062C827.799 19.8398 828.01 20.3848 828.01 21.041C828.01 21.6855 827.799 22.2246 827.377 22.6582C826.955 23.0801 826.357 23.291 825.584 23.291C824.811 23.291 824.213 23.0801 823.791 22.6582C823.381 22.2246 823.176 21.6855 823.176 21.041ZM840.684 35.8418H831.455V32.3965H840.684V35.8418ZM856.047 34.2949C854.617 35.8066 852.947 36.5625 851.037 36.5625C848.787 36.5625 846.994 35.7773 845.658 34.207C844.322 32.625 843.654 30.5508 843.654 27.9844C843.654 26.2969 843.994 24.7676 844.674 23.3965C845.354 22.0254 846.32 20.959 847.574 20.1973C848.828 19.4355 850.281 19.0547 851.934 19.0547C854.512 19.0547 856.557 20.0156 858.068 21.9375C859.58 23.8594 860.336 26.4316 860.336 29.6543V30.8496C860.336 35.4668 859.293 38.9883 857.207 41.4141C855.121 43.8398 852.01 45.0703 847.873 45.1055H847.363V41.5723H847.979C850.498 41.5371 852.432 40.9336 853.779 39.7617C855.127 38.5781 855.883 36.7559 856.047 34.2949ZM851.934 33.2227C852.789 33.2227 853.592 32.9766 854.342 32.4844C855.092 31.9922 855.672 31.3125 856.082 30.4453V28.7754C856.082 26.8887 855.695 25.3711 854.922 24.2227C854.148 23.0742 853.146 22.5 851.916 22.5C850.686 22.5 849.701 23.0098 848.963 24.0293C848.236 25.0371 847.873 26.3145 847.873 27.8613C847.873 29.4668 848.242 30.7617 848.98 31.7461C849.719 32.7305 850.703 33.2227 851.934 33.2227ZM881.43 21.7793L871.199 45H866.717L876.93 22.834H863.693V19.4062H881.43V21.7793ZM886 32.3086L887.389 19.4062H901.135V23.0977H890.939L890.236 29.2148C891.42 28.5352 892.756 28.1953 894.244 28.1953C896.682 28.1953 898.574 28.9746 899.922 30.5332C901.281 32.0918 901.961 34.1895 901.961 36.8262C901.961 39.4277 901.211 41.502 899.711 43.0488C898.211 44.584 896.154 45.3516 893.541 45.3516C891.197 45.3516 889.252 44.6895 887.705 43.3652C886.17 42.0293 885.338 40.2715 885.209 38.0918H889.34C889.504 39.334 889.949 40.2891 890.676 40.957C891.402 41.6133 892.352 41.9414 893.523 41.9414C894.836 41.9414 895.855 41.4727 896.582 40.5352C897.32 39.5977 897.689 38.3203 897.689 36.7031C897.689 35.1445 897.285 33.9141 896.477 33.0117C895.668 32.0977 894.555 31.6406 893.137 31.6406C892.363 31.6406 891.707 31.7461 891.168 31.957C890.629 32.1562 890.043 32.5547 889.41 33.1523L886 32.3086ZM910.258 30.252H912.859C914.172 30.2402 915.209 29.9004 915.971 29.2324C916.744 28.5645 917.131 27.5977 917.131 26.332C917.131 25.1133 916.809 24.1699 916.164 23.502C915.531 22.8223 914.559 22.4824 913.246 22.4824C912.098 22.4824 911.154 22.8164 910.416 23.4844C909.678 24.1406 909.309 25.002 909.309 26.0684H905.037C905.037 24.7559 905.383 23.5605 906.074 22.4824C906.777 21.4043 907.75 20.5664 908.992 19.9688C910.246 19.3594 911.646 19.0547 913.193 19.0547C915.748 19.0547 917.752 19.6992 919.205 20.9883C920.67 22.2656 921.402 24.0469 921.402 26.332C921.402 27.4805 921.033 28.5645 920.295 29.584C919.568 30.5918 918.625 31.3535 917.465 31.8691C918.871 32.3496 919.938 33.1055 920.664 34.1367C921.402 35.168 921.771 36.3984 921.771 37.8281C921.771 40.125 920.98 41.9531 919.398 43.3125C917.828 44.6719 915.76 45.3516 913.193 45.3516C910.732 45.3516 908.717 44.6953 907.146 43.3828C905.576 42.0703 904.791 40.3242 904.791 38.1445H909.062C909.062 39.2695 909.438 40.1836 910.188 40.8867C910.949 41.5898 911.969 41.9414 913.246 41.9414C914.57 41.9414 915.613 41.5898 916.375 40.8867C917.137 40.1836 917.518 39.1641 917.518 37.8281C917.518 36.4805 917.119 35.4434 916.322 34.7168C915.525 33.9902 914.342 33.627 912.771 33.627H910.258V30.252ZM942.812 21.7793L932.582 45H928.1L938.312 22.834H925.076V19.4062H942.812V21.7793ZM959.529 19.2832V22.8164H959.002C956.611 22.8516 954.701 23.5078 953.271 24.7852C951.842 26.0625 950.992 27.873 950.723 30.2168C952.094 28.7754 953.846 28.0547 955.979 28.0547C958.24 28.0547 960.021 28.8516 961.322 30.4453C962.635 32.0391 963.291 34.0957 963.291 36.6152C963.291 39.2168 962.523 41.3262 960.988 42.9434C959.465 44.5488 957.461 45.3516 954.977 45.3516C952.422 45.3516 950.348 44.4082 948.754 42.5215C947.172 40.6348 946.381 38.1621 946.381 35.1035V33.6445C946.381 29.1562 947.471 25.6406 949.65 23.0977C951.842 20.5547 954.988 19.2832 959.09 19.2832H959.529ZM954.941 31.5C954.004 31.5 953.143 31.7637 952.357 32.291C951.584 32.8184 951.016 33.5215 950.652 34.4004V35.7012C950.652 37.5996 951.051 39.1113 951.848 40.2363C952.645 41.3496 953.676 41.9062 954.941 41.9062C956.207 41.9062 957.209 41.4316 957.947 40.4824C958.686 39.5332 959.055 38.2852 959.055 36.7383C959.055 35.1914 958.68 33.9316 957.93 32.959C957.18 31.9863 956.184 31.5 954.941 31.5ZM978.268 45H974.014V24.4512L967.738 26.5957V22.9922L977.723 19.3184H978.268V45ZM1004.12 35.6836C1004.12 38.6367 1003.46 40.9863 1002.14 42.7324C1000.83 44.4785 999.016 45.3516 996.707 45.3516C994.48 45.3516 992.746 44.5488 991.504 42.9434L991.293 45H987.426V18H991.697V27.8086C992.928 26.3555 994.586 25.6289 996.672 25.6289C998.992 25.6289 1000.81 26.4902 1002.14 28.2129C1003.46 29.9355 1004.12 32.3438 1004.12 35.4375V35.6836ZM999.854 35.3145C999.854 33.252 999.49 31.7051 998.764 30.6738C998.037 29.6426 996.982 29.127 995.6 29.127C993.748 29.127 992.447 29.9355 991.697 31.5527V39.3926C992.459 41.0449 993.771 41.8711 995.635 41.8711C996.971 41.8711 998.002 41.373 998.729 40.377C999.455 39.3809 999.83 37.875 999.854 35.8594V35.3145ZM1024.66 45H1007.45V42.0645L1015.97 32.7656C1017.2 31.3945 1018.08 30.252 1018.59 29.3379C1019.12 28.4121 1019.38 27.4863 1019.38 26.5605C1019.38 25.3418 1019.04 24.3574 1018.35 23.6074C1017.67 22.8574 1016.75 22.4824 1015.59 22.4824C1014.2 22.4824 1013.13 22.9043 1012.37 23.748C1011.61 24.5918 1011.23 25.7461 1011.23 27.2109H1006.96C1006.96 25.6523 1007.31 24.252 1008.01 23.0098C1008.72 21.7559 1009.74 20.7832 1011.05 20.0918C1012.38 19.4004 1013.9 19.0547 1015.62 19.0547C1018.11 19.0547 1020.06 19.6816 1021.49 20.9355C1022.93 22.1777 1023.65 23.9004 1023.65 26.1035C1023.65 27.3809 1023.29 28.7227 1022.56 30.1289C1021.85 31.5234 1020.67 33.1113 1019.03 34.8926L1012.77 41.5898H1024.66V45Z" fill="#BFFBDE"/>
<g clip-path="url(#clip0)">
<path d="M53.9866 54V53.9978H54.0001V34.1933C54.0001 24.5048 51.9143 17.0415 40.5878 17.0415C35.1428 17.0415 31.4888 20.0295 29.9971 22.8623H29.8396V17.946H19.1003V53.9978H30.2828V36.1463C30.2828 31.446 31.1738 26.901 36.9946 26.901C42.7298 26.901 42.8153 32.265 42.8153 36.4478V54H53.9866Z" fill="#BFFBDE"/>
<path d="M0.890869 17.9482H12.0869V54H0.890869V17.9482Z" fill="#BFFBDE"/>
<path d="M6.4845 0C2.90475 0 0 2.90475 0 6.4845C0 10.0643 2.90475 13.0298 6.4845 13.0298C10.0642 13.0298 12.969 10.0643 12.969 6.4845C12.9667 2.90475 10.062 0 6.4845 0V0Z" fill="#BFFBDE"/>
</g>
<defs>
<clipPath id="clip0">
<rect width="54" height="54" fill="white"/>
</clipPath>
</defs>
</svg>
