<svg width="261" height="36" viewBox="0 0 261 36" fill="none" xmlns="http://www.w3.org/2000/svg">
<path d="M26.937 12.5205H31.7783V14H25.084V3.33594H26.937V12.5205ZM35.1548 14H33.3091V3.33594H35.1548V14ZM45.8921 14H44.0391L39.2856 6.43408V14H37.4326V3.33594H39.2856L44.0537 10.9312V3.33594H45.8921V14ZM51.1436 9.39307L49.9351 10.6748V14H48.082V3.33594H49.9351V8.33838L50.9604 7.07129L54.0806 3.33594H56.3218L52.3594 8.06006L56.5488 14H54.3516L51.1436 9.39307ZM63.7778 9.23926H59.3979V12.5205H64.5176V14H57.5449V3.33594H64.4663V4.83008H59.3979V7.77441H63.7778V9.23926ZM66.0264 14V3.33594H69.1758C70.1182 3.33594 70.9531 3.5459 71.6807 3.96582C72.4131 4.38574 72.9795 4.98145 73.3799 5.75293C73.7803 6.52441 73.9805 7.4082 73.9805 8.4043V8.93896C73.9805 9.94971 73.7778 10.8384 73.3726 11.605C72.9722 12.3716 72.3984 12.9624 71.6514 13.3774C70.9092 13.7925 70.0571 14 69.0952 14H66.0264ZM67.8794 4.83008V12.5205H69.0879C70.0596 12.5205 70.8042 12.2178 71.3218 11.6123C71.8442 11.002 72.1104 10.1279 72.1201 8.99023V8.39697C72.1201 7.23975 71.8687 6.35596 71.3657 5.74561C70.8628 5.13525 70.1328 4.83008 69.1758 4.83008H67.8794ZM77.7817 14H75.936V3.33594H77.7817V14ZM88.519 14H86.666L81.9126 6.43408V14H80.0596V3.33594H81.9126L86.6807 10.9312V3.33594H88.519V14ZM91.6099 12.125C91.9419 12.125 92.1982 12.2202 92.3789 12.4106C92.5596 12.5962 92.6499 12.8306 92.6499 13.1138C92.6499 13.3921 92.5596 13.624 92.3789 13.8096C92.1982 13.9902 91.9419 14.0806 91.6099 14.0806C91.2925 14.0806 91.041 13.9902 90.8555 13.8096C90.6699 13.6289 90.5771 13.397 90.5771 13.1138C90.5771 12.8306 90.6675 12.5962 90.8481 12.4106C91.0288 12.2202 91.2827 12.125 91.6099 12.125ZM91.6099 5.90674C91.9419 5.90674 92.1982 6.00195 92.3789 6.19238C92.5596 6.37793 92.6499 6.6123 92.6499 6.89551C92.6499 7.17383 92.5596 7.40576 92.3789 7.59131C92.1982 7.77197 91.9419 7.8623 91.6099 7.8623C91.2925 7.8623 91.041 7.77197 90.8555 7.59131C90.6699 7.41064 90.5771 7.17871 90.5771 6.89551C90.5771 6.6123 90.6675 6.37793 90.8481 6.19238C91.0288 6.00195 91.2827 5.90674 91.6099 5.90674ZM100.15 14H98.3701V2.75H100.15V14ZM103.988 14H102.208V6.0752H103.988V14ZM102.098 4.01709C102.098 3.74365 102.184 3.5166 102.354 3.33594C102.53 3.15527 102.779 3.06494 103.102 3.06494C103.424 3.06494 103.673 3.15527 103.849 3.33594C104.024 3.5166 104.112 3.74365 104.112 4.01709C104.112 4.28564 104.024 4.51025 103.849 4.69092C103.673 4.8667 103.424 4.95459 103.102 4.95459C102.779 4.95459 102.53 4.8667 102.354 4.69092C102.184 4.51025 102.098 4.28564 102.098 4.01709ZM107.584 6.0752L107.635 6.99072C108.221 6.28271 108.99 5.92871 109.942 5.92871C111.593 5.92871 112.433 6.87354 112.462 8.76318V14H110.682V8.86572C110.682 8.36279 110.572 7.9917 110.353 7.75244C110.138 7.5083 109.784 7.38623 109.291 7.38623C108.573 7.38623 108.038 7.71094 107.687 8.36035V14H105.907V6.0752H107.584ZM116.856 10.6016L116.065 11.4146V14H114.286V2.75H116.065V9.23926L116.622 8.54346L118.812 6.0752H120.951L118.006 9.37842L121.266 14H119.208L116.856 10.6016ZM125.462 14.1465C124.334 14.1465 123.419 13.7925 122.716 13.0845C122.018 12.3716 121.668 11.4243 121.668 10.2427V10.0229C121.668 9.23193 121.82 8.52637 122.123 7.90625C122.43 7.28125 122.86 6.79541 123.412 6.44873C123.963 6.10205 124.579 5.92871 125.257 5.92871C126.336 5.92871 127.169 6.27295 127.755 6.96143C128.346 7.6499 128.641 8.62402 128.641 9.88379V10.6016H123.463C123.517 11.2559 123.734 11.7734 124.115 12.1543C124.5 12.5352 124.984 12.7256 125.565 12.7256C126.38 12.7256 127.044 12.396 127.557 11.7368L128.517 12.6523C128.199 13.126 127.774 13.4946 127.242 13.7583C126.715 14.0171 126.122 14.1465 125.462 14.1465ZM125.25 7.35693C124.762 7.35693 124.366 7.52783 124.063 7.86963C123.766 8.21143 123.575 8.6875 123.492 9.29785H126.883V9.16602C126.844 8.57031 126.686 8.12109 126.407 7.81836C126.129 7.51074 125.743 7.35693 125.25 7.35693ZM129.696 9.979C129.696 8.7583 129.979 7.7793 130.545 7.04199C131.112 6.2998 131.871 5.92871 132.823 5.92871C133.663 5.92871 134.342 6.22168 134.859 6.80762V2.75H136.639V14H135.028L134.94 13.1797C134.408 13.8242 133.697 14.1465 132.809 14.1465C131.881 14.1465 131.129 13.7729 130.553 13.0259C129.981 12.2788 129.696 11.2632 129.696 9.979ZM131.476 10.1328C131.476 10.9385 131.629 11.5684 131.937 12.0225C132.25 12.4717 132.691 12.6963 133.263 12.6963C133.99 12.6963 134.522 12.3716 134.859 11.7222V8.33838C134.532 7.70361 134.005 7.38623 133.277 7.38623C132.701 7.38623 132.257 7.61572 131.944 8.07471C131.632 8.52881 131.476 9.21484 131.476 10.1328ZM140.389 14H138.609V6.0752H140.389V14ZM138.5 4.01709C138.5 3.74365 138.585 3.5166 138.756 3.33594C138.932 3.15527 139.181 3.06494 139.503 3.06494C139.825 3.06494 140.074 3.15527 140.25 3.33594C140.426 3.5166 140.514 3.74365 140.514 4.01709C140.514 4.28564 140.426 4.51025 140.25 4.69092C140.074 4.8667 139.825 4.95459 139.503 4.95459C139.181 4.95459 138.932 4.8667 138.756 4.69092C138.585 4.51025 138.5 4.28564 138.5 4.01709ZM143.985 6.0752L144.037 6.99072C144.623 6.28271 145.392 5.92871 146.344 5.92871C147.994 5.92871 148.834 6.87354 148.863 8.76318V14H147.083V8.86572C147.083 8.36279 146.974 7.9917 146.754 7.75244C146.539 7.5083 146.185 7.38623 145.692 7.38623C144.974 7.38623 144.439 7.71094 144.088 8.36035V14H142.308V6.0752H143.985ZM151.793 12.125C152.125 12.125 152.381 12.2202 152.562 12.4106C152.743 12.5962 152.833 12.8306 152.833 13.1138C152.833 13.3921 152.743 13.624 152.562 13.8096C152.381 13.9902 152.125 14.0806 151.793 14.0806C151.476 14.0806 151.224 13.9902 151.039 13.8096C150.853 13.6289 150.76 13.397 150.76 13.1138C150.76 12.8306 150.851 12.5962 151.031 12.4106C151.212 12.2202 151.466 12.125 151.793 12.125ZM158.128 12.7256C158.573 12.7256 158.941 12.5962 159.234 12.3374C159.527 12.0786 159.684 11.7588 159.703 11.3779H161.38C161.361 11.8711 161.207 12.3325 160.919 12.7622C160.631 13.187 160.24 13.5239 159.747 13.7729C159.254 14.022 158.722 14.1465 158.15 14.1465C157.042 14.1465 156.163 13.7876 155.514 13.0698C154.864 12.3521 154.54 11.3608 154.54 10.0962V9.91309C154.54 8.70703 154.862 7.74268 155.506 7.02002C156.151 6.29248 157.03 5.92871 158.143 5.92871C159.085 5.92871 159.852 6.20459 160.443 6.75635C161.039 7.30322 161.351 8.02344 161.38 8.91699H159.703C159.684 8.46289 159.527 8.08936 159.234 7.79639C158.946 7.50342 158.578 7.35693 158.128 7.35693C157.552 7.35693 157.108 7.56689 156.795 7.98682C156.483 8.40186 156.324 9.03418 156.319 9.88379V10.1694C156.319 11.0288 156.473 11.6709 156.781 12.0957C157.093 12.5156 157.542 12.7256 158.128 12.7256ZM162.391 9.96436C162.391 9.18799 162.545 8.48975 162.853 7.86963C163.16 7.24463 163.592 6.76611 164.149 6.43408C164.706 6.09717 165.345 5.92871 166.068 5.92871C167.137 5.92871 168.004 6.27295 168.668 6.96143C169.337 7.6499 169.698 8.56299 169.752 9.70068L169.759 10.1182C169.759 10.8994 169.608 11.5977 169.305 12.2129C169.007 12.8281 168.578 13.3042 168.016 13.6411C167.459 13.978 166.815 14.1465 166.083 14.1465C164.964 14.1465 164.068 13.7754 163.395 13.0332C162.726 12.2861 162.391 11.2925 162.391 10.0522V9.96436ZM164.171 10.1182C164.171 10.9336 164.339 11.5732 164.676 12.0371C165.013 12.4961 165.482 12.7256 166.083 12.7256C166.683 12.7256 167.149 12.4912 167.481 12.0225C167.818 11.5537 167.987 10.8677 167.987 9.96436C167.987 9.16357 167.813 8.52881 167.467 8.06006C167.125 7.59131 166.659 7.35693 166.068 7.35693C165.487 7.35693 165.025 7.58887 164.684 8.05273C164.342 8.51172 164.171 9.2002 164.171 10.1182ZM172.938 6.0752L172.989 6.90283C173.546 6.25342 174.308 5.92871 175.274 5.92871C176.334 5.92871 177.059 6.33398 177.45 7.14453C178.026 6.33398 178.836 5.92871 179.881 5.92871C180.755 5.92871 181.405 6.17041 181.83 6.65381C182.259 7.13721 182.479 7.8501 182.489 8.79248V14H180.709V8.84375C180.709 8.34082 180.599 7.97217 180.379 7.73779C180.16 7.50342 179.796 7.38623 179.288 7.38623C178.883 7.38623 178.551 7.49609 178.292 7.71582C178.038 7.93066 177.86 8.21387 177.757 8.56543L177.765 14H175.985V8.78516C175.96 7.85254 175.484 7.38623 174.557 7.38623C173.844 7.38623 173.338 7.67676 173.041 8.25781V14H171.261V6.0752H172.938ZM184.818 14.9155H183.419L187.616 3.33594H189.015L184.818 14.9155ZM192.142 14H190.362V6.0752H192.142V14ZM190.252 4.01709C190.252 3.74365 190.338 3.5166 190.509 3.33594C190.685 3.15527 190.934 3.06494 191.256 3.06494C191.578 3.06494 191.827 3.15527 192.003 3.33594C192.179 3.5166 192.267 3.74365 192.267 4.01709C192.267 4.28564 192.179 4.51025 192.003 4.69092C191.827 4.8667 191.578 4.95459 191.256 4.95459C190.934 4.95459 190.685 4.8667 190.509 4.69092C190.338 4.51025 190.252 4.28564 190.252 4.01709ZM195.738 6.0752L195.79 6.99072C196.375 6.28271 197.145 5.92871 198.097 5.92871C199.747 5.92871 200.587 6.87354 200.616 8.76318V14H198.836V8.86572C198.836 8.36279 198.727 7.9917 198.507 7.75244C198.292 7.5083 197.938 7.38623 197.445 7.38623C196.727 7.38623 196.192 7.71094 195.841 8.36035V14H194.061V6.0752H195.738ZM202.938 14.9155H201.539L205.736 3.33594H207.135L202.938 14.9155ZM212.811 11.8467C212.811 11.5293 212.679 11.2876 212.416 11.1216C212.157 10.9556 211.725 10.8091 211.119 10.6821C210.514 10.5552 210.008 10.394 209.603 10.1987C208.714 9.76904 208.27 9.14648 208.27 8.33105C208.27 7.64746 208.558 7.07617 209.134 6.61719C209.71 6.1582 210.443 5.92871 211.332 5.92871C212.279 5.92871 213.043 6.16309 213.624 6.63184C214.21 7.10059 214.503 7.7085 214.503 8.45557H212.723C212.723 8.11377 212.596 7.83057 212.342 7.60596C212.088 7.37646 211.751 7.26172 211.332 7.26172C210.941 7.26172 210.621 7.35205 210.372 7.53271C210.128 7.71338 210.006 7.95508 210.006 8.25781C210.006 8.53125 210.121 8.74365 210.35 8.89502C210.58 9.04639 211.043 9.2002 211.742 9.35645C212.44 9.50781 212.987 9.69092 213.382 9.90576C213.783 10.1157 214.078 10.3696 214.269 10.6675C214.464 10.9653 214.562 11.3267 214.562 11.7515C214.562 12.4644 214.266 13.043 213.675 13.4873C213.084 13.9268 212.311 14.1465 211.354 14.1465C210.704 14.1465 210.125 14.0293 209.618 13.7949C209.11 13.5605 208.714 13.2383 208.431 12.8281C208.148 12.418 208.006 11.9761 208.006 11.5024H209.735C209.759 11.9224 209.918 12.2471 210.211 12.4766C210.504 12.7012 210.892 12.8135 211.375 12.8135C211.844 12.8135 212.201 12.7256 212.445 12.5498C212.689 12.3691 212.811 12.1348 212.811 11.8467ZM220.853 14C220.775 13.8486 220.707 13.6021 220.648 13.2603C220.082 13.8511 219.388 14.1465 218.568 14.1465C217.772 14.1465 217.123 13.9194 216.62 13.4653C216.117 13.0112 215.865 12.4497 215.865 11.7808C215.865 10.936 216.178 10.2891 216.803 9.83984C217.433 9.38574 218.331 9.15869 219.498 9.15869H220.589V8.63867C220.589 8.22852 220.475 7.90137 220.245 7.65723C220.016 7.4082 219.667 7.28369 219.198 7.28369C218.792 7.28369 218.46 7.38623 218.202 7.59131C217.943 7.7915 217.813 8.04785 217.813 8.36035H216.034C216.034 7.92578 216.178 7.52051 216.466 7.14453C216.754 6.76367 217.145 6.46582 217.638 6.25098C218.136 6.03613 218.69 5.92871 219.3 5.92871C220.228 5.92871 220.968 6.16309 221.52 6.63184C222.071 7.0957 222.354 7.75 222.369 8.59473V12.1689C222.369 12.8818 222.469 13.4507 222.669 13.8755V14H220.853ZM218.897 12.7183C219.249 12.7183 219.579 12.6328 219.886 12.4619C220.199 12.291 220.433 12.0615 220.589 11.7734V10.2793H219.63C218.971 10.2793 218.475 10.394 218.143 10.6235C217.811 10.853 217.645 11.1777 217.645 11.5977C217.645 11.9395 217.757 12.2129 217.982 12.418C218.211 12.6182 218.517 12.7183 218.897 12.7183ZM225.885 6.0752L225.936 6.99072C226.522 6.28271 227.291 5.92871 228.243 5.92871C229.894 5.92871 230.733 6.87354 230.763 8.76318V14H228.983V8.86572C228.983 8.36279 228.873 7.9917 228.653 7.75244C228.438 7.5083 228.084 7.38623 227.591 7.38623C226.874 7.38623 226.339 7.71094 225.987 8.36035V14H224.208V6.0752H225.885ZM234.439 6.0752V14.7031C234.439 15.5137 234.237 16.1313 233.832 16.5562C233.431 16.9858 232.843 17.2007 232.066 17.2007C231.739 17.2007 231.424 17.1592 231.122 17.0762V15.6699C231.307 15.7139 231.517 15.7358 231.751 15.7358C232.342 15.7358 232.645 15.4136 232.66 14.769V6.0752H234.439ZM232.506 4.01709C232.506 3.74365 232.591 3.5166 232.762 3.33594C232.938 3.15527 233.187 3.06494 233.509 3.06494C233.832 3.06494 234.081 3.15527 234.256 3.33594C234.432 3.5166 234.52 3.74365 234.52 4.01709C234.52 4.28564 234.432 4.51025 234.256 4.69092C234.081 4.8667 233.832 4.95459 233.509 4.95459C233.187 4.95459 232.938 4.8667 232.762 4.69092C232.591 4.51025 232.506 4.28564 232.506 4.01709ZM241.083 14C241.004 13.8486 240.936 13.6021 240.877 13.2603C240.311 13.8511 239.618 14.1465 238.797 14.1465C238.001 14.1465 237.352 13.9194 236.849 13.4653C236.346 13.0112 236.095 12.4497 236.095 11.7808C236.095 10.936 236.407 10.2891 237.032 9.83984C237.662 9.38574 238.561 9.15869 239.728 9.15869H240.819V8.63867C240.819 8.22852 240.704 7.90137 240.475 7.65723C240.245 7.4082 239.896 7.28369 239.427 7.28369C239.022 7.28369 238.69 7.38623 238.431 7.59131C238.172 7.7915 238.043 8.04785 238.043 8.36035H236.263C236.263 7.92578 236.407 7.52051 236.695 7.14453C236.983 6.76367 237.374 6.46582 237.867 6.25098C238.365 6.03613 238.919 5.92871 239.53 5.92871C240.458 5.92871 241.197 6.16309 241.749 6.63184C242.301 7.0957 242.584 7.75 242.599 8.59473V12.1689C242.599 12.8818 242.699 13.4507 242.899 13.8755V14H241.083ZM239.127 12.7183C239.479 12.7183 239.808 12.6328 240.116 12.4619C240.428 12.291 240.663 12.0615 240.819 11.7734V10.2793H239.859C239.2 10.2793 238.705 10.394 238.373 10.6235C238.041 10.853 237.875 11.1777 237.875 11.5977C237.875 11.9395 237.987 12.2129 238.211 12.418C238.441 12.6182 238.746 12.7183 239.127 12.7183ZM246.114 6.0752L246.166 6.99072C246.751 6.28271 247.521 5.92871 248.473 5.92871C250.123 5.92871 250.963 6.87354 250.992 8.76318V14H249.212V8.86572C249.212 8.36279 249.103 7.9917 248.883 7.75244C248.668 7.5083 248.314 7.38623 247.821 7.38623C247.103 7.38623 246.568 7.71094 246.217 8.36035V14H244.437V6.0752H246.114ZM257.547 14C257.469 13.8486 257.401 13.6021 257.342 13.2603C256.776 13.8511 256.083 14.1465 255.262 14.1465C254.466 14.1465 253.817 13.9194 253.314 13.4653C252.811 13.0112 252.56 12.4497 252.56 11.7808C252.56 10.936 252.872 10.2891 253.497 9.83984C254.127 9.38574 255.025 9.15869 256.192 9.15869H257.284V8.63867C257.284 8.22852 257.169 7.90137 256.939 7.65723C256.71 7.4082 256.361 7.28369 255.892 7.28369C255.487 7.28369 255.155 7.38623 254.896 7.59131C254.637 7.7915 254.508 8.04785 254.508 8.36035H252.728C252.728 7.92578 252.872 7.52051 253.16 7.14453C253.448 6.76367 253.839 6.46582 254.332 6.25098C254.83 6.03613 255.384 5.92871 255.995 5.92871C256.922 5.92871 257.662 6.16309 258.214 6.63184C258.766 7.0957 259.049 7.75 259.063 8.59473V12.1689C259.063 12.8818 259.164 13.4507 259.364 13.8755V14H257.547ZM255.592 12.7183C255.943 12.7183 256.273 12.6328 256.581 12.4619C256.893 12.291 257.127 12.0615 257.284 11.7734V10.2793H256.324C255.665 10.2793 255.169 10.394 254.837 10.6235C254.505 10.853 254.339 11.1777 254.339 11.5977C254.339 11.9395 254.452 12.2129 254.676 12.418C254.906 12.6182 255.211 12.7183 255.592 12.7183ZM103.072 28.1841H99.2271V26.7485H103.072V28.1841ZM111.495 28.1182C111.495 29.3486 111.219 30.3276 110.667 31.0552C110.121 31.7827 109.366 32.1465 108.404 32.1465C107.477 32.1465 106.754 31.812 106.236 31.1431L106.148 32H104.537V20.75H106.317V24.8369C106.83 24.2314 107.521 23.9287 108.39 23.9287C109.356 23.9287 110.116 24.2876 110.667 25.0054C111.219 25.7231 111.495 26.7266 111.495 28.0156V28.1182ZM109.715 27.9644C109.715 27.105 109.564 26.4604 109.261 26.0308C108.958 25.6011 108.519 25.3862 107.943 25.3862C107.171 25.3862 106.629 25.7231 106.317 26.397V29.6636C106.634 30.3521 107.181 30.6963 107.958 30.6963C108.514 30.6963 108.944 30.4888 109.247 30.0737C109.549 29.6587 109.706 29.0312 109.715 28.1914V27.9644ZM114.747 24.9395C115.328 24.2656 116.063 23.9287 116.952 23.9287C118.641 23.9287 119.498 24.8931 119.522 26.8218V32H117.743V26.8877C117.743 26.3408 117.623 25.9551 117.384 25.7305C117.149 25.501 116.803 25.3862 116.344 25.3862C115.631 25.3862 115.099 25.7036 114.747 26.3384V32H112.967V20.75H114.747V24.9395ZM126.063 32C125.985 31.8486 125.917 31.6021 125.858 31.2603C125.292 31.8511 124.598 32.1465 123.778 32.1465C122.982 32.1465 122.333 31.9194 121.83 31.4653C121.327 31.0112 121.075 30.4497 121.075 29.7808C121.075 28.936 121.388 28.2891 122.013 27.8398C122.643 27.3857 123.541 27.1587 124.708 27.1587H125.799V26.6387C125.799 26.2285 125.685 25.9014 125.455 25.6572C125.226 25.4082 124.876 25.2837 124.408 25.2837C124.002 25.2837 123.67 25.3862 123.412 25.5913C123.153 25.7915 123.023 26.0479 123.023 26.3604H121.244C121.244 25.9258 121.388 25.5205 121.676 25.1445C121.964 24.7637 122.354 24.4658 122.848 24.251C123.346 24.0361 123.9 23.9287 124.51 23.9287C125.438 23.9287 126.178 24.1631 126.729 24.6318C127.281 25.0957 127.564 25.75 127.579 26.5947V30.1689C127.579 30.8818 127.679 31.4507 127.879 31.8755V32H126.063ZM124.107 30.7183C124.459 30.7183 124.789 30.6328 125.096 30.4619C125.409 30.291 125.643 30.0615 125.799 29.7734V28.2793H124.84C124.181 28.2793 123.685 28.394 123.353 28.6235C123.021 28.853 122.855 29.1777 122.855 29.5977C122.855 29.9395 122.967 30.2129 123.192 30.418C123.421 30.6182 123.727 30.7183 124.107 30.7183ZM133.592 25.7012C133.358 25.6621 133.116 25.6426 132.867 25.6426C132.052 25.6426 131.502 25.9551 131.219 26.5801V32H129.439V24.0752H131.139L131.183 24.9614C131.612 24.2729 132.208 23.9287 132.97 23.9287C133.224 23.9287 133.434 23.9629 133.6 24.0312L133.592 25.7012ZM139.232 32C139.154 31.8486 139.085 31.6021 139.027 31.2603C138.46 31.8511 137.767 32.1465 136.947 32.1465C136.151 32.1465 135.501 31.9194 134.999 31.4653C134.496 31.0112 134.244 30.4497 134.244 29.7808C134.244 28.936 134.557 28.2891 135.182 27.8398C135.812 27.3857 136.71 27.1587 137.877 27.1587H138.968V26.6387C138.968 26.2285 138.854 25.9014 138.624 25.6572C138.395 25.4082 138.045 25.2837 137.577 25.2837C137.171 25.2837 136.839 25.3862 136.581 25.5913C136.322 25.7915 136.192 26.0479 136.192 26.3604H134.413C134.413 25.9258 134.557 25.5205 134.845 25.1445C135.133 24.7637 135.523 24.4658 136.017 24.251C136.515 24.0361 137.069 23.9287 137.679 23.9287C138.607 23.9287 139.347 24.1631 139.898 24.6318C140.45 25.0957 140.733 25.75 140.748 26.5947V30.1689C140.748 30.8818 140.848 31.4507 141.048 31.8755V32H139.232ZM137.276 30.7183C137.628 30.7183 137.958 30.6328 138.265 30.4619C138.578 30.291 138.812 30.0615 138.968 29.7734V28.2793H138.009C137.35 28.2793 136.854 28.394 136.522 28.6235C136.19 28.853 136.024 29.1777 136.024 29.5977C136.024 29.9395 136.136 30.2129 136.361 30.418C136.59 30.6182 136.896 30.7183 137.276 30.7183ZM142.279 27.979C142.279 26.7583 142.562 25.7793 143.128 25.042C143.695 24.2998 144.454 23.9287 145.406 23.9287C146.246 23.9287 146.925 24.2217 147.442 24.8076V20.75H149.222V32H147.611L147.523 31.1797C146.991 31.8242 146.28 32.1465 145.392 32.1465C144.464 32.1465 143.712 31.7729 143.136 31.0259C142.564 30.2788 142.279 29.2632 142.279 27.979ZM144.059 28.1328C144.059 28.9385 144.212 29.5684 144.52 30.0225C144.833 30.4717 145.274 30.6963 145.846 30.6963C146.573 30.6963 147.105 30.3716 147.442 29.7222V26.3384C147.115 25.7036 146.588 25.3862 145.86 25.3862C145.284 25.3862 144.84 25.6157 144.527 26.0747C144.215 26.5288 144.059 27.2148 144.059 28.1328ZM158.041 29.5464L159.3 24.0752H161.036L158.875 32H157.411L155.711 26.5581L154.042 32H152.577L150.409 24.0752H152.145L153.426 29.4878L155.052 24.0752H156.393L158.041 29.5464ZM166.961 32C166.883 31.8486 166.815 31.6021 166.756 31.2603C166.19 31.8511 165.497 32.1465 164.676 32.1465C163.88 32.1465 163.231 31.9194 162.728 31.4653C162.225 31.0112 161.974 30.4497 161.974 29.7808C161.974 28.936 162.286 28.2891 162.911 27.8398C163.541 27.3857 164.439 27.1587 165.606 27.1587H166.698V26.6387C166.698 26.2285 166.583 25.9014 166.354 25.6572C166.124 25.4082 165.775 25.2837 165.306 25.2837C164.901 25.2837 164.569 25.3862 164.31 25.5913C164.051 25.7915 163.922 26.0479 163.922 26.3604H162.142C162.142 25.9258 162.286 25.5205 162.574 25.1445C162.862 24.7637 163.253 24.4658 163.746 24.251C164.244 24.0361 164.798 23.9287 165.409 23.9287C166.336 23.9287 167.076 24.1631 167.628 24.6318C168.18 25.0957 168.463 25.75 168.478 26.5947V30.1689C168.478 30.8818 168.578 31.4507 168.778 31.8755V32H166.961ZM165.006 30.7183C165.357 30.7183 165.687 30.6328 165.995 30.4619C166.307 30.291 166.542 30.0615 166.698 29.7734V28.2793H165.738C165.079 28.2793 164.583 28.394 164.251 28.6235C163.919 28.853 163.753 29.1777 163.753 29.5977C163.753 29.9395 163.866 30.2129 164.09 30.418C164.32 30.6182 164.625 30.7183 165.006 30.7183ZM172.198 24.0752V32.7031C172.198 33.5137 171.996 34.1313 171.59 34.5562C171.19 34.9858 170.602 35.2007 169.825 35.2007C169.498 35.2007 169.183 35.1592 168.88 35.0762V33.6699C169.066 33.7139 169.276 33.7358 169.51 33.7358C170.101 33.7358 170.404 33.4136 170.418 32.769V24.0752H172.198ZM170.265 22.0171C170.265 21.7437 170.35 21.5166 170.521 21.3359C170.697 21.1553 170.946 21.0649 171.268 21.0649C171.59 21.0649 171.839 21.1553 172.015 21.3359C172.191 21.5166 172.279 21.7437 172.279 22.0171C172.279 22.2856 172.191 22.5103 172.015 22.6909C171.839 22.8667 171.59 22.9546 171.268 22.9546C170.946 22.9546 170.697 22.8667 170.521 22.6909C170.35 22.5103 170.265 22.2856 170.265 22.0171ZM177.56 28.1841H173.714V26.7485H177.56V28.1841ZM183.961 27.5396C183.365 28.1694 182.669 28.4844 181.874 28.4844C180.936 28.4844 180.189 28.1572 179.632 27.5029C179.076 26.8438 178.797 25.9795 178.797 24.9102C178.797 24.207 178.939 23.5698 179.222 22.9985C179.505 22.4272 179.908 21.9829 180.431 21.6655C180.953 21.3481 181.559 21.1895 182.247 21.1895C183.321 21.1895 184.173 21.5898 184.803 22.3906C185.433 23.1914 185.748 24.2632 185.748 25.606V26.104C185.748 28.0278 185.313 29.4951 184.444 30.5059C183.575 31.5166 182.279 32.0293 180.555 32.0439H180.343V30.5718H180.599C181.649 30.5571 182.455 30.3057 183.016 29.8174C183.578 29.3242 183.893 28.5649 183.961 27.5396ZM182.247 27.0928C182.604 27.0928 182.938 26.9902 183.25 26.7852C183.563 26.5801 183.805 26.2969 183.976 25.9355V25.2397C183.976 24.4536 183.814 23.8213 183.492 23.3428C183.17 22.8643 182.752 22.625 182.24 22.625C181.727 22.625 181.317 22.8374 181.009 23.2622C180.707 23.6821 180.555 24.2144 180.555 24.8589C180.555 25.5278 180.709 26.0674 181.017 26.4775C181.324 26.8877 181.734 27.0928 182.247 27.0928ZM194.537 22.3247L190.274 32H188.407L192.662 22.7642H187.147V21.3359H194.537V22.3247ZM196.441 26.7119L197.02 21.3359H202.748V22.874H198.5L198.207 25.4229C198.7 25.1396 199.256 24.998 199.876 24.998C200.892 24.998 201.681 25.3228 202.242 25.9722C202.809 26.6216 203.092 27.4956 203.092 28.5942C203.092 29.6782 202.779 30.5425 202.154 31.187C201.529 31.8267 200.672 32.1465 199.583 32.1465C198.607 32.1465 197.796 31.8706 197.152 31.3188C196.512 30.7622 196.166 30.0298 196.112 29.1216H197.833C197.901 29.6392 198.087 30.0371 198.39 30.3154C198.692 30.5889 199.088 30.7256 199.576 30.7256C200.123 30.7256 200.548 30.5303 200.851 30.1396C201.158 29.749 201.312 29.2168 201.312 28.543C201.312 27.8936 201.144 27.3809 200.807 27.0049C200.47 26.624 200.006 26.4336 199.415 26.4336C199.093 26.4336 198.819 26.4775 198.595 26.5654C198.37 26.6484 198.126 26.8145 197.862 27.0635L196.441 26.7119ZM206.549 25.855H207.633C208.18 25.8501 208.612 25.7085 208.929 25.4302C209.251 25.1519 209.413 24.749 209.413 24.2217C209.413 23.7139 209.278 23.3208 209.01 23.0425C208.746 22.7593 208.341 22.6177 207.794 22.6177C207.315 22.6177 206.922 22.7568 206.615 23.0352C206.307 23.3086 206.153 23.6675 206.153 24.1118H204.374C204.374 23.5649 204.518 23.0669 204.806 22.6177C205.099 22.1685 205.504 21.8193 206.021 21.5703C206.544 21.3164 207.127 21.1895 207.772 21.1895C208.836 21.1895 209.671 21.458 210.277 21.9951C210.887 22.5273 211.192 23.2695 211.192 24.2217C211.192 24.7002 211.039 25.1519 210.731 25.5767C210.428 25.9966 210.035 26.314 209.552 26.5288C210.138 26.729 210.582 27.0439 210.885 27.4736C211.192 27.9033 211.346 28.416 211.346 29.0117C211.346 29.9688 211.017 30.7305 210.357 31.2969C209.703 31.8633 208.841 32.1465 207.772 32.1465C206.747 32.1465 205.907 31.873 205.252 31.3262C204.598 30.7793 204.271 30.0518 204.271 29.1436H206.051C206.051 29.6123 206.207 29.9932 206.52 30.2861C206.837 30.5791 207.262 30.7256 207.794 30.7256C208.346 30.7256 208.78 30.5791 209.098 30.2861C209.415 29.9932 209.574 29.5684 209.574 29.0117C209.574 28.4502 209.408 28.0181 209.076 27.7153C208.744 27.4126 208.25 27.2612 207.596 27.2612H206.549V25.855ZM220.113 22.3247L215.851 32H213.983L218.238 22.7642H212.723V21.3359H220.113V22.3247ZM227.079 21.2847V22.7568H226.859C225.863 22.7715 225.067 23.0449 224.471 23.5771C223.875 24.1094 223.521 24.8638 223.409 25.8403C223.98 25.2397 224.71 24.9395 225.599 24.9395C226.542 24.9395 227.284 25.2715 227.826 25.9355C228.373 26.5996 228.646 27.4565 228.646 28.5063C228.646 29.5903 228.326 30.4692 227.687 31.1431C227.052 31.812 226.217 32.1465 225.182 32.1465C224.117 32.1465 223.253 31.7534 222.589 30.9673C221.93 30.1812 221.6 29.1509 221.6 27.8765V27.2686C221.6 25.3984 222.054 23.9336 222.962 22.874C223.875 21.8145 225.187 21.2847 226.896 21.2847H227.079ZM225.167 26.375C224.776 26.375 224.417 26.4849 224.09 26.7046C223.768 26.9243 223.531 27.2173 223.38 27.5835V28.1255C223.38 28.9165 223.546 29.5464 223.878 30.0151C224.21 30.479 224.64 30.7109 225.167 30.7109C225.694 30.7109 226.112 30.5132 226.419 30.1177C226.727 29.7222 226.881 29.2021 226.881 28.5576C226.881 27.9131 226.725 27.3882 226.412 26.9829C226.1 26.5776 225.685 26.375 225.167 26.375ZM234.886 32H233.114V23.438L230.499 24.3315V22.8301L234.659 21.2993H234.886V32ZM245.66 28.1182C245.66 29.3486 245.384 30.3276 244.833 31.0552C244.286 31.7827 243.531 32.1465 242.569 32.1465C241.642 32.1465 240.919 31.812 240.401 31.1431L240.313 32H238.702V20.75H240.482V24.8369C240.995 24.2314 241.686 23.9287 242.555 23.9287C243.521 23.9287 244.281 24.2876 244.833 25.0054C245.384 25.7231 245.66 26.7266 245.66 28.0156V28.1182ZM243.88 27.9644C243.88 27.105 243.729 26.4604 243.426 26.0308C243.124 25.6011 242.684 25.3862 242.108 25.3862C241.336 25.3862 240.794 25.7231 240.482 26.397V29.6636C240.799 30.3521 241.346 30.6963 242.123 30.6963C242.679 30.6963 243.109 30.4888 243.412 30.0737C243.714 29.6587 243.871 29.0312 243.88 28.1914V27.9644ZM254.215 32H247.044V30.7769L250.597 26.9023C251.109 26.3311 251.473 25.855 251.688 25.4741C251.908 25.0884 252.018 24.7026 252.018 24.3169C252.018 23.8091 251.874 23.3989 251.585 23.0864C251.302 22.7739 250.919 22.6177 250.436 22.6177C249.859 22.6177 249.413 22.7935 249.095 23.145C248.778 23.4966 248.619 23.9775 248.619 24.5879H246.839C246.839 23.9385 246.986 23.355 247.279 22.8374C247.577 22.3149 247.999 21.9097 248.546 21.6216C249.098 21.3335 249.732 21.1895 250.45 21.1895C251.485 21.1895 252.301 21.4507 252.896 21.9731C253.497 22.4907 253.797 23.2085 253.797 24.1265C253.797 24.6587 253.646 25.2178 253.343 25.8037C253.045 26.3848 252.555 27.0464 251.871 27.7886L249.264 30.5791H254.215V32Z" fill="#BFFBDE"/>
<g clip-path="url(#clip0)">
<path d="M13.365 14V13.9995H13.3684V9.23171C13.3684 6.89929 12.852 5.10258 10.048 5.10258C8.69999 5.10258 7.79539 5.82192 7.42609 6.50388H7.3871V5.32033H4.72845V13.9995H7.49683V9.70188C7.49683 8.57034 7.71741 7.47617 9.15841 7.47617C10.5783 7.47617 10.5994 8.7675 10.5994 9.77446V14H13.365Z" fill="#BFFBDE"/>
<path d="M0.220612 5.32088H2.99233V14H0.220612V5.32088Z" fill="#BFFBDE"/>
<path d="M1.60532 1C0.71911 1 0 1.69929 0 2.56108C0 3.42288 0.71911 4.13679 1.60532 4.13679C2.49154 4.13679 3.21065 3.42288 3.21065 2.56108C3.21009 1.69929 2.49098 1 1.60532 1V1Z" fill="#BFFBDE"/>
</g>
<defs>
<clipPath id="clip0">
<rect width="13.3684" height="13" fill="white" transform="translate(0 1)"/>
</clipPath>
</defs>
</svg>
