<svg width="416" height="49" viewBox="0 0 416 49" fill="none" xmlns="http://www.w3.org/2000/svg">
<path d="M80.0488 30.4902V40H75.6016V14.4062H85.3926C88.252 14.4062 90.5195 15.1504 92.1953 16.6387C93.8828 18.127 94.7266 20.0957 94.7266 22.5449C94.7266 25.0527 93.9004 27.0039 92.248 28.3984C90.6074 29.793 88.3047 30.4902 85.3398 30.4902H80.0488ZM80.0488 26.9219H85.3926C86.9746 26.9219 88.1816 26.5527 89.0137 25.8145C89.8457 25.0645 90.2617 23.9863 90.2617 22.5801C90.2617 21.1973 89.8398 20.0957 88.9961 19.2754C88.1523 18.4434 86.9922 18.0156 85.5156 17.9922H80.0488V26.9219ZM118.949 40H114.52V28.627H103.076V40H98.6289V14.4062H103.076V25.0586H114.52V14.4062H118.949V40ZM144.648 27.8711C144.648 30.3789 144.215 32.582 143.348 34.4805C142.48 36.3672 141.238 37.8203 139.621 38.8398C138.016 39.8477 136.164 40.3516 134.066 40.3516C131.992 40.3516 130.141 39.8477 128.512 38.8398C126.895 37.8203 125.641 36.373 124.75 34.498C123.871 32.623 123.426 30.4609 123.414 28.0117V26.5703C123.414 24.0742 123.854 21.8711 124.732 19.9609C125.623 18.0508 126.871 16.5918 128.477 15.584C130.094 14.5645 131.945 14.0547 134.031 14.0547C136.117 14.0547 137.963 14.5586 139.568 15.5664C141.186 16.5625 142.434 18.0039 143.312 19.8906C144.191 21.7656 144.637 23.9512 144.648 26.4473V27.8711ZM140.201 26.5352C140.201 23.6992 139.662 21.5254 138.584 20.0137C137.518 18.502 136 17.7461 134.031 17.7461C132.109 17.7461 130.604 18.502 129.514 20.0137C128.436 21.5137 127.885 23.6406 127.861 26.3945V27.8711C127.861 30.6836 128.406 32.8574 129.496 34.3926C130.598 35.9277 132.121 36.6953 134.066 36.6953C136.035 36.6953 137.547 35.9453 138.602 34.4453C139.668 32.9453 140.201 30.7539 140.201 27.8711V26.5352ZM169.381 40H164.934L153.525 21.8418V40H149.078V14.4062H153.525L164.969 32.6348V14.4062H169.381V40ZM189.596 28.5742H179.084V36.4492H191.371V40H174.637V14.4062H191.248V17.9922H179.084V25.0586H189.596V28.5742ZM197.154 35.5C197.951 35.5 198.566 35.7285 199 36.1855C199.434 36.6309 199.65 37.1934 199.65 37.873C199.65 38.541 199.434 39.0977 199 39.543C198.566 39.9766 197.951 40.1934 197.154 40.1934C196.393 40.1934 195.789 39.9766 195.344 39.543C194.898 39.1094 194.676 38.5527 194.676 37.873C194.676 37.1934 194.893 36.6309 195.326 36.1855C195.76 35.7285 196.369 35.5 197.154 35.5ZM197.154 20.5762C197.951 20.5762 198.566 20.8047 199 21.2617C199.434 21.707 199.65 22.2695 199.65 22.9492C199.65 23.6172 199.434 24.1738 199 24.6191C198.566 25.0527 197.951 25.2695 197.154 25.2695C196.393 25.2695 195.789 25.0527 195.344 24.6191C194.898 24.1855 194.676 23.6289 194.676 22.9492C194.676 22.2695 194.893 21.707 195.326 21.2617C195.76 20.8047 196.369 20.5762 197.154 20.5762ZM228.953 21.1562C228.953 22.4102 228.631 23.5293 227.986 24.5137C227.342 25.4863 226.463 26.2539 225.35 26.8164C226.686 27.4375 227.711 28.2871 228.426 29.3652C229.152 30.4434 229.516 31.6621 229.516 33.0215C229.516 35.2715 228.754 37.0586 227.23 38.3828C225.707 39.6953 223.68 40.3516 221.148 40.3516C218.605 40.3516 216.566 39.6895 215.031 38.3652C213.508 37.041 212.746 35.2598 212.746 33.0215C212.746 31.6504 213.109 30.4199 213.836 29.3301C214.562 28.2402 215.582 27.4023 216.895 26.8164C215.793 26.2539 214.92 25.4863 214.275 24.5137C213.643 23.5293 213.326 22.4102 213.326 21.1562C213.326 18.9766 214.029 17.248 215.436 15.9707C216.842 14.6934 218.74 14.0547 221.131 14.0547C223.533 14.0547 225.438 14.6934 226.844 15.9707C228.25 17.248 228.953 18.9766 228.953 21.1562ZM225.244 32.8105C225.244 31.5449 224.863 30.5254 224.102 29.752C223.352 28.9668 222.355 28.5742 221.113 28.5742C219.871 28.5742 218.875 28.9609 218.125 29.7344C217.387 30.5078 217.018 31.5332 217.018 32.8105C217.018 34.0645 217.381 35.0664 218.107 35.8164C218.846 36.5664 219.859 36.9414 221.148 36.9414C222.438 36.9414 223.439 36.5781 224.154 35.8516C224.881 35.125 225.244 34.1113 225.244 32.8105ZM224.699 21.3145C224.699 20.2012 224.377 19.2871 223.732 18.5723C223.088 17.8457 222.221 17.4824 221.131 17.4824C220.041 17.4824 219.18 17.8281 218.547 18.5195C217.914 19.1992 217.598 20.1309 217.598 21.3145C217.598 22.4863 217.914 23.418 218.547 24.1094C219.191 24.8008 220.059 25.1465 221.148 25.1465C222.238 25.1465 223.1 24.8008 223.732 24.1094C224.377 23.418 224.699 22.4863 224.699 21.3145ZM249.977 29.2246C249.977 32.9043 249.285 35.6816 247.902 37.5566C246.531 39.4199 244.439 40.3516 241.627 40.3516C238.861 40.3516 236.775 39.4434 235.369 37.627C233.975 35.7988 233.26 33.0977 233.225 29.5234V25.0938C233.225 21.4141 233.91 18.6543 235.281 16.8145C236.664 14.9746 238.768 14.0547 241.592 14.0547C244.393 14.0547 246.479 14.9512 247.85 16.7441C249.232 18.5371 249.941 21.2207 249.977 24.7949V29.2246ZM245.705 24.4434C245.705 22.041 245.377 20.2832 244.721 19.1699C244.064 18.0449 243.021 17.4824 241.592 17.4824C240.197 17.4824 239.172 18.0156 238.516 19.082C237.859 20.1367 237.514 21.7891 237.479 24.0391V29.8398C237.479 32.2305 237.812 34.0117 238.48 35.1836C239.148 36.3555 240.197 36.9414 241.627 36.9414C242.998 36.9414 244.012 36.4023 244.668 35.3242C245.324 34.2344 245.67 32.5352 245.705 30.2266V24.4434ZM265.867 29.2949C264.438 30.8066 262.768 31.5625 260.857 31.5625C258.607 31.5625 256.814 30.7773 255.479 29.207C254.143 27.625 253.475 25.5508 253.475 22.9844C253.475 21.2969 253.814 19.7676 254.494 18.3965C255.174 17.0254 256.141 15.959 257.395 15.1973C258.648 14.4355 260.102 14.0547 261.754 14.0547C264.332 14.0547 266.377 15.0156 267.889 16.9375C269.4 18.8594 270.156 21.4316 270.156 24.6543V25.8496C270.156 30.4668 269.113 33.9883 267.027 36.4141C264.941 38.8398 261.83 40.0703 257.693 40.1055H257.184V36.5723H257.799C260.318 36.5371 262.252 35.9336 263.6 34.7617C264.947 33.5781 265.703 31.7559 265.867 29.2949ZM261.754 28.2227C262.609 28.2227 263.412 27.9766 264.162 27.4844C264.912 26.9922 265.492 26.3125 265.902 25.4453V23.7754C265.902 21.8887 265.516 20.3711 264.742 19.2227C263.969 18.0742 262.967 17.5 261.736 17.5C260.506 17.5 259.521 18.0098 258.783 19.0293C258.057 20.0371 257.693 21.3145 257.693 22.8613C257.693 24.4668 258.062 25.7617 258.801 26.7461C259.539 27.7305 260.523 28.2227 261.754 28.2227ZM291.25 16.7793L281.02 40H276.537L286.75 17.834H273.514V14.4062H291.25V16.7793ZM307.967 14.2832V17.8164H307.439C305.049 17.8516 303.139 18.5078 301.709 19.7852C300.279 21.0625 299.43 22.873 299.16 25.2168C300.531 23.7754 302.283 23.0547 304.416 23.0547C306.678 23.0547 308.459 23.8516 309.76 25.4453C311.072 27.0391 311.729 29.0957 311.729 31.6152C311.729 34.2168 310.961 36.3262 309.426 37.9434C307.902 39.5488 305.898 40.3516 303.414 40.3516C300.859 40.3516 298.785 39.4082 297.191 37.5215C295.609 35.6348 294.818 33.1621 294.818 30.1035V28.6445C294.818 24.1562 295.908 20.6406 298.088 18.0977C300.279 15.5547 303.426 14.2832 307.527 14.2832H307.967ZM303.379 26.5C302.441 26.5 301.58 26.7637 300.795 27.291C300.021 27.8184 299.453 28.5215 299.09 29.4004V30.7012C299.09 32.5996 299.488 34.1113 300.285 35.2363C301.082 36.3496 302.113 36.9062 303.379 36.9062C304.645 36.9062 305.646 36.4316 306.385 35.4824C307.123 34.5332 307.492 33.2852 307.492 31.7383C307.492 30.1914 307.117 28.9316 306.367 27.959C305.617 26.9863 304.621 26.5 303.379 26.5ZM332.172 16.7793L321.941 40H317.459L327.672 17.834H314.436V14.4062H332.172V16.7793ZM347.166 40H342.912V19.4512L336.637 21.5957V17.9922L346.621 14.3184H347.166V40ZM368.172 29.2949C366.742 30.8066 365.072 31.5625 363.162 31.5625C360.912 31.5625 359.119 30.7773 357.783 29.207C356.447 27.625 355.779 25.5508 355.779 22.9844C355.779 21.2969 356.119 19.7676 356.799 18.3965C357.479 17.0254 358.445 15.959 359.699 15.1973C360.953 14.4355 362.406 14.0547 364.059 14.0547C366.637 14.0547 368.682 15.0156 370.193 16.9375C371.705 18.8594 372.461 21.4316 372.461 24.6543V25.8496C372.461 30.4668 371.418 33.9883 369.332 36.4141C367.246 38.8398 364.135 40.0703 359.998 40.1055H359.488V36.5723H360.104C362.623 36.5371 364.557 35.9336 365.904 34.7617C367.252 33.5781 368.008 31.7559 368.172 29.2949ZM364.059 28.2227C364.914 28.2227 365.717 27.9766 366.467 27.4844C367.217 26.9922 367.797 26.3125 368.207 25.4453V23.7754C368.207 21.8887 367.82 20.3711 367.047 19.2227C366.273 18.0742 365.271 17.5 364.041 17.5C362.811 17.5 361.826 18.0098 361.088 19.0293C360.361 20.0371 359.998 21.3145 359.998 22.8613C359.998 24.4668 360.367 25.7617 361.105 26.7461C361.844 27.7305 362.828 28.2227 364.059 28.2227ZM393.203 29.2246C393.203 32.9043 392.512 35.6816 391.129 37.5566C389.758 39.4199 387.666 40.3516 384.854 40.3516C382.088 40.3516 380.002 39.4434 378.596 37.627C377.201 35.7988 376.486 33.0977 376.451 29.5234V25.0938C376.451 21.4141 377.137 18.6543 378.508 16.8145C379.891 14.9746 381.994 14.0547 384.818 14.0547C387.619 14.0547 389.705 14.9512 391.076 16.7441C392.459 18.5371 393.168 21.2207 393.203 24.7949V29.2246ZM388.932 24.4434C388.932 22.041 388.604 20.2832 387.947 19.1699C387.291 18.0449 386.248 17.4824 384.818 17.4824C383.424 17.4824 382.398 18.0156 381.742 19.082C381.086 20.1367 380.74 21.7891 380.705 24.0391V29.8398C380.705 32.2305 381.039 34.0117 381.707 35.1836C382.375 36.3555 383.424 36.9414 384.854 36.9414C386.225 36.9414 387.238 36.4023 387.895 35.3242C388.551 34.2344 388.896 32.5352 388.932 30.2266V24.4434ZM414.016 16.7793L403.785 40H399.303L409.516 17.834H396.279V14.4062H414.016V16.7793Z" fill="#BFFBDE"/>
<path d="M38.7254 30.3538C37.7223 29.3092 36.5123 28.7508 35.2299 28.7508C33.9579 28.7508 32.7376 29.2989 31.693 30.3434L28.425 33.6011C28.1561 33.4563 27.8873 33.3218 27.6287 33.1874C27.2564 33.0013 26.9048 32.8254 26.6049 32.6393C23.5437 30.695 20.7618 28.1613 18.0936 24.883C16.8009 23.249 15.9322 21.8735 15.3013 20.4773C16.1493 19.7017 16.9353 18.8951 17.7006 18.1194C17.9902 17.8299 18.2797 17.5299 18.5693 17.2404C20.7411 15.0686 20.7411 12.2556 18.5693 10.0839L15.746 7.26055C15.4254 6.93995 15.0945 6.60902 14.7842 6.27808C14.1637 5.63689 13.5122 4.97502 12.84 4.35451C11.8368 3.3617 10.6372 2.83427 9.37546 2.83427C8.11377 2.83427 6.89344 3.3617 5.85926 4.35451C5.84891 4.36485 5.84892 4.36485 5.83857 4.37519L2.32237 7.92242C0.998618 9.24617 0.243668 10.8595 0.0781994 12.7314C-0.170003 15.7512 0.71939 18.5641 1.40195 20.405C3.07732 24.9243 5.58003 29.1127 9.31341 33.6011C13.8431 39.0098 19.2932 43.281 25.519 46.2904C27.8976 47.4177 31.0725 48.7518 34.6198 48.9793C34.8369 48.9896 35.0645 49 35.2713 49C37.6602 49 39.6665 48.1416 41.2385 46.4352C41.2488 46.4145 41.2695 46.4042 41.2799 46.3835C41.8176 45.732 42.4381 45.1425 43.0897 44.5117C43.5344 44.0876 43.9894 43.643 44.4341 43.1776C45.4579 42.1124 45.9957 40.8714 45.9957 39.5993C45.9957 38.3169 45.4476 37.0863 44.4031 36.0521L38.7254 30.3538ZM42.4278 41.2437C42.4175 41.2437 42.4175 41.254 42.4278 41.2437C42.0245 41.678 41.6108 42.071 41.1661 42.5054C40.4939 43.1465 39.8113 43.8188 39.1701 44.5737C38.1256 45.6906 36.895 46.2181 35.2816 46.2181C35.1265 46.2181 34.961 46.2181 34.8059 46.2077C31.7344 46.0112 28.8801 44.8116 26.7393 43.7877C20.8859 40.9541 15.746 36.9311 11.4748 31.8326C7.9483 27.5822 5.59037 23.6523 4.02876 19.4328C3.06698 16.8577 2.71535 14.8514 2.87048 12.9589C2.9739 11.7489 3.43928 10.7457 4.29765 9.88736L7.8242 6.36081C8.33094 5.88509 8.86872 5.62655 9.39615 5.62655C10.0477 5.62655 10.5751 6.01954 10.906 6.35047C10.9164 6.36081 10.9267 6.37116 10.9371 6.3815C11.5679 6.97098 12.1677 7.58115 12.7986 8.23268C13.1192 8.56362 13.4501 8.89455 13.7811 9.23583L16.6044 12.0591C17.7006 13.1554 17.7006 14.1689 16.6044 15.2651C16.3045 15.565 16.0149 15.8649 15.715 16.1545C14.8463 17.0439 14.0189 17.8712 13.1192 18.6779C13.0985 18.6986 13.0778 18.7089 13.0675 18.7296C12.1781 19.619 12.3436 20.4877 12.5297 21.0772C12.54 21.1082 12.5504 21.1392 12.5607 21.1702C13.295 22.949 14.3292 24.6244 15.9011 26.6204L15.9115 26.6307C18.7658 30.1469 21.7753 32.8875 25.095 34.9869C25.519 35.2558 25.9533 35.4729 26.367 35.6798C26.7393 35.8659 27.0909 36.0417 27.3908 36.2279C27.4322 36.2486 27.4736 36.2796 27.515 36.3003C27.8666 36.4761 28.1975 36.5588 28.5388 36.5588C29.3972 36.5588 29.9349 36.0211 30.1107 35.8452L33.6476 32.3084C33.9992 31.9567 34.5577 31.5327 35.2092 31.5327C35.8504 31.5327 36.3779 31.936 36.6985 32.2877C36.7088 32.298 36.7088 32.298 36.7191 32.3084L42.4175 38.0067C43.4827 39.0615 43.4827 40.1474 42.4278 41.2437Z" fill="#BFFBDE"/>
<path d="M26.4807 11.6558C29.1903 12.1109 31.6516 13.3932 33.6166 15.3582C35.5815 17.3231 36.8535 19.7845 37.3189 22.494C37.4327 23.1766 38.0222 23.6523 38.6944 23.6523C38.7771 23.6523 38.8495 23.6419 38.9322 23.6316C39.6975 23.5075 40.2043 22.7836 40.0802 22.0183C39.5217 18.7399 37.9705 15.7512 35.6022 13.3829C33.2339 11.0146 30.2452 9.46335 26.9668 8.9049C26.2015 8.7808 25.4879 9.28754 25.3535 10.0425C25.219 10.7974 25.7155 11.5317 26.4807 11.6558Z" fill="#BFFBDE"/>
<path d="M48.9431 21.615C48.0227 16.2165 45.4786 11.3042 41.5694 7.395C37.6602 3.4858 32.7479 0.941723 27.3494 0.021304C26.5945 -0.113139 25.8809 0.40395 25.7465 1.1589C25.6224 1.92419 26.1291 2.63778 26.8944 2.77222C31.7137 3.58922 36.1089 5.87476 39.6045 9.35994C43.1 12.8555 45.3752 17.2507 46.1922 22.07C46.3059 22.7526 46.8954 23.2283 47.5676 23.2283C47.6504 23.2283 47.7228 23.2179 47.8055 23.2076C48.5604 23.0938 49.0775 22.3699 48.9431 21.615Z" fill="#BFFBDE"/>
</svg>
