<svg width="176" height="18" viewBox="0 0 176 18" fill="none" xmlns="http://www.w3.org/2000/svg">
<g clip-path="url(#clip0)">
<path d="M9.5883 9.05304C9.33992 8.77593 9.04033 8.62776 8.72282 8.62776C8.40787 8.62776 8.10572 8.77318 7.8471 9.0503L7.03795 9.91458C6.97138 9.87617 6.9048 9.8405 6.84079 9.80483C6.74861 9.75544 6.66155 9.7088 6.58729 9.65941C5.82936 9.14359 5.14056 8.47137 4.47993 7.60161C4.15985 7.16809 3.94476 6.80318 3.78857 6.43277C3.99854 6.22699 4.19314 6.01298 4.38263 5.8072C4.45432 5.73037 4.52602 5.65081 4.59771 5.57398C5.13544 4.9978 5.13544 4.2515 4.59771 3.67531L3.89867 2.92627C3.8193 2.84122 3.73736 2.75342 3.66054 2.66562C3.5069 2.49551 3.34559 2.31991 3.17915 2.15528C2.93077 1.89188 2.63374 1.75195 2.32135 1.75195C2.00896 1.75195 1.70681 1.89188 1.45075 2.15528C1.44819 2.15803 1.44819 2.15803 1.44563 2.16077L0.575034 3.10187C0.247279 3.45307 0.0603559 3.8811 0.0193865 4.37771C-0.0420675 5.17888 0.178143 5.92518 0.347142 6.41357C0.761956 7.61258 1.38162 8.7238 2.30599 9.91458C3.42753 11.3496 4.77696 12.4827 6.31843 13.2811C6.90736 13.5802 7.69346 13.9342 8.57174 13.9945C8.62552 13.9973 8.68185 14 8.73306 14C9.32456 14 9.82131 13.7723 10.2105 13.3196C10.2131 13.3141 10.2182 13.3113 10.2208 13.3058C10.3539 13.133 10.5075 12.9766 10.6689 12.8092C10.779 12.6967 10.8916 12.5787 11.0017 12.4553C11.2552 12.1727 11.3884 11.8434 11.3884 11.5059C11.3884 11.1657 11.2527 10.8392 10.9941 10.5648L9.5883 9.05304ZM10.505 11.9422C10.5024 11.9422 10.5024 11.9449 10.505 11.9422C10.4051 12.0574 10.3027 12.1617 10.1926 12.2769C10.0262 12.447 9.85716 12.6254 9.6984 12.8257C9.43978 13.122 9.13507 13.2619 8.73562 13.2619C8.69721 13.2619 8.65624 13.2619 8.61783 13.2592C7.85734 13.2071 7.15062 12.8888 6.62058 12.6172C5.17129 11.8654 3.89867 10.7981 2.84115 9.4454C1.96799 8.31772 1.38418 7.2751 0.99753 6.15565C0.759396 5.47246 0.672336 4.94018 0.710745 4.43807C0.736351 4.11706 0.851577 3.85091 1.06411 3.62318L1.93727 2.68757C2.06273 2.56136 2.19588 2.49276 2.32647 2.49276C2.48779 2.49276 2.61838 2.59702 2.70032 2.68482C2.70288 2.68757 2.70544 2.69031 2.708 2.69306C2.8642 2.84945 3.01271 3.01133 3.16891 3.18419C3.24829 3.27198 3.33022 3.35978 3.41216 3.45033L4.1112 4.19937C4.38262 4.49021 4.38262 4.75909 4.1112 5.04993C4.03695 5.1295 3.96525 5.20906 3.89099 5.28589C3.6759 5.52185 3.47106 5.74135 3.24829 5.95536C3.24316 5.96085 3.23804 5.96359 3.23548 5.96908C3.01527 6.20504 3.05624 6.43552 3.10233 6.59191C3.10489 6.60014 3.10745 6.60837 3.11001 6.6166C3.29182 7.08853 3.54787 7.53301 3.93708 8.06255L3.93964 8.0653C4.64637 8.99817 5.3915 9.72526 6.21344 10.2822C6.31843 10.3536 6.42597 10.4112 6.5284 10.4661C6.62058 10.5155 6.70764 10.5621 6.78189 10.6115C6.79214 10.617 6.80238 10.6252 6.81262 10.6307C6.89968 10.6773 6.98162 10.6993 7.06612 10.6993C7.27865 10.6993 7.4118 10.5566 7.45533 10.51L8.33105 9.57161C8.41811 9.47832 8.55638 9.36583 8.7177 9.36583C8.87645 9.36583 9.00704 9.47284 9.08642 9.56612C9.08898 9.56887 9.08898 9.56887 9.09154 9.57161L10.5024 11.0834C10.7662 11.3633 10.7662 11.6514 10.505 11.9422Z" fill="#BFFBDE"/>
<path d="M6.55648 4.09237C7.22735 4.21309 7.83677 4.55332 8.32328 5.07463C8.80979 5.59594 9.12475 6.24895 9.23997 6.96781C9.26814 7.14889 9.41409 7.27511 9.58053 7.27511C9.60101 7.27511 9.61894 7.27236 9.63942 7.26962C9.82891 7.23669 9.95437 7.04463 9.92365 6.8416C9.78538 5.97183 9.40129 5.17889 8.81492 4.55057C8.22854 3.92226 7.48853 3.5107 6.67683 3.36253C6.48734 3.32961 6.31066 3.46405 6.27738 3.66434C6.24409 3.86464 6.367 4.05944 6.55648 4.09237Z" fill="#BFFBDE"/>
<path d="M12.1182 6.73457C11.8903 5.30234 11.2604 3.99907 10.2925 2.96193C9.3246 1.9248 8.10832 1.24984 6.77169 1.00565C6.58477 0.969978 6.40809 1.10717 6.3748 1.30746C6.34408 1.5105 6.46955 1.69981 6.65903 1.73548C7.85226 1.95224 8.94051 2.5586 9.80599 3.48324C10.6715 4.41063 11.2348 5.57672 11.4371 6.8553C11.4652 7.03639 11.6112 7.1626 11.7776 7.1626C11.7981 7.1626 11.816 7.15985 11.8365 7.15711C12.0235 7.12693 12.1515 6.93487 12.1182 6.73457Z" fill="#BFFBDE"/>
</g>
<path d="M26.937 10.0376V14H25.084V3.33594H29.1636C30.355 3.33594 31.2998 3.646 31.998 4.26611C32.7012 4.88623 33.0527 5.70654 33.0527 6.72705C33.0527 7.77197 32.7085 8.58496 32.02 9.16602C31.3364 9.74707 30.377 10.0376 29.1416 10.0376H26.937ZM26.937 8.55078H29.1636C29.8228 8.55078 30.3257 8.39697 30.6724 8.08936C31.019 7.77686 31.1924 7.32764 31.1924 6.7417C31.1924 6.16553 31.0166 5.70654 30.665 5.36475C30.3135 5.01807 29.8301 4.83984 29.2148 4.83008H26.937V8.55078ZM43.1455 14H41.2998V9.26123H36.5317V14H34.6787V3.33594H36.5317V7.77441H41.2998V3.33594H43.1455V14ZM53.8535 8.94629C53.8535 9.99121 53.6729 10.9092 53.3115 11.7002C52.9502 12.4863 52.4326 13.0918 51.7588 13.5166C51.0898 13.9365 50.3184 14.1465 49.4443 14.1465C48.5801 14.1465 47.8086 13.9365 47.1299 13.5166C46.4561 13.0918 45.9336 12.4888 45.5625 11.7075C45.1963 10.9263 45.0107 10.0254 45.0059 9.00488V8.4043C45.0059 7.36426 45.189 6.44629 45.5552 5.65039C45.9263 4.85449 46.4463 4.24658 47.1152 3.82666C47.7891 3.40186 48.5605 3.18945 49.4297 3.18945C50.2988 3.18945 51.0679 3.39941 51.7368 3.81934C52.4106 4.23438 52.9307 4.83496 53.2969 5.62109C53.6631 6.40234 53.8486 7.31299 53.8535 8.35303V8.94629ZM52.0005 8.38965C52.0005 7.20801 51.7759 6.30225 51.3267 5.67236C50.8823 5.04248 50.25 4.72754 49.4297 4.72754C48.6289 4.72754 48.0015 5.04248 47.5474 5.67236C47.0981 6.29736 46.8687 7.18359 46.8589 8.33105V8.94629C46.8589 10.1182 47.0859 11.0239 47.54 11.6636C47.999 12.3032 48.6338 12.623 49.4443 12.623C50.2646 12.623 50.8945 12.3105 51.334 11.6855C51.7783 11.0605 52.0005 10.1475 52.0005 8.94629V8.38965ZM64.1587 14H62.3057L57.5522 6.43408V14H55.6992V3.33594H57.5522L62.3203 10.9312V3.33594H64.1587V14ZM72.5815 9.23926H68.2017V12.5205H73.3213V14H66.3486V3.33594H73.27V4.83008H68.2017V7.77441H72.5815V9.23926ZM75.731 12.125C76.063 12.125 76.3193 12.2202 76.5 12.4106C76.6807 12.5962 76.771 12.8306 76.771 13.1138C76.771 13.3921 76.6807 13.624 76.5 13.8096C76.3193 13.9902 76.063 14.0806 75.731 14.0806C75.4136 14.0806 75.1621 13.9902 74.9766 13.8096C74.791 13.6289 74.6982 13.397 74.6982 13.1138C74.6982 12.8306 74.7886 12.5962 74.9692 12.4106C75.1499 12.2202 75.4038 12.125 75.731 12.125ZM75.731 5.90674C76.063 5.90674 76.3193 6.00195 76.5 6.19238C76.6807 6.37793 76.771 6.6123 76.771 6.89551C76.771 7.17383 76.6807 7.40576 76.5 7.59131C76.3193 7.77197 76.063 7.8623 75.731 7.8623C75.4136 7.8623 75.1621 7.77197 74.9766 7.59131C74.791 7.41064 74.6982 7.17871 74.6982 6.89551C74.6982 6.6123 74.7886 6.37793 74.9692 6.19238C75.1499 6.00195 75.4038 5.90674 75.731 5.90674ZM88.9805 6.14844C88.9805 6.6709 88.8462 7.13721 88.5776 7.54736C88.3091 7.95264 87.9429 8.27246 87.479 8.50684C88.0356 8.76562 88.4629 9.11963 88.7607 9.56885C89.0635 10.0181 89.2148 10.5259 89.2148 11.0923C89.2148 12.0298 88.8975 12.7744 88.2627 13.3262C87.6279 13.873 86.7832 14.1465 85.7285 14.1465C84.6689 14.1465 83.8193 13.8706 83.1797 13.3188C82.5449 12.7671 82.2275 12.0249 82.2275 11.0923C82.2275 10.521 82.3789 10.0083 82.6816 9.5542C82.9844 9.1001 83.4092 8.75098 83.9561 8.50684C83.4971 8.27246 83.1333 7.95264 82.8647 7.54736C82.6011 7.13721 82.4692 6.6709 82.4692 6.14844C82.4692 5.24023 82.7622 4.52002 83.3481 3.98779C83.9341 3.45557 84.7251 3.18945 85.7212 3.18945C86.7222 3.18945 87.5156 3.45557 88.1016 3.98779C88.6875 4.52002 88.9805 5.24023 88.9805 6.14844ZM87.4351 11.0044C87.4351 10.4771 87.2764 10.0522 86.959 9.72998C86.6465 9.40283 86.2314 9.23926 85.7139 9.23926C85.1963 9.23926 84.7812 9.40039 84.4688 9.72266C84.1611 10.0449 84.0073 10.4722 84.0073 11.0044C84.0073 11.5269 84.1587 11.9443 84.4614 12.2568C84.769 12.5693 85.1914 12.7256 85.7285 12.7256C86.2656 12.7256 86.6831 12.5742 86.981 12.2715C87.2837 11.9688 87.4351 11.5464 87.4351 11.0044ZM87.208 6.21436C87.208 5.75049 87.0737 5.36963 86.8052 5.07178C86.5366 4.76904 86.1753 4.61768 85.7212 4.61768C85.2671 4.61768 84.9082 4.76172 84.6445 5.0498C84.3809 5.33301 84.249 5.72119 84.249 6.21436C84.249 6.70264 84.3809 7.09082 84.6445 7.37891C84.9131 7.66699 85.2744 7.81104 85.7285 7.81104C86.1826 7.81104 86.5415 7.66699 86.8052 7.37891C87.0737 7.09082 87.208 6.70264 87.208 6.21436ZM97.7402 9.51025C97.7402 11.0435 97.4521 12.2007 96.876 12.9819C96.3047 13.7583 95.4331 14.1465 94.2612 14.1465C93.1089 14.1465 92.2397 13.7681 91.6538 13.0112C91.0728 12.2495 90.7749 11.124 90.7603 9.63477V7.78906C90.7603 6.25586 91.0459 5.10596 91.6172 4.33936C92.1934 3.57275 93.0698 3.18945 94.2466 3.18945C95.4136 3.18945 96.2827 3.56299 96.854 4.31006C97.4302 5.05713 97.7256 6.17529 97.7402 7.66455V9.51025ZM95.9604 7.51807C95.9604 6.51709 95.8237 5.78467 95.5503 5.3208C95.2769 4.85205 94.8423 4.61768 94.2466 4.61768C93.6655 4.61768 93.2383 4.83984 92.9648 5.28418C92.6914 5.72363 92.5474 6.41211 92.5327 7.34961V9.7666C92.5327 10.7627 92.6719 11.5049 92.9502 11.9932C93.2285 12.4814 93.6655 12.7256 94.2612 12.7256C94.8325 12.7256 95.2549 12.501 95.5283 12.0518C95.8018 11.5977 95.9458 10.8896 95.9604 9.92773V7.51807ZM104.361 9.53955C103.766 10.1694 103.07 10.4844 102.274 10.4844C101.336 10.4844 100.589 10.1572 100.033 9.50293C99.4761 8.84375 99.1978 7.97949 99.1978 6.91016C99.1978 6.20703 99.3394 5.56982 99.6226 4.99854C99.9058 4.42725 100.309 3.98291 100.831 3.66553C101.354 3.34814 101.959 3.18945 102.647 3.18945C103.722 3.18945 104.574 3.58984 105.204 4.39062C105.833 5.19141 106.148 6.26318 106.148 7.60596V8.104C106.148 10.0278 105.714 11.4951 104.845 12.5059C103.976 13.5166 102.679 14.0293 100.956 14.0439H100.743V12.5718H101C102.049 12.5571 102.855 12.3057 103.417 11.8174C103.978 11.3242 104.293 10.5649 104.361 9.53955ZM102.647 9.09277C103.004 9.09277 103.338 8.99023 103.651 8.78516C103.963 8.58008 104.205 8.29688 104.376 7.93555V7.23975C104.376 6.45361 104.215 5.82129 103.893 5.34277C103.57 4.86426 103.153 4.625 102.64 4.625C102.127 4.625 101.717 4.8374 101.41 5.26221C101.107 5.68213 100.956 6.21436 100.956 6.85889C100.956 7.52783 101.109 8.06738 101.417 8.47754C101.725 8.8877 102.135 9.09277 102.647 9.09277ZM114.938 4.32471L110.675 14H108.807L113.062 4.76416H107.547V3.33594H114.938V4.32471ZM121.903 3.28467V4.75684H121.683C120.687 4.77148 119.891 5.04492 119.295 5.57715C118.7 6.10938 118.346 6.86377 118.233 7.84033C118.805 7.23975 119.535 6.93945 120.423 6.93945C121.366 6.93945 122.108 7.27148 122.65 7.93555C123.197 8.59961 123.47 9.45654 123.47 10.5063C123.47 11.5903 123.15 12.4692 122.511 13.1431C121.876 13.812 121.041 14.1465 120.006 14.1465C118.941 14.1465 118.077 13.7534 117.413 12.9673C116.754 12.1812 116.424 11.1509 116.424 9.87646V9.26855C116.424 7.39844 116.878 5.93359 117.787 4.87402C118.7 3.81445 120.011 3.28467 121.72 3.28467H121.903ZM119.991 8.375C119.601 8.375 119.242 8.48486 118.915 8.70459C118.592 8.92432 118.355 9.21729 118.204 9.5835V10.1255C118.204 10.9165 118.37 11.5464 118.702 12.0151C119.034 12.479 119.464 12.7109 119.991 12.7109C120.519 12.7109 120.936 12.5132 121.244 12.1177C121.551 11.7222 121.705 11.2021 121.705 10.5576C121.705 9.91309 121.549 9.38818 121.236 8.98291C120.924 8.57764 120.509 8.375 119.991 8.375ZM131.988 4.32471L127.726 14H125.858L130.113 4.76416H124.598V3.33594H131.988V4.32471ZM138.236 14H136.463V5.43799L133.849 6.33154V4.83008L138.009 3.29932H138.236V14ZM146.988 9.53955C146.393 10.1694 145.697 10.4844 144.901 10.4844C143.963 10.4844 143.216 10.1572 142.66 9.50293C142.103 8.84375 141.825 7.97949 141.825 6.91016C141.825 6.20703 141.966 5.56982 142.25 4.99854C142.533 4.42725 142.936 3.98291 143.458 3.66553C143.98 3.34814 144.586 3.18945 145.274 3.18945C146.349 3.18945 147.201 3.58984 147.831 4.39062C148.46 5.19141 148.775 6.26318 148.775 7.60596V8.104C148.775 10.0278 148.341 11.4951 147.472 12.5059C146.603 13.5166 145.306 14.0293 143.583 14.0439H143.37V12.5718H143.626C144.676 12.5571 145.482 12.3057 146.043 11.8174C146.605 11.3242 146.92 10.5649 146.988 9.53955ZM145.274 9.09277C145.631 9.09277 145.965 8.99023 146.278 8.78516C146.59 8.58008 146.832 8.29688 147.003 7.93555V7.23975C147.003 6.45361 146.842 5.82129 146.52 5.34277C146.197 4.86426 145.78 4.625 145.267 4.625C144.754 4.625 144.344 4.8374 144.037 5.26221C143.734 5.68213 143.583 6.21436 143.583 6.85889C143.583 7.52783 143.736 8.06738 144.044 8.47754C144.352 8.8877 144.762 9.09277 145.274 9.09277ZM157.418 9.51025C157.418 11.0435 157.13 12.2007 156.554 12.9819C155.982 13.7583 155.111 14.1465 153.939 14.1465C152.787 14.1465 151.917 13.7681 151.332 13.0112C150.75 12.2495 150.453 11.124 150.438 9.63477V7.78906C150.438 6.25586 150.724 5.10596 151.295 4.33936C151.871 3.57275 152.748 3.18945 153.924 3.18945C155.091 3.18945 155.96 3.56299 156.532 4.31006C157.108 5.05713 157.403 6.17529 157.418 7.66455V9.51025ZM155.638 7.51807C155.638 6.51709 155.501 5.78467 155.228 5.3208C154.955 4.85205 154.52 4.61768 153.924 4.61768C153.343 4.61768 152.916 4.83984 152.643 5.28418C152.369 5.72363 152.225 6.41211 152.21 7.34961V9.7666C152.21 10.7627 152.35 11.5049 152.628 11.9932C152.906 12.4814 153.343 12.7256 153.939 12.7256C154.51 12.7256 154.933 12.501 155.206 12.0518C155.479 11.5977 155.624 10.8896 155.638 9.92773V7.51807ZM166.09 4.32471L161.827 14H159.959L164.215 4.76416H158.7V3.33594H166.09V4.32471ZM174.469 9.51025C174.469 11.0435 174.181 12.2007 173.604 12.9819C173.033 13.7583 172.162 14.1465 170.99 14.1465C169.837 14.1465 168.968 13.7681 168.382 13.0112C167.801 12.2495 167.503 11.124 167.489 9.63477V7.78906C167.489 6.25586 167.774 5.10596 168.346 4.33936C168.922 3.57275 169.798 3.18945 170.975 3.18945C172.142 3.18945 173.011 3.56299 173.583 4.31006C174.159 5.05713 174.454 6.17529 174.469 7.66455V9.51025ZM172.689 7.51807C172.689 6.51709 172.552 5.78467 172.279 5.3208C172.005 4.85205 171.571 4.61768 170.975 4.61768C170.394 4.61768 169.967 4.83984 169.693 5.28418C169.42 5.72363 169.276 6.41211 169.261 7.34961V9.7666C169.261 10.7627 169.4 11.5049 169.679 11.9932C169.957 12.4814 170.394 12.7256 170.99 12.7256C171.561 12.7256 171.983 12.501 172.257 12.0518C172.53 11.5977 172.674 10.8896 172.689 9.92773V7.51807Z" fill="#BFFBDE"/>
<defs>
<clipPath id="clip0">
<rect width="12.1322" height="13" fill="white" transform="translate(0 1)"/>
</clipPath>
</defs>
</svg>
