<svg width="188" height="49" viewBox="0 0 188 49" fill="none" xmlns="http://www.w3.org/2000/svg">
<path d="M187.017 0.544388L187 49L0.0024843 48.9595L0.0194818 0.503904L59.7272 16.9011L98.2325 0.525167L143.012 16.9191L187.017 0.544388Z" fill="#8AD4B5"/>
<path opacity="0.5" d="M15.4819 32.2022C15.4819 31.7872 15.3354 31.4698 15.0425 31.2501C14.7495 31.0255 14.2222 30.7911 13.4604 30.5469C12.6987 30.2979 12.0957 30.0538 11.6514 29.8145C10.4404 29.1602 9.83496 28.2789 9.83496 27.1705C9.83496 26.5943 9.99609 26.0816 10.3184 25.6324C10.6455 25.1783 11.1118 24.8243 11.7173 24.5704C12.3276 24.3165 13.0112 24.1895 13.7681 24.1895C14.5298 24.1895 15.2085 24.3287 15.8042 24.607C16.3999 24.8804 16.8613 25.2686 17.1885 25.7715C17.5205 26.2745 17.6865 26.8458 17.6865 27.4854H15.4893C15.4893 26.9971 15.3354 26.6187 15.0278 26.3502C14.7202 26.0767 14.2881 25.94 13.7314 25.94C13.1943 25.94 12.7769 26.0547 12.479 26.2842C12.1812 26.5089 12.0322 26.8067 12.0322 27.1778C12.0322 27.5245 12.2056 27.815 12.5522 28.0494C12.9038 28.2838 13.4189 28.5035 14.0977 28.7086C15.3477 29.0845 16.2583 29.5508 16.8296 30.1075C17.4009 30.6641 17.6865 31.3575 17.6865 32.1876C17.6865 33.1104 17.3374 33.8355 16.6392 34.3629C15.9409 34.8853 15.001 35.1465 13.8193 35.1465C12.999 35.1465 12.252 34.9976 11.5781 34.6998C10.9043 34.397 10.3892 33.9844 10.0327 33.462C9.68115 32.9395 9.50537 32.334 9.50537 31.6456H11.71C11.71 32.8223 12.4131 33.4107 13.8193 33.4107C14.3418 33.4107 14.7495 33.3057 15.0425 33.0958C15.3354 32.8809 15.4819 32.5831 15.4819 32.2022ZM19.1807 35.0001V24.336H22.916C24.21 24.336 25.1914 24.585 25.8604 25.0831C26.5293 25.5762 26.8638 26.3013 26.8638 27.2584C26.8638 27.7808 26.7295 28.2422 26.4609 28.6426C26.1924 29.0381 25.8188 29.3287 25.3403 29.5142C25.8872 29.6509 26.3169 29.9268 26.6294 30.3419C26.9468 30.7569 27.1055 31.2647 27.1055 31.8653C27.1055 32.8907 26.7783 33.6671 26.124 34.1944C25.4697 34.7217 24.5371 34.9903 23.3262 35.0001H19.1807ZM21.3779 30.3565V33.2349H23.2603C23.7778 33.2349 24.1807 33.1129 24.4688 32.8687C24.7617 32.6197 24.9082 32.2779 24.9082 31.8433C24.9082 30.8668 24.4028 30.3712 23.3921 30.3565H21.3779ZM21.3779 28.8038H23.0039C24.1123 28.7842 24.6665 28.3423 24.6665 27.4781C24.6665 26.9947 24.5249 26.648 24.2417 26.438C23.9634 26.2232 23.5215 26.1158 22.916 26.1158H21.3779V28.8038ZM28.7314 33.96C28.7314 33.6231 28.8438 33.3497 29.0684 33.1397C29.2979 32.9297 29.5835 32.8248 29.9253 32.8248C30.272 32.8248 30.5576 32.9297 30.7822 33.1397C31.0117 33.3497 31.1265 33.6231 31.1265 33.96C31.1265 34.2921 31.0142 34.563 30.7896 34.773C30.5649 34.9781 30.2769 35.0806 29.9253 35.0806C29.5786 35.0806 29.293 34.9781 29.0684 34.773C28.8438 34.563 28.7314 34.2921 28.7314 33.96Z" fill="black"/>
</svg>
