<svg width="244" height="84" viewBox="0 0 244 84" fill="none" xmlns="http://www.w3.org/2000/svg">
<path d="M243.35 0.570938L243.327 83.9538L4.28105e-05 83.8867L0.0230212 0.503883L77.7163 28.7195L127.821 0.539101L186.089 28.7494L243.35 0.570938Z" fill="#8AD4B5"/>
<path d="M28.6426 49.2695C28.6426 48.7161 28.4473 48.293 28.0566 48C27.666 47.7005 26.9629 47.388 25.9473 47.0625C24.9316 46.7305 24.1276 46.4049 23.5352 46.0859C21.9206 45.2135 21.1133 44.0384 21.1133 42.5605C21.1133 41.7923 21.3281 41.1087 21.7578 40.5098C22.194 39.9043 22.8158 39.4323 23.623 39.0938C24.4368 38.7552 25.3483 38.5859 26.3574 38.5859C27.373 38.5859 28.278 38.7715 29.0723 39.1426C29.8665 39.5072 30.4818 40.0247 30.918 40.6953C31.3607 41.3659 31.582 42.1276 31.582 42.9805H28.6523C28.6523 42.3294 28.4473 41.8249 28.0371 41.4668C27.627 41.1022 27.0508 40.9199 26.3086 40.9199C25.5924 40.9199 25.0358 41.0729 24.6387 41.3789C24.2415 41.6784 24.043 42.0755 24.043 42.5703C24.043 43.0326 24.2741 43.4199 24.7363 43.7324C25.2051 44.0449 25.8919 44.3379 26.7969 44.6113C28.4635 45.1126 29.6777 45.7344 30.4395 46.4766C31.2012 47.2188 31.582 48.1432 31.582 49.25C31.582 50.4805 31.1165 51.4473 30.1855 52.1504C29.2546 52.847 28.0013 53.1953 26.4258 53.1953C25.332 53.1953 24.3359 52.9967 23.4375 52.5996C22.5391 52.196 21.8522 51.6458 21.377 50.9492C20.9082 50.2526 20.6738 49.4453 20.6738 48.5273H23.6133C23.6133 50.0964 24.5508 50.8809 26.4258 50.8809C27.1224 50.8809 27.666 50.7409 28.0566 50.4609C28.4473 50.1745 28.6426 49.7773 28.6426 49.2695ZM33.5742 53V38.7812H38.5547C40.2799 38.7812 41.5885 39.1133 42.4805 39.7773C43.3724 40.4349 43.8184 41.4017 43.8184 42.6777C43.8184 43.3743 43.6393 43.9896 43.2812 44.5234C42.9232 45.0508 42.4251 45.4382 41.7871 45.6855C42.5163 45.8678 43.0892 46.2357 43.5059 46.7891C43.929 47.3424 44.1406 48.0195 44.1406 48.8203C44.1406 50.1875 43.7044 51.2227 42.832 51.9258C41.9596 52.6289 40.7161 52.987 39.1016 53H33.5742ZM36.5039 46.8086V50.6465H39.0137C39.7038 50.6465 40.2409 50.4837 40.625 50.1582C41.0156 49.8262 41.2109 49.3704 41.2109 48.791C41.2109 47.4889 40.5371 46.8281 39.1895 46.8086H36.5039ZM36.5039 44.7383H38.6719C40.1497 44.7122 40.8887 44.123 40.8887 42.9707C40.8887 42.3262 40.6999 41.8639 40.3223 41.584C39.9512 41.2975 39.362 41.1543 38.5547 41.1543H36.5039V44.7383ZM46.3086 51.6133C46.3086 51.1641 46.4583 50.7995 46.7578 50.5195C47.0638 50.2396 47.4447 50.0996 47.9004 50.0996C48.3626 50.0996 48.7435 50.2396 49.043 50.5195C49.349 50.7995 49.502 51.1641 49.502 51.6133C49.502 52.056 49.3522 52.4173 49.0527 52.6973C48.7533 52.9707 48.3691 53.1074 47.9004 53.1074C47.4382 53.1074 47.0573 52.9707 46.7578 52.6973C46.4583 52.4173 46.3086 52.056 46.3086 51.6133Z" fill="black"/>
</svg>
