<svg width="411" height="173" viewBox="0 0 411 173" fill="none" xmlns="http://www.w3.org/2000/svg">
<path d="M410.998 0.143982L410.96 172.496L-1.17305e-05 172.352L0.0373434 -1.43183e-05L131.256 58.3233L215.878 0.075614L314.288 58.3874L410.998 0.143982Z" fill="#8AD4B5"/>
<path opacity="0.5" d="M26.2556 84.1051C26.2556 83.69 26.1091 83.3727 25.8161 83.1529C25.5232 82.9283 24.9958 82.6939 24.2341 82.4498C23.4724 82.2008 22.8694 81.9566 22.425 81.7174C21.2141 81.0631 20.6086 80.1817 20.6086 79.0733C20.6086 78.4972 20.7698 77.9845 21.092 77.5352C21.4192 77.0811 21.8855 76.7271 22.491 76.4732C23.1013 76.2193 23.7849 76.0924 24.5417 76.0924C25.3035 76.0924 25.9822 76.2315 26.5779 76.5099C27.1736 76.7833 27.635 77.1715 27.9621 77.6744C28.2942 78.1773 28.4602 78.7486 28.4602 79.3883H26.2629C26.2629 78.9 26.1091 78.5216 25.8015 78.253C25.4939 77.9796 25.0618 77.8429 24.5051 77.8429C23.968 77.8429 23.5505 77.9576 23.2527 78.1871C22.9548 78.4117 22.8059 78.7096 22.8059 79.0807C22.8059 79.4273 22.9792 79.7179 23.3259 79.9522C23.6775 80.1866 24.1926 80.4063 24.8713 80.6114C26.1213 80.9874 27.032 81.4537 27.6033 82.0103C28.1745 82.567 28.4602 83.2603 28.4602 84.0904C28.4602 85.0133 28.1111 85.7384 27.4128 86.2657C26.7146 86.7882 25.7746 87.0494 24.593 87.0494C23.7727 87.0494 23.0256 86.9005 22.3518 86.6026C21.678 86.2999 21.1628 85.8873 20.8064 85.3648C20.4548 84.8424 20.279 84.2369 20.279 83.5484H22.4836C22.4836 84.7252 23.1868 85.3136 24.593 85.3136C25.1155 85.3136 25.5232 85.2086 25.8161 84.9986C26.1091 84.7838 26.2556 84.4859 26.2556 84.1051ZM29.9543 86.9029V76.2389H33.6897C34.9836 76.2389 35.9651 76.4879 36.634 76.9859C37.303 77.4791 37.6374 78.2042 37.6374 79.1612C37.6374 79.6837 37.5032 80.1451 37.2346 80.5455C36.966 80.941 36.5925 81.2315 36.114 81.4171C36.6609 81.5538 37.0906 81.8297 37.4031 82.2447C37.7204 82.6598 37.8791 83.1676 37.8791 83.7682C37.8791 84.7935 37.552 85.5699 36.8977 86.0973C36.2434 86.6246 35.3108 86.8932 34.0998 86.9029H29.9543ZM32.1516 82.2594V85.1378H34.0339C34.5515 85.1378 34.9543 85.0157 35.2424 84.7716C35.5354 84.5226 35.6819 84.1808 35.6819 83.7462C35.6819 82.7696 35.1765 82.274 34.1658 82.2594H32.1516ZM32.1516 80.7066H33.7776C34.886 80.6871 35.4402 80.2452 35.4402 79.381C35.4402 78.8976 35.2986 78.5509 35.0154 78.3409C34.737 78.1261 34.2952 78.0186 33.6897 78.0186H32.1516V80.7066ZM39.5051 85.8629C39.5051 85.526 39.6174 85.2525 39.842 85.0426C40.0715 84.8326 40.3572 84.7276 40.699 84.7276C41.0456 84.7276 41.3313 84.8326 41.5559 85.0426C41.7854 85.2525 41.9001 85.526 41.9001 85.8629C41.9001 86.1949 41.7878 86.4659 41.5632 86.6759C41.3386 86.881 41.0505 86.9835 40.699 86.9835C40.3523 86.9835 40.0666 86.881 39.842 86.6759C39.6174 86.4659 39.5051 86.1949 39.5051 85.8629Z" fill="black"/>
</svg>
