<svg width="1438" height="263" viewBox="0 0 1438 263" fill="none" xmlns="http://www.w3.org/2000/svg">
<path d="M1440.35 0.396973L1440.27 278.397L1.36291e-05 278L0.0766239 6.6784e-05L459.97 94.1268L756.523 0.208526L1101.44 94.3036L1440.35 0.396973Z" fill="#8AD4B5"/>
<path d="M116.557 126.285C116.557 125.289 116.205 124.527 115.502 124C114.799 123.461 113.533 122.898 111.705 122.312C109.877 121.715 108.43 121.129 107.363 120.555C104.457 118.984 103.004 116.869 103.004 114.209C103.004 112.826 103.391 111.596 104.164 110.518C104.949 109.428 106.068 108.578 107.521 107.969C108.986 107.359 110.627 107.055 112.443 107.055C114.271 107.055 115.9 107.389 117.33 108.057C118.76 108.713 119.867 109.645 120.652 110.852C121.449 112.059 121.848 113.43 121.848 114.965H116.574C116.574 113.793 116.205 112.885 115.467 112.24C114.729 111.584 113.691 111.256 112.355 111.256C111.066 111.256 110.064 111.531 109.35 112.082C108.635 112.621 108.277 113.336 108.277 114.227C108.277 115.059 108.693 115.756 109.525 116.318C110.369 116.881 111.605 117.408 113.234 117.9C116.234 118.803 118.42 119.922 119.791 121.258C121.162 122.594 121.848 124.258 121.848 126.25C121.848 128.465 121.01 130.205 119.334 131.471C117.658 132.725 115.402 133.352 112.566 133.352C110.598 133.352 108.805 132.994 107.188 132.279C105.57 131.553 104.334 130.562 103.479 129.309C102.635 128.055 102.213 126.602 102.213 124.949H107.504C107.504 127.773 109.191 129.186 112.566 129.186C113.82 129.186 114.799 128.934 115.502 128.43C116.205 127.914 116.557 127.199 116.557 126.285ZM125.434 133V107.406H134.398C137.504 107.406 139.859 108.004 141.465 109.199C143.07 110.383 143.873 112.123 143.873 114.42C143.873 115.674 143.551 116.781 142.906 117.742C142.262 118.691 141.365 119.389 140.217 119.834C141.529 120.162 142.561 120.824 143.311 121.82C144.072 122.816 144.453 124.035 144.453 125.477C144.453 127.938 143.668 129.801 142.098 131.066C140.527 132.332 138.289 132.977 135.383 133H125.434ZM130.707 121.855V128.764H135.225C136.467 128.764 137.434 128.471 138.125 127.885C138.828 127.287 139.18 126.467 139.18 125.424C139.18 123.08 137.967 121.891 135.541 121.855H130.707ZM130.707 118.129H134.609C137.27 118.082 138.6 117.021 138.6 114.947C138.6 113.787 138.26 112.955 137.58 112.451C136.912 111.936 135.852 111.678 134.398 111.678H130.707V118.129ZM148.355 130.504C148.355 129.695 148.625 129.039 149.164 128.535C149.715 128.031 150.4 127.779 151.221 127.779C152.053 127.779 152.738 128.031 153.277 128.535C153.828 129.039 154.104 129.695 154.104 130.504C154.104 131.301 153.834 131.951 153.295 132.455C152.756 132.947 152.064 133.193 151.221 133.193C150.389 133.193 149.703 132.947 149.164 132.455C148.625 131.951 148.355 131.301 148.355 130.504Z" fill="black"/>
</svg>
