<svg width="411" height="84" viewBox="0 0 411 84" fill="none" xmlns="http://www.w3.org/2000/svg">
<path d="M411 0.573608L410.963 84L0.00246407 83.9303L0.0398192 0.503908L131.258 28.7351L215.88 0.540515L314.291 28.7661L411 0.573608Z" fill="#8AD4B5"/>
<path opacity="0.5" d="M26.2581 46.9944C26.2581 46.5794 26.1116 46.262 25.8186 46.0423C25.5256 45.8177 24.9983 45.5833 24.2366 45.3392C23.4749 45.0901 22.8718 44.846 22.4275 44.6068C21.2166 43.9525 20.6111 43.0711 20.6111 41.9627C20.6111 41.3865 20.7722 40.8738 21.0945 40.4246C21.4216 39.9705 21.8879 39.6165 22.4934 39.3626C23.1038 39.1087 23.7874 38.9818 24.5442 38.9818C25.3059 38.9818 25.9846 39.1209 26.5803 39.3992C27.176 39.6727 27.6375 40.0609 27.9646 40.5638C28.2966 41.0667 28.4626 41.638 28.4626 42.2776H26.2654C26.2654 41.7894 26.1116 41.4109 25.804 41.1424C25.4963 40.869 25.0642 40.7322 24.5076 40.7322C23.9705 40.7322 23.553 40.847 23.2551 41.0765C22.9573 41.3011 22.8083 41.5989 22.8083 41.97C22.8083 42.3167 22.9817 42.6072 23.3284 42.8416C23.6799 43.076 24.1951 43.2957 24.8738 43.5008C26.1238 43.8768 27.0344 44.3431 27.6057 44.8997C28.177 45.4564 28.4626 46.1497 28.4626 46.9798C28.4626 47.9026 28.1135 48.6277 27.4153 49.1551C26.717 49.6776 25.7771 49.9388 24.5955 49.9388C23.7751 49.9388 23.0281 49.7899 22.3542 49.492C21.6804 49.1893 21.1653 48.7767 20.8088 48.2542C20.4573 47.7318 20.2815 47.1263 20.2815 46.4378H22.4861C22.4861 47.6146 23.1892 48.2029 24.5955 48.2029C25.1179 48.2029 25.5256 48.098 25.8186 47.888C26.1116 47.6732 26.2581 47.3753 26.2581 46.9944ZM29.9568 49.7923V39.1282H33.6921C34.9861 39.1282 35.9675 39.3773 36.6365 39.8753C37.3054 40.3685 37.6399 41.0936 37.6399 42.0506C37.6399 42.5731 37.5056 43.0345 37.2371 43.4349C36.9685 43.8304 36.595 44.1209 36.1165 44.3065C36.6633 44.4432 37.093 44.7191 37.4055 45.1341C37.7229 45.5491 37.8816 46.0569 37.8816 46.6575C37.8816 47.6829 37.5544 48.4593 36.9001 48.9866C36.2458 49.514 35.3132 49.7825 34.1023 49.7923H29.9568ZM32.1541 45.1487V48.0272H34.0364C34.554 48.0272 34.9568 47.9051 35.2449 47.6609C35.5378 47.4119 35.6843 47.0701 35.6843 46.6356C35.6843 45.659 35.179 45.1634 34.1682 45.1487H32.1541ZM32.1541 43.596H33.78C34.8884 43.5765 35.4426 43.1346 35.4426 42.2703C35.4426 41.7869 35.301 41.4402 35.0178 41.2303C34.7395 41.0154 34.2976 40.908 33.6921 40.908H32.1541V43.596ZM39.5076 48.7523C39.5076 48.4153 39.6199 48.1419 39.8445 47.9319C40.074 47.722 40.3596 47.617 40.7014 47.617C41.0481 47.617 41.3337 47.722 41.5583 47.9319C41.7878 48.1419 41.9026 48.4153 41.9026 48.7523C41.9026 49.0843 41.7903 49.3553 41.5657 49.5652C41.3411 49.7703 41.053 49.8729 40.7014 49.8729C40.3547 49.8729 40.0691 49.7703 39.8445 49.5652C39.6199 49.3553 39.5076 49.0843 39.5076 48.7523Z" fill="black"/>
</svg>
