<svg width="78" height="84" viewBox="0 0 78 84" fill="none" xmlns="http://www.w3.org/2000/svg">
<g filter="url(#filter0_d)">
<rect x="4" width="70" height="76" rx="35" fill="#405C50"/>
</g>
<g clip-path="url(#clip0)">
<path d="M39.617 3.55942C32.2071 3.55942 32.6698 6.65276 32.6698 6.65276L32.6781 9.85743H39.7492V10.8196H29.8695C29.8695 10.8196 25.1278 10.302 25.1278 17.4993C25.1278 24.6967 29.2664 24.4415 29.2664 24.4415H31.7364V21.1016C31.7364 21.1016 31.6032 17.1176 35.8089 17.1176H42.8222C42.8222 17.1176 46.7625 17.1789 46.7625 13.4517V7.28892C46.7625 7.28892 47.3608 3.55942 39.617 3.55942ZM35.718 5.71442C36.4215 5.71442 36.9901 6.26179 36.9901 6.93903C36.9901 7.61627 36.4215 8.16364 35.718 8.16364C35.0145 8.16364 34.4459 7.61627 34.4459 6.93903C34.4459 6.26179 35.0145 5.71442 35.718 5.71442Z" fill="url(#paint0_linear)"/>
<path d="M39.8273 31.5113C47.2372 31.5113 46.7745 28.418 46.7745 28.418L46.7662 25.2133H39.6951V24.2511H49.5749C49.5749 24.2511 54.3165 24.7688 54.3165 17.5714C54.3165 10.374 50.1779 10.6293 50.1779 10.6293H47.708V13.9691C47.708 13.9691 47.8411 17.9531 43.6355 17.9531H36.6221C36.6221 17.9531 32.6818 17.8918 32.6818 21.619V27.7818C32.6818 27.7818 32.0836 31.5113 39.8273 31.5113ZM43.7263 29.3563C43.0228 29.3563 42.4542 28.8089 42.4542 28.1317C42.4542 27.4545 43.0228 26.9071 43.7263 26.9071C44.4298 26.9071 44.9985 27.4545 44.9985 28.1317C44.9985 28.8089 44.4298 29.3563 43.7263 29.3563Z" fill="url(#paint1_linear)"/>
</g>
<rect x="9.55556" y="35.514" width="59.2593" height="33.028" rx="16" fill="#8AD4B5"/>
<path d="M19.6391 43.0628V44.9632C19.6391 45.2653 19.5421 45.5048 19.3481 45.6819C19.1554 45.8577 18.8982 45.9456 18.5766 45.9456C18.2511 45.9456 17.9926 45.859 17.8012 45.6858C17.6098 45.5114 17.5141 45.2698 17.5141 44.9612V43.0628H18.0063V44.9651C18.0063 45.1552 18.0545 45.3004 18.1508 45.4007C18.2472 45.5009 18.3891 45.5511 18.5766 45.5511C18.9568 45.5511 19.1469 45.3506 19.1469 44.9495V43.0628H19.6391ZM20.5629 43.7933L20.5766 44.0374C20.7329 43.8486 20.9379 43.7542 21.1918 43.7542C21.6319 43.7542 21.8559 44.0061 21.8637 44.5101V45.9065H21.3891V44.5374C21.3891 44.4033 21.3598 44.3043 21.3012 44.2405C21.2439 44.1754 21.1495 44.1429 21.018 44.1429C20.8266 44.1429 20.684 44.2295 20.5903 44.4026V45.9065H20.1157V43.7933H20.5629ZM22.854 45.9065H22.3793V43.7933H22.854V45.9065ZM22.35 43.2444C22.35 43.1715 22.3728 43.111 22.4184 43.0628C22.4653 43.0146 22.5317 42.9905 22.6176 42.9905C22.7036 42.9905 22.77 43.0146 22.8168 43.0628C22.8637 43.111 22.8872 43.1715 22.8872 43.2444C22.8872 43.316 22.8637 43.3759 22.8168 43.4241C22.77 43.471 22.7036 43.4944 22.6176 43.4944C22.5317 43.4944 22.4653 43.471 22.4184 43.4241C22.3728 43.3759 22.35 43.316 22.35 43.2444ZM24.1176 45.305L24.5649 43.7933H25.0551L24.3227 45.9065H23.9106L23.1723 43.7933H23.6645L24.1176 45.305ZM26.2563 45.9456C25.9555 45.9456 25.7114 45.8512 25.5239 45.6624C25.3377 45.4723 25.2446 45.2197 25.2446 44.9046V44.846C25.2446 44.6351 25.2849 44.4469 25.3657 44.2815C25.4477 44.1149 25.5623 43.9853 25.7094 43.8929C25.8566 43.8004 26.0206 43.7542 26.2016 43.7542C26.4894 43.7542 26.7114 43.846 26.8676 44.0296C27.0252 44.2132 27.104 44.4729 27.104 44.8089V45.0003H25.7231C25.7374 45.1748 25.7954 45.3128 25.8969 45.4144C25.9998 45.5159 26.1287 45.5667 26.2836 45.5667C26.5011 45.5667 26.6782 45.4788 26.8149 45.303L27.0707 45.5472C26.9861 45.6735 26.8728 45.7718 26.7309 45.8421C26.5903 45.9111 26.4321 45.9456 26.2563 45.9456ZM26.1997 44.1351C26.0694 44.1351 25.964 44.1806 25.8832 44.2718C25.8038 44.3629 25.753 44.4899 25.7309 44.6526H26.6352V44.6175C26.6248 44.4586 26.5825 44.3388 26.5082 44.2581C26.434 44.1761 26.3312 44.1351 26.1997 44.1351ZM28.5805 44.2269C28.518 44.2164 28.4536 44.2112 28.3872 44.2112C28.1697 44.2112 28.0232 44.2946 27.9477 44.4612V45.9065H27.4731V43.7933H27.9262L27.9379 44.0296C28.0525 43.846 28.2114 43.7542 28.4145 43.7542C28.4822 43.7542 28.5382 43.7633 28.5825 43.7815L28.5805 44.2269ZM30.0649 45.3323C30.0649 45.2477 30.0297 45.1832 29.9594 45.139C29.8904 45.0947 29.7752 45.0556 29.6137 45.0218C29.4523 44.9879 29.3175 44.945 29.2094 44.8929C28.9724 44.7783 28.854 44.6123 28.854 44.3948C28.854 44.2125 28.9308 44.0602 29.0844 43.9378C29.2381 43.8154 29.4334 43.7542 29.6704 43.7542C29.923 43.7542 30.1267 43.8167 30.2817 43.9417C30.4379 44.0667 30.5161 44.2288 30.5161 44.428H30.0415C30.0415 44.3369 30.0076 44.2614 29.9399 44.2015C29.8722 44.1403 29.7823 44.1097 29.6704 44.1097C29.5662 44.1097 29.4809 44.1338 29.4145 44.1819C29.3494 44.2301 29.3168 44.2946 29.3168 44.3753C29.3168 44.4482 29.3474 44.5048 29.4086 44.5452C29.4698 44.5856 29.5935 44.6266 29.7797 44.6683C29.9659 44.7086 30.1118 44.7575 30.2172 44.8147C30.324 44.8707 30.4028 44.9384 30.4536 45.0179C30.5056 45.0973 30.5317 45.1936 30.5317 45.3069C30.5317 45.497 30.4529 45.6513 30.2954 45.7698C30.1378 45.887 29.9314 45.9456 29.6762 45.9456C29.503 45.9456 29.3487 45.9144 29.2133 45.8519C29.0779 45.7894 28.9724 45.7034 28.8969 45.594C28.8214 45.4847 28.7836 45.3668 28.7836 45.2405H29.2446C29.2511 45.3525 29.2934 45.4391 29.3715 45.5003C29.4497 45.5602 29.5532 45.5901 29.6821 45.5901C29.8071 45.5901 29.9021 45.5667 29.9672 45.5198C30.0323 45.4716 30.0649 45.4091 30.0649 45.3323ZM31.4516 45.9065H30.977V43.7933H31.4516V45.9065ZM30.9477 43.2444C30.9477 43.1715 30.9705 43.111 31.0161 43.0628C31.0629 43.0146 31.1293 42.9905 31.2153 42.9905C31.3012 42.9905 31.3676 43.0146 31.4145 43.0628C31.4614 43.111 31.4848 43.1715 31.4848 43.2444C31.4848 43.316 31.4614 43.3759 31.4145 43.4241C31.3676 43.471 31.3012 43.4944 31.2153 43.4944C31.1293 43.4944 31.0629 43.471 31.0161 43.4241C30.9705 43.3759 30.9477 43.316 30.9477 43.2444ZM32.5649 43.2796V43.7933H32.9379V44.1448H32.5649V45.3245C32.5649 45.4052 32.5805 45.4638 32.6118 45.5003C32.6443 45.5354 32.7016 45.553 32.7836 45.553C32.8383 45.553 32.8937 45.5465 32.9497 45.5335V45.9007C32.8416 45.9306 32.7374 45.9456 32.6372 45.9456C32.2726 45.9456 32.0903 45.7444 32.0903 45.3421V44.1448H31.7426V43.7933H32.0903V43.2796H32.5649ZM34.0415 45.2269L34.4711 43.7933H34.977L34.1372 46.2269C34.0082 46.5823 33.7895 46.7601 33.4809 46.7601C33.4119 46.7601 33.3357 46.7483 33.2524 46.7249V46.3577L33.3422 46.3636C33.462 46.3636 33.5519 46.3414 33.6118 46.2972C33.673 46.2542 33.7211 46.1813 33.7563 46.0784L33.8247 45.8968L33.0825 43.7933H33.5942L34.0415 45.2269ZM36.1586 44.8304C36.1586 44.6233 36.1997 44.4371 36.2817 44.2718C36.3637 44.1051 36.479 43.9775 36.6274 43.889C36.7758 43.7991 36.9464 43.7542 37.1391 43.7542C37.4243 43.7542 37.6554 43.846 37.8325 44.0296C38.0109 44.2132 38.1072 44.4567 38.1215 44.7601L38.1235 44.8714C38.1235 45.0797 38.0831 45.2659 38.0024 45.43C37.923 45.594 37.8084 45.721 37.6586 45.8108C37.5102 45.9007 37.3383 45.9456 37.143 45.9456C36.8448 45.9456 36.6059 45.8466 36.4262 45.6487C36.2478 45.4495 36.1586 45.1845 36.1586 44.8538V44.8304ZM36.6332 44.8714C36.6332 45.0888 36.6782 45.2594 36.768 45.3831C36.8579 45.5055 36.9829 45.5667 37.143 45.5667C37.3032 45.5667 37.4275 45.5042 37.5161 45.3792C37.6059 45.2542 37.6508 45.0713 37.6508 44.8304C37.6508 44.6168 37.6046 44.4476 37.5122 44.3226C37.421 44.1976 37.2967 44.1351 37.1391 44.1351C36.9842 44.1351 36.8611 44.1969 36.77 44.3206C36.6788 44.443 36.6332 44.6266 36.6332 44.8714ZM38.6918 45.9065V44.1448H38.3696V43.7933H38.6918V43.5999C38.6918 43.3655 38.7569 43.1845 38.8872 43.0569C39.0174 42.9293 39.1997 42.8655 39.434 42.8655C39.5174 42.8655 39.6059 42.8772 39.6997 42.9007L39.6879 43.2718C39.6359 43.2614 39.5753 43.2561 39.5063 43.2561C39.2797 43.2561 39.1665 43.3727 39.1665 43.6058V43.7933H39.5961V44.1448H39.1665V45.9065H38.6918ZM41.6254 43.0628L42.4457 45.2425L43.2641 43.0628H43.9028V45.9065H43.4106V44.969L43.4594 43.7151L42.6196 45.9065H42.2661L41.4282 43.7171L41.477 44.969V45.9065H40.9848V43.0628H41.6254ZM44.9477 45.9065H44.4731V43.7933H44.9477V45.9065ZM44.4438 43.2444C44.4438 43.1715 44.4666 43.111 44.5122 43.0628C44.559 43.0146 44.6254 42.9905 44.7114 42.9905C44.7973 42.9905 44.8637 43.0146 44.9106 43.0628C44.9575 43.111 44.9809 43.1715 44.9809 43.2444C44.9809 43.316 44.9575 43.3759 44.9106 43.4241C44.8637 43.471 44.7973 43.4944 44.7114 43.4944C44.6254 43.4944 44.559 43.471 44.5122 43.4241C44.4666 43.3759 44.4438 43.316 44.4438 43.2444ZM46.3344 45.5667C46.4529 45.5667 46.5512 45.5322 46.6293 45.4632C46.7075 45.3942 46.7491 45.3089 46.7543 45.2073H47.2016C47.1964 45.3388 47.1554 45.4619 47.0786 45.5765C47.0017 45.6897 46.8976 45.7796 46.7661 45.846C46.6345 45.9124 46.4926 45.9456 46.3403 45.9456C46.0447 45.9456 45.8103 45.8499 45.6372 45.6585C45.464 45.4671 45.3774 45.2028 45.3774 44.8655V44.8167C45.3774 44.4951 45.4633 44.2379 45.6352 44.0452C45.8071 43.8512 46.0415 43.7542 46.3383 43.7542C46.5896 43.7542 46.7941 43.8278 46.9516 43.9749C47.1105 44.1207 47.1938 44.3128 47.2016 44.5511H46.7543C46.7491 44.43 46.7075 44.3304 46.6293 44.2522C46.5525 44.1741 46.4542 44.1351 46.3344 44.1351C46.1808 44.1351 46.0623 44.191 45.979 44.303C45.8956 44.4137 45.8533 44.5823 45.852 44.8089V44.8851C45.852 45.1142 45.893 45.2854 45.975 45.3987C46.0584 45.5107 46.1782 45.5667 46.3344 45.5667ZM48.0278 44.0237C48.1827 43.844 48.3787 43.7542 48.6157 43.7542C49.0662 43.7542 49.2947 44.0114 49.3012 44.5257V45.9065H48.8266V44.5433C48.8266 44.3974 48.7947 44.2946 48.7309 44.2347C48.6684 44.1735 48.576 44.1429 48.4536 44.1429C48.2635 44.1429 48.1215 44.2275 48.0278 44.3968V45.9065H47.5532V42.9065H48.0278V44.0237ZM50.2875 45.9065H49.8129V43.7933H50.2875V45.9065ZM49.7836 43.2444C49.7836 43.1715 49.8064 43.111 49.852 43.0628C49.8989 43.0146 49.9653 42.9905 50.0512 42.9905C50.1372 42.9905 50.2036 43.0146 50.2504 43.0628C50.2973 43.111 50.3207 43.1715 50.3207 43.2444C50.3207 43.316 50.2973 43.3759 50.2504 43.4241C50.2036 43.471 50.1372 43.4944 50.0512 43.4944C49.9653 43.4944 49.8989 43.471 49.852 43.4241C49.8064 43.3759 49.7836 43.316 49.7836 43.2444ZM50.7231 44.8343C50.7231 44.5061 50.7999 44.2444 50.9536 44.0491C51.1085 43.8525 51.3136 43.7542 51.5688 43.7542C51.8097 43.7542 51.9991 43.8382 52.1372 44.0061L52.1586 43.7933H52.5864V45.8421C52.5864 46.1194 52.4998 46.3382 52.3266 46.4983C52.1547 46.6585 51.9223 46.7386 51.6293 46.7386C51.4744 46.7386 51.3227 46.706 51.1743 46.6409C51.0271 46.5771 50.9151 46.4931 50.8383 46.389L51.0629 46.1038C51.2088 46.277 51.3885 46.3636 51.602 46.3636C51.7595 46.3636 51.8839 46.3206 51.975 46.2347C52.0662 46.15 52.1118 46.025 52.1118 45.8597V45.7171C51.975 45.8694 51.7928 45.9456 51.5649 45.9456C51.3175 45.9456 51.115 45.8473 50.9575 45.6507C50.8012 45.4541 50.7231 45.1819 50.7231 44.8343ZM51.1957 44.8753C51.1957 45.0875 51.2387 45.2548 51.3247 45.3772C51.4119 45.4983 51.5323 45.5589 51.686 45.5589C51.8774 45.5589 52.0193 45.4769 52.1118 45.3128V44.3831C52.0219 44.2229 51.8813 44.1429 51.6899 44.1429C51.5336 44.1429 51.4119 44.2047 51.3247 44.3284C51.2387 44.4521 51.1957 44.6344 51.1957 44.8753ZM54.3383 45.9065C54.3175 45.8662 54.2993 45.8004 54.2836 45.7093C54.1326 45.8668 53.9477 45.9456 53.729 45.9456C53.5167 45.9456 53.3435 45.8851 53.2094 45.764C53.0753 45.6429 53.0082 45.4931 53.0082 45.3147C53.0082 45.0895 53.0916 44.917 53.2582 44.7972C53.4262 44.6761 53.6658 44.6155 53.977 44.6155H54.268V44.4769C54.268 44.3675 54.2374 44.2802 54.1762 44.2151C54.115 44.1487 54.0219 44.1155 53.8969 44.1155C53.7888 44.1155 53.7003 44.1429 53.6313 44.1976C53.5623 44.2509 53.5278 44.3193 53.5278 44.4026H53.0532C53.0532 44.2867 53.0916 44.1787 53.1684 44.0784C53.2452 43.9769 53.3494 43.8974 53.4809 43.8401C53.6137 43.7828 53.7615 43.7542 53.9243 43.7542C54.1717 43.7542 54.3689 43.8167 54.5161 43.9417C54.6632 44.0654 54.7387 44.2399 54.7426 44.4651V45.4183C54.7426 45.6084 54.7693 45.7601 54.8227 45.8733V45.9065H54.3383ZM53.8168 45.5647C53.9106 45.5647 53.9985 45.542 54.0805 45.4964C54.1638 45.4508 54.2263 45.3896 54.268 45.3128V44.9144H54.0122C53.8364 44.9144 53.7042 44.945 53.6157 45.0061C53.5271 45.0673 53.4829 45.1539 53.4829 45.2659C53.4829 45.3571 53.5128 45.43 53.5727 45.4847C53.6339 45.5381 53.7153 45.5647 53.8168 45.5647ZM55.6801 43.7933L55.6938 44.0374C55.85 43.8486 56.0551 43.7542 56.309 43.7542C56.7491 43.7542 56.9731 44.0061 56.9809 44.5101V45.9065H56.5063V44.5374C56.5063 44.4033 56.477 44.3043 56.4184 44.2405C56.3611 44.1754 56.2667 44.1429 56.1352 44.1429C55.9438 44.1429 55.8012 44.2295 55.7075 44.4026V45.9065H55.2329V43.7933H55.6801ZM57.7524 45.4065C57.8409 45.4065 57.9093 45.4319 57.9575 45.4827C58.0056 45.5322 58.0297 45.5947 58.0297 45.6702C58.0297 45.7444 58.0056 45.8063 57.9575 45.8558C57.9093 45.9039 57.8409 45.928 57.7524 45.928C57.6678 45.928 57.6007 45.9039 57.5512 45.8558C57.5017 45.8076 57.477 45.7457 57.477 45.6702C57.477 45.5947 57.5011 45.5322 57.5493 45.4827C57.5974 45.4319 57.6651 45.4065 57.7524 45.4065ZM57.7524 43.7483C57.8409 43.7483 57.9093 43.7737 57.9575 43.8245C58.0056 43.874 58.0297 43.9365 58.0297 44.012C58.0297 44.0862 58.0056 44.1481 57.9575 44.1976C57.9093 44.2457 57.8409 44.2698 57.7524 44.2698C57.6678 44.2698 57.6007 44.2457 57.5512 44.1976C57.5017 44.1494 57.477 44.0875 57.477 44.012C57.477 43.9365 57.5011 43.874 57.5493 43.8245C57.5974 43.7737 57.6651 43.7483 57.7524 43.7483ZM25.7954 49.8499V50.9065H25.3012V48.0628H26.3891C26.7068 48.0628 26.9588 48.1455 27.145 48.3108C27.3325 48.4762 27.4262 48.695 27.4262 48.9671C27.4262 49.2457 27.3344 49.4625 27.1508 49.6175C26.9685 49.7724 26.7127 49.8499 26.3832 49.8499H25.7954ZM25.7954 49.4534H26.3891C26.5649 49.4534 26.699 49.4124 26.7915 49.3304C26.8839 49.247 26.9301 49.1272 26.9301 48.971C26.9301 48.8173 26.8832 48.695 26.7895 48.6038C26.6957 48.5114 26.5668 48.4638 26.4028 48.4612H25.7954V49.4534ZM28.5844 50.2269L29.0141 48.7933H29.52L28.6801 51.2269C28.5512 51.5823 28.3325 51.7601 28.0239 51.7601C27.9549 51.7601 27.8787 51.7483 27.7954 51.7249V51.3577L27.8852 51.3636C28.005 51.3636 28.0948 51.3414 28.1547 51.2972C28.2159 51.2542 28.2641 51.1813 28.2993 51.0784L28.3676 50.8968L27.6254 48.7933H28.1372L28.5844 50.2269ZM30.3891 48.2796V48.7933H30.7622V49.1448H30.3891V50.3245C30.3891 50.4052 30.4047 50.4638 30.436 50.5003C30.4685 50.5354 30.5258 50.553 30.6079 50.553C30.6625 50.553 30.7179 50.5465 30.7739 50.5335V50.9007C30.6658 50.9306 30.5616 50.9456 30.4614 50.9456C30.0968 50.9456 29.9145 50.7444 29.9145 50.3421V49.1448H29.5668V48.7933H29.9145V48.2796H30.3891ZM31.5942 49.0237C31.7491 48.844 31.9451 48.7542 32.1821 48.7542C32.6326 48.7542 32.8611 49.0114 32.8676 49.5257V50.9065H32.393V49.5433C32.393 49.3974 32.3611 49.2946 32.2973 49.2347C32.2348 49.1735 32.1424 49.1429 32.02 49.1429C31.8299 49.1429 31.6879 49.2275 31.5942 49.3968V50.9065H31.1196V47.9065H31.5942V49.0237ZM33.2602 49.8304C33.2602 49.6233 33.3012 49.4371 33.3832 49.2718C33.4653 49.1051 33.5805 48.9775 33.729 48.889C33.8774 48.7991 34.048 48.7542 34.2407 48.7542C34.5258 48.7542 34.7569 48.846 34.934 49.0296C35.1124 49.2132 35.2088 49.4567 35.2231 49.7601L35.225 49.8714C35.225 50.0797 35.1847 50.2659 35.104 50.43C35.0245 50.594 34.9099 50.721 34.7602 50.8108C34.6118 50.9007 34.4399 50.9456 34.2446 50.9456C33.9464 50.9456 33.7075 50.8466 33.5278 50.6487C33.3494 50.4495 33.2602 50.1845 33.2602 49.8538V49.8304ZM33.7348 49.8714C33.7348 50.0888 33.7797 50.2594 33.8696 50.3831C33.9594 50.5055 34.0844 50.5667 34.2446 50.5667C34.4047 50.5667 34.5291 50.5042 34.6176 50.3792C34.7075 50.2542 34.7524 50.0713 34.7524 49.8304C34.7524 49.6168 34.7062 49.4476 34.6137 49.3226C34.5226 49.1976 34.3982 49.1351 34.2407 49.1351C34.0857 49.1351 33.9627 49.1969 33.8715 49.3206C33.7804 49.443 33.7348 49.6266 33.7348 49.8714ZM36.0668 48.7933L36.0805 49.0374C36.2368 48.8486 36.4418 48.7542 36.6957 48.7542C37.1359 48.7542 37.3598 49.0061 37.3676 49.5101V50.9065H36.893V49.5374C36.893 49.4033 36.8637 49.3043 36.8051 49.2405C36.7478 49.1754 36.6534 49.1429 36.5219 49.1429C36.3305 49.1429 36.1879 49.2295 36.0942 49.4026V50.9065H35.6196V48.7933H36.0668ZM38.895 50.9065V48.0628H39.8696C40.1912 48.0628 40.436 48.1272 40.604 48.2561C40.7719 48.3851 40.8559 48.5771 40.8559 48.8323C40.8559 48.9625 40.8207 49.0797 40.7504 49.1839C40.6801 49.2881 40.5773 49.3688 40.4418 49.4261C40.5955 49.4677 40.714 49.5465 40.7973 49.6624C40.8819 49.777 40.9243 49.915 40.9243 50.0765C40.9243 50.3434 40.8383 50.5485 40.6665 50.6917C40.4959 50.8349 40.2511 50.9065 39.9321 50.9065H38.895ZM39.3891 49.6233V50.512H39.9379C40.0929 50.512 40.214 50.4736 40.3012 50.3968C40.3885 50.32 40.4321 50.2132 40.4321 50.0765C40.4321 49.7809 40.281 49.6298 39.979 49.6233H39.3891ZM39.3891 49.2601H39.8735C40.0271 49.2601 40.1469 49.2256 40.2329 49.1565C40.3201 49.0862 40.3637 48.9873 40.3637 48.8597C40.3637 48.719 40.3234 48.6175 40.2426 48.555C40.1632 48.4925 40.0388 48.4612 39.8696 48.4612H39.3891V49.2601ZM42.6352 50.9065C42.6144 50.8662 42.5961 50.8004 42.5805 50.7093C42.4295 50.8668 42.2446 50.9456 42.0258 50.9456C41.8136 50.9456 41.6404 50.8851 41.5063 50.764C41.3722 50.6429 41.3051 50.4931 41.3051 50.3147C41.3051 50.0895 41.3885 49.917 41.5551 49.7972C41.7231 49.6761 41.9627 49.6155 42.2739 49.6155H42.5649V49.4769C42.5649 49.3675 42.5343 49.2802 42.4731 49.2151C42.4119 49.1487 42.3188 49.1155 42.1938 49.1155C42.0857 49.1155 41.9972 49.1429 41.9282 49.1976C41.8592 49.2509 41.8247 49.3193 41.8247 49.4026H41.35C41.35 49.2867 41.3885 49.1787 41.4653 49.0784C41.5421 48.9769 41.6463 48.8974 41.7778 48.8401C41.9106 48.7828 42.0584 48.7542 42.2211 48.7542C42.4685 48.7542 42.6658 48.8167 42.8129 48.9417C42.9601 49.0654 43.0356 49.2399 43.0395 49.4651V50.4183C43.0395 50.6084 43.0662 50.7601 43.1196 50.8733V50.9065H42.6352ZM42.1137 50.5647C42.2075 50.5647 42.2954 50.542 42.3774 50.4964C42.4607 50.4508 42.5232 50.3896 42.5649 50.3128V49.9144H42.309C42.1332 49.9144 42.0011 49.945 41.9125 50.0061C41.824 50.0673 41.7797 50.1539 41.7797 50.2659C41.7797 50.3571 41.8097 50.43 41.8696 50.4847C41.9308 50.5381 42.0122 50.5647 42.1137 50.5647ZM44.7211 50.3323C44.7211 50.2477 44.686 50.1832 44.6157 50.139C44.5467 50.0947 44.4314 50.0556 44.27 50.0218C44.1085 49.9879 43.9737 49.945 43.8657 49.8929C43.6287 49.7783 43.5102 49.6123 43.5102 49.3948C43.5102 49.2125 43.587 49.0602 43.7407 48.9378C43.8943 48.8154 44.0896 48.7542 44.3266 48.7542C44.5792 48.7542 44.783 48.8167 44.9379 48.9417C45.0942 49.0667 45.1723 49.2288 45.1723 49.428H44.6977C44.6977 49.3369 44.6638 49.2614 44.5961 49.2015C44.5284 49.1403 44.4386 49.1097 44.3266 49.1097C44.2224 49.1097 44.1372 49.1338 44.0707 49.1819C44.0056 49.2301 43.9731 49.2946 43.9731 49.3753C43.9731 49.4482 44.0037 49.5048 44.0649 49.5452C44.1261 49.5856 44.2498 49.6266 44.436 49.6683C44.6222 49.7086 44.768 49.7575 44.8735 49.8147C44.9803 49.8707 45.059 49.9384 45.1098 50.0179C45.1619 50.0973 45.1879 50.1936 45.1879 50.3069C45.1879 50.497 45.1092 50.6513 44.9516 50.7698C44.7941 50.887 44.5877 50.9456 44.3325 50.9456C44.1593 50.9456 44.005 50.9144 43.8696 50.8519C43.7342 50.7894 43.6287 50.7034 43.5532 50.594C43.4776 50.4847 43.4399 50.3668 43.4399 50.2405H43.9008C43.9073 50.3525 43.9497 50.4391 44.0278 50.5003C44.1059 50.5602 44.2094 50.5901 44.3383 50.5901C44.4633 50.5901 44.5584 50.5667 44.6235 50.5198C44.6886 50.4716 44.7211 50.4091 44.7211 50.3323ZM46.1079 50.9065H45.6332V48.7933H46.1079V50.9065ZM45.604 48.2444C45.604 48.1715 45.6267 48.111 45.6723 48.0628C45.7192 48.0146 45.7856 47.9905 45.8715 47.9905C45.9575 47.9905 46.0239 48.0146 46.0707 48.0628C46.1176 48.111 46.1411 48.1715 46.1411 48.2444C46.1411 48.316 46.1176 48.3759 46.0707 48.4241C46.0239 48.471 45.9575 48.4944 45.8715 48.4944C45.7856 48.4944 45.7192 48.471 45.6723 48.4241C45.6267 48.3759 45.604 48.316 45.604 48.2444ZM47.4946 50.5667C47.6131 50.5667 47.7114 50.5322 47.7895 50.4632C47.8676 50.3942 47.9093 50.3089 47.9145 50.2073H48.3618C48.3566 50.3388 48.3155 50.4619 48.2387 50.5765C48.1619 50.6897 48.0577 50.7796 47.9262 50.846C47.7947 50.9124 47.6528 50.9456 47.5004 50.9456C47.2049 50.9456 46.9705 50.8499 46.7973 50.6585C46.6241 50.4671 46.5375 50.2028 46.5375 49.8655V49.8167C46.5375 49.4951 46.6235 49.2379 46.7954 49.0452C46.9672 48.8512 47.2016 48.7542 47.4985 48.7542C47.7498 48.7542 47.9542 48.8278 48.1118 48.9749C48.2706 49.1207 48.354 49.3128 48.3618 49.5511H47.9145C47.9093 49.43 47.8676 49.3304 47.7895 49.2522C47.7127 49.1741 47.6144 49.1351 47.4946 49.1351C47.3409 49.1351 47.2224 49.191 47.1391 49.303C47.0558 49.4137 47.0135 49.5823 47.0122 49.8089V49.8851C47.0122 50.1142 47.0532 50.2854 47.1352 50.3987C47.2185 50.5107 47.3383 50.5667 47.4946 50.5667ZM49.9047 50.3323C49.9047 50.2477 49.8696 50.1832 49.7993 50.139C49.7303 50.0947 49.615 50.0556 49.4536 50.0218C49.2921 49.9879 49.1573 49.945 49.0493 49.8929C48.8123 49.7783 48.6938 49.6123 48.6938 49.3948C48.6938 49.2125 48.7706 49.0602 48.9243 48.9378C49.0779 48.8154 49.2732 48.7542 49.5102 48.7542C49.7628 48.7542 49.9666 48.8167 50.1215 48.9417C50.2778 49.0667 50.3559 49.2288 50.3559 49.428H49.8813C49.8813 49.3369 49.8474 49.2614 49.7797 49.2015C49.712 49.1403 49.6222 49.1097 49.5102 49.1097C49.406 49.1097 49.3207 49.1338 49.2543 49.1819C49.1892 49.2301 49.1567 49.2946 49.1567 49.3753C49.1567 49.4482 49.1873 49.5048 49.2485 49.5452C49.3097 49.5856 49.4334 49.6266 49.6196 49.6683C49.8058 49.7086 49.9516 49.7575 50.0571 49.8147C50.1638 49.8707 50.2426 49.9384 50.2934 50.0179C50.3455 50.0973 50.3715 50.1936 50.3715 50.3069C50.3715 50.497 50.2928 50.6513 50.1352 50.7698C49.9776 50.887 49.7713 50.9456 49.5161 50.9456C49.3429 50.9456 49.1886 50.9144 49.0532 50.8519C48.9178 50.7894 48.8123 50.7034 48.7368 50.594C48.6612 50.4847 48.6235 50.3668 48.6235 50.2405H49.0844C49.0909 50.3525 49.1332 50.4391 49.2114 50.5003C49.2895 50.5602 49.393 50.5901 49.5219 50.5901C49.6469 50.5901 49.742 50.5667 49.8071 50.5198C49.8722 50.4716 49.9047 50.4091 49.9047 50.3323Z" fill="#0B406C"/>
<path d="M28.6057 62.0858C28.5699 62.465 28.43 62.7612 28.1858 62.9744C27.9417 63.186 27.617 63.2918 27.2117 63.2918C26.9285 63.2918 26.6787 63.2251 26.4622 63.0916C26.2473 62.9565 26.0813 62.7653 25.9641 62.5179C25.8469 62.2705 25.7859 61.9832 25.781 61.6561V61.324C25.781 60.9888 25.8404 60.6934 25.9593 60.4378C26.0781 60.1823 26.2482 59.9853 26.4695 59.847C26.6925 59.7086 26.9496 59.6395 27.241 59.6395C27.6332 59.6395 27.949 59.7461 28.1883 59.9593C28.4275 60.1725 28.5667 60.4736 28.6057 60.8626H27.9905C27.9612 60.6071 27.8863 60.4232 27.7659 60.3109C27.6471 60.1969 27.4721 60.14 27.241 60.14C26.9724 60.14 26.7657 60.2384 26.6209 60.4354C26.4776 60.6307 26.4044 60.918 26.4011 61.2972V61.6121C26.4011 61.9962 26.4695 62.2892 26.6062 62.491C26.7446 62.6929 26.9464 62.7938 27.2117 62.7938C27.4542 62.7938 27.6365 62.7392 27.7586 62.6302C27.8806 62.5211 27.9579 62.3397 27.9905 62.0858H28.6057ZM29.7337 63.243H29.1404V59.493H29.7337V63.243ZM31.013 63.243H30.4197V60.6014H31.013V63.243ZM30.3831 59.9154C30.3831 59.8242 30.4116 59.7485 30.4685 59.6883C30.5271 59.6281 30.6101 59.598 30.7176 59.598C30.825 59.598 30.908 59.6281 30.9666 59.6883C31.0252 59.7485 31.0545 59.8242 31.0545 59.9154C31.0545 60.0049 31.0252 60.0797 30.9666 60.14C30.908 60.1986 30.825 60.2279 30.7176 60.2279C30.6101 60.2279 30.5271 60.1986 30.4685 60.14C30.4116 60.0797 30.3831 60.0049 30.3831 59.9154ZM32.7464 62.8182C32.8945 62.8182 33.0174 62.7751 33.115 62.6888C33.2127 62.6025 33.2648 62.4959 33.2713 62.369H33.8303C33.8238 62.5334 33.7726 62.6872 33.6765 62.8304C33.5805 62.972 33.4503 63.0843 33.2859 63.1673C33.1215 63.2503 32.9441 63.2918 32.7537 63.2918C32.3842 63.2918 32.0913 63.1722 31.8748 62.9329C31.6583 62.6937 31.5501 62.3633 31.5501 61.9417V61.8807C31.5501 61.4787 31.6575 61.1572 31.8723 60.9163C32.0872 60.6738 32.3801 60.5526 32.7512 60.5526C33.0654 60.5526 33.3209 60.6445 33.5178 60.8284C33.7164 61.0107 33.8206 61.2508 33.8303 61.5487H33.2713C33.2648 61.3973 33.2127 61.2728 33.115 61.1751C33.019 61.0775 32.8961 61.0286 32.7464 61.0286C32.5543 61.0286 32.4062 61.0986 32.302 61.2386C32.1979 61.3769 32.145 61.5877 32.1433 61.8709V61.9661C32.1433 62.2526 32.1946 62.4666 32.2971 62.6082C32.4013 62.7482 32.551 62.8182 32.7464 62.8182ZM35.1365 62.1102L34.8728 62.3812V63.243H34.2796V59.493H34.8728V61.6561L35.0584 61.4241L35.7884 60.6014H36.5012L35.5198 61.7025L36.6062 63.243H35.9202L35.1365 62.1102ZM38.7205 60.8895C38.9142 60.6649 39.1591 60.5526 39.4553 60.5526C40.0185 60.5526 40.3041 60.874 40.3123 61.5169V63.243H39.719V61.5389C39.719 61.3566 39.6791 61.228 39.5994 61.1531C39.5213 61.0767 39.4057 61.0384 39.2527 61.0384C39.0151 61.0384 38.8377 61.1442 38.7205 61.3558V63.243H38.1272V59.493H38.7205V60.8895ZM42.0774 63.2918C41.7014 63.2918 41.3963 63.1738 41.1619 62.9378C40.9291 62.7002 40.8128 62.3844 40.8128 61.9906V61.9173C40.8128 61.6536 40.8632 61.4184 40.9641 61.2117C41.0667 61.0034 41.2099 60.8415 41.3938 60.7259C41.5777 60.6103 41.7828 60.5526 42.0091 60.5526C42.3688 60.5526 42.6463 60.6673 42.8416 60.8968C43.0385 61.1263 43.137 61.451 43.137 61.8709V62.1102H41.4109C41.4288 62.3283 41.5012 62.5008 41.6282 62.6278C41.7568 62.7547 41.9179 62.8182 42.1116 62.8182C42.3834 62.8182 42.6048 62.7083 42.7757 62.4886L43.0955 62.7938C42.9897 62.9517 42.8481 63.0745 42.6707 63.1624C42.4949 63.2487 42.2971 63.2918 42.0774 63.2918ZM42.0066 61.0286C41.8439 61.0286 41.712 61.0856 41.6111 61.1995C41.5118 61.3135 41.4483 61.4722 41.4207 61.6756H42.551V61.6317C42.538 61.4331 42.4851 61.2834 42.3924 61.1824C42.2996 61.0799 42.171 61.0286 42.0066 61.0286ZM44.9827 61.1434C44.9046 61.1304 44.824 61.1239 44.741 61.1239C44.4692 61.1239 44.2861 61.228 44.1917 61.4364V63.243H43.5984V60.6014H44.1648L44.1795 60.8968C44.3227 60.6673 44.5213 60.5526 44.7752 60.5526C44.8598 60.5526 44.9298 60.564 44.9851 60.5867L44.9827 61.1434ZM46.4719 63.2918C46.096 63.2918 45.7908 63.1738 45.5564 62.9378C45.3237 62.7002 45.2073 62.3844 45.2073 61.9906V61.9173C45.2073 61.6536 45.2578 61.4184 45.3587 61.2117C45.4612 61.0034 45.6044 60.8415 45.7884 60.7259C45.9723 60.6103 46.1774 60.5526 46.4036 60.5526C46.7633 60.5526 47.0408 60.6673 47.2361 60.8968C47.433 61.1263 47.5315 61.451 47.5315 61.8709V62.1102H45.8054C45.8233 62.3283 45.8958 62.5008 46.0227 62.6278C46.1513 62.7547 46.3124 62.8182 46.5061 62.8182C46.7779 62.8182 46.9993 62.7083 47.1702 62.4886L47.49 62.7938C47.3842 62.9517 47.2426 63.0745 47.0652 63.1624C46.8894 63.2487 46.6917 63.2918 46.4719 63.2918ZM46.4011 61.0286C46.2384 61.0286 46.1065 61.0856 46.0056 61.1995C45.9064 61.3135 45.8429 61.4722 45.8152 61.6756H46.9456V61.6317C46.9326 61.4331 46.8797 61.2834 46.7869 61.1824C46.6941 61.0799 46.5655 61.0286 46.4011 61.0286Z" fill="#BFFBDE"/>
<defs>
<filter id="filter0_d" x="0" y="0" width="78" height="84" filterUnits="userSpaceOnUse" color-interpolation-filters="sRGB">
<feFlood flood-opacity="0" result="BackgroundImageFix"/>
<feColorMatrix in="SourceAlpha" type="matrix" values="0 0 0 0 0 0 0 0 0 0 0 0 0 0 0 0 0 0 127 0" result="hardAlpha"/>
<feOffset dy="4"/>
<feGaussianBlur stdDeviation="2"/>
<feColorMatrix type="matrix" values="0 0 0 0 0 0 0 0 0 0 0 0 0 0 0 0 0 0 0.25 0"/>
<feBlend mode="normal" in2="BackgroundImageFix" result="effect1_dropShadow"/>
<feBlend mode="normal" in="SourceGraphic" in2="effect1_dropShadow" result="shape"/>
</filter>
<linearGradient id="paint0_linear" x1="27.9329" y1="6.07362" x2="41.8527" y2="20.3893" gradientUnits="userSpaceOnUse">
<stop stop-color="#387EB8"/>
<stop offset="1" stop-color="#366994"/>
</linearGradient>
<linearGradient id="paint1_linear" x1="36.8113" y1="14.9257" x2="51.7859" y2="29.6311" gradientUnits="userSpaceOnUse">
<stop stop-color="#FFE052"/>
<stop offset="1" stop-color="#FFC331"/>
</linearGradient>
<clipPath id="clip0">
<rect width="29.2593" height="28.0561" fill="white" transform="translate(25.1111 3.5514)"/>
</clipPath>
</defs>
</svg>
