<svg width="197" height="222" viewBox="0 0 197 222" fill="none" xmlns="http://www.w3.org/2000/svg">
<g filter="url(#filter0_d)">
<rect x="4" width="189" height="214" rx="39" fill="#405C50"/>
</g>
<path d="M100.166 10.0227C80.1592 10.0227 81.4085 18.7329 81.4085 18.7329L81.4308 27.7566H100.523V30.4659H73.8475C73.8475 30.4659 61.0452 29.0083 61.0452 49.2746C61.0452 69.5408 72.2194 68.8221 72.2194 68.8221H78.8882V59.4178C78.8882 59.4178 78.5287 48.1998 89.884 48.1998H108.82C108.82 48.1998 119.459 48.3724 119.459 37.8774V20.5242C119.459 20.5242 121.074 10.0227 100.166 10.0227ZM89.6386 16.0907C91.5381 16.0907 93.0734 17.632 93.0734 19.539C93.0734 21.446 91.5381 22.9872 89.6386 22.9872C87.7391 22.9872 86.2038 21.446 86.2038 19.539C86.2038 17.632 87.7391 16.0907 89.6386 16.0907Z" fill="url(#paint0_linear)"/>
<path d="M100.734 88.7293C120.741 88.7293 119.491 80.0191 119.491 80.0191L119.469 70.9955H100.377V68.2861H127.052C127.052 68.2861 139.855 69.7437 139.855 49.4775C139.855 29.2112 128.68 29.9299 128.68 29.9299H122.012V39.3342C122.012 39.3342 122.371 50.5522 111.016 50.5522H92.0798C92.0798 50.5522 81.4409 50.3796 81.4409 60.8746V78.2278C81.4409 78.2278 79.8256 88.7293 100.734 88.7293ZM111.261 82.6613C109.362 82.6613 107.826 81.12 107.826 79.213C107.826 77.3061 109.362 75.7648 111.261 75.7648C113.161 75.7648 114.696 77.3061 114.696 79.213C114.696 81.12 113.161 82.6613 111.261 82.6613Z" fill="url(#paint1_linear)"/>
<rect x="19" y="100" width="160" height="93" rx="16" fill="#8AD4B5"/>
<path d="M33.5146 114.047V120.698C33.5146 121.756 33.1751 122.594 32.4961 123.214C31.8216 123.829 30.9215 124.137 29.7959 124.137C28.6566 124.137 27.752 123.834 27.082 123.228C26.4121 122.617 26.0771 121.771 26.0771 120.691V114.047H27.7998V120.705C27.7998 121.37 27.9684 121.879 28.3057 122.229C28.6429 122.58 29.1396 122.756 29.7959 122.756C31.1266 122.756 31.792 122.054 31.792 120.65V114.047H33.5146ZM36.748 116.604L36.7959 117.458C37.3428 116.797 38.0605 116.467 38.9492 116.467C40.4896 116.467 41.2734 117.349 41.3008 119.112V124H39.6396V119.208C39.6396 118.739 39.5371 118.392 39.332 118.169C39.1315 117.941 38.8011 117.827 38.3408 117.827C37.6709 117.827 37.1719 118.13 36.8438 118.736V124H35.1826V116.604H36.748ZM44.7666 124H43.1055V116.604H44.7666V124ZM43.0029 114.683C43.0029 114.427 43.0827 114.215 43.2422 114.047C43.4062 113.878 43.6387 113.794 43.9395 113.794C44.2402 113.794 44.4727 113.878 44.6367 114.047C44.8008 114.215 44.8828 114.427 44.8828 114.683C44.8828 114.933 44.8008 115.143 44.6367 115.312C44.4727 115.476 44.2402 115.558 43.9395 115.558C43.6387 115.558 43.4062 115.476 43.2422 115.312C43.0827 115.143 43.0029 114.933 43.0029 114.683ZM49.1895 121.895L50.7549 116.604H52.4707L49.9072 124H48.4648L45.8809 116.604H47.6035L49.1895 121.895ZM56.6748 124.137C55.6221 124.137 54.7676 123.806 54.1113 123.146C53.4596 122.48 53.1338 121.596 53.1338 120.493V120.288C53.1338 119.55 53.2751 118.891 53.5576 118.312C53.8447 117.729 54.2458 117.276 54.7607 116.952C55.2757 116.629 55.8499 116.467 56.4834 116.467C57.4906 116.467 58.2676 116.788 58.8145 117.431C59.3659 118.073 59.6416 118.982 59.6416 120.158V120.828H54.8086C54.8587 121.439 55.0615 121.922 55.417 122.277C55.777 122.633 56.2282 122.811 56.7705 122.811C57.5316 122.811 58.1514 122.503 58.6299 121.888L59.5254 122.742C59.2292 123.184 58.8327 123.528 58.3359 123.774C57.8438 124.016 57.29 124.137 56.6748 124.137ZM56.4766 117.8C56.0208 117.8 55.6517 117.959 55.3691 118.278C55.0911 118.597 54.9134 119.042 54.8359 119.611H58.001V119.488C57.9645 118.932 57.8164 118.513 57.5566 118.23C57.2969 117.943 56.9368 117.8 56.4766 117.8ZM64.8096 118.121C64.5908 118.085 64.3652 118.066 64.1328 118.066C63.3717 118.066 62.859 118.358 62.5947 118.941V124H60.9336V116.604H62.5195L62.5605 117.431C62.9616 116.788 63.5176 116.467 64.2285 116.467C64.4655 116.467 64.6615 116.499 64.8164 116.562L64.8096 118.121ZM70.0049 121.99C70.0049 121.694 69.8818 121.468 69.6357 121.313C69.3942 121.159 68.9909 121.022 68.4258 120.903C67.8607 120.785 67.389 120.634 67.0107 120.452C66.1813 120.051 65.7666 119.47 65.7666 118.709C65.7666 118.071 66.0355 117.538 66.5732 117.109C67.111 116.681 67.7946 116.467 68.624 116.467C69.5081 116.467 70.2214 116.686 70.7637 117.123C71.3105 117.561 71.584 118.128 71.584 118.825H69.9229C69.9229 118.506 69.8044 118.242 69.5674 118.032C69.3304 117.818 69.016 117.711 68.624 117.711C68.2594 117.711 67.9609 117.795 67.7285 117.964C67.5007 118.132 67.3867 118.358 67.3867 118.641C67.3867 118.896 67.4938 119.094 67.708 119.235C67.9222 119.377 68.3551 119.52 69.0068 119.666C69.6585 119.807 70.1689 119.978 70.5381 120.179C70.9118 120.375 71.1875 120.612 71.3652 120.89C71.5475 121.168 71.6387 121.505 71.6387 121.901C71.6387 122.567 71.363 123.107 70.8115 123.521C70.2601 123.932 69.5378 124.137 68.6445 124.137C68.0384 124.137 67.4984 124.027 67.0244 123.809C66.5505 123.59 66.1813 123.289 65.917 122.906C65.6527 122.523 65.5205 122.111 65.5205 121.669H67.1338C67.1566 122.061 67.3047 122.364 67.5781 122.578C67.8516 122.788 68.2139 122.893 68.665 122.893C69.1025 122.893 69.4352 122.811 69.6631 122.646C69.891 122.478 70.0049 122.259 70.0049 121.99ZM74.8584 124H73.1973V116.604H74.8584V124ZM73.0947 114.683C73.0947 114.427 73.1745 114.215 73.334 114.047C73.498 113.878 73.7305 113.794 74.0312 113.794C74.332 113.794 74.5645 113.878 74.7285 114.047C74.8926 114.215 74.9746 114.427 74.9746 114.683C74.9746 114.933 74.8926 115.143 74.7285 115.312C74.5645 115.476 74.332 115.558 74.0312 115.558C73.7305 115.558 73.498 115.476 73.334 115.312C73.1745 115.143 73.0947 114.933 73.0947 114.683ZM78.7549 114.806V116.604H80.0605V117.834H78.7549V121.963C78.7549 122.245 78.8096 122.451 78.9189 122.578C79.0329 122.701 79.2334 122.763 79.5205 122.763C79.7119 122.763 79.9056 122.74 80.1016 122.694V123.979C79.7233 124.084 79.3587 124.137 79.0078 124.137C77.7318 124.137 77.0938 123.433 77.0938 122.024V117.834H75.877V116.604H77.0938V114.806H78.7549ZM83.9229 121.621L85.4268 116.604H87.1973L84.2578 125.121C83.8066 126.365 83.041 126.987 81.9609 126.987C81.7194 126.987 81.4528 126.946 81.1611 126.864V125.579L81.4756 125.6C81.8949 125.6 82.2093 125.522 82.4189 125.367C82.6331 125.217 82.8018 124.962 82.9248 124.602L83.1641 123.966L80.5664 116.604H82.3574L83.9229 121.621ZM91.333 120.233C91.333 119.509 91.4766 118.857 91.7637 118.278C92.0508 117.695 92.4541 117.248 92.9736 116.938C93.4932 116.624 94.0902 116.467 94.7646 116.467C95.7627 116.467 96.5716 116.788 97.1914 117.431C97.8158 118.073 98.153 118.925 98.2031 119.987L98.21 120.377C98.21 121.106 98.0687 121.758 97.7861 122.332C97.5081 122.906 97.1071 123.351 96.583 123.665C96.0635 123.979 95.4619 124.137 94.7783 124.137C93.7347 124.137 92.8984 123.79 92.2695 123.098C91.6452 122.4 91.333 121.473 91.333 120.315V120.233ZM92.9941 120.377C92.9941 121.138 93.1514 121.735 93.4658 122.168C93.7803 122.596 94.2178 122.811 94.7783 122.811C95.3389 122.811 95.7741 122.592 96.084 122.154C96.3984 121.717 96.5557 121.076 96.5557 120.233C96.5557 119.486 96.3939 118.894 96.0703 118.456C95.7513 118.019 95.3161 117.8 94.7646 117.8C94.2223 117.8 93.7917 118.016 93.4727 118.449C93.1536 118.878 92.9941 119.52 92.9941 120.377ZM100.199 124V117.834H99.0713V116.604H100.199V115.927C100.199 115.106 100.427 114.473 100.883 114.026C101.339 113.58 101.977 113.356 102.797 113.356C103.089 113.356 103.398 113.397 103.727 113.479L103.686 114.778C103.503 114.742 103.291 114.724 103.05 114.724C102.257 114.724 101.86 115.132 101.86 115.947V116.604H103.364V117.834H101.86V124H100.199ZM110.467 114.047L113.338 121.676L116.202 114.047H118.438V124H116.715V120.719L116.886 116.33L113.946 124H112.709L109.776 116.337L109.947 120.719V124H108.225V114.047H110.467ZM122.095 124H120.434V116.604H122.095V124ZM120.331 114.683C120.331 114.427 120.411 114.215 120.57 114.047C120.734 113.878 120.967 113.794 121.268 113.794C121.568 113.794 121.801 113.878 121.965 114.047C122.129 114.215 122.211 114.427 122.211 114.683C122.211 114.933 122.129 115.143 121.965 115.312C121.801 115.476 121.568 115.558 121.268 115.558C120.967 115.558 120.734 115.476 120.57 115.312C120.411 115.143 120.331 114.933 120.331 114.683ZM126.948 122.811C127.363 122.811 127.707 122.69 127.98 122.448C128.254 122.207 128.4 121.908 128.418 121.553H129.983C129.965 122.013 129.822 122.444 129.553 122.845C129.284 123.241 128.919 123.556 128.459 123.788C127.999 124.021 127.502 124.137 126.969 124.137C125.934 124.137 125.114 123.802 124.508 123.132C123.902 122.462 123.599 121.537 123.599 120.356V120.186C123.599 119.06 123.899 118.16 124.501 117.485C125.103 116.806 125.923 116.467 126.962 116.467C127.841 116.467 128.557 116.724 129.108 117.239C129.664 117.75 129.956 118.422 129.983 119.256H128.418C128.4 118.832 128.254 118.483 127.98 118.21C127.712 117.937 127.368 117.8 126.948 117.8C126.41 117.8 125.996 117.996 125.704 118.388C125.412 118.775 125.264 119.365 125.26 120.158V120.425C125.26 121.227 125.403 121.826 125.69 122.223C125.982 122.615 126.401 122.811 126.948 122.811ZM132.875 117.41C133.417 116.781 134.103 116.467 134.933 116.467C136.509 116.467 137.309 117.367 137.332 119.167V124H135.671V119.229C135.671 118.718 135.559 118.358 135.336 118.148C135.117 117.934 134.794 117.827 134.365 117.827C133.7 117.827 133.203 118.123 132.875 118.716V124H131.214V113.5H132.875V117.41ZM140.784 124H139.123V116.604H140.784V124ZM139.021 114.683C139.021 114.427 139.1 114.215 139.26 114.047C139.424 113.878 139.656 113.794 139.957 113.794C140.258 113.794 140.49 113.878 140.654 114.047C140.818 114.215 140.9 114.427 140.9 114.683C140.9 114.933 140.818 115.143 140.654 115.312C140.49 115.476 140.258 115.558 139.957 115.558C139.656 115.558 139.424 115.476 139.26 115.312C139.1 115.143 139.021 114.933 139.021 114.683ZM142.309 120.247C142.309 119.099 142.577 118.183 143.115 117.499C143.658 116.811 144.375 116.467 145.269 116.467C146.112 116.467 146.775 116.761 147.258 117.349L147.333 116.604H148.83V123.774C148.83 124.745 148.527 125.511 147.921 126.071C147.319 126.632 146.506 126.912 145.48 126.912C144.938 126.912 144.407 126.798 143.888 126.57C143.373 126.347 142.981 126.053 142.712 125.688L143.498 124.69C144.008 125.297 144.637 125.6 145.385 125.6C145.936 125.6 146.371 125.449 146.69 125.148C147.009 124.852 147.169 124.415 147.169 123.836V123.337C146.69 123.87 146.052 124.137 145.255 124.137C144.389 124.137 143.68 123.793 143.129 123.104C142.582 122.416 142.309 121.464 142.309 120.247ZM143.963 120.391C143.963 121.133 144.113 121.719 144.414 122.147C144.719 122.571 145.141 122.783 145.679 122.783C146.349 122.783 146.845 122.496 147.169 121.922V118.668C146.854 118.107 146.362 117.827 145.692 117.827C145.146 117.827 144.719 118.044 144.414 118.477C144.113 118.91 143.963 119.548 143.963 120.391ZM154.962 124C154.889 123.859 154.825 123.629 154.771 123.31C154.242 123.861 153.595 124.137 152.829 124.137C152.086 124.137 151.48 123.925 151.011 123.501C150.541 123.077 150.307 122.553 150.307 121.929C150.307 121.14 150.598 120.536 151.182 120.117C151.77 119.693 152.608 119.481 153.697 119.481H154.716V118.996C154.716 118.613 154.609 118.308 154.395 118.08C154.18 117.848 153.854 117.731 153.417 117.731C153.039 117.731 152.729 117.827 152.487 118.019C152.246 118.205 152.125 118.445 152.125 118.736H150.464C150.464 118.331 150.598 117.952 150.867 117.602C151.136 117.246 151.501 116.968 151.961 116.768C152.426 116.567 152.943 116.467 153.513 116.467C154.379 116.467 155.069 116.686 155.584 117.123C156.099 117.556 156.363 118.167 156.377 118.955V122.291C156.377 122.956 156.47 123.487 156.657 123.884V124H154.962ZM153.137 122.804C153.465 122.804 153.772 122.724 154.06 122.564C154.351 122.405 154.57 122.191 154.716 121.922V120.527H153.82C153.205 120.527 152.743 120.634 152.433 120.849C152.123 121.063 151.968 121.366 151.968 121.758C151.968 122.077 152.073 122.332 152.282 122.523C152.496 122.71 152.781 122.804 153.137 122.804ZM159.658 116.604L159.706 117.458C160.253 116.797 160.971 116.467 161.859 116.467C163.4 116.467 164.184 117.349 164.211 119.112V124H162.55V119.208C162.55 118.739 162.447 118.392 162.242 118.169C162.042 117.941 161.711 117.827 161.251 117.827C160.581 117.827 160.082 118.13 159.754 118.736V124H158.093V116.604H159.658ZM166.911 122.25C167.221 122.25 167.46 122.339 167.629 122.517C167.798 122.69 167.882 122.909 167.882 123.173C167.882 123.433 167.798 123.649 167.629 123.822C167.46 123.991 167.221 124.075 166.911 124.075C166.615 124.075 166.38 123.991 166.207 123.822C166.034 123.654 165.947 123.437 165.947 123.173C165.947 122.909 166.032 122.69 166.2 122.517C166.369 122.339 166.606 122.25 166.911 122.25ZM166.911 116.446C167.221 116.446 167.46 116.535 167.629 116.713C167.798 116.886 167.882 117.105 167.882 117.369C167.882 117.629 167.798 117.845 167.629 118.019C167.46 118.187 167.221 118.271 166.911 118.271C166.615 118.271 166.38 118.187 166.207 118.019C166.034 117.85 165.947 117.633 165.947 117.369C165.947 117.105 166.032 116.886 166.2 116.713C166.369 116.535 166.606 116.446 166.911 116.446ZM30.999 136.302V140H29.2695V130.047H33.0771C34.1891 130.047 35.071 130.336 35.7227 130.915C36.3789 131.494 36.707 132.259 36.707 133.212C36.707 134.187 36.3857 134.946 35.7432 135.488C35.1051 136.031 34.2096 136.302 33.0566 136.302H30.999ZM30.999 134.914H33.0771C33.6924 134.914 34.1618 134.771 34.4854 134.483C34.8089 134.192 34.9707 133.772 34.9707 133.226C34.9707 132.688 34.8066 132.259 34.4785 131.94C34.1504 131.617 33.6992 131.451 33.125 131.441H30.999V134.914ZM40.7607 137.621L42.2646 132.604H44.0352L41.0957 141.121C40.6445 142.365 39.8789 142.987 38.7988 142.987C38.5573 142.987 38.2907 142.946 37.999 142.864V141.579L38.3135 141.6C38.7327 141.6 39.0472 141.522 39.2568 141.367C39.471 141.217 39.6396 140.962 39.7627 140.602L40.002 139.966L37.4043 132.604H39.1953L40.7607 137.621ZM47.0771 130.806V132.604H48.3828V133.834H47.0771V137.963C47.0771 138.245 47.1318 138.451 47.2412 138.578C47.3551 138.701 47.5557 138.763 47.8428 138.763C48.0342 138.763 48.2279 138.74 48.4238 138.694V139.979C48.0456 140.084 47.681 140.137 47.3301 140.137C46.054 140.137 45.416 139.433 45.416 138.024V133.834H44.1992V132.604H45.416V130.806H47.0771ZM51.2949 133.41C51.8372 132.781 52.5231 132.467 53.3525 132.467C54.9294 132.467 55.7292 133.367 55.752 135.167V140H54.0908V135.229C54.0908 134.718 53.9792 134.358 53.7559 134.148C53.5371 133.934 53.2135 133.827 52.7852 133.827C52.1198 133.827 51.623 134.123 51.2949 134.716V140H49.6338V129.5H51.2949V133.41ZM57.126 136.233C57.126 135.509 57.2695 134.857 57.5566 134.278C57.8438 133.695 58.2471 133.248 58.7666 132.938C59.2861 132.624 59.8831 132.467 60.5576 132.467C61.5557 132.467 62.3646 132.788 62.9844 133.431C63.6087 134.073 63.946 134.925 63.9961 135.987L64.0029 136.377C64.0029 137.106 63.8617 137.758 63.5791 138.332C63.3011 138.906 62.9001 139.351 62.376 139.665C61.8564 139.979 61.2549 140.137 60.5713 140.137C59.5277 140.137 58.6914 139.79 58.0625 139.098C57.4382 138.4 57.126 137.473 57.126 136.315V136.233ZM58.7871 136.377C58.7871 137.138 58.9443 137.735 59.2588 138.168C59.5732 138.596 60.0107 138.811 60.5713 138.811C61.1318 138.811 61.5671 138.592 61.877 138.154C62.1914 137.717 62.3486 137.076 62.3486 136.233C62.3486 135.486 62.1868 134.894 61.8633 134.456C61.5443 134.019 61.109 133.8 60.5576 133.8C60.0153 133.8 59.5846 134.016 59.2656 134.449C58.9466 134.878 58.7871 135.52 58.7871 136.377ZM66.9492 132.604L66.9971 133.458C67.5439 132.797 68.2617 132.467 69.1504 132.467C70.6908 132.467 71.4746 133.349 71.502 135.112V140H69.8408V135.208C69.8408 134.739 69.7383 134.392 69.5332 134.169C69.3327 133.941 69.0023 133.827 68.542 133.827C67.8721 133.827 67.373 134.13 67.0449 134.736V140H65.3838V132.604H66.9492ZM78.5771 136.302V140H76.8477V130.047H80.6553C81.7673 130.047 82.6491 130.336 83.3008 130.915C83.957 131.494 84.2852 132.259 84.2852 133.212C84.2852 134.187 83.9639 134.946 83.3213 135.488C82.6833 136.031 81.7878 136.302 80.6348 136.302H78.5771ZM78.5771 134.914H80.6553C81.2705 134.914 81.7399 134.771 82.0635 134.483C82.387 134.192 82.5488 133.772 82.5488 133.226C82.5488 132.688 82.3848 132.259 82.0566 131.94C81.7285 131.617 81.2773 131.451 80.7031 131.441H78.5771V134.914ZM89.5146 134.121C89.2959 134.085 89.0703 134.066 88.8379 134.066C88.0768 134.066 87.5641 134.358 87.2998 134.941V140H85.6387V132.604H87.2246L87.2656 133.431C87.6667 132.788 88.2227 132.467 88.9336 132.467C89.1706 132.467 89.3665 132.499 89.5215 132.562L89.5146 134.121ZM90.0068 136.233C90.0068 135.509 90.1504 134.857 90.4375 134.278C90.7246 133.695 91.1279 133.248 91.6475 132.938C92.167 132.624 92.764 132.467 93.4385 132.467C94.4365 132.467 95.2454 132.788 95.8652 133.431C96.4896 134.073 96.8268 134.925 96.877 135.987L96.8838 136.377C96.8838 137.106 96.7425 137.758 96.46 138.332C96.182 138.906 95.7809 139.351 95.2568 139.665C94.7373 139.979 94.1357 140.137 93.4521 140.137C92.4085 140.137 91.5723 139.79 90.9434 139.098C90.319 138.4 90.0068 137.473 90.0068 136.315V136.233ZM91.668 136.377C91.668 137.138 91.8252 137.735 92.1396 138.168C92.4541 138.596 92.8916 138.811 93.4521 138.811C94.0127 138.811 94.4479 138.592 94.7578 138.154C95.0723 137.717 95.2295 137.076 95.2295 136.233C95.2295 135.486 95.0677 134.894 94.7441 134.456C94.4251 134.019 93.9899 133.8 93.4385 133.8C92.8962 133.8 92.4655 134.016 92.1465 134.449C91.8275 134.878 91.668 135.52 91.668 136.377ZM100.021 132.604V140.656C100.021 141.413 99.8324 141.989 99.4541 142.386C99.0804 142.787 98.5312 142.987 97.8066 142.987C97.5013 142.987 97.2074 142.949 96.9248 142.871V141.559C97.098 141.6 97.2939 141.62 97.5127 141.62C98.0641 141.62 98.3467 141.319 98.3604 140.718V132.604H100.021ZM98.2168 130.683C98.2168 130.427 98.2965 130.215 98.4561 130.047C98.6201 129.878 98.8525 129.794 99.1533 129.794C99.4541 129.794 99.6865 129.878 99.8506 130.047C100.015 130.215 100.097 130.427 100.097 130.683C100.097 130.933 100.015 131.143 99.8506 131.312C99.6865 131.476 99.4541 131.558 99.1533 131.558C98.8525 131.558 98.6201 131.476 98.4561 131.312C98.2965 131.143 98.2168 130.933 98.2168 130.683ZM105.06 140.137C104.007 140.137 103.152 139.806 102.496 139.146C101.844 138.48 101.519 137.596 101.519 136.493V136.288C101.519 135.55 101.66 134.891 101.942 134.312C102.229 133.729 102.631 133.276 103.146 132.952C103.66 132.629 104.235 132.467 104.868 132.467C105.875 132.467 106.652 132.788 107.199 133.431C107.751 134.073 108.026 134.982 108.026 136.158V136.828H103.193C103.243 137.439 103.446 137.922 103.802 138.277C104.162 138.633 104.613 138.811 105.155 138.811C105.916 138.811 106.536 138.503 107.015 137.888L107.91 138.742C107.614 139.184 107.217 139.528 106.721 139.774C106.229 140.016 105.675 140.137 105.06 140.137ZM104.861 133.8C104.406 133.8 104.036 133.959 103.754 134.278C103.476 134.597 103.298 135.042 103.221 135.611H106.386V135.488C106.349 134.932 106.201 134.513 105.941 134.23C105.682 133.943 105.322 133.8 104.861 133.8ZM112.36 138.811C112.775 138.811 113.119 138.69 113.393 138.448C113.666 138.207 113.812 137.908 113.83 137.553H115.396C115.377 138.013 115.234 138.444 114.965 138.845C114.696 139.241 114.331 139.556 113.871 139.788C113.411 140.021 112.914 140.137 112.381 140.137C111.346 140.137 110.526 139.802 109.92 139.132C109.314 138.462 109.011 137.537 109.011 136.356V136.186C109.011 135.06 109.312 134.16 109.913 133.485C110.515 132.806 111.335 132.467 112.374 132.467C113.254 132.467 113.969 132.724 114.521 133.239C115.076 133.75 115.368 134.422 115.396 135.256H113.83C113.812 134.832 113.666 134.483 113.393 134.21C113.124 133.937 112.78 133.8 112.36 133.8C111.823 133.8 111.408 133.996 111.116 134.388C110.825 134.775 110.676 135.365 110.672 136.158V136.425C110.672 137.227 110.815 137.826 111.103 138.223C111.394 138.615 111.813 138.811 112.36 138.811ZM118.731 130.806V132.604H120.037V133.834H118.731V137.963C118.731 138.245 118.786 138.451 118.896 138.578C119.009 138.701 119.21 138.763 119.497 138.763C119.688 138.763 119.882 138.74 120.078 138.694V139.979C119.7 140.084 119.335 140.137 118.984 140.137C117.708 140.137 117.07 139.433 117.07 138.024V133.834H115.854V132.604H117.07V130.806H118.731ZM122.313 138.25C122.623 138.25 122.863 138.339 123.031 138.517C123.2 138.69 123.284 138.909 123.284 139.173C123.284 139.433 123.2 139.649 123.031 139.822C122.863 139.991 122.623 140.075 122.313 140.075C122.017 140.075 121.783 139.991 121.609 139.822C121.436 139.654 121.35 139.437 121.35 139.173C121.35 138.909 121.434 138.69 121.603 138.517C121.771 138.339 122.008 138.25 122.313 138.25ZM122.313 132.446C122.623 132.446 122.863 132.535 123.031 132.713C123.2 132.886 123.284 133.105 123.284 133.369C123.284 133.629 123.2 133.845 123.031 134.019C122.863 134.187 122.623 134.271 122.313 134.271C122.017 134.271 121.783 134.187 121.609 134.019C121.436 133.85 121.35 133.633 121.35 133.369C121.35 133.105 121.434 132.886 121.603 132.713C121.771 132.535 122.008 132.446 122.313 132.446ZM130.407 136.302V140H128.678V130.047H132.485C133.597 130.047 134.479 130.336 135.131 130.915C135.787 131.494 136.115 132.259 136.115 133.212C136.115 134.187 135.794 134.946 135.151 135.488C134.513 136.031 133.618 136.302 132.465 136.302H130.407ZM130.407 134.914H132.485C133.101 134.914 133.57 134.771 133.894 134.483C134.217 134.192 134.379 133.772 134.379 133.226C134.379 132.688 134.215 132.259 133.887 131.94C133.559 131.617 133.107 131.451 132.533 131.441H130.407V134.914ZM139.239 140H137.578V132.604H139.239V140ZM137.476 130.683C137.476 130.427 137.555 130.215 137.715 130.047C137.879 129.878 138.111 129.794 138.412 129.794C138.713 129.794 138.945 129.878 139.109 130.047C139.273 130.215 139.355 130.427 139.355 130.683C139.355 130.933 139.273 131.143 139.109 131.312C138.945 131.476 138.713 131.558 138.412 131.558C138.111 131.558 137.879 131.476 137.715 131.312C137.555 131.143 137.476 130.933 137.476 130.683ZM142.821 140H141.16V129.5H142.821V140ZM146.403 140H144.742V129.5H146.403V140ZM147.907 136.233C147.907 135.509 148.051 134.857 148.338 134.278C148.625 133.695 149.028 133.248 149.548 132.938C150.067 132.624 150.664 132.467 151.339 132.467C152.337 132.467 153.146 132.788 153.766 133.431C154.39 134.073 154.727 134.925 154.777 135.987L154.784 136.377C154.784 137.106 154.643 137.758 154.36 138.332C154.082 138.906 153.681 139.351 153.157 139.665C152.638 139.979 152.036 140.137 151.353 140.137C150.309 140.137 149.473 139.79 148.844 139.098C148.219 138.4 147.907 137.473 147.907 136.315V136.233ZM149.568 136.377C149.568 137.138 149.726 137.735 150.04 138.168C150.354 138.596 150.792 138.811 151.353 138.811C151.913 138.811 152.348 138.592 152.658 138.154C152.973 137.717 153.13 137.076 153.13 136.233C153.13 135.486 152.968 134.894 152.645 134.456C152.326 134.019 151.89 133.8 151.339 133.8C150.797 133.8 150.366 134.016 150.047 134.449C149.728 134.878 149.568 135.52 149.568 136.377ZM162.687 137.71L163.862 132.604H165.482L163.466 140H162.099L160.513 134.921L158.954 140H157.587L155.563 132.604H157.184L158.38 137.655L159.897 132.604H161.148L162.687 137.71ZM33.6787 147.441H30.5752V156H28.8594V147.441H25.7832V146.047H33.6787V147.441ZM37.4727 156.137C36.4199 156.137 35.5654 155.806 34.9092 155.146C34.2575 154.48 33.9316 153.596 33.9316 152.493V152.288C33.9316 151.55 34.0729 150.891 34.3555 150.312C34.6426 149.729 35.0436 149.276 35.5586 148.952C36.0736 148.629 36.6478 148.467 37.2812 148.467C38.2884 148.467 39.0654 148.788 39.6123 149.431C40.1637 150.073 40.4395 150.982 40.4395 152.158V152.828H35.6064C35.6566 153.439 35.8594 153.922 36.2148 154.277C36.5749 154.633 37.026 154.811 37.5684 154.811C38.3294 154.811 38.9492 154.503 39.4277 153.888L40.3232 154.742C40.027 155.184 39.6305 155.528 39.1338 155.774C38.6416 156.016 38.0879 156.137 37.4727 156.137ZM37.2744 149.8C36.8187 149.8 36.4495 149.959 36.167 150.278C35.889 150.597 35.7113 151.042 35.6338 151.611H38.7988V151.488C38.7624 150.932 38.6143 150.513 38.3545 150.23C38.0947 149.943 37.7347 149.8 37.2744 149.8ZM45.8809 153.99C45.8809 153.694 45.7578 153.468 45.5117 153.313C45.2702 153.159 44.8669 153.022 44.3018 152.903C43.7367 152.785 43.265 152.634 42.8867 152.452C42.0573 152.051 41.6426 151.47 41.6426 150.709C41.6426 150.071 41.9115 149.538 42.4492 149.109C42.987 148.681 43.6706 148.467 44.5 148.467C45.3841 148.467 46.0973 148.686 46.6396 149.123C47.1865 149.561 47.46 150.128 47.46 150.825H45.7988C45.7988 150.506 45.6803 150.242 45.4434 150.032C45.2064 149.818 44.8919 149.711 44.5 149.711C44.1354 149.711 43.8369 149.795 43.6045 149.964C43.3766 150.132 43.2627 150.358 43.2627 150.641C43.2627 150.896 43.3698 151.094 43.584 151.235C43.7982 151.377 44.2311 151.52 44.8828 151.666C45.5345 151.807 46.0449 151.978 46.4141 152.179C46.7878 152.375 47.0635 152.612 47.2412 152.89C47.4235 153.168 47.5146 153.505 47.5146 153.901C47.5146 154.567 47.2389 155.107 46.6875 155.521C46.1361 155.932 45.4137 156.137 44.5205 156.137C43.9144 156.137 43.3743 156.027 42.9004 155.809C42.4264 155.59 42.0573 155.289 41.793 154.906C41.5286 154.523 41.3965 154.111 41.3965 153.669H43.0098C43.0326 154.061 43.1807 154.364 43.4541 154.578C43.7275 154.788 44.0898 154.893 44.541 154.893C44.9785 154.893 45.3112 154.811 45.5391 154.646C45.7669 154.478 45.8809 154.259 45.8809 153.99ZM53.1133 153.99C53.1133 153.694 52.9902 153.468 52.7441 153.313C52.5026 153.159 52.0993 153.022 51.5342 152.903C50.9691 152.785 50.4974 152.634 50.1191 152.452C49.2897 152.051 48.875 151.47 48.875 150.709C48.875 150.071 49.1439 149.538 49.6816 149.109C50.2194 148.681 50.903 148.467 51.7324 148.467C52.6165 148.467 53.3298 148.686 53.8721 149.123C54.4189 149.561 54.6924 150.128 54.6924 150.825H53.0312C53.0312 150.506 52.9128 150.242 52.6758 150.032C52.4388 149.818 52.1243 149.711 51.7324 149.711C51.3678 149.711 51.0693 149.795 50.8369 149.964C50.609 150.132 50.4951 150.358 50.4951 150.641C50.4951 150.896 50.6022 151.094 50.8164 151.235C51.0306 151.377 51.4635 151.52 52.1152 151.666C52.7669 151.807 53.2773 151.978 53.6465 152.179C54.0202 152.375 54.2959 152.612 54.4736 152.89C54.6559 153.168 54.7471 153.505 54.7471 153.901C54.7471 154.567 54.4714 155.107 53.9199 155.521C53.3685 155.932 52.6462 156.137 51.7529 156.137C51.1468 156.137 50.6068 156.027 50.1328 155.809C49.6589 155.59 49.2897 155.289 49.0254 154.906C48.7611 154.523 48.6289 154.111 48.6289 153.669H50.2422C50.265 154.061 50.4131 154.364 50.6865 154.578C50.96 154.788 51.3223 154.893 51.7734 154.893C52.2109 154.893 52.5436 154.811 52.7715 154.646C52.9993 154.478 53.1133 154.259 53.1133 153.99ZM60.6191 156C60.5462 155.859 60.4824 155.629 60.4277 155.31C59.8991 155.861 59.252 156.137 58.4863 156.137C57.7435 156.137 57.1374 155.925 56.668 155.501C56.1986 155.077 55.9639 154.553 55.9639 153.929C55.9639 153.14 56.2555 152.536 56.8389 152.117C57.4268 151.693 58.2653 151.481 59.3545 151.481H60.373V150.996C60.373 150.613 60.266 150.308 60.0518 150.08C59.8376 149.848 59.5117 149.731 59.0742 149.731C58.696 149.731 58.3861 149.827 58.1445 150.019C57.903 150.205 57.7822 150.445 57.7822 150.736H56.1211C56.1211 150.331 56.2555 149.952 56.5244 149.602C56.7933 149.246 57.1579 148.968 57.6182 148.768C58.083 148.567 58.6003 148.467 59.1699 148.467C60.0358 148.467 60.7262 148.686 61.2412 149.123C61.7562 149.556 62.0205 150.167 62.0342 150.955V154.291C62.0342 154.956 62.1276 155.487 62.3145 155.884V156H60.6191ZM58.7939 154.804C59.1221 154.804 59.4297 154.724 59.7168 154.564C60.0085 154.405 60.2272 154.191 60.373 153.922V152.527H59.4775C58.8623 152.527 58.3997 152.634 58.0898 152.849C57.7799 153.063 57.625 153.366 57.625 153.758C57.625 154.077 57.7298 154.332 57.9395 154.523C58.1536 154.71 58.4385 154.804 58.7939 154.804ZM67.6465 150.121C67.4277 150.085 67.2021 150.066 66.9697 150.066C66.2087 150.066 65.696 150.358 65.4316 150.941V156H63.7705V148.604H65.3564L65.3975 149.431C65.7985 148.788 66.3545 148.467 67.0654 148.467C67.3024 148.467 67.4984 148.499 67.6533 148.562L67.6465 150.121ZM72.9102 156C72.8372 155.859 72.7734 155.629 72.7188 155.31C72.1901 155.861 71.543 156.137 70.7773 156.137C70.0345 156.137 69.4284 155.925 68.959 155.501C68.4896 155.077 68.2549 154.553 68.2549 153.929C68.2549 153.14 68.5465 152.536 69.1299 152.117C69.7178 151.693 70.5563 151.481 71.6455 151.481H72.6641V150.996C72.6641 150.613 72.557 150.308 72.3428 150.08C72.1286 149.848 71.8027 149.731 71.3652 149.731C70.987 149.731 70.6771 149.827 70.4355 150.019C70.194 150.205 70.0732 150.445 70.0732 150.736H68.4121C68.4121 150.331 68.5465 149.952 68.8154 149.602C69.0843 149.246 69.4489 148.968 69.9092 148.768C70.374 148.567 70.8913 148.467 71.4609 148.467C72.3268 148.467 73.0173 148.686 73.5322 149.123C74.0472 149.556 74.3115 150.167 74.3252 150.955V154.291C74.3252 154.956 74.4186 155.487 74.6055 155.884V156H72.9102ZM71.085 154.804C71.4131 154.804 71.7207 154.724 72.0078 154.564C72.2995 154.405 72.5182 154.191 72.6641 153.922V152.527H71.7686C71.1533 152.527 70.6908 152.634 70.3809 152.849C70.071 153.063 69.916 153.366 69.916 153.758C69.916 154.077 70.0208 154.332 70.2305 154.523C70.4447 154.71 70.7295 154.804 71.085 154.804ZM79.1035 154.811C79.5182 154.811 79.8623 154.69 80.1357 154.448C80.4092 154.207 80.555 153.908 80.5732 153.553H82.1387C82.1204 154.013 81.9769 154.444 81.708 154.845C81.4391 155.241 81.0745 155.556 80.6143 155.788C80.154 156.021 79.6572 156.137 79.124 156.137C78.0895 156.137 77.2692 155.802 76.6631 155.132C76.057 154.462 75.7539 153.537 75.7539 152.356V152.186C75.7539 151.06 76.0547 150.16 76.6562 149.485C77.2578 148.806 78.0781 148.467 79.1172 148.467C79.9967 148.467 80.7122 148.724 81.2637 149.239C81.8197 149.75 82.1113 150.422 82.1387 151.256H80.5732C80.555 150.832 80.4092 150.483 80.1357 150.21C79.8669 149.937 79.5228 149.8 79.1035 149.8C78.5658 149.8 78.151 149.996 77.8594 150.388C77.5677 150.775 77.4196 151.365 77.415 152.158V152.425C77.415 153.227 77.5586 153.826 77.8457 154.223C78.1374 154.615 78.5566 154.811 79.1035 154.811ZM85.4746 146.806V148.604H86.7803V149.834H85.4746V153.963C85.4746 154.245 85.5293 154.451 85.6387 154.578C85.7526 154.701 85.9531 154.763 86.2402 154.763C86.4316 154.763 86.6253 154.74 86.8213 154.694V155.979C86.443 156.084 86.0785 156.137 85.7275 156.137C84.4515 156.137 83.8135 155.433 83.8135 154.024V149.834H82.5967V148.604H83.8135V146.806H85.4746ZM95.9609 156C95.888 155.859 95.8242 155.629 95.7695 155.31C95.2409 155.861 94.5938 156.137 93.8281 156.137C93.0853 156.137 92.4792 155.925 92.0098 155.501C91.5404 155.077 91.3057 154.553 91.3057 153.929C91.3057 153.14 91.5973 152.536 92.1807 152.117C92.7686 151.693 93.6071 151.481 94.6963 151.481H95.7148V150.996C95.7148 150.613 95.6077 150.308 95.3936 150.08C95.1794 149.848 94.8535 149.731 94.416 149.731C94.0378 149.731 93.7279 149.827 93.4863 150.019C93.2448 150.205 93.124 150.445 93.124 150.736H91.4629C91.4629 150.331 91.5973 149.952 91.8662 149.602C92.1351 149.246 92.4997 148.968 92.96 148.768C93.4248 148.567 93.9421 148.467 94.5117 148.467C95.3776 148.467 96.068 148.686 96.583 149.123C97.098 149.556 97.3623 150.167 97.376 150.955V154.291C97.376 154.956 97.4694 155.487 97.6562 155.884V156H95.9609ZM94.1357 154.804C94.4639 154.804 94.7715 154.724 95.0586 154.564C95.3503 154.405 95.569 154.191 95.7148 153.922V152.527H94.8193C94.2041 152.527 93.7415 152.634 93.4316 152.849C93.1217 153.063 92.9668 153.366 92.9668 153.758C92.9668 154.077 93.0716 154.332 93.2812 154.523C93.4954 154.71 93.7803 154.804 94.1357 154.804ZM100.657 148.604L100.705 149.458C101.252 148.797 101.97 148.467 102.858 148.467C104.399 148.467 105.183 149.349 105.21 151.112V156H103.549V151.208C103.549 150.739 103.446 150.392 103.241 150.169C103.041 149.941 102.71 149.827 102.25 149.827C101.58 149.827 101.081 150.13 100.753 150.736V156H99.0918V148.604H100.657ZM106.598 152.247C106.598 151.108 106.862 150.194 107.391 149.506C107.919 148.813 108.628 148.467 109.517 148.467C110.3 148.467 110.934 148.74 111.417 149.287V145.5H113.078V156H111.574L111.492 155.234C110.995 155.836 110.332 156.137 109.503 156.137C108.637 156.137 107.935 155.788 107.397 155.091C106.864 154.394 106.598 153.446 106.598 152.247ZM108.259 152.391C108.259 153.143 108.402 153.73 108.689 154.154C108.981 154.574 109.394 154.783 109.927 154.783C110.606 154.783 111.103 154.48 111.417 153.874V150.716C111.112 150.123 110.619 149.827 109.94 149.827C109.403 149.827 108.988 150.041 108.696 150.47C108.405 150.894 108.259 151.534 108.259 152.391ZM126.401 151.283C126.401 152.258 126.233 153.115 125.896 153.854C125.558 154.587 125.075 155.152 124.446 155.549C123.822 155.941 123.102 156.137 122.286 156.137C121.479 156.137 120.759 155.941 120.126 155.549C119.497 155.152 119.009 154.59 118.663 153.86C118.321 153.131 118.148 152.29 118.144 151.338V150.777C118.144 149.807 118.314 148.95 118.656 148.207C119.003 147.464 119.488 146.897 120.112 146.505C120.741 146.108 121.461 145.91 122.272 145.91C123.084 145.91 123.801 146.106 124.426 146.498C125.055 146.885 125.54 147.446 125.882 148.18C126.224 148.909 126.397 149.759 126.401 150.729V151.283ZM124.672 150.764C124.672 149.661 124.462 148.815 124.043 148.228C123.628 147.64 123.038 147.346 122.272 147.346C121.525 147.346 120.939 147.64 120.516 148.228C120.096 148.811 119.882 149.638 119.873 150.709V151.283C119.873 152.377 120.085 153.222 120.509 153.819C120.937 154.416 121.53 154.715 122.286 154.715C123.052 154.715 123.64 154.423 124.05 153.84C124.465 153.257 124.672 152.404 124.672 151.283V150.764ZM134.44 152.377C134.44 153.521 134.181 154.435 133.661 155.118C133.142 155.797 132.444 156.137 131.569 156.137C130.758 156.137 130.109 155.87 129.621 155.337V158.844H127.96V148.604H129.491L129.56 149.355C130.047 148.763 130.71 148.467 131.549 148.467C132.451 148.467 133.158 148.804 133.668 149.479C134.183 150.148 134.44 151.08 134.44 152.274V152.377ZM132.786 152.233C132.786 151.495 132.638 150.91 132.342 150.477C132.05 150.044 131.631 149.827 131.084 149.827C130.405 149.827 129.917 150.107 129.621 150.668V153.949C129.922 154.523 130.414 154.811 131.098 154.811C131.626 154.811 132.039 154.599 132.335 154.175C132.636 153.746 132.786 153.099 132.786 152.233ZM139.109 156.137C138.057 156.137 137.202 155.806 136.546 155.146C135.894 154.48 135.568 153.596 135.568 152.493V152.288C135.568 151.55 135.71 150.891 135.992 150.312C136.279 149.729 136.68 149.276 137.195 148.952C137.71 148.629 138.285 148.467 138.918 148.467C139.925 148.467 140.702 148.788 141.249 149.431C141.8 150.073 142.076 150.982 142.076 152.158V152.828H137.243C137.293 153.439 137.496 153.922 137.852 154.277C138.212 154.633 138.663 154.811 139.205 154.811C139.966 154.811 140.586 154.503 141.064 153.888L141.96 154.742C141.664 155.184 141.267 155.528 140.771 155.774C140.278 156.016 139.725 156.137 139.109 156.137ZM138.911 149.8C138.455 149.8 138.086 149.959 137.804 150.278C137.526 150.597 137.348 151.042 137.271 151.611H140.436V151.488C140.399 150.932 140.251 150.513 139.991 150.23C139.731 149.943 139.371 149.8 138.911 149.8ZM144.913 148.604L144.961 149.458C145.508 148.797 146.226 148.467 147.114 148.467C148.655 148.467 149.438 149.349 149.466 151.112V156H147.805V151.208C147.805 150.739 147.702 150.392 147.497 150.169C147.297 149.941 146.966 149.827 146.506 149.827C145.836 149.827 145.337 150.13 145.009 150.736V156H143.348V148.604H144.913ZM158.92 152.76C158.82 153.822 158.428 154.651 157.744 155.248C157.061 155.84 156.151 156.137 155.017 156.137C154.224 156.137 153.524 155.95 152.918 155.576C152.316 155.198 151.852 154.662 151.523 153.97C151.195 153.277 151.024 152.473 151.011 151.557V150.627C151.011 149.688 151.177 148.861 151.51 148.146C151.842 147.43 152.319 146.879 152.938 146.491C153.563 146.104 154.283 145.91 155.099 145.91C156.197 145.91 157.081 146.209 157.751 146.806C158.421 147.403 158.811 148.246 158.92 149.335H157.197C157.115 148.619 156.906 148.104 156.568 147.79C156.236 147.471 155.746 147.312 155.099 147.312C154.347 147.312 153.768 147.587 153.362 148.139C152.961 148.686 152.756 149.49 152.747 150.552V151.434C152.747 152.509 152.938 153.329 153.321 153.895C153.709 154.46 154.274 154.742 155.017 154.742C155.696 154.742 156.206 154.59 156.548 154.284C156.89 153.979 157.106 153.471 157.197 152.76H158.92ZM163.979 153.833L166.508 146.047H168.408L164.826 156H163.151L159.583 146.047H161.477L163.979 153.833Z" fill="#0B406C"/>
<path d="M70.085 173.76C69.9847 174.822 69.5928 175.651 68.9092 176.248C68.2256 176.84 67.3164 177.137 66.1816 177.137C65.3887 177.137 64.6891 176.95 64.083 176.576C63.4814 176.198 63.0166 175.662 62.6885 174.97C62.3604 174.277 62.1895 173.473 62.1758 172.557V171.627C62.1758 170.688 62.3421 169.861 62.6748 169.146C63.0075 168.43 63.4837 167.879 64.1035 167.491C64.7279 167.104 65.4479 166.91 66.2637 166.91C67.362 166.91 68.2461 167.209 68.916 167.806C69.5859 168.403 69.9756 169.246 70.085 170.335H68.3623C68.2803 169.619 68.0706 169.104 67.7334 168.79C67.4007 168.471 66.9108 168.312 66.2637 168.312C65.5117 168.312 64.9329 168.587 64.5273 169.139C64.1263 169.686 63.9212 170.49 63.9121 171.552V172.434C63.9121 173.509 64.1035 174.329 64.4863 174.895C64.8737 175.46 65.4388 175.742 66.1816 175.742C66.8607 175.742 67.3711 175.59 67.7129 175.284C68.0547 174.979 68.2712 174.471 68.3623 173.76H70.085ZM73.2432 177H71.582V166.5H73.2432V177ZM76.8252 177H75.1641V169.604H76.8252V177ZM75.0615 167.683C75.0615 167.427 75.1413 167.215 75.3008 167.047C75.4648 166.878 75.6973 166.794 75.998 166.794C76.2988 166.794 76.5312 166.878 76.6953 167.047C76.8594 167.215 76.9414 167.427 76.9414 167.683C76.9414 167.933 76.8594 168.143 76.6953 168.312C76.5312 168.476 76.2988 168.558 75.998 168.558C75.6973 168.558 75.4648 168.476 75.3008 168.312C75.1413 168.143 75.0615 167.933 75.0615 167.683ZM81.6787 175.811C82.0934 175.811 82.4375 175.69 82.7109 175.448C82.9844 175.207 83.1302 174.908 83.1484 174.553H84.7139C84.6956 175.013 84.5521 175.444 84.2832 175.845C84.0143 176.241 83.6497 176.556 83.1895 176.788C82.7292 177.021 82.2324 177.137 81.6992 177.137C80.6647 177.137 79.8444 176.802 79.2383 176.132C78.6322 175.462 78.3291 174.537 78.3291 173.356V173.186C78.3291 172.06 78.6299 171.16 79.2314 170.485C79.833 169.806 80.6533 169.467 81.6924 169.467C82.5719 169.467 83.2874 169.724 83.8389 170.239C84.3949 170.75 84.6865 171.422 84.7139 172.256H83.1484C83.1302 171.832 82.9844 171.483 82.7109 171.21C82.4421 170.937 82.098 170.8 81.6787 170.8C81.141 170.8 80.7262 170.996 80.4346 171.388C80.1429 171.775 79.9948 172.365 79.9902 173.158V173.425C79.9902 174.227 80.1338 174.826 80.4209 175.223C80.7126 175.615 81.1318 175.811 81.6787 175.811ZM88.3711 173.828L87.6328 174.587V177H85.9717V166.5H87.6328V172.557L88.1523 171.907L90.1963 169.604H92.1924L89.4443 172.687L92.4863 177H90.5654L88.3711 173.828ZM98.4062 170.41C98.9486 169.781 99.6344 169.467 100.464 169.467C102.041 169.467 102.84 170.367 102.863 172.167V177H101.202V172.229C101.202 171.718 101.09 171.358 100.867 171.148C100.648 170.934 100.325 170.827 99.8965 170.827C99.2311 170.827 98.7344 171.123 98.4062 171.716V177H96.7451V166.5H98.4062V170.41ZM107.806 177.137C106.753 177.137 105.898 176.806 105.242 176.146C104.59 175.48 104.265 174.596 104.265 173.493V173.288C104.265 172.55 104.406 171.891 104.688 171.312C104.976 170.729 105.377 170.276 105.892 169.952C106.407 169.629 106.981 169.467 107.614 169.467C108.621 169.467 109.398 169.788 109.945 170.431C110.497 171.073 110.772 171.982 110.772 173.158V173.828H105.939C105.99 174.439 106.192 174.922 106.548 175.277C106.908 175.633 107.359 175.811 107.901 175.811C108.662 175.811 109.282 175.503 109.761 174.888L110.656 175.742C110.36 176.184 109.964 176.528 109.467 176.774C108.975 177.016 108.421 177.137 107.806 177.137ZM107.607 170.8C107.152 170.8 106.783 170.959 106.5 171.278C106.222 171.597 106.044 172.042 105.967 172.611H109.132V172.488C109.095 171.932 108.947 171.513 108.688 171.23C108.428 170.943 108.068 170.8 107.607 170.8ZM115.94 171.121C115.722 171.085 115.496 171.066 115.264 171.066C114.503 171.066 113.99 171.358 113.726 171.941V177H112.064V169.604H113.65L113.691 170.431C114.092 169.788 114.648 169.467 115.359 169.467C115.596 169.467 115.792 169.499 115.947 169.562L115.94 171.121ZM120.11 177.137C119.058 177.137 118.203 176.806 117.547 176.146C116.895 175.48 116.569 174.596 116.569 173.493V173.288C116.569 172.55 116.711 171.891 116.993 171.312C117.28 170.729 117.681 170.276 118.196 169.952C118.711 169.629 119.285 169.467 119.919 169.467C120.926 169.467 121.703 169.788 122.25 170.431C122.801 171.073 123.077 171.982 123.077 173.158V173.828H118.244C118.294 174.439 118.497 174.922 118.853 175.277C119.213 175.633 119.664 175.811 120.206 175.811C120.967 175.811 121.587 175.503 122.065 174.888L122.961 175.742C122.665 176.184 122.268 176.528 121.771 176.774C121.279 177.016 120.726 177.137 120.11 177.137ZM119.912 170.8C119.456 170.8 119.087 170.959 118.805 171.278C118.527 171.597 118.349 172.042 118.271 172.611H121.437V172.488C121.4 171.932 121.252 171.513 120.992 171.23C120.732 170.943 120.372 170.8 119.912 170.8Z" fill="#BFFBDE"/>
<defs>
<filter id="filter0_d" x="0" y="0" width="197" height="222" filterUnits="userSpaceOnUse" color-interpolation-filters="sRGB">
<feFlood flood-opacity="0" result="BackgroundImageFix"/>
<feColorMatrix in="SourceAlpha" type="matrix" values="0 0 0 0 0 0 0 0 0 0 0 0 0 0 0 0 0 0 127 0"/>
<feOffset dy="4"/>
<feGaussianBlur stdDeviation="2"/>
<feColorMatrix type="matrix" values="0 0 0 0 0 0 0 0 0 0 0 0 0 0 0 0 0 0 0.25 0"/>
<feBlend mode="normal" in2="BackgroundImageFix" result="effect1_dropShadow"/>
<feBlend mode="normal" in="SourceGraphic" in2="effect1_dropShadow" result="shape"/>
</filter>
<linearGradient id="paint0_linear" x1="68.6189" y1="17.1022" x2="107.826" y2="55.766" gradientUnits="userSpaceOnUse">
<stop stop-color="#387EB8"/>
<stop offset="1" stop-color="#366994"/>
</linearGradient>
<linearGradient id="paint1_linear" x1="92.5906" y1="42.0278" x2="134.687" y2="81.6672" gradientUnits="userSpaceOnUse">
<stop stop-color="#FFE052"/>
<stop offset="1" stop-color="#FFC331"/>
</linearGradient>
</defs>
</svg>
