<svg width="138" height="156" viewBox="0 0 138 156" fill="none" xmlns="http://www.w3.org/2000/svg">
<g filter="url(#filter0_d)">
<rect x="4" width="130" height="148" rx="39" fill="#405C50"/>
</g>
<g clip-path="url(#clip0)">
<path d="M70.1459 6.93155C56.3846 6.93155 57.2439 12.9554 57.2439 12.9554L57.2593 19.1961H70.3914V21.0698H52.0433C52.0433 21.0698 43.2374 20.0618 43.2374 34.0777C43.2374 48.0936 50.9234 47.5966 50.9234 47.5966H55.5104V41.0926C55.5104 41.0926 55.2631 33.3344 63.0736 33.3344H76.0983C76.0983 33.3344 83.4161 33.4538 83.4161 26.1956V14.1943C83.4161 14.1943 84.5271 6.93155 70.1459 6.93155ZM62.9049 11.1281C64.2114 11.1281 65.2674 12.1941 65.2674 13.5129C65.2674 14.8317 64.2114 15.8977 62.9049 15.8977C61.5983 15.8977 60.5423 14.8317 60.5423 13.5129C60.5423 12.1941 61.5983 11.1281 62.9049 11.1281Z" fill="url(#paint0_linear)"/>
<path d="M70.5364 61.3642C84.2977 61.3642 83.4383 55.3403 83.4383 55.3403L83.423 49.0996H70.2909V47.2259H88.639C88.639 47.2259 97.4449 48.2339 97.4449 34.218C97.4449 20.2021 89.7589 20.6992 89.7589 20.6992H85.1719V27.2031C85.1719 27.2031 85.4191 34.9613 77.6087 34.9613H64.584C64.584 34.9613 57.2662 34.8419 57.2662 42.1002V54.1015C57.2662 54.1015 56.1552 61.3642 70.5364 61.3642ZM77.7774 57.1676C76.4709 57.1676 75.4149 56.1017 75.4149 54.7828C75.4149 53.464 76.4709 52.3981 77.7774 52.3981C79.084 52.3981 80.14 53.464 80.14 54.7828C80.14 56.1017 79.084 57.1676 77.7774 57.1676Z" fill="url(#paint1_linear)"/>
</g>
<rect x="14.3175" y="69.1589" width="110.053" height="64.3178" rx="16" fill="#8AD4B5"/>
<path d="M23.2221 78.657V83.408C23.2221 84.1632 22.9796 84.7621 22.4946 85.2048C22.0128 85.6443 21.3699 85.864 20.5659 85.864C19.7521 85.864 19.1059 85.6475 18.6274 85.2146C18.1489 84.7784 17.9096 84.1746 17.9096 83.4031V78.657H19.1401V83.4128C19.1401 83.8881 19.2605 84.2511 19.5014 84.5017C19.7423 84.7524 20.0971 84.8777 20.5659 84.8777C21.5164 84.8777 21.9916 84.3764 21.9916 83.3738V78.657H23.2221ZM25.5317 80.4832L25.5659 81.0935C25.9565 80.6215 26.4692 80.3855 27.1039 80.3855C28.2042 80.3855 28.7641 81.0154 28.7836 82.2751V85.7664H27.5971V82.3435C27.5971 82.0082 27.5239 81.7608 27.3774 81.6013C27.2342 81.4386 26.9981 81.3572 26.6694 81.3572C26.1909 81.3572 25.8344 81.5736 25.6 82.0066V85.7664H24.4135V80.4832H25.5317ZM31.2592 85.7664H30.0727V80.4832H31.2592V85.7664ZM29.9995 79.1111C29.9995 78.9288 30.0564 78.7774 30.1703 78.657C30.2875 78.5365 30.4536 78.4763 30.6684 78.4763C30.8832 78.4763 31.0493 78.5365 31.1664 78.657C31.2836 78.7774 31.3422 78.9288 31.3422 79.1111C31.3422 79.2901 31.2836 79.4399 31.1664 79.5603C31.0493 79.6775 30.8832 79.7361 30.6684 79.7361C30.4536 79.7361 30.2875 79.6775 30.1703 79.5603C30.0564 79.4399 29.9995 79.2901 29.9995 79.1111ZM34.4184 84.2625L35.5366 80.4832H36.7621L34.9311 85.7664H33.9008L32.0551 80.4832H33.2856L34.4184 84.2625ZM39.7651 85.864C39.0131 85.864 38.4028 85.628 37.934 85.156C37.4685 84.6807 37.2358 84.0492 37.2358 83.2615V83.115C37.2358 82.5876 37.3367 82.1173 37.5385 81.7039C37.7436 81.2872 38.03 80.9633 38.3979 80.7322C38.7657 80.5011 39.1759 80.3855 39.6284 80.3855C40.3478 80.3855 40.9028 80.615 41.2934 81.074C41.6873 81.533 41.8842 82.1824 41.8842 83.0222V83.5007H38.4321C38.4679 83.9369 38.6127 84.282 38.8666 84.5359C39.1238 84.7898 39.4461 84.9167 39.8334 84.9167C40.3771 84.9167 40.8198 84.697 41.1616 84.2576L41.8012 84.8679C41.5896 85.1837 41.3064 85.4294 40.9516 85.6052C40.6 85.7778 40.2045 85.864 39.7651 85.864ZM39.6235 81.3376C39.298 81.3376 39.0343 81.4516 38.8325 81.6794C38.6339 81.9073 38.5069 82.2247 38.4516 82.6316H40.7123V82.5437C40.6863 82.1466 40.5805 81.8471 40.395 81.6453C40.2094 81.4402 39.9523 81.3376 39.6235 81.3376ZM45.5756 81.5671C45.4194 81.5411 45.2582 81.5281 45.0922 81.5281C44.5486 81.5281 44.1824 81.7364 43.9936 82.1531V85.7664H42.8071V80.4832H43.9399L43.9692 81.074C44.2556 80.615 44.6528 80.3855 45.1606 80.3855C45.3299 80.3855 45.4698 80.4083 45.5805 80.4539L45.5756 81.5671ZM49.2866 84.3308C49.2866 84.1192 49.1987 83.9581 49.0229 83.8474C48.8504 83.7367 48.5623 83.6391 48.1586 83.5544C47.755 83.4698 47.4181 83.3624 47.1479 83.2322C46.5554 82.9457 46.2592 82.5307 46.2592 81.9871C46.2592 81.5313 46.4513 81.1505 46.8354 80.8445C47.2195 80.5385 47.7078 80.3855 48.3002 80.3855C48.9317 80.3855 49.4412 80.5417 49.8286 80.8542C50.2192 81.1667 50.4145 81.572 50.4145 82.0701H49.228C49.228 81.8422 49.1433 81.6534 48.9741 81.5037C48.8048 81.3507 48.5802 81.2742 48.3002 81.2742C48.0398 81.2742 47.8266 81.3344 47.6606 81.4548C47.4978 81.5753 47.4164 81.7364 47.4164 81.9382C47.4164 82.1205 47.4929 82.2621 47.6459 82.363C47.7989 82.4639 48.1082 82.5665 48.5737 82.6707C49.0392 82.7716 49.4037 82.8936 49.6674 83.0369C49.9343 83.1768 50.1313 83.3461 50.2582 83.5447C50.3884 83.7432 50.4536 83.9841 50.4536 84.2673C50.4536 84.7426 50.2566 85.1283 49.8627 85.4246C49.4689 85.7175 48.9529 85.864 48.3149 85.864C47.8819 85.864 47.4962 85.7859 47.1577 85.6296C46.8191 85.4734 46.5554 85.2585 46.3666 84.9851C46.1778 84.7117 46.0834 84.4171 46.0834 84.1013H47.2358C47.2521 84.3813 47.3578 84.5977 47.5532 84.7507C47.7485 84.9005 48.0073 84.9753 48.3295 84.9753C48.642 84.9753 48.8797 84.9167 49.0424 84.7996C49.2052 84.6791 49.2866 84.5229 49.2866 84.3308ZM52.7534 85.7664H51.5668V80.4832H52.7534V85.7664ZM51.4936 79.1111C51.4936 78.9288 51.5506 78.7774 51.6645 78.657C51.7817 78.5365 51.9477 78.4763 52.1625 78.4763C52.3774 78.4763 52.5434 78.5365 52.6606 78.657C52.7778 78.7774 52.8364 78.9288 52.8364 79.1111C52.8364 79.2901 52.7778 79.4399 52.6606 79.5603C52.5434 79.6775 52.3774 79.7361 52.1625 79.7361C51.9477 79.7361 51.7817 79.6775 51.6645 79.5603C51.5506 79.4399 51.4936 79.2901 51.4936 79.1111ZM55.5366 79.199V80.4832H56.4692V81.3621H55.5366V84.3113C55.5366 84.5131 55.5756 84.6596 55.6537 84.7507C55.7351 84.8386 55.8784 84.8826 56.0834 84.8826C56.2202 84.8826 56.3585 84.8663 56.4985 84.8337V85.7517C56.2283 85.8266 55.9679 85.864 55.7172 85.864C54.8058 85.864 54.35 85.3611 54.35 84.3552V81.3621H53.4809V80.4832H54.35V79.199H55.5366ZM59.228 84.0671L60.3022 80.4832H61.5668L59.4672 86.5671C59.145 87.4558 58.5981 87.9001 57.8266 87.9001C57.6541 87.9001 57.4636 87.8708 57.2553 87.8123V86.8943L57.4799 86.9089C57.7794 86.9089 58.004 86.8536 58.1537 86.7429C58.3067 86.6355 58.4272 86.4532 58.5151 86.196L58.686 85.7419L56.8305 80.4832H58.1098L59.228 84.0671ZM64.5209 83.0759C64.5209 82.5583 64.6235 82.0929 64.8286 81.6794C65.0336 81.2628 65.3217 80.9438 65.6928 80.7224C66.0639 80.4978 66.4903 80.3855 66.9721 80.3855C67.685 80.3855 68.2628 80.615 68.7055 81.074C69.1515 81.533 69.3924 82.1417 69.4282 82.9001L69.433 83.1785C69.433 83.6993 69.3321 84.1648 69.1303 84.575C68.9317 84.9851 68.6453 85.3025 68.2709 85.5271C67.8998 85.7517 67.4702 85.864 66.9819 85.864C66.2364 85.864 65.6391 85.6166 65.1899 85.1218C64.7439 84.6238 64.5209 83.9613 64.5209 83.1345V83.0759ZM65.7075 83.1785C65.7075 83.7221 65.8198 84.1485 66.0444 84.4578C66.269 84.7638 66.5815 84.9167 66.9819 84.9167C67.3823 84.9167 67.6931 84.7605 67.9145 84.448C68.1391 84.1355 68.2514 83.6781 68.2514 83.0759C68.2514 82.5421 68.1358 82.1189 67.9047 81.8064C67.6769 81.4939 67.366 81.3376 66.9721 81.3376C66.5847 81.3376 66.2771 81.4923 66.0493 81.8015C65.8214 82.1075 65.7075 82.5665 65.7075 83.1785ZM70.8539 85.7664V81.3621H70.0483V80.4832H70.8539V79.9998C70.8539 79.4138 71.0167 78.9613 71.3422 78.6423C71.6677 78.3233 72.1235 78.1638 72.7094 78.1638C72.9177 78.1638 73.1391 78.1931 73.3735 78.2517L73.3442 79.1794C73.214 79.1534 73.0626 79.1404 72.8901 79.1404C72.3237 79.1404 72.0405 79.4317 72.0405 80.0144V80.4832H73.1147V81.3621H72.0405V85.7664H70.8539ZM78.1879 78.657L80.2387 84.1062L82.2846 78.657H83.8813V85.7664H82.6508V83.4226L82.7729 80.2878L80.6733 85.7664H79.7895L77.6948 80.2927L77.8168 83.4226V85.7664H76.5864V78.657H78.1879ZM86.4936 85.7664H85.3071V80.4832H86.4936V85.7664ZM85.2338 79.1111C85.2338 78.9288 85.2908 78.7774 85.4047 78.657C85.5219 78.5365 85.6879 78.4763 85.9028 78.4763C86.1176 78.4763 86.2836 78.5365 86.4008 78.657C86.518 78.7774 86.5766 78.9288 86.5766 79.1111C86.5766 79.2901 86.518 79.4399 86.4008 79.5603C86.2836 79.6775 86.1176 79.7361 85.9028 79.7361C85.6879 79.7361 85.5219 79.6775 85.4047 79.5603C85.2908 79.4399 85.2338 79.2901 85.2338 79.1111ZM89.9604 84.9167C90.2566 84.9167 90.5024 84.8305 90.6977 84.658C90.893 84.4854 90.9972 84.2722 91.0102 84.0183H92.1284C92.1153 84.3471 92.0128 84.6547 91.8207 84.9412C91.6287 85.2244 91.3683 85.449 91.0395 85.615C90.7107 85.781 90.3559 85.864 89.975 85.864C89.2361 85.864 88.6502 85.6248 88.2172 85.1462C87.7843 84.6677 87.5678 84.0069 87.5678 83.1638V83.0417C87.5678 82.2377 87.7827 81.5948 88.2123 81.113C88.642 80.628 89.228 80.3855 89.9702 80.3855C90.5984 80.3855 91.1095 80.5694 91.5034 80.9373C91.9005 81.3018 92.1088 81.782 92.1284 82.3777H91.0102C90.9972 82.075 90.893 81.8259 90.6977 81.6306C90.5056 81.4353 90.2599 81.3376 89.9604 81.3376C89.5763 81.3376 89.28 81.4776 89.0717 81.7576C88.8634 82.0343 88.7576 82.4558 88.7543 83.0222V83.2126C88.7543 83.7856 88.8569 84.2136 89.062 84.4968C89.2703 84.7768 89.5698 84.9167 89.9604 84.9167ZM94.1938 81.0593C94.5812 80.6101 95.0711 80.3855 95.6635 80.3855C96.7898 80.3855 97.3611 81.0284 97.3774 82.3142V85.7664H96.1909V82.3582C96.1909 81.9936 96.1111 81.7364 95.9516 81.5867C95.7953 81.4337 95.5642 81.3572 95.2582 81.3572C94.783 81.3572 94.4282 81.5688 94.1938 81.9919V85.7664H93.0073V78.2664H94.1938V81.0593ZM99.8432 85.7664H98.6567V80.4832H99.8432V85.7664ZM98.5834 79.1111C98.5834 78.9288 98.6404 78.7774 98.7543 78.657C98.8715 78.5365 99.0375 78.4763 99.2524 78.4763C99.4672 78.4763 99.6332 78.5365 99.7504 78.657C99.8676 78.7774 99.9262 78.9288 99.9262 79.1111C99.9262 79.2901 99.8676 79.4399 99.7504 79.5603C99.6332 79.6775 99.4672 79.7361 99.2524 79.7361C99.0375 79.7361 98.8715 79.6775 98.7543 79.5603C98.6404 79.4399 98.5834 79.2901 98.5834 79.1111ZM100.932 83.0857C100.932 82.2654 101.124 81.6111 101.508 81.1228C101.896 80.6313 102.408 80.3855 103.046 80.3855C103.649 80.3855 104.122 80.5955 104.467 81.0154L104.521 80.4832H105.59V85.6052C105.59 86.2986 105.374 86.8455 104.941 87.2458C104.511 87.6462 103.93 87.8464 103.198 87.8464C102.81 87.8464 102.431 87.7651 102.06 87.6023C101.692 87.4428 101.412 87.2328 101.22 86.9724L101.782 86.2595C102.146 86.6925 102.595 86.9089 103.129 86.9089C103.523 86.9089 103.834 86.8015 104.062 86.5867C104.29 86.3751 104.404 86.0626 104.404 85.6492V85.2927C104.062 85.6736 103.606 85.864 103.037 85.864C102.418 85.864 101.912 85.6182 101.518 85.1267C101.127 84.6352 100.932 83.9548 100.932 83.0857ZM102.114 83.1882C102.114 83.7188 102.221 84.1371 102.436 84.4431C102.654 84.7458 102.955 84.8972 103.339 84.8972C103.818 84.8972 104.173 84.6921 104.404 84.282V81.9578C104.179 81.5574 103.828 81.3572 103.349 81.3572C102.958 81.3572 102.654 81.5118 102.436 81.821C102.221 82.1303 102.114 82.586 102.114 83.1882ZM109.97 85.7664C109.918 85.6654 109.872 85.5011 109.833 85.2732C109.456 85.6671 108.994 85.864 108.447 85.864C107.916 85.864 107.483 85.7126 107.148 85.4099C106.813 85.1072 106.645 84.7328 106.645 84.2869C106.645 83.7237 106.853 83.2924 107.27 82.9929C107.69 82.6902 108.289 82.5388 109.067 82.5388H109.794V82.1921C109.794 81.9187 109.718 81.7006 109.565 81.5378C109.412 81.3718 109.179 81.2888 108.867 81.2888C108.596 81.2888 108.375 81.3572 108.203 81.4939C108.03 81.6274 107.944 81.7983 107.944 82.0066H106.757C106.757 81.7169 106.853 81.4467 107.045 81.196C107.237 80.9421 107.498 80.7436 107.827 80.6003C108.159 80.4571 108.528 80.3855 108.935 80.3855C109.553 80.3855 110.047 80.5417 110.414 80.8542C110.782 81.1635 110.971 81.5997 110.981 82.1628V84.5457C110.981 85.0209 111.048 85.4001 111.181 85.6833V85.7664H109.97ZM108.666 84.9119C108.901 84.9119 109.121 84.8549 109.326 84.741C109.534 84.627 109.69 84.474 109.794 84.282V83.2859H109.155C108.715 83.2859 108.385 83.3624 108.164 83.5154C107.942 83.6684 107.831 83.8848 107.831 84.1648C107.831 84.3927 107.906 84.575 108.056 84.7117C108.209 84.8451 108.413 84.9119 108.666 84.9119ZM113.325 80.4832L113.359 81.0935C113.749 80.6215 114.262 80.3855 114.897 80.3855C115.997 80.3855 116.557 81.0154 116.577 82.2751V85.7664H115.39V82.3435C115.39 82.0082 115.317 81.7608 115.17 81.6013C115.027 81.4386 114.791 81.3572 114.462 81.3572C113.984 81.3572 113.627 81.5736 113.393 82.0066V85.7664H112.206V80.4832H113.325ZM118.505 84.5164C118.727 84.5164 118.898 84.5798 119.018 84.7068C119.138 84.8305 119.199 84.9867 119.199 85.1755C119.199 85.3611 119.138 85.5157 119.018 85.6394C118.898 85.7598 118.727 85.8201 118.505 85.8201C118.294 85.8201 118.126 85.7598 118.002 85.6394C117.879 85.519 117.817 85.3643 117.817 85.1755C117.817 84.9867 117.877 84.8305 117.997 84.7068C118.118 84.5798 118.287 84.5164 118.505 84.5164ZM118.505 80.3708C118.727 80.3708 118.898 80.4343 119.018 80.5613C119.138 80.685 119.199 80.8412 119.199 81.03C119.199 81.2156 119.138 81.3702 119.018 81.4939C118.898 81.6143 118.727 81.6746 118.505 81.6746C118.294 81.6746 118.126 81.6143 118.002 81.4939C117.879 81.3735 117.817 81.2188 117.817 81.03C117.817 80.8412 117.877 80.685 117.997 80.5613C118.118 80.4343 118.287 80.3708 118.505 80.3708ZM17.3383 95.1248V97.7664H16.103V90.657H18.8227C19.617 90.657 20.2468 90.8637 20.7123 91.2771C21.1811 91.6905 21.4155 92.2374 21.4155 92.9177C21.4155 93.6143 21.186 94.1563 20.727 94.5437C20.2713 94.9311 19.6316 95.1248 18.808 95.1248H17.3383ZM17.3383 94.1335H18.8227C19.2621 94.1335 19.5974 94.031 19.8286 93.8259C20.0597 93.6176 20.1752 93.3181 20.1752 92.9275C20.1752 92.5434 20.058 92.2374 19.8237 92.0095C19.5893 91.7784 19.267 91.6596 18.8569 91.6531H17.3383V94.1335ZM24.311 96.0671L25.3852 92.4832H26.6498L24.5502 98.5671C24.228 99.4558 23.6811 99.9001 22.9096 99.9001C22.7371 99.9001 22.5467 99.8708 22.3383 99.8123V98.8943L22.5629 98.9089C22.8624 98.9089 23.087 98.8536 23.2368 98.7429C23.3898 98.6355 23.5102 98.4532 23.5981 98.196L23.769 97.7419L21.9135 92.4832H23.1928L24.311 96.0671ZM28.8227 91.199V92.4832H29.7553V93.3621H28.8227V96.3113C28.8227 96.5131 28.8618 96.6596 28.9399 96.7507C29.0213 96.8386 29.1645 96.8826 29.3696 96.8826C29.5063 96.8826 29.6446 96.8663 29.7846 96.8337V97.7517C29.5144 97.8266 29.254 97.864 29.0034 97.864C28.0919 97.864 27.6362 97.3611 27.6362 96.3552V93.3621H26.767V92.4832H27.6362V91.199H28.8227ZM31.8354 93.0593C32.2228 92.6101 32.7127 92.3855 33.3051 92.3855C34.4314 92.3855 35.0027 93.0284 35.019 94.3142V97.7664H33.8325V94.3582C33.8325 93.9936 33.7527 93.7364 33.5932 93.5867C33.437 93.4337 33.2058 93.3572 32.8998 93.3572C32.4246 93.3572 32.0698 93.5688 31.8354 93.9919V97.7664H30.6489V90.2664H31.8354V93.0593ZM36.0004 95.0759C36.0004 94.5583 36.103 94.0929 36.308 93.6794C36.5131 93.2628 36.8012 92.9438 37.1723 92.7224C37.5434 92.4978 37.9698 92.3855 38.4516 92.3855C39.1645 92.3855 39.7423 92.615 40.185 93.074C40.631 93.533 40.8718 94.1417 40.9077 94.9001L40.9125 95.1785C40.9125 95.6993 40.8116 96.1648 40.6098 96.575C40.4112 96.9851 40.1248 97.3025 39.7504 97.5271C39.3793 97.7517 38.9496 97.864 38.4614 97.864C37.7159 97.864 37.1186 97.6166 36.6694 97.1218C36.2234 96.6238 36.0004 95.9613 36.0004 95.1345V95.0759ZM37.187 95.1785C37.187 95.7221 37.2993 96.1485 37.5239 96.4578C37.7485 96.7638 38.061 96.9167 38.4614 96.9167C38.8618 96.9167 39.1726 96.7605 39.394 96.448C39.6186 96.1355 39.7309 95.6781 39.7309 95.0759C39.7309 94.5421 39.6153 94.1189 39.3842 93.8064C39.1564 93.4939 38.8455 93.3376 38.4516 93.3376C38.0642 93.3376 37.7566 93.4923 37.5287 93.8015C37.3009 94.1075 37.187 94.5665 37.187 95.1785ZM43.017 92.4832L43.0512 93.0935C43.4418 92.6215 43.9545 92.3855 44.5893 92.3855C45.6896 92.3855 46.2495 93.0154 46.269 94.2751V97.7664H45.0825V94.3435C45.0825 94.0082 45.0092 93.7608 44.8627 93.6013C44.7195 93.4386 44.4835 93.3572 44.1547 93.3572C43.6762 93.3572 43.3198 93.5736 43.0854 94.0066V97.7664H41.8989V92.4832H43.017ZM54.184 94.7537H51.3227V97.7664H50.0873V90.657H54.6039V91.6531H51.3227V93.7673H54.184V94.7537ZM58.5639 97.2488C58.2156 97.6589 57.7208 97.864 57.0795 97.864C56.5066 97.864 56.072 97.6964 55.7758 97.3611C55.4828 97.0258 55.3364 96.5408 55.3364 95.906V92.4832H56.5229V95.8914C56.5229 96.5619 56.8012 96.8972 57.3578 96.8972C57.934 96.8972 58.323 96.6905 58.5248 96.2771V92.4832H59.7114V97.7664H58.5932L58.5639 97.2488ZM62.0209 92.4832L62.0551 93.0935C62.4457 92.6215 62.9584 92.3855 63.5932 92.3855C64.6935 92.3855 65.2534 93.0154 65.2729 94.2751V97.7664H64.0864V94.3435C64.0864 94.0082 64.0131 93.7608 63.8666 93.6013C63.7234 93.4386 63.4874 93.3572 63.1586 93.3572C62.6801 93.3572 62.3237 93.5736 62.0893 94.0066V97.7664H60.9028V92.4832H62.0209ZM68.6567 96.9167C68.9529 96.9167 69.1987 96.8305 69.394 96.658C69.5893 96.4854 69.6935 96.2722 69.7065 96.0183H70.8246C70.8116 96.3471 70.7091 96.6547 70.517 96.9412C70.325 97.2244 70.0646 97.449 69.7358 97.615C69.407 97.781 69.0522 97.864 68.6713 97.864C67.9324 97.864 67.3465 97.6248 66.9135 97.1462C66.4806 96.6677 66.2641 96.0069 66.2641 95.1638V95.0417C66.2641 94.2377 66.4789 93.5948 66.9086 93.113C67.3383 92.628 67.9243 92.3855 68.6664 92.3855C69.2947 92.3855 69.8058 92.5694 70.1996 92.9373C70.5968 93.3018 70.8051 93.782 70.8246 94.3777H69.7065C69.6935 94.075 69.5893 93.8259 69.394 93.6306C69.2019 93.4353 68.9562 93.3376 68.6567 93.3376C68.2726 93.3376 67.9763 93.4776 67.768 93.7576C67.5597 94.0343 67.4539 94.4558 67.4506 95.0222V95.2126C67.4506 95.7856 67.5532 96.2136 67.7582 96.4968C67.9666 96.7768 68.2661 96.9167 68.6567 96.9167ZM73.2075 91.199V92.4832H74.1401V93.3621H73.2075V96.3113C73.2075 96.5131 73.2465 96.6596 73.3246 96.7507C73.406 96.8386 73.5493 96.8826 73.7543 96.8826C73.8911 96.8826 74.0294 96.8663 74.1694 96.8337V97.7517C73.8992 97.8266 73.6388 97.864 73.3881 97.864C72.4767 97.864 72.0209 97.3611 72.0209 96.3552V93.3621H71.1518V92.4832H72.0209V91.199H73.2075ZM76.3129 97.7664H75.1264V92.4832H76.3129V97.7664ZM75.0532 91.1111C75.0532 90.9288 75.1101 90.7774 75.2241 90.657C75.3412 90.5365 75.5073 90.4763 75.7221 90.4763C75.937 90.4763 76.103 90.5365 76.2202 90.657C76.3373 90.7774 76.3959 90.9288 76.3959 91.1111C76.3959 91.2901 76.3373 91.4399 76.2202 91.5603C76.103 91.6775 75.937 91.7361 75.7221 91.7361C75.5073 91.7361 75.3412 91.6775 75.2241 91.5603C75.1101 91.4399 75.0532 91.2901 75.0532 91.1111ZM77.3871 95.0759C77.3871 94.5583 77.4897 94.0929 77.6948 93.6794C77.8998 93.2628 78.1879 92.9438 78.559 92.7224C78.9301 92.4978 79.3565 92.3855 79.8383 92.3855C80.5512 92.3855 81.129 92.615 81.5717 93.074C82.0177 93.533 82.2586 94.1417 82.2944 94.9001L82.2993 95.1785C82.2993 95.6993 82.1983 96.1648 81.9965 96.575C81.798 96.9851 81.5115 97.3025 81.1371 97.5271C80.7661 97.7517 80.3364 97.864 79.8481 97.864C79.1026 97.864 78.5053 97.6166 78.0561 97.1218C77.6101 96.6238 77.3871 95.9613 77.3871 95.1345V95.0759ZM78.5737 95.1785C78.5737 95.7221 78.686 96.1485 78.9106 96.4578C79.1352 96.7638 79.4477 96.9167 79.8481 96.9167C80.2485 96.9167 80.5593 96.7605 80.7807 96.448C81.0053 96.1355 81.1176 95.6781 81.1176 95.0759C81.1176 94.5421 81.0021 94.1189 80.7709 93.8064C80.5431 93.4939 80.2322 93.3376 79.8383 93.3376C79.4509 93.3376 79.1433 93.4923 78.9155 93.8015C78.6876 94.1075 78.5737 94.5665 78.5737 95.1785ZM84.4037 92.4832L84.4379 93.0935C84.8286 92.6215 85.3412 92.3855 85.976 92.3855C87.0763 92.3855 87.6362 93.0154 87.6557 94.2751V97.7664H86.4692V94.3435C86.4692 94.0082 86.3959 93.7608 86.2495 93.6013C86.1062 93.4386 85.8702 93.3572 85.5414 93.3572C85.0629 93.3572 84.7065 93.5736 84.4721 94.0066V97.7664H83.2856V92.4832H84.4037ZM91.8305 96.3308C91.8305 96.1192 91.7426 95.9581 91.5668 95.8474C91.3943 95.7367 91.1062 95.6391 90.7026 95.5544C90.2989 95.4698 89.962 95.3624 89.6918 95.2322C89.0994 94.9457 88.8032 94.5307 88.8032 93.9871C88.8032 93.5313 88.9952 93.1505 89.3793 92.8445C89.7634 92.5385 90.2517 92.3855 90.8442 92.3855C91.4757 92.3855 91.9851 92.5417 92.3725 92.8542C92.7631 93.1667 92.9584 93.572 92.9584 94.0701H91.7719C91.7719 93.8422 91.6873 93.6534 91.518 93.5037C91.3487 93.3507 91.1241 93.2742 90.8442 93.2742C90.5838 93.2742 90.3705 93.3344 90.2045 93.4548C90.0418 93.5753 89.9604 93.7364 89.9604 93.9382C89.9604 94.1205 90.0369 94.2621 90.1899 94.363C90.3429 94.4639 90.6521 94.5665 91.1176 94.6707C91.5831 94.7716 91.9477 94.8936 92.2114 95.0369C92.4783 95.1768 92.6752 95.3461 92.8022 95.5447C92.9324 95.7432 92.9975 95.9841 92.9975 96.2673C92.9975 96.7426 92.8006 97.1283 92.4067 97.4246C92.0128 97.7175 91.4968 97.864 90.8588 97.864C90.4259 97.864 90.0401 97.7859 89.7016 97.6296C89.3631 97.4734 89.0994 97.2585 88.9106 96.9851C88.7218 96.7117 88.6274 96.4171 88.6274 96.1013H89.7797C89.796 96.3813 89.9018 96.5977 90.0971 96.7507C90.2924 96.9005 90.5512 96.9753 90.8735 96.9753C91.186 96.9753 91.4236 96.9167 91.5864 96.7996C91.7491 96.6791 91.8305 96.5229 91.8305 96.3308ZM94.2036 99.3679L93.5639 98.9871C93.7527 98.6908 93.8813 98.432 93.9496 98.2107C94.0213 97.9926 94.0587 97.7696 94.062 97.5417V96.6189H95.1313L95.1264 97.4734C95.1231 97.8184 95.0353 98.1635 94.8627 98.5085C94.6935 98.8569 94.4737 99.1433 94.2036 99.3679ZM102.934 94.7537H100.073V97.7664H98.8373V90.657H103.354V91.6531H100.073V93.7673H102.934V94.7537ZM105.483 97.7664H104.296V92.4832H105.483V97.7664ZM104.223 91.1111C104.223 90.9288 104.28 90.7774 104.394 90.657C104.511 90.5365 104.677 90.4763 104.892 90.4763C105.107 90.4763 105.273 90.5365 105.39 90.657C105.507 90.7774 105.566 90.9288 105.566 91.1111C105.566 91.2901 105.507 91.4399 105.39 91.5603C105.273 91.6775 105.107 91.7361 104.892 91.7361C104.677 91.7361 104.511 91.6775 104.394 91.5603C104.28 91.4399 104.223 91.2901 104.223 91.1111ZM108.041 97.7664H106.855V90.2664H108.041V97.7664ZM111.664 97.864C110.913 97.864 110.302 97.628 109.833 97.156C109.368 96.6807 109.135 96.0492 109.135 95.2615V95.115C109.135 94.5876 109.236 94.1173 109.438 93.7039C109.643 93.2872 109.929 92.9633 110.297 92.7322C110.665 92.5011 111.075 92.3855 111.528 92.3855C112.247 92.3855 112.802 92.615 113.193 93.074C113.587 93.533 113.784 94.1824 113.784 95.0222V95.5007H110.331C110.367 95.9369 110.512 96.282 110.766 96.5359C111.023 96.7898 111.345 96.9167 111.733 96.9167C112.276 96.9167 112.719 96.697 113.061 96.2576L113.701 96.8679C113.489 97.1837 113.206 97.4294 112.851 97.6052C112.499 97.7778 112.104 97.864 111.664 97.864ZM111.523 93.3376C111.197 93.3376 110.934 93.4516 110.732 93.6794C110.533 93.9073 110.406 94.2247 110.351 94.6316H112.612V94.5437C112.586 94.1466 112.48 93.8471 112.294 93.6453C112.109 93.4402 111.852 93.3376 111.523 93.3376ZM117.67 96.3308C117.67 96.1192 117.582 95.9581 117.407 95.8474C117.234 95.7367 116.946 95.6391 116.542 95.5544C116.139 95.4698 115.802 95.3624 115.532 95.2322C114.939 94.9457 114.643 94.5307 114.643 93.9871C114.643 93.5313 114.835 93.1505 115.219 92.8445C115.603 92.5385 116.092 92.3855 116.684 92.3855C117.316 92.3855 117.825 92.5417 118.212 92.8542C118.603 93.1667 118.798 93.572 118.798 94.0701H117.612C117.612 93.8422 117.527 93.6534 117.358 93.5037C117.189 93.3507 116.964 93.2742 116.684 93.2742C116.424 93.2742 116.21 93.3344 116.044 93.4548C115.882 93.5753 115.8 93.7364 115.8 93.9382C115.8 94.1205 115.877 94.2621 116.03 94.363C116.183 94.4639 116.492 94.5665 116.957 94.6707C117.423 94.7716 117.788 94.8936 118.051 95.0369C118.318 95.1768 118.515 95.3461 118.642 95.5447C118.772 95.7432 118.837 95.9841 118.837 96.2673C118.837 96.7426 118.64 97.1283 118.247 97.4246C117.853 97.7175 117.337 97.864 116.699 97.864C116.266 97.864 115.88 97.7859 115.541 97.6296C115.203 97.4734 114.939 97.2585 114.75 96.9851C114.562 96.7117 114.467 96.4171 114.467 96.1013H115.62C115.636 96.3813 115.742 96.5977 115.937 96.7507C116.132 96.9005 116.391 96.9753 116.713 96.9753C117.026 96.9753 117.263 96.9167 117.426 96.7996C117.589 96.6791 117.67 96.5229 117.67 96.3308ZM36.0297 109.766C35.9776 109.665 35.9321 109.501 35.893 109.273C35.5154 109.667 35.0532 109.864 34.5063 109.864C33.9757 109.864 33.5427 109.713 33.2075 109.41C32.8722 109.107 32.7045 108.733 32.7045 108.287C32.7045 107.724 32.9129 107.292 33.3295 106.993C33.7495 106.69 34.3484 106.539 35.1264 106.539H35.8539V106.192C35.8539 105.919 35.7774 105.701 35.6245 105.538C35.4715 105.372 35.2387 105.289 34.9262 105.289C34.656 105.289 34.4347 105.357 34.2621 105.494C34.0896 105.627 34.0034 105.798 34.0034 106.007H32.8168C32.8168 105.717 32.9129 105.447 33.1049 105.196C33.297 104.942 33.5574 104.744 33.8862 104.6C34.2182 104.457 34.5877 104.385 34.9946 104.385C35.6131 104.385 36.1062 104.542 36.4741 104.854C36.8419 105.163 37.0307 105.6 37.0405 106.163V108.546C37.0405 109.021 37.1072 109.4 37.2407 109.683V109.766H36.0297ZM34.726 108.912C34.9604 108.912 35.1801 108.855 35.3852 108.741C35.5935 108.627 35.7498 108.474 35.8539 108.282V107.286H35.2143C34.7748 107.286 34.4444 107.362 34.2231 107.515C34.0017 107.668 33.8911 107.885 33.8911 108.165C33.8911 108.393 33.9659 108.575 34.1157 108.712C34.2687 108.845 34.4721 108.912 34.726 108.912ZM39.3842 104.483L39.4184 105.094C39.809 104.622 40.3217 104.385 40.9565 104.385C42.0567 104.385 42.6166 105.015 42.6362 106.275V109.766H41.4496V106.344C41.4496 106.008 41.3764 105.761 41.2299 105.601C41.0867 105.439 40.8507 105.357 40.5219 105.357C40.0434 105.357 39.687 105.574 39.4526 106.007V109.766H38.2661V104.483H39.3842ZM43.6274 107.086C43.6274 106.272 43.8162 105.619 44.1938 105.128C44.5714 104.633 45.0776 104.385 45.7123 104.385C46.2722 104.385 46.7247 104.581 47.0698 104.971V102.266H48.2563V109.766H47.1821L47.1235 109.219C46.7687 109.649 46.295 109.864 45.7026 109.864C45.0841 109.864 44.5828 109.615 44.1987 109.117C43.8178 108.619 43.6274 107.942 43.6274 107.086ZM44.8139 107.188C44.8139 107.725 44.9164 108.145 45.1215 108.448C45.3299 108.747 45.6245 108.897 46.0053 108.897C46.4903 108.897 46.8452 108.681 47.0698 108.248V105.992C46.8517 105.569 46.5001 105.357 46.0151 105.357C45.631 105.357 45.3347 105.51 45.1264 105.816C44.9181 106.119 44.8139 106.576 44.8139 107.188ZM52.0991 109.766V102.657H54.1987C54.8269 102.657 55.3836 102.797 55.8686 103.077C56.3569 103.357 56.7345 103.754 57.0014 104.268C57.2683 104.783 57.4018 105.372 57.4018 106.036V106.392C57.4018 107.066 57.2667 107.659 56.9965 108.17C56.7296 108.681 56.3471 109.075 55.8491 109.351C55.3543 109.628 54.7862 109.766 54.145 109.766H52.0991ZM53.3344 103.653V108.78H54.1401C54.7879 108.78 55.2843 108.578 55.6293 108.175C55.9776 107.768 56.155 107.185 56.1616 106.427V106.031C56.1616 105.26 55.9939 104.67 55.6586 104.263C55.3233 103.857 54.8367 103.653 54.1987 103.653H53.3344ZM59.7797 109.766H58.5932V104.483H59.7797V109.766ZM58.52 103.111C58.52 102.929 58.5769 102.777 58.6909 102.657C58.808 102.537 58.9741 102.476 59.1889 102.476C59.4037 102.476 59.5698 102.537 59.687 102.657C59.8041 102.777 59.8627 102.929 59.8627 103.111C59.8627 103.29 59.8041 103.44 59.687 103.56C59.5698 103.677 59.4037 103.736 59.1889 103.736C58.9741 103.736 58.808 103.677 58.6909 103.56C58.5769 103.44 58.52 103.29 58.52 103.111ZM63.2465 108.917C63.5427 108.917 63.7885 108.83 63.9838 108.658C64.1791 108.485 64.2833 108.272 64.2963 108.018H65.4145C65.4015 108.347 65.2989 108.655 65.1069 108.941C64.9148 109.224 64.6544 109.449 64.3256 109.615C63.9968 109.781 63.642 109.864 63.2612 109.864C62.5222 109.864 61.9363 109.625 61.5034 109.146C61.0704 108.668 60.8539 108.007 60.8539 107.164V107.042C60.8539 106.238 61.0688 105.595 61.4985 105.113C61.9282 104.628 62.5141 104.385 63.2563 104.385C63.8845 104.385 64.3956 104.569 64.7895 104.937C65.1866 105.302 65.395 105.782 65.4145 106.378H64.2963C64.2833 106.075 64.1791 105.826 63.9838 105.631C63.7918 105.435 63.546 105.338 63.2465 105.338C62.8624 105.338 62.5662 105.478 62.3578 105.758C62.1495 106.034 62.0437 106.456 62.0405 107.022V107.213C62.0405 107.786 62.143 108.214 62.3481 108.497C62.5564 108.777 62.8559 108.917 63.2465 108.917ZM67.7973 103.199V104.483H68.7299V105.362H67.7973V108.311C67.7973 108.513 67.8364 108.66 67.9145 108.751C67.9959 108.839 68.1391 108.883 68.3442 108.883C68.4809 108.883 68.6192 108.866 68.7592 108.834V109.752C68.489 109.827 68.2286 109.864 67.978 109.864C67.0665 109.864 66.6108 109.361 66.6108 108.355V105.362H65.7416V104.483H66.6108V103.199H67.7973ZM70.9028 109.766H69.7162V104.483H70.9028V109.766ZM69.643 103.111C69.643 102.929 69.7 102.777 69.8139 102.657C69.9311 102.537 70.0971 102.476 70.312 102.476C70.5268 102.476 70.6928 102.537 70.81 102.657C70.9272 102.777 70.9858 102.929 70.9858 103.111C70.9858 103.29 70.9272 103.44 70.81 103.56C70.6928 103.677 70.5268 103.736 70.312 103.736C70.0971 103.736 69.9311 103.677 69.8139 103.56C69.7 103.44 69.643 103.29 69.643 103.111ZM71.977 107.076C71.977 106.558 72.0795 106.093 72.2846 105.679C72.4897 105.263 72.7778 104.944 73.1489 104.722C73.52 104.498 73.9464 104.385 74.4282 104.385C75.1411 104.385 75.7189 104.615 76.1616 105.074C76.6075 105.533 76.8484 106.142 76.8842 106.9L76.8891 107.178C76.8891 107.699 76.7882 108.165 76.5864 108.575C76.3878 108.985 76.1013 109.302 75.727 109.527C75.3559 109.752 74.9262 109.864 74.4379 109.864C73.6925 109.864 73.0952 109.617 72.6459 109.122C72.2 108.624 71.977 107.961 71.977 107.135V107.076ZM73.1635 107.178C73.1635 107.722 73.2758 108.149 73.5004 108.458C73.725 108.764 74.0375 108.917 74.4379 108.917C74.8383 108.917 75.1492 108.76 75.3705 108.448C75.5952 108.135 75.7075 107.678 75.7075 107.076C75.7075 106.542 75.5919 106.119 75.3608 105.806C75.1329 105.494 74.822 105.338 74.4282 105.338C74.0408 105.338 73.7332 105.492 73.5053 105.802C73.2774 106.108 73.1635 106.566 73.1635 107.178ZM78.9936 104.483L79.0278 105.094C79.4184 104.622 79.9311 104.385 80.5659 104.385C81.6661 104.385 82.226 105.015 82.2455 106.275V109.766H81.059V106.344C81.059 106.008 80.9858 105.761 80.8393 105.601C80.6961 105.439 80.4601 105.357 80.1313 105.357C79.6528 105.357 79.2963 105.574 79.062 106.007V109.766H77.8754V104.483H78.9936ZM86.6157 109.766C86.5636 109.665 86.518 109.501 86.4789 109.273C86.1013 109.667 85.6391 109.864 85.0922 109.864C84.5616 109.864 84.1287 109.713 83.7934 109.41C83.4581 109.107 83.2905 108.733 83.2905 108.287C83.2905 107.724 83.4988 107.292 83.9155 106.993C84.3354 106.69 84.9343 106.539 85.7123 106.539H86.4399V106.192C86.4399 105.919 86.3634 105.701 86.2104 105.538C86.0574 105.372 85.8246 105.289 85.5121 105.289C85.242 105.289 85.0206 105.357 84.8481 105.494C84.6756 105.627 84.5893 105.798 84.5893 106.007H83.4028C83.4028 105.717 83.4988 105.447 83.6909 105.196C83.8829 104.942 84.1433 104.744 84.4721 104.6C84.8041 104.457 85.1736 104.385 85.5805 104.385C86.199 104.385 86.6922 104.542 87.06 104.854C87.4278 105.163 87.6166 105.6 87.6264 106.163V108.546C87.6264 109.021 87.6931 109.4 87.8266 109.683V109.766H86.6157ZM85.312 108.912C85.5463 108.912 85.7661 108.855 85.9711 108.741C86.1795 108.627 86.3357 108.474 86.4399 108.282V107.286H85.8002C85.3608 107.286 85.0304 107.362 84.809 107.515C84.5877 107.668 84.477 107.885 84.477 108.165C84.477 108.393 84.5519 108.575 84.7016 108.712C84.8546 108.845 85.058 108.912 85.312 108.912ZM91.6352 105.567C91.4789 105.541 91.3178 105.528 91.1518 105.528C90.6082 105.528 90.242 105.736 90.0532 106.153V109.766H88.8666V104.483H89.9995L90.0287 105.074C90.3152 104.615 90.7123 104.385 91.2202 104.385C91.3894 104.385 91.5294 104.408 91.6401 104.454L91.6352 105.567ZM93.6469 109.766H92.4604V104.483H93.6469V109.766ZM92.3871 103.111C92.3871 102.929 92.4441 102.777 92.558 102.657C92.6752 102.537 92.8412 102.476 93.0561 102.476C93.2709 102.476 93.437 102.537 93.5541 102.657C93.6713 102.777 93.7299 102.929 93.7299 103.111C93.7299 103.29 93.6713 103.44 93.5541 103.56C93.437 103.677 93.2709 103.736 93.0561 103.736C92.8412 103.736 92.6752 103.677 92.558 103.56C92.4441 103.44 92.3871 103.29 92.3871 103.111ZM97.27 109.864C96.518 109.864 95.9077 109.628 95.4389 109.156C94.9734 108.681 94.7407 108.049 94.7407 107.261V107.115C94.7407 106.588 94.8416 106.117 95.0434 105.704C95.2485 105.287 95.5349 104.963 95.9028 104.732C96.2706 104.501 96.6808 104.385 97.1332 104.385C97.8526 104.385 98.4077 104.615 98.7983 105.074C99.1922 105.533 99.3891 106.182 99.3891 107.022V107.501H95.937C95.9728 107.937 96.1176 108.282 96.3715 108.536C96.6287 108.79 96.9509 108.917 97.3383 108.917C97.8819 108.917 98.3246 108.697 98.6664 108.258L99.3061 108.868C99.0945 109.184 98.8113 109.429 98.4565 109.605C98.1049 109.778 97.7094 109.864 97.27 109.864ZM97.1284 105.338C96.8028 105.338 96.5392 105.452 96.3373 105.679C96.1388 105.907 96.0118 106.225 95.9565 106.632H98.2172V106.544C98.1912 106.147 98.0854 105.847 97.8998 105.645C97.7143 105.44 97.4571 105.338 97.1284 105.338ZM103.276 108.331C103.276 108.119 103.188 107.958 103.012 107.847C102.84 107.737 102.552 107.639 102.148 107.554C101.744 107.47 101.407 107.362 101.137 107.232C100.545 106.946 100.248 106.531 100.248 105.987C100.248 105.531 100.441 105.15 100.825 104.844C101.209 104.538 101.697 104.385 102.289 104.385C102.921 104.385 103.43 104.542 103.818 104.854C104.208 105.167 104.404 105.572 104.404 106.07H103.217C103.217 105.842 103.133 105.653 102.963 105.504C102.794 105.351 102.569 105.274 102.289 105.274C102.029 105.274 101.816 105.334 101.65 105.455C101.487 105.575 101.406 105.736 101.406 105.938C101.406 106.121 101.482 106.262 101.635 106.363C101.788 106.464 102.097 106.566 102.563 106.671C103.028 106.772 103.393 106.894 103.657 107.037C103.924 107.177 104.121 107.346 104.247 107.545C104.378 107.743 104.443 107.984 104.443 108.267C104.443 108.743 104.246 109.128 103.852 109.425C103.458 109.718 102.942 109.864 102.304 109.864C101.871 109.864 101.485 109.786 101.147 109.63C100.808 109.473 100.545 109.259 100.356 108.985C100.167 108.712 100.073 108.417 100.073 108.101H101.225C101.241 108.381 101.347 108.598 101.542 108.751C101.738 108.9 101.997 108.975 102.319 108.975C102.631 108.975 102.869 108.917 103.032 108.8C103.194 108.679 103.276 108.523 103.276 108.331Z" fill="#0B406C"/>
<path d="M48.6956 120.106C48.624 120.865 48.344 121.457 47.8558 121.883C47.3675 122.307 46.7181 122.518 45.9075 122.518C45.3411 122.518 44.8414 122.385 44.4085 122.118C43.9788 121.848 43.6468 121.465 43.4124 120.97C43.178 120.476 43.056 119.901 43.0462 119.247V118.583C43.0462 117.912 43.165 117.321 43.4026 116.81C43.6403 116.299 43.9804 115.905 44.4231 115.629C44.8691 115.352 45.3834 115.214 45.9661 115.214C46.7506 115.214 47.3821 115.427 47.8606 115.853C48.3392 116.28 48.6175 116.882 48.6956 117.66H47.4651C47.4065 117.149 47.2568 116.781 47.0159 116.556C46.7783 116.328 46.4283 116.215 45.9661 116.215C45.429 116.215 45.0156 116.411 44.7259 116.805C44.4394 117.196 44.2929 117.77 44.2864 118.529V119.159C44.2864 119.927 44.4231 120.513 44.6966 120.917C44.9733 121.32 45.3769 121.522 45.9075 121.522C46.3925 121.522 46.7571 121.413 47.0013 121.195C47.2454 120.977 47.4 120.614 47.4651 120.106H48.6956ZM50.9515 122.421H49.7649V114.921H50.9515V122.421ZM53.5101 122.421H52.3235V117.137H53.5101V122.421ZM52.2503 115.765C52.2503 115.583 52.3073 115.432 52.4212 115.311C52.5384 115.191 52.7044 115.131 52.9192 115.131C53.1341 115.131 53.3001 115.191 53.4173 115.311C53.5345 115.432 53.5931 115.583 53.5931 115.765C53.5931 115.944 53.5345 116.094 53.4173 116.215C53.3001 116.332 53.1341 116.39 52.9192 116.39C52.7044 116.39 52.5384 116.332 52.4212 116.215C52.3073 116.094 52.2503 115.944 52.2503 115.765ZM56.9769 121.571C57.2731 121.571 57.5188 121.485 57.7142 121.312C57.9095 121.14 58.0136 120.926 58.0267 120.673H59.1448C59.1318 121.001 59.0293 121.309 58.8372 121.595C58.6451 121.879 58.3847 122.103 58.056 122.269C57.7272 122.435 57.3724 122.518 56.9915 122.518C56.2526 122.518 55.6666 122.279 55.2337 121.8C54.8007 121.322 54.5843 120.661 54.5843 119.818V119.696C54.5843 118.892 54.7991 118.249 55.2288 117.767C55.6585 117.282 56.2444 117.04 56.9866 117.04C57.6149 117.04 58.1259 117.224 58.5198 117.591C58.917 117.956 59.1253 118.436 59.1448 119.032H58.0267C58.0136 118.729 57.9095 118.48 57.7142 118.285C57.5221 118.09 57.2763 117.992 56.9769 117.992C56.5927 117.992 56.2965 118.132 56.0882 118.412C55.8798 118.688 55.7741 119.11 55.7708 119.676V119.867C55.7708 120.44 55.8733 120.868 56.0784 121.151C56.2867 121.431 56.5862 121.571 56.9769 121.571ZM61.7571 120.155L61.2298 120.697V122.421H60.0433V114.921H61.2298V119.247L61.6009 118.783L63.0608 117.137H64.4866L62.5237 119.34L64.6966 122.421H63.3245L61.7571 120.155ZM68.9251 117.714C69.3125 117.264 69.8024 117.04 70.3948 117.04C71.5211 117.04 72.0924 117.683 72.1087 118.968V122.421H70.9222V119.012C70.9222 118.648 70.8424 118.391 70.6829 118.241C70.5267 118.088 70.2955 118.011 69.9895 118.011C69.5143 118.011 69.1595 118.223 68.9251 118.646V122.421H67.7386V114.921H68.9251V117.714ZM75.639 122.518C74.887 122.518 74.2767 122.282 73.8079 121.81C73.3424 121.335 73.1097 120.703 73.1097 119.916V119.769C73.1097 119.242 73.2106 118.771 73.4124 118.358C73.6175 117.941 73.9039 117.618 74.2718 117.386C74.6396 117.155 75.0498 117.04 75.5022 117.04C76.2216 117.04 76.7767 117.269 77.1673 117.728C77.5612 118.187 77.7581 118.837 77.7581 119.676V120.155H74.306C74.3418 120.591 74.4866 120.936 74.7405 121.19C74.9977 121.444 75.32 121.571 75.7073 121.571C76.2509 121.571 76.6936 121.351 77.0354 120.912L77.6751 121.522C77.4635 121.838 77.1803 122.084 76.8255 122.259C76.4739 122.432 76.0784 122.518 75.639 122.518ZM75.4974 117.992C75.1718 117.992 74.9082 118.106 74.7063 118.334C74.5078 118.562 74.3808 118.879 74.3255 119.286H76.5862V119.198C76.5602 118.801 76.4544 118.501 76.2688 118.299C76.0833 118.094 75.8261 117.992 75.4974 117.992ZM81.4495 118.221C81.2933 118.195 81.1321 118.182 80.9661 118.182C80.4225 118.182 80.0563 118.391 79.8675 118.807V122.421H78.681V117.137H79.8138L79.8431 117.728C80.1295 117.269 80.5267 117.04 81.0345 117.04C81.2037 117.04 81.3437 117.062 81.4544 117.108L81.4495 118.221ZM84.428 122.518C83.6761 122.518 83.0657 122.282 82.597 121.81C82.1315 121.335 81.8987 120.703 81.8987 119.916V119.769C81.8987 119.242 81.9996 118.771 82.2015 118.358C82.4065 117.941 82.693 117.618 83.0608 117.386C83.4287 117.155 83.8388 117.04 84.2913 117.04C85.0107 117.04 85.5657 117.269 85.9563 117.728C86.3502 118.187 86.5472 118.837 86.5472 119.676V120.155H83.095C83.1308 120.591 83.2757 120.936 83.5296 121.19C83.7867 121.444 84.109 121.571 84.4964 121.571C85.04 121.571 85.4827 121.351 85.8245 120.912L86.4642 121.522C86.2526 121.838 85.9694 122.084 85.6145 122.259C85.263 122.432 84.8675 122.518 84.428 122.518ZM84.2864 117.992C83.9609 117.992 83.6972 118.106 83.4954 118.334C83.2968 118.562 83.1699 118.879 83.1145 119.286H85.3753V119.198C85.3492 118.801 85.2435 118.501 85.0579 118.299C84.8724 118.094 84.6152 117.992 84.2864 117.992Z" fill="#BFFBDE"/>
<defs>
<filter id="filter0_d" x="0" y="0" width="138" height="156" filterUnits="userSpaceOnUse" color-interpolation-filters="sRGB">
<feFlood flood-opacity="0" result="BackgroundImageFix"/>
<feColorMatrix in="SourceAlpha" type="matrix" values="0 0 0 0 0 0 0 0 0 0 0 0 0 0 0 0 0 0 127 0" result="hardAlpha"/>
<feOffset dy="4"/>
<feGaussianBlur stdDeviation="2"/>
<feColorMatrix type="matrix" values="0 0 0 0 0 0 0 0 0 0 0 0 0 0 0 0 0 0 0.25 0"/>
<feBlend mode="normal" in2="BackgroundImageFix" result="effect1_dropShadow"/>
<feBlend mode="normal" in="SourceGraphic" in2="effect1_dropShadow" result="shape"/>
</filter>
<linearGradient id="paint0_linear" x1="48.4469" y1="11.8276" x2="75.5593" y2="38.4194" gradientUnits="userSpaceOnUse">
<stop stop-color="#387EB8"/>
<stop offset="1" stop-color="#366994"/>
</linearGradient>
<linearGradient id="paint1_linear" x1="64.9353" y1="29.066" x2="94.0385" y2="56.3218" gradientUnits="userSpaceOnUse">
<stop stop-color="#FFE052"/>
<stop offset="1" stop-color="#FFC331"/>
</linearGradient>
<clipPath id="clip0">
<rect width="54.3386" height="54.6355" fill="white" transform="translate(43.2063 6.91589)"/>
</clipPath>
</defs>
</svg>
