<svg width="75" height="84" viewBox="0 0 75 84" fill="none" xmlns="http://www.w3.org/2000/svg">
<g filter="url(#filter0_d)">
<g filter="url(#filter1_d)">
<rect x="4" width="67" height="76" rx="33.5" fill="#405C50"/>
</g>
<g clip-path="url(#clip0)">
<path d="M38.0906 3.55942C30.9982 3.55942 31.4411 6.65276 31.4411 6.65276L31.449 9.85743H38.2171V10.8196H28.7608C28.7608 10.8196 24.2224 10.302 24.2224 17.4993C24.2224 24.6967 28.1836 24.4415 28.1836 24.4415H30.5477V21.1016C30.5477 21.1016 30.4202 17.1176 34.4456 17.1176H41.1584C41.1584 17.1176 44.9298 17.1789 44.9298 13.4517V7.28892C44.9298 7.28892 45.5024 3.55942 38.0906 3.55942ZM34.3587 5.71442C35.032 5.71442 35.5763 6.26179 35.5763 6.93903C35.5763 7.61627 35.032 8.16364 34.3587 8.16364C33.6853 8.16364 33.141 7.61627 33.141 6.93903C33.141 6.26179 33.6853 5.71442 34.3587 5.71442Z" fill="url(#paint0_linear)"/>
<path d="M38.2918 31.5113C45.3842 31.5113 44.9413 28.418 44.9413 28.418L44.9334 25.2133H38.1653V24.2511H47.6216C47.6216 24.2511 52.16 24.7688 52.16 17.5714C52.16 10.374 48.1988 10.6293 48.1988 10.6293H45.8347V13.9691C45.8347 13.9691 45.9621 17.9531 41.9367 17.9531H35.224C35.224 17.9531 31.4525 17.8918 31.4525 21.619V27.7818C31.4525 27.7818 30.8799 31.5113 38.2918 31.5113ZM42.0237 29.3563C41.3503 29.3563 40.8061 28.8089 40.8061 28.1317C40.8061 27.4545 41.3503 26.9071 42.0237 26.9071C42.6971 26.9071 43.2413 27.4545 43.2413 28.1317C43.2413 28.8089 42.6971 29.3563 42.0237 29.3563Z" fill="url(#paint1_linear)"/>
</g>
<rect x="9.31746" y="35.514" width="56.7196" height="33.028" rx="16" fill="#8AD4B5"/>
<path d="M18.3058 40.5768V42.4772C18.3058 42.7793 18.2088 43.0189 18.0148 43.196C17.822 43.3717 17.5649 43.4596 17.2433 43.4596C16.9178 43.4596 16.6593 43.373 16.4679 43.1999C16.2765 43.0254 16.1808 42.7838 16.1808 42.4753V40.5768H16.673V42.4792C16.673 42.6693 16.7211 42.8144 16.8175 42.9147C16.9138 43.015 17.0558 43.0651 17.2433 43.0651C17.6235 43.0651 17.8136 42.8646 17.8136 42.4635V40.5768H18.3058ZM19.2296 41.3073L19.2433 41.5514C19.3995 41.3626 19.6046 41.2682 19.8585 41.2682C20.2986 41.2682 20.5226 41.5202 20.5304 42.0241V43.4206H20.0558V42.0514C20.0558 41.9173 20.0265 41.8183 19.9679 41.7545C19.9106 41.6894 19.8162 41.6569 19.6847 41.6569C19.4933 41.6569 19.3507 41.7435 19.2569 41.9167V43.4206H18.7823V41.3073H19.2296ZM21.5206 43.4206H21.046V41.3073H21.5206V43.4206ZM21.0167 40.7585C21.0167 40.6855 21.0395 40.625 21.0851 40.5768C21.1319 40.5286 21.1983 40.5045 21.2843 40.5045C21.3702 40.5045 21.4366 40.5286 21.4835 40.5768C21.5304 40.625 21.5538 40.6855 21.5538 40.7585C21.5538 40.8301 21.5304 40.89 21.4835 40.9381C21.4366 40.985 21.3702 41.0085 21.2843 41.0085C21.1983 41.0085 21.1319 40.985 21.0851 40.9381C21.0395 40.89 21.0167 40.8301 21.0167 40.7585ZM22.7843 42.819L23.2316 41.3073H23.7218L22.9894 43.4206H22.5773L21.839 41.3073H22.3312L22.7843 42.819ZM24.923 43.4596C24.6222 43.4596 24.378 43.3652 24.1905 43.1764C24.0043 42.9863 23.9112 42.7337 23.9112 42.4186V42.36C23.9112 42.1491 23.9516 41.9609 24.0323 41.7956C24.1144 41.6289 24.2289 41.4993 24.3761 41.4069C24.5232 41.3144 24.6873 41.2682 24.8683 41.2682C25.156 41.2682 25.378 41.36 25.5343 41.5436C25.6918 41.7272 25.7706 41.987 25.7706 42.3229V42.5143H24.3898C24.4041 42.6888 24.462 42.8268 24.5636 42.9284C24.6664 43.0299 24.7954 43.0807 24.9503 43.0807C25.1678 43.0807 25.3448 42.9928 25.4816 42.817L25.7374 43.0612C25.6528 43.1875 25.5395 43.2858 25.3976 43.3561C25.2569 43.4251 25.0987 43.4596 24.923 43.4596ZM24.8663 41.6491C24.7361 41.6491 24.6306 41.6947 24.5499 41.7858C24.4705 41.8769 24.4197 42.0039 24.3976 42.1667H25.3019V42.1315C25.2914 41.9726 25.2491 41.8529 25.1749 41.7721C25.1007 41.6901 24.9978 41.6491 24.8663 41.6491ZM27.2472 41.7409C27.1847 41.7305 27.1202 41.7253 27.0538 41.7253C26.8364 41.7253 26.6899 41.8086 26.6144 41.9753V43.4206H26.1398V41.3073H26.5929L26.6046 41.5436C26.7192 41.36 26.878 41.2682 27.0812 41.2682C27.1489 41.2682 27.2049 41.2773 27.2491 41.2956L27.2472 41.7409ZM28.7316 42.8463C28.7316 42.7617 28.6964 42.6973 28.6261 42.653C28.5571 42.6087 28.4418 42.5697 28.2804 42.5358C28.1189 42.5019 27.9842 42.459 27.8761 42.4069C27.6391 42.2923 27.5206 42.1263 27.5206 41.9088C27.5206 41.7266 27.5974 41.5742 27.7511 41.4518C27.9047 41.3294 28.1 41.2682 28.337 41.2682C28.5896 41.2682 28.7934 41.3307 28.9483 41.4557C29.1046 41.5807 29.1827 41.7428 29.1827 41.942H28.7081C28.7081 41.8509 28.6743 41.7754 28.6066 41.7155C28.5388 41.6543 28.449 41.6237 28.337 41.6237C28.2329 41.6237 28.1476 41.6478 28.0812 41.696C28.0161 41.7441 27.9835 41.8086 27.9835 41.8893C27.9835 41.9622 28.0141 42.0189 28.0753 42.0592C28.1365 42.0996 28.2602 42.1406 28.4464 42.1823C28.6326 42.2226 28.7784 42.2715 28.8839 42.3288C28.9907 42.3848 29.0694 42.4525 29.1202 42.5319C29.1723 42.6113 29.1983 42.7077 29.1983 42.821C29.1983 43.0111 29.1196 43.1654 28.962 43.2838C28.8045 43.401 28.5981 43.4596 28.3429 43.4596C28.1697 43.4596 28.0154 43.4284 27.88 43.3659C27.7446 43.3034 27.6391 43.2174 27.5636 43.1081C27.4881 42.9987 27.4503 42.8808 27.4503 42.7545H27.9112C27.9178 42.8665 27.9601 42.9531 28.0382 43.0143C28.1163 43.0742 28.2198 43.1042 28.3487 43.1042C28.4737 43.1042 28.5688 43.0807 28.6339 43.0338C28.699 42.9857 28.7316 42.9232 28.7316 42.8463ZM30.1183 43.4206H29.6437V41.3073H30.1183V43.4206ZM29.6144 40.7585C29.6144 40.6855 29.6372 40.625 29.6827 40.5768C29.7296 40.5286 29.796 40.5045 29.8819 40.5045C29.9679 40.5045 30.0343 40.5286 30.0812 40.5768C30.128 40.625 30.1515 40.6855 30.1515 40.7585C30.1515 40.8301 30.128 40.89 30.0812 40.9381C30.0343 40.985 29.9679 41.0085 29.8819 41.0085C29.796 41.0085 29.7296 40.985 29.6827 40.9381C29.6372 40.89 29.6144 40.8301 29.6144 40.7585ZM31.2316 40.7936V41.3073H31.6046V41.6588H31.2316V42.8385C31.2316 42.9193 31.2472 42.9779 31.2784 43.0143C31.311 43.0495 31.3683 43.067 31.4503 43.067C31.505 43.067 31.5603 43.0605 31.6163 43.0475V43.4147C31.5082 43.4447 31.4041 43.4596 31.3038 43.4596C30.9392 43.4596 30.7569 43.2585 30.7569 42.8561V41.6588H30.4093V41.3073H30.7569V40.7936H31.2316ZM32.7081 42.7409L33.1378 41.3073H33.6437L32.8038 43.7409C32.6749 44.0963 32.4562 44.2741 32.1476 44.2741C32.0786 44.2741 32.0024 44.2624 31.9191 44.2389V43.8717L32.0089 43.8776C32.1287 43.8776 32.2185 43.8555 32.2784 43.8112C32.3396 43.7682 32.3878 43.6953 32.423 43.5924L32.4913 43.4108L31.7491 41.3073H32.2608L32.7081 42.7409ZM34.8253 42.3444C34.8253 42.1374 34.8663 41.9512 34.9483 41.7858C35.0304 41.6191 35.1456 41.4915 35.2941 41.403C35.4425 41.3131 35.6131 41.2682 35.8058 41.2682C36.0909 41.2682 36.322 41.36 36.4991 41.5436C36.6775 41.7272 36.7739 41.9707 36.7882 42.2741L36.7901 42.3854C36.7901 42.5937 36.7498 42.7799 36.6691 42.944C36.5896 43.1081 36.475 43.235 36.3253 43.3249C36.1769 43.4147 36.005 43.4596 35.8097 43.4596C35.5115 43.4596 35.2726 43.3607 35.0929 43.1628C34.9145 42.9635 34.8253 42.6986 34.8253 42.3678V42.3444ZM35.2999 42.3854C35.2999 42.6029 35.3448 42.7734 35.4347 42.8971C35.5245 43.0195 35.6495 43.0807 35.8097 43.0807C35.9698 43.0807 36.0942 43.0182 36.1827 42.8932C36.2726 42.7682 36.3175 42.5853 36.3175 42.3444C36.3175 42.1308 36.2713 41.9616 36.1788 41.8366C36.0877 41.7116 35.9633 41.6491 35.8058 41.6491C35.6508 41.6491 35.5278 41.7109 35.4366 41.8346C35.3455 41.957 35.2999 42.1406 35.2999 42.3854ZM37.3585 43.4206V41.6588H37.0362V41.3073H37.3585V41.1139C37.3585 40.8795 37.4236 40.6986 37.5538 40.571C37.684 40.4433 37.8663 40.3795 38.1007 40.3795C38.184 40.3795 38.2726 40.3913 38.3663 40.4147L38.3546 40.7858C38.3025 40.7754 38.242 40.7702 38.173 40.7702C37.9464 40.7702 37.8331 40.8867 37.8331 41.1198V41.3073H38.2628V41.6588H37.8331V43.4206H37.3585ZM40.2921 40.5768L41.1124 42.7565L41.9308 40.5768H42.5694V43.4206H42.0773V42.4831L42.1261 41.2292L41.2862 43.4206H40.9327L40.0948 41.2311L40.1437 42.4831V43.4206H39.6515V40.5768H40.2921ZM43.6144 43.4206H43.1398V41.3073H43.6144V43.4206ZM43.1105 40.7585C43.1105 40.6855 43.1332 40.625 43.1788 40.5768C43.2257 40.5286 43.2921 40.5045 43.378 40.5045C43.464 40.5045 43.5304 40.5286 43.5773 40.5768C43.6241 40.625 43.6476 40.6855 43.6476 40.7585C43.6476 40.8301 43.6241 40.89 43.5773 40.9381C43.5304 40.985 43.464 41.0085 43.378 41.0085C43.2921 41.0085 43.2257 40.985 43.1788 40.9381C43.1332 40.89 43.1105 40.8301 43.1105 40.7585ZM45.0011 43.0807C45.1196 43.0807 45.2179 43.0462 45.296 42.9772C45.3741 42.9082 45.4158 42.8229 45.421 42.7213H45.8683C45.8631 42.8529 45.822 42.9759 45.7452 43.0905C45.6684 43.2038 45.5642 43.2936 45.4327 43.36C45.3012 43.4264 45.1593 43.4596 45.0069 43.4596C44.7114 43.4596 44.477 43.3639 44.3038 43.1725C44.1306 42.9811 44.0441 42.7168 44.0441 42.3795V42.3307C44.0441 42.0091 44.13 41.7519 44.3019 41.5592C44.4737 41.3652 44.7081 41.2682 45.005 41.2682C45.2563 41.2682 45.4607 41.3418 45.6183 41.4889C45.7771 41.6348 45.8605 41.8268 45.8683 42.0651H45.421C45.4158 41.944 45.3741 41.8444 45.296 41.7663C45.2192 41.6881 45.1209 41.6491 45.0011 41.6491C44.8474 41.6491 44.7289 41.7051 44.6456 41.817C44.5623 41.9277 44.52 42.0963 44.5187 42.3229V42.3991C44.5187 42.6282 44.5597 42.7995 44.6417 42.9128C44.725 43.0247 44.8448 43.0807 45.0011 43.0807ZM46.6944 41.5378C46.8494 41.3581 47.0454 41.2682 47.2823 41.2682C47.7329 41.2682 47.9614 41.5254 47.9679 42.0397V43.4206H47.4933V42.0573C47.4933 41.9114 47.4614 41.8086 47.3976 41.7487C47.3351 41.6875 47.2426 41.6569 47.1202 41.6569C46.9301 41.6569 46.7882 41.7415 46.6944 41.9108V43.4206H46.2198V40.4206H46.6944V41.5378ZM48.9542 43.4206H48.4796V41.3073H48.9542V43.4206ZM48.4503 40.7585C48.4503 40.6855 48.4731 40.625 48.5187 40.5768C48.5655 40.5286 48.6319 40.5045 48.7179 40.5045C48.8038 40.5045 48.8702 40.5286 48.9171 40.5768C48.964 40.625 48.9874 40.6855 48.9874 40.7585C48.9874 40.8301 48.964 40.89 48.9171 40.9381C48.8702 40.985 48.8038 41.0085 48.7179 41.0085C48.6319 41.0085 48.5655 40.985 48.5187 40.9381C48.4731 40.89 48.4503 40.8301 48.4503 40.7585ZM49.3898 42.3483C49.3898 42.0202 49.4666 41.7585 49.6202 41.5631C49.7752 41.3665 49.9803 41.2682 50.2355 41.2682C50.4763 41.2682 50.6658 41.3522 50.8038 41.5202L50.8253 41.3073H51.253V43.3561C51.253 43.6335 51.1664 43.8522 50.9933 44.0124C50.8214 44.1725 50.589 44.2526 50.296 44.2526C50.1411 44.2526 49.9894 44.22 49.8409 44.1549C49.6938 44.0911 49.5818 44.0072 49.505 43.903L49.7296 43.6178C49.8754 43.791 50.0551 43.8776 50.2687 43.8776C50.4262 43.8776 50.5506 43.8346 50.6417 43.7487C50.7329 43.6641 50.7784 43.5391 50.7784 43.3737V43.2311C50.6417 43.3835 50.4594 43.4596 50.2316 43.4596C49.9842 43.4596 49.7817 43.3613 49.6241 43.1647C49.4679 42.9681 49.3898 42.696 49.3898 42.3483ZM49.8624 42.3893C49.8624 42.6016 49.9054 42.7689 49.9913 42.8913C50.0786 43.0124 50.199 43.0729 50.3526 43.0729C50.5441 43.0729 50.686 42.9909 50.7784 42.8268V41.8971C50.6886 41.737 50.548 41.6569 50.3566 41.6569C50.2003 41.6569 50.0786 41.7187 49.9913 41.8424C49.9054 41.9661 49.8624 42.1484 49.8624 42.3893ZM53.005 43.4206C52.9842 43.3802 52.9659 43.3144 52.9503 43.2233C52.7993 43.3808 52.6144 43.4596 52.3956 43.4596C52.1834 43.4596 52.0102 43.3991 51.8761 43.278C51.742 43.1569 51.6749 43.0072 51.6749 42.8288C51.6749 42.6035 51.7582 42.431 51.9249 42.3112C52.0929 42.1901 52.3325 42.1295 52.6437 42.1295H52.9347V41.9909C52.9347 41.8815 52.9041 41.7943 52.8429 41.7292C52.7817 41.6628 52.6886 41.6295 52.5636 41.6295C52.4555 41.6295 52.367 41.6569 52.298 41.7116C52.2289 41.765 52.1944 41.8333 52.1944 41.9167H51.7198C51.7198 41.8008 51.7582 41.6927 51.8351 41.5924C51.9119 41.4909 52.0161 41.4114 52.1476 41.3542C52.2804 41.2969 52.4282 41.2682 52.5909 41.2682C52.8383 41.2682 53.0356 41.3307 53.1827 41.4557C53.3299 41.5794 53.4054 41.7539 53.4093 41.9792V42.9323C53.4093 43.1224 53.436 43.2741 53.4894 43.3874V43.4206H53.005ZM52.4835 43.0788C52.5773 43.0788 52.6651 43.056 52.7472 43.0104C52.8305 42.9648 52.893 42.9036 52.9347 42.8268V42.4284H52.6788C52.503 42.4284 52.3709 42.459 52.2823 42.5202C52.1938 42.5814 52.1495 42.668 52.1495 42.7799C52.1495 42.8711 52.1795 42.944 52.2394 42.9987C52.3006 43.0521 52.3819 43.0788 52.4835 43.0788ZM54.3468 41.3073L54.3605 41.5514C54.5167 41.3626 54.7218 41.2682 54.9757 41.2682C55.4158 41.2682 55.6398 41.5202 55.6476 42.0241V43.4206H55.173V42.0514C55.173 41.9173 55.1437 41.8183 55.0851 41.7545C55.0278 41.6894 54.9334 41.6569 54.8019 41.6569C54.6105 41.6569 54.4679 41.7435 54.3741 41.9167V43.4206H53.8995V41.3073H54.3468ZM56.4191 42.9206C56.5076 42.9206 56.576 42.946 56.6241 42.9967C56.6723 43.0462 56.6964 43.1087 56.6964 43.1842C56.6964 43.2585 56.6723 43.3203 56.6241 43.3698C56.576 43.418 56.5076 43.442 56.4191 43.442C56.3344 43.442 56.2674 43.418 56.2179 43.3698C56.1684 43.3216 56.1437 43.2598 56.1437 43.1842C56.1437 43.1087 56.1678 43.0462 56.2159 42.9967C56.2641 42.946 56.3318 42.9206 56.4191 42.9206ZM56.4191 41.2624C56.5076 41.2624 56.576 41.2878 56.6241 41.3385C56.6723 41.388 56.6964 41.4505 56.6964 41.526C56.6964 41.6003 56.6723 41.6621 56.6241 41.7116C56.576 41.7598 56.5076 41.7838 56.4191 41.7838C56.3344 41.7838 56.2674 41.7598 56.2179 41.7116C56.1684 41.6634 56.1437 41.6016 56.1437 41.526C56.1437 41.4505 56.1678 41.388 56.2159 41.3385C56.2641 41.2878 56.3318 41.2624 56.4191 41.2624ZM17.587 47.3639V48.4206H17.0929V45.5768H18.1808C18.4985 45.5768 18.7504 45.6595 18.9366 45.8249C19.1241 45.9902 19.2179 46.209 19.2179 46.4811C19.2179 46.7598 19.1261 46.9766 18.9425 47.1315C18.7602 47.2864 18.5043 47.3639 18.1749 47.3639H17.587ZM17.587 46.9674H18.1808C18.3566 46.9674 18.4907 46.9264 18.5831 46.8444C18.6756 46.7611 18.7218 46.6413 18.7218 46.485C18.7218 46.3314 18.6749 46.209 18.5812 46.1178C18.4874 46.0254 18.3585 45.9779 18.1944 45.9753H17.587V46.9674ZM20.3761 47.7409L20.8058 46.3073H21.3116L20.4718 48.7409C20.3429 49.0963 20.1241 49.2741 19.8155 49.2741C19.7465 49.2741 19.6704 49.2624 19.587 49.2389V48.8717L19.6769 48.8776C19.7967 48.8776 19.8865 48.8555 19.9464 48.8112C20.0076 48.7682 20.0558 48.6953 20.0909 48.5924L20.1593 48.4108L19.4171 46.3073H19.9288L20.3761 47.7409ZM22.1808 45.7936V46.3073H22.5538V46.6588H22.1808V47.8385C22.1808 47.9193 22.1964 47.9779 22.2276 48.0143C22.2602 48.0495 22.3175 48.067 22.3995 48.067C22.4542 48.067 22.5095 48.0605 22.5655 48.0475V48.4147C22.4575 48.4447 22.3533 48.4596 22.253 48.4596C21.8885 48.4596 21.7062 48.2585 21.7062 47.8561V46.6588H21.3585V46.3073H21.7062V45.7936H22.1808ZM23.3858 46.5378C23.5408 46.3581 23.7368 46.2682 23.9737 46.2682C24.4243 46.2682 24.6528 46.5254 24.6593 47.0397V48.4206H24.1847V47.0573C24.1847 46.9114 24.1528 46.8086 24.089 46.7487C24.0265 46.6875 23.934 46.6569 23.8116 46.6569C23.6215 46.6569 23.4796 46.7415 23.3858 46.9108V48.4206H22.9112V45.4206H23.3858V46.5378ZM25.0519 47.3444C25.0519 47.1374 25.0929 46.9512 25.1749 46.7858C25.2569 46.6191 25.3722 46.4915 25.5206 46.403C25.6691 46.3131 25.8396 46.2682 26.0323 46.2682C26.3175 46.2682 26.5486 46.36 26.7257 46.5436C26.9041 46.7272 27.0004 46.9707 27.0148 47.2741L27.0167 47.3854C27.0167 47.5937 26.9763 47.7799 26.8956 47.944C26.8162 48.1081 26.7016 48.235 26.5519 48.3249C26.4034 48.4147 26.2316 48.4596 26.0362 48.4596C25.7381 48.4596 25.4991 48.3607 25.3194 48.1628C25.1411 47.9635 25.0519 47.6986 25.0519 47.3678V47.3444ZM25.5265 47.3854C25.5265 47.6029 25.5714 47.7734 25.6612 47.8971C25.7511 48.0195 25.8761 48.0807 26.0362 48.0807C26.1964 48.0807 26.3207 48.0182 26.4093 47.8932C26.4991 47.7682 26.5441 47.5853 26.5441 47.3444C26.5441 47.1308 26.4978 46.9616 26.4054 46.8366C26.3142 46.7116 26.1899 46.6491 26.0323 46.6491C25.8774 46.6491 25.7543 46.7109 25.6632 46.8346C25.572 46.957 25.5265 47.1406 25.5265 47.3854ZM27.8585 46.3073L27.8722 46.5514C28.0284 46.3626 28.2335 46.2682 28.4874 46.2682C28.9275 46.2682 29.1515 46.5202 29.1593 47.0241V48.4206H28.6847V47.0514C28.6847 46.9173 28.6554 46.8183 28.5968 46.7545C28.5395 46.6894 28.4451 46.6569 28.3136 46.6569C28.1222 46.6569 27.9796 46.7435 27.8858 46.9167V48.4206H27.4112V46.3073H27.8585ZM31.1808 47.3639V48.4206H30.6866V45.5768H31.7745C32.0922 45.5768 32.3442 45.6595 32.5304 45.8249C32.7179 45.9902 32.8116 46.209 32.8116 46.4811C32.8116 46.7598 32.7198 46.9766 32.5362 47.1315C32.3539 47.2864 32.0981 47.3639 31.7687 47.3639H31.1808ZM31.1808 46.9674H31.7745C31.9503 46.9674 32.0844 46.9264 32.1769 46.8444C32.2693 46.7611 32.3155 46.6413 32.3155 46.485C32.3155 46.3314 32.2687 46.209 32.1749 46.1178C32.0812 46.0254 31.9523 45.9779 31.7882 45.9753H31.1808V46.9674ZM34.3058 46.7409C34.2433 46.7305 34.1788 46.7253 34.1124 46.7253C33.895 46.7253 33.7485 46.8086 33.673 46.9753V48.4206H33.1983V46.3073H33.6515L33.6632 46.5436C33.7778 46.36 33.9366 46.2682 34.1398 46.2682C34.2075 46.2682 34.2635 46.2773 34.3077 46.2956L34.3058 46.7409ZM34.4464 47.3444C34.4464 47.1374 34.4874 46.9512 34.5694 46.7858C34.6515 46.6191 34.7667 46.4915 34.9151 46.403C35.0636 46.3131 35.2342 46.2682 35.4269 46.2682C35.712 46.2682 35.9431 46.36 36.1202 46.5436C36.2986 46.7272 36.395 46.9707 36.4093 47.2741L36.4112 47.3854C36.4112 47.5937 36.3709 47.7799 36.2901 47.944C36.2107 48.1081 36.0961 48.235 35.9464 48.3249C35.798 48.4147 35.6261 48.4596 35.4308 48.4596C35.1326 48.4596 34.8937 48.3607 34.714 48.1628C34.5356 47.9635 34.4464 47.6986 34.4464 47.3678V47.3444ZM34.921 47.3854C34.921 47.6029 34.9659 47.7734 35.0558 47.8971C35.1456 48.0195 35.2706 48.0807 35.4308 48.0807C35.5909 48.0807 35.7153 48.0182 35.8038 47.8932C35.8937 47.7682 35.9386 47.5853 35.9386 47.3444C35.9386 47.1308 35.8924 46.9616 35.7999 46.8366C35.7088 46.7116 35.5844 46.6491 35.4269 46.6491C35.2719 46.6491 35.1489 46.7109 35.0577 46.8346C34.9666 46.957 34.921 47.1406 34.921 47.3854ZM37.3077 46.3073V48.6081C37.3077 48.8242 37.2537 48.9889 37.1456 49.1022C37.0388 49.2168 36.8819 49.2741 36.6749 49.2741C36.5877 49.2741 36.5037 49.263 36.423 49.2409V48.8659C36.4724 48.8776 36.5284 48.8835 36.5909 48.8835C36.7485 48.8835 36.8292 48.7975 36.8331 48.6256V46.3073H37.3077ZM36.7921 45.7585C36.7921 45.6855 36.8149 45.625 36.8605 45.5768C36.9073 45.5286 36.9737 45.5045 37.0597 45.5045C37.1456 45.5045 37.212 45.5286 37.2589 45.5768C37.3058 45.625 37.3292 45.6855 37.3292 45.7585C37.3292 45.8301 37.3058 45.89 37.2589 45.9381C37.212 45.985 37.1456 46.0085 37.0597 46.0085C36.9737 46.0085 36.9073 45.985 36.8605 45.9381C36.8149 45.89 36.7921 45.8301 36.7921 45.7585ZM38.7472 48.4596C38.4464 48.4596 38.2023 48.3652 38.0148 48.1764C37.8286 47.9863 37.7355 47.7337 37.7355 47.4186V47.36C37.7355 47.1491 37.7758 46.9609 37.8566 46.7956C37.9386 46.6289 38.0532 46.4993 38.2003 46.4069C38.3474 46.3144 38.5115 46.2682 38.6925 46.2682C38.9803 46.2682 39.2023 46.36 39.3585 46.5436C39.5161 46.7272 39.5948 46.987 39.5948 47.3229V47.5143H38.214C38.2283 47.6888 38.2862 47.8268 38.3878 47.9284C38.4907 48.0299 38.6196 48.0807 38.7745 48.0807C38.992 48.0807 39.1691 47.9928 39.3058 47.817L39.5616 48.0612C39.477 48.1875 39.3637 48.2858 39.2218 48.3561C39.0812 48.4251 38.923 48.4596 38.7472 48.4596ZM38.6905 46.6491C38.5603 46.6491 38.4549 46.6947 38.3741 46.7858C38.2947 46.8769 38.2439 47.0039 38.2218 47.1667H39.1261V47.1315C39.1157 46.9726 39.0733 46.8529 38.9991 46.7721C38.9249 46.6901 38.822 46.6491 38.6905 46.6491ZM40.8331 48.0807C40.9516 48.0807 41.0499 48.0462 41.128 47.9772C41.2062 47.9082 41.2478 47.8229 41.253 47.7213H41.7003C41.6951 47.8529 41.6541 47.9759 41.5773 48.0905C41.5004 48.2038 41.3963 48.2936 41.2648 48.36C41.1332 48.4264 40.9913 48.4596 40.839 48.4596C40.5434 48.4596 40.309 48.3639 40.1358 48.1725C39.9627 47.9811 39.8761 47.7168 39.8761 47.3795V47.3307C39.8761 47.0091 39.962 46.7519 40.1339 46.5592C40.3058 46.3652 40.5401 46.2682 40.837 46.2682C41.0883 46.2682 41.2928 46.3418 41.4503 46.4889C41.6092 46.6348 41.6925 46.8268 41.7003 47.0651H41.253C41.2478 46.944 41.2062 46.8444 41.128 46.7663C41.0512 46.6881 40.9529 46.6491 40.8331 46.6491C40.6795 46.6491 40.561 46.7051 40.4776 46.817C40.3943 46.9277 40.352 47.0963 40.3507 47.3229V47.3991C40.3507 47.6282 40.3917 47.7995 40.4737 47.9128C40.5571 48.0247 40.6769 48.0807 40.8331 48.0807ZM42.6534 45.7936V46.3073H43.0265V46.6588H42.6534V47.8385C42.6534 47.9193 42.6691 47.9779 42.7003 48.0143C42.7329 48.0495 42.7901 48.067 42.8722 48.067C42.9269 48.067 42.9822 48.0605 43.0382 48.0475V48.4147C42.9301 48.4447 42.826 48.4596 42.7257 48.4596C42.3611 48.4596 42.1788 48.2585 42.1788 47.8561V46.6588H41.8312V46.3073H42.1788V45.7936H42.6534ZM43.6769 47.9206C43.7654 47.9206 43.8338 47.946 43.8819 47.9967C43.9301 48.0462 43.9542 48.1087 43.9542 48.1842C43.9542 48.2585 43.9301 48.3203 43.8819 48.3698C43.8338 48.418 43.7654 48.442 43.6769 48.442C43.5922 48.442 43.5252 48.418 43.4757 48.3698C43.4262 48.3216 43.4015 48.2598 43.4015 48.1842C43.4015 48.1087 43.4256 48.0462 43.4737 47.9967C43.5219 47.946 43.5896 47.9206 43.6769 47.9206ZM43.6769 46.2624C43.7654 46.2624 43.8338 46.2878 43.8819 46.3385C43.9301 46.388 43.9542 46.4505 43.9542 46.526C43.9542 46.6003 43.9301 46.6621 43.8819 46.7116C43.8338 46.7598 43.7654 46.7838 43.6769 46.7838C43.5922 46.7838 43.5252 46.7598 43.4757 46.7116C43.4262 46.6634 43.4015 46.6016 43.4015 46.526C43.4015 46.4505 43.4256 46.388 43.4737 46.3385C43.5219 46.2878 43.5896 46.2624 43.6769 46.2624ZM45.9894 47.3639V48.4206H45.4952V45.5768H46.5831C46.9008 45.5768 47.1528 45.6595 47.339 45.8249C47.5265 45.9902 47.6202 46.209 47.6202 46.4811C47.6202 46.7598 47.5284 46.9766 47.3448 47.1315C47.1625 47.2864 46.9067 47.3639 46.5773 47.3639H45.9894ZM45.9894 46.9674H46.5831C46.7589 46.9674 46.893 46.9264 46.9855 46.8444C47.0779 46.7611 47.1241 46.6413 47.1241 46.485C47.1241 46.3314 47.0773 46.209 46.9835 46.1178C46.8898 46.0254 46.7608 45.9779 46.5968 45.9753H45.9894V46.9674ZM48.5128 48.4206H48.0382V46.3073H48.5128V48.4206ZM48.0089 45.7585C48.0089 45.6855 48.0317 45.625 48.0773 45.5768C48.1241 45.5286 48.1905 45.5045 48.2765 45.5045C48.3624 45.5045 48.4288 45.5286 48.4757 45.5768C48.5226 45.625 48.546 45.6855 48.546 45.7585C48.546 45.8301 48.5226 45.89 48.4757 45.9381C48.4288 45.985 48.3624 46.0085 48.2765 46.0085C48.1905 46.0085 48.1241 45.985 48.0773 45.9381C48.0317 45.89 48.0089 45.8301 48.0089 45.7585ZM49.5362 48.4206H49.0616V45.4206H49.5362V48.4206ZM50.5597 48.4206H50.0851V45.4206H50.5597V48.4206ZM50.9894 47.3444C50.9894 47.1374 51.0304 46.9512 51.1124 46.7858C51.1944 46.6191 51.3097 46.4915 51.4581 46.403C51.6066 46.3131 51.7771 46.2682 51.9698 46.2682C52.255 46.2682 52.4861 46.36 52.6632 46.5436C52.8416 46.7272 52.9379 46.9707 52.9523 47.2741L52.9542 47.3854C52.9542 47.5937 52.9138 47.7799 52.8331 47.944C52.7537 48.1081 52.6391 48.235 52.4894 48.3249C52.3409 48.4147 52.1691 48.4596 51.9737 48.4596C51.6756 48.4596 51.4366 48.3607 51.2569 48.1628C51.0786 47.9635 50.9894 47.6986 50.9894 47.3678V47.3444ZM51.464 47.3854C51.464 47.6029 51.5089 47.7734 51.5987 47.8971C51.6886 48.0195 51.8136 48.0807 51.9737 48.0807C52.1339 48.0807 52.2582 48.0182 52.3468 47.8932C52.4366 47.7682 52.4816 47.5853 52.4816 47.3444C52.4816 47.1308 52.4353 46.9616 52.3429 46.8366C52.2517 46.7116 52.1274 46.6491 51.9698 46.6491C51.8149 46.6491 51.6918 46.7109 51.6007 46.8346C51.5095 46.957 51.464 47.1406 51.464 47.3854ZM55.212 47.7663L55.548 46.3073H56.0108L55.4347 48.4206H55.0441L54.5909 46.9694L54.1456 48.4206H53.755L53.1769 46.3073H53.6398L53.9816 47.7506L54.4151 46.3073H54.7726L55.212 47.7663ZM18.3526 50.9753H17.4659V53.4206H16.9757V50.9753H16.0968V50.5768H18.3526V50.9753ZM19.4366 53.4596C19.1358 53.4596 18.8917 53.3652 18.7042 53.1764C18.518 52.9863 18.4249 52.7337 18.4249 52.4186V52.36C18.4249 52.1491 18.4653 51.9609 18.546 51.7956C18.628 51.6289 18.7426 51.4993 18.8898 51.4069C19.0369 51.3144 19.201 51.2682 19.3819 51.2682C19.6697 51.2682 19.8917 51.36 20.048 51.5436C20.2055 51.7272 20.2843 51.987 20.2843 52.3229V52.5143H18.9034C18.9178 52.6888 18.9757 52.8268 19.0773 52.9284C19.1801 53.0299 19.309 53.0807 19.464 53.0807C19.6814 53.0807 19.8585 52.9928 19.9952 52.817L20.2511 53.0612C20.1664 53.1875 20.0532 53.2858 19.9112 53.3561C19.7706 53.4251 19.6124 53.4596 19.4366 53.4596ZM19.38 51.6491C19.2498 51.6491 19.1443 51.6947 19.0636 51.7858C18.9842 51.8769 18.9334 52.0039 18.9112 52.1667H19.8155V52.1315C19.8051 51.9726 19.7628 51.8529 19.6886 51.7721C19.6144 51.6901 19.5115 51.6491 19.38 51.6491ZM21.839 52.8463C21.839 52.7617 21.8038 52.6973 21.7335 52.653C21.6645 52.6087 21.5493 52.5697 21.3878 52.5358C21.2263 52.5019 21.0916 52.459 20.9835 52.4069C20.7465 52.2923 20.628 52.1263 20.628 51.9088C20.628 51.7266 20.7049 51.5742 20.8585 51.4518C21.0122 51.3294 21.2075 51.2682 21.4444 51.2682C21.697 51.2682 21.9008 51.3307 22.0558 51.4557C22.212 51.5807 22.2901 51.7428 22.2901 51.942H21.8155C21.8155 51.8509 21.7817 51.7754 21.714 51.7155C21.6463 51.6543 21.5564 51.6237 21.4444 51.6237C21.3403 51.6237 21.255 51.6478 21.1886 51.696C21.1235 51.7441 21.0909 51.8086 21.0909 51.8893C21.0909 51.9622 21.1215 52.0189 21.1827 52.0592C21.2439 52.0996 21.3676 52.1406 21.5538 52.1823C21.74 52.2226 21.8858 52.2715 21.9913 52.3288C22.0981 52.3848 22.1769 52.4525 22.2276 52.5319C22.2797 52.6113 22.3058 52.7077 22.3058 52.821C22.3058 53.0111 22.227 53.1654 22.0694 53.2838C21.9119 53.401 21.7055 53.4596 21.4503 53.4596C21.2771 53.4596 21.1228 53.4284 20.9874 53.3659C20.852 53.3034 20.7465 53.2174 20.671 53.1081C20.5955 52.9987 20.5577 52.8808 20.5577 52.7545H21.0187C21.0252 52.8665 21.0675 52.9531 21.1456 53.0143C21.2237 53.0742 21.3273 53.1042 21.4562 53.1042C21.5812 53.1042 21.6762 53.0807 21.7413 53.0338C21.8064 52.9857 21.839 52.9232 21.839 52.8463ZM23.9054 52.8463C23.9054 52.7617 23.8702 52.6973 23.7999 52.653C23.7309 52.6087 23.6157 52.5697 23.4542 52.5358C23.2928 52.5019 23.158 52.459 23.0499 52.4069C22.8129 52.2923 22.6944 52.1263 22.6944 51.9088C22.6944 51.7266 22.7713 51.5742 22.9249 51.4518C23.0786 51.3294 23.2739 51.2682 23.5108 51.2682C23.7635 51.2682 23.9672 51.3307 24.1222 51.4557C24.2784 51.5807 24.3566 51.7428 24.3566 51.942H23.8819C23.8819 51.8509 23.8481 51.7754 23.7804 51.7155C23.7127 51.6543 23.6228 51.6237 23.5108 51.6237C23.4067 51.6237 23.3214 51.6478 23.255 51.696C23.1899 51.7441 23.1573 51.8086 23.1573 51.8893C23.1573 51.9622 23.1879 52.0189 23.2491 52.0592C23.3103 52.0996 23.434 52.1406 23.6202 52.1823C23.8064 52.2226 23.9523 52.2715 24.0577 52.3288C24.1645 52.3848 24.2433 52.4525 24.2941 52.5319C24.3461 52.6113 24.3722 52.7077 24.3722 52.821C24.3722 53.0111 24.2934 53.1654 24.1358 53.2838C23.9783 53.401 23.7719 53.4596 23.5167 53.4596C23.3435 53.4596 23.1892 53.4284 23.0538 53.3659C22.9184 53.3034 22.8129 53.2174 22.7374 53.1081C22.6619 52.9987 22.6241 52.8808 22.6241 52.7545H23.0851C23.0916 52.8665 23.1339 52.9531 23.212 53.0143C23.2901 53.0742 23.3937 53.1042 23.5226 53.1042C23.6476 53.1042 23.7426 53.0807 23.8077 53.0338C23.8728 52.9857 23.9054 52.9232 23.9054 52.8463ZM26.0499 53.4206C26.0291 53.3802 26.0108 53.3144 25.9952 53.2233C25.8442 53.3808 25.6593 53.4596 25.4405 53.4596C25.2283 53.4596 25.0551 53.3991 24.921 53.278C24.7869 53.1569 24.7198 53.0072 24.7198 52.8288C24.7198 52.6035 24.8032 52.431 24.9698 52.3112C25.1378 52.1901 25.3774 52.1295 25.6886 52.1295H25.9796V51.9909C25.9796 51.8815 25.949 51.7943 25.8878 51.7292C25.8266 51.6628 25.7335 51.6295 25.6085 51.6295C25.5004 51.6295 25.4119 51.6569 25.3429 51.7116C25.2739 51.765 25.2394 51.8333 25.2394 51.9167H24.7648C24.7648 51.8008 24.8032 51.6927 24.88 51.5924C24.9568 51.4909 25.061 51.4114 25.1925 51.3542C25.3253 51.2969 25.4731 51.2682 25.6358 51.2682C25.8832 51.2682 26.0805 51.3307 26.2276 51.4557C26.3748 51.5794 26.4503 51.7539 26.4542 51.9792V52.9323C26.4542 53.1224 26.4809 53.2741 26.5343 53.3874V53.4206H26.0499ZM25.5284 53.0788C25.6222 53.0788 25.7101 53.056 25.7921 53.0104C25.8754 52.9648 25.9379 52.9036 25.9796 52.8268V52.4284H25.7237C25.548 52.4284 25.4158 52.459 25.3273 52.5202C25.2387 52.5814 25.1944 52.668 25.1944 52.7799C25.1944 52.8711 25.2244 52.944 25.2843 52.9987C25.3455 53.0521 25.4269 53.0788 25.5284 53.0788ZM28.0577 51.7409C27.9952 51.7305 27.9308 51.7253 27.8644 51.7253C27.6469 51.7253 27.5004 51.8086 27.4249 51.9753V53.4206H26.9503V51.3073H27.4034L27.4151 51.5436C27.5297 51.36 27.6886 51.2682 27.8917 51.2682C27.9594 51.2682 28.0154 51.2773 28.0597 51.2956L28.0577 51.7409ZM29.5616 53.4206C29.5408 53.3802 29.5226 53.3144 29.5069 53.2233C29.3559 53.3808 29.171 53.4596 28.9523 53.4596C28.74 53.4596 28.5668 53.3991 28.4327 53.278C28.2986 53.1569 28.2316 53.0072 28.2316 52.8288C28.2316 52.6035 28.3149 52.431 28.4816 52.3112C28.6495 52.1901 28.8891 52.1295 29.2003 52.1295H29.4913V51.9909C29.4913 51.8815 29.4607 51.7943 29.3995 51.7292C29.3383 51.6628 29.2452 51.6295 29.1202 51.6295C29.0122 51.6295 28.9236 51.6569 28.8546 51.7116C28.7856 51.765 28.7511 51.8333 28.7511 51.9167H28.2765C28.2765 51.8008 28.3149 51.6927 28.3917 51.5924C28.4685 51.4909 28.5727 51.4114 28.7042 51.3542C28.837 51.2969 28.9848 51.2682 29.1476 51.2682C29.395 51.2682 29.5922 51.3307 29.7394 51.4557C29.8865 51.5794 29.962 51.7539 29.9659 51.9792V52.9323C29.9659 53.1224 29.9926 53.2741 30.046 53.3874V53.4206H29.5616ZM29.0401 53.0788C29.1339 53.0788 29.2218 53.056 29.3038 53.0104C29.3872 52.9648 29.4497 52.9036 29.4913 52.8268V52.4284H29.2355C29.0597 52.4284 28.9275 52.459 28.839 52.5202C28.7504 52.5814 28.7062 52.668 28.7062 52.7799C28.7062 52.8711 28.7361 52.944 28.796 52.9987C28.8572 53.0521 28.9386 53.0788 29.0401 53.0788ZM31.3312 53.0807C31.4497 53.0807 31.548 53.0462 31.6261 52.9772C31.7042 52.9082 31.7459 52.8229 31.7511 52.7213H32.1983C32.1931 52.8529 32.1521 52.9759 32.0753 53.0905C31.9985 53.2038 31.8943 53.2936 31.7628 53.36C31.6313 53.4264 31.4894 53.4596 31.337 53.4596C31.0414 53.4596 30.8071 53.3639 30.6339 53.1725C30.4607 52.9811 30.3741 52.7168 30.3741 52.3795V52.3307C30.3741 52.0091 30.4601 51.7519 30.6319 51.5592C30.8038 51.3652 31.0382 51.2682 31.3351 51.2682C31.5864 51.2682 31.7908 51.3418 31.9483 51.4889C32.1072 51.6348 32.1905 51.8268 32.1983 52.0651H31.7511C31.7459 51.944 31.7042 51.8444 31.6261 51.7663C31.5493 51.6881 31.451 51.6491 31.3312 51.6491C31.1775 51.6491 31.059 51.7051 30.9757 51.817C30.8924 51.9277 30.85 52.0963 30.8487 52.3229V52.3991C30.8487 52.6282 30.8898 52.7995 30.9718 52.9128C31.0551 53.0247 31.1749 53.0807 31.3312 53.0807ZM33.1515 50.7936V51.3073H33.5245V51.6588H33.1515V52.8385C33.1515 52.9193 33.1671 52.9779 33.1983 53.0143C33.2309 53.0495 33.2882 53.067 33.3702 53.067C33.4249 53.067 33.4803 53.0605 33.5362 53.0475V53.4147C33.4282 53.4447 33.324 53.4596 33.2237 53.4596C32.8592 53.4596 32.6769 53.2585 32.6769 52.8561V51.6588H32.3292V51.3073H32.6769V50.7936H33.1515ZM36.1476 53.4206C36.1267 53.3802 36.1085 53.3144 36.0929 53.2233C35.9418 53.3808 35.7569 53.4596 35.5382 53.4596C35.326 53.4596 35.1528 53.3991 35.0187 53.278C34.8845 53.1569 34.8175 53.0072 34.8175 52.8288C34.8175 52.6035 34.9008 52.431 35.0675 52.3112C35.2355 52.1901 35.475 52.1295 35.7862 52.1295H36.0773V51.9909C36.0773 51.8815 36.0467 51.7943 35.9855 51.7292C35.9243 51.6628 35.8312 51.6295 35.7062 51.6295C35.5981 51.6295 35.5095 51.6569 35.4405 51.7116C35.3715 51.765 35.337 51.8333 35.337 51.9167H34.8624C34.8624 51.8008 34.9008 51.6927 34.9776 51.5924C35.0545 51.4909 35.1586 51.4114 35.2901 51.3542C35.423 51.2969 35.5707 51.2682 35.7335 51.2682C35.9809 51.2682 36.1782 51.3307 36.3253 51.4557C36.4724 51.5794 36.548 51.7539 36.5519 51.9792V52.9323C36.5519 53.1224 36.5786 53.2741 36.6319 53.3874V53.4206H36.1476ZM35.6261 53.0788C35.7198 53.0788 35.8077 53.056 35.8898 53.0104C35.9731 52.9648 36.0356 52.9036 36.0773 52.8268V52.4284H35.8214C35.6456 52.4284 35.5135 52.459 35.4249 52.5202C35.3364 52.5814 35.2921 52.668 35.2921 52.7799C35.2921 52.8711 35.322 52.944 35.3819 52.9987C35.4431 53.0521 35.5245 53.0788 35.6261 53.0788ZM37.4894 51.3073L37.503 51.5514C37.6593 51.3626 37.8644 51.2682 38.1183 51.2682C38.5584 51.2682 38.7823 51.5202 38.7901 52.0241V53.4206H38.3155V52.0514C38.3155 51.9173 38.2862 51.8183 38.2276 51.7545C38.1704 51.6894 38.076 51.6569 37.9444 51.6569C37.753 51.6569 37.6105 51.7435 37.5167 51.9167V53.4206H37.0421V51.3073H37.4894ZM39.1866 52.3483C39.1866 52.0228 39.2622 51.7617 39.4132 51.5651C39.5642 51.3672 39.7667 51.2682 40.0206 51.2682C40.2446 51.2682 40.4256 51.3463 40.5636 51.5026V50.4206H41.0382V53.4206H40.6085L40.5851 53.2018C40.4431 53.3737 40.2537 53.4596 40.0167 53.4596C39.7693 53.4596 39.5688 53.36 39.4151 53.1608C39.2628 52.9616 39.1866 52.6907 39.1866 52.3483ZM39.6612 52.3893C39.6612 52.6042 39.7023 52.7721 39.7843 52.8932C39.8676 53.013 39.9855 53.0729 40.1378 53.0729C40.3318 53.0729 40.4737 52.9863 40.5636 52.8131V51.9108C40.4763 51.7415 40.3357 51.6569 40.1417 51.6569C39.9881 51.6569 39.8696 51.7181 39.7862 51.8405C39.7029 51.9616 39.6612 52.1445 39.6612 52.3893ZM44.8448 52.0729C44.8448 52.3516 44.7967 52.5963 44.7003 52.8073C44.6039 53.0169 44.4659 53.1784 44.2862 53.2917C44.1079 53.4036 43.9021 53.4596 43.6691 53.4596C43.4386 53.4596 43.2329 53.4036 43.0519 53.2917C42.8722 53.1784 42.7329 53.0176 42.6339 52.8092C42.5362 52.6009 42.4868 52.3607 42.4855 52.0885V51.9284C42.4855 51.651 42.5343 51.4062 42.6319 51.194C42.7309 50.9818 42.8696 50.8197 43.048 50.7077C43.2276 50.5944 43.4334 50.5378 43.6651 50.5378C43.8969 50.5378 44.102 50.5937 44.2804 50.7057C44.4601 50.8164 44.5987 50.9766 44.6964 51.1862C44.7941 51.3945 44.8435 51.6374 44.8448 51.9147V52.0729ZM44.3507 51.9245C44.3507 51.6094 44.2908 51.3678 44.171 51.1999C44.0525 51.0319 43.8839 50.9479 43.6651 50.9479C43.4516 50.9479 43.2843 51.0319 43.1632 51.1999C43.0434 51.3665 42.9822 51.6029 42.9796 51.9088V52.0729C42.9796 52.3854 43.0401 52.6269 43.1612 52.7975C43.2836 52.9681 43.4529 53.0534 43.6691 53.0534C43.8878 53.0534 44.0558 52.97 44.173 52.8034C44.2914 52.6367 44.3507 52.3932 44.3507 52.0729V51.9245ZM47.1417 52.3854C47.1417 52.7122 47.0675 52.9733 46.9191 53.1686C46.7706 53.3626 46.5714 53.4596 46.3214 53.4596C46.0896 53.4596 45.9041 53.3835 45.7648 53.2311V54.2331H45.2901V51.3073H45.7276L45.7472 51.5221C45.8865 51.3529 46.076 51.2682 46.3155 51.2682C46.5733 51.2682 46.7752 51.3646 46.921 51.5573C47.0681 51.7487 47.1417 52.015 47.1417 52.3561V52.3854ZM46.6691 52.3444C46.6691 52.1335 46.6267 51.9661 46.5421 51.8424C46.4588 51.7187 46.339 51.6569 46.1827 51.6569C45.9887 51.6569 45.8494 51.737 45.7648 51.8971V52.8346C45.8507 52.9987 45.9913 53.0807 46.1866 53.0807C46.3377 53.0807 46.4555 53.0202 46.5401 52.8991C46.6261 52.7767 46.6691 52.5918 46.6691 52.3444ZM48.4757 53.4596C48.1749 53.4596 47.9308 53.3652 47.7433 53.1764C47.5571 52.9863 47.464 52.7337 47.464 52.4186V52.36C47.464 52.1491 47.5043 51.9609 47.5851 51.7956C47.6671 51.6289 47.7817 51.4993 47.9288 51.4069C48.076 51.3144 48.24 51.2682 48.421 51.2682C48.7088 51.2682 48.9308 51.36 49.087 51.5436C49.2446 51.7272 49.3233 51.987 49.3233 52.3229V52.5143H47.9425C47.9568 52.6888 48.0148 52.8268 48.1163 52.9284C48.2192 53.0299 48.3481 53.0807 48.503 53.0807C48.7205 53.0807 48.8976 52.9928 49.0343 52.817L49.2901 53.0612C49.2055 53.1875 49.0922 53.2858 48.9503 53.3561C48.8097 53.4251 48.6515 53.4596 48.4757 53.4596ZM48.4191 51.6491C48.2888 51.6491 48.1834 51.6947 48.1026 51.7858C48.0232 51.8769 47.9724 52.0039 47.9503 52.1667H48.8546V52.1315C48.8442 51.9726 48.8019 51.8529 48.7276 51.7721C48.6534 51.6901 48.5506 51.6491 48.4191 51.6491ZM50.1339 51.3073L50.1476 51.5514C50.3038 51.3626 50.5089 51.2682 50.7628 51.2682C51.2029 51.2682 51.4269 51.5202 51.4347 52.0241V53.4206H50.9601V52.0514C50.9601 51.9173 50.9308 51.8183 50.8722 51.7545C50.8149 51.6894 50.7205 51.6569 50.589 51.6569C50.3976 51.6569 50.255 51.7435 50.1612 51.9167V53.4206H49.6866V51.3073H50.1339ZM54.1358 52.4948C54.1072 52.7982 53.9952 53.0351 53.7999 53.2057C53.6046 53.375 53.3448 53.4596 53.0206 53.4596C52.7941 53.4596 52.5942 53.4062 52.421 53.2995C52.2491 53.1914 52.1163 53.0384 52.0226 52.8405C51.9288 52.6426 51.88 52.4128 51.8761 52.151V51.8854C51.8761 51.6172 51.9236 51.3808 52.0187 51.1764C52.1137 50.972 52.2498 50.8144 52.4269 50.7038C52.6053 50.5931 52.811 50.5378 53.0441 50.5378C53.3579 50.5378 53.6105 50.623 53.8019 50.7936C53.9933 50.9642 54.1046 51.2051 54.1358 51.5163H53.6437C53.6202 51.3118 53.5603 51.1647 53.464 51.0749C53.3689 50.9837 53.2289 50.9381 53.0441 50.9381C52.8292 50.9381 52.6638 51.0169 52.548 51.1745C52.4334 51.3307 52.3748 51.5605 52.3722 51.8639V52.1159C52.3722 52.4232 52.4269 52.6575 52.5362 52.819C52.6469 52.9805 52.8084 53.0612 53.0206 53.0612C53.2146 53.0612 53.3605 53.0176 53.4581 52.9303C53.5558 52.8431 53.6176 52.6979 53.6437 52.4948H54.1358ZM55.5812 52.8014L56.3038 50.5768H56.8468L55.8233 53.4206H55.3448L54.3253 50.5768H54.8663L55.5812 52.8014Z" fill="#0B406C"/>
<path d="M27.701 62.0858C27.6652 62.465 27.5252 62.7612 27.2811 62.9744C27.0369 63.186 26.7122 63.2918 26.3069 63.2918C26.0237 63.2918 25.7739 63.2251 25.5574 63.0916C25.3426 62.9565 25.1766 62.7653 25.0594 62.5179C24.9422 62.2705 24.8811 61.9832 24.8763 61.6561V61.324C24.8763 60.9888 24.9357 60.6934 25.0545 60.4378C25.1733 60.1823 25.3434 59.9853 25.5647 59.847C25.7877 59.7086 26.0449 59.6395 26.3362 59.6395C26.7285 59.6395 27.0442 59.7461 27.2835 59.9593C27.5228 60.1725 27.6619 60.4736 27.701 60.8626H27.0857C27.0564 60.6071 26.9816 60.4232 26.8611 60.3109C26.7423 60.1969 26.5673 60.14 26.3362 60.14C26.0677 60.14 25.861 60.2384 25.7161 60.4354C25.5729 60.6307 25.4996 60.918 25.4964 61.2972V61.6121C25.4964 61.9962 25.5647 62.2892 25.7015 62.491C25.8398 62.6929 26.0416 62.7938 26.3069 62.7938C26.5494 62.7938 26.7317 62.7392 26.8538 62.6302C26.9759 62.5211 27.0532 62.3397 27.0857 62.0858H27.701ZM28.8289 63.243H28.2356V59.493H28.8289V63.243ZM30.1082 63.243H29.5149V60.6014H30.1082V63.243ZM29.4783 59.9154C29.4783 59.8242 29.5068 59.7485 29.5638 59.6883C29.6224 59.6281 29.7054 59.598 29.8128 59.598C29.9202 59.598 30.0032 59.6281 30.0618 59.6883C30.1204 59.7485 30.1497 59.8242 30.1497 59.9154C30.1497 60.0049 30.1204 60.0797 30.0618 60.14C30.0032 60.1986 29.9202 60.2279 29.8128 60.2279C29.7054 60.2279 29.6224 60.1986 29.5638 60.14C29.5068 60.0797 29.4783 60.0049 29.4783 59.9154ZM31.8416 62.8182C31.9897 62.8182 32.1126 62.7751 32.2103 62.6888C32.3079 62.6025 32.36 62.4959 32.3665 62.369H32.9256C32.9191 62.5334 32.8678 62.6872 32.7718 62.8304C32.6757 62.972 32.5455 63.0843 32.3811 63.1673C32.2168 63.2503 32.0394 63.2918 31.8489 63.2918C31.4795 63.2918 31.1865 63.1722 30.97 62.9329C30.7535 62.6937 30.6453 62.3633 30.6453 61.9417V61.8807C30.6453 61.4787 30.7527 61.1572 30.9676 60.9163C31.1824 60.6738 31.4754 60.5526 31.8465 60.5526C32.1606 60.5526 32.4161 60.6445 32.6131 60.8284C32.8117 61.0107 32.9158 61.2508 32.9256 61.5487H32.3665C32.36 61.3973 32.3079 61.2728 32.2103 61.1751C32.1142 61.0775 31.9913 61.0286 31.8416 61.0286C31.6495 61.0286 31.5014 61.0986 31.3973 61.2386C31.2931 61.3769 31.2402 61.5877 31.2386 61.8709V61.9661C31.2386 62.2526 31.2898 62.4666 31.3924 62.6082C31.4965 62.7482 31.6463 62.8182 31.8416 62.8182ZM34.2317 62.1102L33.9681 62.3812V63.243H33.3748V59.493H33.9681V61.6561L34.1536 61.4241L34.8836 60.6014H35.5965L34.615 61.7025L35.7015 63.243H35.0154L34.2317 62.1102ZM37.8157 60.8895C38.0094 60.6649 38.2544 60.5526 38.5506 60.5526C39.1137 60.5526 39.3994 60.874 39.4075 61.5169V63.243H38.8143V61.5389C38.8143 61.3566 38.7744 61.228 38.6946 61.1531C38.6165 61.0767 38.5009 61.0384 38.3479 61.0384C38.1103 61.0384 37.9329 61.1442 37.8157 61.3558V63.243H37.2225V59.493H37.8157V60.8895ZM41.1727 63.2918C40.7967 63.2918 40.4915 63.1738 40.2571 62.9378C40.0244 62.7002 39.908 62.3844 39.908 61.9906V61.9173C39.908 61.6536 39.9585 61.4184 40.0594 61.2117C40.1619 61.0034 40.3051 60.8415 40.4891 60.7259C40.673 60.6103 40.8781 60.5526 41.1043 60.5526C41.464 60.5526 41.7415 60.6673 41.9368 60.8968C42.1338 61.1263 42.2322 61.451 42.2322 61.8709V62.1102H40.5061C40.5241 62.3283 40.5965 62.5008 40.7234 62.6278C40.852 62.7547 41.0131 62.8182 41.2068 62.8182C41.4786 62.8182 41.7 62.7083 41.8709 62.4886L42.1907 62.7938C42.0849 62.9517 41.9433 63.0745 41.7659 63.1624C41.5901 63.2487 41.3924 63.2918 41.1727 63.2918ZM41.1019 61.0286C40.9391 61.0286 40.8073 61.0856 40.7063 61.1995C40.6071 61.3135 40.5436 61.4722 40.5159 61.6756H41.6463V61.6317C41.6333 61.4331 41.5804 61.2834 41.4876 61.1824C41.3948 61.0799 41.2662 61.0286 41.1019 61.0286ZM44.0779 61.1434C43.9998 61.1304 43.9192 61.1239 43.8362 61.1239C43.5644 61.1239 43.3813 61.228 43.2869 61.4364V63.243H42.6936V60.6014H43.2601L43.2747 60.8968C43.4179 60.6673 43.6165 60.5526 43.8704 60.5526C43.955 60.5526 44.025 60.564 44.0804 60.5867L44.0779 61.1434ZM45.5672 63.2918C45.1912 63.2918 44.886 63.1738 44.6517 62.9378C44.4189 62.7002 44.3025 62.3844 44.3025 61.9906V61.9173C44.3025 61.6536 44.353 61.4184 44.4539 61.2117C44.5564 61.0034 44.6997 60.8415 44.8836 60.7259C45.0675 60.6103 45.2726 60.5526 45.4988 60.5526C45.8585 60.5526 46.136 60.6673 46.3313 60.8968C46.5283 61.1263 46.6268 61.451 46.6268 61.8709V62.1102H44.9007C44.9186 62.3283 44.991 62.5008 45.118 62.6278C45.2465 62.7547 45.4077 62.8182 45.6014 62.8182C45.8732 62.8182 46.0945 62.7083 46.2654 62.4886L46.5853 62.7938C46.4795 62.9517 46.3379 63.0745 46.1604 63.1624C45.9847 63.2487 45.7869 63.2918 45.5672 63.2918ZM45.4964 61.0286C45.3336 61.0286 45.2018 61.0856 45.1009 61.1995C45.0016 61.3135 44.9381 61.4722 44.9104 61.6756H46.0408V61.6317C46.0278 61.4331 45.9749 61.2834 45.8821 61.1824C45.7894 61.0799 45.6608 61.0286 45.4964 61.0286Z" fill="#BFFBDE"/>
</g>
<defs>
<filter id="filter0_d" x="0" y="0" width="75" height="84" filterUnits="userSpaceOnUse" color-interpolation-filters="sRGB">
<feFlood flood-opacity="0" result="BackgroundImageFix"/>
<feColorMatrix in="SourceAlpha" type="matrix" values="0 0 0 0 0 0 0 0 0 0 0 0 0 0 0 0 0 0 127 0" result="hardAlpha"/>
<feOffset dy="4"/>
<feGaussianBlur stdDeviation="2"/>
<feColorMatrix type="matrix" values="0 0 0 0 0 0 0 0 0 0 0 0 0 0 0 0 0 0 0.25 0"/>
<feBlend mode="normal" in2="BackgroundImageFix" result="effect1_dropShadow"/>
<feBlend mode="normal" in="SourceGraphic" in2="effect1_dropShadow" result="shape"/>
</filter>
<filter id="filter1_d" x="0" y="0" width="75" height="84" filterUnits="userSpaceOnUse" color-interpolation-filters="sRGB">
<feFlood flood-opacity="0" result="BackgroundImageFix"/>
<feColorMatrix in="SourceAlpha" type="matrix" values="0 0 0 0 0 0 0 0 0 0 0 0 0 0 0 0 0 0 127 0" result="hardAlpha"/>
<feOffset dy="4"/>
<feGaussianBlur stdDeviation="2"/>
<feColorMatrix type="matrix" values="0 0 0 0 0 0 0 0 0 0 0 0 0 0 0 0 0 0 0.25 0"/>
<feBlend mode="normal" in2="BackgroundImageFix" result="effect1_dropShadow"/>
<feBlend mode="normal" in="SourceGraphic" in2="effect1_dropShadow" result="shape"/>
</filter>
<linearGradient id="paint0_linear" x1="26.9072" y1="6.07362" x2="40.8307" y2="19.7795" gradientUnits="userSpaceOnUse">
<stop stop-color="#387EB8"/>
<stop offset="1" stop-color="#366994"/>
</linearGradient>
<linearGradient id="paint1_linear" x1="35.4051" y1="14.9257" x2="50.3535" y2="28.9762" gradientUnits="userSpaceOnUse">
<stop stop-color="#FFE052"/>
<stop offset="1" stop-color="#FFC331"/>
</linearGradient>
<clipPath id="clip0">
<rect width="28.0053" height="28.0561" fill="white" transform="translate(24.2063 3.5514)"/>
</clipPath>
</defs>
</svg>
