<svg width="197" height="222" viewBox="0 0 197 222" fill="none" xmlns="http://www.w3.org/2000/svg">
<g filter="url(#filter0_d)">
<rect x="4" width="189" height="214" rx="39" fill="#405C50"/>
</g>
<path d="M100.166 10.0227C80.1592 10.0227 81.4085 18.7329 81.4085 18.7329L81.4308 27.7566H100.523V30.4659H73.8475C73.8475 30.4659 61.0452 29.0083 61.0452 49.2746C61.0452 69.5408 72.2194 68.8221 72.2194 68.8221H78.8882V59.4178C78.8882 59.4178 78.5287 48.1998 89.884 48.1998H108.82C108.82 48.1998 119.459 48.3724 119.459 37.8774V20.5242C119.459 20.5242 121.074 10.0227 100.166 10.0227ZM89.6386 16.0907C91.5381 16.0907 93.0734 17.632 93.0734 19.539C93.0734 21.446 91.5381 22.9872 89.6386 22.9872C87.7391 22.9872 86.2038 21.446 86.2038 19.539C86.2038 17.632 87.7391 16.0907 89.6386 16.0907Z" fill="url(#paint0_linear)"/>
<path d="M100.734 88.7293C120.74 88.7293 119.491 80.0191 119.491 80.0191L119.469 70.9955H100.377V68.2861H127.052C127.052 68.2861 139.854 69.7437 139.854 49.4775C139.854 29.2112 128.68 29.9299 128.68 29.9299H122.011V39.3342C122.011 39.3342 122.371 50.5522 111.016 50.5522H92.0798C92.0798 50.5522 81.4409 50.3796 81.4409 60.8746V78.2278C81.4409 78.2278 79.8256 88.7293 100.734 88.7293ZM111.261 82.6613C109.362 82.6613 107.826 81.12 107.826 79.213C107.826 77.3061 109.362 75.7648 111.261 75.7648C113.161 75.7648 114.696 77.3061 114.696 79.213C114.696 81.12 113.161 82.6613 111.261 82.6613Z" fill="url(#paint1_linear)"/>
<rect x="19" y="100" width="160" height="93" rx="16" fill="#8AD4B5"/>
<path d="M33.5146 121.047V127.698C33.5146 128.756 33.1751 129.594 32.4961 130.214C31.8216 130.829 30.9215 131.137 29.7959 131.137C28.6566 131.137 27.752 130.834 27.082 130.228C26.4121 129.617 26.0771 128.771 26.0771 127.691V121.047H27.7998V127.705C27.7998 128.37 27.9684 128.879 28.3057 129.229C28.6429 129.58 29.1396 129.756 29.7959 129.756C31.1266 129.756 31.792 129.054 31.792 127.65V121.047H33.5146ZM36.748 123.604L36.7959 124.458C37.3428 123.797 38.0605 123.467 38.9492 123.467C40.4896 123.467 41.2734 124.349 41.3008 126.112V131H39.6396V126.208C39.6396 125.739 39.5371 125.392 39.332 125.169C39.1315 124.941 38.8011 124.827 38.3408 124.827C37.6709 124.827 37.1719 125.13 36.8438 125.736V131H35.1826V123.604H36.748ZM44.7666 131H43.1055V123.604H44.7666V131ZM43.0029 121.683C43.0029 121.427 43.0827 121.215 43.2422 121.047C43.4062 120.878 43.6387 120.794 43.9395 120.794C44.2402 120.794 44.4727 120.878 44.6367 121.047C44.8008 121.215 44.8828 121.427 44.8828 121.683C44.8828 121.933 44.8008 122.143 44.6367 122.312C44.4727 122.476 44.2402 122.558 43.9395 122.558C43.6387 122.558 43.4062 122.476 43.2422 122.312C43.0827 122.143 43.0029 121.933 43.0029 121.683ZM49.1895 128.895L50.7549 123.604H52.4707L49.9072 131H48.4648L45.8809 123.604H47.6035L49.1895 128.895ZM56.6748 131.137C55.6221 131.137 54.7676 130.806 54.1113 130.146C53.4596 129.48 53.1338 128.596 53.1338 127.493V127.288C53.1338 126.55 53.2751 125.891 53.5576 125.312C53.8447 124.729 54.2458 124.276 54.7607 123.952C55.2757 123.629 55.8499 123.467 56.4834 123.467C57.4906 123.467 58.2676 123.788 58.8145 124.431C59.3659 125.073 59.6416 125.982 59.6416 127.158V127.828H54.8086C54.8587 128.439 55.0615 128.922 55.417 129.277C55.777 129.633 56.2282 129.811 56.7705 129.811C57.5316 129.811 58.1514 129.503 58.6299 128.888L59.5254 129.742C59.2292 130.184 58.8327 130.528 58.3359 130.774C57.8438 131.016 57.29 131.137 56.6748 131.137ZM56.4766 124.8C56.0208 124.8 55.6517 124.959 55.3691 125.278C55.0911 125.597 54.9134 126.042 54.8359 126.611H58.001V126.488C57.9645 125.932 57.8164 125.513 57.5566 125.23C57.2969 124.943 56.9368 124.8 56.4766 124.8ZM64.8096 125.121C64.5908 125.085 64.3652 125.066 64.1328 125.066C63.3717 125.066 62.859 125.358 62.5947 125.941V131H60.9336V123.604H62.5195L62.5605 124.431C62.9616 123.788 63.5176 123.467 64.2285 123.467C64.4655 123.467 64.6615 123.499 64.8164 123.562L64.8096 125.121ZM70.0049 128.99C70.0049 128.694 69.8818 128.468 69.6357 128.313C69.3942 128.159 68.9909 128.022 68.4258 127.903C67.8607 127.785 67.389 127.634 67.0107 127.452C66.1813 127.051 65.7666 126.47 65.7666 125.709C65.7666 125.071 66.0355 124.538 66.5732 124.109C67.111 123.681 67.7946 123.467 68.624 123.467C69.5081 123.467 70.2214 123.686 70.7637 124.123C71.3105 124.561 71.584 125.128 71.584 125.825H69.9229C69.9229 125.506 69.8044 125.242 69.5674 125.032C69.3304 124.818 69.016 124.711 68.624 124.711C68.2594 124.711 67.9609 124.795 67.7285 124.964C67.5007 125.132 67.3867 125.358 67.3867 125.641C67.3867 125.896 67.4938 126.094 67.708 126.235C67.9222 126.377 68.3551 126.52 69.0068 126.666C69.6585 126.807 70.1689 126.978 70.5381 127.179C70.9118 127.375 71.1875 127.612 71.3652 127.89C71.5475 128.168 71.6387 128.505 71.6387 128.901C71.6387 129.567 71.363 130.107 70.8115 130.521C70.2601 130.932 69.5378 131.137 68.6445 131.137C68.0384 131.137 67.4984 131.027 67.0244 130.809C66.5505 130.59 66.1813 130.289 65.917 129.906C65.6527 129.523 65.5205 129.111 65.5205 128.669H67.1338C67.1566 129.061 67.3047 129.364 67.5781 129.578C67.8516 129.788 68.2139 129.893 68.665 129.893C69.1025 129.893 69.4352 129.811 69.6631 129.646C69.891 129.478 70.0049 129.259 70.0049 128.99ZM74.8584 131H73.1973V123.604H74.8584V131ZM73.0947 121.683C73.0947 121.427 73.1745 121.215 73.334 121.047C73.498 120.878 73.7305 120.794 74.0312 120.794C74.332 120.794 74.5645 120.878 74.7285 121.047C74.8926 121.215 74.9746 121.427 74.9746 121.683C74.9746 121.933 74.8926 122.143 74.7285 122.312C74.5645 122.476 74.332 122.558 74.0312 122.558C73.7305 122.558 73.498 122.476 73.334 122.312C73.1745 122.143 73.0947 121.933 73.0947 121.683ZM78.7549 121.806V123.604H80.0605V124.834H78.7549V128.963C78.7549 129.245 78.8096 129.451 78.9189 129.578C79.0329 129.701 79.2334 129.763 79.5205 129.763C79.7119 129.763 79.9056 129.74 80.1016 129.694V130.979C79.7233 131.084 79.3587 131.137 79.0078 131.137C77.7318 131.137 77.0938 130.433 77.0938 129.024V124.834H75.877V123.604H77.0938V121.806H78.7549ZM83.9229 128.621L85.4268 123.604H87.1973L84.2578 132.121C83.8066 133.365 83.041 133.987 81.9609 133.987C81.7194 133.987 81.4528 133.946 81.1611 133.864V132.579L81.4756 132.6C81.8949 132.6 82.2093 132.522 82.4189 132.367C82.6331 132.217 82.8018 131.962 82.9248 131.602L83.1641 130.966L80.5664 123.604H82.3574L83.9229 128.621ZM91.333 127.233C91.333 126.509 91.4766 125.857 91.7637 125.278C92.0508 124.695 92.4541 124.248 92.9736 123.938C93.4932 123.624 94.0902 123.467 94.7646 123.467C95.7627 123.467 96.5716 123.788 97.1914 124.431C97.8158 125.073 98.153 125.925 98.2031 126.987L98.21 127.377C98.21 128.106 98.0687 128.758 97.7861 129.332C97.5081 129.906 97.1071 130.351 96.583 130.665C96.0635 130.979 95.4619 131.137 94.7783 131.137C93.7347 131.137 92.8984 130.79 92.2695 130.098C91.6452 129.4 91.333 128.473 91.333 127.315V127.233ZM92.9941 127.377C92.9941 128.138 93.1514 128.735 93.4658 129.168C93.7803 129.596 94.2178 129.811 94.7783 129.811C95.3389 129.811 95.7741 129.592 96.084 129.154C96.3984 128.717 96.5557 128.076 96.5557 127.233C96.5557 126.486 96.3939 125.894 96.0703 125.456C95.7513 125.019 95.3161 124.8 94.7646 124.8C94.2223 124.8 93.7917 125.016 93.4727 125.449C93.1536 125.878 92.9941 126.52 92.9941 127.377ZM100.199 131V124.834H99.0713V123.604H100.199V122.927C100.199 122.106 100.427 121.473 100.883 121.026C101.339 120.58 101.977 120.356 102.797 120.356C103.089 120.356 103.398 120.397 103.727 120.479L103.686 121.778C103.503 121.742 103.291 121.724 103.05 121.724C102.257 121.724 101.86 122.132 101.86 122.947V123.604H103.364V124.834H101.86V131H100.199ZM110.467 121.047L113.338 128.676L116.202 121.047H118.438V131H116.715V127.719L116.886 123.33L113.946 131H112.709L109.776 123.337L109.947 127.719V131H108.225V121.047H110.467ZM122.095 131H120.434V123.604H122.095V131ZM120.331 121.683C120.331 121.427 120.411 121.215 120.57 121.047C120.734 120.878 120.967 120.794 121.268 120.794C121.568 120.794 121.801 120.878 121.965 121.047C122.129 121.215 122.211 121.427 122.211 121.683C122.211 121.933 122.129 122.143 121.965 122.312C121.801 122.476 121.568 122.558 121.268 122.558C120.967 122.558 120.734 122.476 120.57 122.312C120.411 122.143 120.331 121.933 120.331 121.683ZM126.948 129.811C127.363 129.811 127.707 129.69 127.98 129.448C128.254 129.207 128.4 128.908 128.418 128.553H129.983C129.965 129.013 129.822 129.444 129.553 129.845C129.284 130.241 128.919 130.556 128.459 130.788C127.999 131.021 127.502 131.137 126.969 131.137C125.934 131.137 125.114 130.802 124.508 130.132C123.902 129.462 123.599 128.537 123.599 127.356V127.186C123.599 126.06 123.899 125.16 124.501 124.485C125.103 123.806 125.923 123.467 126.962 123.467C127.841 123.467 128.557 123.724 129.108 124.239C129.664 124.75 129.956 125.422 129.983 126.256H128.418C128.4 125.832 128.254 125.483 127.98 125.21C127.712 124.937 127.368 124.8 126.948 124.8C126.41 124.8 125.996 124.996 125.704 125.388C125.412 125.775 125.264 126.365 125.26 127.158V127.425C125.26 128.227 125.403 128.826 125.69 129.223C125.982 129.615 126.401 129.811 126.948 129.811ZM132.875 124.41C133.417 123.781 134.103 123.467 134.933 123.467C136.509 123.467 137.309 124.367 137.332 126.167V131H135.671V126.229C135.671 125.718 135.559 125.358 135.336 125.148C135.117 124.934 134.794 124.827 134.365 124.827C133.7 124.827 133.203 125.123 132.875 125.716V131H131.214V120.5H132.875V124.41ZM140.784 131H139.123V123.604H140.784V131ZM139.021 121.683C139.021 121.427 139.1 121.215 139.26 121.047C139.424 120.878 139.656 120.794 139.957 120.794C140.258 120.794 140.49 120.878 140.654 121.047C140.818 121.215 140.9 121.427 140.9 121.683C140.9 121.933 140.818 122.143 140.654 122.312C140.49 122.476 140.258 122.558 139.957 122.558C139.656 122.558 139.424 122.476 139.26 122.312C139.1 122.143 139.021 121.933 139.021 121.683ZM142.309 127.247C142.309 126.099 142.577 125.183 143.115 124.499C143.658 123.811 144.375 123.467 145.269 123.467C146.112 123.467 146.775 123.761 147.258 124.349L147.333 123.604H148.83V130.774C148.83 131.745 148.527 132.511 147.921 133.071C147.319 133.632 146.506 133.912 145.48 133.912C144.938 133.912 144.407 133.798 143.888 133.57C143.373 133.347 142.981 133.053 142.712 132.688L143.498 131.69C144.008 132.297 144.637 132.6 145.385 132.6C145.936 132.6 146.371 132.449 146.69 132.148C147.009 131.852 147.169 131.415 147.169 130.836V130.337C146.69 130.87 146.052 131.137 145.255 131.137C144.389 131.137 143.68 130.793 143.129 130.104C142.582 129.416 142.309 128.464 142.309 127.247ZM143.963 127.391C143.963 128.133 144.113 128.719 144.414 129.147C144.719 129.571 145.141 129.783 145.679 129.783C146.349 129.783 146.845 129.496 147.169 128.922V125.668C146.854 125.107 146.362 124.827 145.692 124.827C145.146 124.827 144.719 125.044 144.414 125.477C144.113 125.91 143.963 126.548 143.963 127.391ZM154.962 131C154.889 130.859 154.825 130.629 154.771 130.31C154.242 130.861 153.595 131.137 152.829 131.137C152.086 131.137 151.48 130.925 151.011 130.501C150.541 130.077 150.307 129.553 150.307 128.929C150.307 128.14 150.598 127.536 151.182 127.117C151.77 126.693 152.608 126.481 153.697 126.481H154.716V125.996C154.716 125.613 154.609 125.308 154.395 125.08C154.18 124.848 153.854 124.731 153.417 124.731C153.039 124.731 152.729 124.827 152.487 125.019C152.246 125.205 152.125 125.445 152.125 125.736H150.464C150.464 125.331 150.598 124.952 150.867 124.602C151.136 124.246 151.501 123.968 151.961 123.768C152.426 123.567 152.943 123.467 153.513 123.467C154.379 123.467 155.069 123.686 155.584 124.123C156.099 124.556 156.363 125.167 156.377 125.955V129.291C156.377 129.956 156.47 130.487 156.657 130.884V131H154.962ZM153.137 129.804C153.465 129.804 153.772 129.724 154.06 129.564C154.351 129.405 154.57 129.191 154.716 128.922V127.527H153.82C153.205 127.527 152.743 127.634 152.433 127.849C152.123 128.063 151.968 128.366 151.968 128.758C151.968 129.077 152.073 129.332 152.282 129.523C152.496 129.71 152.781 129.804 153.137 129.804ZM159.658 123.604L159.706 124.458C160.253 123.797 160.971 123.467 161.859 123.467C163.4 123.467 164.184 124.349 164.211 126.112V131H162.55V126.208C162.55 125.739 162.447 125.392 162.242 125.169C162.042 124.941 161.711 124.827 161.251 124.827C160.581 124.827 160.082 125.13 159.754 125.736V131H158.093V123.604H159.658ZM166.911 129.25C167.221 129.25 167.46 129.339 167.629 129.517C167.798 129.69 167.882 129.909 167.882 130.173C167.882 130.433 167.798 130.649 167.629 130.822C167.46 130.991 167.221 131.075 166.911 131.075C166.615 131.075 166.38 130.991 166.207 130.822C166.034 130.654 165.947 130.437 165.947 130.173C165.947 129.909 166.032 129.69 166.2 129.517C166.369 129.339 166.606 129.25 166.911 129.25ZM166.911 123.446C167.221 123.446 167.46 123.535 167.629 123.713C167.798 123.886 167.882 124.105 167.882 124.369C167.882 124.629 167.798 124.845 167.629 125.019C167.46 125.187 167.221 125.271 166.911 125.271C166.615 125.271 166.38 125.187 166.207 125.019C166.034 124.85 165.947 124.633 165.947 124.369C165.947 124.105 166.032 123.886 166.2 123.713C166.369 123.535 166.606 123.446 166.911 123.446ZM55.0615 143.302V147H53.332V137.047H57.1396C58.2516 137.047 59.1335 137.336 59.7852 137.915C60.4414 138.494 60.7695 139.259 60.7695 140.212C60.7695 141.187 60.4482 141.946 59.8057 142.488C59.1676 143.031 58.2721 143.302 57.1191 143.302H55.0615ZM55.0615 141.914H57.1396C57.7549 141.914 58.2243 141.771 58.5479 141.483C58.8714 141.192 59.0332 140.772 59.0332 140.226C59.0332 139.688 58.8691 139.259 58.541 138.94C58.2129 138.617 57.7617 138.451 57.1875 138.441H55.0615V141.914ZM64.8232 144.621L66.3271 139.604H68.0977L65.1582 148.121C64.707 149.365 63.9414 149.987 62.8613 149.987C62.6198 149.987 62.3532 149.946 62.0615 149.864V148.579L62.376 148.6C62.7952 148.6 63.1097 148.522 63.3193 148.367C63.5335 148.217 63.7021 147.962 63.8252 147.602L64.0645 146.966L61.4668 139.604H63.2578L64.8232 144.621ZM71.1396 137.806V139.604H72.4453V140.834H71.1396V144.963C71.1396 145.245 71.1943 145.451 71.3037 145.578C71.4176 145.701 71.6182 145.763 71.9053 145.763C72.0967 145.763 72.2904 145.74 72.4863 145.694V146.979C72.1081 147.084 71.7435 147.137 71.3926 147.137C70.1165 147.137 69.4785 146.433 69.4785 145.024V140.834H68.2617V139.604H69.4785V137.806H71.1396ZM75.3574 140.41C75.8997 139.781 76.5856 139.467 77.415 139.467C78.9919 139.467 79.7917 140.367 79.8145 142.167V147H78.1533V142.229C78.1533 141.718 78.0417 141.358 77.8184 141.148C77.5996 140.934 77.276 140.827 76.8477 140.827C76.1823 140.827 75.6855 141.123 75.3574 141.716V147H73.6963V136.5H75.3574V140.41ZM81.1885 143.233C81.1885 142.509 81.332 141.857 81.6191 141.278C81.9062 140.695 82.3096 140.248 82.8291 139.938C83.3486 139.624 83.9456 139.467 84.6201 139.467C85.6182 139.467 86.4271 139.788 87.0469 140.431C87.6712 141.073 88.0085 141.925 88.0586 142.987L88.0654 143.377C88.0654 144.106 87.9242 144.758 87.6416 145.332C87.3636 145.906 86.9626 146.351 86.4385 146.665C85.9189 146.979 85.3174 147.137 84.6338 147.137C83.5902 147.137 82.7539 146.79 82.125 146.098C81.5007 145.4 81.1885 144.473 81.1885 143.315V143.233ZM82.8496 143.377C82.8496 144.138 83.0068 144.735 83.3213 145.168C83.6357 145.596 84.0732 145.811 84.6338 145.811C85.1943 145.811 85.6296 145.592 85.9395 145.154C86.2539 144.717 86.4111 144.076 86.4111 143.233C86.4111 142.486 86.2493 141.894 85.9258 141.456C85.6068 141.019 85.1715 140.8 84.6201 140.8C84.0778 140.8 83.6471 141.016 83.3281 141.449C83.0091 141.878 82.8496 142.52 82.8496 143.377ZM91.0117 139.604L91.0596 140.458C91.6064 139.797 92.3242 139.467 93.2129 139.467C94.7533 139.467 95.5371 140.349 95.5645 142.112V147H93.9033V142.208C93.9033 141.739 93.8008 141.392 93.5957 141.169C93.3952 140.941 93.0648 140.827 92.6045 140.827C91.9346 140.827 91.4355 141.13 91.1074 141.736V147H89.4463V139.604H91.0117ZM100.91 147V137.047H104.321C105.447 137.047 106.304 137.272 106.892 137.724C107.479 138.175 107.773 138.847 107.773 139.74C107.773 140.196 107.65 140.606 107.404 140.971C107.158 141.335 106.798 141.618 106.324 141.818C106.862 141.964 107.277 142.24 107.568 142.646C107.865 143.047 108.013 143.53 108.013 144.095C108.013 145.029 107.712 145.747 107.11 146.248C106.513 146.749 105.657 147 104.54 147H100.91ZM102.64 142.509V145.619H104.561C105.103 145.619 105.527 145.485 105.832 145.216C106.137 144.947 106.29 144.573 106.29 144.095C106.29 143.06 105.761 142.532 104.704 142.509H102.64ZM102.64 141.237H104.335C104.873 141.237 105.292 141.117 105.593 140.875C105.898 140.629 106.051 140.283 106.051 139.836C106.051 139.344 105.91 138.988 105.627 138.77C105.349 138.551 104.914 138.441 104.321 138.441H102.64V141.237ZM114.001 147C113.928 146.859 113.864 146.629 113.81 146.31C113.281 146.861 112.634 147.137 111.868 147.137C111.125 147.137 110.519 146.925 110.05 146.501C109.58 146.077 109.346 145.553 109.346 144.929C109.346 144.14 109.637 143.536 110.221 143.117C110.809 142.693 111.647 142.481 112.736 142.481H113.755V141.996C113.755 141.613 113.648 141.308 113.434 141.08C113.219 140.848 112.894 140.731 112.456 140.731C112.078 140.731 111.768 140.827 111.526 141.019C111.285 141.205 111.164 141.445 111.164 141.736H109.503C109.503 141.331 109.637 140.952 109.906 140.602C110.175 140.246 110.54 139.968 111 139.768C111.465 139.567 111.982 139.467 112.552 139.467C113.418 139.467 114.108 139.686 114.623 140.123C115.138 140.556 115.402 141.167 115.416 141.955V145.291C115.416 145.956 115.509 146.487 115.696 146.884V147H114.001ZM112.176 145.804C112.504 145.804 112.812 145.724 113.099 145.564C113.39 145.405 113.609 145.191 113.755 144.922V143.527H112.859C112.244 143.527 111.782 143.634 111.472 143.849C111.162 144.063 111.007 144.366 111.007 144.758C111.007 145.077 111.112 145.332 111.321 145.523C111.535 145.71 111.82 145.804 112.176 145.804ZM121.302 144.99C121.302 144.694 121.179 144.468 120.933 144.313C120.691 144.159 120.288 144.022 119.723 143.903C119.158 143.785 118.686 143.634 118.308 143.452C117.478 143.051 117.063 142.47 117.063 141.709C117.063 141.071 117.332 140.538 117.87 140.109C118.408 139.681 119.091 139.467 119.921 139.467C120.805 139.467 121.518 139.686 122.061 140.123C122.607 140.561 122.881 141.128 122.881 141.825H121.22C121.22 141.506 121.101 141.242 120.864 141.032C120.627 140.818 120.313 140.711 119.921 140.711C119.556 140.711 119.258 140.795 119.025 140.964C118.798 141.132 118.684 141.358 118.684 141.641C118.684 141.896 118.791 142.094 119.005 142.235C119.219 142.377 119.652 142.52 120.304 142.666C120.955 142.807 121.466 142.978 121.835 143.179C122.209 143.375 122.484 143.612 122.662 143.89C122.844 144.168 122.936 144.505 122.936 144.901C122.936 145.567 122.66 146.107 122.108 146.521C121.557 146.932 120.835 147.137 119.941 147.137C119.335 147.137 118.795 147.027 118.321 146.809C117.847 146.59 117.478 146.289 117.214 145.906C116.95 145.523 116.817 145.111 116.817 144.669H118.431C118.453 145.061 118.602 145.364 118.875 145.578C119.148 145.788 119.511 145.893 119.962 145.893C120.399 145.893 120.732 145.811 120.96 145.646C121.188 145.478 121.302 145.259 121.302 144.99ZM126.155 147H124.494V139.604H126.155V147ZM124.392 137.683C124.392 137.427 124.471 137.215 124.631 137.047C124.795 136.878 125.027 136.794 125.328 136.794C125.629 136.794 125.861 136.878 126.025 137.047C126.189 137.215 126.271 137.427 126.271 137.683C126.271 137.933 126.189 138.143 126.025 138.312C125.861 138.476 125.629 138.558 125.328 138.558C125.027 138.558 124.795 138.476 124.631 138.312C124.471 138.143 124.392 137.933 124.392 137.683ZM131.009 145.811C131.424 145.811 131.768 145.69 132.041 145.448C132.314 145.207 132.46 144.908 132.479 144.553H134.044C134.026 145.013 133.882 145.444 133.613 145.845C133.344 146.241 132.98 146.556 132.52 146.788C132.059 147.021 131.562 147.137 131.029 147.137C129.995 147.137 129.174 146.802 128.568 146.132C127.962 145.462 127.659 144.537 127.659 143.356V143.186C127.659 142.06 127.96 141.16 128.562 140.485C129.163 139.806 129.983 139.467 131.022 139.467C131.902 139.467 132.618 139.724 133.169 140.239C133.725 140.75 134.017 141.422 134.044 142.256H132.479C132.46 141.832 132.314 141.483 132.041 141.21C131.772 140.937 131.428 140.8 131.009 140.8C130.471 140.8 130.056 140.996 129.765 141.388C129.473 141.775 129.325 142.365 129.32 143.158V143.425C129.32 144.227 129.464 144.826 129.751 145.223C130.043 145.615 130.462 145.811 131.009 145.811ZM139.444 144.99C139.444 144.694 139.321 144.468 139.075 144.313C138.834 144.159 138.43 144.022 137.865 143.903C137.3 143.785 136.828 143.634 136.45 143.452C135.621 143.051 135.206 142.47 135.206 141.709C135.206 141.071 135.475 140.538 136.013 140.109C136.55 139.681 137.234 139.467 138.063 139.467C138.948 139.467 139.661 139.686 140.203 140.123C140.75 140.561 141.023 141.128 141.023 141.825H139.362C139.362 141.506 139.244 141.242 139.007 141.032C138.77 140.818 138.455 140.711 138.063 140.711C137.699 140.711 137.4 140.795 137.168 140.964C136.94 141.132 136.826 141.358 136.826 141.641C136.826 141.896 136.933 142.094 137.147 142.235C137.362 142.377 137.795 142.52 138.446 142.666C139.098 142.807 139.608 142.978 139.978 143.179C140.351 143.375 140.627 143.612 140.805 143.89C140.987 144.168 141.078 144.505 141.078 144.901C141.078 145.567 140.802 146.107 140.251 146.521C139.7 146.932 138.977 147.137 138.084 147.137C137.478 147.137 136.938 147.027 136.464 146.809C135.99 146.59 135.621 146.289 135.356 145.906C135.092 145.523 134.96 145.111 134.96 144.669H136.573C136.596 145.061 136.744 145.364 137.018 145.578C137.291 145.788 137.653 145.893 138.104 145.893C138.542 145.893 138.875 145.811 139.103 145.646C139.33 145.478 139.444 145.259 139.444 144.99Z" fill="#0B406C"/>
<path d="M70.085 173.76C69.9847 174.822 69.5928 175.651 68.9092 176.248C68.2256 176.84 67.3164 177.137 66.1816 177.137C65.3887 177.137 64.6891 176.95 64.083 176.576C63.4814 176.198 63.0166 175.662 62.6885 174.97C62.3604 174.277 62.1895 173.473 62.1758 172.557V171.627C62.1758 170.688 62.3421 169.861 62.6748 169.146C63.0075 168.43 63.4837 167.879 64.1035 167.491C64.7279 167.104 65.4479 166.91 66.2637 166.91C67.362 166.91 68.2461 167.209 68.916 167.806C69.5859 168.403 69.9756 169.246 70.085 170.335H68.3623C68.2803 169.619 68.0706 169.104 67.7334 168.79C67.4007 168.471 66.9108 168.312 66.2637 168.312C65.5117 168.312 64.9329 168.587 64.5273 169.139C64.1263 169.686 63.9212 170.49 63.9121 171.552V172.434C63.9121 173.509 64.1035 174.329 64.4863 174.895C64.8737 175.46 65.4388 175.742 66.1816 175.742C66.8607 175.742 67.3711 175.59 67.7129 175.284C68.0547 174.979 68.2712 174.471 68.3623 173.76H70.085ZM73.2432 177H71.582V166.5H73.2432V177ZM76.8252 177H75.1641V169.604H76.8252V177ZM75.0615 167.683C75.0615 167.427 75.1413 167.215 75.3008 167.047C75.4648 166.878 75.6973 166.794 75.998 166.794C76.2988 166.794 76.5312 166.878 76.6953 167.047C76.8594 167.215 76.9414 167.427 76.9414 167.683C76.9414 167.933 76.8594 168.143 76.6953 168.312C76.5312 168.476 76.2988 168.558 75.998 168.558C75.6973 168.558 75.4648 168.476 75.3008 168.312C75.1413 168.143 75.0615 167.933 75.0615 167.683ZM81.6787 175.811C82.0934 175.811 82.4375 175.69 82.7109 175.448C82.9844 175.207 83.1302 174.908 83.1484 174.553H84.7139C84.6956 175.013 84.5521 175.444 84.2832 175.845C84.0143 176.241 83.6497 176.556 83.1895 176.788C82.7292 177.021 82.2324 177.137 81.6992 177.137C80.6647 177.137 79.8444 176.802 79.2383 176.132C78.6322 175.462 78.3291 174.537 78.3291 173.356V173.186C78.3291 172.06 78.6299 171.16 79.2314 170.485C79.833 169.806 80.6533 169.467 81.6924 169.467C82.5719 169.467 83.2874 169.724 83.8389 170.239C84.3949 170.75 84.6865 171.422 84.7139 172.256H83.1484C83.1302 171.832 82.9844 171.483 82.7109 171.21C82.4421 170.937 82.098 170.8 81.6787 170.8C81.141 170.8 80.7262 170.996 80.4346 171.388C80.1429 171.775 79.9948 172.365 79.9902 173.158V173.425C79.9902 174.227 80.1338 174.826 80.4209 175.223C80.7126 175.615 81.1318 175.811 81.6787 175.811ZM88.3711 173.828L87.6328 174.587V177H85.9717V166.5H87.6328V172.557L88.1523 171.907L90.1963 169.604H92.1924L89.4443 172.687L92.4863 177H90.5654L88.3711 173.828ZM98.4062 170.41C98.9486 169.781 99.6344 169.467 100.464 169.467C102.041 169.467 102.84 170.367 102.863 172.167V177H101.202V172.229C101.202 171.718 101.09 171.358 100.867 171.148C100.648 170.934 100.325 170.827 99.8965 170.827C99.2311 170.827 98.7344 171.123 98.4062 171.716V177H96.7451V166.5H98.4062V170.41ZM107.806 177.137C106.753 177.137 105.898 176.806 105.242 176.146C104.59 175.48 104.265 174.596 104.265 173.493V173.288C104.265 172.55 104.406 171.891 104.688 171.312C104.976 170.729 105.377 170.276 105.892 169.952C106.407 169.629 106.981 169.467 107.614 169.467C108.621 169.467 109.398 169.788 109.945 170.431C110.497 171.073 110.772 171.982 110.772 173.158V173.828H105.939C105.99 174.439 106.192 174.922 106.548 175.277C106.908 175.633 107.359 175.811 107.901 175.811C108.662 175.811 109.282 175.503 109.761 174.888L110.656 175.742C110.36 176.184 109.964 176.528 109.467 176.774C108.975 177.016 108.421 177.137 107.806 177.137ZM107.607 170.8C107.152 170.8 106.783 170.959 106.5 171.278C106.222 171.597 106.044 172.042 105.967 172.611H109.132V172.488C109.095 171.932 108.947 171.513 108.688 171.23C108.428 170.943 108.068 170.8 107.607 170.8ZM115.94 171.121C115.722 171.085 115.496 171.066 115.264 171.066C114.503 171.066 113.99 171.358 113.726 171.941V177H112.064V169.604H113.65L113.691 170.431C114.092 169.788 114.648 169.467 115.359 169.467C115.596 169.467 115.792 169.499 115.947 169.562L115.94 171.121ZM120.11 177.137C119.058 177.137 118.203 176.806 117.547 176.146C116.895 175.48 116.569 174.596 116.569 173.493V173.288C116.569 172.55 116.711 171.891 116.993 171.312C117.28 170.729 117.681 170.276 118.196 169.952C118.711 169.629 119.285 169.467 119.919 169.467C120.926 169.467 121.703 169.788 122.25 170.431C122.801 171.073 123.077 171.982 123.077 173.158V173.828H118.244C118.294 174.439 118.497 174.922 118.853 175.277C119.213 175.633 119.664 175.811 120.206 175.811C120.967 175.811 121.587 175.503 122.065 174.888L122.961 175.742C122.665 176.184 122.268 176.528 121.771 176.774C121.279 177.016 120.726 177.137 120.11 177.137ZM119.912 170.8C119.456 170.8 119.087 170.959 118.805 171.278C118.527 171.597 118.349 172.042 118.271 172.611H121.437V172.488C121.4 171.932 121.252 171.513 120.992 171.23C120.732 170.943 120.372 170.8 119.912 170.8Z" fill="#BFFBDE"/>
<defs>
<filter id="filter0_d" x="0" y="0" width="197" height="222" filterUnits="userSpaceOnUse" color-interpolation-filters="sRGB">
<feFlood flood-opacity="0" result="BackgroundImageFix"/>
<feColorMatrix in="SourceAlpha" type="matrix" values="0 0 0 0 0 0 0 0 0 0 0 0 0 0 0 0 0 0 127 0"/>
<feOffset dy="4"/>
<feGaussianBlur stdDeviation="2"/>
<feColorMatrix type="matrix" values="0 0 0 0 0 0 0 0 0 0 0 0 0 0 0 0 0 0 0.25 0"/>
<feBlend mode="normal" in2="BackgroundImageFix" result="effect1_dropShadow"/>
<feBlend mode="normal" in="SourceGraphic" in2="effect1_dropShadow" result="shape"/>
</filter>
<linearGradient id="paint0_linear" x1="68.6189" y1="17.1022" x2="107.826" y2="55.766" gradientUnits="userSpaceOnUse">
<stop stop-color="#387EB8"/>
<stop offset="1" stop-color="#366994"/>
</linearGradient>
<linearGradient id="paint1_linear" x1="92.5905" y1="42.0278" x2="134.687" y2="81.6672" gradientUnits="userSpaceOnUse">
<stop stop-color="#FFE052"/>
<stop offset="1" stop-color="#FFC331"/>
</linearGradient>
</defs>
</svg>
