<svg width="75" height="84" viewBox="0 0 75 84" fill="none" xmlns="http://www.w3.org/2000/svg">
<g filter="url(#filter0_d)">
<rect x="4" width="67" height="76" rx="33.5" fill="#405C50"/>
</g>
<g clip-path="url(#clip0)">
<path d="M38.0906 3.55942C30.9982 3.55942 31.4411 6.65276 31.4411 6.65276L31.449 9.85743H38.2171V10.8196H28.7608C28.7608 10.8196 24.2224 10.302 24.2224 17.4993C24.2224 24.6967 28.1836 24.4415 28.1836 24.4415H30.5477V21.1016C30.5477 21.1016 30.4202 17.1176 34.4456 17.1176H41.1584C41.1584 17.1176 44.9298 17.1789 44.9298 13.4517V7.28892C44.9298 7.28892 45.5024 3.55942 38.0906 3.55942ZM34.3587 5.71442C35.032 5.71442 35.5763 6.26179 35.5763 6.93903C35.5763 7.61627 35.032 8.16364 34.3587 8.16364C33.6853 8.16364 33.141 7.61627 33.141 6.93903C33.141 6.26179 33.6853 5.71442 34.3587 5.71442Z" fill="url(#paint0_linear)"/>
<path d="M38.2918 31.5113C45.3842 31.5113 44.9413 28.418 44.9413 28.418L44.9334 25.2133H38.1653V24.2511H47.6216C47.6216 24.2511 52.16 24.7688 52.16 17.5714C52.16 10.374 48.1988 10.6293 48.1988 10.6293H45.8347V13.9691C45.8347 13.9691 45.9622 17.9531 41.9367 17.9531H35.224C35.224 17.9531 31.4526 17.8918 31.4526 21.619V27.7818C31.4526 27.7818 30.8799 31.5113 38.2918 31.5113ZM42.0237 29.3563C41.3503 29.3563 40.8061 28.8089 40.8061 28.1317C40.8061 27.4545 41.3503 26.9071 42.0237 26.9071C42.6971 26.9071 43.2413 27.4545 43.2413 28.1317C43.2413 28.8089 42.6971 29.3563 42.0237 29.3563Z" fill="url(#paint1_linear)"/>
</g>
<rect x="9.31746" y="35.514" width="56.7196" height="33.028" rx="16" fill="#8AD4B5"/>
<path d="M18.3058 40.5768V42.4772C18.3058 42.7793 18.2088 43.0189 18.0148 43.196C17.822 43.3717 17.5649 43.4596 17.2433 43.4596C16.9178 43.4596 16.6593 43.373 16.4679 43.1999C16.2765 43.0254 16.1808 42.7838 16.1808 42.4753V40.5768H16.673V42.4792C16.673 42.6693 16.7211 42.8144 16.8175 42.9147C16.9138 43.015 17.0558 43.0651 17.2433 43.0651C17.6235 43.0651 17.8136 42.8646 17.8136 42.4635V40.5768H18.3058ZM19.2296 41.3073L19.2433 41.5514C19.3995 41.3626 19.6046 41.2682 19.8585 41.2682C20.2986 41.2682 20.5226 41.5202 20.5304 42.0241V43.4206H20.0558V42.0514C20.0558 41.9173 20.0265 41.8183 19.9679 41.7545C19.9106 41.6894 19.8162 41.6569 19.6847 41.6569C19.4933 41.6569 19.3507 41.7435 19.2569 41.9167V43.4206H18.7823V41.3073H19.2296ZM21.5206 43.4206H21.046V41.3073H21.5206V43.4206ZM21.0167 40.7585C21.0167 40.6855 21.0395 40.625 21.0851 40.5768C21.1319 40.5286 21.1983 40.5045 21.2843 40.5045C21.3702 40.5045 21.4366 40.5286 21.4835 40.5768C21.5304 40.625 21.5538 40.6855 21.5538 40.7585C21.5538 40.8301 21.5304 40.89 21.4835 40.9381C21.4366 40.985 21.3702 41.0085 21.2843 41.0085C21.1983 41.0085 21.1319 40.985 21.0851 40.9381C21.0395 40.89 21.0167 40.8301 21.0167 40.7585ZM22.7843 42.819L23.2316 41.3073H23.7218L22.9894 43.4206H22.5773L21.839 41.3073H22.3312L22.7843 42.819ZM24.923 43.4596C24.6222 43.4596 24.378 43.3652 24.1905 43.1764C24.0043 42.9863 23.9112 42.7337 23.9112 42.4186V42.36C23.9112 42.1491 23.9516 41.9609 24.0323 41.7956C24.1144 41.6289 24.2289 41.4993 24.3761 41.4069C24.5232 41.3144 24.6873 41.2682 24.8683 41.2682C25.156 41.2682 25.378 41.36 25.5343 41.5436C25.6918 41.7272 25.7706 41.987 25.7706 42.3229V42.5143H24.3898C24.4041 42.6888 24.462 42.8268 24.5636 42.9284C24.6664 43.0299 24.7954 43.0807 24.9503 43.0807C25.1678 43.0807 25.3448 42.9928 25.4816 42.817L25.7374 43.0612C25.6528 43.1875 25.5395 43.2858 25.3976 43.3561C25.2569 43.4251 25.0987 43.4596 24.923 43.4596ZM24.8663 41.6491C24.7361 41.6491 24.6306 41.6947 24.5499 41.7858C24.4705 41.8769 24.4197 42.0039 24.3976 42.1667H25.3019V42.1315C25.2914 41.9726 25.2491 41.8529 25.1749 41.7721C25.1007 41.6901 24.9978 41.6491 24.8663 41.6491ZM27.2472 41.7409C27.1847 41.7305 27.1202 41.7253 27.0538 41.7253C26.8364 41.7253 26.6899 41.8086 26.6144 41.9753V43.4206H26.1398V41.3073H26.5929L26.6046 41.5436C26.7192 41.36 26.878 41.2682 27.0812 41.2682C27.1489 41.2682 27.2049 41.2773 27.2491 41.2956L27.2472 41.7409ZM28.7316 42.8463C28.7316 42.7617 28.6964 42.6973 28.6261 42.653C28.5571 42.6087 28.4418 42.5697 28.2804 42.5358C28.1189 42.5019 27.9842 42.459 27.8761 42.4069C27.6391 42.2923 27.5206 42.1263 27.5206 41.9088C27.5206 41.7266 27.5974 41.5742 27.7511 41.4518C27.9047 41.3294 28.1 41.2682 28.337 41.2682C28.5896 41.2682 28.7934 41.3307 28.9483 41.4557C29.1046 41.5807 29.1827 41.7428 29.1827 41.942H28.7081C28.7081 41.8509 28.6743 41.7754 28.6066 41.7155C28.5388 41.6543 28.449 41.6237 28.337 41.6237C28.2329 41.6237 28.1476 41.6478 28.0812 41.696C28.0161 41.7441 27.9835 41.8086 27.9835 41.8893C27.9835 41.9622 28.0141 42.0189 28.0753 42.0592C28.1365 42.0996 28.2602 42.1406 28.4464 42.1823C28.6326 42.2226 28.7784 42.2715 28.8839 42.3288C28.9907 42.3848 29.0694 42.4525 29.1202 42.5319C29.1723 42.6113 29.1983 42.7077 29.1983 42.821C29.1983 43.0111 29.1196 43.1654 28.962 43.2838C28.8045 43.401 28.5981 43.4596 28.3429 43.4596C28.1697 43.4596 28.0154 43.4284 27.88 43.3659C27.7446 43.3034 27.6391 43.2174 27.5636 43.1081C27.4881 42.9987 27.4503 42.8808 27.4503 42.7545H27.9112C27.9178 42.8665 27.9601 42.9531 28.0382 43.0143C28.1163 43.0742 28.2198 43.1042 28.3487 43.1042C28.4737 43.1042 28.5688 43.0807 28.6339 43.0338C28.699 42.9857 28.7316 42.9232 28.7316 42.8463ZM30.1183 43.4206H29.6437V41.3073H30.1183V43.4206ZM29.6144 40.7585C29.6144 40.6855 29.6372 40.625 29.6827 40.5768C29.7296 40.5286 29.796 40.5045 29.8819 40.5045C29.9679 40.5045 30.0343 40.5286 30.0812 40.5768C30.128 40.625 30.1515 40.6855 30.1515 40.7585C30.1515 40.8301 30.128 40.89 30.0812 40.9381C30.0343 40.985 29.9679 41.0085 29.8819 41.0085C29.796 41.0085 29.7296 40.985 29.6827 40.9381C29.6372 40.89 29.6144 40.8301 29.6144 40.7585ZM31.2316 40.7936V41.3073H31.6046V41.6588H31.2316V42.8385C31.2316 42.9193 31.2472 42.9779 31.2784 43.0143C31.311 43.0495 31.3683 43.067 31.4503 43.067C31.505 43.067 31.5603 43.0605 31.6163 43.0475V43.4147C31.5082 43.4447 31.4041 43.4596 31.3038 43.4596C30.9392 43.4596 30.7569 43.2585 30.7569 42.8561V41.6588H30.4093V41.3073H30.7569V40.7936H31.2316ZM32.7081 42.7409L33.1378 41.3073H33.6437L32.8038 43.7409C32.6749 44.0963 32.4562 44.2741 32.1476 44.2741C32.0786 44.2741 32.0024 44.2624 31.9191 44.2389V43.8717L32.0089 43.8776C32.1287 43.8776 32.2185 43.8555 32.2784 43.8112C32.3396 43.7682 32.3878 43.6953 32.423 43.5924L32.4913 43.4108L31.7491 41.3073H32.2608L32.7081 42.7409ZM34.8253 42.3444C34.8253 42.1374 34.8663 41.9512 34.9483 41.7858C35.0304 41.6191 35.1456 41.4915 35.2941 41.403C35.4425 41.3131 35.6131 41.2682 35.8058 41.2682C36.0909 41.2682 36.322 41.36 36.4991 41.5436C36.6775 41.7272 36.7739 41.9707 36.7882 42.2741L36.7901 42.3854C36.7901 42.5937 36.7498 42.7799 36.6691 42.944C36.5896 43.1081 36.475 43.235 36.3253 43.3249C36.1769 43.4147 36.005 43.4596 35.8097 43.4596C35.5115 43.4596 35.2726 43.3607 35.0929 43.1628C34.9145 42.9635 34.8253 42.6986 34.8253 42.3678V42.3444ZM35.2999 42.3854C35.2999 42.6029 35.3448 42.7734 35.4347 42.8971C35.5245 43.0195 35.6495 43.0807 35.8097 43.0807C35.9698 43.0807 36.0942 43.0182 36.1827 42.8932C36.2726 42.7682 36.3175 42.5853 36.3175 42.3444C36.3175 42.1308 36.2713 41.9616 36.1788 41.8366C36.0877 41.7116 35.9633 41.6491 35.8058 41.6491C35.6508 41.6491 35.5278 41.7109 35.4366 41.8346C35.3455 41.957 35.2999 42.1406 35.2999 42.3854ZM37.3585 43.4206V41.6588H37.0362V41.3073H37.3585V41.1139C37.3585 40.8795 37.4236 40.6986 37.5538 40.571C37.684 40.4433 37.8663 40.3795 38.1007 40.3795C38.184 40.3795 38.2726 40.3913 38.3663 40.4147L38.3546 40.7858C38.3025 40.7754 38.242 40.7702 38.173 40.7702C37.9464 40.7702 37.8331 40.8867 37.8331 41.1198V41.3073H38.2628V41.6588H37.8331V43.4206H37.3585ZM40.2921 40.5768L41.1124 42.7565L41.9308 40.5768H42.5694V43.4206H42.0773V42.4831L42.1261 41.2292L41.2862 43.4206H40.9327L40.0948 41.2311L40.1437 42.4831V43.4206H39.6515V40.5768H40.2921ZM43.6144 43.4206H43.1398V41.3073H43.6144V43.4206ZM43.1105 40.7585C43.1105 40.6855 43.1332 40.625 43.1788 40.5768C43.2257 40.5286 43.2921 40.5045 43.378 40.5045C43.464 40.5045 43.5304 40.5286 43.5773 40.5768C43.6241 40.625 43.6476 40.6855 43.6476 40.7585C43.6476 40.8301 43.6241 40.89 43.5773 40.9381C43.5304 40.985 43.464 41.0085 43.378 41.0085C43.2921 41.0085 43.2257 40.985 43.1788 40.9381C43.1332 40.89 43.1105 40.8301 43.1105 40.7585ZM45.0011 43.0807C45.1196 43.0807 45.2179 43.0462 45.296 42.9772C45.3741 42.9082 45.4158 42.8229 45.421 42.7213H45.8683C45.8631 42.8529 45.822 42.9759 45.7452 43.0905C45.6684 43.2038 45.5642 43.2936 45.4327 43.36C45.3012 43.4264 45.1593 43.4596 45.0069 43.4596C44.7114 43.4596 44.477 43.3639 44.3038 43.1725C44.1306 42.9811 44.0441 42.7168 44.0441 42.3795V42.3307C44.0441 42.0091 44.13 41.7519 44.3019 41.5592C44.4737 41.3652 44.7081 41.2682 45.005 41.2682C45.2563 41.2682 45.4607 41.3418 45.6183 41.4889C45.7771 41.6348 45.8605 41.8268 45.8683 42.0651H45.421C45.4158 41.944 45.3741 41.8444 45.296 41.7663C45.2192 41.6881 45.1209 41.6491 45.0011 41.6491C44.8474 41.6491 44.7289 41.7051 44.6456 41.817C44.5623 41.9277 44.52 42.0963 44.5187 42.3229V42.3991C44.5187 42.6282 44.5597 42.7995 44.6417 42.9128C44.725 43.0247 44.8448 43.0807 45.0011 43.0807ZM46.6944 41.5378C46.8494 41.3581 47.0454 41.2682 47.2823 41.2682C47.7329 41.2682 47.9614 41.5254 47.9679 42.0397V43.4206H47.4933V42.0573C47.4933 41.9114 47.4614 41.8086 47.3976 41.7487C47.3351 41.6875 47.2426 41.6569 47.1202 41.6569C46.9301 41.6569 46.7882 41.7415 46.6944 41.9108V43.4206H46.2198V40.4206H46.6944V41.5378ZM48.9542 43.4206H48.4796V41.3073H48.9542V43.4206ZM48.4503 40.7585C48.4503 40.6855 48.4731 40.625 48.5187 40.5768C48.5655 40.5286 48.6319 40.5045 48.7179 40.5045C48.8038 40.5045 48.8702 40.5286 48.9171 40.5768C48.964 40.625 48.9874 40.6855 48.9874 40.7585C48.9874 40.8301 48.964 40.89 48.9171 40.9381C48.8702 40.985 48.8038 41.0085 48.7179 41.0085C48.6319 41.0085 48.5655 40.985 48.5187 40.9381C48.4731 40.89 48.4503 40.8301 48.4503 40.7585ZM49.3898 42.3483C49.3898 42.0202 49.4666 41.7585 49.6202 41.5631C49.7752 41.3665 49.9803 41.2682 50.2355 41.2682C50.4763 41.2682 50.6658 41.3522 50.8038 41.5202L50.8253 41.3073H51.253V43.3561C51.253 43.6335 51.1664 43.8522 50.9933 44.0124C50.8214 44.1725 50.589 44.2526 50.296 44.2526C50.1411 44.2526 49.9894 44.22 49.8409 44.1549C49.6938 44.0911 49.5818 44.0072 49.505 43.903L49.7296 43.6178C49.8754 43.791 50.0551 43.8776 50.2687 43.8776C50.4262 43.8776 50.5506 43.8346 50.6417 43.7487C50.7329 43.6641 50.7784 43.5391 50.7784 43.3737V43.2311C50.6417 43.3835 50.4594 43.4596 50.2316 43.4596C49.9842 43.4596 49.7817 43.3613 49.6241 43.1647C49.4679 42.9681 49.3898 42.696 49.3898 42.3483ZM49.8624 42.3893C49.8624 42.6016 49.9054 42.7689 49.9913 42.8913C50.0786 43.0124 50.199 43.0729 50.3526 43.0729C50.5441 43.0729 50.686 42.9909 50.7784 42.8268V41.8971C50.6886 41.737 50.548 41.6569 50.3566 41.6569C50.2003 41.6569 50.0786 41.7187 49.9913 41.8424C49.9054 41.9661 49.8624 42.1484 49.8624 42.3893ZM53.005 43.4206C52.9842 43.3802 52.9659 43.3144 52.9503 43.2233C52.7993 43.3808 52.6144 43.4596 52.3956 43.4596C52.1834 43.4596 52.0102 43.3991 51.8761 43.278C51.742 43.1569 51.6749 43.0072 51.6749 42.8288C51.6749 42.6035 51.7582 42.431 51.9249 42.3112C52.0929 42.1901 52.3325 42.1295 52.6437 42.1295H52.9347V41.9909C52.9347 41.8815 52.9041 41.7943 52.8429 41.7292C52.7817 41.6628 52.6886 41.6295 52.5636 41.6295C52.4555 41.6295 52.367 41.6569 52.298 41.7116C52.2289 41.765 52.1944 41.8333 52.1944 41.9167H51.7198C51.7198 41.8008 51.7582 41.6927 51.8351 41.5924C51.9119 41.4909 52.0161 41.4114 52.1476 41.3542C52.2804 41.2969 52.4282 41.2682 52.5909 41.2682C52.8383 41.2682 53.0356 41.3307 53.1827 41.4557C53.3299 41.5794 53.4054 41.7539 53.4093 41.9792V42.9323C53.4093 43.1224 53.436 43.2741 53.4894 43.3874V43.4206H53.005ZM52.4835 43.0788C52.5773 43.0788 52.6651 43.056 52.7472 43.0104C52.8305 42.9648 52.893 42.9036 52.9347 42.8268V42.4284H52.6788C52.503 42.4284 52.3709 42.459 52.2823 42.5202C52.1938 42.5814 52.1495 42.668 52.1495 42.7799C52.1495 42.8711 52.1795 42.944 52.2394 42.9987C52.3006 43.0521 52.3819 43.0788 52.4835 43.0788ZM54.3468 41.3073L54.3605 41.5514C54.5167 41.3626 54.7218 41.2682 54.9757 41.2682C55.4158 41.2682 55.6398 41.5202 55.6476 42.0241V43.4206H55.173V42.0514C55.173 41.9173 55.1437 41.8183 55.0851 41.7545C55.0278 41.6894 54.9334 41.6569 54.8019 41.6569C54.6105 41.6569 54.4679 41.7435 54.3741 41.9167V43.4206H53.8995V41.3073H54.3468ZM56.4191 42.9206C56.5076 42.9206 56.576 42.946 56.6241 42.9967C56.6723 43.0462 56.6964 43.1087 56.6964 43.1842C56.6964 43.2585 56.6723 43.3203 56.6241 43.3698C56.576 43.418 56.5076 43.442 56.4191 43.442C56.3344 43.442 56.2674 43.418 56.2179 43.3698C56.1684 43.3216 56.1437 43.2598 56.1437 43.1842C56.1437 43.1087 56.1678 43.0462 56.2159 42.9967C56.2641 42.946 56.3318 42.9206 56.4191 42.9206ZM56.4191 41.2624C56.5076 41.2624 56.576 41.2878 56.6241 41.3385C56.6723 41.388 56.6964 41.4505 56.6964 41.526C56.6964 41.6003 56.6723 41.6621 56.6241 41.7116C56.576 41.7598 56.5076 41.7838 56.4191 41.7838C56.3344 41.7838 56.2674 41.7598 56.2179 41.7116C56.1684 41.6634 56.1437 41.6016 56.1437 41.526C56.1437 41.4505 56.1678 41.388 56.2159 41.3385C56.2641 41.2878 56.3318 41.2624 56.4191 41.2624ZM22.5812 48.4206V45.5768H23.421C23.6723 45.5768 23.895 45.6328 24.089 45.7448C24.2843 45.8568 24.4353 46.0156 24.5421 46.2213C24.6489 46.4271 24.7023 46.6628 24.7023 46.9284V47.071C24.7023 47.3405 24.6482 47.5775 24.5401 47.7819C24.4334 47.9863 24.2804 48.1439 24.0812 48.2545C23.8832 48.3652 23.656 48.4206 23.3995 48.4206H22.5812ZM23.0753 45.9753V48.026H23.3976C23.6567 48.026 23.8553 47.9453 23.9933 47.7838C24.1326 47.6211 24.2036 47.388 24.2062 47.0846V46.9264C24.2062 46.6178 24.1391 46.3822 24.005 46.2194C23.8709 46.0566 23.6762 45.9753 23.421 45.9753H23.0753ZM26.4112 48.4206C26.3904 48.3802 26.3722 48.3144 26.3566 48.2233C26.2055 48.3808 26.0206 48.4596 25.8019 48.4596C25.5896 48.4596 25.4164 48.3991 25.2823 48.278C25.1482 48.1569 25.0812 48.0072 25.0812 47.8288C25.0812 47.6035 25.1645 47.431 25.3312 47.3112C25.4991 47.1901 25.7387 47.1295 26.0499 47.1295H26.3409V46.9909C26.3409 46.8815 26.3103 46.7943 26.2491 46.7292C26.1879 46.6628 26.0948 46.6295 25.9698 46.6295C25.8618 46.6295 25.7732 46.6569 25.7042 46.7116C25.6352 46.765 25.6007 46.8333 25.6007 46.9167H25.1261C25.1261 46.8008 25.1645 46.6927 25.2413 46.5924C25.3181 46.4909 25.4223 46.4114 25.5538 46.3542C25.6866 46.2969 25.8344 46.2682 25.9972 46.2682C26.2446 46.2682 26.4418 46.3307 26.589 46.4557C26.7361 46.5794 26.8116 46.7539 26.8155 46.9792V47.9323C26.8155 48.1224 26.8422 48.2741 26.8956 48.3874V48.4206H26.4112ZM25.8898 48.0788C25.9835 48.0788 26.0714 48.056 26.1534 48.0104C26.2368 47.9648 26.2993 47.9036 26.3409 47.8268V47.4284H26.0851C25.9093 47.4284 25.7771 47.459 25.6886 47.5202C25.6 47.5814 25.5558 47.668 25.5558 47.7799C25.5558 47.8711 25.5857 47.944 25.6456 47.9987C25.7068 48.0521 25.7882 48.0788 25.8898 48.0788ZM27.9073 45.7936V46.3073H28.2804V46.6588H27.9073V47.8385C27.9073 47.9193 27.923 47.9779 27.9542 48.0143C27.9868 48.0495 28.0441 48.067 28.1261 48.067C28.1808 48.067 28.2361 48.0605 28.2921 48.0475V48.4147C28.184 48.4447 28.0799 48.4596 27.9796 48.4596C27.615 48.4596 27.4327 48.2585 27.4327 47.8561V46.6588H27.0851V46.3073H27.4327V45.7936H27.9073ZM29.9073 48.4206C29.8865 48.3802 29.8683 48.3144 29.8526 48.2233C29.7016 48.3808 29.5167 48.4596 29.298 48.4596C29.0857 48.4596 28.9125 48.3991 28.7784 48.278C28.6443 48.1569 28.5773 48.0072 28.5773 47.8288C28.5773 47.6035 28.6606 47.431 28.8273 47.3112C28.9952 47.1901 29.2348 47.1295 29.546 47.1295H29.837V46.9909C29.837 46.8815 29.8064 46.7943 29.7452 46.7292C29.684 46.6628 29.5909 46.6295 29.4659 46.6295C29.3579 46.6295 29.2693 46.6569 29.2003 46.7116C29.1313 46.765 29.0968 46.8333 29.0968 46.9167H28.6222C28.6222 46.8008 28.6606 46.6927 28.7374 46.5924C28.8142 46.4909 28.9184 46.4114 29.0499 46.3542C29.1827 46.2969 29.3305 46.2682 29.4933 46.2682C29.7407 46.2682 29.9379 46.3307 30.0851 46.4557C30.2322 46.5794 30.3077 46.7539 30.3116 46.9792V47.9323C30.3116 48.1224 30.3383 48.2741 30.3917 48.3874V48.4206H29.9073ZM29.3858 48.0788C29.4796 48.0788 29.5675 48.056 29.6495 48.0104C29.7329 47.9648 29.7954 47.9036 29.837 47.8268V47.4284H29.5812C29.4054 47.4284 29.2732 47.459 29.1847 47.5202C29.0961 47.5814 29.0519 47.668 29.0519 47.7799C29.0519 47.8711 29.0818 47.944 29.1417 47.9987C29.2029 48.0521 29.2843 48.0788 29.3858 48.0788ZM34.0206 47.4948C33.992 47.7982 33.88 48.0351 33.6847 48.2057C33.4894 48.375 33.2296 48.4596 32.9054 48.4596C32.6788 48.4596 32.4789 48.4062 32.3058 48.2995C32.1339 48.1914 32.0011 48.0384 31.9073 47.8405C31.8136 47.6426 31.7648 47.4128 31.7608 47.151V46.8854C31.7608 46.6172 31.8084 46.3808 31.9034 46.1764C31.9985 45.972 32.1345 45.8144 32.3116 45.7038C32.49 45.5931 32.6957 45.5378 32.9288 45.5378C33.2426 45.5378 33.4952 45.623 33.6866 45.7936C33.878 45.9642 33.9894 46.2051 34.0206 46.5163H33.5284C33.505 46.3118 33.4451 46.1647 33.3487 46.0749C33.2537 45.9837 33.1137 45.9381 32.9288 45.9381C32.714 45.9381 32.5486 46.0169 32.4327 46.1745C32.3181 46.3307 32.2595 46.5605 32.2569 46.8639V47.1159C32.2569 47.4232 32.3116 47.6575 32.421 47.819C32.5317 47.9805 32.6931 48.0612 32.9054 48.0612C33.0994 48.0612 33.2452 48.0176 33.3429 47.9303C33.4405 47.8431 33.5024 47.6979 33.5284 47.4948H34.0206ZM34.3292 47.3444C34.3292 47.1374 34.3702 46.9512 34.4523 46.7858C34.5343 46.6191 34.6495 46.4915 34.798 46.403C34.9464 46.3131 35.117 46.2682 35.3097 46.2682C35.5948 46.2682 35.826 46.36 36.003 46.5436C36.1814 46.7272 36.2778 46.9707 36.2921 47.2741L36.2941 47.3854C36.2941 47.5937 36.2537 47.7799 36.173 47.944C36.0935 48.1081 35.9789 48.235 35.8292 48.3249C35.6808 48.4147 35.5089 48.4596 35.3136 48.4596C35.0154 48.4596 34.7765 48.3607 34.5968 48.1628C34.4184 47.9635 34.3292 47.6986 34.3292 47.3678V47.3444ZM34.8038 47.3854C34.8038 47.6029 34.8487 47.7734 34.9386 47.8971C35.0284 48.0195 35.1534 48.0807 35.3136 48.0807C35.4737 48.0807 35.5981 48.0182 35.6866 47.8932C35.7765 47.7682 35.8214 47.5853 35.8214 47.3444C35.8214 47.1308 35.7752 46.9616 35.6827 46.8366C35.5916 46.7116 35.4672 46.6491 35.3097 46.6491C35.1547 46.6491 35.0317 46.7109 34.9405 46.8346C34.8494 46.957 34.8038 47.1406 34.8038 47.3854ZM37.2003 48.4206H36.7257V45.4206H37.2003V48.4206ZM38.2237 48.4206H37.7491V45.4206H38.2237V48.4206ZM39.673 48.4596C39.3722 48.4596 39.128 48.3652 38.9405 48.1764C38.7543 47.9863 38.6612 47.7337 38.6612 47.4186V47.36C38.6612 47.1491 38.7016 46.9609 38.7823 46.7956C38.8644 46.6289 38.9789 46.4993 39.1261 46.4069C39.2732 46.3144 39.4373 46.2682 39.6183 46.2682C39.906 46.2682 40.128 46.36 40.2843 46.5436C40.4418 46.7272 40.5206 46.987 40.5206 47.3229V47.5143H39.1398C39.1541 47.6888 39.212 47.8268 39.3136 47.9284C39.4164 48.0299 39.5454 48.0807 39.7003 48.0807C39.9178 48.0807 40.0948 47.9928 40.2316 47.817L40.4874 48.0612C40.4028 48.1875 40.2895 48.2858 40.1476 48.3561C40.0069 48.4251 39.8487 48.4596 39.673 48.4596ZM39.6163 46.6491C39.4861 46.6491 39.3806 46.6947 39.2999 46.7858C39.2205 46.8769 39.1697 47.0039 39.1476 47.1667H40.0519V47.1315C40.0414 46.9726 39.9991 46.8529 39.9249 46.7721C39.8507 46.6901 39.7478 46.6491 39.6163 46.6491ZM41.7589 48.0807C41.8774 48.0807 41.9757 48.0462 42.0538 47.9772C42.1319 47.9082 42.1736 47.8229 42.1788 47.7213H42.6261C42.6209 47.8529 42.5799 47.9759 42.503 48.0905C42.4262 48.2038 42.322 48.2936 42.1905 48.36C42.059 48.4264 41.9171 48.4596 41.7648 48.4596C41.4692 48.4596 41.2348 48.3639 41.0616 48.1725C40.8885 47.9811 40.8019 47.7168 40.8019 47.3795V47.3307C40.8019 47.0091 40.8878 46.7519 41.0597 46.5592C41.2316 46.3652 41.4659 46.2682 41.7628 46.2682C42.0141 46.2682 42.2185 46.3418 42.3761 46.4889C42.5349 46.6348 42.6183 46.8268 42.6261 47.0651H42.1788C42.1736 46.944 42.1319 46.8444 42.0538 46.7663C41.977 46.6881 41.8787 46.6491 41.7589 46.6491C41.6053 46.6491 41.4868 46.7051 41.4034 46.817C41.3201 46.9277 41.2778 47.0963 41.2765 47.3229V47.3991C41.2765 47.6282 41.3175 47.7995 41.3995 47.9128C41.4829 48.0247 41.6026 48.0807 41.7589 48.0807ZM43.5792 45.7936V46.3073H43.9523V46.6588H43.5792V47.8385C43.5792 47.9193 43.5948 47.9779 43.6261 48.0143C43.6586 48.0495 43.7159 48.067 43.798 48.067C43.8526 48.067 43.908 48.0605 43.964 48.0475V48.4147C43.8559 48.4447 43.7517 48.4596 43.6515 48.4596C43.2869 48.4596 43.1046 48.2585 43.1046 47.8561V46.6588H42.7569V46.3073H43.1046V45.7936H43.5792ZM44.8214 48.4206H44.3468V46.3073H44.8214V48.4206ZM44.3175 45.7585C44.3175 45.6855 44.3403 45.625 44.3858 45.5768C44.4327 45.5286 44.4991 45.5045 44.5851 45.5045C44.671 45.5045 44.7374 45.5286 44.7843 45.5768C44.8312 45.625 44.8546 45.6855 44.8546 45.7585C44.8546 45.8301 44.8312 45.89 44.7843 45.9381C44.7374 45.985 44.671 46.0085 44.5851 46.0085C44.4991 46.0085 44.4327 45.985 44.3858 45.9381C44.3403 45.89 44.3175 45.8301 44.3175 45.7585ZM45.2511 47.3444C45.2511 47.1374 45.2921 46.9512 45.3741 46.7858C45.4562 46.6191 45.5714 46.4915 45.7198 46.403C45.8683 46.3131 46.0388 46.2682 46.2316 46.2682C46.5167 46.2682 46.7478 46.36 46.9249 46.5436C47.1033 46.7272 47.1997 46.9707 47.214 47.2741L47.2159 47.3854C47.2159 47.5937 47.1756 47.7799 47.0948 47.944C47.0154 48.1081 46.9008 48.235 46.7511 48.3249C46.6026 48.4147 46.4308 48.4596 46.2355 48.4596C45.9373 48.4596 45.6983 48.3607 45.5187 48.1628C45.3403 47.9635 45.2511 47.6986 45.2511 47.3678V47.3444ZM45.7257 47.3854C45.7257 47.6029 45.7706 47.7734 45.8605 47.8971C45.9503 48.0195 46.0753 48.0807 46.2355 48.0807C46.3956 48.0807 46.52 48.0182 46.6085 47.8932C46.6983 47.7682 46.7433 47.5853 46.7433 47.3444C46.7433 47.1308 46.697 46.9616 46.6046 46.8366C46.5135 46.7116 46.3891 46.6491 46.2316 46.6491C46.0766 46.6491 45.9536 46.7109 45.8624 46.8346C45.7713 46.957 45.7257 47.1406 45.7257 47.3854ZM48.0577 46.3073L48.0714 46.5514C48.2276 46.3626 48.4327 46.2682 48.6866 46.2682C49.1267 46.2682 49.3507 46.5202 49.3585 47.0241V48.4206H48.8839V47.0514C48.8839 46.9173 48.8546 46.8183 48.796 46.7545C48.7387 46.6894 48.6443 46.6569 48.5128 46.6569C48.3214 46.6569 48.1788 46.7435 48.0851 46.9167V48.4206H47.6105V46.3073H48.0577ZM24.0948 53.4206C24.074 53.3802 24.0558 53.3144 24.0401 53.2233C23.8891 53.3808 23.7042 53.4596 23.4855 53.4596C23.2732 53.4596 23.1 53.3991 22.9659 53.278C22.8318 53.1569 22.7648 53.0072 22.7648 52.8288C22.7648 52.6035 22.8481 52.431 23.0148 52.3112C23.1827 52.1901 23.4223 52.1295 23.7335 52.1295H24.0245V51.9909C24.0245 51.8815 23.9939 51.7943 23.9327 51.7292C23.8715 51.6628 23.7784 51.6295 23.6534 51.6295C23.5454 51.6295 23.4568 51.6569 23.3878 51.7116C23.3188 51.765 23.2843 51.8333 23.2843 51.9167H22.8097C22.8097 51.8008 22.8481 51.6927 22.9249 51.5924C23.0017 51.4909 23.1059 51.4114 23.2374 51.3542C23.3702 51.2969 23.518 51.2682 23.6808 51.2682C23.9282 51.2682 24.1254 51.3307 24.2726 51.4557C24.4197 51.5794 24.4952 51.7539 24.4991 51.9792V52.9323C24.4991 53.1224 24.5258 53.2741 24.5792 53.3874V53.4206H24.0948ZM23.5733 53.0788C23.6671 53.0788 23.755 53.056 23.837 53.0104C23.9204 52.9648 23.9829 52.9036 24.0245 52.8268V52.4284H23.7687C23.5929 52.4284 23.4607 52.459 23.3722 52.5202C23.2836 52.5814 23.2394 52.668 23.2394 52.7799C23.2394 52.8711 23.2693 52.944 23.3292 52.9987C23.3904 53.0521 23.4718 53.0788 23.5733 53.0788ZM25.4366 51.3073L25.4503 51.5514C25.6066 51.3626 25.8116 51.2682 26.0655 51.2682C26.5056 51.2682 26.7296 51.5202 26.7374 52.0241V53.4206H26.2628V52.0514C26.2628 51.9173 26.2335 51.8183 26.1749 51.7545C26.1176 51.6894 26.0232 51.6569 25.8917 51.6569C25.7003 51.6569 25.5577 51.7435 25.464 51.9167V53.4206H24.9894V51.3073H25.4366ZM27.1339 52.3483C27.1339 52.0228 27.2094 51.7617 27.3605 51.5651C27.5115 51.3672 27.714 51.2682 27.9679 51.2682C28.1918 51.2682 28.3728 51.3463 28.5108 51.5026V50.4206H28.9855V53.4206H28.5558L28.5323 53.2018C28.3904 53.3737 28.201 53.4596 27.964 53.4596C27.7166 53.4596 27.5161 53.36 27.3624 53.1608C27.2101 52.9616 27.1339 52.6907 27.1339 52.3483ZM27.6085 52.3893C27.6085 52.6042 27.6495 52.7721 27.7316 52.8932C27.8149 53.013 27.9327 53.0729 28.0851 53.0729C28.2791 53.0729 28.421 52.9863 28.5108 52.8131V51.9108C28.4236 51.7415 28.283 51.6569 28.089 51.6569C27.9353 51.6569 27.8168 51.7181 27.7335 51.8405C27.6502 51.9616 27.6085 52.1445 27.6085 52.3893ZM31.0167 52.3639V53.4206H30.5226V50.5768H31.6105C31.9282 50.5768 32.1801 50.6595 32.3663 50.8249C32.5538 50.9902 32.6476 51.209 32.6476 51.4811C32.6476 51.7598 32.5558 51.9766 32.3722 52.1315C32.1899 52.2864 31.934 52.3639 31.6046 52.3639H31.0167ZM31.0167 51.9674H31.6105C31.7862 51.9674 31.9204 51.9264 32.0128 51.8444C32.1053 51.7611 32.1515 51.6413 32.1515 51.485C32.1515 51.3314 32.1046 51.209 32.0108 51.1178C31.9171 51.0254 31.7882 50.9779 31.6241 50.9753H31.0167V51.9674ZM34.1417 51.7409C34.0792 51.7305 34.0148 51.7253 33.9483 51.7253C33.7309 51.7253 33.5844 51.8086 33.5089 51.9753V53.4206H33.0343V51.3073H33.4874L33.4991 51.5436C33.6137 51.36 33.7726 51.2682 33.9757 51.2682C34.0434 51.2682 34.0994 51.2773 34.1437 51.2956L34.1417 51.7409ZM34.2823 52.3444C34.2823 52.1374 34.3233 51.9512 34.4054 51.7858C34.4874 51.6191 34.6026 51.4915 34.7511 51.403C34.8995 51.3131 35.0701 51.2682 35.2628 51.2682C35.548 51.2682 35.7791 51.36 35.9562 51.5436C36.1345 51.7272 36.2309 51.9707 36.2452 52.2741L36.2472 52.3854C36.2472 52.5937 36.2068 52.7799 36.1261 52.944C36.0467 53.1081 35.9321 53.235 35.7823 53.3249C35.6339 53.4147 35.462 53.4596 35.2667 53.4596C34.9685 53.4596 34.7296 53.3607 34.5499 53.1628C34.3715 52.9635 34.2823 52.6986 34.2823 52.3678V52.3444ZM34.7569 52.3854C34.7569 52.6029 34.8019 52.7734 34.8917 52.8971C34.9816 53.0195 35.1066 53.0807 35.2667 53.0807C35.4269 53.0807 35.5512 53.0182 35.6398 52.8932C35.7296 52.7682 35.7745 52.5853 35.7745 52.3444C35.7745 52.1308 35.7283 51.9616 35.6358 51.8366C35.5447 51.7116 35.4204 51.6491 35.2628 51.6491C35.1079 51.6491 34.9848 51.7109 34.8937 51.8346C34.8025 51.957 34.7569 52.1406 34.7569 52.3854ZM37.5167 53.0807C37.6352 53.0807 37.7335 53.0462 37.8116 52.9772C37.8898 52.9082 37.9314 52.8229 37.9366 52.7213H38.3839C38.3787 52.8529 38.3377 52.9759 38.2608 53.0905C38.184 53.2038 38.0799 53.2936 37.9483 53.36C37.8168 53.4264 37.6749 53.4596 37.5226 53.4596C37.227 53.4596 36.9926 53.3639 36.8194 53.1725C36.6463 52.9811 36.5597 52.7168 36.5597 52.3795V52.3307C36.5597 52.0091 36.6456 51.7519 36.8175 51.5592C36.9894 51.3652 37.2237 51.2682 37.5206 51.2682C37.7719 51.2682 37.9763 51.3418 38.1339 51.4889C38.2928 51.6348 38.3761 51.8268 38.3839 52.0651H37.9366C37.9314 51.944 37.8898 51.8444 37.8116 51.7663C37.7348 51.6881 37.6365 51.6491 37.5167 51.6491C37.3631 51.6491 37.2446 51.7051 37.1612 51.817C37.0779 51.9277 37.0356 52.0963 37.0343 52.3229V52.3991C37.0343 52.6282 37.0753 52.7995 37.1573 52.9128C37.2407 53.0247 37.3605 53.0807 37.5167 53.0807ZM39.673 53.4596C39.3722 53.4596 39.128 53.3652 38.9405 53.1764C38.7543 52.9863 38.6612 52.7337 38.6612 52.4186V52.36C38.6612 52.1491 38.7016 51.9609 38.7823 51.7956C38.8644 51.6289 38.9789 51.4993 39.1261 51.4069C39.2732 51.3144 39.4373 51.2682 39.6183 51.2682C39.906 51.2682 40.128 51.36 40.2843 51.5436C40.4418 51.7272 40.5206 51.987 40.5206 52.3229V52.5143H39.1398C39.1541 52.6888 39.212 52.8268 39.3136 52.9284C39.4164 53.0299 39.5454 53.0807 39.7003 53.0807C39.9178 53.0807 40.0948 52.9928 40.2316 52.817L40.4874 53.0612C40.4028 53.1875 40.2895 53.2858 40.1476 53.3561C40.0069 53.4251 39.8487 53.4596 39.673 53.4596ZM39.6163 51.6491C39.4861 51.6491 39.3806 51.6947 39.2999 51.7858C39.2205 51.8769 39.1697 52.0039 39.1476 52.1667H40.0519V52.1315C40.0414 51.9726 39.9991 51.8529 39.9249 51.7721C39.8507 51.6901 39.7478 51.6491 39.6163 51.6491ZM42.0753 52.8463C42.0753 52.7617 42.0401 52.6973 41.9698 52.653C41.9008 52.6087 41.7856 52.5697 41.6241 52.5358C41.4627 52.5019 41.3279 52.459 41.2198 52.4069C40.9829 52.2923 40.8644 52.1263 40.8644 51.9088C40.8644 51.7266 40.9412 51.5742 41.0948 51.4518C41.2485 51.3294 41.4438 51.2682 41.6808 51.2682C41.9334 51.2682 42.1372 51.3307 42.2921 51.4557C42.4483 51.5807 42.5265 51.7428 42.5265 51.942H42.0519C42.0519 51.8509 42.018 51.7754 41.9503 51.7155C41.8826 51.6543 41.7928 51.6237 41.6808 51.6237C41.5766 51.6237 41.4913 51.6478 41.4249 51.696C41.3598 51.7441 41.3273 51.8086 41.3273 51.8893C41.3273 51.9622 41.3579 52.0189 41.4191 52.0592C41.4803 52.0996 41.6039 52.1406 41.7901 52.1823C41.9763 52.2226 42.1222 52.2715 42.2276 52.3288C42.3344 52.3848 42.4132 52.4525 42.464 52.5319C42.5161 52.6113 42.5421 52.7077 42.5421 52.821C42.5421 53.0111 42.4633 53.1654 42.3058 53.2838C42.1482 53.401 41.9418 53.4596 41.6866 53.4596C41.5135 53.4596 41.3592 53.4284 41.2237 53.3659C41.0883 53.3034 40.9829 53.2174 40.9073 53.1081C40.8318 52.9987 40.7941 52.8808 40.7941 52.7545H41.255C41.2615 52.8665 41.3038 52.9531 41.3819 53.0143C41.4601 53.0742 41.5636 53.1042 41.6925 53.1042C41.8175 53.1042 41.9125 53.0807 41.9776 53.0338C42.0428 52.9857 42.0753 52.9232 42.0753 52.8463ZM44.1417 52.8463C44.1417 52.7617 44.1066 52.6973 44.0362 52.653C43.9672 52.6087 43.852 52.5697 43.6905 52.5358C43.5291 52.5019 43.3943 52.459 43.2862 52.4069C43.0493 52.2923 42.9308 52.1263 42.9308 51.9088C42.9308 51.7266 43.0076 51.5742 43.1612 51.4518C43.3149 51.3294 43.5102 51.2682 43.7472 51.2682C43.9998 51.2682 44.2036 51.3307 44.3585 51.4557C44.5148 51.5807 44.5929 51.7428 44.5929 51.942H44.1183C44.1183 51.8509 44.0844 51.7754 44.0167 51.7155C43.949 51.6543 43.8592 51.6237 43.7472 51.6237C43.643 51.6237 43.5577 51.6478 43.4913 51.696C43.4262 51.7441 43.3937 51.8086 43.3937 51.8893C43.3937 51.9622 43.4243 52.0189 43.4855 52.0592C43.5467 52.0996 43.6704 52.1406 43.8566 52.1823C44.0428 52.2226 44.1886 52.2715 44.2941 52.3288C44.4008 52.3848 44.4796 52.4525 44.5304 52.5319C44.5825 52.6113 44.6085 52.7077 44.6085 52.821C44.6085 53.0111 44.5297 53.1654 44.3722 53.2838C44.2146 53.401 44.0082 53.4596 43.753 53.4596C43.5799 53.4596 43.4256 53.4284 43.2901 53.3659C43.1547 53.3034 43.0493 53.2174 42.9737 53.1081C42.8982 52.9987 42.8605 52.8808 42.8605 52.7545H43.3214C43.3279 52.8665 43.3702 52.9531 43.4483 53.0143C43.5265 53.0742 43.63 53.1042 43.7589 53.1042C43.8839 53.1042 43.9789 53.0807 44.0441 53.0338C44.1092 52.9857 44.1417 52.9232 44.1417 52.8463ZM45.5284 53.4206H45.0538V51.3073H45.5284V53.4206ZM45.0245 50.7585C45.0245 50.6855 45.0473 50.625 45.0929 50.5768C45.1398 50.5286 45.2062 50.5045 45.2921 50.5045C45.378 50.5045 45.4444 50.5286 45.4913 50.5768C45.5382 50.625 45.5616 50.6855 45.5616 50.7585C45.5616 50.8301 45.5382 50.89 45.4913 50.9381C45.4444 50.985 45.378 51.0085 45.2921 51.0085C45.2062 51.0085 45.1398 50.985 45.0929 50.9381C45.0473 50.89 45.0245 50.8301 45.0245 50.7585ZM46.4874 51.3073L46.5011 51.5514C46.6573 51.3626 46.8624 51.2682 47.1163 51.2682C47.5564 51.2682 47.7804 51.5202 47.7882 52.0241V53.4206H47.3136V52.0514C47.3136 51.9173 47.2843 51.8183 47.2257 51.7545C47.1684 51.6894 47.074 51.6569 46.9425 51.6569C46.7511 51.6569 46.6085 51.7435 46.5148 51.9167V53.4206H46.0401V51.3073H46.4874ZM48.1905 52.3483C48.1905 52.0202 48.2674 51.7585 48.421 51.5631C48.576 51.3665 48.781 51.2682 49.0362 51.2682C49.2771 51.2682 49.4666 51.3522 49.6046 51.5202L49.6261 51.3073H50.0538V53.3561C50.0538 53.6335 49.9672 53.8522 49.7941 54.0124C49.6222 54.1725 49.3898 54.2526 49.0968 54.2526C48.9418 54.2526 48.7901 54.22 48.6417 54.1549C48.4946 54.0911 48.3826 54.0072 48.3058 53.903L48.5304 53.6178C48.6762 53.791 48.8559 53.8776 49.0694 53.8776C49.227 53.8776 49.3513 53.8346 49.4425 53.7487C49.5336 53.6641 49.5792 53.5391 49.5792 53.3737V53.2311C49.4425 53.3835 49.2602 53.4596 49.0323 53.4596C48.7849 53.4596 48.5825 53.3613 48.4249 53.1647C48.2687 52.9681 48.1905 52.696 48.1905 52.3483ZM48.6632 52.3893C48.6632 52.6016 48.7062 52.7689 48.7921 52.8913C48.8793 53.0124 48.9998 53.0729 49.1534 53.0729C49.3448 53.0729 49.4868 52.9909 49.5792 52.8268V51.8971C49.4894 51.737 49.3487 51.6569 49.1573 51.6569C49.0011 51.6569 48.8793 51.7187 48.7921 51.8424C48.7062 51.9661 48.6632 52.1484 48.6632 52.3893Z" fill="#0B406C"/>
<path d="M27.701 62.0858C27.6652 62.465 27.5252 62.7612 27.2811 62.9744C27.0369 63.186 26.7122 63.2918 26.3069 63.2918C26.0237 63.2918 25.7739 63.2251 25.5574 63.0916C25.3426 62.9565 25.1766 62.7653 25.0594 62.5179C24.9422 62.2705 24.8811 61.9832 24.8763 61.6561V61.324C24.8763 60.9888 24.9357 60.6934 25.0545 60.4378C25.1733 60.1823 25.3434 59.9853 25.5647 59.847C25.7877 59.7086 26.0449 59.6395 26.3362 59.6395C26.7285 59.6395 27.0442 59.7461 27.2835 59.9593C27.5228 60.1725 27.6619 60.4736 27.701 60.8626H27.0857C27.0564 60.6071 26.9816 60.4232 26.8611 60.3109C26.7423 60.1969 26.5673 60.14 26.3362 60.14C26.0677 60.14 25.861 60.2384 25.7161 60.4354C25.5729 60.6307 25.4996 60.918 25.4964 61.2972V61.6121C25.4964 61.9962 25.5647 62.2892 25.7015 62.491C25.8398 62.6929 26.0416 62.7938 26.3069 62.7938C26.5494 62.7938 26.7317 62.7392 26.8538 62.6302C26.9759 62.5211 27.0532 62.3397 27.0857 62.0858H27.701ZM28.8289 63.243H28.2356V59.493H28.8289V63.243ZM30.1082 63.243H29.5149V60.6014H30.1082V63.243ZM29.4783 59.9154C29.4783 59.8242 29.5068 59.7485 29.5638 59.6883C29.6224 59.6281 29.7054 59.598 29.8128 59.598C29.9202 59.598 30.0032 59.6281 30.0618 59.6883C30.1204 59.7485 30.1497 59.8242 30.1497 59.9154C30.1497 60.0049 30.1204 60.0797 30.0618 60.14C30.0032 60.1986 29.9202 60.2279 29.8128 60.2279C29.7054 60.2279 29.6224 60.1986 29.5638 60.14C29.5068 60.0797 29.4783 60.0049 29.4783 59.9154ZM31.8416 62.8182C31.9897 62.8182 32.1126 62.7751 32.2103 62.6888C32.3079 62.6025 32.36 62.4959 32.3665 62.369H32.9256C32.9191 62.5334 32.8678 62.6872 32.7718 62.8304C32.6757 62.972 32.5455 63.0843 32.3811 63.1673C32.2168 63.2503 32.0394 63.2918 31.8489 63.2918C31.4795 63.2918 31.1865 63.1722 30.97 62.9329C30.7535 62.6937 30.6453 62.3633 30.6453 61.9417V61.8807C30.6453 61.4787 30.7527 61.1572 30.9676 60.9163C31.1824 60.6738 31.4754 60.5526 31.8465 60.5526C32.1606 60.5526 32.4161 60.6445 32.6131 60.8284C32.8117 61.0107 32.9158 61.2508 32.9256 61.5487H32.3665C32.36 61.3973 32.3079 61.2728 32.2103 61.1751C32.1142 61.0775 31.9913 61.0286 31.8416 61.0286C31.6495 61.0286 31.5014 61.0986 31.3973 61.2386C31.2931 61.3769 31.2402 61.5877 31.2386 61.8709V61.9661C31.2386 62.2526 31.2898 62.4666 31.3924 62.6082C31.4965 62.7482 31.6463 62.8182 31.8416 62.8182ZM34.2317 62.1102L33.9681 62.3812V63.243H33.3748V59.493H33.9681V61.6561L34.1536 61.4241L34.8836 60.6014H35.5965L34.615 61.7025L35.7015 63.243H35.0154L34.2317 62.1102ZM37.8157 60.8895C38.0094 60.6649 38.2544 60.5526 38.5506 60.5526C39.1137 60.5526 39.3994 60.874 39.4075 61.5169V63.243H38.8143V61.5389C38.8143 61.3566 38.7744 61.228 38.6946 61.1531C38.6165 61.0767 38.5009 61.0384 38.3479 61.0384C38.1103 61.0384 37.9329 61.1442 37.8157 61.3558V63.243H37.2225V59.493H37.8157V60.8895ZM41.1727 63.2918C40.7967 63.2918 40.4915 63.1738 40.2571 62.9378C40.0244 62.7002 39.908 62.3844 39.908 61.9906V61.9173C39.908 61.6536 39.9585 61.4184 40.0594 61.2117C40.1619 61.0034 40.3051 60.8415 40.4891 60.7259C40.673 60.6103 40.8781 60.5526 41.1043 60.5526C41.464 60.5526 41.7415 60.6673 41.9368 60.8968C42.1338 61.1263 42.2322 61.451 42.2322 61.8709V62.1102H40.5061C40.5241 62.3283 40.5965 62.5008 40.7234 62.6278C40.852 62.7547 41.0131 62.8182 41.2068 62.8182C41.4786 62.8182 41.7 62.7083 41.8709 62.4886L42.1907 62.7938C42.0849 62.9517 41.9433 63.0745 41.7659 63.1624C41.5901 63.2487 41.3924 63.2918 41.1727 63.2918ZM41.1019 61.0286C40.9391 61.0286 40.8073 61.0856 40.7063 61.1995C40.6071 61.3135 40.5436 61.4722 40.5159 61.6756H41.6463V61.6317C41.6333 61.4331 41.5804 61.2834 41.4876 61.1824C41.3948 61.0799 41.2662 61.0286 41.1019 61.0286ZM44.0779 61.1434C43.9998 61.1304 43.9192 61.1239 43.8362 61.1239C43.5644 61.1239 43.3813 61.228 43.2869 61.4364V63.243H42.6936V60.6014H43.2601L43.2747 60.8968C43.4179 60.6673 43.6165 60.5526 43.8704 60.5526C43.955 60.5526 44.025 60.564 44.0804 60.5867L44.0779 61.1434ZM45.5672 63.2918C45.1912 63.2918 44.886 63.1738 44.6517 62.9378C44.4189 62.7002 44.3025 62.3844 44.3025 61.9906V61.9173C44.3025 61.6536 44.353 61.4184 44.4539 61.2117C44.5564 61.0034 44.6997 60.8415 44.8836 60.7259C45.0675 60.6103 45.2726 60.5526 45.4988 60.5526C45.8585 60.5526 46.136 60.6673 46.3313 60.8968C46.5283 61.1263 46.6268 61.451 46.6268 61.8709V62.1102H44.9007C44.9186 62.3283 44.991 62.5008 45.118 62.6278C45.2465 62.7547 45.4077 62.8182 45.6014 62.8182C45.8732 62.8182 46.0945 62.7083 46.2654 62.4886L46.5853 62.7938C46.4795 62.9517 46.3379 63.0745 46.1604 63.1624C45.9847 63.2487 45.7869 63.2918 45.5672 63.2918ZM45.4964 61.0286C45.3336 61.0286 45.2018 61.0856 45.1009 61.1995C45.0016 61.3135 44.9381 61.4722 44.9104 61.6756H46.0408V61.6317C46.0278 61.4331 45.9749 61.2834 45.8821 61.1824C45.7894 61.0799 45.6608 61.0286 45.4964 61.0286Z" fill="#BFFBDE"/>
<defs>
<filter id="filter0_d" x="0" y="0" width="75" height="84" filterUnits="userSpaceOnUse" color-interpolation-filters="sRGB">
<feFlood flood-opacity="0" result="BackgroundImageFix"/>
<feColorMatrix in="SourceAlpha" type="matrix" values="0 0 0 0 0 0 0 0 0 0 0 0 0 0 0 0 0 0 127 0" result="hardAlpha"/>
<feOffset dy="4"/>
<feGaussianBlur stdDeviation="2"/>
<feColorMatrix type="matrix" values="0 0 0 0 0 0 0 0 0 0 0 0 0 0 0 0 0 0 0.25 0"/>
<feBlend mode="normal" in2="BackgroundImageFix" result="effect1_dropShadow"/>
<feBlend mode="normal" in="SourceGraphic" in2="effect1_dropShadow" result="shape"/>
</filter>
<linearGradient id="paint0_linear" x1="26.9072" y1="6.07362" x2="40.8307" y2="19.7795" gradientUnits="userSpaceOnUse">
<stop stop-color="#387EB8"/>
<stop offset="1" stop-color="#366994"/>
</linearGradient>
<linearGradient id="paint1_linear" x1="35.4051" y1="14.9257" x2="50.3535" y2="28.9762" gradientUnits="userSpaceOnUse">
<stop stop-color="#FFE052"/>
<stop offset="1" stop-color="#FFC331"/>
</linearGradient>
<clipPath id="clip0">
<rect width="28.0053" height="28.0561" fill="white" transform="translate(24.2063 3.5514)"/>
</clipPath>
</defs>
</svg>
