<svg width="197" height="222" viewBox="0 0 197 222" fill="none" xmlns="http://www.w3.org/2000/svg">
<g filter="url(#filter0_d)">
<rect x="4" width="189" height="214" rx="39" fill="#405C50"/>
</g>
<path d="M100.166 10.0227C80.1592 10.0227 81.4085 18.7329 81.4085 18.7329L81.4308 27.7566H100.523V30.4659H73.8475C73.8475 30.4659 61.0452 29.0083 61.0452 49.2746C61.0452 69.5408 72.2194 68.8221 72.2194 68.8221H78.8882V59.4178C78.8882 59.4178 78.5287 48.1998 89.884 48.1998H108.82C108.82 48.1998 119.459 48.3724 119.459 37.8774V20.5242C119.459 20.5242 121.074 10.0227 100.166 10.0227ZM89.6386 16.0907C91.5381 16.0907 93.0734 17.632 93.0734 19.539C93.0734 21.446 91.5381 22.9872 89.6386 22.9872C87.7391 22.9872 86.2038 21.446 86.2038 19.539C86.2038 17.632 87.7391 16.0907 89.6386 16.0907Z" fill="url(#paint0_linear)"/>
<path d="M100.734 88.7293C120.741 88.7293 119.491 80.0191 119.491 80.0191L119.469 70.9955H100.377V68.2861H127.052C127.052 68.2861 139.855 69.7437 139.855 49.4775C139.855 29.2112 128.68 29.9299 128.68 29.9299H122.012V39.3342C122.012 39.3342 122.371 50.5522 111.016 50.5522H92.0798C92.0798 50.5522 81.4409 50.3796 81.4409 60.8746V78.2278C81.4409 78.2278 79.8256 88.7293 100.734 88.7293ZM111.261 82.6613C109.362 82.6613 107.826 81.12 107.826 79.213C107.826 77.3061 109.362 75.7648 111.261 75.7648C113.161 75.7648 114.696 77.3061 114.696 79.213C114.696 81.12 113.161 82.6613 111.261 82.6613Z" fill="url(#paint1_linear)"/>
<rect x="19" y="100" width="160" height="93" rx="16" fill="#8AD4B5"/>
<path d="M33.5146 114.047V120.698C33.5146 121.756 33.1751 122.594 32.4961 123.214C31.8216 123.829 30.9215 124.137 29.7959 124.137C28.6566 124.137 27.752 123.834 27.082 123.228C26.4121 122.617 26.0771 121.771 26.0771 120.691V114.047H27.7998V120.705C27.7998 121.37 27.9684 121.879 28.3057 122.229C28.6429 122.58 29.1396 122.756 29.7959 122.756C31.1266 122.756 31.792 122.054 31.792 120.65V114.047H33.5146ZM36.748 116.604L36.7959 117.458C37.3428 116.797 38.0605 116.467 38.9492 116.467C40.4896 116.467 41.2734 117.349 41.3008 119.112V124H39.6396V119.208C39.6396 118.739 39.5371 118.392 39.332 118.169C39.1315 117.941 38.8011 117.827 38.3408 117.827C37.6709 117.827 37.1719 118.13 36.8438 118.736V124H35.1826V116.604H36.748ZM44.7666 124H43.1055V116.604H44.7666V124ZM43.0029 114.683C43.0029 114.427 43.0827 114.215 43.2422 114.047C43.4062 113.878 43.6387 113.794 43.9395 113.794C44.2402 113.794 44.4727 113.878 44.6367 114.047C44.8008 114.215 44.8828 114.427 44.8828 114.683C44.8828 114.933 44.8008 115.143 44.6367 115.312C44.4727 115.476 44.2402 115.558 43.9395 115.558C43.6387 115.558 43.4062 115.476 43.2422 115.312C43.0827 115.143 43.0029 114.933 43.0029 114.683ZM49.1895 121.895L50.7549 116.604H52.4707L49.9072 124H48.4648L45.8809 116.604H47.6035L49.1895 121.895ZM56.6748 124.137C55.6221 124.137 54.7676 123.806 54.1113 123.146C53.4596 122.48 53.1338 121.596 53.1338 120.493V120.288C53.1338 119.55 53.2751 118.891 53.5576 118.312C53.8447 117.729 54.2458 117.276 54.7607 116.952C55.2757 116.629 55.8499 116.467 56.4834 116.467C57.4906 116.467 58.2676 116.788 58.8145 117.431C59.3659 118.073 59.6416 118.982 59.6416 120.158V120.828H54.8086C54.8587 121.439 55.0615 121.922 55.417 122.277C55.777 122.633 56.2282 122.811 56.7705 122.811C57.5316 122.811 58.1514 122.503 58.6299 121.888L59.5254 122.742C59.2292 123.184 58.8327 123.528 58.3359 123.774C57.8438 124.016 57.29 124.137 56.6748 124.137ZM56.4766 117.8C56.0208 117.8 55.6517 117.959 55.3691 118.278C55.0911 118.597 54.9134 119.042 54.8359 119.611H58.001V119.488C57.9645 118.932 57.8164 118.513 57.5566 118.23C57.2969 117.943 56.9368 117.8 56.4766 117.8ZM64.8096 118.121C64.5908 118.085 64.3652 118.066 64.1328 118.066C63.3717 118.066 62.859 118.358 62.5947 118.941V124H60.9336V116.604H62.5195L62.5605 117.431C62.9616 116.788 63.5176 116.467 64.2285 116.467C64.4655 116.467 64.6615 116.499 64.8164 116.562L64.8096 118.121ZM70.0049 121.99C70.0049 121.694 69.8818 121.468 69.6357 121.313C69.3942 121.159 68.9909 121.022 68.4258 120.903C67.8607 120.785 67.389 120.634 67.0107 120.452C66.1813 120.051 65.7666 119.47 65.7666 118.709C65.7666 118.071 66.0355 117.538 66.5732 117.109C67.111 116.681 67.7946 116.467 68.624 116.467C69.5081 116.467 70.2214 116.686 70.7637 117.123C71.3105 117.561 71.584 118.128 71.584 118.825H69.9229C69.9229 118.506 69.8044 118.242 69.5674 118.032C69.3304 117.818 69.016 117.711 68.624 117.711C68.2594 117.711 67.9609 117.795 67.7285 117.964C67.5007 118.132 67.3867 118.358 67.3867 118.641C67.3867 118.896 67.4938 119.094 67.708 119.235C67.9222 119.377 68.3551 119.52 69.0068 119.666C69.6585 119.807 70.1689 119.978 70.5381 120.179C70.9118 120.375 71.1875 120.612 71.3652 120.89C71.5475 121.168 71.6387 121.505 71.6387 121.901C71.6387 122.567 71.363 123.107 70.8115 123.521C70.2601 123.932 69.5378 124.137 68.6445 124.137C68.0384 124.137 67.4984 124.027 67.0244 123.809C66.5505 123.59 66.1813 123.289 65.917 122.906C65.6527 122.523 65.5205 122.111 65.5205 121.669H67.1338C67.1566 122.061 67.3047 122.364 67.5781 122.578C67.8516 122.788 68.2139 122.893 68.665 122.893C69.1025 122.893 69.4352 122.811 69.6631 122.646C69.891 122.478 70.0049 122.259 70.0049 121.99ZM74.8584 124H73.1973V116.604H74.8584V124ZM73.0947 114.683C73.0947 114.427 73.1745 114.215 73.334 114.047C73.498 113.878 73.7305 113.794 74.0312 113.794C74.332 113.794 74.5645 113.878 74.7285 114.047C74.8926 114.215 74.9746 114.427 74.9746 114.683C74.9746 114.933 74.8926 115.143 74.7285 115.312C74.5645 115.476 74.332 115.558 74.0312 115.558C73.7305 115.558 73.498 115.476 73.334 115.312C73.1745 115.143 73.0947 114.933 73.0947 114.683ZM78.7549 114.806V116.604H80.0605V117.834H78.7549V121.963C78.7549 122.245 78.8096 122.451 78.9189 122.578C79.0329 122.701 79.2334 122.763 79.5205 122.763C79.7119 122.763 79.9056 122.74 80.1016 122.694V123.979C79.7233 124.084 79.3587 124.137 79.0078 124.137C77.7318 124.137 77.0938 123.433 77.0938 122.024V117.834H75.877V116.604H77.0938V114.806H78.7549ZM83.9229 121.621L85.4268 116.604H87.1973L84.2578 125.121C83.8066 126.365 83.041 126.987 81.9609 126.987C81.7194 126.987 81.4528 126.946 81.1611 126.864V125.579L81.4756 125.6C81.8949 125.6 82.2093 125.522 82.4189 125.367C82.6331 125.217 82.8018 124.962 82.9248 124.602L83.1641 123.966L80.5664 116.604H82.3574L83.9229 121.621ZM91.333 120.233C91.333 119.509 91.4766 118.857 91.7637 118.278C92.0508 117.695 92.4541 117.248 92.9736 116.938C93.4932 116.624 94.0902 116.467 94.7646 116.467C95.7627 116.467 96.5716 116.788 97.1914 117.431C97.8158 118.073 98.153 118.925 98.2031 119.987L98.21 120.377C98.21 121.106 98.0687 121.758 97.7861 122.332C97.5081 122.906 97.1071 123.351 96.583 123.665C96.0635 123.979 95.4619 124.137 94.7783 124.137C93.7347 124.137 92.8984 123.79 92.2695 123.098C91.6452 122.4 91.333 121.473 91.333 120.315V120.233ZM92.9941 120.377C92.9941 121.138 93.1514 121.735 93.4658 122.168C93.7803 122.596 94.2178 122.811 94.7783 122.811C95.3389 122.811 95.7741 122.592 96.084 122.154C96.3984 121.717 96.5557 121.076 96.5557 120.233C96.5557 119.486 96.3939 118.894 96.0703 118.456C95.7513 118.019 95.3161 117.8 94.7646 117.8C94.2223 117.8 93.7917 118.016 93.4727 118.449C93.1536 118.878 92.9941 119.52 92.9941 120.377ZM100.199 124V117.834H99.0713V116.604H100.199V115.927C100.199 115.106 100.427 114.473 100.883 114.026C101.339 113.58 101.977 113.356 102.797 113.356C103.089 113.356 103.398 113.397 103.727 113.479L103.686 114.778C103.503 114.742 103.291 114.724 103.05 114.724C102.257 114.724 101.86 115.132 101.86 115.947V116.604H103.364V117.834H101.86V124H100.199ZM110.467 114.047L113.338 121.676L116.202 114.047H118.438V124H116.715V120.719L116.886 116.33L113.946 124H112.709L109.776 116.337L109.947 120.719V124H108.225V114.047H110.467ZM122.095 124H120.434V116.604H122.095V124ZM120.331 114.683C120.331 114.427 120.411 114.215 120.57 114.047C120.734 113.878 120.967 113.794 121.268 113.794C121.568 113.794 121.801 113.878 121.965 114.047C122.129 114.215 122.211 114.427 122.211 114.683C122.211 114.933 122.129 115.143 121.965 115.312C121.801 115.476 121.568 115.558 121.268 115.558C120.967 115.558 120.734 115.476 120.57 115.312C120.411 115.143 120.331 114.933 120.331 114.683ZM126.948 122.811C127.363 122.811 127.707 122.69 127.98 122.448C128.254 122.207 128.4 121.908 128.418 121.553H129.983C129.965 122.013 129.822 122.444 129.553 122.845C129.284 123.241 128.919 123.556 128.459 123.788C127.999 124.021 127.502 124.137 126.969 124.137C125.934 124.137 125.114 123.802 124.508 123.132C123.902 122.462 123.599 121.537 123.599 120.356V120.186C123.599 119.06 123.899 118.16 124.501 117.485C125.103 116.806 125.923 116.467 126.962 116.467C127.841 116.467 128.557 116.724 129.108 117.239C129.664 117.75 129.956 118.422 129.983 119.256H128.418C128.4 118.832 128.254 118.483 127.98 118.21C127.712 117.937 127.368 117.8 126.948 117.8C126.41 117.8 125.996 117.996 125.704 118.388C125.412 118.775 125.264 119.365 125.26 120.158V120.425C125.26 121.227 125.403 121.826 125.69 122.223C125.982 122.615 126.401 122.811 126.948 122.811ZM132.875 117.41C133.417 116.781 134.103 116.467 134.933 116.467C136.509 116.467 137.309 117.367 137.332 119.167V124H135.671V119.229C135.671 118.718 135.559 118.358 135.336 118.148C135.117 117.934 134.794 117.827 134.365 117.827C133.7 117.827 133.203 118.123 132.875 118.716V124H131.214V113.5H132.875V117.41ZM140.784 124H139.123V116.604H140.784V124ZM139.021 114.683C139.021 114.427 139.1 114.215 139.26 114.047C139.424 113.878 139.656 113.794 139.957 113.794C140.258 113.794 140.49 113.878 140.654 114.047C140.818 114.215 140.9 114.427 140.9 114.683C140.9 114.933 140.818 115.143 140.654 115.312C140.49 115.476 140.258 115.558 139.957 115.558C139.656 115.558 139.424 115.476 139.26 115.312C139.1 115.143 139.021 114.933 139.021 114.683ZM142.309 120.247C142.309 119.099 142.577 118.183 143.115 117.499C143.658 116.811 144.375 116.467 145.269 116.467C146.112 116.467 146.775 116.761 147.258 117.349L147.333 116.604H148.83V123.774C148.83 124.745 148.527 125.511 147.921 126.071C147.319 126.632 146.506 126.912 145.48 126.912C144.938 126.912 144.407 126.798 143.888 126.57C143.373 126.347 142.981 126.053 142.712 125.688L143.498 124.69C144.008 125.297 144.637 125.6 145.385 125.6C145.936 125.6 146.371 125.449 146.69 125.148C147.009 124.852 147.169 124.415 147.169 123.836V123.337C146.69 123.87 146.052 124.137 145.255 124.137C144.389 124.137 143.68 123.793 143.129 123.104C142.582 122.416 142.309 121.464 142.309 120.247ZM143.963 120.391C143.963 121.133 144.113 121.719 144.414 122.147C144.719 122.571 145.141 122.783 145.679 122.783C146.349 122.783 146.845 122.496 147.169 121.922V118.668C146.854 118.107 146.362 117.827 145.692 117.827C145.146 117.827 144.719 118.044 144.414 118.477C144.113 118.91 143.963 119.548 143.963 120.391ZM154.962 124C154.889 123.859 154.825 123.629 154.771 123.31C154.242 123.861 153.595 124.137 152.829 124.137C152.086 124.137 151.48 123.925 151.011 123.501C150.541 123.077 150.307 122.553 150.307 121.929C150.307 121.14 150.598 120.536 151.182 120.117C151.77 119.693 152.608 119.481 153.697 119.481H154.716V118.996C154.716 118.613 154.609 118.308 154.395 118.08C154.18 117.848 153.854 117.731 153.417 117.731C153.039 117.731 152.729 117.827 152.487 118.019C152.246 118.205 152.125 118.445 152.125 118.736H150.464C150.464 118.331 150.598 117.952 150.867 117.602C151.136 117.246 151.501 116.968 151.961 116.768C152.426 116.567 152.943 116.467 153.513 116.467C154.379 116.467 155.069 116.686 155.584 117.123C156.099 117.556 156.363 118.167 156.377 118.955V122.291C156.377 122.956 156.47 123.487 156.657 123.884V124H154.962ZM153.137 122.804C153.465 122.804 153.772 122.724 154.06 122.564C154.351 122.405 154.57 122.191 154.716 121.922V120.527H153.82C153.205 120.527 152.743 120.634 152.433 120.849C152.123 121.063 151.968 121.366 151.968 121.758C151.968 122.077 152.073 122.332 152.282 122.523C152.496 122.71 152.781 122.804 153.137 122.804ZM159.658 116.604L159.706 117.458C160.253 116.797 160.971 116.467 161.859 116.467C163.4 116.467 164.184 117.349 164.211 119.112V124H162.55V119.208C162.55 118.739 162.447 118.392 162.242 118.169C162.042 117.941 161.711 117.827 161.251 117.827C160.581 117.827 160.082 118.13 159.754 118.736V124H158.093V116.604H159.658ZM166.911 122.25C167.221 122.25 167.46 122.339 167.629 122.517C167.798 122.69 167.882 122.909 167.882 123.173C167.882 123.433 167.798 123.649 167.629 123.822C167.46 123.991 167.221 124.075 166.911 124.075C166.615 124.075 166.38 123.991 166.207 123.822C166.034 123.654 165.947 123.437 165.947 123.173C165.947 122.909 166.032 122.69 166.2 122.517C166.369 122.339 166.606 122.25 166.911 122.25ZM166.911 116.446C167.221 116.446 167.46 116.535 167.629 116.713C167.798 116.886 167.882 117.105 167.882 117.369C167.882 117.629 167.798 117.845 167.629 118.019C167.46 118.187 167.221 118.271 166.911 118.271C166.615 118.271 166.38 118.187 166.207 118.019C166.034 117.85 165.947 117.633 165.947 117.369C165.947 117.105 166.032 116.886 166.2 116.713C166.369 116.535 166.606 116.446 166.911 116.446ZM48.4785 140V130.047H51.418C52.2975 130.047 53.0768 130.243 53.7559 130.635C54.4395 131.027 54.9681 131.583 55.3418 132.303C55.7155 133.023 55.9023 133.848 55.9023 134.777V135.276C55.9023 136.22 55.7132 137.049 55.335 137.765C54.9613 138.48 54.4258 139.032 53.7285 139.419C53.0358 139.806 52.2406 140 51.3428 140H48.4785ZM50.208 131.441V138.619H51.3359C52.2428 138.619 52.9378 138.337 53.4209 137.771C53.9085 137.202 54.1569 136.386 54.166 135.324V134.771C54.166 133.69 53.9313 132.866 53.4619 132.296C52.9925 131.726 52.3112 131.441 51.418 131.441H50.208ZM61.8838 140C61.8109 139.859 61.7471 139.629 61.6924 139.31C61.1637 139.861 60.5166 140.137 59.751 140.137C59.0081 140.137 58.402 139.925 57.9326 139.501C57.4632 139.077 57.2285 138.553 57.2285 137.929C57.2285 137.14 57.5202 136.536 58.1035 136.117C58.6914 135.693 59.5299 135.481 60.6191 135.481H61.6377V134.996C61.6377 134.613 61.5306 134.308 61.3164 134.08C61.1022 133.848 60.7764 133.731 60.3389 133.731C59.9606 133.731 59.6507 133.827 59.4092 134.019C59.1676 134.205 59.0469 134.445 59.0469 134.736H57.3857C57.3857 134.331 57.5202 133.952 57.7891 133.602C58.0579 133.246 58.4225 132.968 58.8828 132.768C59.3477 132.567 59.8649 132.467 60.4346 132.467C61.3005 132.467 61.9909 132.686 62.5059 133.123C63.0208 133.556 63.2852 134.167 63.2988 134.955V138.291C63.2988 138.956 63.3923 139.487 63.5791 139.884V140H61.8838ZM60.0586 138.804C60.3867 138.804 60.6943 138.724 60.9814 138.564C61.2731 138.405 61.4919 138.191 61.6377 137.922V136.527H60.7422C60.127 136.527 59.6644 136.634 59.3545 136.849C59.0446 137.063 58.8896 137.366 58.8896 137.758C58.8896 138.077 58.9945 138.332 59.2041 138.523C59.4183 138.71 59.7031 138.804 60.0586 138.804ZM67.1201 130.806V132.604H68.4258V133.834H67.1201V137.963C67.1201 138.245 67.1748 138.451 67.2842 138.578C67.3981 138.701 67.5986 138.763 67.8857 138.763C68.0771 138.763 68.2708 138.74 68.4668 138.694V139.979C68.0885 140.084 67.724 140.137 67.373 140.137C66.097 140.137 65.459 139.433 65.459 138.024V133.834H64.2422V132.604H65.459V130.806H67.1201ZM74.1201 140C74.0472 139.859 73.9834 139.629 73.9287 139.31C73.4001 139.861 72.7529 140.137 71.9873 140.137C71.2445 140.137 70.6383 139.925 70.1689 139.501C69.6995 139.077 69.4648 138.553 69.4648 137.929C69.4648 137.14 69.7565 136.536 70.3398 136.117C70.9277 135.693 71.7663 135.481 72.8555 135.481H73.874V134.996C73.874 134.613 73.7669 134.308 73.5527 134.08C73.3385 133.848 73.0127 133.731 72.5752 133.731C72.1969 133.731 71.887 133.827 71.6455 134.019C71.404 134.205 71.2832 134.445 71.2832 134.736H69.6221C69.6221 134.331 69.7565 133.952 70.0254 133.602C70.2943 133.246 70.6589 132.968 71.1191 132.768C71.584 132.567 72.1012 132.467 72.6709 132.467C73.5368 132.467 74.2272 132.686 74.7422 133.123C75.2572 133.556 75.5215 134.167 75.5352 134.955V138.291C75.5352 138.956 75.6286 139.487 75.8154 139.884V140H74.1201ZM72.2949 138.804C72.623 138.804 72.9307 138.724 73.2178 138.564C73.5094 138.405 73.7282 138.191 73.874 137.922V136.527H72.9785C72.3633 136.527 71.9007 136.634 71.5908 136.849C71.2809 137.063 71.126 137.366 71.126 137.758C71.126 138.077 71.2308 138.332 71.4404 138.523C71.6546 138.71 71.9395 138.804 72.2949 138.804ZM88.5166 136.76C88.4163 137.822 88.0244 138.651 87.3408 139.248C86.6572 139.84 85.748 140.137 84.6133 140.137C83.8203 140.137 83.1208 139.95 82.5146 139.576C81.9131 139.198 81.4482 138.662 81.1201 137.97C80.792 137.277 80.6211 136.473 80.6074 135.557V134.627C80.6074 133.688 80.7738 132.861 81.1064 132.146C81.4391 131.43 81.9154 130.879 82.5352 130.491C83.1595 130.104 83.8796 129.91 84.6953 129.91C85.7936 129.91 86.6777 130.209 87.3477 130.806C88.0176 131.403 88.4072 132.246 88.5166 133.335H86.7939C86.7119 132.619 86.5023 132.104 86.165 131.79C85.8324 131.471 85.3424 131.312 84.6953 131.312C83.9434 131.312 83.3646 131.587 82.959 132.139C82.5579 132.686 82.3529 133.49 82.3438 134.552V135.434C82.3438 136.509 82.5352 137.329 82.918 137.895C83.3053 138.46 83.8704 138.742 84.6133 138.742C85.2923 138.742 85.8027 138.59 86.1445 138.284C86.4863 137.979 86.7028 137.471 86.7939 136.76H88.5166ZM89.5967 136.233C89.5967 135.509 89.7402 134.857 90.0273 134.278C90.3145 133.695 90.7178 133.248 91.2373 132.938C91.7568 132.624 92.3538 132.467 93.0283 132.467C94.0264 132.467 94.8353 132.788 95.4551 133.431C96.0794 134.073 96.4167 134.925 96.4668 135.987L96.4736 136.377C96.4736 137.106 96.3324 137.758 96.0498 138.332C95.7718 138.906 95.3708 139.351 94.8467 139.665C94.3271 139.979 93.7256 140.137 93.042 140.137C91.9984 140.137 91.1621 139.79 90.5332 139.098C89.9089 138.4 89.5967 137.473 89.5967 136.315V136.233ZM91.2578 136.377C91.2578 137.138 91.415 137.735 91.7295 138.168C92.0439 138.596 92.4814 138.811 93.042 138.811C93.6025 138.811 94.0378 138.592 94.3477 138.154C94.6621 137.717 94.8193 137.076 94.8193 136.233C94.8193 135.486 94.6576 134.894 94.334 134.456C94.015 134.019 93.5798 133.8 93.0283 133.8C92.486 133.8 92.0553 134.016 91.7363 134.449C91.4173 134.878 91.2578 135.52 91.2578 136.377ZM99.6455 140H97.9844V129.5H99.6455V140ZM103.228 140H101.566V129.5H103.228V140ZM108.3 140.137C107.247 140.137 106.393 139.806 105.736 139.146C105.085 138.48 104.759 137.596 104.759 136.493V136.288C104.759 135.55 104.9 134.891 105.183 134.312C105.47 133.729 105.871 133.276 106.386 132.952C106.901 132.629 107.475 132.467 108.108 132.467C109.116 132.467 109.893 132.788 110.439 133.431C110.991 134.073 111.267 134.982 111.267 136.158V136.828H106.434C106.484 137.439 106.687 137.922 107.042 138.277C107.402 138.633 107.853 138.811 108.396 138.811C109.157 138.811 109.776 138.503 110.255 137.888L111.15 138.742C110.854 139.184 110.458 139.528 109.961 139.774C109.469 140.016 108.915 140.137 108.3 140.137ZM108.102 133.8C107.646 133.8 107.277 133.959 106.994 134.278C106.716 134.597 106.538 135.042 106.461 135.611H109.626V135.488C109.59 134.932 109.441 134.513 109.182 134.23C108.922 133.943 108.562 133.8 108.102 133.8ZM115.601 138.811C116.015 138.811 116.359 138.69 116.633 138.448C116.906 138.207 117.052 137.908 117.07 137.553H118.636C118.618 138.013 118.474 138.444 118.205 138.845C117.936 139.241 117.572 139.556 117.111 139.788C116.651 140.021 116.154 140.137 115.621 140.137C114.587 140.137 113.766 139.802 113.16 139.132C112.554 138.462 112.251 137.537 112.251 136.356V136.186C112.251 135.06 112.552 134.16 113.153 133.485C113.755 132.806 114.575 132.467 115.614 132.467C116.494 132.467 117.209 132.724 117.761 133.239C118.317 133.75 118.608 134.422 118.636 135.256H117.07C117.052 134.832 116.906 134.483 116.633 134.21C116.364 133.937 116.02 133.8 115.601 133.8C115.063 133.8 114.648 133.996 114.356 134.388C114.065 134.775 113.917 135.365 113.912 136.158V136.425C113.912 137.227 114.056 137.826 114.343 138.223C114.634 138.615 115.054 138.811 115.601 138.811ZM121.972 130.806V132.604H123.277V133.834H121.972V137.963C121.972 138.245 122.026 138.451 122.136 138.578C122.25 138.701 122.45 138.763 122.737 138.763C122.929 138.763 123.122 138.74 123.318 138.694V139.979C122.94 140.084 122.576 140.137 122.225 140.137C120.949 140.137 120.311 139.433 120.311 138.024V133.834H119.094V132.604H120.311V130.806H121.972ZM126.319 140H124.658V132.604H126.319V140ZM124.556 130.683C124.556 130.427 124.635 130.215 124.795 130.047C124.959 129.878 125.191 129.794 125.492 129.794C125.793 129.794 126.025 129.878 126.189 130.047C126.354 130.215 126.436 130.427 126.436 130.683C126.436 130.933 126.354 131.143 126.189 131.312C126.025 131.476 125.793 131.558 125.492 131.558C125.191 131.558 124.959 131.476 124.795 131.312C124.635 131.143 124.556 130.933 124.556 130.683ZM127.823 136.233C127.823 135.509 127.967 134.857 128.254 134.278C128.541 133.695 128.944 133.248 129.464 132.938C129.983 132.624 130.58 132.467 131.255 132.467C132.253 132.467 133.062 132.788 133.682 133.431C134.306 134.073 134.643 134.925 134.693 135.987L134.7 136.377C134.7 137.106 134.559 137.758 134.276 138.332C133.998 138.906 133.597 139.351 133.073 139.665C132.554 139.979 131.952 140.137 131.269 140.137C130.225 140.137 129.389 139.79 128.76 139.098C128.135 138.4 127.823 137.473 127.823 136.315V136.233ZM129.484 136.377C129.484 137.138 129.642 137.735 129.956 138.168C130.271 138.596 130.708 138.811 131.269 138.811C131.829 138.811 132.264 138.592 132.574 138.154C132.889 137.717 133.046 137.076 133.046 136.233C133.046 135.486 132.884 134.894 132.561 134.456C132.242 134.019 131.806 133.8 131.255 133.8C130.713 133.8 130.282 134.016 129.963 134.449C129.644 134.878 129.484 135.52 129.484 136.377ZM137.646 132.604L137.694 133.458C138.241 132.797 138.959 132.467 139.848 132.467C141.388 132.467 142.172 133.349 142.199 135.112V140H140.538V135.208C140.538 134.739 140.436 134.392 140.23 134.169C140.03 133.941 139.7 133.827 139.239 133.827C138.569 133.827 138.07 134.13 137.742 134.736V140H136.081V132.604H137.646ZM53.7764 156C53.7035 155.859 53.6396 155.629 53.585 155.31C53.0563 155.861 52.4092 156.137 51.6436 156.137C50.9007 156.137 50.2946 155.925 49.8252 155.501C49.3558 155.077 49.1211 154.553 49.1211 153.929C49.1211 153.14 49.4128 152.536 49.9961 152.117C50.584 151.693 51.4225 151.481 52.5117 151.481H53.5303V150.996C53.5303 150.613 53.4232 150.308 53.209 150.08C52.9948 149.848 52.6689 149.731 52.2314 149.731C51.8532 149.731 51.5433 149.827 51.3018 150.019C51.0602 150.205 50.9395 150.445 50.9395 150.736H49.2783C49.2783 150.331 49.4128 149.952 49.6816 149.602C49.9505 149.246 50.3151 148.968 50.7754 148.768C51.2402 148.567 51.7575 148.467 52.3271 148.467C53.193 148.467 53.8835 148.686 54.3984 149.123C54.9134 149.556 55.1777 150.167 55.1914 150.955V154.291C55.1914 154.956 55.2848 155.487 55.4717 155.884V156H53.7764ZM51.9512 154.804C52.2793 154.804 52.5869 154.724 52.874 154.564C53.1657 154.405 53.3844 154.191 53.5303 153.922V152.527H52.6348C52.0195 152.527 51.557 152.634 51.2471 152.849C50.9372 153.063 50.7822 153.366 50.7822 153.758C50.7822 154.077 50.887 154.332 51.0967 154.523C51.3109 154.71 51.5957 154.804 51.9512 154.804ZM58.4727 148.604L58.5205 149.458C59.0674 148.797 59.7852 148.467 60.6738 148.467C62.2142 148.467 62.998 149.349 63.0254 151.112V156H61.3643V151.208C61.3643 150.739 61.2617 150.392 61.0566 150.169C60.8561 149.941 60.5257 149.827 60.0654 149.827C59.3955 149.827 58.8965 150.13 58.5684 150.736V156H56.9072V148.604H58.4727ZM64.4131 152.247C64.4131 151.108 64.6774 150.194 65.2061 149.506C65.7347 148.813 66.4434 148.467 67.332 148.467C68.1159 148.467 68.7493 148.74 69.2324 149.287V145.5H70.8936V156H69.3896L69.3076 155.234C68.8109 155.836 68.1478 156.137 67.3184 156.137C66.4525 156.137 65.7507 155.788 65.2129 155.091C64.6797 154.394 64.4131 153.446 64.4131 152.247ZM66.0742 152.391C66.0742 153.143 66.2178 153.73 66.5049 154.154C66.7965 154.574 67.209 154.783 67.7422 154.783C68.4212 154.783 68.918 154.48 69.2324 153.874V150.716C68.9271 150.123 68.4349 149.827 67.7559 149.827C67.2181 149.827 66.8034 150.041 66.5117 150.47C66.2201 150.894 66.0742 151.534 66.0742 152.391ZM78.0029 152.302V156H76.2734V146.047H80.0811C81.193 146.047 82.0749 146.336 82.7266 146.915C83.3828 147.494 83.7109 148.259 83.7109 149.212C83.7109 150.187 83.3896 150.946 82.7471 151.488C82.109 152.031 81.2135 152.302 80.0605 152.302H78.0029ZM78.0029 150.914H80.0811C80.6963 150.914 81.1657 150.771 81.4893 150.483C81.8128 150.192 81.9746 149.772 81.9746 149.226C81.9746 148.688 81.8105 148.259 81.4824 147.94C81.1543 147.617 80.7031 147.451 80.1289 147.441H78.0029V150.914ZM88.9404 150.121C88.7217 150.085 88.4961 150.066 88.2637 150.066C87.5026 150.066 86.9899 150.358 86.7256 150.941V156H85.0645V148.604H86.6504L86.6914 149.431C87.0924 148.788 87.6484 148.467 88.3594 148.467C88.5964 148.467 88.7923 148.499 88.9473 148.562L88.9404 150.121ZM89.4326 152.233C89.4326 151.509 89.5762 150.857 89.8633 150.278C90.1504 149.695 90.5537 149.248 91.0732 148.938C91.5928 148.624 92.1898 148.467 92.8643 148.467C93.8623 148.467 94.6712 148.788 95.291 149.431C95.9154 150.073 96.2526 150.925 96.3027 151.987L96.3096 152.377C96.3096 153.106 96.1683 153.758 95.8857 154.332C95.6077 154.906 95.2067 155.351 94.6826 155.665C94.1631 155.979 93.5615 156.137 92.8779 156.137C91.8343 156.137 90.998 155.79 90.3691 155.098C89.7448 154.4 89.4326 153.473 89.4326 152.315V152.233ZM91.0938 152.377C91.0938 153.138 91.251 153.735 91.5654 154.168C91.8799 154.596 92.3174 154.811 92.8779 154.811C93.4385 154.811 93.8737 154.592 94.1836 154.154C94.498 153.717 94.6553 153.076 94.6553 152.233C94.6553 151.486 94.4935 150.894 94.1699 150.456C93.8509 150.019 93.4157 149.8 92.8643 149.8C92.3219 149.8 91.8913 150.016 91.5723 150.449C91.2533 150.878 91.0938 151.52 91.0938 152.377ZM100.753 154.811C101.168 154.811 101.512 154.69 101.785 154.448C102.059 154.207 102.204 153.908 102.223 153.553H103.788C103.77 154.013 103.626 154.444 103.357 154.845C103.089 155.241 102.724 155.556 102.264 155.788C101.803 156.021 101.307 156.137 100.773 156.137C99.7389 156.137 98.9186 155.802 98.3125 155.132C97.7064 154.462 97.4033 153.537 97.4033 152.356V152.186C97.4033 151.06 97.7041 150.16 98.3057 149.485C98.9072 148.806 99.7275 148.467 100.767 148.467C101.646 148.467 102.362 148.724 102.913 149.239C103.469 149.75 103.761 150.422 103.788 151.256H102.223C102.204 150.832 102.059 150.483 101.785 150.21C101.516 149.937 101.172 149.8 100.753 149.8C100.215 149.8 99.8005 149.996 99.5088 150.388C99.2171 150.775 99.069 151.365 99.0645 152.158V152.425C99.0645 153.227 99.208 153.826 99.4951 154.223C99.7868 154.615 100.206 154.811 100.753 154.811ZM108.3 156.137C107.247 156.137 106.393 155.806 105.736 155.146C105.085 154.48 104.759 153.596 104.759 152.493V152.288C104.759 151.55 104.9 150.891 105.183 150.312C105.47 149.729 105.871 149.276 106.386 148.952C106.901 148.629 107.475 148.467 108.108 148.467C109.116 148.467 109.893 148.788 110.439 149.431C110.991 150.073 111.267 150.982 111.267 152.158V152.828H106.434C106.484 153.439 106.687 153.922 107.042 154.277C107.402 154.633 107.853 154.811 108.396 154.811C109.157 154.811 109.776 154.503 110.255 153.888L111.15 154.742C110.854 155.184 110.458 155.528 109.961 155.774C109.469 156.016 108.915 156.137 108.3 156.137ZM108.102 149.8C107.646 149.8 107.277 149.959 106.994 150.278C106.716 150.597 106.538 151.042 106.461 151.611H109.626V151.488C109.59 150.932 109.441 150.513 109.182 150.23C108.922 149.943 108.562 149.8 108.102 149.8ZM116.708 153.99C116.708 153.694 116.585 153.468 116.339 153.313C116.097 153.159 115.694 153.022 115.129 152.903C114.564 152.785 114.092 152.634 113.714 152.452C112.884 152.051 112.47 151.47 112.47 150.709C112.47 150.071 112.739 149.538 113.276 149.109C113.814 148.681 114.498 148.467 115.327 148.467C116.211 148.467 116.924 148.686 117.467 149.123C118.014 149.561 118.287 150.128 118.287 150.825H116.626C116.626 150.506 116.507 150.242 116.271 150.032C116.034 149.818 115.719 149.711 115.327 149.711C114.963 149.711 114.664 149.795 114.432 149.964C114.204 150.132 114.09 150.358 114.09 150.641C114.09 150.896 114.197 151.094 114.411 151.235C114.625 151.377 115.058 151.52 115.71 151.666C116.362 151.807 116.872 151.978 117.241 152.179C117.615 152.375 117.891 152.612 118.068 152.89C118.251 153.168 118.342 153.505 118.342 153.901C118.342 154.567 118.066 155.107 117.515 155.521C116.963 155.932 116.241 156.137 115.348 156.137C114.742 156.137 114.201 156.027 113.728 155.809C113.254 155.59 112.884 155.289 112.62 154.906C112.356 154.523 112.224 154.111 112.224 153.669H113.837C113.86 154.061 114.008 154.364 114.281 154.578C114.555 154.788 114.917 154.893 115.368 154.893C115.806 154.893 116.138 154.811 116.366 154.646C116.594 154.478 116.708 154.259 116.708 153.99ZM123.94 153.99C123.94 153.694 123.817 153.468 123.571 153.313C123.33 153.159 122.926 153.022 122.361 152.903C121.796 152.785 121.325 152.634 120.946 152.452C120.117 152.051 119.702 151.47 119.702 150.709C119.702 150.071 119.971 149.538 120.509 149.109C121.047 148.681 121.73 148.467 122.56 148.467C123.444 148.467 124.157 148.686 124.699 149.123C125.246 149.561 125.52 150.128 125.52 150.825H123.858C123.858 150.506 123.74 150.242 123.503 150.032C123.266 149.818 122.951 149.711 122.56 149.711C122.195 149.711 121.896 149.795 121.664 149.964C121.436 150.132 121.322 150.358 121.322 150.641C121.322 150.896 121.429 151.094 121.644 151.235C121.858 151.377 122.291 151.52 122.942 151.666C123.594 151.807 124.104 151.978 124.474 152.179C124.847 152.375 125.123 152.612 125.301 152.89C125.483 153.168 125.574 153.505 125.574 153.901C125.574 154.567 125.299 155.107 124.747 155.521C124.196 155.932 123.473 156.137 122.58 156.137C121.974 156.137 121.434 156.027 120.96 155.809C120.486 155.59 120.117 155.289 119.853 154.906C119.588 154.523 119.456 154.111 119.456 153.669H121.069C121.092 154.061 121.24 154.364 121.514 154.578C121.787 154.788 122.149 154.893 122.601 154.893C123.038 154.893 123.371 154.811 123.599 154.646C123.826 154.478 123.94 154.259 123.94 153.99ZM128.794 156H127.133V148.604H128.794V156ZM127.03 146.683C127.03 146.427 127.11 146.215 127.27 146.047C127.434 145.878 127.666 145.794 127.967 145.794C128.268 145.794 128.5 145.878 128.664 146.047C128.828 146.215 128.91 146.427 128.91 146.683C128.91 146.933 128.828 147.143 128.664 147.312C128.5 147.476 128.268 147.558 127.967 147.558C127.666 147.558 127.434 147.476 127.27 147.312C127.11 147.143 127.03 146.933 127.03 146.683ZM132.15 148.604L132.198 149.458C132.745 148.797 133.463 148.467 134.352 148.467C135.892 148.467 136.676 149.349 136.703 151.112V156H135.042V151.208C135.042 150.739 134.939 150.392 134.734 150.169C134.534 149.941 134.203 149.827 133.743 149.827C133.073 149.827 132.574 150.13 132.246 150.736V156H130.585V148.604H132.15ZM138.111 152.247C138.111 151.099 138.38 150.183 138.918 149.499C139.46 148.811 140.178 148.467 141.071 148.467C141.914 148.467 142.577 148.761 143.061 149.349L143.136 148.604H144.633V155.774C144.633 156.745 144.33 157.511 143.724 158.071C143.122 158.632 142.309 158.912 141.283 158.912C140.741 158.912 140.21 158.798 139.69 158.57C139.175 158.347 138.784 158.053 138.515 157.688L139.301 156.69C139.811 157.297 140.44 157.6 141.188 157.6C141.739 157.6 142.174 157.449 142.493 157.148C142.812 156.852 142.972 156.415 142.972 155.836V155.337C142.493 155.87 141.855 156.137 141.058 156.137C140.192 156.137 139.483 155.793 138.932 155.104C138.385 154.416 138.111 153.464 138.111 152.247ZM139.766 152.391C139.766 153.133 139.916 153.719 140.217 154.147C140.522 154.571 140.944 154.783 141.481 154.783C142.151 154.783 142.648 154.496 142.972 153.922V150.668C142.657 150.107 142.165 149.827 141.495 149.827C140.948 149.827 140.522 150.044 140.217 150.477C139.916 150.91 139.766 151.548 139.766 152.391Z" fill="#0B406C"/>
<path d="M70.085 173.76C69.9847 174.822 69.5928 175.651 68.9092 176.248C68.2256 176.84 67.3164 177.137 66.1816 177.137C65.3887 177.137 64.6891 176.95 64.083 176.576C63.4814 176.198 63.0166 175.662 62.6885 174.97C62.3604 174.277 62.1895 173.473 62.1758 172.557V171.627C62.1758 170.688 62.3421 169.861 62.6748 169.146C63.0075 168.43 63.4837 167.879 64.1035 167.491C64.7279 167.104 65.4479 166.91 66.2637 166.91C67.362 166.91 68.2461 167.209 68.916 167.806C69.5859 168.403 69.9756 169.246 70.085 170.335H68.3623C68.2803 169.619 68.0706 169.104 67.7334 168.79C67.4007 168.471 66.9108 168.312 66.2637 168.312C65.5117 168.312 64.9329 168.587 64.5273 169.139C64.1263 169.686 63.9212 170.49 63.9121 171.552V172.434C63.9121 173.509 64.1035 174.329 64.4863 174.895C64.8737 175.46 65.4388 175.742 66.1816 175.742C66.8607 175.742 67.3711 175.59 67.7129 175.284C68.0547 174.979 68.2712 174.471 68.3623 173.76H70.085ZM73.2432 177H71.582V166.5H73.2432V177ZM76.8252 177H75.1641V169.604H76.8252V177ZM75.0615 167.683C75.0615 167.427 75.1413 167.215 75.3008 167.047C75.4648 166.878 75.6973 166.794 75.998 166.794C76.2988 166.794 76.5312 166.878 76.6953 167.047C76.8594 167.215 76.9414 167.427 76.9414 167.683C76.9414 167.933 76.8594 168.143 76.6953 168.312C76.5312 168.476 76.2988 168.558 75.998 168.558C75.6973 168.558 75.4648 168.476 75.3008 168.312C75.1413 168.143 75.0615 167.933 75.0615 167.683ZM81.6787 175.811C82.0934 175.811 82.4375 175.69 82.7109 175.448C82.9844 175.207 83.1302 174.908 83.1484 174.553H84.7139C84.6956 175.013 84.5521 175.444 84.2832 175.845C84.0143 176.241 83.6497 176.556 83.1895 176.788C82.7292 177.021 82.2324 177.137 81.6992 177.137C80.6647 177.137 79.8444 176.802 79.2383 176.132C78.6322 175.462 78.3291 174.537 78.3291 173.356V173.186C78.3291 172.06 78.6299 171.16 79.2314 170.485C79.833 169.806 80.6533 169.467 81.6924 169.467C82.5719 169.467 83.2874 169.724 83.8389 170.239C84.3949 170.75 84.6865 171.422 84.7139 172.256H83.1484C83.1302 171.832 82.9844 171.483 82.7109 171.21C82.4421 170.937 82.098 170.8 81.6787 170.8C81.141 170.8 80.7262 170.996 80.4346 171.388C80.1429 171.775 79.9948 172.365 79.9902 173.158V173.425C79.9902 174.227 80.1338 174.826 80.4209 175.223C80.7126 175.615 81.1318 175.811 81.6787 175.811ZM88.3711 173.828L87.6328 174.587V177H85.9717V166.5H87.6328V172.557L88.1523 171.907L90.1963 169.604H92.1924L89.4443 172.687L92.4863 177H90.5654L88.3711 173.828ZM98.4062 170.41C98.9486 169.781 99.6344 169.467 100.464 169.467C102.041 169.467 102.84 170.367 102.863 172.167V177H101.202V172.229C101.202 171.718 101.09 171.358 100.867 171.148C100.648 170.934 100.325 170.827 99.8965 170.827C99.2311 170.827 98.7344 171.123 98.4062 171.716V177H96.7451V166.5H98.4062V170.41ZM107.806 177.137C106.753 177.137 105.898 176.806 105.242 176.146C104.59 175.48 104.265 174.596 104.265 173.493V173.288C104.265 172.55 104.406 171.891 104.688 171.312C104.976 170.729 105.377 170.276 105.892 169.952C106.407 169.629 106.981 169.467 107.614 169.467C108.621 169.467 109.398 169.788 109.945 170.431C110.497 171.073 110.772 171.982 110.772 173.158V173.828H105.939C105.99 174.439 106.192 174.922 106.548 175.277C106.908 175.633 107.359 175.811 107.901 175.811C108.662 175.811 109.282 175.503 109.761 174.888L110.656 175.742C110.36 176.184 109.964 176.528 109.467 176.774C108.975 177.016 108.421 177.137 107.806 177.137ZM107.607 170.8C107.152 170.8 106.783 170.959 106.5 171.278C106.222 171.597 106.044 172.042 105.967 172.611H109.132V172.488C109.095 171.932 108.947 171.513 108.688 171.23C108.428 170.943 108.068 170.8 107.607 170.8ZM115.94 171.121C115.722 171.085 115.496 171.066 115.264 171.066C114.503 171.066 113.99 171.358 113.726 171.941V177H112.064V169.604H113.65L113.691 170.431C114.092 169.788 114.648 169.467 115.359 169.467C115.596 169.467 115.792 169.499 115.947 169.562L115.94 171.121ZM120.11 177.137C119.058 177.137 118.203 176.806 117.547 176.146C116.895 175.48 116.569 174.596 116.569 173.493V173.288C116.569 172.55 116.711 171.891 116.993 171.312C117.28 170.729 117.681 170.276 118.196 169.952C118.711 169.629 119.285 169.467 119.919 169.467C120.926 169.467 121.703 169.788 122.25 170.431C122.801 171.073 123.077 171.982 123.077 173.158V173.828H118.244C118.294 174.439 118.497 174.922 118.853 175.277C119.213 175.633 119.664 175.811 120.206 175.811C120.967 175.811 121.587 175.503 122.065 174.888L122.961 175.742C122.665 176.184 122.268 176.528 121.771 176.774C121.279 177.016 120.726 177.137 120.11 177.137ZM119.912 170.8C119.456 170.8 119.087 170.959 118.805 171.278C118.527 171.597 118.349 172.042 118.271 172.611H121.437V172.488C121.4 171.932 121.252 171.513 120.992 171.23C120.732 170.943 120.372 170.8 119.912 170.8Z" fill="#BFFBDE"/>
<defs>
<filter id="filter0_d" x="0" y="0" width="197" height="222" filterUnits="userSpaceOnUse" color-interpolation-filters="sRGB">
<feFlood flood-opacity="0" result="BackgroundImageFix"/>
<feColorMatrix in="SourceAlpha" type="matrix" values="0 0 0 0 0 0 0 0 0 0 0 0 0 0 0 0 0 0 127 0"/>
<feOffset dy="4"/>
<feGaussianBlur stdDeviation="2"/>
<feColorMatrix type="matrix" values="0 0 0 0 0 0 0 0 0 0 0 0 0 0 0 0 0 0 0.25 0"/>
<feBlend mode="normal" in2="BackgroundImageFix" result="effect1_dropShadow"/>
<feBlend mode="normal" in="SourceGraphic" in2="effect1_dropShadow" result="shape"/>
</filter>
<linearGradient id="paint0_linear" x1="68.6189" y1="17.1022" x2="107.826" y2="55.766" gradientUnits="userSpaceOnUse">
<stop stop-color="#387EB8"/>
<stop offset="1" stop-color="#366994"/>
</linearGradient>
<linearGradient id="paint1_linear" x1="92.5906" y1="42.0278" x2="134.687" y2="81.6672" gradientUnits="userSpaceOnUse">
<stop stop-color="#FFE052"/>
<stop offset="1" stop-color="#FFC331"/>
</linearGradient>
</defs>
</svg>
