<svg width="141" height="159" viewBox="0 0 141 159" fill="none" xmlns="http://www.w3.org/2000/svg">
<g filter="url(#filter0_d)">
<rect x="4" width="133" height="151" rx="39" fill="#405C50"/>
</g>
<g clip-path="url(#clip0)">
<path d="M71.6724 7.07205C57.5935 7.07205 58.4727 13.218 58.4727 13.218L58.4884 19.5852H71.9235V21.4969H53.152C53.152 21.4969 44.1429 20.4684 44.1429 34.7685C44.1429 49.0685 52.0062 48.5614 52.0062 48.5614H56.6991V41.9256C56.6991 41.9256 56.4461 34.0101 64.4369 34.0101H77.7621C77.7621 34.0101 85.2488 34.1319 85.2488 26.7265V14.482C85.2488 14.482 86.3854 7.07205 71.6724 7.07205ZM64.2642 11.3537C65.6009 11.3537 66.6813 12.4412 66.6813 13.7868C66.6813 15.1324 65.6009 16.2199 64.2642 16.2199C62.9275 16.2199 61.8471 15.1324 61.8471 13.7868C61.8471 12.4412 62.9275 11.3537 64.2642 11.3537Z" fill="url(#paint0_linear)"/>
<path d="M72.0718 62.608C86.1507 62.608 85.2715 56.4621 85.2715 56.4621L85.2558 50.0949H71.8207V48.1832H90.5922C90.5922 48.1832 99.6013 49.2117 99.6013 34.9116C99.6013 20.6116 91.738 21.1187 91.738 21.1187H87.0451V27.7545C87.0451 27.7545 87.2981 35.67 79.3073 35.67H65.9821C65.9821 35.67 58.4954 35.5482 58.4954 42.9536V55.1981C58.4954 55.1981 57.3587 62.608 72.0718 62.608ZM79.48 58.3264C78.1433 58.3264 77.0629 57.2389 77.0629 55.8933C77.0629 54.5477 78.1433 53.4602 79.48 53.4602C80.8167 53.4602 81.8971 54.5477 81.8971 55.8933C81.8971 57.2389 80.8167 58.3264 79.48 58.3264Z" fill="url(#paint1_linear)"/>
</g>
<rect x="14.5556" y="70.5607" width="112.593" height="65.6215" rx="16" fill="#8AD4B5"/>
<path d="M23.9311 80.2131V84.964C23.9311 85.7192 23.6886 86.3182 23.2036 86.7609C22.7218 87.2004 22.0789 87.4201 21.2748 87.4201C20.461 87.4201 19.8149 87.2036 19.3364 86.7707C18.8579 86.3345 18.6186 85.7306 18.6186 84.9592V80.2131H19.8491V84.9689C19.8491 85.4442 19.9695 85.8071 20.2104 86.0578C20.4513 86.3084 20.8061 86.4338 21.2748 86.4338C22.2254 86.4338 22.7006 85.9325 22.7006 84.9299V80.2131H23.9311ZM26.2407 82.0392L26.2748 82.6496C26.6655 82.1776 27.1782 81.9416 27.8129 81.9416C28.9132 81.9416 29.4731 82.5715 29.4926 83.8312V87.3224H28.3061V83.8996C28.3061 83.5643 28.2329 83.3169 28.0864 83.1574C27.9431 82.9946 27.7071 82.9133 27.3784 82.9133C26.8998 82.9133 26.5434 83.1297 26.309 83.5627V87.3224H25.1225V82.0392H26.2407ZM31.9682 87.3224H30.7817V82.0392H31.9682V87.3224ZM30.7084 80.6672C30.7084 80.4849 30.7654 80.3335 30.8793 80.2131C30.9965 80.0926 31.1625 80.0324 31.3774 80.0324C31.5922 80.0324 31.7582 80.0926 31.8754 80.2131C31.9926 80.3335 32.0512 80.4849 32.0512 80.6672C32.0512 80.8462 31.9926 80.9959 31.8754 81.1164C31.7582 81.2336 31.5922 81.2922 31.3774 81.2922C31.1625 81.2922 30.9965 81.2336 30.8793 81.1164C30.7654 80.9959 30.7084 80.8462 30.7084 80.6672ZM35.1274 85.8185L36.2456 82.0392H37.4711L35.6401 87.3224H34.6098L32.7641 82.0392H33.9946L35.1274 85.8185ZM40.4741 87.4201C39.7221 87.4201 39.1118 87.1841 38.643 86.7121C38.1775 86.2368 37.9448 85.6053 37.9448 84.8176V84.6711C37.9448 84.1437 38.0457 83.6733 38.2475 83.2599C38.4526 82.8433 38.739 82.5194 39.1069 82.2883C39.4747 82.0571 39.8849 81.9416 40.3373 81.9416C41.0567 81.9416 41.6118 82.1711 42.0024 82.6301C42.3963 83.089 42.5932 83.7384 42.5932 84.5783V85.0568H39.1411C39.1769 85.493 39.3217 85.8381 39.5756 86.092C39.8328 86.3459 40.1551 86.4728 40.5424 86.4728C41.086 86.4728 41.5288 86.2531 41.8706 85.8136L42.5102 86.424C42.2986 86.7398 42.0154 86.9855 41.6606 87.1613C41.309 87.3338 40.9135 87.4201 40.4741 87.4201ZM40.3325 82.8937C40.0069 82.8937 39.7433 83.0077 39.5415 83.2355C39.3429 83.4634 39.2159 83.7808 39.1606 84.1877H41.4213V84.0998C41.3953 83.7026 41.2895 83.4032 41.104 83.2013C40.9184 82.9963 40.6612 82.8937 40.3325 82.8937ZM46.2846 83.1232C46.1284 83.0972 45.9672 83.0842 45.8012 83.0842C45.2576 83.0842 44.8914 83.2925 44.7026 83.7092V87.3224H43.5161V82.0392H44.6489L44.6782 82.6301C44.9646 82.1711 45.3618 81.9416 45.8696 81.9416C46.0388 81.9416 46.1788 81.9644 46.2895 82.0099L46.2846 83.1232ZM49.9956 85.8869C49.9956 85.6753 49.9077 85.5142 49.7319 85.4035C49.5594 85.2928 49.2713 85.1952 48.8676 85.1105C48.464 85.0259 48.1271 84.9185 47.8569 84.7883C47.2644 84.5018 46.9682 84.0868 46.9682 83.5431C46.9682 83.0874 47.1603 82.7065 47.5444 82.4006C47.9285 82.0946 48.4168 81.9416 49.0092 81.9416C49.6407 81.9416 50.1502 82.0978 50.5375 82.4103C50.9282 82.7228 51.1235 83.1281 51.1235 83.6261H49.937C49.937 83.3983 49.8523 83.2095 49.6831 83.0597C49.5138 82.9067 49.2892 82.8302 49.0092 82.8302C48.7488 82.8302 48.5356 82.8905 48.3696 83.0109C48.2068 83.1314 48.1254 83.2925 48.1254 83.4943C48.1254 83.6766 48.2019 83.8182 48.3549 83.9191C48.5079 84.02 48.8172 84.1226 49.2827 84.2267C49.7482 84.3276 50.1127 84.4497 50.3764 84.5929C50.6433 84.7329 50.8403 84.9022 50.9672 85.1008C51.0974 85.2993 51.1625 85.5402 51.1625 85.8234C51.1625 86.2987 50.9656 86.6844 50.5717 86.9806C50.1778 87.2736 49.6619 87.4201 49.0239 87.4201C48.5909 87.4201 48.2052 87.342 47.8666 87.1857C47.5281 87.0295 47.2644 86.8146 47.0756 86.5412C46.8868 86.2677 46.7924 85.9731 46.7924 85.6574H47.9448C47.961 85.9373 48.0668 86.1538 48.2622 86.3068C48.4575 86.4565 48.7163 86.5314 49.0385 86.5314C49.351 86.5314 49.5887 86.4728 49.7514 86.3556C49.9142 86.2352 49.9956 86.0789 49.9956 85.8869ZM53.4623 87.3224H52.2758V82.0392H53.4623V87.3224ZM52.2026 80.6672C52.2026 80.4849 52.2595 80.3335 52.3735 80.2131C52.4907 80.0926 52.6567 80.0324 52.8715 80.0324C53.0864 80.0324 53.2524 80.0926 53.3696 80.2131C53.4868 80.3335 53.5454 80.4849 53.5454 80.6672C53.5454 80.8462 53.4868 80.9959 53.3696 81.1164C53.2524 81.2336 53.0864 81.2922 52.8715 81.2922C52.6567 81.2922 52.4907 81.2336 52.3735 81.1164C52.2595 80.9959 52.2026 80.8462 52.2026 80.6672ZM56.2456 80.7551V82.0392H57.1782V82.9181H56.2456V85.8674C56.2456 86.0692 56.2846 86.2157 56.3627 86.3068C56.4441 86.3947 56.5873 86.4386 56.7924 86.4386C56.9291 86.4386 57.0675 86.4224 57.2075 86.3898V87.3078C56.9373 87.3827 56.6769 87.4201 56.4262 87.4201C55.5148 87.4201 55.059 86.9172 55.059 85.9113V82.9181H54.1899V82.0392H55.059V80.7551H56.2456ZM59.937 85.6232L61.0112 82.0392H62.2758L60.1762 88.1232C59.854 89.0119 59.3071 89.4562 58.5356 89.4562C58.3631 89.4562 58.1726 89.4269 57.9643 89.3683V88.4504L58.1889 88.465C58.4884 88.465 58.713 88.4097 58.8627 88.299C59.0157 88.1916 59.1362 88.0093 59.2241 87.7521L59.395 87.298L57.5395 82.0392H58.8188L59.937 85.6232ZM65.2299 84.632C65.2299 84.1144 65.3325 83.6489 65.5375 83.2355C65.7426 82.8189 66.0307 82.4998 66.4018 82.2785C66.7729 82.0539 67.1993 81.9416 67.6811 81.9416C68.394 81.9416 68.9718 82.1711 69.4145 82.6301C69.8605 83.089 70.1013 83.6978 70.1372 84.4562L70.142 84.7345C70.142 85.2554 70.0411 85.7209 69.8393 86.131C69.6407 86.5412 69.3543 86.8586 68.9799 87.0832C68.6088 87.3078 68.1791 87.4201 67.6909 87.4201C66.9454 87.4201 66.3481 87.1727 65.8989 86.6779C65.4529 86.1799 65.2299 85.5174 65.2299 84.6906V84.632ZM66.4165 84.7345C66.4165 85.2782 66.5288 85.7046 66.7534 86.0138C66.978 86.3198 67.2905 86.4728 67.6909 86.4728C68.0913 86.4728 68.4021 86.3166 68.6235 86.0041C68.8481 85.6916 68.9604 85.2342 68.9604 84.632C68.9604 84.0981 68.8448 83.675 68.6137 83.3625C68.3859 83.05 68.075 82.8937 67.6811 82.8937C67.2937 82.8937 66.9861 83.0483 66.7582 83.3576C66.5304 83.6636 66.4165 84.1226 66.4165 84.7345ZM71.5629 87.3224V82.9181H70.7573V82.0392H71.5629V81.5558C71.5629 80.9699 71.7257 80.5174 72.0512 80.1984C72.3767 79.8794 72.8325 79.7199 73.4184 79.7199C73.6267 79.7199 73.8481 79.7492 74.0825 79.8078L74.0532 80.7355C73.923 80.7095 73.7716 80.6965 73.5991 80.6965C73.0327 80.6965 72.7495 80.9878 72.7495 81.5705V82.0392H73.8237V82.9181H72.7495V87.3224H71.5629ZM78.8969 80.2131L80.9477 85.6623L82.9936 80.2131H84.5903V87.3224H83.3598V84.9787L83.4819 81.8439L81.3823 87.3224H80.4985L78.4038 81.8488L78.5258 84.9787V87.3224H77.2954V80.2131H78.8969ZM87.2026 87.3224H86.0161V82.0392H87.2026V87.3224ZM85.9428 80.6672C85.9428 80.4849 85.9998 80.3335 86.1137 80.2131C86.2309 80.0926 86.3969 80.0324 86.6118 80.0324C86.8266 80.0324 86.9926 80.0926 87.1098 80.2131C87.227 80.3335 87.2856 80.4849 87.2856 80.6672C87.2856 80.8462 87.227 80.9959 87.1098 81.1164C86.9926 81.2336 86.8266 81.2922 86.6118 81.2922C86.3969 81.2922 86.2309 81.2336 86.1137 81.1164C85.9998 80.9959 85.9428 80.8462 85.9428 80.6672ZM90.6694 86.4728C90.9656 86.4728 91.2114 86.3866 91.4067 86.214C91.602 86.0415 91.7062 85.8283 91.7192 85.5744H92.8373C92.8243 85.9032 92.7218 86.2108 92.5297 86.4972C92.3377 86.7804 92.0773 87.0051 91.7485 87.1711C91.4197 87.3371 91.0649 87.4201 90.684 87.4201C89.9451 87.4201 89.3592 87.1808 88.9262 86.7023C88.4933 86.2238 88.2768 85.563 88.2768 84.7199V84.5978C88.2768 83.7938 88.4916 83.1509 88.9213 82.6691C89.351 82.1841 89.937 81.9416 90.6791 81.9416C91.3074 81.9416 91.8185 82.1255 92.2123 82.4933C92.6095 82.8579 92.8178 83.3381 92.8373 83.9338H91.7192C91.7062 83.631 91.602 83.382 91.4067 83.1867C91.2146 82.9914 90.9689 82.8937 90.6694 82.8937C90.2853 82.8937 89.989 83.0337 89.7807 83.3136C89.5724 83.5903 89.4666 84.0119 89.4633 84.5783V84.7687C89.4633 85.3416 89.5659 85.7697 89.7709 86.0529C89.9793 86.3329 90.2788 86.4728 90.6694 86.4728ZM94.9028 82.6154C95.2901 82.1662 95.7801 81.9416 96.3725 81.9416C97.4988 81.9416 98.0701 82.5845 98.0864 83.8703V87.3224H96.8998V83.9142C96.8998 83.5496 96.8201 83.2925 96.6606 83.1427C96.5043 82.9898 96.2732 82.9133 95.9672 82.9133C95.492 82.9133 95.1372 83.1248 94.9028 83.548V87.3224H93.7163V79.8224H94.9028V82.6154ZM100.552 87.3224H99.3657V82.0392H100.552V87.3224ZM99.2924 80.6672C99.2924 80.4849 99.3494 80.3335 99.4633 80.2131C99.5805 80.0926 99.7465 80.0324 99.9614 80.0324C100.176 80.0324 100.342 80.0926 100.459 80.2131C100.577 80.3335 100.635 80.4849 100.635 80.6672C100.635 80.8462 100.577 80.9959 100.459 81.1164C100.342 81.2336 100.176 81.2922 99.9614 81.2922C99.7465 81.2922 99.5805 81.2336 99.4633 81.1164C99.3494 80.9959 99.2924 80.8462 99.2924 80.6672ZM101.641 84.6418C101.641 83.8215 101.833 83.1672 102.217 82.6789C102.605 82.1873 103.117 81.9416 103.755 81.9416C104.358 81.9416 104.831 82.1515 105.176 82.5715L105.23 82.0392H106.299V87.1613C106.299 87.8547 106.083 88.4015 105.65 88.8019C105.22 89.2023 104.639 89.4025 103.907 89.4025C103.519 89.4025 103.14 89.3211 102.769 89.1584C102.401 88.9989 102.121 88.7889 101.929 88.5285L102.491 87.8156C102.855 88.2485 103.304 88.465 103.838 88.465C104.232 88.465 104.543 88.3576 104.771 88.1427C104.999 87.9312 105.113 87.6187 105.113 87.2052V86.8488C104.771 87.2297 104.315 87.4201 103.746 87.4201C103.127 87.4201 102.621 87.1743 102.227 86.6828C101.836 86.1912 101.641 85.5109 101.641 84.6418ZM102.823 84.7443C102.823 85.2749 102.93 85.6932 103.145 85.9992C103.363 86.3019 103.664 86.4533 104.048 86.4533C104.527 86.4533 104.882 86.2482 105.113 85.8381V83.5138C104.888 83.1134 104.537 82.9133 104.058 82.9133C103.667 82.9133 103.363 83.0679 103.145 83.3771C102.93 83.6864 102.823 84.1421 102.823 84.7443ZM110.679 87.3224C110.627 87.2215 110.581 87.0571 110.542 86.8293C110.165 87.2231 109.703 87.4201 109.156 87.4201C108.625 87.4201 108.192 87.2687 107.857 86.966C107.522 86.6633 107.354 86.2889 107.354 85.8429C107.354 85.2798 107.562 84.8485 107.979 84.549C108.399 84.2463 108.998 84.0949 109.776 84.0949H110.503V83.7482C110.503 83.4748 110.427 83.2567 110.274 83.0939C110.121 82.9279 109.888 82.8449 109.576 82.8449C109.305 82.8449 109.084 82.9133 108.912 83.05C108.739 83.1834 108.653 83.3543 108.653 83.5627H107.466C107.466 83.273 107.562 83.0028 107.754 82.7521C107.946 82.4982 108.207 82.2996 108.536 82.1564C108.868 82.0132 109.237 81.9416 109.644 81.9416C110.262 81.9416 110.756 82.0978 111.123 82.4103C111.491 82.7196 111.68 83.1558 111.69 83.7189V86.1017C111.69 86.577 111.757 86.9562 111.89 87.2394V87.3224H110.679ZM109.375 86.4679C109.61 86.4679 109.83 86.411 110.035 86.297C110.243 86.1831 110.399 86.0301 110.503 85.8381V84.842H109.864C109.424 84.842 109.094 84.9185 108.873 85.0715C108.651 85.2245 108.54 85.4409 108.54 85.7209C108.54 85.9487 108.615 86.131 108.765 86.2677C108.918 86.4012 109.122 86.4679 109.375 86.4679ZM114.034 82.0392L114.068 82.6496C114.458 82.1776 114.971 81.9416 115.606 81.9416C116.706 81.9416 117.266 82.5715 117.286 83.8312V87.3224H116.099V83.8996C116.099 83.5643 116.026 83.3169 115.879 83.1574C115.736 82.9946 115.5 82.9133 115.171 82.9133C114.693 82.9133 114.336 83.1297 114.102 83.5627V87.3224H112.915V82.0392H114.034ZM119.214 86.0724C119.436 86.0724 119.607 86.1359 119.727 86.2629C119.847 86.3866 119.908 86.5428 119.908 86.7316C119.908 86.9172 119.847 87.0718 119.727 87.1955C119.607 87.3159 119.436 87.3761 119.214 87.3761C119.003 87.3761 118.835 87.3159 118.711 87.1955C118.588 87.075 118.526 86.9204 118.526 86.7316C118.526 86.5428 118.586 86.3866 118.706 86.2629C118.827 86.1359 118.996 86.0724 119.214 86.0724ZM119.214 81.9269C119.436 81.9269 119.607 81.9904 119.727 82.1174C119.847 82.2411 119.908 82.3973 119.908 82.5861C119.908 82.7717 119.847 82.9263 119.727 83.05C119.607 83.1704 119.436 83.2306 119.214 83.2306C119.003 83.2306 118.835 83.1704 118.711 83.05C118.588 82.9295 118.526 82.7749 118.526 82.5861C118.526 82.3973 118.586 82.2411 118.706 82.1174C118.827 81.9904 118.996 81.9269 119.214 81.9269ZM34.6196 99.3224V92.2131H36.7192C37.3474 92.2131 37.9041 92.353 38.3891 92.633C38.8774 92.9129 39.255 93.3101 39.5219 93.8244C39.7888 94.3387 39.9223 94.9279 39.9223 95.592V95.9484C39.9223 96.6222 39.7872 97.2147 39.517 97.7258C39.2501 98.2368 38.8676 98.6307 38.3696 98.9074C37.8748 99.1841 37.3067 99.3224 36.6655 99.3224H34.6196ZM35.8549 93.2092V98.3361H36.6606C37.3084 98.3361 37.8048 98.1343 38.1498 97.7306C38.4982 97.3237 38.6756 96.7411 38.6821 95.9826V95.5871C38.6821 94.8156 38.5144 94.2264 38.1791 93.8195C37.8439 93.4126 37.3572 93.2092 36.7192 93.2092H35.8549ZM44.1948 99.3224C44.1427 99.2215 44.0971 99.0571 44.0581 98.8293C43.6804 99.2231 43.2182 99.4201 42.6713 99.4201C42.1407 99.4201 41.7078 99.2687 41.3725 98.966C41.0372 98.6633 40.8696 98.2889 40.8696 97.8429C40.8696 97.2798 41.0779 96.8485 41.4946 96.549C41.9145 96.2463 42.5135 96.0949 43.2915 96.0949H44.019V95.7482C44.019 95.4748 43.9425 95.2567 43.7895 95.0939C43.6365 94.9279 43.4038 94.8449 43.0913 94.8449C42.8211 94.8449 42.5997 94.9133 42.4272 95.05C42.2547 95.1834 42.1684 95.3543 42.1684 95.5627H40.9819C40.9819 95.273 41.0779 95.0028 41.27 94.7521C41.462 94.4982 41.7224 94.2996 42.0512 94.1564C42.3832 94.0132 42.7527 93.9416 43.1596 93.9416C43.7781 93.9416 44.2713 94.0978 44.6391 94.4103C45.0069 94.7196 45.1957 95.1558 45.2055 95.7189V98.1017C45.2055 98.577 45.2722 98.9562 45.4057 99.2394V99.3224H44.1948ZM42.8911 98.4679C43.1254 98.4679 43.3452 98.411 43.5502 98.297C43.7586 98.1831 43.9148 98.0301 44.019 97.8381V96.842H43.3793C42.9399 96.842 42.6095 96.9185 42.3881 97.0715C42.1668 97.2245 42.0561 97.4409 42.0561 97.7209C42.0561 97.9487 42.131 98.131 42.2807 98.2677C42.4337 98.4012 42.6372 98.4679 42.8911 98.4679ZM47.935 92.7551V94.0392H48.8676V94.9181H47.935V97.8674C47.935 98.0692 47.9741 98.2157 48.0522 98.3068C48.1336 98.3947 48.2768 98.4386 48.4819 98.4386C48.6186 98.4386 48.7569 98.4224 48.8969 98.3898V99.3078C48.6267 99.3827 48.3663 99.4201 48.1157 99.4201C47.2042 99.4201 46.7485 98.9172 46.7485 97.9113V94.9181H45.8793V94.0392H46.7485V92.7551H47.935ZM52.935 99.3224C52.8829 99.2215 52.8373 99.0571 52.7983 98.8293C52.4207 99.2231 51.9584 99.4201 51.4116 99.4201C50.881 99.4201 50.448 99.2687 50.1127 98.966C49.7775 98.6633 49.6098 98.2889 49.6098 97.8429C49.6098 97.2798 49.8181 96.8485 50.2348 96.549C50.6547 96.2463 51.2537 96.0949 52.0317 96.0949H52.7592V95.7482C52.7592 95.4748 52.6827 95.2567 52.5297 95.0939C52.3767 94.9279 52.144 94.8449 51.8315 94.8449C51.5613 94.8449 51.34 94.9133 51.1674 95.05C50.9949 95.1834 50.9086 95.3543 50.9086 95.5627H49.7221C49.7221 95.273 49.8181 95.0028 50.0102 94.7521C50.2023 94.4982 50.4627 94.2996 50.7915 94.1564C51.1235 94.0132 51.4929 93.9416 51.8998 93.9416C52.5183 93.9416 53.0115 94.0978 53.3793 94.4103C53.7472 94.7196 53.936 95.1558 53.9457 95.7189V98.1017C53.9457 98.577 54.0125 98.9562 54.1459 99.2394V99.3224H52.935ZM51.6313 98.4679C51.8657 98.4679 52.0854 98.411 52.2905 98.297C52.4988 98.1831 52.6551 98.0301 52.7592 97.8381V96.842H52.1196C51.6801 96.842 51.3497 96.9185 51.1284 97.0715C50.907 97.2245 50.7963 97.4409 50.7963 97.7209C50.7963 97.9487 50.8712 98.131 51.0209 98.2677C51.1739 98.4012 51.3774 98.4679 51.6313 98.4679ZM63.2182 97.008C63.1466 97.7664 62.8666 98.3589 62.3784 98.7853C61.8901 99.2085 61.2407 99.4201 60.4301 99.4201C59.8637 99.4201 59.364 99.2866 58.9311 99.0197C58.5014 98.7495 58.1694 98.367 57.935 97.8722C57.7006 97.3774 57.5786 96.8029 57.5688 96.1486V95.4845C57.5688 94.814 57.6876 94.2231 57.9252 93.7121C58.1629 93.201 58.503 92.8071 58.9457 92.5304C59.3917 92.2537 59.906 92.1154 60.4887 92.1154C61.2732 92.1154 61.9047 92.3286 62.3832 92.7551C62.8618 93.1815 63.1401 93.7837 63.2182 94.5617H61.9877C61.9291 94.0506 61.7794 93.6828 61.5385 93.4582C61.3009 93.2303 60.951 93.1164 60.4887 93.1164C59.9516 93.1164 59.5382 93.3133 59.2485 93.7072C58.962 94.0978 58.8155 94.6724 58.809 95.4308V96.0607C58.809 96.8289 58.9457 97.4149 59.2192 97.8185C59.4959 98.2222 59.8995 98.424 60.4301 98.424C60.9151 98.424 61.2797 98.3149 61.5239 98.0968C61.768 97.8787 61.9226 97.5158 61.9877 97.008H63.2182ZM63.9897 96.632C63.9897 96.1144 64.0922 95.6489 64.2973 95.2355C64.5024 94.8189 64.7905 94.4998 65.1616 94.2785C65.5327 94.0539 65.9591 93.9416 66.4409 93.9416C67.1538 93.9416 67.7316 94.1711 68.1743 94.6301C68.6202 95.089 68.8611 95.6978 68.8969 96.4562L68.9018 96.7345C68.9018 97.2554 68.8009 97.7209 68.5991 98.131C68.4005 98.5412 68.114 98.8586 67.7397 99.0832C67.3686 99.3078 66.9389 99.4201 66.4506 99.4201C65.7052 99.4201 65.1079 99.1727 64.6586 98.6779C64.2127 98.1799 63.9897 97.5174 63.9897 96.6906V96.632ZM65.1762 96.7345C65.1762 97.2782 65.2885 97.7046 65.5131 98.0138C65.7377 98.3198 66.0502 98.4728 66.4506 98.4728C66.851 98.4728 67.1619 98.3166 67.3832 98.0041C67.6079 97.6916 67.7202 97.2342 67.7202 96.632C67.7202 96.0981 67.6046 95.675 67.3735 95.3625C67.1456 95.05 66.8347 94.8937 66.4409 94.8937C66.0535 94.8937 65.7459 95.0483 65.518 95.3576C65.2901 95.6636 65.1762 96.1226 65.1762 96.7345ZM71.1674 99.3224H69.9809V91.8224H71.1674V99.3224ZM73.726 99.3224H72.5395V91.8224H73.726V99.3224ZM77.3491 99.4201C76.5971 99.4201 75.9868 99.1841 75.518 98.7121C75.0525 98.2368 74.8198 97.6053 74.8198 96.8176V96.6711C74.8198 96.1437 74.9207 95.6733 75.1225 95.2599C75.3276 94.8433 75.614 94.5194 75.9819 94.2883C76.3497 94.0571 76.7599 93.9416 77.2123 93.9416C77.9317 93.9416 78.4868 94.1711 78.8774 94.6301C79.2713 95.089 79.4682 95.7384 79.4682 96.5783V97.0568H76.0161C76.0519 97.493 76.1967 97.8381 76.4506 98.092C76.7078 98.3459 77.0301 98.4728 77.4174 98.4728C77.961 98.4728 78.4038 98.2531 78.7456 97.8136L79.3852 98.424C79.1736 98.7398 78.8904 98.9855 78.5356 99.1613C78.184 99.3338 77.7885 99.4201 77.3491 99.4201ZM77.2075 94.8937C76.8819 94.8937 76.6183 95.0077 76.4165 95.2355C76.2179 95.4634 76.0909 95.7808 76.0356 96.1877H78.2963V96.0998C78.2703 95.7026 78.1645 95.4032 77.979 95.2013C77.7934 94.9963 77.5362 94.8937 77.2075 94.8937ZM82.5639 98.4728C82.8601 98.4728 83.1059 98.3866 83.3012 98.214C83.4965 98.0415 83.6007 97.8283 83.6137 97.5744H84.7319C84.7189 97.9032 84.6163 98.2108 84.4243 98.4972C84.2322 98.7804 83.9718 99.0051 83.643 99.1711C83.3142 99.3371 82.9594 99.4201 82.5786 99.4201C81.8396 99.4201 81.2537 99.1808 80.8207 98.7023C80.3878 98.2238 80.1713 97.563 80.1713 96.7199V96.5978C80.1713 95.7938 80.3862 95.1509 80.8159 94.6691C81.2456 94.1841 81.8315 93.9416 82.5737 93.9416C83.2019 93.9416 83.713 94.1255 84.1069 94.4933C84.504 94.8579 84.7123 95.3381 84.7319 95.9338H83.6137C83.6007 95.631 83.4965 95.382 83.3012 95.1867C83.1092 94.9914 82.8634 94.8937 82.5639 94.8937C82.1798 94.8937 81.8836 95.0337 81.6752 95.3136C81.4669 95.5903 81.3611 96.0119 81.3579 96.5783V96.7687C81.3579 97.3416 81.4604 97.7697 81.6655 98.0529C81.8738 98.3329 82.1733 98.4728 82.5639 98.4728ZM87.1147 92.7551V94.0392H88.0473V94.9181H87.1147V97.8674C87.1147 98.0692 87.1538 98.2157 87.2319 98.3068C87.3133 98.3947 87.4565 98.4386 87.6616 98.4386C87.7983 98.4386 87.9366 98.4224 88.0766 98.3898V99.3078C87.8064 99.3827 87.546 99.4201 87.2954 99.4201C86.3839 99.4201 85.9282 98.9172 85.9282 97.9113V94.9181H85.059V94.0392H85.9282V92.7551H87.1147ZM90.2202 99.3224H89.0336V94.0392H90.2202V99.3224ZM88.9604 92.6672C88.9604 92.4849 89.0174 92.3335 89.1313 92.2131C89.2485 92.0926 89.4145 92.0324 89.6293 92.0324C89.8442 92.0324 90.0102 92.0926 90.1274 92.2131C90.2446 92.3335 90.3032 92.4849 90.3032 92.6672C90.3032 92.8462 90.2446 92.9959 90.1274 93.1164C90.0102 93.2336 89.8442 93.2922 89.6293 93.2922C89.4145 93.2922 89.2485 93.2336 89.1313 93.1164C89.0174 92.9959 88.9604 92.8462 88.9604 92.6672ZM91.2944 96.632C91.2944 96.1144 91.3969 95.6489 91.602 95.2355C91.8071 94.8189 92.0952 94.4998 92.4663 94.2785C92.8373 94.0539 93.2638 93.9416 93.7456 93.9416C94.4584 93.9416 95.0362 94.1711 95.479 94.6301C95.9249 95.089 96.1658 95.6978 96.2016 96.4562L96.2065 96.7345C96.2065 97.2554 96.1056 97.7209 95.9038 98.131C95.7052 98.5412 95.4187 98.8586 95.0444 99.0832C94.6733 99.3078 94.2436 99.4201 93.7553 99.4201C93.0099 99.4201 92.4125 99.1727 91.9633 98.6779C91.5174 98.1799 91.2944 97.5174 91.2944 96.6906V96.632ZM92.4809 96.7345C92.4809 97.2782 92.5932 97.7046 92.8178 98.0138C93.0424 98.3198 93.3549 98.4728 93.7553 98.4728C94.1557 98.4728 94.4666 98.3166 94.6879 98.0041C94.9125 97.6916 95.0248 97.2342 95.0248 96.632C95.0248 96.0981 94.9093 95.675 94.6782 95.3625C94.4503 95.05 94.1394 94.8937 93.7456 94.8937C93.3582 94.8937 93.0506 95.0483 92.8227 95.3576C92.5948 95.6636 92.4809 96.1226 92.4809 96.7345ZM98.311 94.0392L98.3452 94.6496C98.7358 94.1776 99.2485 93.9416 99.8832 93.9416C100.984 93.9416 101.543 94.5715 101.563 95.8312V99.3224H100.376V95.8996C100.376 95.5643 100.303 95.3169 100.157 95.1574C100.013 94.9946 99.7775 94.9133 99.4487 94.9133C98.9702 94.9133 98.6137 95.1297 98.3793 95.5627V99.3224H97.1928V94.0392H98.311ZM38.4038 111.322C38.3517 111.222 38.3061 111.057 38.267 110.829C37.8894 111.223 37.4272 111.42 36.8803 111.42C36.3497 111.42 35.9168 111.269 35.5815 110.966C35.2462 110.663 35.0786 110.289 35.0786 109.843C35.0786 109.28 35.2869 108.848 35.7036 108.549C36.1235 108.246 36.7224 108.095 37.5004 108.095H38.228V107.748C38.228 107.475 38.1515 107.257 37.9985 107.094C37.8455 106.928 37.6127 106.845 37.3002 106.845C37.0301 106.845 36.8087 106.913 36.6362 107.05C36.4637 107.183 36.3774 107.354 36.3774 107.563H35.1909C35.1909 107.273 35.2869 107.003 35.479 106.752C35.671 106.498 35.9314 106.3 36.2602 106.156C36.5922 106.013 36.9617 105.942 37.3686 105.942C37.9871 105.942 38.4803 106.098 38.8481 106.41C39.2159 106.72 39.4047 107.156 39.4145 107.719V110.102C39.4145 110.577 39.4812 110.956 39.6147 111.239V111.322H38.4038ZM37.1 110.468C37.3344 110.468 37.5541 110.411 37.7592 110.297C37.9676 110.183 38.1238 110.03 38.228 109.838V108.842H37.5883C37.1489 108.842 36.8185 108.918 36.5971 109.071C36.3758 109.224 36.2651 109.441 36.2651 109.721C36.2651 109.949 36.34 110.131 36.4897 110.268C36.6427 110.401 36.8461 110.468 37.1 110.468ZM41.7582 106.039L41.7924 106.65C42.1831 106.178 42.6957 105.942 43.3305 105.942C44.4308 105.942 44.9907 106.571 45.0102 107.831V111.322H43.8237V107.9C43.8237 107.564 43.7504 107.317 43.604 107.157C43.4607 106.995 43.2247 106.913 42.8959 106.913C42.4174 106.913 42.061 107.13 41.8266 107.563V111.322H40.6401V106.039H41.7582ZM46.0014 108.642C46.0014 107.828 46.1902 107.175 46.5678 106.684C46.9454 106.189 47.4516 105.942 48.0864 105.942C48.6463 105.942 49.0987 106.137 49.4438 106.528V103.822H50.6303V111.322H49.5561L49.4975 110.776C49.1427 111.205 48.6691 111.42 48.0766 111.42C47.4581 111.42 46.9568 111.171 46.5727 110.673C46.1918 110.175 46.0014 109.498 46.0014 108.642ZM47.1879 108.744C47.1879 109.281 47.2905 109.701 47.4956 110.004C47.7039 110.304 47.9985 110.453 48.3793 110.453C48.8644 110.453 49.2192 110.237 49.4438 109.804V107.548C49.2257 107.125 48.8741 106.913 48.3891 106.913C48.005 106.913 47.7088 107.066 47.5004 107.372C47.2921 107.675 47.1879 108.132 47.1879 108.744ZM55.7084 108.681V111.322H54.4731V104.213H57.1928C57.9871 104.213 58.617 104.42 59.0825 104.833C59.5512 105.247 59.7856 105.793 59.7856 106.474C59.7856 107.17 59.5561 107.712 59.0971 108.1C58.6414 108.487 58.0017 108.681 57.1782 108.681H55.7084ZM55.7084 107.69H57.1928C57.6323 107.69 57.9676 107.587 58.1987 107.382C58.4298 107.174 58.5454 106.874 58.5454 106.484C58.5454 106.099 58.4282 105.793 58.1938 105.566C57.9594 105.334 57.6372 105.216 57.227 105.209H55.7084V107.69ZM63.5209 107.123C63.3647 107.097 63.2036 107.084 63.0375 107.084C62.4939 107.084 62.1277 107.292 61.9389 107.709V111.322H60.7524V106.039H61.8852L61.9145 106.63C62.201 106.171 62.5981 105.942 63.1059 105.942C63.2752 105.942 63.4151 105.964 63.5258 106.01L63.5209 107.123ZM63.8725 108.632C63.8725 108.114 63.975 107.649 64.1801 107.236C64.3852 106.819 64.6733 106.5 65.0444 106.278C65.4155 106.054 65.8419 105.942 66.3237 105.942C67.0366 105.942 67.6144 106.171 68.0571 106.63C68.503 107.089 68.7439 107.698 68.7797 108.456L68.7846 108.735C68.7846 109.255 68.6837 109.721 68.4819 110.131C68.2833 110.541 67.9969 110.859 67.6225 111.083C67.2514 111.308 66.8217 111.42 66.3334 111.42C65.588 111.42 64.9907 111.173 64.5415 110.678C64.0955 110.18 63.8725 109.517 63.8725 108.691V108.632ZM65.059 108.735C65.059 109.278 65.1713 109.705 65.3959 110.014C65.6206 110.32 65.9331 110.473 66.3334 110.473C66.7338 110.473 67.0447 110.317 67.2661 110.004C67.4907 109.692 67.603 109.234 67.603 108.632C67.603 108.098 67.4874 107.675 67.2563 107.362C67.0284 107.05 66.7176 106.894 66.3237 106.894C65.9363 106.894 65.6287 107.048 65.4008 107.358C65.173 107.664 65.059 108.123 65.059 108.735ZM71.9584 110.473C72.2547 110.473 72.5004 110.387 72.6957 110.214C72.8911 110.042 72.9952 109.828 73.0082 109.574H74.1264C74.1134 109.903 74.0109 110.211 73.8188 110.497C73.6267 110.78 73.3663 111.005 73.0375 111.171C72.7088 111.337 72.354 111.42 71.9731 111.42C71.2342 111.42 70.6482 111.181 70.2153 110.702C69.7823 110.224 69.5659 109.563 69.5659 108.72V108.598C69.5659 107.794 69.7807 107.151 70.2104 106.669C70.6401 106.184 71.226 105.942 71.9682 105.942C72.5965 105.942 73.1075 106.125 73.5014 106.493C73.8985 106.858 74.1069 107.338 74.1264 107.934H73.0082C72.9952 107.631 72.8911 107.382 72.6957 107.187C72.5037 106.991 72.2579 106.894 71.9584 106.894C71.5743 106.894 71.2781 107.034 71.0698 107.314C70.8614 107.59 70.7556 108.012 70.7524 108.578V108.769C70.7524 109.342 70.8549 109.77 71.06 110.053C71.2683 110.333 71.5678 110.473 71.9584 110.473ZM77.3491 111.42C76.5971 111.42 75.9868 111.184 75.518 110.712C75.0525 110.237 74.8198 109.605 74.8198 108.818V108.671C74.8198 108.144 74.9207 107.673 75.1225 107.26C75.3276 106.843 75.614 106.519 75.9819 106.288C76.3497 106.057 76.7599 105.942 77.2123 105.942C77.9317 105.942 78.4868 106.171 78.8774 106.63C79.2713 107.089 79.4682 107.738 79.4682 108.578V109.057H76.0161C76.0519 109.493 76.1967 109.838 76.4506 110.092C76.7078 110.346 77.0301 110.473 77.4174 110.473C77.961 110.473 78.4038 110.253 78.7456 109.814L79.3852 110.424C79.1736 110.74 78.8904 110.986 78.5356 111.161C78.184 111.334 77.7885 111.42 77.3491 111.42ZM77.2075 106.894C76.8819 106.894 76.6183 107.008 76.4165 107.236C76.2179 107.463 76.0909 107.781 76.0356 108.188H78.2963V108.1C78.2703 107.703 78.1645 107.403 77.979 107.201C77.7934 106.996 77.5362 106.894 77.2075 106.894ZM83.3549 109.887C83.3549 109.675 83.267 109.514 83.0913 109.403C82.9187 109.293 82.6306 109.195 82.227 109.111C81.8234 109.026 81.4864 108.918 81.2163 108.788C80.6238 108.502 80.3276 108.087 80.3276 107.543C80.3276 107.087 80.5196 106.707 80.9038 106.401C81.2879 106.095 81.7762 105.942 82.3686 105.942C83.0001 105.942 83.5095 106.098 83.8969 106.41C84.2875 106.723 84.4829 107.128 84.4829 107.626H83.2963C83.2963 107.398 83.2117 107.209 83.0424 107.06C82.8732 106.907 82.6485 106.83 82.3686 106.83C82.1082 106.83 81.895 106.89 81.729 107.011C81.5662 107.131 81.4848 107.292 81.4848 107.494C81.4848 107.677 81.5613 107.818 81.7143 107.919C81.8673 108.02 82.1765 108.123 82.642 108.227C83.1075 108.328 83.4721 108.45 83.7358 108.593C84.0027 108.733 84.1997 108.902 84.3266 109.101C84.4568 109.299 84.5219 109.54 84.5219 109.823C84.5219 110.299 84.325 110.684 83.9311 110.981C83.5372 111.274 83.0213 111.42 82.3832 111.42C81.9503 111.42 81.5646 111.342 81.226 111.186C80.8875 111.029 80.6238 110.815 80.435 110.541C80.2462 110.268 80.1518 109.973 80.1518 109.657H81.3041C81.3204 109.937 81.4262 110.154 81.6215 110.307C81.8168 110.457 82.0756 110.531 82.3979 110.531C82.7104 110.531 82.948 110.473 83.1108 110.356C83.2735 110.235 83.3549 110.079 83.3549 109.887ZM88.5209 109.887C88.5209 109.675 88.4331 109.514 88.2573 109.403C88.0847 109.293 87.7967 109.195 87.393 109.111C86.9894 109.026 86.6525 108.918 86.3823 108.788C85.7898 108.502 85.4936 108.087 85.4936 107.543C85.4936 107.087 85.6857 106.707 86.0698 106.401C86.4539 106.095 86.9422 105.942 87.5346 105.942C88.1661 105.942 88.6756 106.098 89.0629 106.41C89.4536 106.723 89.6489 107.128 89.6489 107.626H88.4623C88.4623 107.398 88.3777 107.209 88.2084 107.06C88.0392 106.907 87.8146 106.83 87.5346 106.83C87.2742 106.83 87.061 106.89 86.895 107.011C86.7322 107.131 86.6508 107.292 86.6508 107.494C86.6508 107.677 86.7273 107.818 86.8803 107.919C87.0333 108.02 87.3426 108.123 87.8081 108.227C88.2735 108.328 88.6381 108.45 88.9018 108.593C89.1687 108.733 89.3657 108.902 89.4926 109.101C89.6228 109.299 89.6879 109.54 89.6879 109.823C89.6879 110.299 89.491 110.684 89.0971 110.981C88.7032 111.274 88.1873 111.42 87.5493 111.42C87.1163 111.42 86.7306 111.342 86.392 111.186C86.0535 111.029 85.7898 110.815 85.601 110.541C85.4122 110.268 85.3178 109.973 85.3178 109.657H86.4702C86.4864 109.937 86.5922 110.154 86.7875 110.307C86.9829 110.457 87.2416 110.531 87.5639 110.531C87.8764 110.531 88.114 110.473 88.2768 110.356C88.4396 110.235 88.5209 110.079 88.5209 109.887ZM91.9877 111.322H90.8012V106.039H91.9877V111.322ZM90.728 104.667C90.728 104.485 90.7849 104.334 90.8989 104.213C91.0161 104.093 91.1821 104.032 91.3969 104.032C91.6118 104.032 91.7778 104.093 91.895 104.213C92.0122 104.334 92.0707 104.485 92.0707 104.667C92.0707 104.846 92.0122 104.996 91.895 105.116C91.7778 105.234 91.6118 105.292 91.3969 105.292C91.1821 105.292 91.0161 105.234 90.8989 105.116C90.7849 104.996 90.728 104.846 90.728 104.667ZM94.3852 106.039L94.4194 106.65C94.81 106.178 95.3227 105.942 95.9575 105.942C97.0577 105.942 97.6176 106.571 97.6372 107.831V111.322H96.4506V107.9C96.4506 107.564 96.3774 107.317 96.2309 107.157C96.0877 106.995 95.8517 106.913 95.5229 106.913C95.0444 106.913 94.6879 107.13 94.4536 107.563V111.322H93.267V106.039H94.3852ZM98.643 108.642C98.643 107.821 98.8351 107.167 99.2192 106.679C99.6066 106.187 100.119 105.942 100.757 105.942C101.359 105.942 101.833 106.152 102.178 106.571L102.232 106.039H103.301V111.161C103.301 111.855 103.085 112.402 102.652 112.802C102.222 113.202 101.641 113.403 100.909 113.403C100.521 113.403 100.142 113.321 99.7709 113.158C99.4031 112.999 99.1232 112.789 98.9311 112.528L99.4926 111.816C99.8572 112.249 100.306 112.465 100.84 112.465C101.234 112.465 101.545 112.358 101.773 112.143C102.001 111.931 102.115 111.619 102.115 111.205V110.849C101.773 111.23 101.317 111.42 100.748 111.42C100.129 111.42 99.6228 111.174 99.229 110.683C98.8383 110.191 98.643 109.511 98.643 108.642ZM99.8247 108.744C99.8247 109.275 99.9321 109.693 100.147 109.999C100.365 110.302 100.666 110.453 101.05 110.453C101.529 110.453 101.884 110.248 102.115 109.838V107.514C101.89 107.113 101.539 106.913 101.06 106.913C100.669 106.913 100.365 107.068 100.147 107.377C99.9321 107.686 99.8247 108.142 99.8247 108.744Z" fill="#0B406C"/>
<path d="M50.6004 122.405C50.5288 123.164 50.2488 123.756 49.7605 124.183C49.2722 124.606 48.6228 124.817 47.8123 124.817C47.2459 124.817 46.7462 124.684 46.3133 124.417C45.8836 124.147 45.5515 123.764 45.3172 123.269C45.0828 122.775 44.9607 122.2 44.951 121.546V120.882C44.951 120.211 45.0698 119.62 45.3074 119.109C45.545 118.598 45.8852 118.204 46.3279 117.928C46.7739 117.651 47.2882 117.513 47.8709 117.513C48.6554 117.513 49.2869 117.726 49.7654 118.152C50.2439 118.579 50.5222 119.181 50.6004 119.959H49.3699C49.3113 119.448 49.1616 119.08 48.9207 118.855C48.6831 118.628 48.3331 118.514 47.8709 118.514C47.3338 118.514 46.9204 118.711 46.6306 119.104C46.3442 119.495 46.1977 120.07 46.1912 120.828V121.458C46.1912 122.226 46.3279 122.812 46.6013 123.216C46.878 123.619 47.2817 123.821 47.8123 123.821C48.2973 123.821 48.6619 123.712 48.906 123.494C49.1502 123.276 49.3048 122.913 49.3699 122.405H50.6004ZM52.8562 124.72H51.6697V117.22H52.8562V124.72ZM55.4148 124.72H54.2283V119.436H55.4148V124.72ZM54.1551 118.064C54.1551 117.882 54.212 117.731 54.326 117.61C54.4431 117.49 54.6092 117.43 54.824 117.43C55.0388 117.43 55.2049 117.49 55.3221 117.61C55.4392 117.731 55.4978 117.882 55.4978 118.064C55.4978 118.243 55.4392 118.393 55.3221 118.514C55.2049 118.631 55.0388 118.689 54.824 118.689C54.6092 118.689 54.4431 118.631 54.326 118.514C54.212 118.393 54.1551 118.243 54.1551 118.064ZM58.8816 123.87C59.1778 123.87 59.4236 123.784 59.6189 123.611C59.8142 123.439 59.9184 123.225 59.9314 122.972H61.0496C61.0366 123.3 60.934 123.608 60.742 123.894C60.5499 124.178 60.2895 124.402 59.9607 124.568C59.6319 124.734 59.2771 124.817 58.8963 124.817C58.1573 124.817 57.5714 124.578 57.1385 124.1C56.7055 123.621 56.489 122.96 56.489 122.117V121.995C56.489 121.191 56.7039 120.548 57.1336 120.066C57.5633 119.581 58.1492 119.339 58.8914 119.339C59.5196 119.339 60.0307 119.523 60.4246 119.891C60.8217 120.255 61.0301 120.735 61.0496 121.331H59.9314C59.9184 121.028 59.8142 120.779 59.6189 120.584C59.4269 120.389 59.1811 120.291 58.8816 120.291C58.4975 120.291 58.2013 120.431 57.993 120.711C57.7846 120.988 57.6788 121.409 57.6756 121.975V122.166C57.6756 122.739 57.7781 123.167 57.9832 123.45C58.1915 123.73 58.491 123.87 58.8816 123.87ZM63.6619 122.454L63.1346 122.996V124.72H61.948V117.22H63.1346V121.546L63.5056 121.082L64.9656 119.436H66.3914L64.4285 121.639L66.6013 124.72H65.2293L63.6619 122.454ZM70.8299 120.013C71.2172 119.563 71.7071 119.339 72.2996 119.339C73.4259 119.339 73.9972 119.982 74.0135 121.267V124.72H72.8269V121.311C72.8269 120.947 72.7472 120.69 72.5877 120.54C72.4314 120.387 72.2003 120.31 71.8943 120.31C71.4191 120.31 71.0642 120.522 70.8299 120.945V124.72H69.6433V117.22H70.8299V120.013ZM77.5437 124.817C76.7918 124.817 76.1814 124.581 75.7127 124.109C75.2472 123.634 75.0144 123.003 75.0144 122.215V122.068C75.0144 121.541 75.1153 121.071 75.3172 120.657C75.5222 120.24 75.8087 119.917 76.1765 119.685C76.5444 119.454 76.9545 119.339 77.407 119.339C78.1264 119.339 78.6814 119.568 79.0721 120.027C79.4659 120.486 79.6629 121.136 79.6629 121.975V122.454H76.2107C76.2465 122.89 76.3914 123.235 76.6453 123.489C76.9025 123.743 77.2247 123.87 77.6121 123.87C78.1557 123.87 78.5984 123.65 78.9402 123.211L79.5799 123.821C79.3683 124.137 79.0851 124.383 78.7303 124.559C78.3787 124.731 77.9832 124.817 77.5437 124.817ZM77.4021 120.291C77.0766 120.291 76.8129 120.405 76.6111 120.633C76.4125 120.861 76.2856 121.178 76.2303 121.585H78.491V121.497C78.465 121.1 78.3592 120.8 78.1736 120.599C77.9881 120.393 77.7309 120.291 77.4021 120.291ZM83.3543 120.52C83.198 120.494 83.0369 120.481 82.8709 120.481C82.3273 120.481 81.961 120.69 81.7722 121.106V124.72H80.5857V119.436H81.7185L81.7478 120.027C82.0343 119.568 82.4314 119.339 82.9392 119.339C83.1085 119.339 83.2485 119.362 83.3592 119.407L83.3543 120.52ZM86.3328 124.817C85.5808 124.817 84.9705 124.581 84.5017 124.109C84.0362 123.634 83.8035 123.003 83.8035 122.215V122.068C83.8035 121.541 83.9044 121.071 84.1062 120.657C84.3113 120.24 84.5978 119.917 84.9656 119.685C85.3334 119.454 85.7436 119.339 86.1961 119.339C86.9155 119.339 87.4705 119.568 87.8611 120.027C88.255 120.486 88.4519 121.136 88.4519 121.975V122.454H84.9998C85.0356 122.89 85.1805 123.235 85.4344 123.489C85.6915 123.743 86.0138 123.87 86.4012 123.87C86.9448 123.87 87.3875 123.65 87.7293 123.211L88.3689 123.821C88.1573 124.137 87.8741 124.383 87.5193 124.559C87.1678 124.731 86.7722 124.817 86.3328 124.817ZM86.1912 120.291C85.8657 120.291 85.602 120.405 85.4002 120.633C85.2016 120.861 85.0747 121.178 85.0193 121.585H87.2801V121.497C87.254 121.1 87.1482 120.8 86.9627 120.599C86.7771 120.393 86.52 120.291 86.1912 120.291Z" fill="#BFFBDE"/>
<defs>
<filter id="filter0_d" x="0" y="0" width="141" height="159" filterUnits="userSpaceOnUse" color-interpolation-filters="sRGB">
<feFlood flood-opacity="0" result="BackgroundImageFix"/>
<feColorMatrix in="SourceAlpha" type="matrix" values="0 0 0 0 0 0 0 0 0 0 0 0 0 0 0 0 0 0 127 0" result="hardAlpha"/>
<feOffset dy="4"/>
<feGaussianBlur stdDeviation="2"/>
<feColorMatrix type="matrix" values="0 0 0 0 0 0 0 0 0 0 0 0 0 0 0 0 0 0 0.25 0"/>
<feBlend mode="normal" in2="BackgroundImageFix" result="effect1_dropShadow"/>
<feBlend mode="normal" in="SourceGraphic" in2="effect1_dropShadow" result="shape"/>
</filter>
<linearGradient id="paint0_linear" x1="49.4726" y1="12.0674" x2="77.1359" y2="39.2742" gradientUnits="userSpaceOnUse">
<stop stop-color="#387EB8"/>
<stop offset="1" stop-color="#366994"/>
</linearGradient>
<linearGradient id="paint1_linear" x1="66.3415" y1="29.6551" x2="96.0399" y2="57.5448" gradientUnits="userSpaceOnUse">
<stop stop-color="#FFE052"/>
<stop offset="1" stop-color="#FFC331"/>
</linearGradient>
<clipPath id="clip0">
<rect width="55.5926" height="55.743" fill="white" transform="translate(44.1111 7.05607)"/>
</clipPath>
</defs>
</svg>
