<svg width="75" height="84" viewBox="0 0 75 84" fill="none" xmlns="http://www.w3.org/2000/svg">
<g filter="url(#filter0_d)">
<rect x="4" width="67" height="76" rx="33.5" fill="#405C50"/>
</g>
<g clip-path="url(#clip0)">
<path d="M38.0906 3.55942C30.9982 3.55942 31.4411 6.65276 31.4411 6.65276L31.449 9.85743H38.2171V10.8196H28.7608C28.7608 10.8196 24.2224 10.302 24.2224 17.4993C24.2224 24.6967 28.1836 24.4415 28.1836 24.4415H30.5477V21.1016C30.5477 21.1016 30.4202 17.1176 34.4456 17.1176H41.1584C41.1584 17.1176 44.9298 17.1789 44.9298 13.4517V7.28892C44.9298 7.28892 45.5024 3.55942 38.0906 3.55942ZM34.3587 5.71442C35.032 5.71442 35.5763 6.26179 35.5763 6.93903C35.5763 7.61627 35.032 8.16364 34.3587 8.16364C33.6853 8.16364 33.141 7.61627 33.141 6.93903C33.141 6.26179 33.6853 5.71442 34.3587 5.71442Z" fill="url(#paint0_linear)"/>
<path d="M38.2918 31.5113C45.3842 31.5113 44.9413 28.418 44.9413 28.418L44.9334 25.2133H38.1653V24.2511H47.6216C47.6216 24.2511 52.16 24.7688 52.16 17.5714C52.16 10.374 48.1988 10.6293 48.1988 10.6293H45.8347V13.9691C45.8347 13.9691 45.9622 17.9531 41.9368 17.9531H35.224C35.224 17.9531 31.4526 17.8918 31.4526 21.619V27.7818C31.4526 27.7818 30.8799 31.5113 38.2918 31.5113ZM42.0237 29.3563C41.3504 29.3563 40.8061 28.8089 40.8061 28.1317C40.8061 27.4545 41.3504 26.9071 42.0237 26.9071C42.6971 26.9071 43.2413 27.4545 43.2413 28.1317C43.2414 28.8089 42.6971 29.3563 42.0237 29.3563Z" fill="url(#paint1_linear)"/>
</g>
<rect x="9.31746" y="35.514" width="56.7196" height="33.028" rx="16" fill="#8AD4B5"/>
<path d="M18.3058 40.5768V42.4772C18.3058 42.7793 18.2088 43.0189 18.0148 43.196C17.822 43.3717 17.5649 43.4596 17.2433 43.4596C16.9178 43.4596 16.6593 43.373 16.4679 43.1999C16.2765 43.0254 16.1808 42.7838 16.1808 42.4753V40.5768H16.673V42.4792C16.673 42.6693 16.7211 42.8144 16.8175 42.9147C16.9138 43.015 17.0558 43.0651 17.2433 43.0651C17.6235 43.0651 17.8136 42.8646 17.8136 42.4635V40.5768H18.3058ZM19.2296 41.3073L19.2433 41.5514C19.3995 41.3626 19.6046 41.2682 19.8585 41.2682C20.2986 41.2682 20.5226 41.5202 20.5304 42.0241V43.4206H20.0558V42.0514C20.0558 41.9173 20.0265 41.8183 19.9679 41.7545C19.9106 41.6894 19.8162 41.6569 19.6847 41.6569C19.4933 41.6569 19.3507 41.7435 19.2569 41.9167V43.4206H18.7823V41.3073H19.2296ZM21.5206 43.4206H21.046V41.3073H21.5206V43.4206ZM21.0167 40.7585C21.0167 40.6855 21.0395 40.625 21.0851 40.5768C21.1319 40.5286 21.1983 40.5045 21.2843 40.5045C21.3702 40.5045 21.4366 40.5286 21.4835 40.5768C21.5304 40.625 21.5538 40.6855 21.5538 40.7585C21.5538 40.8301 21.5304 40.89 21.4835 40.9381C21.4366 40.985 21.3702 41.0085 21.2843 41.0085C21.1983 41.0085 21.1319 40.985 21.0851 40.9381C21.0395 40.89 21.0167 40.8301 21.0167 40.7585ZM22.7843 42.819L23.2316 41.3073H23.7218L22.9894 43.4206H22.5773L21.839 41.3073H22.3312L22.7843 42.819ZM24.923 43.4596C24.6222 43.4596 24.378 43.3652 24.1905 43.1764C24.0043 42.9863 23.9112 42.7337 23.9112 42.4186V42.36C23.9112 42.1491 23.9516 41.9609 24.0323 41.7956C24.1144 41.6289 24.2289 41.4993 24.3761 41.4069C24.5232 41.3144 24.6873 41.2682 24.8683 41.2682C25.156 41.2682 25.378 41.36 25.5343 41.5436C25.6918 41.7272 25.7706 41.987 25.7706 42.3229V42.5143H24.3898C24.4041 42.6888 24.462 42.8268 24.5636 42.9284C24.6664 43.0299 24.7954 43.0807 24.9503 43.0807C25.1678 43.0807 25.3448 42.9928 25.4816 42.817L25.7374 43.0612C25.6528 43.1875 25.5395 43.2858 25.3976 43.3561C25.2569 43.4251 25.0987 43.4596 24.923 43.4596ZM24.8663 41.6491C24.7361 41.6491 24.6306 41.6947 24.5499 41.7858C24.4705 41.8769 24.4197 42.0039 24.3976 42.1667H25.3019V42.1315C25.2914 41.9726 25.2491 41.8529 25.1749 41.7721C25.1007 41.6901 24.9978 41.6491 24.8663 41.6491ZM27.2472 41.7409C27.1847 41.7305 27.1202 41.7253 27.0538 41.7253C26.8364 41.7253 26.6899 41.8086 26.6144 41.9753V43.4206H26.1398V41.3073H26.5929L26.6046 41.5436C26.7192 41.36 26.878 41.2682 27.0812 41.2682C27.1489 41.2682 27.2049 41.2773 27.2491 41.2956L27.2472 41.7409ZM28.7316 42.8463C28.7316 42.7617 28.6964 42.6973 28.6261 42.653C28.5571 42.6087 28.4418 42.5697 28.2804 42.5358C28.1189 42.5019 27.9842 42.459 27.8761 42.4069C27.6391 42.2923 27.5206 42.1263 27.5206 41.9088C27.5206 41.7266 27.5974 41.5742 27.7511 41.4518C27.9047 41.3294 28.1 41.2682 28.337 41.2682C28.5896 41.2682 28.7934 41.3307 28.9483 41.4557C29.1046 41.5807 29.1827 41.7428 29.1827 41.942H28.7081C28.7081 41.8509 28.6743 41.7754 28.6066 41.7155C28.5388 41.6543 28.449 41.6237 28.337 41.6237C28.2329 41.6237 28.1476 41.6478 28.0812 41.696C28.0161 41.7441 27.9835 41.8086 27.9835 41.8893C27.9835 41.9622 28.0141 42.0189 28.0753 42.0592C28.1365 42.0996 28.2602 42.1406 28.4464 42.1823C28.6326 42.2226 28.7784 42.2715 28.8839 42.3288C28.9907 42.3848 29.0694 42.4525 29.1202 42.5319C29.1723 42.6113 29.1983 42.7077 29.1983 42.821C29.1983 43.0111 29.1196 43.1654 28.962 43.2838C28.8045 43.401 28.5981 43.4596 28.3429 43.4596C28.1697 43.4596 28.0154 43.4284 27.88 43.3659C27.7446 43.3034 27.6391 43.2174 27.5636 43.1081C27.4881 42.9987 27.4503 42.8808 27.4503 42.7545H27.9112C27.9178 42.8665 27.9601 42.9531 28.0382 43.0143C28.1163 43.0742 28.2198 43.1042 28.3487 43.1042C28.4737 43.1042 28.5688 43.0807 28.6339 43.0338C28.699 42.9857 28.7316 42.9232 28.7316 42.8463ZM30.1183 43.4206H29.6437V41.3073H30.1183V43.4206ZM29.6144 40.7585C29.6144 40.6855 29.6372 40.625 29.6827 40.5768C29.7296 40.5286 29.796 40.5045 29.8819 40.5045C29.9679 40.5045 30.0343 40.5286 30.0812 40.5768C30.128 40.625 30.1515 40.6855 30.1515 40.7585C30.1515 40.8301 30.128 40.89 30.0812 40.9381C30.0343 40.985 29.9679 41.0085 29.8819 41.0085C29.796 41.0085 29.7296 40.985 29.6827 40.9381C29.6372 40.89 29.6144 40.8301 29.6144 40.7585ZM31.2316 40.7936V41.3073H31.6046V41.6588H31.2316V42.8385C31.2316 42.9193 31.2472 42.9779 31.2784 43.0143C31.311 43.0495 31.3683 43.067 31.4503 43.067C31.505 43.067 31.5603 43.0605 31.6163 43.0475V43.4147C31.5082 43.4447 31.4041 43.4596 31.3038 43.4596C30.9392 43.4596 30.7569 43.2585 30.7569 42.8561V41.6588H30.4093V41.3073H30.7569V40.7936H31.2316ZM32.7081 42.7409L33.1378 41.3073H33.6437L32.8038 43.7409C32.6749 44.0963 32.4562 44.2741 32.1476 44.2741C32.0786 44.2741 32.0024 44.2624 31.9191 44.2389V43.8717L32.0089 43.8776C32.1287 43.8776 32.2185 43.8555 32.2784 43.8112C32.3396 43.7682 32.3878 43.6953 32.423 43.5924L32.4913 43.4108L31.7491 41.3073H32.2608L32.7081 42.7409ZM34.8253 42.3444C34.8253 42.1374 34.8663 41.9512 34.9483 41.7858C35.0304 41.6191 35.1456 41.4915 35.2941 41.403C35.4425 41.3131 35.6131 41.2682 35.8058 41.2682C36.0909 41.2682 36.322 41.36 36.4991 41.5436C36.6775 41.7272 36.7739 41.9707 36.7882 42.2741L36.7901 42.3854C36.7901 42.5937 36.7498 42.7799 36.6691 42.944C36.5896 43.1081 36.475 43.235 36.3253 43.3249C36.1769 43.4147 36.005 43.4596 35.8097 43.4596C35.5115 43.4596 35.2726 43.3607 35.0929 43.1628C34.9145 42.9635 34.8253 42.6986 34.8253 42.3678V42.3444ZM35.2999 42.3854C35.2999 42.6029 35.3448 42.7734 35.4347 42.8971C35.5245 43.0195 35.6495 43.0807 35.8097 43.0807C35.9698 43.0807 36.0942 43.0182 36.1827 42.8932C36.2726 42.7682 36.3175 42.5853 36.3175 42.3444C36.3175 42.1308 36.2713 41.9616 36.1788 41.8366C36.0877 41.7116 35.9633 41.6491 35.8058 41.6491C35.6508 41.6491 35.5278 41.7109 35.4366 41.8346C35.3455 41.957 35.2999 42.1406 35.2999 42.3854ZM37.3585 43.4206V41.6588H37.0362V41.3073H37.3585V41.1139C37.3585 40.8795 37.4236 40.6986 37.5538 40.571C37.684 40.4433 37.8663 40.3795 38.1007 40.3795C38.184 40.3795 38.2726 40.3913 38.3663 40.4147L38.3546 40.7858C38.3025 40.7754 38.242 40.7702 38.173 40.7702C37.9464 40.7702 37.8331 40.8867 37.8331 41.1198V41.3073H38.2628V41.6588H37.8331V43.4206H37.3585ZM40.2921 40.5768L41.1124 42.7565L41.9308 40.5768H42.5694V43.4206H42.0773V42.4831L42.1261 41.2292L41.2862 43.4206H40.9327L40.0948 41.2311L40.1437 42.4831V43.4206H39.6515V40.5768H40.2921ZM43.6144 43.4206H43.1398V41.3073H43.6144V43.4206ZM43.1105 40.7585C43.1105 40.6855 43.1332 40.625 43.1788 40.5768C43.2257 40.5286 43.2921 40.5045 43.378 40.5045C43.464 40.5045 43.5304 40.5286 43.5773 40.5768C43.6241 40.625 43.6476 40.6855 43.6476 40.7585C43.6476 40.8301 43.6241 40.89 43.5773 40.9381C43.5304 40.985 43.464 41.0085 43.378 41.0085C43.2921 41.0085 43.2257 40.985 43.1788 40.9381C43.1332 40.89 43.1105 40.8301 43.1105 40.7585ZM45.0011 43.0807C45.1196 43.0807 45.2179 43.0462 45.296 42.9772C45.3741 42.9082 45.4158 42.8229 45.421 42.7213H45.8683C45.8631 42.8529 45.822 42.9759 45.7452 43.0905C45.6684 43.2038 45.5642 43.2936 45.4327 43.36C45.3012 43.4264 45.1593 43.4596 45.0069 43.4596C44.7114 43.4596 44.477 43.3639 44.3038 43.1725C44.1306 42.9811 44.0441 42.7168 44.0441 42.3795V42.3307C44.0441 42.0091 44.13 41.7519 44.3019 41.5592C44.4737 41.3652 44.7081 41.2682 45.005 41.2682C45.2563 41.2682 45.4607 41.3418 45.6183 41.4889C45.7771 41.6348 45.8605 41.8268 45.8683 42.0651H45.421C45.4158 41.944 45.3741 41.8444 45.296 41.7663C45.2192 41.6881 45.1209 41.6491 45.0011 41.6491C44.8474 41.6491 44.7289 41.7051 44.6456 41.817C44.5623 41.9277 44.52 42.0963 44.5187 42.3229V42.3991C44.5187 42.6282 44.5597 42.7995 44.6417 42.9128C44.725 43.0247 44.8448 43.0807 45.0011 43.0807ZM46.6944 41.5378C46.8494 41.3581 47.0454 41.2682 47.2823 41.2682C47.7329 41.2682 47.9614 41.5254 47.9679 42.0397V43.4206H47.4933V42.0573C47.4933 41.9114 47.4614 41.8086 47.3976 41.7487C47.3351 41.6875 47.2426 41.6569 47.1202 41.6569C46.9301 41.6569 46.7882 41.7415 46.6944 41.9108V43.4206H46.2198V40.4206H46.6944V41.5378ZM48.9542 43.4206H48.4796V41.3073H48.9542V43.4206ZM48.4503 40.7585C48.4503 40.6855 48.4731 40.625 48.5187 40.5768C48.5655 40.5286 48.6319 40.5045 48.7179 40.5045C48.8038 40.5045 48.8702 40.5286 48.9171 40.5768C48.964 40.625 48.9874 40.6855 48.9874 40.7585C48.9874 40.8301 48.964 40.89 48.9171 40.9381C48.8702 40.985 48.8038 41.0085 48.7179 41.0085C48.6319 41.0085 48.5655 40.985 48.5187 40.9381C48.4731 40.89 48.4503 40.8301 48.4503 40.7585ZM49.3898 42.3483C49.3898 42.0202 49.4666 41.7585 49.6202 41.5631C49.7752 41.3665 49.9803 41.2682 50.2355 41.2682C50.4763 41.2682 50.6658 41.3522 50.8038 41.5202L50.8253 41.3073H51.253V43.3561C51.253 43.6335 51.1664 43.8522 50.9933 44.0124C50.8214 44.1725 50.589 44.2526 50.296 44.2526C50.1411 44.2526 49.9894 44.22 49.8409 44.1549C49.6938 44.0911 49.5818 44.0072 49.505 43.903L49.7296 43.6178C49.8754 43.791 50.0551 43.8776 50.2687 43.8776C50.4262 43.8776 50.5506 43.8346 50.6417 43.7487C50.7329 43.6641 50.7784 43.5391 50.7784 43.3737V43.2311C50.6417 43.3835 50.4594 43.4596 50.2316 43.4596C49.9842 43.4596 49.7817 43.3613 49.6241 43.1647C49.4679 42.9681 49.3898 42.696 49.3898 42.3483ZM49.8624 42.3893C49.8624 42.6016 49.9054 42.7689 49.9913 42.8913C50.0786 43.0124 50.199 43.0729 50.3526 43.0729C50.5441 43.0729 50.686 42.9909 50.7784 42.8268V41.8971C50.6886 41.737 50.548 41.6569 50.3566 41.6569C50.2003 41.6569 50.0786 41.7187 49.9913 41.8424C49.9054 41.9661 49.8624 42.1484 49.8624 42.3893ZM53.005 43.4206C52.9842 43.3802 52.9659 43.3144 52.9503 43.2233C52.7993 43.3808 52.6144 43.4596 52.3956 43.4596C52.1834 43.4596 52.0102 43.3991 51.8761 43.278C51.742 43.1569 51.6749 43.0072 51.6749 42.8288C51.6749 42.6035 51.7582 42.431 51.9249 42.3112C52.0929 42.1901 52.3325 42.1295 52.6437 42.1295H52.9347V41.9909C52.9347 41.8815 52.9041 41.7943 52.8429 41.7292C52.7817 41.6628 52.6886 41.6295 52.5636 41.6295C52.4555 41.6295 52.367 41.6569 52.298 41.7116C52.2289 41.765 52.1944 41.8333 52.1944 41.9167H51.7198C51.7198 41.8008 51.7582 41.6927 51.8351 41.5924C51.9119 41.4909 52.0161 41.4114 52.1476 41.3542C52.2804 41.2969 52.4282 41.2682 52.5909 41.2682C52.8383 41.2682 53.0356 41.3307 53.1827 41.4557C53.3299 41.5794 53.4054 41.7539 53.4093 41.9792V42.9323C53.4093 43.1224 53.436 43.2741 53.4894 43.3874V43.4206H53.005ZM52.4835 43.0788C52.5773 43.0788 52.6651 43.056 52.7472 43.0104C52.8305 42.9648 52.893 42.9036 52.9347 42.8268V42.4284H52.6788C52.503 42.4284 52.3709 42.459 52.2823 42.5202C52.1938 42.5814 52.1495 42.668 52.1495 42.7799C52.1495 42.8711 52.1795 42.944 52.2394 42.9987C52.3006 43.0521 52.3819 43.0788 52.4835 43.0788ZM54.3468 41.3073L54.3605 41.5514C54.5167 41.3626 54.7218 41.2682 54.9757 41.2682C55.4158 41.2682 55.6398 41.5202 55.6476 42.0241V43.4206H55.173V42.0514C55.173 41.9173 55.1437 41.8183 55.0851 41.7545C55.0278 41.6894 54.9334 41.6569 54.8019 41.6569C54.6105 41.6569 54.4679 41.7435 54.3741 41.9167V43.4206H53.8995V41.3073H54.3468ZM56.4191 42.9206C56.5076 42.9206 56.576 42.946 56.6241 42.9967C56.6723 43.0462 56.6964 43.1087 56.6964 43.1842C56.6964 43.2585 56.6723 43.3203 56.6241 43.3698C56.576 43.418 56.5076 43.442 56.4191 43.442C56.3344 43.442 56.2674 43.418 56.2179 43.3698C56.1684 43.3216 56.1437 43.2598 56.1437 43.1842C56.1437 43.1087 56.1678 43.0462 56.2159 42.9967C56.2641 42.946 56.3318 42.9206 56.4191 42.9206ZM56.4191 41.2624C56.5076 41.2624 56.576 41.2878 56.6241 41.3385C56.6723 41.388 56.6964 41.4505 56.6964 41.526C56.6964 41.6003 56.6723 41.6621 56.6241 41.7116C56.576 41.7598 56.5076 41.7838 56.4191 41.7838C56.3344 41.7838 56.2674 41.7598 56.2179 41.7116C56.1684 41.6634 56.1437 41.6016 56.1437 41.526C56.1437 41.4505 56.1678 41.388 56.2159 41.3385C56.2641 41.2878 56.3318 41.2624 56.4191 41.2624ZM19.5343 47.3639V48.4206H19.0401V45.5768H20.128C20.4457 45.5768 20.6977 45.6595 20.8839 45.8249C21.0714 45.9902 21.1651 46.209 21.1651 46.4811C21.1651 46.7598 21.0733 46.9766 20.8898 47.1315C20.7075 47.2864 20.4516 47.3639 20.1222 47.3639H19.5343ZM19.5343 46.9674H20.128C20.3038 46.9674 20.4379 46.9264 20.5304 46.8444C20.6228 46.7611 20.6691 46.6413 20.6691 46.485C20.6691 46.3314 20.6222 46.209 20.5284 46.1178C20.4347 46.0254 20.3058 45.9779 20.1417 45.9753H19.5343V46.9674ZM22.3233 47.7409L22.753 46.3073H23.2589L22.4191 48.7409C22.2901 49.0963 22.0714 49.2741 21.7628 49.2741C21.6938 49.2741 21.6176 49.2624 21.5343 49.2389V48.8717L21.6241 48.8776C21.7439 48.8776 21.8338 48.8555 21.8937 48.8112C21.9549 48.7682 22.003 48.6953 22.0382 48.5924L22.1066 48.4108L21.3644 46.3073H21.8761L22.3233 47.7409ZM24.128 45.7936V46.3073H24.5011V46.6588H24.128V47.8385C24.128 47.9193 24.1437 47.9779 24.1749 48.0143C24.2075 48.0495 24.2648 48.067 24.3468 48.067C24.4015 48.067 24.4568 48.0605 24.5128 48.0475V48.4147C24.4047 48.4447 24.3006 48.4596 24.2003 48.4596C23.8357 48.4596 23.6534 48.2585 23.6534 47.8561V46.6588H23.3058V46.3073H23.6534V45.7936H24.128ZM25.3331 46.5378C25.4881 46.3581 25.684 46.2682 25.921 46.2682C26.3715 46.2682 26.6 46.5254 26.6066 47.0397V48.4206H26.1319V47.0573C26.1319 46.9114 26.1 46.8086 26.0362 46.7487C25.9737 46.6875 25.8813 46.6569 25.7589 46.6569C25.5688 46.6569 25.4269 46.7415 25.3331 46.9108V48.4206H24.8585V45.4206H25.3331V46.5378ZM26.9991 47.3444C26.9991 47.1374 27.0401 46.9512 27.1222 46.7858C27.2042 46.6191 27.3194 46.4915 27.4679 46.403C27.6163 46.3131 27.7869 46.2682 27.9796 46.2682C28.2648 46.2682 28.4959 46.36 28.673 46.5436C28.8513 46.7272 28.9477 46.9707 28.962 47.2741L28.964 47.3854C28.964 47.5937 28.9236 47.7799 28.8429 47.944C28.7635 48.1081 28.6489 48.235 28.4991 48.3249C28.3507 48.4147 28.1788 48.4596 27.9835 48.4596C27.6853 48.4596 27.4464 48.3607 27.2667 48.1628C27.0883 47.9635 26.9991 47.6986 26.9991 47.3678V47.3444ZM27.4737 47.3854C27.4737 47.6029 27.5187 47.7734 27.6085 47.8971C27.6983 48.0195 27.8233 48.0807 27.9835 48.0807C28.1437 48.0807 28.268 48.0182 28.3566 47.8932C28.4464 47.7682 28.4913 47.5853 28.4913 47.3444C28.4913 47.1308 28.4451 46.9616 28.3526 46.8366C28.2615 46.7116 28.1372 46.6491 27.9796 46.6491C27.8247 46.6491 27.7016 46.7109 27.6105 46.8346C27.5193 46.957 27.4737 47.1406 27.4737 47.3854ZM29.8058 46.3073L29.8194 46.5514C29.9757 46.3626 30.1808 46.2682 30.4347 46.2682C30.8748 46.2682 31.0987 46.5202 31.1066 47.0241V48.4206H30.6319V47.0514C30.6319 46.9173 30.6026 46.8183 30.5441 46.7545C30.4868 46.6894 30.3924 46.6569 30.2608 46.6569C30.0694 46.6569 29.9269 46.7435 29.8331 46.9167V48.4206H29.3585V46.3073H29.8058ZM34.8038 47.4948C34.7752 47.7982 34.6632 48.0351 34.4679 48.2057C34.2726 48.375 34.0128 48.4596 33.6886 48.4596C33.462 48.4596 33.2622 48.4062 33.089 48.2995C32.9171 48.1914 32.7843 48.0384 32.6905 47.8405C32.5968 47.6426 32.548 47.4128 32.5441 47.151V46.8854C32.5441 46.6172 32.5916 46.3808 32.6866 46.1764C32.7817 45.972 32.9178 45.8144 33.0948 45.7038C33.2732 45.5931 33.4789 45.5378 33.712 45.5378C34.0258 45.5378 34.2784 45.623 34.4698 45.7936C34.6612 45.9642 34.7726 46.2051 34.8038 46.5163H34.3116C34.2882 46.3118 34.2283 46.1647 34.1319 46.0749C34.0369 45.9837 33.8969 45.9381 33.712 45.9381C33.4972 45.9381 33.3318 46.0169 33.2159 46.1745C33.1013 46.3307 33.0428 46.5605 33.0401 46.8639V47.1159C33.0401 47.4232 33.0948 47.6575 33.2042 47.819C33.3149 47.9805 33.4763 48.0612 33.6886 48.0612C33.8826 48.0612 34.0284 48.0176 34.1261 47.9303C34.2237 47.8431 34.2856 47.6979 34.3116 47.4948H34.8038ZM35.7062 48.4206H35.2316V45.4206H35.7062V48.4206ZM37.4874 48.4206C37.4666 48.3802 37.4483 48.3144 37.4327 48.2233C37.2817 48.3808 37.0968 48.4596 36.878 48.4596C36.6658 48.4596 36.4926 48.3991 36.3585 48.278C36.2244 48.1569 36.1573 48.0072 36.1573 47.8288C36.1573 47.6035 36.2407 47.431 36.4073 47.3112C36.5753 47.1901 36.8149 47.1295 37.1261 47.1295H37.4171V46.9909C37.4171 46.8815 37.3865 46.7943 37.3253 46.7292C37.2641 46.6628 37.171 46.6295 37.046 46.6295C36.9379 46.6295 36.8494 46.6569 36.7804 46.7116C36.7114 46.765 36.6769 46.8333 36.6769 46.9167H36.2023C36.2023 46.8008 36.2407 46.6927 36.3175 46.5924C36.3943 46.4909 36.4985 46.4114 36.63 46.3542C36.7628 46.2969 36.9106 46.2682 37.0733 46.2682C37.3207 46.2682 37.518 46.3307 37.6651 46.4557C37.8123 46.5794 37.8878 46.7539 37.8917 46.9792V47.9323C37.8917 48.1224 37.9184 48.2741 37.9718 48.3874V48.4206H37.4874ZM36.9659 48.0788C37.0597 48.0788 37.1476 48.056 37.2296 48.0104C37.3129 47.9648 37.3754 47.9036 37.4171 47.8268V47.4284H37.1612C36.9855 47.4284 36.8533 47.459 36.7648 47.5202C36.6762 47.5814 36.6319 47.668 36.6319 47.7799C36.6319 47.8711 36.6619 47.944 36.7218 47.9987C36.783 48.0521 36.8644 48.0788 36.9659 48.0788ZM39.5733 47.8463C39.5733 47.7617 39.5382 47.6973 39.4679 47.653C39.3989 47.6087 39.2836 47.5697 39.1222 47.5358C38.9607 47.5019 38.826 47.459 38.7179 47.4069C38.4809 47.2923 38.3624 47.1263 38.3624 46.9088C38.3624 46.7266 38.4392 46.5742 38.5929 46.4518C38.7465 46.3294 38.9418 46.2682 39.1788 46.2682C39.4314 46.2682 39.6352 46.3307 39.7901 46.4557C39.9464 46.5807 40.0245 46.7428 40.0245 46.942H39.5499C39.5499 46.8509 39.5161 46.7754 39.4483 46.7155C39.3806 46.6543 39.2908 46.6237 39.1788 46.6237C39.0747 46.6237 38.9894 46.6478 38.923 46.696C38.8579 46.7441 38.8253 46.8086 38.8253 46.8893C38.8253 46.9622 38.8559 47.0189 38.9171 47.0592C38.9783 47.0996 39.102 47.1406 39.2882 47.1823C39.4744 47.2226 39.6202 47.2715 39.7257 47.3288C39.8325 47.3848 39.9112 47.4525 39.962 47.5319C40.0141 47.6113 40.0401 47.7077 40.0401 47.821C40.0401 48.0111 39.9614 48.1654 39.8038 48.2838C39.6463 48.401 39.4399 48.4596 39.1847 48.4596C39.0115 48.4596 38.8572 48.4284 38.7218 48.3659C38.5864 48.3034 38.4809 48.2174 38.4054 48.1081C38.3299 47.9987 38.2921 47.8808 38.2921 47.7545H38.753C38.7595 47.8665 38.8019 47.9531 38.88 48.0143C38.9581 48.0742 39.0616 48.1042 39.1905 48.1042C39.3155 48.1042 39.4106 48.0807 39.4757 48.0338C39.5408 47.9857 39.5733 47.9232 39.5733 47.8463ZM41.6398 47.8463C41.6398 47.7617 41.6046 47.6973 41.5343 47.653C41.4653 47.6087 41.35 47.5697 41.1886 47.5358C41.0271 47.5019 40.8924 47.459 40.7843 47.4069C40.5473 47.2923 40.4288 47.1263 40.4288 46.9088C40.4288 46.7266 40.5056 46.5742 40.6593 46.4518C40.8129 46.3294 41.0082 46.2682 41.2452 46.2682C41.4978 46.2682 41.7016 46.3307 41.8566 46.4557C42.0128 46.5807 42.0909 46.7428 42.0909 46.942H41.6163C41.6163 46.8509 41.5825 46.7754 41.5148 46.7155C41.447 46.6543 41.3572 46.6237 41.2452 46.6237C41.1411 46.6237 41.0558 46.6478 40.9894 46.696C40.9243 46.7441 40.8917 46.8086 40.8917 46.8893C40.8917 46.9622 40.9223 47.0189 40.9835 47.0592C41.0447 47.0996 41.1684 47.1406 41.3546 47.1823C41.5408 47.2226 41.6866 47.2715 41.7921 47.3288C41.8989 47.3848 41.9776 47.4525 42.0284 47.5319C42.0805 47.6113 42.1066 47.7077 42.1066 47.821C42.1066 48.0111 42.0278 48.1654 41.8702 48.2838C41.7127 48.401 41.5063 48.4596 41.2511 48.4596C41.0779 48.4596 40.9236 48.4284 40.7882 48.3659C40.6528 48.3034 40.5473 48.2174 40.4718 48.1081C40.3963 47.9987 40.3585 47.8808 40.3585 47.7545H40.8194C40.826 47.8665 40.8683 47.9531 40.9464 48.0143C41.0245 48.0742 41.128 48.1042 41.2569 48.1042C41.3819 48.1042 41.477 48.0807 41.5421 48.0338C41.6072 47.9857 41.6398 47.9232 41.6398 47.8463ZM43.4523 48.4596C43.1515 48.4596 42.9073 48.3652 42.7198 48.1764C42.5336 47.9863 42.4405 47.7337 42.4405 47.4186V47.36C42.4405 47.1491 42.4809 46.9609 42.5616 46.7956C42.6437 46.6289 42.7582 46.4993 42.9054 46.4069C43.0525 46.3144 43.2166 46.2682 43.3976 46.2682C43.6853 46.2682 43.9073 46.36 44.0636 46.5436C44.2211 46.7272 44.2999 46.987 44.2999 47.3229V47.5143H42.9191C42.9334 47.6888 42.9913 47.8268 43.0929 47.9284C43.1957 48.0299 43.3247 48.0807 43.4796 48.0807C43.697 48.0807 43.8741 47.9928 44.0108 47.817L44.2667 48.0612C44.1821 48.1875 44.0688 48.2858 43.9269 48.3561C43.7862 48.4251 43.628 48.4596 43.4523 48.4596ZM43.3956 46.6491C43.2654 46.6491 43.1599 46.6947 43.0792 46.7858C42.9998 46.8769 42.949 47.0039 42.9269 47.1667H43.8312V47.1315C43.8207 46.9726 43.7784 46.8529 43.7042 46.7721C43.63 46.6901 43.5271 46.6491 43.3956 46.6491ZM45.8546 47.8463C45.8546 47.7617 45.8194 47.6973 45.7491 47.653C45.6801 47.6087 45.5649 47.5697 45.4034 47.5358C45.242 47.5019 45.1072 47.459 44.9991 47.4069C44.7622 47.2923 44.6437 47.1263 44.6437 46.9088C44.6437 46.7266 44.7205 46.5742 44.8741 46.4518C45.0278 46.3294 45.2231 46.2682 45.4601 46.2682C45.7127 46.2682 45.9164 46.3307 46.0714 46.4557C46.2276 46.5807 46.3058 46.7428 46.3058 46.942H45.8312C45.8312 46.8509 45.7973 46.7754 45.7296 46.7155C45.6619 46.6543 45.572 46.6237 45.4601 46.6237C45.3559 46.6237 45.2706 46.6478 45.2042 46.696C45.1391 46.7441 45.1066 46.8086 45.1066 46.8893C45.1066 46.9622 45.1372 47.0189 45.1983 47.0592C45.2595 47.0996 45.3832 47.1406 45.5694 47.1823C45.7556 47.2226 45.9015 47.2715 46.0069 47.3288C46.1137 47.3848 46.1925 47.4525 46.2433 47.5319C46.2954 47.6113 46.3214 47.7077 46.3214 47.821C46.3214 48.0111 46.2426 48.1654 46.0851 48.2838C45.9275 48.401 45.7211 48.4596 45.4659 48.4596C45.2928 48.4596 45.1385 48.4284 45.003 48.3659C44.8676 48.3034 44.7622 48.2174 44.6866 48.1081C44.6111 47.9987 44.5733 47.8808 44.5733 47.7545H45.0343C45.0408 47.8665 45.0831 47.9531 45.1612 48.0143C45.2394 48.0742 45.3429 48.1042 45.4718 48.1042C45.5968 48.1042 45.6918 48.0807 45.7569 48.0338C45.822 47.9857 45.8546 47.9232 45.8546 47.8463ZM48.9952 48.4206C48.9744 48.3802 48.9562 48.3144 48.9405 48.2233C48.7895 48.3808 48.6046 48.4596 48.3858 48.4596C48.1736 48.4596 48.0004 48.3991 47.8663 48.278C47.7322 48.1569 47.6651 48.0072 47.6651 47.8288C47.6651 47.6035 47.7485 47.431 47.9151 47.3112C48.0831 47.1901 48.3227 47.1295 48.6339 47.1295H48.9249V46.9909C48.9249 46.8815 48.8943 46.7943 48.8331 46.7292C48.7719 46.6628 48.6788 46.6295 48.5538 46.6295C48.4457 46.6295 48.3572 46.6569 48.2882 46.7116C48.2192 46.765 48.1847 46.8333 48.1847 46.9167H47.7101C47.7101 46.8008 47.7485 46.6927 47.8253 46.5924C47.9021 46.4909 48.0063 46.4114 48.1378 46.3542C48.2706 46.2969 48.4184 46.2682 48.5812 46.2682C48.8286 46.2682 49.0258 46.3307 49.173 46.4557C49.3201 46.5794 49.3956 46.7539 49.3995 46.9792V47.9323C49.3995 48.1224 49.4262 48.2741 49.4796 48.3874V48.4206H48.9952ZM48.4737 48.0788C48.5675 48.0788 48.6554 48.056 48.7374 48.0104C48.8207 47.9648 48.8832 47.9036 48.9249 47.8268V47.4284H48.6691C48.4933 47.4284 48.3611 47.459 48.2726 47.5202C48.184 47.5814 48.1398 47.668 48.1398 47.7799C48.1398 47.8711 48.1697 47.944 48.2296 47.9987C48.2908 48.0521 48.3722 48.0788 48.4737 48.0788ZM50.337 46.3073L50.3507 46.5514C50.5069 46.3626 50.712 46.2682 50.9659 46.2682C51.406 46.2682 51.63 46.5202 51.6378 47.0241V48.4206H51.1632V47.0514C51.1632 46.9173 51.1339 46.8183 51.0753 46.7545C51.018 46.6894 50.9236 46.6569 50.7921 46.6569C50.6007 46.6569 50.4581 46.7435 50.3644 46.9167V48.4206H49.8898V46.3073H50.337ZM52.0343 47.3483C52.0343 47.0228 52.1098 46.7617 52.2608 46.5651C52.4119 46.3672 52.6144 46.2682 52.8683 46.2682C53.0922 46.2682 53.2732 46.3463 53.4112 46.5026V45.4206H53.8858V48.4206H53.4562L53.4327 48.2018C53.2908 48.3737 53.1013 48.4596 52.8644 48.4596C52.617 48.4596 52.4164 48.36 52.2628 48.1608C52.1105 47.9616 52.0343 47.6907 52.0343 47.3483ZM52.5089 47.3893C52.5089 47.6042 52.5499 47.7721 52.6319 47.8932C52.7153 48.013 52.8331 48.0729 52.9855 48.0729C53.1795 48.0729 53.3214 47.9863 53.4112 47.8131V46.9108C53.324 46.7415 53.1834 46.6569 52.9894 46.6569C52.8357 46.6569 52.7172 46.7181 52.6339 46.8405C52.5506 46.9616 52.5089 47.1445 52.5089 47.3893ZM27.1944 53.4206H26.7023V50.5768H27.1944V53.4206ZM28.1964 51.3073L28.2101 51.5514C28.3663 51.3626 28.5714 51.2682 28.8253 51.2682C29.2654 51.2682 29.4894 51.5202 29.4972 52.0241V53.4206H29.0226V52.0514C29.0226 51.9173 28.9933 51.8183 28.9347 51.7545C28.8774 51.6894 28.783 51.6569 28.6515 51.6569C28.4601 51.6569 28.3175 51.7435 28.2237 51.9167V53.4206H27.7491V51.3073H28.1964ZM30.4503 51.5378C30.6053 51.3581 30.8012 51.2682 31.0382 51.2682C31.4887 51.2682 31.7172 51.5254 31.7237 52.0397V53.4206H31.2491V52.0573C31.2491 51.9114 31.2172 51.8086 31.1534 51.7487C31.0909 51.6875 30.9985 51.6569 30.8761 51.6569C30.686 51.6569 30.5441 51.7415 30.4503 51.9108V53.4206H29.9757V50.4206H30.4503V51.5378ZM33.1358 53.4596C32.8351 53.4596 32.5909 53.3652 32.4034 53.1764C32.2172 52.9863 32.1241 52.7337 32.1241 52.4186V52.36C32.1241 52.1491 32.1645 51.9609 32.2452 51.7956C32.3273 51.6289 32.4418 51.4993 32.589 51.4069C32.7361 51.3144 32.9002 51.2682 33.0812 51.2682C33.3689 51.2682 33.5909 51.36 33.7472 51.5436C33.9047 51.7272 33.9835 51.987 33.9835 52.3229V52.5143H32.6026C32.617 52.6888 32.6749 52.8268 32.7765 52.9284C32.8793 53.0299 33.0082 53.0807 33.1632 53.0807C33.3806 53.0807 33.5577 52.9928 33.6944 52.817L33.9503 53.0612C33.8657 53.1875 33.7524 53.2858 33.6105 53.3561C33.4698 53.4251 33.3116 53.4596 33.1358 53.4596ZM33.0792 51.6491C32.949 51.6491 32.8435 51.6947 32.7628 51.7858C32.6834 51.8769 32.6326 52.0039 32.6105 52.1667H33.5148V52.1315C33.5043 51.9726 33.462 51.8529 33.3878 51.7721C33.3136 51.6901 33.2107 51.6491 33.0792 51.6491ZM35.4601 51.7409C35.3976 51.7305 35.3331 51.7253 35.2667 51.7253C35.0493 51.7253 34.9028 51.8086 34.8273 51.9753V53.4206H34.3526V51.3073H34.8058L34.8175 51.5436C34.9321 51.36 35.0909 51.2682 35.2941 51.2682C35.3618 51.2682 35.4178 51.2773 35.462 51.2956L35.4601 51.7409ZM36.2648 53.4206H35.7901V51.3073H36.2648V53.4206ZM35.7608 50.7585C35.7608 50.6855 35.7836 50.625 35.8292 50.5768C35.8761 50.5286 35.9425 50.5045 36.0284 50.5045C36.1144 50.5045 36.1808 50.5286 36.2276 50.5768C36.2745 50.625 36.298 50.6855 36.298 50.7585C36.298 50.8301 36.2745 50.89 36.2276 50.9381C36.1808 50.985 36.1144 51.0085 36.0284 51.0085C35.9425 51.0085 35.8761 50.985 35.8292 50.9381C35.7836 50.89 35.7608 50.8301 35.7608 50.7585ZM37.378 50.7936V51.3073H37.7511V51.6588H37.378V52.8385C37.378 52.9193 37.3937 52.9779 37.4249 53.0143C37.4575 53.0495 37.5148 53.067 37.5968 53.067C37.6515 53.067 37.7068 53.0605 37.7628 53.0475V53.4147C37.6547 53.4447 37.5506 53.4596 37.4503 53.4596C37.0857 53.4596 36.9034 53.2585 36.9034 52.8561V51.6588H36.5558V51.3073H36.9034V50.7936H37.378ZM39.378 53.4206C39.3572 53.3802 39.339 53.3144 39.3233 53.2233C39.1723 53.3808 38.9874 53.4596 38.7687 53.4596C38.5564 53.4596 38.3832 53.3991 38.2491 53.278C38.115 53.1569 38.048 53.0072 38.048 52.8288C38.048 52.6035 38.1313 52.431 38.298 52.3112C38.4659 52.1901 38.7055 52.1295 39.0167 52.1295H39.3077V51.9909C39.3077 51.8815 39.2771 51.7943 39.2159 51.7292C39.1547 51.6628 39.0616 51.6295 38.9366 51.6295C38.8286 51.6295 38.74 51.6569 38.671 51.7116C38.602 51.765 38.5675 51.8333 38.5675 51.9167H38.0929C38.0929 51.8008 38.1313 51.6927 38.2081 51.5924C38.2849 51.4909 38.3891 51.4114 38.5206 51.3542C38.6534 51.2969 38.8012 51.2682 38.964 51.2682C39.2114 51.2682 39.4086 51.3307 39.5558 51.4557C39.7029 51.5794 39.7784 51.7539 39.7823 51.9792V52.9323C39.7823 53.1224 39.809 53.2741 39.8624 53.3874V53.4206H39.378ZM38.8566 53.0788C38.9503 53.0788 39.0382 53.056 39.1202 53.0104C39.2036 52.9648 39.2661 52.9036 39.3077 52.8268V52.4284H39.0519C38.8761 52.4284 38.7439 52.459 38.6554 52.5202C38.5668 52.5814 38.5226 52.668 38.5226 52.7799C38.5226 52.8711 38.5525 52.944 38.6124 52.9987C38.6736 53.0521 38.755 53.0788 38.8566 53.0788ZM40.7198 51.3073L40.7335 51.5514C40.8898 51.3626 41.0948 51.2682 41.3487 51.2682C41.7888 51.2682 42.0128 51.5202 42.0206 52.0241V53.4206H41.546V52.0514C41.546 51.9173 41.5167 51.8183 41.4581 51.7545C41.4008 51.6894 41.3064 51.6569 41.1749 51.6569C40.9835 51.6569 40.8409 51.7435 40.7472 51.9167V53.4206H40.2726V51.3073H40.7198ZM43.3741 53.0807C43.4926 53.0807 43.5909 53.0462 43.6691 52.9772C43.7472 52.9082 43.7888 52.8229 43.7941 52.7213H44.2413C44.2361 52.8529 44.1951 52.9759 44.1183 53.0905C44.0414 53.2038 43.9373 53.2936 43.8058 53.36C43.6743 53.4264 43.5323 53.4596 43.38 53.4596C43.0844 53.4596 42.85 53.3639 42.6769 53.1725C42.5037 52.9811 42.4171 52.7168 42.4171 52.3795V52.3307C42.4171 52.0091 42.503 51.7519 42.6749 51.5592C42.8468 51.3652 43.0812 51.2682 43.378 51.2682C43.6293 51.2682 43.8338 51.3418 43.9913 51.4889C44.1502 51.6348 44.2335 51.8268 44.2413 52.0651H43.7941C43.7888 51.944 43.7472 51.8444 43.6691 51.7663C43.5922 51.6881 43.4939 51.6491 43.3741 51.6491C43.2205 51.6491 43.102 51.7051 43.0187 51.817C42.9353 51.9277 42.893 52.0963 42.8917 52.3229V52.3991C42.8917 52.6282 42.9327 52.7995 43.0148 52.9128C43.0981 53.0247 43.2179 53.0807 43.3741 53.0807ZM45.5304 53.4596C45.2296 53.4596 44.9855 53.3652 44.798 53.1764C44.6118 52.9863 44.5187 52.7337 44.5187 52.4186V52.36C44.5187 52.1491 44.559 51.9609 44.6398 51.7956C44.7218 51.6289 44.8364 51.4993 44.9835 51.4069C45.1306 51.3144 45.2947 51.2682 45.4757 51.2682C45.7635 51.2682 45.9855 51.36 46.1417 51.5436C46.2993 51.7272 46.378 51.987 46.378 52.3229V52.5143H44.9972C45.0115 52.6888 45.0694 52.8268 45.171 52.9284C45.2739 53.0299 45.4028 53.0807 45.5577 53.0807C45.7752 53.0807 45.9523 52.9928 46.089 52.817L46.3448 53.0612C46.2602 53.1875 46.1469 53.2858 46.005 53.3561C45.8644 53.4251 45.7062 53.4596 45.5304 53.4596ZM45.4737 51.6491C45.3435 51.6491 45.2381 51.6947 45.1573 51.7858C45.0779 51.8769 45.0271 52.0039 45.005 52.1667H45.9093V52.1315C45.8989 51.9726 45.8566 51.8529 45.7823 51.7721C45.7081 51.6901 45.6053 51.6491 45.4737 51.6491Z" fill="#0B406C"/>
<path d="M27.701 62.0858C27.6652 62.465 27.5252 62.7612 27.2811 62.9744C27.0369 63.186 26.7122 63.2918 26.3069 63.2918C26.0237 63.2918 25.7739 63.2251 25.5574 63.0916C25.3426 62.9565 25.1766 62.7653 25.0594 62.5179C24.9422 62.2705 24.8811 61.9832 24.8763 61.6561V61.324C24.8763 60.9888 24.9357 60.6934 25.0545 60.4378C25.1733 60.1823 25.3434 59.9853 25.5647 59.847C25.7877 59.7086 26.0449 59.6395 26.3362 59.6395C26.7285 59.6395 27.0442 59.7461 27.2835 59.9593C27.5228 60.1725 27.6619 60.4736 27.701 60.8626H27.0857C27.0564 60.6071 26.9816 60.4232 26.8611 60.3109C26.7423 60.1969 26.5673 60.14 26.3362 60.14C26.0677 60.14 25.861 60.2384 25.7161 60.4354C25.5729 60.6307 25.4996 60.918 25.4964 61.2972V61.6121C25.4964 61.9962 25.5647 62.2892 25.7015 62.491C25.8398 62.6929 26.0416 62.7938 26.3069 62.7938C26.5494 62.7938 26.7317 62.7392 26.8538 62.6302C26.9759 62.5211 27.0532 62.3397 27.0857 62.0858H27.701ZM28.8289 63.243H28.2356V59.493H28.8289V63.243ZM30.1082 63.243H29.5149V60.6014H30.1082V63.243ZM29.4783 59.9154C29.4783 59.8242 29.5068 59.7485 29.5638 59.6883C29.6224 59.6281 29.7054 59.598 29.8128 59.598C29.9202 59.598 30.0032 59.6281 30.0618 59.6883C30.1204 59.7485 30.1497 59.8242 30.1497 59.9154C30.1497 60.0049 30.1204 60.0797 30.0618 60.14C30.0032 60.1986 29.9202 60.2279 29.8128 60.2279C29.7054 60.2279 29.6224 60.1986 29.5638 60.14C29.5068 60.0797 29.4783 60.0049 29.4783 59.9154ZM31.8416 62.8182C31.9897 62.8182 32.1126 62.7751 32.2103 62.6888C32.3079 62.6025 32.36 62.4959 32.3665 62.369H32.9256C32.9191 62.5334 32.8678 62.6872 32.7718 62.8304C32.6757 62.972 32.5455 63.0843 32.3811 63.1673C32.2168 63.2503 32.0394 63.2918 31.8489 63.2918C31.4795 63.2918 31.1865 63.1722 30.97 62.9329C30.7535 62.6937 30.6453 62.3633 30.6453 61.9417V61.8807C30.6453 61.4787 30.7527 61.1572 30.9676 60.9163C31.1824 60.6738 31.4754 60.5526 31.8465 60.5526C32.1606 60.5526 32.4161 60.6445 32.6131 60.8284C32.8117 61.0107 32.9158 61.2508 32.9256 61.5487H32.3665C32.36 61.3973 32.3079 61.2728 32.2103 61.1751C32.1142 61.0775 31.9913 61.0286 31.8416 61.0286C31.6495 61.0286 31.5014 61.0986 31.3973 61.2386C31.2931 61.3769 31.2402 61.5877 31.2386 61.8709V61.9661C31.2386 62.2526 31.2898 62.4666 31.3924 62.6082C31.4965 62.7482 31.6463 62.8182 31.8416 62.8182ZM34.2317 62.1102L33.9681 62.3812V63.243H33.3748V59.493H33.9681V61.6561L34.1536 61.4241L34.8836 60.6014H35.5965L34.615 61.7025L35.7015 63.243H35.0154L34.2317 62.1102ZM37.8157 60.8895C38.0094 60.6649 38.2544 60.5526 38.5506 60.5526C39.1137 60.5526 39.3994 60.874 39.4075 61.5169V63.243H38.8143V61.5389C38.8143 61.3566 38.7744 61.228 38.6946 61.1531C38.6165 61.0767 38.5009 61.0384 38.3479 61.0384C38.1103 61.0384 37.9329 61.1442 37.8157 61.3558V63.243H37.2225V59.493H37.8157V60.8895ZM41.1727 63.2918C40.7967 63.2918 40.4915 63.1738 40.2571 62.9378C40.0244 62.7002 39.908 62.3844 39.908 61.9906V61.9173C39.908 61.6536 39.9585 61.4184 40.0594 61.2117C40.1619 61.0034 40.3051 60.8415 40.4891 60.7259C40.673 60.6103 40.8781 60.5526 41.1043 60.5526C41.464 60.5526 41.7415 60.6673 41.9368 60.8968C42.1338 61.1263 42.2322 61.451 42.2322 61.8709V62.1102H40.5061C40.5241 62.3283 40.5965 62.5008 40.7234 62.6278C40.852 62.7547 41.0131 62.8182 41.2068 62.8182C41.4786 62.8182 41.7 62.7083 41.8709 62.4886L42.1907 62.7938C42.0849 62.9517 41.9433 63.0745 41.7659 63.1624C41.5901 63.2487 41.3924 63.2918 41.1727 63.2918ZM41.1019 61.0286C40.9391 61.0286 40.8073 61.0856 40.7063 61.1995C40.6071 61.3135 40.5436 61.4722 40.5159 61.6756H41.6463V61.6317C41.6333 61.4331 41.5804 61.2834 41.4876 61.1824C41.3948 61.0799 41.2662 61.0286 41.1019 61.0286ZM44.0779 61.1434C43.9998 61.1304 43.9192 61.1239 43.8362 61.1239C43.5644 61.1239 43.3813 61.228 43.2869 61.4364V63.243H42.6936V60.6014H43.2601L43.2747 60.8968C43.4179 60.6673 43.6165 60.5526 43.8704 60.5526C43.955 60.5526 44.025 60.564 44.0804 60.5867L44.0779 61.1434ZM45.5672 63.2918C45.1912 63.2918 44.886 63.1738 44.6517 62.9378C44.4189 62.7002 44.3025 62.3844 44.3025 61.9906V61.9173C44.3025 61.6536 44.353 61.4184 44.4539 61.2117C44.5564 61.0034 44.6997 60.8415 44.8836 60.7259C45.0675 60.6103 45.2726 60.5526 45.4988 60.5526C45.8585 60.5526 46.136 60.6673 46.3313 60.8968C46.5283 61.1263 46.6268 61.451 46.6268 61.8709V62.1102H44.9007C44.9186 62.3283 44.991 62.5008 45.118 62.6278C45.2465 62.7547 45.4077 62.8182 45.6014 62.8182C45.8732 62.8182 46.0945 62.7083 46.2654 62.4886L46.5853 62.7938C46.4795 62.9517 46.3379 63.0745 46.1604 63.1624C45.9847 63.2487 45.7869 63.2918 45.5672 63.2918ZM45.4964 61.0286C45.3336 61.0286 45.2018 61.0856 45.1009 61.1995C45.0016 61.3135 44.9381 61.4722 44.9104 61.6756H46.0408V61.6317C46.0278 61.4331 45.9749 61.2834 45.8821 61.1824C45.7894 61.0799 45.6608 61.0286 45.4964 61.0286Z" fill="#BFFBDE"/>
<defs>
<filter id="filter0_d" x="0" y="0" width="75" height="84" filterUnits="userSpaceOnUse" color-interpolation-filters="sRGB">
<feFlood flood-opacity="0" result="BackgroundImageFix"/>
<feColorMatrix in="SourceAlpha" type="matrix" values="0 0 0 0 0 0 0 0 0 0 0 0 0 0 0 0 0 0 127 0" result="hardAlpha"/>
<feOffset dy="4"/>
<feGaussianBlur stdDeviation="2"/>
<feColorMatrix type="matrix" values="0 0 0 0 0 0 0 0 0 0 0 0 0 0 0 0 0 0 0.25 0"/>
<feBlend mode="normal" in2="BackgroundImageFix" result="effect1_dropShadow"/>
<feBlend mode="normal" in="SourceGraphic" in2="effect1_dropShadow" result="shape"/>
</filter>
<linearGradient id="paint0_linear" x1="26.9072" y1="6.07362" x2="40.8307" y2="19.7795" gradientUnits="userSpaceOnUse">
<stop stop-color="#387EB8"/>
<stop offset="1" stop-color="#366994"/>
</linearGradient>
<linearGradient id="paint1_linear" x1="35.4051" y1="14.9257" x2="50.3535" y2="28.9762" gradientUnits="userSpaceOnUse">
<stop stop-color="#FFE052"/>
<stop offset="1" stop-color="#FFC331"/>
</linearGradient>
<clipPath id="clip0">
<rect width="28.0053" height="28.0561" fill="white" transform="translate(24.2063 3.5514)"/>
</clipPath>
</defs>
</svg>
