<svg width="144" height="156" viewBox="0 0 144 156" fill="none" xmlns="http://www.w3.org/2000/svg">
<g filter="url(#filter0_d)">
<rect x="4" width="136" height="148" rx="39" fill="#405C50"/>
</g>
<g clip-path="url(#clip0)">
<path d="M73.1988 6.93155C58.8024 6.93155 59.7014 12.9554 59.7014 12.9554L59.7174 19.1961H73.4556V21.0698H54.2607C54.2607 21.0698 45.0484 20.0618 45.0484 34.0777C45.0484 48.0936 53.0891 47.5966 53.0891 47.5966H57.8878V41.0926C57.8878 41.0926 57.6291 33.3344 65.8001 33.3344H79.4259C79.4259 33.3344 87.0814 33.4538 87.0814 26.1956V14.1943C87.0814 14.1943 88.2438 6.93155 73.1988 6.93155ZM65.6235 11.1281C66.9904 11.1281 68.0951 12.1941 68.0951 13.5129C68.0951 14.8317 66.9904 15.8977 65.6235 15.8977C64.2567 15.8977 63.152 14.8317 63.152 13.5129C63.152 12.1941 64.2567 11.1281 65.6235 11.1281Z" fill="url(#paint0_linear)"/>
<path d="M73.6073 61.3642C88.0037 61.3642 87.1047 55.3403 87.1047 55.3403L87.0887 49.0996H73.3505V47.2259H92.5454C92.5454 47.2259 101.758 48.2339 101.758 34.218C101.758 20.2021 93.717 20.6992 93.717 20.6992H88.9183V27.2031C88.9183 27.2031 89.177 34.9613 81.006 34.9613H67.3802C67.3802 34.9613 59.7246 34.8419 59.7246 42.1002V54.1015C59.7246 54.1015 58.5623 61.3642 73.6073 61.3642ZM81.1825 57.1676C79.8157 57.1676 78.711 56.1017 78.711 54.7828C78.711 53.464 79.8157 52.3981 81.1825 52.3981C82.5494 52.3981 83.6541 53.464 83.6541 54.7828C83.6541 56.1017 82.5494 57.1676 81.1825 57.1676Z" fill="url(#paint1_linear)"/>
</g>
<rect x="14.7936" y="69.1589" width="115.132" height="64.3178" rx="16" fill="#8AD4B5"/>
<path d="M25.2644 83.4981V88.2491C25.2644 89.0043 25.0219 89.6032 24.5369 90.046C24.0551 90.4854 23.4122 90.7051 22.6082 90.7051C21.7944 90.7051 21.1482 90.4887 20.6697 90.0557C20.1912 89.6195 19.9519 89.0157 19.9519 88.2442V83.4981H21.1824V88.254C21.1824 88.7292 21.3028 89.0922 21.5437 89.3428C21.7846 89.5935 22.1394 89.7188 22.6082 89.7188C23.5587 89.7188 24.034 89.2175 24.034 88.2149V83.4981H25.2644ZM27.574 85.3243L27.6082 85.9346C27.9988 85.4626 28.5115 85.2266 29.1463 85.2266C30.2465 85.2266 30.8064 85.8565 30.826 87.1163V90.6075H29.6394V87.1846C29.6394 86.8493 29.5662 86.6019 29.4197 86.4424C29.2765 86.2797 29.0405 86.1983 28.7117 86.1983C28.2332 86.1983 27.8767 86.4148 27.6424 86.8477V90.6075H26.4558V85.3243H27.574ZM33.3015 90.6075H32.115V85.3243H33.3015V90.6075ZM32.0418 83.9522C32.0418 83.7699 32.0987 83.6185 32.2127 83.4981C32.3299 83.3777 32.4959 83.3174 32.7107 83.3174C32.9256 83.3174 33.0916 83.3777 33.2088 83.4981C33.326 83.6185 33.3846 83.7699 33.3846 83.9522C33.3846 84.1312 33.326 84.281 33.2088 84.4014C33.0916 84.5186 32.9256 84.5772 32.7107 84.5772C32.4959 84.5772 32.3299 84.5186 32.2127 84.4014C32.0987 84.281 32.0418 84.1312 32.0418 83.9522ZM36.4607 89.1036L37.5789 85.3243H38.8045L36.9734 90.6075H35.9431L34.0974 85.3243H35.3279L36.4607 89.1036ZM41.8074 90.7051C41.0555 90.7051 40.4451 90.4691 39.9763 89.9971C39.5109 89.5219 39.2781 88.8904 39.2781 88.1026V87.9561C39.2781 87.4288 39.379 86.9584 39.5808 86.545C39.7859 86.1283 40.0724 85.8044 40.4402 85.5733C40.8081 85.3422 41.2182 85.2266 41.6707 85.2266C42.3901 85.2266 42.9451 85.4561 43.3357 85.9151C43.7296 86.3741 43.9265 87.0235 43.9265 87.8633V88.3419H40.4744C40.5102 88.778 40.6551 89.1231 40.909 89.377C41.1661 89.6309 41.4884 89.7579 41.8758 89.7579C42.4194 89.7579 42.8621 89.5381 43.2039 89.0987L43.8435 89.709C43.6319 90.0248 43.3487 90.2706 42.9939 90.4463C42.6424 90.6189 42.2469 90.7051 41.8074 90.7051ZM41.6658 86.1788C41.3403 86.1788 41.0766 86.2927 40.8748 86.5206C40.6762 86.7484 40.5493 87.0658 40.4939 87.4727H42.7547V87.3848C42.7286 86.9877 42.6228 86.6882 42.4373 86.4864C42.2517 86.2813 41.9946 86.1788 41.6658 86.1788ZM47.618 86.4083C47.4617 86.3822 47.3006 86.3692 47.1346 86.3692C46.5909 86.3692 46.2247 86.5775 46.0359 86.9942V90.6075H44.8494V85.3243H45.9822L46.0115 85.9151C46.298 85.4561 46.6951 85.2266 47.2029 85.2266C47.3722 85.2266 47.5122 85.2494 47.6228 85.295L47.618 86.4083ZM51.3289 89.1719C51.3289 88.9603 51.241 88.7992 51.0652 88.6885C50.8927 88.5779 50.6046 88.4802 50.201 88.3956C49.7973 88.3109 49.4604 88.2035 49.1902 88.0733C48.5978 87.7868 48.3015 87.3718 48.3015 86.8282C48.3015 86.3724 48.4936 85.9916 48.8777 85.6856C49.2618 85.3796 49.7501 85.2266 50.3426 85.2266C50.9741 85.2266 51.4835 85.3829 51.8709 85.6954C52.2615 86.0079 52.4568 86.4131 52.4568 86.9112H51.2703C51.2703 86.6833 51.1857 86.4945 51.0164 86.3448C50.8471 86.1918 50.6225 86.1153 50.3426 86.1153C50.0821 86.1153 49.8689 86.1755 49.7029 86.296C49.5402 86.4164 49.4588 86.5775 49.4588 86.7794C49.4588 86.9616 49.5353 87.1032 49.6883 87.2042C49.8413 87.3051 50.1505 87.4076 50.616 87.5118C51.0815 87.6127 51.4461 87.7348 51.7097 87.878C51.9767 88.018 52.1736 88.1872 52.3006 88.3858C52.4308 88.5844 52.4959 88.8252 52.4959 89.1085C52.4959 89.5837 52.2989 89.9695 51.9051 90.2657C51.5112 90.5586 50.9952 90.7051 50.3572 90.7051C49.9243 90.7051 49.5385 90.627 49.2 90.4708C48.8614 90.3145 48.5978 90.0997 48.409 89.8262C48.2202 89.5528 48.1258 89.2582 48.1258 88.9424H49.2781C49.2944 89.2224 49.4002 89.4389 49.5955 89.5919C49.7908 89.7416 50.0496 89.8165 50.3719 89.8165C50.6844 89.8165 50.922 89.7579 51.0847 89.6407C51.2475 89.5202 51.3289 89.364 51.3289 89.1719ZM54.7957 90.6075H53.6092V85.3243H54.7957V90.6075ZM53.5359 83.9522C53.5359 83.7699 53.5929 83.6185 53.7068 83.4981C53.824 83.3777 53.99 83.3174 54.2049 83.3174C54.4197 83.3174 54.5857 83.3777 54.7029 83.4981C54.8201 83.6185 54.8787 83.7699 54.8787 83.9522C54.8787 84.1312 54.8201 84.281 54.7029 84.4014C54.5857 84.5186 54.4197 84.5772 54.2049 84.5772C53.99 84.5772 53.824 84.5186 53.7068 84.4014C53.5929 84.281 53.5359 84.1312 53.5359 83.9522ZM57.5789 84.0401V85.3243H58.5115V86.2032H57.5789V89.1524C57.5789 89.3542 57.618 89.5007 57.6961 89.5919C57.7775 89.6797 57.9207 89.7237 58.1258 89.7237C58.2625 89.7237 58.4008 89.7074 58.5408 89.6749V90.5928C58.2706 90.6677 58.0102 90.7051 57.7596 90.7051C56.8481 90.7051 56.3924 90.2022 56.3924 89.1963V86.2032H55.5232V85.3243H56.3924V84.0401H57.5789ZM61.2703 88.9083L62.3445 85.3243H63.6092L61.5096 91.4083C61.1873 92.2969 60.6404 92.7413 59.8689 92.7413C59.6964 92.7413 59.506 92.712 59.2976 92.6534V91.7354L59.5222 91.7501C59.8217 91.7501 60.0463 91.6947 60.1961 91.584C60.3491 91.4766 60.4695 91.2943 60.5574 91.0372L60.7283 90.5831L58.8728 85.3243H60.1521L61.2703 88.9083ZM66.5633 87.917C66.5633 87.3995 66.6658 86.934 66.8709 86.5206C67.076 86.1039 67.364 85.7849 67.7351 85.5635C68.1062 85.3389 68.5327 85.2266 69.0144 85.2266C69.7273 85.2266 70.3051 85.4561 70.7478 85.9151C71.1938 86.3741 71.4347 86.9828 71.4705 87.7413L71.4754 88.0196C71.4754 88.5404 71.3745 89.0059 71.1726 89.4161C70.9741 89.8262 70.6876 90.1436 70.3133 90.3682C69.9422 90.5928 69.5125 90.7051 69.0242 90.7051C68.2788 90.7051 67.6814 90.4577 67.2322 89.9629C66.7862 89.4649 66.5633 88.8025 66.5633 87.9756V87.917ZM67.7498 88.0196C67.7498 88.5632 67.8621 88.9896 68.0867 89.2989C68.3113 89.6049 68.6238 89.7579 69.0242 89.7579C69.4246 89.7579 69.7355 89.6016 69.9568 89.2891C70.1814 88.9766 70.2937 88.5193 70.2937 87.917C70.2937 87.3832 70.1782 86.96 69.9471 86.6475C69.7192 86.335 69.4083 86.1788 69.0144 86.1788C68.6271 86.1788 68.3194 86.3334 68.0916 86.6426C67.8637 86.9486 67.7498 87.4076 67.7498 88.0196ZM72.8963 90.6075V86.2032H72.0906V85.3243H72.8963V84.8409C72.8963 84.2549 73.059 83.8025 73.3846 83.4835C73.7101 83.1644 74.1658 83.0049 74.7517 83.0049C74.9601 83.0049 75.1814 83.0342 75.4158 83.0928L75.3865 84.0206C75.2563 83.9945 75.1049 83.9815 74.9324 83.9815C74.366 83.9815 74.0828 84.2728 74.0828 84.8555V85.3243H75.157V86.2032H74.0828V90.6075H72.8963ZM80.2303 83.4981L82.281 88.9473L84.3269 83.4981H85.9236V90.6075H84.6931V88.2637L84.8152 85.129L82.7156 90.6075H81.8318L79.7371 85.1338L79.8592 88.2637V90.6075H78.6287V83.4981H80.2303ZM88.5359 90.6075H87.3494V85.3243H88.5359V90.6075ZM87.2762 83.9522C87.2762 83.7699 87.3331 83.6185 87.4471 83.4981C87.5642 83.3777 87.7303 83.3174 87.9451 83.3174C88.1599 83.3174 88.326 83.3777 88.4431 83.4981C88.5603 83.6185 88.6189 83.7699 88.6189 83.9522C88.6189 84.1312 88.5603 84.281 88.4431 84.4014C88.326 84.5186 88.1599 84.5772 87.9451 84.5772C87.7303 84.5772 87.5642 84.5186 87.4471 84.4014C87.3331 84.281 87.2762 84.1312 87.2762 83.9522ZM92.0027 89.7579C92.2989 89.7579 92.5447 89.6716 92.74 89.4991C92.9353 89.3266 93.0395 89.1133 93.0525 88.8594H94.1707C94.1577 89.1882 94.0551 89.4958 93.8631 89.7823C93.671 90.0655 93.4106 90.2901 93.0818 90.4561C92.753 90.6221 92.3982 90.7051 92.0174 90.7051C91.2784 90.7051 90.6925 90.4659 90.2596 89.9874C89.8266 89.5088 89.6101 88.848 89.6101 88.0049V87.8829C89.6101 87.0788 89.825 86.4359 90.2547 85.9542C90.6844 85.4691 91.2703 85.2266 92.0125 85.2266C92.6407 85.2266 93.1518 85.4105 93.5457 85.7784C93.9428 86.143 94.1512 86.6231 94.1707 87.2188H93.0525C93.0395 86.9161 92.9353 86.667 92.74 86.4717C92.548 86.2764 92.3022 86.1788 92.0027 86.1788C91.6186 86.1788 91.3224 86.3187 91.114 86.5987C90.9057 86.8754 90.7999 87.2969 90.7967 87.8633V88.0538C90.7967 88.6267 90.8992 89.0547 91.1043 89.3379C91.3126 89.6179 91.6121 89.7579 92.0027 89.7579ZM96.2361 85.9004C96.6235 85.4512 97.1134 85.2266 97.7058 85.2266C98.8321 85.2266 99.4034 85.8695 99.4197 87.1553V90.6075H98.2332V87.1993C98.2332 86.8347 98.1534 86.5775 97.9939 86.4278C97.8377 86.2748 97.6066 86.1983 97.3006 86.1983C96.8253 86.1983 96.4705 86.4099 96.2361 86.8331V90.6075H95.0496V83.1075H96.2361V85.9004ZM101.886 90.6075H100.699V85.3243H101.886V90.6075ZM100.626 83.9522C100.626 83.7699 100.683 83.6185 100.797 83.4981C100.914 83.3777 101.08 83.3174 101.295 83.3174C101.51 83.3174 101.676 83.3777 101.793 83.4981C101.91 83.6185 101.969 83.7699 101.969 83.9522C101.969 84.1312 101.91 84.281 101.793 84.4014C101.676 84.5186 101.51 84.5772 101.295 84.5772C101.08 84.5772 100.914 84.5186 100.797 84.4014C100.683 84.281 100.626 84.1312 100.626 83.9522ZM102.974 87.9268C102.974 87.1065 103.166 86.4522 103.551 85.9639C103.938 85.4724 104.451 85.2266 105.089 85.2266C105.691 85.2266 106.164 85.4366 106.51 85.8565L106.563 85.3243H107.633V90.4463C107.633 91.1397 107.416 91.6866 106.983 92.087C106.553 92.4874 105.972 92.6876 105.24 92.6876C104.853 92.6876 104.473 92.6062 104.102 92.4434C103.734 92.2839 103.455 92.0739 103.262 91.8135L103.824 91.1006C104.189 91.5336 104.638 91.7501 105.172 91.7501C105.566 91.7501 105.876 91.6426 106.104 91.4278C106.332 91.2162 106.446 90.9037 106.446 90.4903V90.1338C106.104 90.5147 105.649 90.7051 105.079 90.7051C104.46 90.7051 103.954 90.4594 103.56 89.9678C103.17 89.4763 102.974 88.796 102.974 87.9268ZM104.156 88.0294C104.156 88.5599 104.263 88.9782 104.478 89.2842C104.696 89.587 104.998 89.7383 105.382 89.7383C105.86 89.7383 106.215 89.5333 106.446 89.1231V86.7989C106.221 86.3985 105.87 86.1983 105.391 86.1983C105.001 86.1983 104.696 86.3529 104.478 86.6622C104.263 86.9714 104.156 87.4271 104.156 88.0294ZM112.012 90.6075C111.96 90.5066 111.915 90.3422 111.876 90.1143C111.498 90.5082 111.036 90.7051 110.489 90.7051C109.958 90.7051 109.526 90.5538 109.19 90.251C108.855 89.9483 108.687 89.5739 108.687 89.128C108.687 88.5648 108.896 88.1335 109.312 87.834C109.732 87.5313 110.331 87.3799 111.109 87.3799H111.837V87.0333C111.837 86.7598 111.76 86.5417 111.607 86.379C111.454 86.2129 111.221 86.1299 110.909 86.1299C110.639 86.1299 110.417 86.1983 110.245 86.335C110.072 86.4685 109.986 86.6394 109.986 86.8477H108.8C108.8 86.558 108.896 86.2878 109.088 86.0372C109.28 85.7833 109.54 85.5847 109.869 85.4415C110.201 85.2982 110.57 85.2266 110.977 85.2266C111.596 85.2266 112.089 85.3829 112.457 85.6954C112.825 86.0046 113.013 86.4408 113.023 87.004V89.3868C113.023 89.862 113.09 90.2413 113.223 90.5245V90.6075H112.012ZM110.709 89.753C110.943 89.753 111.163 89.696 111.368 89.5821C111.576 89.4682 111.733 89.3152 111.837 89.1231V88.127H111.197C110.758 88.127 110.427 88.2035 110.206 88.3565C109.984 88.5095 109.874 88.726 109.874 89.0059C109.874 89.2338 109.949 89.4161 110.098 89.5528C110.251 89.6863 110.455 89.753 110.709 89.753ZM115.367 85.3243L115.401 85.9346C115.792 85.4626 116.304 85.2266 116.939 85.2266C118.039 85.2266 118.599 85.8565 118.619 87.1163V90.6075H117.432V87.1846C117.432 86.8493 117.359 86.6019 117.213 86.4424C117.069 86.2797 116.833 86.1983 116.505 86.1983C116.026 86.1983 115.67 86.4148 115.435 86.8477V90.6075H114.249V85.3243H115.367ZM120.548 89.3575C120.769 89.3575 120.94 89.421 121.06 89.5479C121.181 89.6716 121.241 89.8279 121.241 90.0167C121.241 90.2022 121.181 90.3568 121.06 90.4805C120.94 90.601 120.769 90.6612 120.548 90.6612C120.336 90.6612 120.168 90.601 120.045 90.4805C119.921 90.3601 119.859 90.2055 119.859 90.0167C119.859 89.8279 119.919 89.6716 120.04 89.5479C120.16 89.421 120.33 89.3575 120.548 89.3575ZM120.548 85.212C120.769 85.212 120.94 85.2754 121.06 85.4024C121.181 85.5261 121.241 85.6823 121.241 85.8711C121.241 86.0567 121.181 86.2113 121.06 86.335C120.94 86.4555 120.769 86.5157 120.548 86.5157C120.336 86.5157 120.168 86.4555 120.045 86.335C119.921 86.2146 119.859 86.0599 119.859 85.8711C119.859 85.6823 119.919 85.5261 120.04 85.4024C120.16 85.2754 120.33 85.212 120.548 85.212ZM40.6551 99.9659V102.607H39.4197V95.4981H42.1394C42.9337 95.4981 43.5636 95.7048 44.0291 96.1182C44.4978 96.5316 44.7322 97.0785 44.7322 97.7588C44.7322 98.4555 44.5027 98.9974 44.0437 99.3848C43.588 99.7722 42.9484 99.9659 42.1248 99.9659H40.6551ZM40.6551 98.9747H42.1394C42.5789 98.9747 42.9142 98.8721 43.1453 98.667C43.3764 98.4587 43.492 98.1592 43.492 97.7686C43.492 97.3845 43.3748 97.0785 43.1404 96.8506C42.906 96.6195 42.5838 96.5007 42.1736 96.4942H40.6551V98.9747ZM47.6277 100.908L48.7019 97.3243H49.9666L47.867 103.408C47.5447 104.297 46.9978 104.741 46.2263 104.741C46.0538 104.741 45.8634 104.712 45.6551 104.653V103.735L45.8797 103.75C46.1791 103.75 46.4038 103.695 46.5535 103.584C46.7065 103.477 46.8269 103.294 46.9148 103.037L47.0857 102.583L45.2303 97.3243H46.5096L47.6277 100.908ZM52.1394 96.0401V97.3243H53.0721V98.2032H52.1394V101.152C52.1394 101.354 52.1785 101.501 52.2566 101.592C52.338 101.68 52.4812 101.724 52.6863 101.724C52.823 101.724 52.9614 101.707 53.1013 101.675V102.593C52.8312 102.668 52.5707 102.705 52.3201 102.705C51.4086 102.705 50.9529 102.202 50.9529 101.196V98.2032H50.0838V97.3243H50.9529V96.0401H52.1394ZM55.1521 97.9004C55.5395 97.4512 56.0294 97.2266 56.6219 97.2266C57.7482 97.2266 58.3194 97.8695 58.3357 99.1553V102.607H57.1492V99.1993C57.1492 98.8347 57.0694 98.5775 56.9099 98.4278C56.7537 98.2748 56.5226 98.1983 56.2166 98.1983C55.7413 98.1983 55.3865 98.4099 55.1521 98.8331V102.607H53.9656V95.1075H55.1521V97.9004ZM59.3172 99.917C59.3172 99.3995 59.4197 98.934 59.6248 98.5206C59.8299 98.1039 60.118 97.7849 60.489 97.5635C60.8601 97.3389 61.2866 97.2266 61.7683 97.2266C62.4812 97.2266 63.059 97.4561 63.5017 97.9151C63.9477 98.3741 64.1886 98.9828 64.2244 99.7413L64.2293 100.02C64.2293 100.54 64.1284 101.006 63.9265 101.416C63.728 101.826 63.4415 102.144 63.0672 102.368C62.6961 102.593 62.2664 102.705 61.7781 102.705C61.0327 102.705 60.4353 102.458 59.9861 101.963C59.5402 101.465 59.3172 100.802 59.3172 99.9756V99.917ZM60.5037 100.02C60.5037 100.563 60.616 100.99 60.8406 101.299C61.0652 101.605 61.3777 101.758 61.7781 101.758C62.1785 101.758 62.4894 101.602 62.7107 101.289C62.9353 100.977 63.0476 100.519 63.0476 99.917C63.0476 99.3832 62.9321 98.96 62.701 98.6475C62.4731 98.335 62.1622 98.1788 61.7683 98.1788C61.381 98.1788 61.0734 98.3334 60.8455 98.6426C60.6176 98.9486 60.5037 99.4076 60.5037 100.02ZM66.3338 97.3243L66.368 97.9346C66.7586 97.4626 67.2713 97.2266 67.906 97.2266C69.0063 97.2266 69.5662 97.8565 69.5857 99.1163V102.607H68.3992V99.1846C68.3992 98.8493 68.326 98.6019 68.1795 98.4424C68.0362 98.2797 67.8002 98.1983 67.4715 98.1983C66.993 98.1983 66.6365 98.4148 66.4021 98.8477V102.607H65.2156V97.3243H66.3338ZM73.4041 102.607V95.4981H75.8406C76.6446 95.4981 77.2566 95.6592 77.6765 95.9815C78.0965 96.3038 78.3064 96.7839 78.3064 97.4219C78.3064 97.7474 78.2185 98.0404 78.0428 98.3008C77.867 98.5613 77.6098 98.7631 77.2713 98.9063C77.6554 99.0105 77.9516 99.2074 78.1599 99.4971C78.3715 99.7836 78.4773 100.129 78.4773 100.532C78.4773 101.2 78.2625 101.712 77.8328 102.07C77.4064 102.428 76.7944 102.607 75.9969 102.607H73.4041ZM74.6394 99.3995V101.621H76.0115C76.3989 101.621 76.7016 101.525 76.9197 101.333C77.1378 101.141 77.2469 100.874 77.2469 100.532C77.2469 99.7933 76.8693 99.4157 76.114 99.3995H74.6394ZM74.6394 98.4913H75.8504C76.2345 98.4913 76.534 98.405 76.7488 98.2325C76.9669 98.0567 77.076 97.8093 77.076 97.4903C77.076 97.1387 76.975 96.8848 76.7732 96.7286C76.5747 96.5723 76.2638 96.4942 75.8406 96.4942H74.6394V98.4913ZM82.7547 102.607C82.7026 102.507 82.657 102.342 82.618 102.114C82.2403 102.508 81.7781 102.705 81.2312 102.705C80.7006 102.705 80.2677 102.554 79.9324 102.251C79.5971 101.948 79.4295 101.574 79.4295 101.128C79.4295 100.565 79.6378 100.134 80.0545 99.834C80.4744 99.5313 81.0734 99.3799 81.8513 99.3799H82.5789V99.0333C82.5789 98.7598 82.5024 98.5417 82.3494 98.379C82.1964 98.2129 81.9637 98.1299 81.6512 98.1299C81.381 98.1299 81.1596 98.1983 80.9871 98.335C80.8146 98.4685 80.7283 98.6394 80.7283 98.8477H79.5418C79.5418 98.558 79.6378 98.2878 79.8299 98.0372C80.0219 97.7833 80.2823 97.5847 80.6111 97.4415C80.9431 97.2982 81.3126 97.2266 81.7195 97.2266C82.338 97.2266 82.8312 97.3829 83.199 97.6954C83.5668 98.0046 83.7556 98.4408 83.7654 99.004V101.387C83.7654 101.862 83.8321 102.241 83.9656 102.524V102.607H82.7547ZM81.451 101.753C81.6853 101.753 81.9051 101.696 82.1101 101.582C82.3185 101.468 82.4747 101.315 82.5789 101.123V100.127H81.9392C81.4998 100.127 81.1694 100.204 80.948 100.356C80.7267 100.509 80.616 100.726 80.616 101.006C80.616 101.234 80.6909 101.416 80.8406 101.553C80.9936 101.686 81.1971 101.753 81.451 101.753ZM87.9695 101.172C87.9695 100.96 87.8816 100.799 87.7058 100.689C87.5333 100.578 87.2452 100.48 86.8416 100.396C86.4379 100.311 86.101 100.204 85.8308 100.073C85.2384 99.7868 84.9422 99.3718 84.9422 98.8282C84.9422 98.3724 85.1342 97.9916 85.5183 97.6856C85.9025 97.3796 86.3907 97.2266 86.9832 97.2266C87.6147 97.2266 88.1241 97.3829 88.5115 97.6954C88.9021 98.0079 89.0974 98.4131 89.0974 98.9112H87.9109C87.9109 98.6833 87.8263 98.4945 87.657 98.3448C87.4877 98.1918 87.2631 98.1153 86.9832 98.1153C86.7228 98.1153 86.5096 98.1755 86.3435 98.296C86.1808 98.4164 86.0994 98.5775 86.0994 98.7794C86.0994 98.9616 86.1759 99.1032 86.3289 99.2042C86.4819 99.3051 86.7911 99.4076 87.2566 99.5118C87.7221 99.6127 88.0867 99.7348 88.3504 99.878C88.6173 100.018 88.8142 100.187 88.9412 100.386C89.0714 100.584 89.1365 100.825 89.1365 101.108C89.1365 101.584 88.9396 101.969 88.5457 102.266C88.1518 102.559 87.6359 102.705 86.9978 102.705C86.5649 102.705 86.1791 102.627 85.8406 102.471C85.5021 102.315 85.2384 102.1 85.0496 101.826C84.8608 101.553 84.7664 101.258 84.7664 100.942H85.9187C85.935 101.222 86.0408 101.439 86.2361 101.592C86.4314 101.742 86.6902 101.816 87.0125 101.816C87.325 101.816 87.5626 101.758 87.7254 101.641C87.8881 101.52 87.9695 101.364 87.9695 101.172ZM91.4363 102.607H90.2498V97.3243H91.4363V102.607ZM90.1765 95.9522C90.1765 95.7699 90.2335 95.6185 90.3474 95.4981C90.4646 95.3777 90.6306 95.3174 90.8455 95.3174C91.0603 95.3174 91.2263 95.3777 91.3435 95.4981C91.4607 95.6185 91.5193 95.7699 91.5193 95.9522C91.5193 96.1312 91.4607 96.281 91.3435 96.4014C91.2263 96.5186 91.0603 96.5772 90.8455 96.5772C90.6306 96.5772 90.4646 96.5186 90.3474 96.4014C90.2335 96.281 90.1765 96.1312 90.1765 95.9522ZM94.9031 101.758C95.1993 101.758 95.4451 101.672 95.6404 101.499C95.8357 101.327 95.9399 101.113 95.9529 100.859H97.0711C97.0581 101.188 96.9555 101.496 96.7635 101.782C96.5714 102.065 96.311 102.29 95.9822 102.456C95.6534 102.622 95.2986 102.705 94.9178 102.705C94.1788 102.705 93.5929 102.466 93.1599 101.987C92.727 101.509 92.5105 100.848 92.5105 100.005V99.8829C92.5105 99.0788 92.7254 98.4359 93.1551 97.9542C93.5847 97.4691 94.1707 97.2266 94.9129 97.2266C95.5411 97.2266 96.0522 97.4105 96.4461 97.7784C96.8432 98.143 97.0515 98.6231 97.0711 99.2188H95.9529C95.9399 98.9161 95.8357 98.667 95.6404 98.4717C95.4484 98.2764 95.2026 98.1788 94.9031 98.1788C94.519 98.1788 94.2228 98.3187 94.0144 98.5987C93.8061 98.8754 93.7003 99.2969 93.6971 99.8633V100.054C93.6971 100.627 93.7996 101.055 94.0047 101.338C94.213 101.618 94.5125 101.758 94.9031 101.758ZM100.928 101.172C100.928 100.96 100.841 100.799 100.665 100.689C100.492 100.578 100.204 100.48 99.8006 100.396C99.3969 100.311 99.06 100.204 98.7898 100.073C98.1974 99.7868 97.9012 99.3718 97.9012 98.8282C97.9012 98.3724 98.0932 97.9916 98.4773 97.6856C98.8614 97.3796 99.3497 97.2266 99.9422 97.2266C100.574 97.2266 101.083 97.3829 101.47 97.6954C101.861 98.0079 102.056 98.4131 102.056 98.9112H100.87C100.87 98.6833 100.785 98.4945 100.616 98.3448C100.447 98.1918 100.222 98.1153 99.9422 98.1153C99.6818 98.1153 99.4685 98.1755 99.3025 98.296C99.1398 98.4164 99.0584 98.5775 99.0584 98.7794C99.0584 98.9616 99.1349 99.1032 99.2879 99.2042C99.4409 99.3051 99.7501 99.4076 100.216 99.5118C100.681 99.6127 101.046 99.7348 101.309 99.878C101.576 100.018 101.773 100.187 101.9 100.386C102.03 100.584 102.095 100.825 102.095 101.108C102.095 101.584 101.899 101.969 101.505 102.266C101.111 102.559 100.595 102.705 99.9568 102.705C99.5239 102.705 99.1381 102.627 98.7996 102.471C98.461 102.315 98.1974 102.1 98.0086 101.826C97.8198 101.553 97.7254 101.258 97.7254 100.942H98.8777C98.894 101.222 98.9998 101.439 99.1951 101.592C99.3904 101.742 99.6492 101.816 99.9715 101.816C100.284 101.816 100.522 101.758 100.684 101.641C100.847 101.52 100.928 101.364 100.928 101.172Z" fill="#0B406C"/>
<path d="M51.5051 120.106C51.4335 120.865 51.1536 121.457 50.6653 121.883C50.177 122.307 49.5276 122.518 48.717 122.518C48.1506 122.518 47.651 122.385 47.218 122.118C46.7883 121.848 46.4563 121.465 46.2219 120.97C45.9875 120.476 45.8655 119.901 45.8557 119.247V118.583C45.8557 117.912 45.9745 117.321 46.2122 116.81C46.4498 116.299 46.79 115.905 47.2327 115.629C47.6786 115.352 48.193 115.214 48.7756 115.214C49.5601 115.214 50.1917 115.427 50.6702 115.853C51.1487 116.28 51.427 116.882 51.5051 117.66H50.2747C50.2161 117.149 50.0663 116.781 49.8254 116.556C49.5878 116.328 49.2379 116.215 48.7756 116.215C48.2385 116.215 47.8251 116.411 47.5354 116.805C47.2489 117.196 47.1025 117.77 47.0959 118.529V119.159C47.0959 119.927 47.2327 120.513 47.5061 120.917C47.7828 121.32 48.1864 121.522 48.717 121.522C49.2021 121.522 49.5667 121.413 49.8108 121.195C50.0549 120.977 50.2096 120.614 50.2747 120.106H51.5051ZM53.761 122.421H52.5745V114.921H53.761V122.421ZM56.3196 122.421H55.1331V117.137H56.3196V122.421ZM55.0598 115.765C55.0598 115.583 55.1168 115.432 55.2307 115.311C55.3479 115.191 55.5139 115.131 55.7288 115.131C55.9436 115.131 56.1096 115.191 56.2268 115.311C56.344 115.432 56.4026 115.583 56.4026 115.765C56.4026 115.944 56.344 116.094 56.2268 116.215C56.1096 116.332 55.9436 116.39 55.7288 116.39C55.5139 116.39 55.3479 116.332 55.2307 116.215C55.1168 116.094 55.0598 115.944 55.0598 115.765ZM59.7864 121.571C60.0826 121.571 60.3284 121.485 60.5237 121.312C60.719 121.14 60.8232 120.926 60.8362 120.673H61.9543C61.9413 121.001 61.8388 121.309 61.6467 121.595C61.4547 121.879 61.1943 122.103 60.8655 122.269C60.5367 122.435 60.1819 122.518 59.801 122.518C59.0621 122.518 58.4762 122.279 58.0432 121.8C57.6103 121.322 57.3938 120.661 57.3938 119.818V119.696C57.3938 118.892 57.6086 118.249 58.0383 117.767C58.468 117.282 59.054 117.04 59.7961 117.04C60.4244 117.04 60.9355 117.224 61.3293 117.591C61.7265 117.956 61.9348 118.436 61.9543 119.032H60.8362C60.8232 118.729 60.719 118.48 60.5237 118.285C60.3316 118.09 60.0859 117.992 59.7864 117.992C59.4023 117.992 59.106 118.132 58.8977 118.412C58.6894 118.688 58.5836 119.11 58.5803 119.676V119.867C58.5803 120.44 58.6829 120.868 58.8879 121.151C59.0963 121.431 59.3958 121.571 59.7864 121.571ZM64.5667 120.155L64.0393 120.697V122.421H62.8528V114.921H64.0393V119.247L64.4104 118.783L65.8704 117.137H67.2961L65.3333 119.34L67.5061 122.421H66.134L64.5667 120.155ZM71.7346 117.714C72.122 117.264 72.6119 117.04 73.2043 117.04C74.3306 117.04 74.9019 117.683 74.9182 118.968V122.421H73.7317V119.012C73.7317 118.648 73.6519 118.391 73.4924 118.241C73.3362 118.088 73.1051 118.011 72.7991 118.011C72.3238 118.011 71.969 118.223 71.7346 118.646V122.421H70.5481V114.921H71.7346V117.714ZM78.4485 122.518C77.6965 122.518 77.0862 122.282 76.6174 121.81C76.1519 121.335 75.9192 120.703 75.9192 119.916V119.769C75.9192 119.242 76.0201 118.771 76.2219 118.358C76.427 117.941 76.7135 117.618 77.0813 117.386C77.4491 117.155 77.8593 117.04 78.3118 117.04C79.0312 117.04 79.5862 117.269 79.9768 117.728C80.3707 118.187 80.5676 118.837 80.5676 119.676V120.155H77.1155C77.1513 120.591 77.2961 120.936 77.55 121.19C77.8072 121.444 78.1295 121.571 78.5168 121.571C79.0605 121.571 79.5032 121.351 79.845 120.912L80.4846 121.522C80.273 121.838 79.9898 122.084 79.635 122.259C79.2834 122.432 78.8879 122.518 78.4485 122.518ZM78.3069 117.992C77.9814 117.992 77.7177 118.106 77.5159 118.334C77.3173 118.562 77.1903 118.879 77.135 119.286H79.3958V119.198C79.3697 118.801 79.2639 118.501 79.0784 118.299C78.8928 118.094 78.6357 117.992 78.3069 117.992ZM84.259 118.221C84.1028 118.195 83.9417 118.182 83.7756 118.182C83.232 118.182 82.8658 118.391 82.677 118.807V122.421H81.4905V117.137H82.6233L82.6526 117.728C82.939 117.269 83.3362 117.04 83.844 117.04C84.0133 117.04 84.1532 117.062 84.2639 117.108L84.259 118.221ZM87.2375 122.518C86.4856 122.518 85.8752 122.282 85.4065 121.81C84.941 121.335 84.7083 120.703 84.7083 119.916V119.769C84.7083 119.242 84.8092 118.771 85.011 118.358C85.2161 117.941 85.5025 117.618 85.8704 117.386C86.2382 117.155 86.6484 117.04 87.1008 117.04C87.8202 117.04 88.3752 117.269 88.7659 117.728C89.1597 118.187 89.3567 118.837 89.3567 119.676V120.155H85.9045C85.9403 120.591 86.0852 120.936 86.3391 121.19C86.5963 121.444 86.9185 121.571 87.3059 121.571C87.8495 121.571 88.2922 121.351 88.634 120.912L89.2737 121.522C89.0621 121.838 88.7789 122.084 88.4241 122.259C88.0725 122.432 87.677 122.518 87.2375 122.518ZM87.0959 117.992C86.7704 117.992 86.5068 118.106 86.3049 118.334C86.1064 118.562 85.9794 118.879 85.9241 119.286H88.1848V119.198C88.1588 118.801 88.053 118.501 87.8674 118.299C87.6819 118.094 87.4247 117.992 87.0959 117.992Z" fill="#BFFBDE"/>
<defs>
<filter id="filter0_d" x="0" y="0" width="144" height="156" filterUnits="userSpaceOnUse" color-interpolation-filters="sRGB">
<feFlood flood-opacity="0" result="BackgroundImageFix"/>
<feColorMatrix in="SourceAlpha" type="matrix" values="0 0 0 0 0 0 0 0 0 0 0 0 0 0 0 0 0 0 127 0" result="hardAlpha"/>
<feOffset dy="4"/>
<feGaussianBlur stdDeviation="2"/>
<feColorMatrix type="matrix" values="0 0 0 0 0 0 0 0 0 0 0 0 0 0 0 0 0 0 0.25 0"/>
<feBlend mode="normal" in2="BackgroundImageFix" result="effect1_dropShadow"/>
<feBlend mode="normal" in="SourceGraphic" in2="effect1_dropShadow" result="shape"/>
</filter>
<linearGradient id="paint0_linear" x1="50.4983" y1="11.8276" x2="77.6068" y2="39.6427" gradientUnits="userSpaceOnUse">
<stop stop-color="#387EB8"/>
<stop offset="1" stop-color="#366994"/>
</linearGradient>
<linearGradient id="paint1_linear" x1="67.7477" y1="29.066" x2="96.9075" y2="57.6351" gradientUnits="userSpaceOnUse">
<stop stop-color="#FFE052"/>
<stop offset="1" stop-color="#FFC331"/>
</linearGradient>
<clipPath id="clip0">
<rect width="56.8466" height="54.6355" fill="white" transform="translate(45.0159 6.91589)"/>
</clipPath>
</defs>
</svg>
