<svg width="100" height="99" viewBox="0 0 100 99" fill="none" xmlns="http://www.w3.org/2000/svg">
<g filter="url(#filter0_d)">
<rect x="4" width="92" height="91" rx="39" fill="#405C50"/>
</g>
<g clip-path="url(#clip0)">
<path d="M50.811 4.26195C41.0722 4.26195 41.6803 7.96582 41.6803 7.96582L41.6912 11.803H50.9847V12.9551H37.9999C37.9999 12.9551 31.768 12.3353 31.768 20.9532C31.768 29.571 37.2073 29.2654 37.2073 29.2654H40.4535V25.2664C40.4535 25.2664 40.2785 20.4961 45.806 20.4961H55.0234C55.0234 20.4961 60.2022 20.5695 60.2022 16.1067V8.72754C60.2022 8.72754 60.9884 4.26195 50.811 4.26195ZM45.6865 6.84228C46.6112 6.84228 47.3585 7.49768 47.3585 8.30859C47.3585 9.1195 46.6112 9.7749 45.6865 9.7749C44.7619 9.7749 44.0146 9.1195 44.0146 8.30859C44.0146 7.49768 44.7619 6.84228 45.6865 6.84228Z" fill="url(#paint0_linear)"/>
<path d="M51.0873 37.7307C60.8261 37.7307 60.2179 34.0268 60.2179 34.0268L60.2071 30.1896H50.9136V29.0375H63.8984C63.8984 29.0375 70.1302 29.6573 70.1302 21.0395C70.1302 12.4216 64.6909 12.7272 64.6909 12.7272H61.4447V16.7262C61.4447 16.7262 61.6197 21.4965 56.0923 21.4965H46.8748C46.8748 21.4965 41.6961 21.4231 41.6961 25.8859V33.2651C41.6961 33.2651 40.9098 37.7307 51.0873 37.7307ZM56.2117 35.1503C55.2871 35.1503 54.5398 34.4949 54.5398 33.684C54.5398 32.8731 55.2871 32.2177 56.2117 32.2177C57.1364 32.2177 57.8837 32.8731 57.8837 33.684C57.8837 34.4949 57.1364 35.1503 56.2117 35.1503Z" fill="url(#paint1_linear)"/>
</g>
<rect x="11.3016" y="42.5234" width="77.8836" height="39.5467" rx="16" fill="#8AD4B5"/>
<path d="M17.4795 51.201V54.5267C17.4795 55.0553 17.3098 55.4746 16.9703 55.7845C16.633 56.0921 16.183 56.2459 15.6202 56.2459C15.0505 56.2459 14.5982 56.0944 14.2632 55.7913C13.9283 55.486 13.7608 55.0633 13.7608 54.5233V51.201H14.6221V54.5301C14.6221 54.8628 14.7064 55.1169 14.8751 55.2923C15.0437 55.4678 15.292 55.5555 15.6202 55.5555C16.2855 55.5555 16.6182 55.2046 16.6182 54.5028V51.201H17.4795ZM19.0962 52.4793L19.1202 52.9066C19.3936 52.5762 19.7525 52.411 20.1968 52.411C20.967 52.411 21.3589 52.8519 21.3726 53.7337V56.1776H20.542V53.7816C20.542 53.5469 20.4908 53.3737 20.3882 53.262C20.288 53.1481 20.1228 53.0911 19.8926 53.0911C19.5577 53.0911 19.3082 53.2427 19.1441 53.5457V56.1776H18.3135V52.4793H19.0962ZM23.1055 56.1776H22.275V52.4793H23.1055V56.1776ZM22.2237 51.5189C22.2237 51.3913 22.2636 51.2853 22.3433 51.201C22.4253 51.1167 22.5416 51.0745 22.6919 51.0745C22.8423 51.0745 22.9585 51.1167 23.0406 51.201C23.1226 51.2853 23.1636 51.3913 23.1636 51.5189C23.1636 51.6442 23.1226 51.749 23.0406 51.8333C22.9585 51.9154 22.8423 51.9564 22.6919 51.9564C22.5416 51.9564 22.4253 51.9154 22.3433 51.8333C22.2636 51.749 22.2237 51.6442 22.2237 51.5189ZM25.3169 55.1248L26.0997 52.4793H26.9576L25.6758 56.1776H24.9546L23.6627 52.4793H24.524L25.3169 55.1248ZM29.0596 56.2459C28.5333 56.2459 28.106 56.0807 27.7779 55.7503C27.452 55.4176 27.2891 54.9756 27.2891 54.4242V54.3216C27.2891 53.9525 27.3598 53.6232 27.501 53.3338C27.6446 53.0422 27.8451 52.8154 28.1026 52.6536C28.3601 52.4919 28.6472 52.411 28.9639 52.411C29.4675 52.411 29.856 52.5716 30.1294 52.8929C30.4052 53.2142 30.543 53.6688 30.543 54.2567V54.5916H28.1265C28.1516 54.897 28.253 55.1385 28.4307 55.3162C28.6107 55.494 28.8363 55.5828 29.1075 55.5828C29.488 55.5828 29.7979 55.429 30.0372 55.1214L30.4849 55.5487C30.3368 55.7697 30.1386 55.9417 29.8902 56.0648C29.6441 56.1855 29.3672 56.2459 29.0596 56.2459ZM28.9605 53.0775C28.7326 53.0775 28.5481 53.1572 28.4068 53.3167C28.2678 53.4762 28.1789 53.6984 28.1402 53.9832H29.7227V53.9217C29.7045 53.6437 29.6304 53.4341 29.5005 53.2928C29.3707 53.1493 29.1906 53.0775 28.9605 53.0775ZM33.127 53.2381C33.0176 53.2199 32.9048 53.2108 32.7886 53.2108C32.4081 53.2108 32.1517 53.3566 32.0196 53.6483V56.1776H31.189V52.4793H31.982L32.0025 52.8929C32.203 52.5716 32.481 52.411 32.8365 52.411C32.955 52.411 33.053 52.4269 33.1304 52.4588L33.127 53.2381ZM35.7247 55.1727C35.7247 55.0246 35.6631 54.9118 35.5401 54.8343C35.4193 54.7568 35.2177 54.6885 34.9351 54.6292C34.6526 54.57 34.4167 54.4948 34.2276 54.4036C33.8129 54.2031 33.6055 53.9126 33.6055 53.5321C33.6055 53.2131 33.74 52.9465 34.0088 52.7323C34.2777 52.5181 34.6195 52.411 35.0342 52.411C35.4763 52.411 35.8329 52.5203 36.1041 52.7391C36.3775 52.9578 36.5142 53.2415 36.5142 53.5902H35.6836C35.6836 53.4307 35.6244 53.2985 35.5059 53.1937C35.3874 53.0866 35.2302 53.033 35.0342 53.033C34.8519 53.033 34.7027 53.0752 34.5865 53.1595C34.4725 53.2438 34.4156 53.3566 34.4156 53.4979C34.4156 53.6255 34.4691 53.7246 34.5762 53.7952C34.6833 53.8659 34.8998 53.9377 35.2256 54.0106C35.5515 54.0812 35.8067 54.1667 35.9913 54.2669C36.1781 54.3649 36.316 54.4834 36.4048 54.6224C36.496 54.7614 36.5416 54.93 36.5416 55.1283C36.5416 55.4609 36.4037 55.731 36.128 55.9383C35.8523 56.1434 35.4911 56.2459 35.0445 56.2459C34.7414 56.2459 34.4714 56.1912 34.2344 56.0819C33.9974 55.9725 33.8129 55.8221 33.6807 55.6307C33.5486 55.4393 33.4825 55.2331 33.4825 55.012H34.2891C34.3005 55.208 34.3746 55.3595 34.5113 55.4666C34.648 55.5715 34.8292 55.6239 35.0547 55.6239C35.2735 55.6239 35.4398 55.5828 35.5538 55.5008C35.6677 55.4165 35.7247 55.3071 35.7247 55.1727ZM38.1514 56.1776H37.3209V52.4793H38.1514V56.1776ZM37.2696 51.5189C37.2696 51.3913 37.3095 51.2853 37.3892 51.201C37.4712 51.1167 37.5875 51.0745 37.7378 51.0745C37.8882 51.0745 38.0044 51.1167 38.0865 51.201C38.1685 51.2853 38.2095 51.3913 38.2095 51.5189C38.2095 51.6442 38.1685 51.749 38.0865 51.8333C38.0044 51.9154 37.8882 51.9564 37.7378 51.9564C37.5875 51.9564 37.4712 51.9154 37.3892 51.8333C37.3095 51.749 37.2696 51.6442 37.2696 51.5189ZM40.0997 51.5804V52.4793H40.7525V53.0946H40.0997V55.159C40.0997 55.3003 40.127 55.4028 40.1817 55.4666C40.2387 55.5282 40.3389 55.5589 40.4825 55.5589C40.5782 55.5589 40.675 55.5475 40.773 55.5247V56.1673C40.5839 56.2197 40.4016 56.2459 40.2261 56.2459C39.5881 56.2459 39.2691 55.8939 39.2691 55.1898V53.0946H38.6607V52.4793H39.2691V51.5804H40.0997ZM42.6836 54.9881L43.4356 52.4793H44.3209L42.8511 56.7381C42.6255 57.3602 42.2427 57.6712 41.7027 57.6712C41.5819 57.6712 41.4486 57.6507 41.3028 57.6097V56.9671L41.46 56.9774C41.6696 56.9774 41.8269 56.9386 41.9317 56.8612C42.0388 56.786 42.1231 56.6584 42.1846 56.4784L42.3043 56.1605L41.0054 52.4793H41.9009L42.6836 54.9881ZM46.3887 54.2943C46.3887 53.932 46.4605 53.6061 46.6041 53.3167C46.7476 53.0251 46.9493 52.8018 47.209 52.6468C47.4688 52.4896 47.7673 52.411 48.1045 52.411C48.6036 52.411 49.008 52.5716 49.3179 52.8929C49.6301 53.2142 49.7987 53.6403 49.8238 54.1712L49.8272 54.366C49.8272 54.7306 49.7566 55.0565 49.6153 55.3436C49.4763 55.6307 49.2758 55.8529 49.0137 56.0101C48.754 56.1673 48.4532 56.2459 48.1114 56.2459C47.5896 56.2459 47.1714 56.0728 46.857 55.7264C46.5448 55.3778 46.3887 54.9141 46.3887 54.3353V54.2943ZM47.2193 54.366C47.2193 54.7466 47.2979 55.0451 47.4551 55.2616C47.6124 55.4757 47.8311 55.5828 48.1114 55.5828C48.3917 55.5828 48.6093 55.4735 48.7642 55.2547C48.9214 55.036 49.0001 54.7158 49.0001 54.2943C49.0001 53.9206 48.9192 53.6243 48.7574 53.4056C48.5979 53.1868 48.3803 53.0775 48.1045 53.0775C47.8334 53.0775 47.6181 53.1857 47.4585 53.4022C47.299 53.6164 47.2193 53.9377 47.2193 54.366ZM50.8218 56.1776V53.0946H50.2579V52.4793H50.8218V52.1409C50.8218 51.7308 50.9358 51.4141 51.1636 51.1908C51.3915 50.9674 51.7105 50.8558 52.1207 50.8558C52.2665 50.8558 52.4214 50.8763 52.5855 50.9173L52.565 51.5667C52.4738 51.5485 52.3679 51.5394 52.2471 51.5394C51.8506 51.5394 51.6524 51.7433 51.6524 52.1512V52.4793H52.4044V53.0946H51.6524V56.1776H50.8218ZM55.9556 51.201L57.3912 55.0155L58.8233 51.201H59.941V56.1776H59.0796V54.5369L59.1651 52.3426L57.6954 56.1776H57.0767L55.6104 52.346L55.6959 54.5369V56.1776H54.8345V51.201H55.9556ZM61.7696 56.1776H60.939V52.4793H61.7696V56.1776ZM60.8877 51.5189C60.8877 51.3913 60.9276 51.2853 61.0074 51.201C61.0894 51.1167 61.2056 51.0745 61.356 51.0745C61.5064 51.0745 61.6226 51.1167 61.7046 51.201C61.7867 51.2853 61.8277 51.3913 61.8277 51.5189C61.8277 51.6442 61.7867 51.749 61.7046 51.8333C61.6226 51.9154 61.5064 51.9564 61.356 51.9564C61.2056 51.9564 61.0894 51.9154 61.0074 51.8333C60.9276 51.749 60.8877 51.6442 60.8877 51.5189ZM64.1963 55.5828C64.4037 55.5828 64.5757 55.5225 64.7125 55.4017C64.8492 55.2809 64.9221 55.1317 64.9312 54.9539H65.7139C65.7048 55.1841 65.633 55.3994 65.4986 55.5999C65.3641 55.7982 65.1819 55.9554 64.9517 56.0716C64.7216 56.1878 64.4732 56.2459 64.2066 56.2459C63.6893 56.2459 63.2792 56.0784 62.9761 55.7435C62.6731 55.4085 62.5215 54.946 62.5215 54.3558V54.2703C62.5215 53.7075 62.6719 53.2575 62.9727 52.9202C63.2735 52.5807 63.6836 52.411 64.2032 52.411C64.643 52.411 65.0007 52.5397 65.2764 52.7972C65.5544 53.0524 65.7002 53.3885 65.7139 53.8055H64.9312C64.9221 53.5936 64.8492 53.4193 64.7125 53.2826C64.578 53.1458 64.406 53.0775 64.1963 53.0775C63.9275 53.0775 63.7201 53.1755 63.5743 53.3714C63.4284 53.5651 63.3544 53.8602 63.3521 54.2567V54.39C63.3521 54.791 63.4239 55.0907 63.5674 55.2889C63.7133 55.4849 63.9229 55.5828 64.1963 55.5828ZM67.1597 52.8826C67.4309 52.5682 67.7738 52.411 68.1885 52.411C68.9769 52.411 69.3768 52.861 69.3882 53.7611V56.1776H68.5577V53.7918C68.5577 53.5366 68.5018 53.3566 68.3902 53.2518C68.2808 53.1447 68.119 53.0911 67.9048 53.0911C67.5722 53.0911 67.3238 53.2393 67.1597 53.5355V56.1776H66.3292V50.9276H67.1597V52.8826ZM71.1143 56.1776H70.2837V52.4793H71.1143V56.1776ZM70.2325 51.5189C70.2325 51.3913 70.2724 51.2853 70.3521 51.201C70.4341 51.1167 70.5503 51.0745 70.7007 51.0745C70.8511 51.0745 70.9673 51.1167 71.0494 51.201C71.1314 51.2853 71.1724 51.3913 71.1724 51.5189C71.1724 51.6442 71.1314 51.749 71.0494 51.8333C70.9673 51.9154 70.8511 51.9564 70.7007 51.9564C70.5503 51.9564 70.4341 51.9154 70.3521 51.8333C70.2724 51.749 70.2325 51.6442 70.2325 51.5189ZM71.8765 54.3011C71.8765 53.7269 72.011 53.2689 72.2798 52.9271C72.551 52.583 72.9099 52.411 73.3565 52.411C73.778 52.411 74.1096 52.5579 74.3511 52.8519L74.3887 52.4793H75.1373V56.0648C75.1373 56.5501 74.9857 56.9329 74.6827 57.2132C74.3819 57.4935 73.9752 57.6336 73.4625 57.6336C73.1913 57.6336 72.9258 57.5767 72.6661 57.4627C72.4086 57.3511 72.2126 57.2041 72.0782 57.0218L72.4712 56.5228C72.7265 56.8258 73.0409 56.9774 73.4146 56.9774C73.6903 56.9774 73.9079 56.9022 74.0674 56.7518C74.2269 56.6037 74.3067 56.3849 74.3067 56.0955V55.846C74.0674 56.1126 73.7484 56.2459 73.3497 56.2459C72.9167 56.2459 72.5624 56.0739 72.2867 55.7298C72.0132 55.3857 71.8765 54.9095 71.8765 54.3011ZM72.7037 54.3729C72.7037 54.7443 72.7789 55.0371 72.9293 55.2513C73.0819 55.4632 73.2927 55.5692 73.5616 55.5692C73.8965 55.5692 74.1449 55.4256 74.3067 55.1385V53.5116C74.1495 53.2313 73.9034 53.0911 73.5684 53.0911C73.295 53.0911 73.0819 53.1994 72.9293 53.4159C72.7789 53.6323 72.7037 53.9513 72.7037 54.3729ZM78.2032 56.1776C78.1667 56.1069 78.1348 55.9919 78.1075 55.8324C77.8432 56.1081 77.5196 56.2459 77.1368 56.2459C76.7654 56.2459 76.4623 56.14 76.2276 55.9281C75.9929 55.7161 75.8755 55.4541 75.8755 55.1419C75.8755 54.7477 76.0214 54.4458 76.313 54.2362C76.607 54.0243 77.0263 53.9183 77.5709 53.9183H78.0801V53.6756C78.0801 53.4842 78.0266 53.3315 77.9195 53.2176C77.8124 53.1014 77.6495 53.0433 77.4307 53.0433C77.2416 53.0433 77.0866 53.0911 76.9659 53.1868C76.8451 53.2803 76.7847 53.3999 76.7847 53.5457H75.9542C75.9542 53.3429 76.0214 53.1538 76.1558 52.9784C76.2903 52.8006 76.4725 52.6616 76.7027 52.5614C76.9351 52.4611 77.1937 52.411 77.4786 52.411C77.9115 52.411 78.2567 52.5203 78.5142 52.7391C78.7717 52.9556 78.9039 53.2609 78.9107 53.6551V55.3231C78.9107 55.6558 78.9574 55.9212 79.0508 56.1195V56.1776H78.2032ZM77.2906 55.5794C77.4546 55.5794 77.6085 55.5395 77.752 55.4598C77.8978 55.38 78.0072 55.2729 78.0801 55.1385V54.4412H77.6324C77.3248 54.4412 77.0935 54.4948 76.9385 54.6019C76.7836 54.709 76.7061 54.8605 76.7061 55.0565C76.7061 55.216 76.7585 55.3436 76.8633 55.4393C76.9704 55.5327 77.1128 55.5794 77.2906 55.5794ZM80.5513 52.4793L80.5752 52.9066C80.8487 52.5762 81.2076 52.411 81.6519 52.411C82.4221 52.411 82.814 52.8519 82.8277 53.7337V56.1776H81.9971V53.7816C81.9971 53.5469 81.9459 53.3737 81.8433 53.262C81.7431 53.1481 81.5779 53.0911 81.3477 53.0911C81.0127 53.0911 80.7632 53.2427 80.5992 53.5457V56.1776H79.7686V52.4793H80.5513ZM84.1778 55.3026C84.3327 55.3026 84.4524 55.347 84.5367 55.4359C84.621 55.5225 84.6631 55.6318 84.6631 55.764C84.6631 55.8939 84.621 56.0021 84.5367 56.0887C84.4524 56.173 84.3327 56.2152 84.1778 56.2152C84.0297 56.2152 83.9123 56.173 83.8257 56.0887C83.7391 56.0044 83.6959 55.8962 83.6959 55.764C83.6959 55.6318 83.738 55.5225 83.8223 55.4359C83.9066 55.347 84.0251 55.3026 84.1778 55.3026ZM84.1778 52.4007C84.3327 52.4007 84.4524 52.4451 84.5367 52.534C84.621 52.6206 84.6631 52.73 84.6631 52.8621C84.6631 52.992 84.621 53.1003 84.5367 53.1868C84.4524 53.2712 84.3327 53.3133 84.1778 53.3133C84.0297 53.3133 83.9123 53.2712 83.8257 53.1868C83.7391 53.1025 83.6959 52.9943 83.6959 52.8621C83.6959 52.73 83.738 52.6206 83.8223 52.534C83.9066 52.4451 84.0251 52.4007 84.1778 52.4007ZM28.253 62.3284V64.1776H27.3882V59.201H29.292C29.848 59.201 30.289 59.3457 30.6148 59.6351C30.9429 59.9245 31.107 60.3073 31.107 60.7835C31.107 61.2712 30.9463 61.6506 30.6251 61.9217C30.306 62.1929 29.8583 62.3284 29.2818 62.3284H28.253ZM28.253 61.6346H29.292C29.5997 61.6346 29.8344 61.5628 29.9961 61.4193C30.1579 61.2734 30.2388 61.0638 30.2388 60.7904C30.2388 60.5215 30.1568 60.3073 29.9927 60.1478C29.8287 59.986 29.6031 59.9028 29.316 59.8983H28.253V61.6346ZM33.1338 62.9881L33.8858 60.4793H34.771L33.3013 64.7381C33.0757 65.3602 32.6929 65.6712 32.1529 65.6712C32.0321 65.6712 31.8988 65.6507 31.753 65.6097V64.9671L31.9102 64.9774C32.1198 64.9774 32.2771 64.9386 32.3819 64.8612C32.489 64.786 32.5733 64.6584 32.6348 64.4784L32.7544 64.1605L31.4556 60.4793H32.3511L33.1338 62.9881ZM36.292 59.5804V60.4793H36.9449V61.0946H36.292V63.159C36.292 63.3003 36.3194 63.4028 36.3741 63.4666C36.431 63.5282 36.5313 63.5589 36.6749 63.5589C36.7706 63.5589 36.8674 63.5475 36.9654 63.5247V64.1673C36.7763 64.2197 36.594 64.2459 36.4185 64.2459C35.7805 64.2459 35.4615 63.8939 35.4615 63.1898V61.0946H34.8531V60.4793H35.4615V59.5804H36.292ZM38.4009 60.8826C38.6721 60.5682 39.015 60.411 39.4297 60.411C40.2182 60.411 40.6181 60.861 40.6294 61.7611V64.1776H39.7989V61.7918C39.7989 61.5366 39.7431 61.3566 39.6314 61.2518C39.522 61.1447 39.3602 61.0911 39.146 61.0911C38.8134 61.0911 38.565 61.2393 38.4009 61.5355V64.1776H37.5704V58.9276H38.4009V60.8826ZM41.3165 62.2943C41.3165 61.932 41.3882 61.6061 41.5318 61.3167C41.6753 61.0251 41.877 60.8018 42.1368 60.6468C42.3965 60.4896 42.695 60.411 43.0323 60.411C43.5313 60.411 43.9358 60.5716 44.2457 60.8929C44.5578 61.2142 44.7265 61.6403 44.7515 62.1712L44.7549 62.366C44.7549 62.7306 44.6843 63.0565 44.543 63.3436C44.404 63.6307 44.2035 63.8529 43.9415 64.0101C43.6817 64.1673 43.3809 64.2459 43.0391 64.2459C42.5173 64.2459 42.0992 64.0728 41.7847 63.7264C41.4725 63.3778 41.3165 62.9141 41.3165 62.3353V62.2943ZM42.147 62.366C42.147 62.7466 42.2256 63.0451 42.3829 63.2616C42.5401 63.4757 42.7588 63.5828 43.0391 63.5828C43.3194 63.5828 43.537 63.4735 43.6919 63.2547C43.8492 63.036 43.9278 62.7158 43.9278 62.2943C43.9278 61.9206 43.8469 61.6243 43.6851 61.4056C43.5256 61.1868 43.308 61.0775 43.0323 61.0775C42.7611 61.0775 42.5458 61.1857 42.3863 61.4022C42.2268 61.6164 42.147 61.9377 42.147 62.366ZM46.2281 60.4793L46.252 60.9066C46.5254 60.5762 46.8843 60.411 47.3287 60.411C48.0988 60.411 48.4908 60.8519 48.5044 61.7337V64.1776H47.6739V61.7816C47.6739 61.5469 47.6226 61.3737 47.5201 61.262C47.4198 61.1481 47.2546 61.0911 47.0245 61.0911C46.6895 61.0911 46.44 61.2427 46.2759 61.5457V64.1776H45.4454V60.4793H46.2281ZM51.1773 64.1776V59.201H52.8829C53.4457 59.201 53.8741 59.3138 54.168 59.5394C54.462 59.765 54.6089 60.1011 54.6089 60.5477C54.6089 60.7756 54.5474 60.9806 54.4244 61.1629C54.3013 61.3452 54.1213 61.4865 53.8843 61.5868C54.1532 61.6597 54.3606 61.7975 54.5064 62.0003C54.6545 62.2008 54.7286 62.4424 54.7286 62.7249C54.7286 63.1921 54.5782 63.5509 54.2774 63.8016C53.9789 64.0522 53.5505 64.1776 52.9922 64.1776H51.1773ZM52.042 61.932V63.4871H53.0025C53.2737 63.4871 53.4856 63.4199 53.6382 63.2855C53.7909 63.151 53.8672 62.9642 53.8672 62.7249C53.8672 62.2077 53.6029 61.9434 53.0743 61.932H52.042ZM52.042 61.2962H52.8897C53.1586 61.2962 53.3682 61.2358 53.5186 61.1151C53.6713 60.992 53.7476 60.8188 53.7476 60.5955C53.7476 60.3494 53.677 60.1717 53.5357 60.0623C53.3967 59.953 53.1791 59.8983 52.8829 59.8983H52.042V61.2962ZM57.7227 64.1776C57.6863 64.1069 57.6544 63.9919 57.627 63.8324C57.3627 64.1081 57.0391 64.2459 56.6563 64.2459C56.2849 64.2459 55.9818 64.14 55.7471 63.9281C55.5124 63.7161 55.3951 63.4541 55.3951 63.1419C55.3951 62.7477 55.5409 62.4458 55.8326 62.2362C56.1265 62.0243 56.5458 61.9183 57.0904 61.9183H57.5997V61.6756C57.5997 61.4842 57.5461 61.3315 57.439 61.2176C57.3319 61.1014 57.169 61.0433 56.9502 61.0433C56.7611 61.0433 56.6062 61.0911 56.4854 61.1868C56.3646 61.2803 56.3043 61.3999 56.3043 61.5457H55.4737C55.4737 61.3429 55.5409 61.1538 55.6753 60.9784C55.8098 60.8006 55.9921 60.6616 56.2222 60.5614C56.4546 60.4611 56.7133 60.411 56.9981 60.411C57.431 60.411 57.7763 60.5203 58.0337 60.7391C58.2912 60.9556 58.4234 61.2609 58.4302 61.6551V63.3231C58.4302 63.6558 58.4769 63.9212 58.5704 64.1195V64.1776H57.7227ZM56.8101 63.5794C56.9742 63.5794 57.128 63.5395 57.2715 63.4598C57.4174 63.38 57.5267 63.2729 57.5997 63.1385V62.4412H57.1519C56.8443 62.4412 56.613 62.4948 56.4581 62.6019C56.3031 62.709 56.2256 62.8605 56.2256 63.0565C56.2256 63.216 56.278 63.3436 56.3829 63.4393C56.49 63.5327 56.6324 63.5794 56.8101 63.5794ZM61.3731 63.1727C61.3731 63.0246 61.3116 62.9118 61.1885 62.8343C61.0678 62.7568 60.8661 62.6885 60.5835 62.6292C60.301 62.57 60.0652 62.4948 59.876 62.4036C59.4613 62.2031 59.254 61.9126 59.254 61.5321C59.254 61.2131 59.3884 60.9465 59.6573 60.7323C59.9262 60.5181 60.268 60.411 60.6827 60.411C61.1247 60.411 61.4813 60.5203 61.7525 60.7391C62.0259 60.9578 62.1627 61.2415 62.1627 61.5902H61.3321C61.3321 61.4307 61.2728 61.2985 61.1544 61.1937C61.0359 61.0866 60.8786 61.033 60.6827 61.033C60.5004 61.033 60.3511 61.0752 60.2349 61.1595C60.121 61.2438 60.064 61.3566 60.064 61.4979C60.064 61.6255 60.1176 61.7246 60.2247 61.7952C60.3318 61.8659 60.5482 61.9377 60.8741 62.0106C61.1999 62.0812 61.4551 62.1667 61.6397 62.2669C61.8266 62.3649 61.9644 62.4834 62.0533 62.6224C62.1444 62.7614 62.19 62.93 62.19 63.1283C62.19 63.4609 62.0521 63.731 61.7764 63.9383C61.5007 64.1434 61.1395 64.2459 60.6929 64.2459C60.3899 64.2459 60.1198 64.1912 59.8829 64.0819C59.6459 63.9725 59.4613 63.8221 59.3292 63.6307C59.197 63.4393 59.1309 63.2331 59.1309 63.012H59.9376C59.9489 63.208 60.023 63.3595 60.1597 63.4666C60.2964 63.5715 60.4776 63.6239 60.7032 63.6239C60.9219 63.6239 61.0883 63.5828 61.2022 63.5008C61.3161 63.4165 61.3731 63.3071 61.3731 63.1727ZM63.7999 64.1776H62.9693V60.4793H63.7999V64.1776ZM62.918 59.5189C62.918 59.3913 62.9579 59.2853 63.0377 59.201C63.1197 59.1167 63.2359 59.0745 63.3863 59.0745C63.5367 59.0745 63.6529 59.1167 63.7349 59.201C63.8169 59.2853 63.858 59.3913 63.858 59.5189C63.858 59.6442 63.8169 59.749 63.7349 59.8333C63.6529 59.9154 63.5367 59.9564 63.3863 59.9564C63.2359 59.9564 63.1197 59.9154 63.0377 59.8333C62.9579 59.749 62.918 59.6442 62.918 59.5189ZM66.2266 63.5828C66.434 63.5828 66.606 63.5225 66.7427 63.4017C66.8794 63.2809 66.9524 63.1317 66.9615 62.9539H67.7442C67.7351 63.1841 67.6633 63.3994 67.5289 63.5999C67.3944 63.7982 67.2121 63.9554 66.982 64.0716C66.7518 64.1878 66.5035 64.2459 66.2369 64.2459C65.7196 64.2459 65.3095 64.0784 65.0064 63.7435C64.7033 63.4085 64.5518 62.946 64.5518 62.3558V62.2703C64.5518 61.7075 64.7022 61.2575 65.003 60.9202C65.3038 60.5807 65.7139 60.411 66.2335 60.411C66.6732 60.411 67.031 60.5397 67.3067 60.7972C67.5847 61.0524 67.7305 61.3885 67.7442 61.8055H66.9615C66.9524 61.5936 66.8794 61.4193 66.7427 61.2826C66.6083 61.1458 66.4363 61.0775 66.2266 61.0775C65.9577 61.0775 65.7504 61.1755 65.6045 61.3714C65.4587 61.5651 65.3847 61.8602 65.3824 62.2567V62.39C65.3824 62.791 65.4542 63.0907 65.5977 63.2889C65.7435 63.4849 65.9532 63.5828 66.2266 63.5828ZM70.4444 63.1727C70.4444 63.0246 70.3829 62.9118 70.2598 62.8343C70.1391 62.7568 69.9374 62.6885 69.6548 62.6292C69.3723 62.57 69.1364 62.4948 68.9473 62.4036C68.5326 62.2031 68.3252 61.9126 68.3252 61.5321C68.3252 61.2131 68.4597 60.9465 68.7286 60.7323C68.9974 60.5181 69.3392 60.411 69.754 60.411C70.196 60.411 70.5526 60.5203 70.8238 60.7391C71.0972 60.9578 71.2339 61.2415 71.2339 61.5902H70.4034C70.4034 61.4307 70.3441 61.2985 70.2256 61.1937C70.1071 61.0866 69.9499 61.033 69.754 61.033C69.5717 61.033 69.4224 61.0752 69.3062 61.1595C69.1923 61.2438 69.1353 61.3566 69.1353 61.4979C69.1353 61.6255 69.1889 61.7246 69.296 61.7952C69.403 61.8659 69.6195 61.9377 69.9454 62.0106C70.2712 62.0812 70.5264 62.1667 70.711 62.2669C70.8978 62.3649 71.0357 62.4834 71.1246 62.6224C71.2157 62.7614 71.2613 62.93 71.2613 63.1283C71.2613 63.4609 71.1234 63.731 70.8477 63.9383C70.572 64.1434 70.2108 64.2459 69.7642 64.2459C69.4612 64.2459 69.1911 64.1912 68.9542 64.0819C68.7172 63.9725 68.5326 63.8221 68.4004 63.6307C68.2683 63.4393 68.2022 63.2331 68.2022 63.012H69.0088C69.0202 63.208 69.0943 63.3595 69.231 63.4666C69.3677 63.5715 69.5489 63.6239 69.7745 63.6239C69.9932 63.6239 70.1596 63.5828 70.2735 63.5008C70.3874 63.4165 70.4444 63.3071 70.4444 63.1727Z" fill="#0B406C"/>
<path d="M35.5385 74.1182C35.4884 74.6491 35.2924 75.0638 34.9506 75.3623C34.6088 75.6586 34.1542 75.8067 33.5869 75.8067C33.1904 75.8067 32.8406 75.7133 32.5375 75.5264C32.2368 75.3373 32.0043 75.0695 31.8403 74.7232C31.6762 74.3768 31.5908 73.9746 31.5839 73.5166V73.0518C31.5839 72.5824 31.6671 72.1688 31.8334 71.8111C31.9998 71.4533 32.2379 71.1776 32.5478 70.9839C32.86 70.7902 33.22 70.6934 33.6279 70.6934C34.177 70.6934 34.6191 70.8426 34.954 71.1412C35.289 71.4397 35.4838 71.8612 35.5385 72.4058H34.6772C34.6362 72.0481 34.5314 71.7906 34.3627 71.6333C34.1964 71.4738 33.9514 71.3941 33.6279 71.3941C33.2519 71.3941 32.9625 71.5319 32.7597 71.8077C32.5592 72.0811 32.4566 72.4833 32.4521 73.0142V73.4551C32.4521 73.9929 32.5478 74.403 32.7392 74.6856C32.9329 74.9681 33.2154 75.1094 33.5869 75.1094C33.9264 75.1094 34.1816 75.0331 34.3525 74.8804C34.5234 74.7277 34.6316 74.4737 34.6772 74.1182H35.5385ZM37.1176 75.7383H36.287V70.4883H37.1176V75.7383ZM38.9086 75.7383H38.0781V72.0401H38.9086V75.7383ZM38.0268 71.0796C38.0268 70.952 38.0667 70.8461 38.1464 70.7618C38.2285 70.6774 38.3447 70.6353 38.4951 70.6353C38.6454 70.6353 38.7617 70.6774 38.8437 70.7618C38.9257 70.8461 38.9667 70.952 38.9667 71.0796C38.9667 71.205 38.9257 71.3098 38.8437 71.3941C38.7617 71.4761 38.6454 71.5171 38.4951 71.5171C38.3447 71.5171 38.2285 71.4761 38.1464 71.3941C38.0667 71.3098 38.0268 71.205 38.0268 71.0796ZM41.3354 75.1436C41.5427 75.1436 41.7148 75.0832 41.8515 74.9624C41.9882 74.8417 42.0611 74.6924 42.0703 74.5147H42.853C42.8439 74.7448 42.7721 74.9602 42.6376 75.1607C42.5032 75.3589 42.3209 75.5162 42.0908 75.6324C41.8606 75.7486 41.6122 75.8067 41.3456 75.8067C40.8284 75.8067 40.4182 75.6392 40.1152 75.3042C39.8121 74.9693 39.6606 74.5067 39.6606 73.9165V73.8311C39.6606 73.2683 39.811 72.8182 40.1118 72.481C40.4125 72.1415 40.8227 71.9717 41.3422 71.9717C41.782 71.9717 42.1398 72.1005 42.4155 72.3579C42.6935 72.6132 42.8393 72.9493 42.853 73.3662H42.0703C42.0611 73.1543 41.9882 72.98 41.8515 72.8433C41.7171 72.7066 41.545 72.6382 41.3354 72.6382C41.0665 72.6382 40.8592 72.7362 40.7133 72.9322C40.5675 73.1259 40.4934 73.4209 40.4911 73.8174V73.9507C40.4911 74.3518 40.5629 74.6514 40.7065 74.8496C40.8523 75.0456 41.062 75.1436 41.3354 75.1436ZM44.6816 74.1524L44.3124 74.5318V75.7383H43.4819V70.4883H44.3124V73.5166L44.5722 73.1919L45.5942 72.0401H46.5922L45.2182 73.5816L46.7392 75.7383H45.7787L44.6816 74.1524ZM49.6992 72.4434C49.9703 72.1289 50.3133 71.9717 50.728 71.9717C51.5164 71.9717 51.9163 72.4218 51.9277 73.3218V75.7383H51.0971V73.3526C51.0971 73.0974 51.0413 72.9174 50.9296 72.8125C50.8203 72.7054 50.6585 72.6519 50.4443 72.6519C50.1116 72.6519 49.8632 72.8 49.6992 73.0962V75.7383H48.8686V70.4883H49.6992V72.4434ZM54.3989 75.8067C53.8725 75.8067 53.4453 75.6415 53.1171 75.3111C52.7913 74.9784 52.6284 74.5363 52.6284 73.9849V73.8824C52.6284 73.5132 52.699 73.184 52.8403 72.8946C52.9838 72.6029 53.1843 72.3762 53.4418 72.2144C53.6993 72.0526 53.9864 71.9717 54.3032 71.9717C54.8067 71.9717 55.1953 72.1324 55.4687 72.4537C55.7444 72.7749 55.8823 73.2295 55.8823 73.8174V74.1524H53.4658C53.4908 74.4577 53.5922 74.6993 53.77 74.877C53.95 75.0547 54.1756 75.1436 54.4467 75.1436C54.8273 75.1436 55.1371 74.9898 55.3764 74.6822L55.8242 75.1094C55.676 75.3304 55.4778 75.5025 55.2294 75.6255C54.9833 75.7463 54.7065 75.8067 54.3989 75.8067ZM54.2997 72.6382C54.0719 72.6382 53.8873 72.718 53.746 72.8775C53.607 73.037 53.5182 73.2592 53.4794 73.544H55.062V73.4825C55.0437 73.2045 54.9697 72.9948 54.8398 72.8536C54.7099 72.71 54.5299 72.6382 54.2997 72.6382ZM58.4662 72.7989C58.3569 72.7806 58.2441 72.7715 58.1279 72.7715C57.7473 72.7715 57.491 72.9174 57.3588 73.209V75.7383H56.5283V72.0401H57.3212L57.3417 72.4537C57.5423 72.1324 57.8203 71.9717 58.1757 71.9717C58.2942 71.9717 58.3922 71.9877 58.4697 72.0196L58.4662 72.7989ZM60.5512 75.8067C60.0248 75.8067 59.5976 75.6415 59.2695 75.3111C58.9436 74.9784 58.7807 74.5363 58.7807 73.9849V73.8824C58.7807 73.5132 58.8513 73.184 58.9926 72.8946C59.1362 72.6029 59.3367 72.3762 59.5942 72.2144C59.8517 72.0526 60.1388 71.9717 60.4555 71.9717C60.9591 71.9717 61.3476 72.1324 61.621 72.4537C61.8967 72.7749 62.0346 73.2295 62.0346 73.8174V74.1524H59.6181C59.6432 74.4577 59.7446 74.6993 59.9223 74.877C60.1023 75.0547 60.3279 75.1436 60.5991 75.1436C60.9796 75.1436 61.2895 74.9898 61.5287 74.6822L61.9765 75.1094C61.8284 75.3304 61.6301 75.5025 61.3818 75.6255C61.1357 75.7463 60.8588 75.8067 60.5512 75.8067ZM60.4521 72.6382C60.2242 72.6382 60.0397 72.718 59.8984 72.8775C59.7594 73.037 59.6705 73.2592 59.6318 73.544H61.2143V73.4825C61.1961 73.2045 61.122 72.9948 60.9921 72.8536C60.8622 72.71 60.6822 72.6382 60.4521 72.6382Z" fill="#BFFBDE"/>
<defs>
<filter id="filter0_d" x="0" y="0" width="100" height="99" filterUnits="userSpaceOnUse" color-interpolation-filters="sRGB">
<feFlood flood-opacity="0" result="BackgroundImageFix"/>
<feColorMatrix in="SourceAlpha" type="matrix" values="0 0 0 0 0 0 0 0 0 0 0 0 0 0 0 0 0 0 127 0" result="hardAlpha"/>
<feOffset dy="4"/>
<feGaussianBlur stdDeviation="2"/>
<feColorMatrix type="matrix" values="0 0 0 0 0 0 0 0 0 0 0 0 0 0 0 0 0 0 0.25 0"/>
<feBlend mode="normal" in2="BackgroundImageFix" result="effect1_dropShadow"/>
<feBlend mode="normal" in="SourceGraphic" in2="effect1_dropShadow" result="shape"/>
</filter>
<linearGradient id="paint0_linear" x1="35.4547" y1="7.27238" x2="52.0066" y2="25.9573" gradientUnits="userSpaceOnUse">
<stop stop-color="#387EB8"/>
<stop offset="1" stop-color="#366994"/>
</linearGradient>
<linearGradient id="paint1_linear" x1="47.1235" y1="17.8716" x2="65.0062" y2="37.1476" gradientUnits="userSpaceOnUse">
<stop stop-color="#FFE052"/>
<stop offset="1" stop-color="#FFC331"/>
</linearGradient>
<clipPath id="clip0">
<rect width="38.455" height="33.5935" fill="white" transform="translate(31.746 4.25233)"/>
</clipPath>
</defs>
</svg>
