<svg width="138" height="156" viewBox="0 0 138 156" fill="none" xmlns="http://www.w3.org/2000/svg">
<g filter="url(#filter0_d)">
<g filter="url(#filter1_d)">
<rect x="4" width="130" height="148" rx="39" fill="#405C50"/>
</g>
<g clip-path="url(#clip0)">
<path d="M70.1459 6.93155C56.3846 6.93155 57.2439 12.9554 57.2439 12.9554L57.2593 19.1961H70.3914V21.0698H52.0433C52.0433 21.0698 43.2374 20.0618 43.2374 34.0777C43.2374 48.0936 50.9234 47.5966 50.9234 47.5966H55.5104V41.0926C55.5104 41.0926 55.2631 33.3344 63.0736 33.3344H76.0983C76.0983 33.3344 83.4161 33.4538 83.4161 26.1956V14.1943C83.4161 14.1943 84.5271 6.93155 70.1459 6.93155ZM62.9049 11.1281C64.2114 11.1281 65.2674 12.1941 65.2674 13.5129C65.2674 14.8317 64.2114 15.8977 62.9049 15.8977C61.5983 15.8977 60.5423 14.8317 60.5423 13.5129C60.5423 12.1941 61.5983 11.1281 62.9049 11.1281Z" fill="url(#paint0_linear)"/>
<path d="M70.5364 61.3642C84.2977 61.3642 83.4383 55.3403 83.4383 55.3403L83.423 49.0996H70.2909V47.2259H88.639C88.639 47.2259 97.4449 48.2339 97.4449 34.218C97.4449 20.2021 89.7589 20.6992 89.7589 20.6992H85.1719V27.2031C85.1719 27.2031 85.4191 34.9613 77.6087 34.9613H64.584C64.584 34.9613 57.2662 34.8419 57.2662 42.1002V54.1015C57.2662 54.1015 56.1552 61.3642 70.5364 61.3642ZM77.7774 57.1676C76.4709 57.1676 75.4149 56.1017 75.4149 54.7828C75.4149 53.464 76.4709 52.3981 77.7774 52.3981C79.084 52.3981 80.14 53.464 80.14 54.7828C80.14 56.1017 79.084 57.1676 77.7774 57.1676Z" fill="url(#paint1_linear)"/>
</g>
<rect x="14.3175" y="69.1589" width="110.053" height="64.3178" rx="16" fill="#8AD4B5"/>
<path d="M22.5978 78.657V83.408C22.5978 84.1632 22.3553 84.7621 21.8702 85.2048C21.3885 85.6443 20.7455 85.864 19.9415 85.864C19.1277 85.864 18.4816 85.6475 18.003 85.2146C17.5245 84.7784 17.2853 84.1746 17.2853 83.4031V78.657H18.5157V83.4128C18.5157 83.8881 18.6362 84.2511 18.8771 84.5017C19.1179 84.7524 19.4728 84.8777 19.9415 84.8777C20.892 84.8777 21.3673 84.3764 21.3673 83.3738V78.657H22.5978ZM24.9073 80.4832L24.9415 81.0935C25.3321 80.6215 25.8448 80.3855 26.4796 80.3855C27.5799 80.3855 28.1398 81.0154 28.1593 82.2751V85.7664H26.9728V82.3435C26.9728 82.0082 26.8995 81.7608 26.753 81.6013C26.6098 81.4386 26.3738 81.3572 26.045 81.3572C25.5665 81.3572 25.2101 81.5736 24.9757 82.0066V85.7664H23.7892V80.4832H24.9073ZM30.6349 85.7664H29.4483V80.4832H30.6349V85.7664ZM29.3751 79.1111C29.3751 78.9288 29.4321 78.7774 29.546 78.657C29.6632 78.5365 29.8292 78.4763 30.0441 78.4763C30.2589 78.4763 30.4249 78.5365 30.5421 78.657C30.6593 78.7774 30.7179 78.9288 30.7179 79.1111C30.7179 79.2901 30.6593 79.4399 30.5421 79.5603C30.4249 79.6775 30.2589 79.7361 30.0441 79.7361C29.8292 79.7361 29.6632 79.6775 29.546 79.5603C29.4321 79.4399 29.3751 79.2901 29.3751 79.1111ZM33.7941 84.2625L34.9122 80.4832H36.1378L34.3067 85.7664H33.2765L31.4308 80.4832H32.6612L33.7941 84.2625ZM39.1407 85.864C38.3888 85.864 37.7784 85.628 37.3097 85.156C36.8442 84.6807 36.6114 84.0492 36.6114 83.2615V83.115C36.6114 82.5876 36.7123 82.1173 36.9142 81.7039C37.1192 81.2872 37.4057 80.9633 37.7735 80.7322C38.1414 80.5011 38.5515 80.3855 39.004 80.3855C39.7234 80.3855 40.2784 80.615 40.6691 81.074C41.0629 81.533 41.2599 82.1824 41.2599 83.0222V83.5007H37.8077C37.8435 83.9369 37.9884 84.282 38.2423 84.5359C38.4995 84.7898 38.8217 84.9167 39.2091 84.9167C39.7527 84.9167 40.1954 84.697 40.5372 84.2576L41.1769 84.8679C40.9653 85.1837 40.6821 85.4294 40.3273 85.6052C39.9757 85.7778 39.5802 85.864 39.1407 85.864ZM38.9991 81.3376C38.6736 81.3376 38.4099 81.4516 38.2081 81.6794C38.0095 81.9073 37.8826 82.2247 37.8273 82.6316H40.088V82.5437C40.062 82.1466 39.9562 81.8471 39.7706 81.6453C39.5851 81.4402 39.3279 81.3376 38.9991 81.3376ZM44.9513 81.5671C44.795 81.5411 44.6339 81.5281 44.4679 81.5281C43.9243 81.5281 43.558 81.7364 43.3692 82.1531V85.7664H42.1827V80.4832H43.3155L43.3448 81.074C43.6313 80.615 44.0284 80.3855 44.5362 80.3855C44.7055 80.3855 44.8455 80.4083 44.9562 80.4539L44.9513 81.5671ZM48.6622 84.3308C48.6622 84.1192 48.5743 83.9581 48.3985 83.8474C48.226 83.7367 47.9379 83.6391 47.5343 83.5544C47.1306 83.4698 46.7937 83.3624 46.5235 83.2322C45.9311 82.9457 45.6349 82.5307 45.6349 81.9871C45.6349 81.5313 45.8269 81.1505 46.211 80.8445C46.5952 80.5385 47.0834 80.3855 47.6759 80.3855C48.3074 80.3855 48.8168 80.5417 49.2042 80.8542C49.5948 81.1667 49.7901 81.572 49.7901 82.0701H48.6036C48.6036 81.8422 48.519 81.6534 48.3497 81.5037C48.1804 81.3507 47.9558 81.2742 47.6759 81.2742C47.4155 81.2742 47.2023 81.3344 47.0362 81.4548C46.8735 81.5753 46.7921 81.7364 46.7921 81.9382C46.7921 82.1205 46.8686 82.2621 47.0216 82.363C47.1746 82.4639 47.4838 82.5665 47.9493 82.6707C48.4148 82.7716 48.7794 82.8936 49.0431 83.0369C49.31 83.1768 49.5069 83.3461 49.6339 83.5447C49.7641 83.7432 49.8292 83.9841 49.8292 84.2673C49.8292 84.7426 49.6323 85.1283 49.2384 85.4246C48.8445 85.7175 48.3286 85.864 47.6905 85.864C47.2576 85.864 46.8719 85.7859 46.5333 85.6296C46.1948 85.4734 45.9311 85.2585 45.7423 84.9851C45.5535 84.7117 45.4591 84.4171 45.4591 84.1013H46.6114C46.6277 84.3813 46.7335 84.5977 46.9288 84.7507C47.1241 84.9005 47.3829 84.9753 47.7052 84.9753C48.0177 84.9753 48.2553 84.9167 48.4181 84.7996C48.5808 84.6791 48.6622 84.5229 48.6622 84.3308ZM52.129 85.7664H50.9425V80.4832H52.129V85.7664ZM50.8692 79.1111C50.8692 78.9288 50.9262 78.7774 51.0401 78.657C51.1573 78.5365 51.3233 78.4763 51.5382 78.4763C51.753 78.4763 51.9191 78.5365 52.0362 78.657C52.1534 78.7774 52.212 78.9288 52.212 79.1111C52.212 79.2901 52.1534 79.4399 52.0362 79.5603C51.9191 79.6775 51.753 79.7361 51.5382 79.7361C51.3233 79.7361 51.1573 79.6775 51.0401 79.5603C50.9262 79.4399 50.8692 79.2901 50.8692 79.1111ZM54.9122 79.199V80.4832H55.8448V81.3621H54.9122V84.3113C54.9122 84.5131 54.9513 84.6596 55.0294 84.7507C55.1108 84.8386 55.254 84.8826 55.4591 84.8826C55.5958 84.8826 55.7342 84.8663 55.8741 84.8337V85.7517C55.6039 85.8266 55.3435 85.864 55.0929 85.864C54.1814 85.864 53.7257 85.3611 53.7257 84.3552V81.3621H52.8566V80.4832H53.7257V79.199H54.9122ZM58.6036 84.0671L59.6778 80.4832H60.9425L58.8429 86.5671C58.5206 87.4558 57.9737 87.9001 57.2023 87.9001C57.0297 87.9001 56.8393 87.8708 56.631 87.8123V86.8943L56.8556 86.9089C57.1551 86.9089 57.3797 86.8536 57.5294 86.7429C57.6824 86.6355 57.8028 86.4532 57.8907 86.196L58.0616 85.7419L56.2062 80.4832H57.4855L58.6036 84.0671ZM63.8966 83.0759C63.8966 82.5583 63.9991 82.0929 64.2042 81.6794C64.4093 81.2628 64.6974 80.9438 65.0685 80.7224C65.4396 80.4978 65.866 80.3855 66.3478 80.3855C67.0607 80.3855 67.6385 80.615 68.0812 81.074C68.5271 81.533 68.768 82.1417 68.8038 82.9001L68.8087 83.1785C68.8087 83.6993 68.7078 84.1648 68.506 84.575C68.3074 84.9851 68.0209 85.3025 67.6466 85.5271C67.2755 85.7517 66.8458 85.864 66.3575 85.864C65.6121 85.864 65.0148 85.6166 64.5655 85.1218C64.1196 84.6238 63.8966 83.9613 63.8966 83.1345V83.0759ZM65.0831 83.1785C65.0831 83.7221 65.1954 84.1485 65.42 84.4578C65.6446 84.7638 65.9571 84.9167 66.3575 84.9167C66.7579 84.9167 67.0688 84.7605 67.2901 84.448C67.5148 84.1355 67.6271 83.6781 67.6271 83.0759C67.6271 82.5421 67.5115 82.1189 67.2804 81.8064C67.0525 81.4939 66.7416 81.3376 66.3478 81.3376C65.9604 81.3376 65.6528 81.4923 65.4249 81.8015C65.197 82.1075 65.0831 82.5665 65.0831 83.1785ZM70.2296 85.7664V81.3621H69.4239V80.4832H70.2296V79.9998C70.2296 79.4138 70.3924 78.9613 70.7179 78.6423C71.0434 78.3233 71.4991 78.1638 72.0851 78.1638C72.2934 78.1638 72.5148 78.1931 72.7491 78.2517L72.7198 79.1794C72.5896 79.1534 72.4383 79.1404 72.2657 79.1404C71.6993 79.1404 71.4161 79.4317 71.4161 80.0144V80.4832H72.4903V81.3621H71.4161V85.7664H70.2296ZM77.5636 78.657L79.6144 84.1062L81.6603 78.657H83.2569V85.7664H82.0265V83.4226L82.1485 80.2878L80.0489 85.7664H79.1651L77.0704 80.2927L77.1925 83.4226V85.7664H75.962V78.657H77.5636ZM85.8692 85.7664H84.6827V80.4832H85.8692V85.7664ZM84.6095 79.1111C84.6095 78.9288 84.6664 78.7774 84.7804 78.657C84.8976 78.5365 85.0636 78.4763 85.2784 78.4763C85.4933 78.4763 85.6593 78.5365 85.7765 78.657C85.8937 78.7774 85.9523 78.9288 85.9523 79.1111C85.9523 79.2901 85.8937 79.4399 85.7765 79.5603C85.6593 79.6775 85.4933 79.7361 85.2784 79.7361C85.0636 79.7361 84.8976 79.6775 84.7804 79.5603C84.6664 79.4399 84.6095 79.2901 84.6095 79.1111ZM89.336 84.9167C89.6323 84.9167 89.878 84.8305 90.0733 84.658C90.2687 84.4854 90.3728 84.2722 90.3858 84.0183H91.504C91.491 84.3471 91.3885 84.6547 91.1964 84.9412C91.0043 85.2244 90.7439 85.449 90.4151 85.615C90.0864 85.781 89.7316 85.864 89.3507 85.864C88.6118 85.864 88.0258 85.6248 87.5929 85.1462C87.1599 84.6677 86.9435 84.0069 86.9435 83.1638V83.0417C86.9435 82.2377 87.1583 81.5948 87.588 81.113C88.0177 80.628 88.6036 80.3855 89.3458 80.3855C89.9741 80.3855 90.4851 80.5694 90.879 80.9373C91.2761 81.3018 91.4845 81.782 91.504 82.3777H90.3858C90.3728 82.075 90.2687 81.8259 90.0733 81.6306C89.8813 81.4353 89.6355 81.3376 89.336 81.3376C88.9519 81.3376 88.6557 81.4776 88.4474 81.7576C88.239 82.0343 88.1332 82.4558 88.13 83.0222V83.2126C88.13 83.7856 88.2325 84.2136 88.4376 84.4968C88.6459 84.7768 88.9454 84.9167 89.336 84.9167ZM93.5694 81.0593C93.9568 80.6101 94.4467 80.3855 95.0392 80.3855C96.1655 80.3855 96.7368 81.0284 96.753 82.3142V85.7664H95.5665V82.3582C95.5665 81.9936 95.4868 81.7364 95.3273 81.5867C95.171 81.4337 94.9399 81.3572 94.6339 81.3572C94.1586 81.3572 93.8038 81.5688 93.5694 81.9919V85.7664H92.3829V78.2664H93.5694V81.0593ZM99.2189 85.7664H98.0323V80.4832H99.2189V85.7664ZM97.9591 79.1111C97.9591 78.9288 98.0161 78.7774 98.13 78.657C98.2472 78.5365 98.4132 78.4763 98.628 78.4763C98.8429 78.4763 99.0089 78.5365 99.1261 78.657C99.2433 78.7774 99.3019 78.9288 99.3019 79.1111C99.3019 79.2901 99.2433 79.4399 99.1261 79.5603C99.0089 79.6775 98.8429 79.7361 98.628 79.7361C98.4132 79.7361 98.2472 79.6775 98.13 79.5603C98.0161 79.4399 97.9591 79.2901 97.9591 79.1111ZM100.308 83.0857C100.308 82.2654 100.5 81.6111 100.884 81.1228C101.271 80.6313 101.784 80.3855 102.422 80.3855C103.024 80.3855 103.498 80.5955 103.843 81.0154L103.897 80.4832H104.966V85.6052C104.966 86.2986 104.749 86.8455 104.317 87.2458C103.887 87.6462 103.306 87.8464 102.573 87.8464C102.186 87.8464 101.807 87.7651 101.436 87.6023C101.068 87.4428 100.788 87.2328 100.596 86.9724L101.157 86.2595C101.522 86.6925 101.971 86.9089 102.505 86.9089C102.899 86.9089 103.21 86.8015 103.438 86.5867C103.665 86.3751 103.779 86.0626 103.779 85.6492V85.2927C103.438 85.6736 102.982 85.864 102.412 85.864C101.794 85.864 101.288 85.6182 100.894 85.1267C100.503 84.6352 100.308 83.9548 100.308 83.0857ZM101.489 83.1882C101.489 83.7188 101.597 84.1371 101.812 84.4431C102.03 84.7458 102.331 84.8972 102.715 84.8972C103.193 84.8972 103.548 84.6921 103.779 84.282V81.9578C103.555 81.5574 103.203 81.3572 102.725 81.3572C102.334 81.3572 102.03 81.5118 101.812 81.821C101.597 82.1303 101.489 82.586 101.489 83.1882ZM109.346 85.7664C109.294 85.6654 109.248 85.5011 109.209 85.2732C108.831 85.6671 108.369 85.864 107.822 85.864C107.292 85.864 106.859 85.7126 106.524 85.4099C106.188 85.1072 106.021 84.7328 106.021 84.2869C106.021 83.7237 106.229 83.2924 106.646 82.9929C107.066 82.6902 107.664 82.5388 108.442 82.5388H109.17V82.1921C109.17 81.9187 109.094 81.7006 108.941 81.5378C108.788 81.3718 108.555 81.2888 108.242 81.2888C107.972 81.2888 107.751 81.3572 107.578 81.4939C107.406 81.6274 107.319 81.7983 107.319 82.0066H106.133C106.133 81.7169 106.229 81.4467 106.421 81.196C106.613 80.9421 106.873 80.7436 107.202 80.6003C107.534 80.4571 107.904 80.3855 108.311 80.3855C108.929 80.3855 109.422 80.5417 109.79 80.8542C110.158 81.1635 110.347 81.5997 110.357 82.1628V84.5457C110.357 85.0209 110.423 85.4001 110.557 85.6833V85.7664H109.346ZM108.042 84.9119C108.276 84.9119 108.496 84.8549 108.701 84.741C108.91 84.627 109.066 84.474 109.17 84.282V83.2859H108.53C108.091 83.2859 107.761 83.3624 107.539 83.5154C107.318 83.6684 107.207 83.8848 107.207 84.1648C107.207 84.3927 107.282 84.575 107.432 84.7117C107.585 84.8451 107.788 84.9119 108.042 84.9119ZM112.7 80.4832L112.734 81.0935C113.125 80.6215 113.638 80.3855 114.273 80.3855C115.373 80.3855 115.933 81.0154 115.952 82.2751V85.7664H114.766V82.3435C114.766 82.0082 114.692 81.7608 114.546 81.6013C114.403 81.4386 114.167 81.3572 113.838 81.3572C113.359 81.3572 113.003 81.5736 112.769 82.0066V85.7664H111.582V80.4832H112.7ZM117.881 84.5164C118.102 84.5164 118.273 84.5798 118.394 84.7068C118.514 84.8305 118.574 84.9867 118.574 85.1755C118.574 85.3611 118.514 85.5157 118.394 85.6394C118.273 85.7598 118.102 85.8201 117.881 85.8201C117.669 85.8201 117.502 85.7598 117.378 85.6394C117.254 85.519 117.192 85.3643 117.192 85.1755C117.192 84.9867 117.253 84.8305 117.373 84.7068C117.494 84.5798 117.663 84.5164 117.881 84.5164ZM117.881 80.3708C118.102 80.3708 118.273 80.4343 118.394 80.5613C118.514 80.685 118.574 80.8412 118.574 81.03C118.574 81.2156 118.514 81.3702 118.394 81.4939C118.273 81.6143 118.102 81.6746 117.881 81.6746C117.669 81.6746 117.502 81.6143 117.378 81.4939C117.254 81.3735 117.192 81.2188 117.192 81.03C117.192 80.8412 117.253 80.685 117.373 80.5613C117.494 80.4343 117.663 80.3708 117.881 80.3708ZM20.8009 95.1248V97.7664H19.5655V90.657H22.2853C23.0795 90.657 23.7094 90.8637 24.1749 91.2771C24.6437 91.6905 24.878 92.2374 24.878 92.9177C24.878 93.6143 24.6485 94.1563 24.1896 94.5437C23.7338 94.9311 23.0942 95.1248 22.2706 95.1248H20.8009ZM20.8009 94.1335H22.2853C22.7247 94.1335 23.06 94.031 23.2911 93.8259C23.5222 93.6176 23.6378 93.3181 23.6378 92.9275C23.6378 92.5434 23.5206 92.2374 23.2862 92.0095C23.0519 91.7784 22.7296 91.6596 22.3194 91.6531H20.8009V94.1335ZM27.7735 96.0671L28.8478 92.4832H30.1124L28.0128 98.5671C27.6905 99.4558 27.1437 99.9001 26.3722 99.9001C26.1997 99.9001 26.0092 99.8708 25.8009 99.8123V98.8943L26.0255 98.9089C26.325 98.9089 26.5496 98.8536 26.6993 98.7429C26.8523 98.6355 26.9728 98.4532 27.0607 98.196L27.2316 97.7419L25.3761 92.4832H26.6554L27.7735 96.0671ZM32.2853 91.199V92.4832H33.2179V93.3621H32.2853V96.3113C32.2853 96.5131 32.3243 96.6596 32.4025 96.7507C32.4838 96.8386 32.6271 96.8826 32.8321 96.8826C32.9689 96.8826 33.1072 96.8663 33.2472 96.8337V97.7517C32.977 97.8266 32.7166 97.864 32.4659 97.864C31.5545 97.864 31.0987 97.3611 31.0987 96.3552V93.3621H30.2296V92.4832H31.0987V91.199H32.2853ZM35.298 93.0593C35.6853 92.6101 36.1752 92.3855 36.7677 92.3855C37.894 92.3855 38.4653 93.0284 38.4816 94.3142V97.7664H37.295V94.3582C37.295 93.9936 37.2153 93.7364 37.0558 93.5867C36.8995 93.4337 36.6684 93.3572 36.3624 93.3572C35.8872 93.3572 35.5323 93.5688 35.298 93.9919V97.7664H34.1114V90.2664H35.298V93.0593ZM39.463 95.0759C39.463 94.5583 39.5655 94.0929 39.7706 93.6794C39.9757 93.2628 40.2638 92.9438 40.6349 92.7224C41.006 92.4978 41.4324 92.3855 41.9142 92.3855C42.6271 92.3855 43.2049 92.615 43.6476 93.074C44.0935 93.533 44.3344 94.1417 44.3702 94.9001L44.3751 95.1785C44.3751 95.6993 44.2742 96.1648 44.0724 96.575C43.8738 96.9851 43.5873 97.3025 43.213 97.5271C42.8419 97.7517 42.4122 97.864 41.9239 97.864C41.1785 97.864 40.5812 97.6166 40.1319 97.1218C39.686 96.6238 39.463 95.9613 39.463 95.1345V95.0759ZM40.6495 95.1785C40.6495 95.7221 40.7618 96.1485 40.9864 96.4578C41.211 96.7638 41.5235 96.9167 41.9239 96.9167C42.3243 96.9167 42.6352 96.7605 42.8566 96.448C43.0812 96.1355 43.1935 95.6781 43.1935 95.0759C43.1935 94.5421 43.0779 94.1189 42.8468 93.8064C42.6189 93.4939 42.308 93.3376 41.9142 93.3376C41.5268 93.3376 41.2192 93.4923 40.9913 93.8015C40.7635 94.1075 40.6495 94.5665 40.6495 95.1785ZM46.4796 92.4832L46.5138 93.0935C46.9044 92.6215 47.4171 92.3855 48.0519 92.3855C49.1521 92.3855 49.712 93.0154 49.7316 94.2751V97.7664H48.545V94.3435C48.545 94.0082 48.4718 93.7608 48.3253 93.6013C48.1821 93.4386 47.9461 93.3572 47.6173 93.3572C47.1388 93.3572 46.7823 93.5736 46.548 94.0066V97.7664H45.3614V92.4832H46.4796ZM54.7853 95.1248V97.7664H53.5499V90.657H56.2696C57.0639 90.657 57.6938 90.8637 58.1593 91.2771C58.628 91.6905 58.8624 92.2374 58.8624 92.9177C58.8624 93.6143 58.6329 94.1563 58.1739 94.5437C57.7182 94.9311 57.0786 95.1248 56.255 95.1248H54.7853ZM54.7853 94.1335H56.2696C56.7091 94.1335 57.0444 94.031 57.2755 93.8259C57.5066 93.6176 57.6222 93.3181 57.6222 92.9275C57.6222 92.5434 57.505 92.2374 57.2706 92.0095C57.0362 91.7784 56.714 91.6596 56.3038 91.6531H54.7853V94.1335ZM62.5978 93.5671C62.4415 93.5411 62.2804 93.5281 62.1144 93.5281C61.5707 93.5281 61.2045 93.7364 61.0157 94.1531V97.7664H59.8292V92.4832H60.962L60.9913 93.074C61.2778 92.615 61.6749 92.3855 62.1827 92.3855C62.352 92.3855 62.492 92.4083 62.6026 92.4539L62.5978 93.5671ZM62.9493 95.0759C62.9493 94.5583 63.0519 94.0929 63.2569 93.6794C63.462 93.2628 63.7501 92.9438 64.1212 92.7224C64.4923 92.4978 64.9187 92.3855 65.4005 92.3855C66.1134 92.3855 66.6912 92.615 67.1339 93.074C67.5799 93.533 67.8207 94.1417 67.8566 94.9001L67.8614 95.1785C67.8614 95.6993 67.7605 96.1648 67.5587 96.575C67.3601 96.9851 67.0737 97.3025 66.6993 97.5271C66.3282 97.7517 65.8985 97.864 65.4103 97.864C64.6648 97.864 64.0675 97.6166 63.6183 97.1218C63.1723 96.6238 62.9493 95.9613 62.9493 95.1345V95.0759ZM64.1358 95.1785C64.1358 95.7221 64.2482 96.1485 64.4728 96.4578C64.6974 96.7638 65.0099 96.9167 65.4103 96.9167C65.8107 96.9167 66.1215 96.7605 66.3429 96.448C66.5675 96.1355 66.6798 95.6781 66.6798 95.0759C66.6798 94.5421 66.5642 94.1189 66.3331 93.8064C66.1053 93.4939 65.7944 93.3376 65.4005 93.3376C65.0131 93.3376 64.7055 93.4923 64.4776 93.8015C64.2498 94.1075 64.1358 94.5665 64.1358 95.1785ZM70.1026 92.4832V98.2351C70.1026 98.7755 69.9676 99.1873 69.6974 99.4705C69.4304 99.7569 69.0382 99.9001 68.5206 99.9001C68.3025 99.9001 68.0926 99.8725 67.8907 99.8171V98.8796C68.0144 98.9089 68.1544 98.9236 68.3107 98.9236C68.7045 98.9236 68.9064 98.7087 68.9161 98.2791V92.4832H70.1026ZM68.8136 91.1111C68.8136 90.9288 68.8705 90.7774 68.9845 90.657C69.1017 90.5365 69.2677 90.4763 69.4825 90.4763C69.6974 90.4763 69.8634 90.5365 69.9806 90.657C70.0978 90.7774 70.1564 90.9288 70.1564 91.1111C70.1564 91.2901 70.0978 91.4399 69.9806 91.5603C69.8634 91.6775 69.6974 91.7361 69.4825 91.7361C69.2677 91.7361 69.1017 91.6775 68.9845 91.5603C68.8705 91.4399 68.8136 91.2901 68.8136 91.1111ZM73.7013 97.864C72.9493 97.864 72.339 97.628 71.8702 97.156C71.4047 96.6807 71.172 96.0492 71.172 95.2615V95.115C71.172 94.5876 71.2729 94.1173 71.4747 93.7039C71.6798 93.2872 71.9663 92.9633 72.3341 92.7322C72.7019 92.5011 73.1121 92.3855 73.5646 92.3855C74.284 92.3855 74.839 92.615 75.2296 93.074C75.6235 93.533 75.8204 94.1824 75.8204 95.0222V95.5007H72.3683C72.4041 95.9369 72.5489 96.282 72.8028 96.5359C73.06 96.7898 73.3823 96.9167 73.7696 96.9167C74.3133 96.9167 74.756 96.697 75.0978 96.2576L75.7374 96.8679C75.5258 97.1837 75.2426 97.4294 74.8878 97.6052C74.5362 97.7778 74.1407 97.864 73.7013 97.864ZM73.5597 93.3376C73.2342 93.3376 72.9705 93.4516 72.7687 93.6794C72.5701 93.9073 72.4431 94.2247 72.3878 94.6316H74.6485V94.5437C74.6225 94.1466 74.5167 93.8471 74.3312 93.6453C74.1456 93.4402 73.8885 93.3376 73.5597 93.3376ZM78.9161 96.9167C79.2123 96.9167 79.4581 96.8305 79.6534 96.658C79.8487 96.4854 79.9529 96.2722 79.9659 96.0183H81.0841C81.0711 96.3471 80.9685 96.6547 80.7765 96.9412C80.5844 97.2244 80.324 97.449 79.9952 97.615C79.6664 97.781 79.3116 97.864 78.9308 97.864C78.1918 97.864 77.6059 97.6248 77.173 97.1462C76.74 96.6677 76.5235 96.0069 76.5235 95.1638V95.0417C76.5235 94.2377 76.7384 93.5948 77.1681 93.113C77.5978 92.628 78.1837 92.3855 78.9259 92.3855C79.5541 92.3855 80.0652 92.5694 80.4591 92.9373C80.8562 93.3018 81.0646 93.782 81.0841 94.3777H79.9659C79.9529 94.075 79.8487 93.8259 79.6534 93.6306C79.4614 93.4353 79.2156 93.3376 78.9161 93.3376C78.532 93.3376 78.2358 93.4776 78.0275 93.7576C77.8191 94.0343 77.7133 94.4558 77.7101 95.0222V95.2126C77.7101 95.7856 77.8126 96.2136 78.0177 96.4968C78.226 96.7768 78.5255 96.9167 78.9161 96.9167ZM83.4669 91.199V92.4832H84.3995V93.3621H83.4669V96.3113C83.4669 96.5131 83.506 96.6596 83.5841 96.7507C83.6655 96.8386 83.8087 96.8826 84.0138 96.8826C84.1505 96.8826 84.2888 96.8663 84.4288 96.8337V97.7517C84.1586 97.8266 83.8982 97.864 83.6476 97.864C82.7361 97.864 82.2804 97.3611 82.2804 96.3552V93.3621H81.4112V92.4832H82.2804V91.199H83.4669ZM86.0255 96.5164C86.2469 96.5164 86.4178 96.5798 86.5382 96.7068C86.6586 96.8305 86.7189 96.9867 86.7189 97.1755C86.7189 97.3611 86.6586 97.5157 86.5382 97.6394C86.4178 97.7598 86.2469 97.8201 86.0255 97.8201C85.8139 97.8201 85.6463 97.7598 85.5226 97.6394C85.3989 97.519 85.337 97.3643 85.337 97.1755C85.337 96.9867 85.3972 96.8305 85.5177 96.7068C85.6381 96.5798 85.8074 96.5164 86.0255 96.5164ZM86.0255 92.3708C86.2469 92.3708 86.4178 92.4343 86.5382 92.5613C86.6586 92.685 86.7189 92.8412 86.7189 93.03C86.7189 93.2156 86.6586 93.3702 86.5382 93.4939C86.4178 93.6143 86.2469 93.6746 86.0255 93.6746C85.8139 93.6746 85.6463 93.6143 85.5226 93.4939C85.3989 93.3735 85.337 93.2188 85.337 93.03C85.337 92.8412 85.3972 92.685 85.5177 92.5613C85.6381 92.4343 85.8074 92.3708 86.0255 92.3708ZM91.8067 95.1248V97.7664H90.5714V90.657H93.2911C94.0854 90.657 94.7153 90.8637 95.1808 91.2771C95.6495 91.6905 95.8839 92.2374 95.8839 92.9177C95.8839 93.6143 95.6544 94.1563 95.1954 94.5437C94.7397 94.9311 94.1 95.1248 93.2765 95.1248H91.8067ZM91.8067 94.1335H93.2911C93.7306 94.1335 94.0659 94.031 94.297 93.8259C94.5281 93.6176 94.6437 93.3181 94.6437 92.9275C94.6437 92.5434 94.5265 92.2374 94.2921 92.0095C94.0577 91.7784 93.7355 91.6596 93.3253 91.6531H91.8067V94.1335ZM98.1153 97.7664H96.9288V92.4832H98.1153V97.7664ZM96.8556 91.1111C96.8556 90.9288 96.9125 90.7774 97.0265 90.657C97.1437 90.5365 97.3097 90.4763 97.5245 90.4763C97.7394 90.4763 97.9054 90.5365 98.0226 90.657C98.1398 90.7774 98.1983 90.9288 98.1983 91.1111C98.1983 91.2901 98.1398 91.4399 98.0226 91.5603C97.9054 91.6775 97.7394 91.7361 97.5245 91.7361C97.3097 91.7361 97.1437 91.6775 97.0265 91.5603C96.9125 91.4399 96.8556 91.2901 96.8556 91.1111ZM100.674 97.7664H99.4874V90.2664H100.674V97.7664ZM103.233 97.7664H102.046V90.2664H103.233V97.7664ZM104.307 95.0759C104.307 94.5583 104.409 94.0929 104.614 93.6794C104.819 93.2628 105.108 92.9438 105.479 92.7224C105.85 92.4978 106.276 92.3855 106.758 92.3855C107.471 92.3855 108.049 92.615 108.491 93.074C108.937 93.533 109.178 94.1417 109.214 94.9001L109.219 95.1785C109.219 95.6993 109.118 96.1648 108.916 96.575C108.718 96.9851 108.431 97.3025 108.057 97.5271C107.686 97.7517 107.256 97.864 106.768 97.864C106.022 97.864 105.425 97.6166 104.976 97.1218C104.53 96.6238 104.307 95.9613 104.307 95.1345V95.0759ZM105.493 95.1785C105.493 95.7221 105.606 96.1485 105.83 96.4578C106.055 96.7638 106.367 96.9167 106.768 96.9167C107.168 96.9167 107.479 96.7605 107.7 96.448C107.925 96.1355 108.037 95.6781 108.037 95.0759C108.037 94.5421 107.922 94.1189 107.691 93.8064C107.463 93.4939 107.152 93.3376 106.758 93.3376C106.371 93.3376 106.063 93.4923 105.835 93.8015C105.607 94.1075 105.493 94.5665 105.493 95.1785ZM114.863 96.1306L115.703 92.4832H116.86L115.42 97.7664H114.443L113.311 94.1384L112.197 97.7664H111.221L109.775 92.4832H110.933L111.787 96.0916L112.871 92.4832H113.765L114.863 96.1306ZM22.715 103.653H20.4982V109.766H19.2726V103.653H17.0753V102.657H22.715V103.653ZM25.4249 109.864C24.673 109.864 24.0626 109.628 23.5939 109.156C23.1284 108.681 22.8956 108.049 22.8956 107.261V107.115C22.8956 106.588 22.9965 106.117 23.1983 105.704C23.4034 105.287 23.6899 104.963 24.0577 104.732C24.4256 104.501 24.8357 104.385 25.2882 104.385C26.0076 104.385 26.5626 104.615 26.9532 105.074C27.3471 105.533 27.5441 106.182 27.5441 107.022V107.501H24.0919C24.1277 107.937 24.2726 108.282 24.5265 108.536C24.7836 108.79 25.1059 108.917 25.4933 108.917C26.0369 108.917 26.4796 108.697 26.8214 108.258L27.461 108.868C27.2495 109.184 26.9663 109.429 26.6114 109.605C26.2599 109.778 25.8644 109.864 25.4249 109.864ZM25.2833 105.338C24.9578 105.338 24.6941 105.452 24.4923 105.679C24.2937 105.907 24.1668 106.225 24.1114 106.632H26.3722V106.544C26.3461 106.147 26.2403 105.847 26.0548 105.645C25.8692 105.44 25.6121 105.338 25.2833 105.338ZM31.4308 108.331C31.4308 108.119 31.3429 107.958 31.1671 107.847C30.9946 107.737 30.7065 107.639 30.3028 107.554C29.8992 107.47 29.5623 107.362 29.2921 107.232C28.6997 106.946 28.4034 106.531 28.4034 105.987C28.4034 105.531 28.5955 105.15 28.9796 104.844C29.3637 104.538 29.852 104.385 30.4444 104.385C31.076 104.385 31.5854 104.542 31.9728 104.854C32.3634 105.167 32.5587 105.572 32.5587 106.07H31.3722C31.3722 105.842 31.2875 105.653 31.1183 105.504C30.949 105.351 30.7244 105.274 30.4444 105.274C30.184 105.274 29.9708 105.334 29.8048 105.455C29.642 105.575 29.5607 105.736 29.5607 105.938C29.5607 106.121 29.6372 106.262 29.7901 106.363C29.9431 106.464 30.2524 106.566 30.7179 106.671C31.1834 106.772 31.548 106.894 31.8116 107.037C32.0786 107.177 32.2755 107.346 32.4025 107.545C32.5327 107.743 32.5978 107.984 32.5978 108.267C32.5978 108.743 32.4008 109.128 32.0069 109.425C31.6131 109.718 31.0971 109.864 30.4591 109.864C30.0261 109.864 29.6404 109.786 29.3019 109.63C28.9633 109.473 28.6997 109.259 28.5108 108.985C28.322 108.712 28.2276 108.417 28.2276 108.101H29.38C29.3963 108.381 29.5021 108.598 29.6974 108.751C29.8927 108.9 30.1515 108.975 30.4737 108.975C30.7862 108.975 31.0239 108.917 31.1866 108.8C31.3494 108.679 31.4308 108.523 31.4308 108.331ZM36.5968 108.331C36.5968 108.119 36.5089 107.958 36.3331 107.847C36.1606 107.737 35.8725 107.639 35.4689 107.554C35.0652 107.47 34.7283 107.362 34.4581 107.232C33.8657 106.946 33.5694 106.531 33.5694 105.987C33.5694 105.531 33.7615 105.15 34.1456 104.844C34.5297 104.538 35.018 104.385 35.6105 104.385C36.242 104.385 36.7514 104.542 37.1388 104.854C37.5294 105.167 37.7247 105.572 37.7247 106.07H36.5382C36.5382 105.842 36.4536 105.653 36.2843 105.504C36.115 105.351 35.8904 105.274 35.6105 105.274C35.35 105.274 35.1368 105.334 34.9708 105.455C34.808 105.575 34.7267 105.736 34.7267 105.938C34.7267 106.121 34.8032 106.262 34.9562 106.363C35.1092 106.464 35.4184 106.566 35.8839 106.671C36.3494 106.772 36.714 106.894 36.9776 107.037C37.2446 107.177 37.4415 107.346 37.5685 107.545C37.6987 107.743 37.7638 107.984 37.7638 108.267C37.7638 108.743 37.5668 109.128 37.173 109.425C36.7791 109.718 36.2631 109.864 35.6251 109.864C35.1922 109.864 34.8064 109.786 34.4679 109.63C34.1293 109.473 33.8657 109.259 33.6769 108.985C33.4881 108.712 33.3937 108.417 33.3937 108.101H34.546C34.5623 108.381 34.6681 108.598 34.8634 108.751C35.0587 108.9 35.3175 108.975 35.6398 108.975C35.9523 108.975 36.1899 108.917 36.3526 108.8C36.5154 108.679 36.5968 108.523 36.5968 108.331ZM41.9581 109.766C41.906 109.665 41.8605 109.501 41.8214 109.273C41.4438 109.667 40.9816 109.864 40.4347 109.864C39.9041 109.864 39.4711 109.713 39.1358 109.41C38.8006 109.107 38.6329 108.733 38.6329 108.287C38.6329 107.724 38.8413 107.292 39.2579 106.993C39.6778 106.69 40.2768 106.539 41.0548 106.539H41.7823V106.192C41.7823 105.919 41.7058 105.701 41.5528 105.538C41.3998 105.372 41.1671 105.289 40.8546 105.289C40.5844 105.289 40.3631 105.357 40.1905 105.494C40.018 105.627 39.9317 105.798 39.9317 106.007H38.7452C38.7452 105.717 38.8413 105.447 39.0333 105.196C39.2254 104.942 39.4858 104.744 39.8146 104.6C40.1466 104.457 40.5161 104.385 40.923 104.385C41.5414 104.385 42.0346 104.542 42.4025 104.854C42.7703 105.163 42.9591 105.6 42.9689 106.163V108.546C42.9689 109.021 43.0356 109.4 43.1691 109.683V109.766H41.9581ZM40.6544 108.912C40.8888 108.912 41.1085 108.855 41.3136 108.741C41.5219 108.627 41.6782 108.474 41.7823 108.282V107.286H41.1427C40.7032 107.286 40.3728 107.362 40.1515 107.515C39.9301 107.668 39.8194 107.885 39.8194 108.165C39.8194 108.393 39.8943 108.575 40.0441 108.712C40.197 108.845 40.4005 108.912 40.6544 108.912ZM46.9776 105.567C46.8214 105.541 46.6603 105.528 46.4942 105.528C45.9506 105.528 45.5844 105.736 45.3956 106.153V109.766H44.2091V104.483H45.3419L45.3712 105.074C45.6577 104.615 46.0548 104.385 46.5626 104.385C46.7319 104.385 46.8719 104.408 46.9825 104.454L46.9776 105.567ZM50.7374 109.766C50.6853 109.665 50.6398 109.501 50.6007 109.273C50.2231 109.667 49.7608 109.864 49.214 109.864C48.6834 109.864 48.2504 109.713 47.9151 109.41C47.5799 109.107 47.4122 108.733 47.4122 108.287C47.4122 107.724 47.6205 107.292 48.0372 106.993C48.4571 106.69 49.0561 106.539 49.8341 106.539H50.5616V106.192C50.5616 105.919 50.4851 105.701 50.3321 105.538C50.1791 105.372 49.9464 105.289 49.6339 105.289C49.3637 105.289 49.1424 105.357 48.9698 105.494C48.7973 105.627 48.711 105.798 48.711 106.007H47.5245C47.5245 105.717 47.6205 105.447 47.8126 105.196C48.0047 104.942 48.2651 104.744 48.5939 104.6C48.9259 104.457 49.2954 104.385 49.7023 104.385C50.3207 104.385 50.8139 104.542 51.1817 104.854C51.5496 105.163 51.7384 105.6 51.7482 106.163V108.546C51.7482 109.021 51.8149 109.4 51.9483 109.683V109.766H50.7374ZM49.4337 108.912C49.6681 108.912 49.8878 108.855 50.0929 108.741C50.3012 108.627 50.4575 108.474 50.5616 108.282V107.286H49.922C49.4825 107.286 49.1521 107.362 48.9308 107.515C48.7094 107.668 48.5987 107.885 48.5987 108.165C48.5987 108.393 48.6736 108.575 48.8233 108.712C48.9763 108.845 49.1798 108.912 49.4337 108.912ZM55.1612 108.917C55.4575 108.917 55.7032 108.83 55.8985 108.658C56.0939 108.485 56.198 108.272 56.211 108.018H57.3292C57.3162 108.347 57.2136 108.655 57.0216 108.941C56.8295 109.224 56.5691 109.449 56.2403 109.615C55.9116 109.781 55.5567 109.864 55.1759 109.864C54.437 109.864 53.851 109.625 53.4181 109.146C52.9851 108.668 52.7687 108.007 52.7687 107.164V107.042C52.7687 106.238 52.9835 105.595 53.4132 105.113C53.8429 104.628 54.4288 104.385 55.171 104.385C55.7993 104.385 56.3103 104.569 56.7042 104.937C57.1013 105.302 57.3097 105.782 57.3292 106.378H56.211C56.198 106.075 56.0939 105.826 55.8985 105.631C55.7065 105.435 55.4607 105.338 55.1612 105.338C54.7771 105.338 54.4809 105.478 54.2726 105.758C54.0642 106.034 53.9584 106.456 53.9552 107.022V107.213C53.9552 107.786 54.0577 108.214 54.2628 108.497C54.4711 108.777 54.7706 108.917 55.1612 108.917ZM59.712 103.199V104.483H60.6446V105.362H59.712V108.311C59.712 108.513 59.7511 108.66 59.8292 108.751C59.9106 108.839 60.0538 108.883 60.2589 108.883C60.3956 108.883 60.534 108.866 60.6739 108.834V109.752C60.4038 109.827 60.1433 109.864 59.8927 109.864C58.9812 109.864 58.5255 109.361 58.5255 108.355V105.362H57.6564V104.483H58.5255V103.199H59.712ZM67.2023 109.766C67.1502 109.665 67.1046 109.501 67.0655 109.273C66.6879 109.667 66.2257 109.864 65.6788 109.864C65.1482 109.864 64.7153 109.713 64.38 109.41C64.0447 109.107 63.8771 108.733 63.8771 108.287C63.8771 107.724 64.0854 107.292 64.5021 106.993C64.922 106.69 65.5209 106.539 66.2989 106.539H67.0265V106.192C67.0265 105.919 66.95 105.701 66.797 105.538C66.644 105.372 66.4112 105.289 66.0987 105.289C65.8286 105.289 65.6072 105.357 65.4347 105.494C65.2622 105.627 65.1759 105.798 65.1759 106.007H63.9894C63.9894 105.717 64.0854 105.447 64.2775 105.196C64.4695 104.942 64.7299 104.744 65.0587 104.6C65.3907 104.457 65.7602 104.385 66.1671 104.385C66.7856 104.385 67.2788 104.542 67.6466 104.854C68.0144 105.163 68.2032 105.6 68.213 106.163V108.546C68.213 109.021 68.2797 109.4 68.4132 109.683V109.766H67.2023ZM65.8985 108.912C66.1329 108.912 66.3526 108.855 66.5577 108.741C66.7661 108.627 66.9223 108.474 67.0265 108.282V107.286H66.3868C65.9474 107.286 65.617 107.362 65.3956 107.515C65.1743 107.668 65.0636 107.885 65.0636 108.165C65.0636 108.393 65.1385 108.575 65.2882 108.712C65.4412 108.845 65.6446 108.912 65.8985 108.912ZM70.5567 104.483L70.5909 105.094C70.9816 104.622 71.4942 104.385 72.129 104.385C73.2293 104.385 73.7892 105.015 73.8087 106.275V109.766H72.6222V106.344C72.6222 106.008 72.5489 105.761 72.4025 105.601C72.2592 105.439 72.0232 105.357 71.6944 105.357C71.2159 105.357 70.8595 105.574 70.6251 106.007V109.766H69.4386V104.483H70.5567ZM74.7999 107.086C74.7999 106.272 74.9887 105.619 75.3663 105.128C75.7439 104.633 76.2501 104.385 76.8849 104.385C77.4448 104.385 77.8972 104.581 78.2423 104.971V102.266H79.4288V109.766H78.3546L78.296 109.219C77.9412 109.649 77.4676 109.864 76.8751 109.864C76.2566 109.864 75.7553 109.615 75.3712 109.117C74.9903 108.619 74.7999 107.942 74.7999 107.086ZM75.9864 107.188C75.9864 107.725 76.089 108.145 76.2941 108.448C76.5024 108.747 76.797 108.897 77.1778 108.897C77.6629 108.897 78.0177 108.681 78.2423 108.248V105.992C78.0242 105.569 77.6726 105.357 77.1876 105.357C76.8035 105.357 76.5073 105.51 76.2989 105.816C76.0906 106.119 75.9864 106.576 75.9864 107.188ZM88.9454 106.397C88.9454 107.094 88.825 107.706 88.5841 108.233C88.3432 108.757 87.9982 109.161 87.5489 109.444C87.103 109.724 86.5886 109.864 86.006 109.864C85.4298 109.864 84.9155 109.724 84.463 109.444C84.0138 109.161 83.6655 108.759 83.4181 108.238C83.1739 107.717 83.0502 107.117 83.047 106.436V106.036C83.047 105.343 83.1691 104.731 83.4132 104.2C83.6606 103.669 84.0073 103.264 84.4532 102.984C84.9025 102.701 85.4168 102.559 85.9962 102.559C86.5756 102.559 87.0883 102.699 87.5343 102.979C87.9835 103.256 88.3302 103.656 88.5743 104.18C88.8185 104.701 88.9422 105.308 88.9454 106.002V106.397ZM87.7101 106.026C87.7101 105.238 87.5603 104.635 87.2608 104.215C86.9646 103.795 86.5431 103.585 85.9962 103.585C85.4623 103.585 85.0441 103.795 84.7413 104.215C84.4418 104.631 84.2888 105.222 84.2823 105.987V106.397C84.2823 107.178 84.4337 107.782 84.7364 108.209C85.0424 108.635 85.4656 108.848 86.006 108.848C86.5528 108.848 86.9728 108.64 87.2657 108.223C87.562 107.807 87.7101 107.198 87.7101 106.397V106.026ZM94.6876 107.178C94.6876 107.996 94.5021 108.648 94.131 109.136C93.7599 109.622 93.2618 109.864 92.6368 109.864C92.0574 109.864 91.5935 109.674 91.2452 109.293V111.798H90.0587V104.483H91.1525L91.2013 105.02C91.5496 104.597 92.0232 104.385 92.6222 104.385C93.2667 104.385 93.7713 104.626 94.1358 105.108C94.5037 105.587 94.6876 106.252 94.6876 107.105V107.178ZM93.506 107.076C93.506 106.549 93.4002 106.13 93.1886 105.821C92.9803 105.512 92.6808 105.357 92.2901 105.357C91.8051 105.357 91.4568 105.557 91.2452 105.958V108.302C91.4601 108.712 91.8116 108.917 92.2999 108.917C92.6775 108.917 92.9721 108.765 93.1837 108.463C93.3985 108.157 93.506 107.694 93.506 107.076ZM98.0226 109.864C97.2706 109.864 96.6603 109.628 96.1915 109.156C95.726 108.681 95.4933 108.049 95.4933 107.261V107.115C95.4933 106.588 95.5942 106.117 95.796 105.704C96.0011 105.287 96.2875 104.963 96.6554 104.732C97.0232 104.501 97.4334 104.385 97.8858 104.385C98.6053 104.385 99.1603 104.615 99.5509 105.074C99.9448 105.533 100.142 106.182 100.142 107.022V107.501H96.6896C96.7254 107.937 96.8702 108.282 97.1241 108.536C97.3813 108.79 97.7036 108.917 98.0909 108.917C98.6345 108.917 99.0773 108.697 99.4191 108.258L100.059 108.868C99.8471 109.184 99.5639 109.429 99.2091 109.605C98.8575 109.778 98.462 109.864 98.0226 109.864ZM97.881 105.338C97.5554 105.338 97.2918 105.452 97.09 105.679C96.8914 105.907 96.7644 106.225 96.7091 106.632H98.9698V106.544C98.9438 106.147 98.838 105.847 98.6525 105.645C98.4669 105.44 98.2097 105.338 97.881 105.338ZM102.168 104.483L102.202 105.094C102.593 104.622 103.106 104.385 103.74 104.385C104.841 104.385 105.4 105.015 105.42 106.275V109.766H104.234V106.344C104.234 106.008 104.16 105.761 104.014 105.601C103.871 105.439 103.635 105.357 103.306 105.357C102.827 105.357 102.471 105.574 102.236 106.007V109.766H101.05V104.483H102.168ZM112.173 107.452C112.101 108.21 111.821 108.803 111.333 109.229C110.845 109.652 110.195 109.864 109.385 109.864C108.818 109.864 108.319 109.731 107.886 109.464C107.456 109.193 107.124 108.811 106.89 108.316C106.655 107.821 106.533 107.247 106.524 106.593V105.928C106.524 105.258 106.642 104.667 106.88 104.156C107.118 103.645 107.458 103.251 107.9 102.974C108.346 102.698 108.861 102.559 109.443 102.559C110.228 102.559 110.859 102.773 111.338 103.199C111.817 103.625 112.095 104.228 112.173 105.006H110.942C110.884 104.495 110.734 104.127 110.493 103.902C110.256 103.674 109.906 103.56 109.443 103.56C108.906 103.56 108.493 103.757 108.203 104.151C107.917 104.542 107.77 105.116 107.764 105.875V106.505C107.764 107.273 107.9 107.859 108.174 108.262C108.451 108.666 108.854 108.868 109.385 108.868C109.87 108.868 110.234 108.759 110.479 108.541C110.723 108.323 110.877 107.96 110.942 107.452H112.173ZM115.786 108.219L117.593 102.657H118.95L116.392 109.766H115.195L112.647 102.657H113.999L115.786 108.219Z" fill="#0B406C"/>
<path d="M48.6956 120.106C48.624 120.865 48.344 121.457 47.8558 121.883C47.3675 122.307 46.7181 122.518 45.9075 122.518C45.3411 122.518 44.8414 122.385 44.4085 122.118C43.9788 121.848 43.6468 121.465 43.4124 120.97C43.178 120.476 43.056 119.901 43.0462 119.247V118.583C43.0462 117.912 43.165 117.321 43.4026 116.81C43.6403 116.299 43.9804 115.905 44.4231 115.629C44.8691 115.352 45.3834 115.214 45.9661 115.214C46.7506 115.214 47.3821 115.427 47.8606 115.853C48.3392 116.28 48.6175 116.882 48.6956 117.66H47.4651C47.4065 117.149 47.2568 116.781 47.0159 116.556C46.7783 116.328 46.4283 116.215 45.9661 116.215C45.429 116.215 45.0156 116.411 44.7259 116.805C44.4394 117.196 44.2929 117.77 44.2864 118.529V119.159C44.2864 119.927 44.4231 120.513 44.6966 120.917C44.9733 121.32 45.3769 121.522 45.9075 121.522C46.3925 121.522 46.7571 121.413 47.0013 121.195C47.2454 120.977 47.4 120.614 47.4651 120.106H48.6956ZM50.9515 122.421H49.7649V114.921H50.9515V122.421ZM53.5101 122.421H52.3235V117.137H53.5101V122.421ZM52.2503 115.765C52.2503 115.583 52.3073 115.432 52.4212 115.311C52.5384 115.191 52.7044 115.131 52.9192 115.131C53.1341 115.131 53.3001 115.191 53.4173 115.311C53.5345 115.432 53.5931 115.583 53.5931 115.765C53.5931 115.944 53.5345 116.094 53.4173 116.215C53.3001 116.332 53.1341 116.39 52.9192 116.39C52.7044 116.39 52.5384 116.332 52.4212 116.215C52.3073 116.094 52.2503 115.944 52.2503 115.765ZM56.9769 121.571C57.2731 121.571 57.5188 121.485 57.7142 121.312C57.9095 121.14 58.0136 120.926 58.0267 120.673H59.1448C59.1318 121.001 59.0293 121.309 58.8372 121.595C58.6451 121.879 58.3847 122.103 58.056 122.269C57.7272 122.435 57.3724 122.518 56.9915 122.518C56.2526 122.518 55.6666 122.279 55.2337 121.8C54.8007 121.322 54.5843 120.661 54.5843 119.818V119.696C54.5843 118.892 54.7991 118.249 55.2288 117.767C55.6585 117.282 56.2444 117.04 56.9866 117.04C57.6149 117.04 58.1259 117.224 58.5198 117.591C58.917 117.956 59.1253 118.436 59.1448 119.032H58.0267C58.0136 118.729 57.9095 118.48 57.7142 118.285C57.5221 118.09 57.2763 117.992 56.9769 117.992C56.5927 117.992 56.2965 118.132 56.0882 118.412C55.8798 118.688 55.7741 119.11 55.7708 119.676V119.867C55.7708 120.44 55.8733 120.868 56.0784 121.151C56.2867 121.431 56.5862 121.571 56.9769 121.571ZM61.7571 120.155L61.2298 120.697V122.421H60.0433V114.921H61.2298V119.247L61.6009 118.783L63.0608 117.137H64.4866L62.5237 119.34L64.6966 122.421H63.3245L61.7571 120.155ZM68.9251 117.714C69.3125 117.264 69.8024 117.04 70.3948 117.04C71.5211 117.04 72.0924 117.683 72.1087 118.968V122.421H70.9222V119.012C70.9222 118.648 70.8424 118.391 70.6829 118.241C70.5267 118.088 70.2955 118.011 69.9895 118.011C69.5143 118.011 69.1595 118.223 68.9251 118.646V122.421H67.7386V114.921H68.9251V117.714ZM75.639 122.518C74.887 122.518 74.2767 122.282 73.8079 121.81C73.3424 121.335 73.1097 120.703 73.1097 119.916V119.769C73.1097 119.242 73.2106 118.771 73.4124 118.358C73.6175 117.941 73.9039 117.618 74.2718 117.386C74.6396 117.155 75.0498 117.04 75.5022 117.04C76.2216 117.04 76.7767 117.269 77.1673 117.728C77.5612 118.187 77.7581 118.837 77.7581 119.676V120.155H74.306C74.3418 120.591 74.4866 120.936 74.7405 121.19C74.9977 121.444 75.32 121.571 75.7073 121.571C76.2509 121.571 76.6936 121.351 77.0354 120.912L77.6751 121.522C77.4635 121.838 77.1803 122.084 76.8255 122.259C76.4739 122.432 76.0784 122.518 75.639 122.518ZM75.4974 117.992C75.1718 117.992 74.9082 118.106 74.7063 118.334C74.5078 118.562 74.3808 118.879 74.3255 119.286H76.5862V119.198C76.5602 118.801 76.4544 118.501 76.2688 118.299C76.0833 118.094 75.8261 117.992 75.4974 117.992ZM81.4495 118.221C81.2933 118.195 81.1321 118.182 80.9661 118.182C80.4225 118.182 80.0563 118.391 79.8675 118.807V122.421H78.681V117.137H79.8138L79.8431 117.728C80.1295 117.269 80.5267 117.04 81.0345 117.04C81.2037 117.04 81.3437 117.062 81.4544 117.108L81.4495 118.221ZM84.428 122.518C83.6761 122.518 83.0657 122.282 82.597 121.81C82.1315 121.335 81.8987 120.703 81.8987 119.916V119.769C81.8987 119.242 81.9996 118.771 82.2015 118.358C82.4065 117.941 82.693 117.618 83.0608 117.386C83.4287 117.155 83.8388 117.04 84.2913 117.04C85.0107 117.04 85.5657 117.269 85.9563 117.728C86.3502 118.187 86.5472 118.837 86.5472 119.676V120.155H83.095C83.1308 120.591 83.2757 120.936 83.5296 121.19C83.7867 121.444 84.109 121.571 84.4964 121.571C85.04 121.571 85.4827 121.351 85.8245 120.912L86.4642 121.522C86.2526 121.838 85.9694 122.084 85.6145 122.259C85.263 122.432 84.8675 122.518 84.428 122.518ZM84.2864 117.992C83.9609 117.992 83.6972 118.106 83.4954 118.334C83.2968 118.562 83.1699 118.879 83.1145 119.286H85.3753V119.198C85.3492 118.801 85.2435 118.501 85.0579 118.299C84.8724 118.094 84.6152 117.992 84.2864 117.992Z" fill="#BFFBDE"/>
</g>
<defs>
<filter id="filter0_d" x="0" y="0" width="138" height="156" filterUnits="userSpaceOnUse" color-interpolation-filters="sRGB">
<feFlood flood-opacity="0" result="BackgroundImageFix"/>
<feColorMatrix in="SourceAlpha" type="matrix" values="0 0 0 0 0 0 0 0 0 0 0 0 0 0 0 0 0 0 127 0" result="hardAlpha"/>
<feOffset dy="4"/>
<feGaussianBlur stdDeviation="2"/>
<feColorMatrix type="matrix" values="0 0 0 0 0 0 0 0 0 0 0 0 0 0 0 0 0 0 0.25 0"/>
<feBlend mode="normal" in2="BackgroundImageFix" result="effect1_dropShadow"/>
<feBlend mode="normal" in="SourceGraphic" in2="effect1_dropShadow" result="shape"/>
</filter>
<filter id="filter1_d" x="0" y="0" width="138" height="156" filterUnits="userSpaceOnUse" color-interpolation-filters="sRGB">
<feFlood flood-opacity="0" result="BackgroundImageFix"/>
<feColorMatrix in="SourceAlpha" type="matrix" values="0 0 0 0 0 0 0 0 0 0 0 0 0 0 0 0 0 0 127 0" result="hardAlpha"/>
<feOffset dy="4"/>
<feGaussianBlur stdDeviation="2"/>
<feColorMatrix type="matrix" values="0 0 0 0 0 0 0 0 0 0 0 0 0 0 0 0 0 0 0.25 0"/>
<feBlend mode="normal" in2="BackgroundImageFix" result="effect1_dropShadow"/>
<feBlend mode="normal" in="SourceGraphic" in2="effect1_dropShadow" result="shape"/>
</filter>
<linearGradient id="paint0_linear" x1="48.4469" y1="11.8276" x2="75.5593" y2="38.4194" gradientUnits="userSpaceOnUse">
<stop stop-color="#387EB8"/>
<stop offset="1" stop-color="#366994"/>
</linearGradient>
<linearGradient id="paint1_linear" x1="64.9353" y1="29.066" x2="94.0385" y2="56.3218" gradientUnits="userSpaceOnUse">
<stop stop-color="#FFE052"/>
<stop offset="1" stop-color="#FFC331"/>
</linearGradient>
<clipPath id="clip0">
<rect width="54.3386" height="54.6355" fill="white" transform="translate(43.2063 6.91589)"/>
</clipPath>
</defs>
</svg>
