<svg width="197" height="222" viewBox="0 0 197 222" fill="none" xmlns="http://www.w3.org/2000/svg">
<g filter="url(#filter0_d)">
<rect x="4" width="189" height="214" rx="39" fill="#405C50"/>
</g>
<path d="M100.166 10.0227C80.1592 10.0227 81.4085 18.7329 81.4085 18.7329L81.4308 27.7566H100.523V30.4659H73.8475C73.8475 30.4659 61.0452 29.0083 61.0452 49.2746C61.0452 69.5408 72.2194 68.8221 72.2194 68.8221H78.8882V59.4178C78.8882 59.4178 78.5287 48.1998 89.884 48.1998H108.82C108.82 48.1998 119.459 48.3724 119.459 37.8774V20.5242C119.459 20.5242 121.074 10.0227 100.166 10.0227ZM89.6386 16.0907C91.5381 16.0907 93.0734 17.632 93.0734 19.539C93.0734 21.446 91.5381 22.9872 89.6386 22.9872C87.7391 22.9872 86.2038 21.446 86.2038 19.539C86.2038 17.632 87.7391 16.0907 89.6386 16.0907Z" fill="url(#paint0_linear)"/>
<path d="M100.734 88.7293C120.741 88.7293 119.491 80.0191 119.491 80.0191L119.469 70.9955H100.377V68.2861H127.052C127.052 68.2861 139.855 69.7437 139.855 49.4775C139.855 29.2112 128.68 29.9299 128.68 29.9299H122.012V39.3342C122.012 39.3342 122.371 50.5522 111.016 50.5522H92.0798C92.0798 50.5522 81.4409 50.3796 81.4409 60.8746V78.2278C81.4409 78.2278 79.8256 88.7293 100.734 88.7293ZM111.261 82.6613C109.362 82.6613 107.826 81.12 107.826 79.213C107.826 77.3061 109.362 75.7648 111.261 75.7648C113.161 75.7648 114.696 77.3061 114.696 79.213C114.696 81.12 113.161 82.6613 111.261 82.6613Z" fill="url(#paint1_linear)"/>
<rect x="19" y="100" width="160" height="93" rx="16" fill="#8AD4B5"/>
<path d="M34.0146 114.047V120.698C34.0146 121.756 33.6751 122.594 32.9961 123.214C32.3216 123.829 31.4215 124.137 30.2959 124.137C29.1566 124.137 28.252 123.834 27.582 123.228C26.9121 122.617 26.5771 121.771 26.5771 120.691V114.047H28.2998V120.705C28.2998 121.37 28.4684 121.879 28.8057 122.229C29.1429 122.58 29.6396 122.756 30.2959 122.756C31.6266 122.756 32.292 122.054 32.292 120.65V114.047H34.0146ZM37.248 116.604L37.2959 117.458C37.8428 116.797 38.5605 116.467 39.4492 116.467C40.9896 116.467 41.7734 117.349 41.8008 119.112V124H40.1396V119.208C40.1396 118.739 40.0371 118.392 39.832 118.169C39.6315 117.941 39.3011 117.827 38.8408 117.827C38.1709 117.827 37.6719 118.13 37.3438 118.736V124H35.6826V116.604H37.248ZM45.2666 124H43.6055V116.604H45.2666V124ZM43.5029 114.683C43.5029 114.427 43.5827 114.215 43.7422 114.047C43.9062 113.878 44.1387 113.794 44.4395 113.794C44.7402 113.794 44.9727 113.878 45.1367 114.047C45.3008 114.215 45.3828 114.427 45.3828 114.683C45.3828 114.933 45.3008 115.143 45.1367 115.312C44.9727 115.476 44.7402 115.558 44.4395 115.558C44.1387 115.558 43.9062 115.476 43.7422 115.312C43.5827 115.143 43.5029 114.933 43.5029 114.683ZM49.6895 121.895L51.2549 116.604H52.9707L50.4072 124H48.9648L46.3809 116.604H48.1035L49.6895 121.895ZM57.1748 124.137C56.1221 124.137 55.2676 123.806 54.6113 123.146C53.9596 122.48 53.6338 121.596 53.6338 120.493V120.288C53.6338 119.55 53.7751 118.891 54.0576 118.312C54.3447 117.729 54.7458 117.276 55.2607 116.952C55.7757 116.629 56.3499 116.467 56.9834 116.467C57.9906 116.467 58.7676 116.788 59.3145 117.431C59.8659 118.073 60.1416 118.982 60.1416 120.158V120.828H55.3086C55.3587 121.439 55.5615 121.922 55.917 122.277C56.277 122.633 56.7282 122.811 57.2705 122.811C58.0316 122.811 58.6514 122.503 59.1299 121.888L60.0254 122.742C59.7292 123.184 59.3327 123.528 58.8359 123.774C58.3438 124.016 57.79 124.137 57.1748 124.137ZM56.9766 117.8C56.5208 117.8 56.1517 117.959 55.8691 118.278C55.5911 118.597 55.4134 119.042 55.3359 119.611H58.501V119.488C58.4645 118.932 58.3164 118.513 58.0566 118.23C57.7969 117.943 57.4368 117.8 56.9766 117.8ZM65.3096 118.121C65.0908 118.085 64.8652 118.066 64.6328 118.066C63.8717 118.066 63.359 118.358 63.0947 118.941V124H61.4336V116.604H63.0195L63.0605 117.431C63.4616 116.788 64.0176 116.467 64.7285 116.467C64.9655 116.467 65.1615 116.499 65.3164 116.562L65.3096 118.121ZM70.5049 121.99C70.5049 121.694 70.3818 121.468 70.1357 121.313C69.8942 121.159 69.4909 121.022 68.9258 120.903C68.3607 120.785 67.889 120.634 67.5107 120.452C66.6813 120.051 66.2666 119.47 66.2666 118.709C66.2666 118.071 66.5355 117.538 67.0732 117.109C67.611 116.681 68.2946 116.467 69.124 116.467C70.0081 116.467 70.7214 116.686 71.2637 117.123C71.8105 117.561 72.084 118.128 72.084 118.825H70.4229C70.4229 118.506 70.3044 118.242 70.0674 118.032C69.8304 117.818 69.516 117.711 69.124 117.711C68.7594 117.711 68.4609 117.795 68.2285 117.964C68.0007 118.132 67.8867 118.358 67.8867 118.641C67.8867 118.896 67.9938 119.094 68.208 119.235C68.4222 119.377 68.8551 119.52 69.5068 119.666C70.1585 119.807 70.6689 119.978 71.0381 120.179C71.4118 120.375 71.6875 120.612 71.8652 120.89C72.0475 121.168 72.1387 121.505 72.1387 121.901C72.1387 122.567 71.863 123.107 71.3115 123.521C70.7601 123.932 70.0378 124.137 69.1445 124.137C68.5384 124.137 67.9984 124.027 67.5244 123.809C67.0505 123.59 66.6813 123.289 66.417 122.906C66.1527 122.523 66.0205 122.111 66.0205 121.669H67.6338C67.6566 122.061 67.8047 122.364 68.0781 122.578C68.3516 122.788 68.7139 122.893 69.165 122.893C69.6025 122.893 69.9352 122.811 70.1631 122.646C70.391 122.478 70.5049 122.259 70.5049 121.99ZM75.3584 124H73.6973V116.604H75.3584V124ZM73.5947 114.683C73.5947 114.427 73.6745 114.215 73.834 114.047C73.998 113.878 74.2305 113.794 74.5312 113.794C74.832 113.794 75.0645 113.878 75.2285 114.047C75.3926 114.215 75.4746 114.427 75.4746 114.683C75.4746 114.933 75.3926 115.143 75.2285 115.312C75.0645 115.476 74.832 115.558 74.5312 115.558C74.2305 115.558 73.998 115.476 73.834 115.312C73.6745 115.143 73.5947 114.933 73.5947 114.683ZM79.2549 114.806V116.604H80.5605V117.834H79.2549V121.963C79.2549 122.245 79.3096 122.451 79.4189 122.578C79.5329 122.701 79.7334 122.763 80.0205 122.763C80.2119 122.763 80.4056 122.74 80.6016 122.694V123.979C80.2233 124.084 79.8587 124.137 79.5078 124.137C78.2318 124.137 77.5938 123.433 77.5938 122.024V117.834H76.377V116.604H77.5938V114.806H79.2549ZM84.4229 121.621L85.9268 116.604H87.6973L84.7578 125.121C84.3066 126.365 83.541 126.987 82.4609 126.987C82.2194 126.987 81.9528 126.946 81.6611 126.864V125.579L81.9756 125.6C82.3949 125.6 82.7093 125.522 82.9189 125.367C83.1331 125.217 83.3018 124.962 83.4248 124.602L83.6641 123.966L81.0664 116.604H82.8574L84.4229 121.621ZM91.833 120.233C91.833 119.509 91.9766 118.857 92.2637 118.278C92.5508 117.695 92.9541 117.248 93.4736 116.938C93.9932 116.624 94.5902 116.467 95.2646 116.467C96.2627 116.467 97.0716 116.788 97.6914 117.431C98.3158 118.073 98.653 118.925 98.7031 119.987L98.71 120.377C98.71 121.106 98.5687 121.758 98.2861 122.332C98.0081 122.906 97.6071 123.351 97.083 123.665C96.5635 123.979 95.9619 124.137 95.2783 124.137C94.2347 124.137 93.3984 123.79 92.7695 123.098C92.1452 122.4 91.833 121.473 91.833 120.315V120.233ZM93.4941 120.377C93.4941 121.138 93.6514 121.735 93.9658 122.168C94.2803 122.596 94.7178 122.811 95.2783 122.811C95.8389 122.811 96.2741 122.592 96.584 122.154C96.8984 121.717 97.0557 121.076 97.0557 120.233C97.0557 119.486 96.8939 118.894 96.5703 118.456C96.2513 118.019 95.8161 117.8 95.2646 117.8C94.7223 117.8 94.2917 118.016 93.9727 118.449C93.6536 118.878 93.4941 119.52 93.4941 120.377ZM100.699 124V117.834H99.5713V116.604H100.699V115.927C100.699 115.106 100.927 114.473 101.383 114.026C101.839 113.58 102.477 113.356 103.297 113.356C103.589 113.356 103.898 113.397 104.227 113.479L104.186 114.778C104.003 114.742 103.791 114.724 103.55 114.724C102.757 114.724 102.36 115.132 102.36 115.947V116.604H103.864V117.834H102.36V124H100.699ZM110.967 114.047L113.838 121.676L116.702 114.047H118.938V124H117.215V120.719L117.386 116.33L114.446 124H113.209L110.276 116.337L110.447 120.719V124H108.725V114.047H110.967ZM122.595 124H120.934V116.604H122.595V124ZM120.831 114.683C120.831 114.427 120.911 114.215 121.07 114.047C121.234 113.878 121.467 113.794 121.768 113.794C122.068 113.794 122.301 113.878 122.465 114.047C122.629 114.215 122.711 114.427 122.711 114.683C122.711 114.933 122.629 115.143 122.465 115.312C122.301 115.476 122.068 115.558 121.768 115.558C121.467 115.558 121.234 115.476 121.07 115.312C120.911 115.143 120.831 114.933 120.831 114.683ZM127.448 122.811C127.863 122.811 128.207 122.69 128.48 122.448C128.754 122.207 128.9 121.908 128.918 121.553H130.483C130.465 122.013 130.322 122.444 130.053 122.845C129.784 123.241 129.419 123.556 128.959 123.788C128.499 124.021 128.002 124.137 127.469 124.137C126.434 124.137 125.614 123.802 125.008 123.132C124.402 122.462 124.099 121.537 124.099 120.356V120.186C124.099 119.06 124.399 118.16 125.001 117.485C125.603 116.806 126.423 116.467 127.462 116.467C128.341 116.467 129.057 116.724 129.608 117.239C130.164 117.75 130.456 118.422 130.483 119.256H128.918C128.9 118.832 128.754 118.483 128.48 118.21C128.212 117.937 127.868 117.8 127.448 117.8C126.91 117.8 126.496 117.996 126.204 118.388C125.912 118.775 125.764 119.365 125.76 120.158V120.425C125.76 121.227 125.903 121.826 126.19 122.223C126.482 122.615 126.901 122.811 127.448 122.811ZM133.375 117.41C133.917 116.781 134.603 116.467 135.433 116.467C137.009 116.467 137.809 117.367 137.832 119.167V124H136.171V119.229C136.171 118.718 136.059 118.358 135.836 118.148C135.617 117.934 135.294 117.827 134.865 117.827C134.2 117.827 133.703 118.123 133.375 118.716V124H131.714V113.5H133.375V117.41ZM141.284 124H139.623V116.604H141.284V124ZM139.521 114.683C139.521 114.427 139.6 114.215 139.76 114.047C139.924 113.878 140.156 113.794 140.457 113.794C140.758 113.794 140.99 113.878 141.154 114.047C141.318 114.215 141.4 114.427 141.4 114.683C141.4 114.933 141.318 115.143 141.154 115.312C140.99 115.476 140.758 115.558 140.457 115.558C140.156 115.558 139.924 115.476 139.76 115.312C139.6 115.143 139.521 114.933 139.521 114.683ZM142.809 120.247C142.809 119.099 143.077 118.183 143.615 117.499C144.158 116.811 144.875 116.467 145.769 116.467C146.612 116.467 147.275 116.761 147.758 117.349L147.833 116.604H149.33V123.774C149.33 124.745 149.027 125.511 148.421 126.071C147.819 126.632 147.006 126.912 145.98 126.912C145.438 126.912 144.907 126.798 144.388 126.57C143.873 126.347 143.481 126.053 143.212 125.688L143.998 124.69C144.508 125.297 145.137 125.6 145.885 125.6C146.436 125.6 146.871 125.449 147.19 125.148C147.509 124.852 147.669 124.415 147.669 123.836V123.337C147.19 123.87 146.552 124.137 145.755 124.137C144.889 124.137 144.18 123.793 143.629 123.104C143.082 122.416 142.809 121.464 142.809 120.247ZM144.463 120.391C144.463 121.133 144.613 121.719 144.914 122.147C145.219 122.571 145.641 122.783 146.179 122.783C146.849 122.783 147.345 122.496 147.669 121.922V118.668C147.354 118.107 146.862 117.827 146.192 117.827C145.646 117.827 145.219 118.044 144.914 118.477C144.613 118.91 144.463 119.548 144.463 120.391ZM155.462 124C155.389 123.859 155.325 123.629 155.271 123.31C154.742 123.861 154.095 124.137 153.329 124.137C152.586 124.137 151.98 123.925 151.511 123.501C151.041 123.077 150.807 122.553 150.807 121.929C150.807 121.14 151.098 120.536 151.682 120.117C152.27 119.693 153.108 119.481 154.197 119.481H155.216V118.996C155.216 118.613 155.109 118.308 154.895 118.08C154.68 117.848 154.354 117.731 153.917 117.731C153.539 117.731 153.229 117.827 152.987 118.019C152.746 118.205 152.625 118.445 152.625 118.736H150.964C150.964 118.331 151.098 117.952 151.367 117.602C151.636 117.246 152.001 116.968 152.461 116.768C152.926 116.567 153.443 116.467 154.013 116.467C154.879 116.467 155.569 116.686 156.084 117.123C156.599 117.556 156.863 118.167 156.877 118.955V122.291C156.877 122.956 156.97 123.487 157.157 123.884V124H155.462ZM153.637 122.804C153.965 122.804 154.272 122.724 154.56 122.564C154.851 122.405 155.07 122.191 155.216 121.922V120.527H154.32C153.705 120.527 153.243 120.634 152.933 120.849C152.623 121.063 152.468 121.366 152.468 121.758C152.468 122.077 152.573 122.332 152.782 122.523C152.996 122.71 153.281 122.804 153.637 122.804ZM160.158 116.604L160.206 117.458C160.753 116.797 161.471 116.467 162.359 116.467C163.9 116.467 164.684 117.349 164.711 119.112V124H163.05V119.208C163.05 118.739 162.947 118.392 162.742 118.169C162.542 117.941 162.211 117.827 161.751 117.827C161.081 117.827 160.582 118.13 160.254 118.736V124H158.593V116.604H160.158ZM167.411 122.25C167.721 122.25 167.96 122.339 168.129 122.517C168.298 122.69 168.382 122.909 168.382 123.173C168.382 123.433 168.298 123.649 168.129 123.822C167.96 123.991 167.721 124.075 167.411 124.075C167.115 124.075 166.88 123.991 166.707 123.822C166.534 123.654 166.447 123.437 166.447 123.173C166.447 122.909 166.532 122.69 166.7 122.517C166.869 122.339 167.106 122.25 167.411 122.25ZM167.411 116.446C167.721 116.446 167.96 116.535 168.129 116.713C168.298 116.886 168.382 117.105 168.382 117.369C168.382 117.629 168.298 117.845 168.129 118.019C167.96 118.187 167.721 118.271 167.411 118.271C167.115 118.271 166.88 118.187 166.707 118.019C166.534 117.85 166.447 117.633 166.447 117.369C166.447 117.105 166.532 116.886 166.7 116.713C166.869 116.535 167.106 116.446 167.411 116.446ZM25.7773 136.302V140H24.0479V130.047H27.8555C28.9674 130.047 29.8493 130.336 30.501 130.915C31.1572 131.494 31.4854 132.259 31.4854 133.212C31.4854 134.187 31.1641 134.946 30.5215 135.488C29.8835 136.031 28.988 136.302 27.835 136.302H25.7773ZM25.7773 134.914H27.8555C28.4707 134.914 28.9401 134.771 29.2637 134.483C29.5872 134.192 29.749 133.772 29.749 133.226C29.749 132.688 29.585 132.259 29.2568 131.94C28.9287 131.617 28.4775 131.451 27.9033 131.441H25.7773V134.914ZM35.5391 137.621L37.043 132.604H38.8135L35.874 141.121C35.4229 142.365 34.6572 142.987 33.5771 142.987C33.3356 142.987 33.069 142.946 32.7773 142.864V141.579L33.0918 141.6C33.5111 141.6 33.8255 141.522 34.0352 141.367C34.2493 141.217 34.418 140.962 34.541 140.602L34.7803 139.966L32.1826 132.604H33.9736L35.5391 137.621ZM41.8555 130.806V132.604H43.1611V133.834H41.8555V137.963C41.8555 138.245 41.9102 138.451 42.0195 138.578C42.1335 138.701 42.334 138.763 42.6211 138.763C42.8125 138.763 43.0062 138.74 43.2021 138.694V139.979C42.8239 140.084 42.4593 140.137 42.1084 140.137C40.8324 140.137 40.1943 139.433 40.1943 138.024V133.834H38.9775V132.604H40.1943V130.806H41.8555ZM46.0732 133.41C46.6156 132.781 47.3014 132.467 48.1309 132.467C49.7077 132.467 50.5075 133.367 50.5303 135.167V140H48.8691V135.229C48.8691 134.718 48.7575 134.358 48.5342 134.148C48.3154 133.934 47.9919 133.827 47.5635 133.827C46.8981 133.827 46.4014 134.123 46.0732 134.716V140H44.4121V129.5H46.0732V133.41ZM51.9043 136.233C51.9043 135.509 52.0479 134.857 52.335 134.278C52.6221 133.695 53.0254 133.248 53.5449 132.938C54.0645 132.624 54.6615 132.467 55.3359 132.467C56.334 132.467 57.1429 132.788 57.7627 133.431C58.387 134.073 58.7243 134.925 58.7744 135.987L58.7812 136.377C58.7812 137.106 58.64 137.758 58.3574 138.332C58.0794 138.906 57.6784 139.351 57.1543 139.665C56.6348 139.979 56.0332 140.137 55.3496 140.137C54.306 140.137 53.4697 139.79 52.8408 139.098C52.2165 138.4 51.9043 137.473 51.9043 136.315V136.233ZM53.5654 136.377C53.5654 137.138 53.7227 137.735 54.0371 138.168C54.3516 138.596 54.7891 138.811 55.3496 138.811C55.9102 138.811 56.3454 138.592 56.6553 138.154C56.9697 137.717 57.127 137.076 57.127 136.233C57.127 135.486 56.9652 134.894 56.6416 134.456C56.3226 134.019 55.8874 133.8 55.3359 133.8C54.7936 133.8 54.363 134.016 54.0439 134.449C53.7249 134.878 53.5654 135.52 53.5654 136.377ZM61.7275 132.604L61.7754 133.458C62.3223 132.797 63.04 132.467 63.9287 132.467C65.4691 132.467 66.2529 133.349 66.2803 135.112V140H64.6191V135.208C64.6191 134.739 64.5166 134.392 64.3115 134.169C64.111 133.941 63.7806 133.827 63.3203 133.827C62.6504 133.827 62.1514 134.13 61.8232 134.736V140H60.1621V132.604H61.7275ZM77.3613 135.782H73.3555V140H71.626V130.047H77.9492V131.441H73.3555V134.401H77.3613V135.782ZM83.4932 139.275C83.0055 139.85 82.3128 140.137 81.415 140.137C80.613 140.137 80.0046 139.902 79.5898 139.433C79.1797 138.963 78.9746 138.284 78.9746 137.396V132.604H80.6357V137.375C80.6357 138.314 81.0254 138.783 81.8047 138.783C82.6113 138.783 83.1559 138.494 83.4385 137.915V132.604H85.0996V140H83.5342L83.4932 139.275ZM88.333 132.604L88.3809 133.458C88.9277 132.797 89.6455 132.467 90.5342 132.467C92.0745 132.467 92.8584 133.349 92.8857 135.112V140H91.2246V135.208C91.2246 134.739 91.1221 134.392 90.917 134.169C90.7165 133.941 90.3861 133.827 89.9258 133.827C89.2559 133.827 88.7568 134.13 88.4287 134.736V140H86.7676V132.604H88.333ZM97.623 138.811C98.0378 138.811 98.3818 138.69 98.6553 138.448C98.9287 138.207 99.0745 137.908 99.0928 137.553H100.658C100.64 138.013 100.496 138.444 100.228 138.845C99.9587 139.241 99.5941 139.556 99.1338 139.788C98.6735 140.021 98.1768 140.137 97.6436 140.137C96.609 140.137 95.7887 139.802 95.1826 139.132C94.5765 138.462 94.2734 137.537 94.2734 136.356V136.186C94.2734 135.06 94.5742 134.16 95.1758 133.485C95.7773 132.806 96.5977 132.467 97.6367 132.467C98.5163 132.467 99.2318 132.724 99.7832 133.239C100.339 133.75 100.631 134.422 100.658 135.256H99.0928C99.0745 134.832 98.9287 134.483 98.6553 134.21C98.3864 133.937 98.0423 133.8 97.623 133.8C97.0853 133.8 96.6706 133.996 96.3789 134.388C96.0872 134.775 95.9391 135.365 95.9346 136.158V136.425C95.9346 137.227 96.0781 137.826 96.3652 138.223C96.6569 138.615 97.0762 138.811 97.623 138.811ZM103.994 130.806V132.604H105.3V133.834H103.994V137.963C103.994 138.245 104.049 138.451 104.158 138.578C104.272 138.701 104.473 138.763 104.76 138.763C104.951 138.763 105.145 138.74 105.341 138.694V139.979C104.963 140.084 104.598 140.137 104.247 140.137C102.971 140.137 102.333 139.433 102.333 138.024V133.834H101.116V132.604H102.333V130.806H103.994ZM108.342 140H106.681V132.604H108.342V140ZM106.578 130.683C106.578 130.427 106.658 130.215 106.817 130.047C106.981 129.878 107.214 129.794 107.515 129.794C107.815 129.794 108.048 129.878 108.212 130.047C108.376 130.215 108.458 130.427 108.458 130.683C108.458 130.933 108.376 131.143 108.212 131.312C108.048 131.476 107.815 131.558 107.515 131.558C107.214 131.558 106.981 131.476 106.817 131.312C106.658 131.143 106.578 130.933 106.578 130.683ZM109.846 136.233C109.846 135.509 109.989 134.857 110.276 134.278C110.563 133.695 110.967 133.248 111.486 132.938C112.006 132.624 112.603 132.467 113.277 132.467C114.275 132.467 115.084 132.788 115.704 133.431C116.328 134.073 116.666 134.925 116.716 135.987L116.723 136.377C116.723 137.106 116.581 137.758 116.299 138.332C116.021 138.906 115.62 139.351 115.096 139.665C114.576 139.979 113.975 140.137 113.291 140.137C112.247 140.137 111.411 139.79 110.782 139.098C110.158 138.4 109.846 137.473 109.846 136.315V136.233ZM111.507 136.377C111.507 137.138 111.664 137.735 111.979 138.168C112.293 138.596 112.73 138.811 113.291 138.811C113.852 138.811 114.287 138.592 114.597 138.154C114.911 137.717 115.068 137.076 115.068 136.233C115.068 135.486 114.907 134.894 114.583 134.456C114.264 134.019 113.829 133.8 113.277 133.8C112.735 133.8 112.304 134.016 111.985 134.449C111.666 134.878 111.507 135.52 111.507 136.377ZM119.669 132.604L119.717 133.458C120.264 132.797 120.981 132.467 121.87 132.467C123.41 132.467 124.194 133.349 124.222 135.112V140H122.561V135.208C122.561 134.739 122.458 134.392 122.253 134.169C122.052 133.941 121.722 133.827 121.262 133.827C120.592 133.827 120.093 134.13 119.765 134.736V140H118.104V132.604H119.669ZM130.066 137.99C130.066 137.694 129.943 137.468 129.697 137.313C129.456 137.159 129.052 137.022 128.487 136.903C127.922 136.785 127.451 136.634 127.072 136.452C126.243 136.051 125.828 135.47 125.828 134.709C125.828 134.071 126.097 133.538 126.635 133.109C127.173 132.681 127.856 132.467 128.686 132.467C129.57 132.467 130.283 132.686 130.825 133.123C131.372 133.561 131.646 134.128 131.646 134.825H129.984C129.984 134.506 129.866 134.242 129.629 134.032C129.392 133.818 129.077 133.711 128.686 133.711C128.321 133.711 128.022 133.795 127.79 133.964C127.562 134.132 127.448 134.358 127.448 134.641C127.448 134.896 127.555 135.094 127.77 135.235C127.984 135.377 128.417 135.52 129.068 135.666C129.72 135.807 130.23 135.978 130.6 136.179C130.973 136.375 131.249 136.612 131.427 136.89C131.609 137.168 131.7 137.505 131.7 137.901C131.7 138.567 131.424 139.107 130.873 139.521C130.322 139.932 129.599 140.137 128.706 140.137C128.1 140.137 127.56 140.027 127.086 139.809C126.612 139.59 126.243 139.289 125.979 138.906C125.714 138.523 125.582 138.111 125.582 137.669H127.195C127.218 138.061 127.366 138.364 127.64 138.578C127.913 138.788 128.275 138.893 128.727 138.893C129.164 138.893 129.497 138.811 129.725 138.646C129.952 138.478 130.066 138.259 130.066 137.99ZM133.389 142.242L132.493 141.709C132.757 141.294 132.938 140.932 133.033 140.622C133.133 140.317 133.186 140.005 133.19 139.686V138.394H134.688L134.681 139.59C134.676 140.073 134.553 140.556 134.312 141.039C134.075 141.527 133.767 141.928 133.389 142.242ZM145.611 135.782H141.605V140H139.876V130.047H146.199V131.441H141.605V134.401H145.611V135.782ZM149.18 140H147.519V132.604H149.18V140ZM147.416 130.683C147.416 130.427 147.496 130.215 147.655 130.047C147.819 129.878 148.052 129.794 148.353 129.794C148.653 129.794 148.886 129.878 149.05 130.047C149.214 130.215 149.296 130.427 149.296 130.683C149.296 130.933 149.214 131.143 149.05 131.312C148.886 131.476 148.653 131.558 148.353 131.558C148.052 131.558 147.819 131.476 147.655 131.312C147.496 131.143 147.416 130.933 147.416 130.683ZM152.762 140H151.101V129.5H152.762V140ZM157.834 140.137C156.781 140.137 155.927 139.806 155.271 139.146C154.619 138.48 154.293 137.596 154.293 136.493V136.288C154.293 135.55 154.434 134.891 154.717 134.312C155.004 133.729 155.405 133.276 155.92 132.952C156.435 132.629 157.009 132.467 157.643 132.467C158.65 132.467 159.427 132.788 159.974 133.431C160.525 134.073 160.801 134.982 160.801 136.158V136.828H155.968C156.018 137.439 156.221 137.922 156.576 138.277C156.936 138.633 157.387 138.811 157.93 138.811C158.691 138.811 159.311 138.503 159.789 137.888L160.685 138.742C160.388 139.184 159.992 139.528 159.495 139.774C159.003 140.016 158.449 140.137 157.834 140.137ZM157.636 133.8C157.18 133.8 156.811 133.959 156.528 134.278C156.25 134.597 156.073 135.042 155.995 135.611H159.16V135.488C159.124 134.932 158.976 134.513 158.716 134.23C158.456 133.943 158.096 133.8 157.636 133.8ZM166.242 137.99C166.242 137.694 166.119 137.468 165.873 137.313C165.632 137.159 165.228 137.022 164.663 136.903C164.098 136.785 163.626 136.634 163.248 136.452C162.419 136.051 162.004 135.47 162.004 134.709C162.004 134.071 162.273 133.538 162.811 133.109C163.348 132.681 164.032 132.467 164.861 132.467C165.745 132.467 166.459 132.686 167.001 133.123C167.548 133.561 167.821 134.128 167.821 134.825H166.16C166.16 134.506 166.042 134.242 165.805 134.032C165.568 133.818 165.253 133.711 164.861 133.711C164.497 133.711 164.198 133.795 163.966 133.964C163.738 134.132 163.624 134.358 163.624 134.641C163.624 134.896 163.731 135.094 163.945 135.235C164.16 135.377 164.592 135.52 165.244 135.666C165.896 135.807 166.406 135.978 166.775 136.179C167.149 136.375 167.425 136.612 167.603 136.89C167.785 137.168 167.876 137.505 167.876 137.901C167.876 138.567 167.6 139.107 167.049 139.521C166.497 139.932 165.775 140.137 164.882 140.137C164.276 140.137 163.736 140.027 163.262 139.809C162.788 139.59 162.419 139.289 162.154 138.906C161.89 138.523 161.758 138.111 161.758 137.669H163.371C163.394 138.061 163.542 138.364 163.815 138.578C164.089 138.788 164.451 138.893 164.902 138.893C165.34 138.893 165.673 138.811 165.9 138.646C166.128 138.478 166.242 138.259 166.242 137.99ZM51.9453 156C51.8724 155.859 51.8086 155.629 51.7539 155.31C51.2253 155.861 50.5781 156.137 49.8125 156.137C49.0697 156.137 48.4635 155.925 47.9941 155.501C47.5247 155.077 47.29 154.553 47.29 153.929C47.29 153.14 47.5817 152.536 48.165 152.117C48.7529 151.693 49.5915 151.481 50.6807 151.481H51.6992V150.996C51.6992 150.613 51.5921 150.308 51.3779 150.08C51.1637 149.848 50.8379 149.731 50.4004 149.731C50.0221 149.731 49.7122 149.827 49.4707 150.019C49.2292 150.205 49.1084 150.445 49.1084 150.736H47.4473C47.4473 150.331 47.5817 149.952 47.8506 149.602C48.1195 149.246 48.484 148.968 48.9443 148.768C49.4092 148.567 49.9264 148.467 50.4961 148.467C51.362 148.467 52.0524 148.686 52.5674 149.123C53.0824 149.556 53.3467 150.167 53.3604 150.955V154.291C53.3604 154.956 53.4538 155.487 53.6406 155.884V156H51.9453ZM50.1201 154.804C50.4482 154.804 50.7559 154.724 51.043 154.564C51.3346 154.405 51.5534 154.191 51.6992 153.922V152.527H50.8037C50.1885 152.527 49.7259 152.634 49.416 152.849C49.1061 153.063 48.9512 153.366 48.9512 153.758C48.9512 154.077 49.056 154.332 49.2656 154.523C49.4798 154.71 49.7646 154.804 50.1201 154.804ZM56.6416 148.604L56.6895 149.458C57.2363 148.797 57.9541 148.467 58.8428 148.467C60.3831 148.467 61.167 149.349 61.1943 151.112V156H59.5332V151.208C59.5332 150.739 59.4307 150.392 59.2256 150.169C59.0251 149.941 58.6947 149.827 58.2344 149.827C57.5645 149.827 57.0654 150.13 56.7373 150.736V156H55.0762V148.604H56.6416ZM62.582 152.247C62.582 151.108 62.8464 150.194 63.375 149.506C63.9036 148.813 64.6123 148.467 65.501 148.467C66.2848 148.467 66.9183 148.74 67.4014 149.287V145.5H69.0625V156H67.5586L67.4766 155.234C66.9798 155.836 66.3167 156.137 65.4873 156.137C64.6214 156.137 63.9196 155.788 63.3818 155.091C62.8486 154.394 62.582 153.446 62.582 152.247ZM64.2432 152.391C64.2432 153.143 64.3867 153.73 64.6738 154.154C64.9655 154.574 65.3779 154.783 65.9111 154.783C66.5902 154.783 67.0869 154.48 67.4014 153.874V150.716C67.096 150.123 66.6038 149.827 65.9248 149.827C65.387 149.827 64.9723 150.041 64.6807 150.47C64.389 150.894 64.2432 151.534 64.2432 152.391ZM74.4424 156V146.047H77.3818C78.2614 146.047 79.0407 146.243 79.7197 146.635C80.4033 147.027 80.932 147.583 81.3057 148.303C81.6794 149.023 81.8662 149.848 81.8662 150.777V151.276C81.8662 152.22 81.6771 153.049 81.2988 153.765C80.9251 154.48 80.3896 155.032 79.6924 155.419C78.9997 155.806 78.2044 156 77.3066 156H74.4424ZM76.1719 147.441V154.619H77.2998C78.2067 154.619 78.9017 154.337 79.3848 153.771C79.8724 153.202 80.1208 152.386 80.1299 151.324V150.771C80.1299 149.69 79.8952 148.866 79.4258 148.296C78.9564 147.726 78.2751 147.441 77.3818 147.441H76.1719ZM85.1953 156H83.5342V148.604H85.1953V156ZM83.4316 146.683C83.4316 146.427 83.5114 146.215 83.6709 146.047C83.835 145.878 84.0674 145.794 84.3682 145.794C84.6689 145.794 84.9014 145.878 85.0654 146.047C85.2295 146.215 85.3115 146.427 85.3115 146.683C85.3115 146.933 85.2295 147.143 85.0654 147.312C84.9014 147.476 84.6689 147.558 84.3682 147.558C84.0674 147.558 83.835 147.476 83.6709 147.312C83.5114 147.143 83.4316 146.933 83.4316 146.683ZM90.0488 154.811C90.4635 154.811 90.8076 154.69 91.0811 154.448C91.3545 154.207 91.5003 153.908 91.5186 153.553H93.084C93.0658 154.013 92.9222 154.444 92.6533 154.845C92.3844 155.241 92.0199 155.556 91.5596 155.788C91.0993 156.021 90.6025 156.137 90.0693 156.137C89.0348 156.137 88.2145 155.802 87.6084 155.132C87.0023 154.462 86.6992 153.537 86.6992 152.356V152.186C86.6992 151.06 87 150.16 87.6016 149.485C88.2031 148.806 89.0234 148.467 90.0625 148.467C90.9421 148.467 91.6576 148.724 92.209 149.239C92.765 149.75 93.0566 150.422 93.084 151.256H91.5186C91.5003 150.832 91.3545 150.483 91.0811 150.21C90.8122 149.937 90.4681 149.8 90.0488 149.8C89.5111 149.8 89.0964 149.996 88.8047 150.388C88.513 150.775 88.3649 151.365 88.3604 152.158V152.425C88.3604 153.227 88.5039 153.826 88.791 154.223C89.0827 154.615 89.502 154.811 90.0488 154.811ZM96.4199 146.806V148.604H97.7256V149.834H96.4199V153.963C96.4199 154.245 96.4746 154.451 96.584 154.578C96.6979 154.701 96.8984 154.763 97.1855 154.763C97.377 154.763 97.5706 154.74 97.7666 154.694V155.979C97.3883 156.084 97.0238 156.137 96.6729 156.137C95.3968 156.137 94.7588 155.433 94.7588 154.024V149.834H93.542V148.604H94.7588V146.806H96.4199ZM100.768 156H99.1064V148.604H100.768V156ZM99.0039 146.683C99.0039 146.427 99.0837 146.215 99.2432 146.047C99.4072 145.878 99.6396 145.794 99.9404 145.794C100.241 145.794 100.474 145.878 100.638 146.047C100.802 146.215 100.884 146.427 100.884 146.683C100.884 146.933 100.802 147.143 100.638 147.312C100.474 147.476 100.241 147.558 99.9404 147.558C99.6396 147.558 99.4072 147.476 99.2432 147.312C99.0837 147.143 99.0039 146.933 99.0039 146.683ZM102.271 152.233C102.271 151.509 102.415 150.857 102.702 150.278C102.989 149.695 103.393 149.248 103.912 148.938C104.432 148.624 105.029 148.467 105.703 148.467C106.701 148.467 107.51 148.788 108.13 149.431C108.754 150.073 109.091 150.925 109.142 151.987L109.148 152.377C109.148 153.106 109.007 153.758 108.725 154.332C108.447 154.906 108.046 155.351 107.521 155.665C107.002 155.979 106.4 156.137 105.717 156.137C104.673 156.137 103.837 155.79 103.208 155.098C102.584 154.4 102.271 153.473 102.271 152.315V152.233ZM103.933 152.377C103.933 153.138 104.09 153.735 104.404 154.168C104.719 154.596 105.156 154.811 105.717 154.811C106.277 154.811 106.713 154.592 107.022 154.154C107.337 153.717 107.494 153.076 107.494 152.233C107.494 151.486 107.332 150.894 107.009 150.456C106.69 150.019 106.255 149.8 105.703 149.8C105.161 149.8 104.73 150.016 104.411 150.449C104.092 150.878 103.933 151.52 103.933 152.377ZM112.095 148.604L112.143 149.458C112.689 148.797 113.407 148.467 114.296 148.467C115.836 148.467 116.62 149.349 116.647 151.112V156H114.986V151.208C114.986 150.739 114.884 150.392 114.679 150.169C114.478 149.941 114.148 149.827 113.688 149.827C113.018 149.827 112.519 150.13 112.19 150.736V156H110.529V148.604H112.095ZM122.766 156C122.693 155.859 122.629 155.629 122.574 155.31C122.046 155.861 121.398 156.137 120.633 156.137C119.89 156.137 119.284 155.925 118.814 155.501C118.345 155.077 118.11 154.553 118.11 153.929C118.11 153.14 118.402 152.536 118.985 152.117C119.573 151.693 120.412 151.481 121.501 151.481H122.52V150.996C122.52 150.613 122.412 150.308 122.198 150.08C121.984 149.848 121.658 149.731 121.221 149.731C120.842 149.731 120.533 149.827 120.291 150.019C120.049 150.205 119.929 150.445 119.929 150.736H118.268C118.268 150.331 118.402 149.952 118.671 149.602C118.94 149.246 119.304 148.968 119.765 148.768C120.229 148.567 120.747 148.467 121.316 148.467C122.182 148.467 122.873 148.686 123.388 149.123C123.903 149.556 124.167 150.167 124.181 150.955V154.291C124.181 154.956 124.274 155.487 124.461 155.884V156H122.766ZM120.94 154.804C121.269 154.804 121.576 154.724 121.863 154.564C122.155 154.405 122.374 154.191 122.52 153.922V152.527H121.624C121.009 152.527 120.546 152.634 120.236 152.849C119.926 153.063 119.771 153.366 119.771 153.758C119.771 154.077 119.876 154.332 120.086 154.523C120.3 154.71 120.585 154.804 120.94 154.804ZM129.793 150.121C129.574 150.085 129.349 150.066 129.116 150.066C128.355 150.066 127.842 150.358 127.578 150.941V156H125.917V148.604H127.503L127.544 149.431C127.945 148.788 128.501 148.467 129.212 148.467C129.449 148.467 129.645 148.499 129.8 148.562L129.793 150.121ZM132.609 156H130.948V148.604H132.609V156ZM130.846 146.683C130.846 146.427 130.925 146.215 131.085 146.047C131.249 145.878 131.481 145.794 131.782 145.794C132.083 145.794 132.315 145.878 132.479 146.047C132.644 146.215 132.726 146.427 132.726 146.683C132.726 146.933 132.644 147.143 132.479 147.312C132.315 147.476 132.083 147.558 131.782 147.558C131.481 147.558 131.249 147.476 131.085 147.312C130.925 147.143 130.846 146.933 130.846 146.683ZM137.682 156.137C136.629 156.137 135.774 155.806 135.118 155.146C134.466 154.48 134.141 153.596 134.141 152.493V152.288C134.141 151.55 134.282 150.891 134.564 150.312C134.852 149.729 135.253 149.276 135.768 148.952C136.283 148.629 136.857 148.467 137.49 148.467C138.497 148.467 139.274 148.788 139.821 149.431C140.373 150.073 140.648 150.982 140.648 152.158V152.828H135.815C135.866 153.439 136.068 153.922 136.424 154.277C136.784 154.633 137.235 154.811 137.777 154.811C138.538 154.811 139.158 154.503 139.637 153.888L140.532 154.742C140.236 155.184 139.84 155.528 139.343 155.774C138.851 156.016 138.297 156.137 137.682 156.137ZM137.483 149.8C137.028 149.8 136.659 149.959 136.376 150.278C136.098 150.597 135.92 151.042 135.843 151.611H139.008V151.488C138.971 150.932 138.823 150.513 138.563 150.23C138.304 149.943 137.944 149.8 137.483 149.8ZM146.09 153.99C146.09 153.694 145.967 153.468 145.721 153.313C145.479 153.159 145.076 153.022 144.511 152.903C143.946 152.785 143.474 152.634 143.096 152.452C142.266 152.051 141.852 151.47 141.852 150.709C141.852 150.071 142.12 149.538 142.658 149.109C143.196 148.681 143.88 148.467 144.709 148.467C145.593 148.467 146.306 148.686 146.849 149.123C147.396 149.561 147.669 150.128 147.669 150.825H146.008C146.008 150.506 145.889 150.242 145.652 150.032C145.415 149.818 145.101 149.711 144.709 149.711C144.344 149.711 144.046 149.795 143.813 149.964C143.586 150.132 143.472 150.358 143.472 150.641C143.472 150.896 143.579 151.094 143.793 151.235C144.007 151.377 144.44 151.52 145.092 151.666C145.743 151.807 146.254 151.978 146.623 152.179C146.997 152.375 147.272 152.612 147.45 152.89C147.632 153.168 147.724 153.505 147.724 153.901C147.724 154.567 147.448 155.107 146.896 155.521C146.345 155.932 145.623 156.137 144.729 156.137C144.123 156.137 143.583 156.027 143.109 155.809C142.635 155.59 142.266 155.289 142.002 154.906C141.738 154.523 141.605 154.111 141.605 153.669H143.219C143.242 154.061 143.39 154.364 143.663 154.578C143.937 154.788 144.299 154.893 144.75 154.893C145.188 154.893 145.52 154.811 145.748 154.646C145.976 154.478 146.09 154.259 146.09 153.99Z" fill="#0B406C"/>
<path d="M70.085 173.76C69.9847 174.822 69.5928 175.651 68.9092 176.248C68.2256 176.84 67.3164 177.137 66.1816 177.137C65.3887 177.137 64.6891 176.95 64.083 176.576C63.4814 176.198 63.0166 175.662 62.6885 174.97C62.3604 174.277 62.1895 173.473 62.1758 172.557V171.627C62.1758 170.688 62.3421 169.861 62.6748 169.146C63.0075 168.43 63.4837 167.879 64.1035 167.491C64.7279 167.104 65.4479 166.91 66.2637 166.91C67.362 166.91 68.2461 167.209 68.916 167.806C69.5859 168.403 69.9756 169.246 70.085 170.335H68.3623C68.2803 169.619 68.0706 169.104 67.7334 168.79C67.4007 168.471 66.9108 168.312 66.2637 168.312C65.5117 168.312 64.9329 168.587 64.5273 169.139C64.1263 169.686 63.9212 170.49 63.9121 171.552V172.434C63.9121 173.509 64.1035 174.329 64.4863 174.895C64.8737 175.46 65.4388 175.742 66.1816 175.742C66.8607 175.742 67.3711 175.59 67.7129 175.284C68.0547 174.979 68.2712 174.471 68.3623 173.76H70.085ZM73.2432 177H71.582V166.5H73.2432V177ZM76.8252 177H75.1641V169.604H76.8252V177ZM75.0615 167.683C75.0615 167.427 75.1413 167.215 75.3008 167.047C75.4648 166.878 75.6973 166.794 75.998 166.794C76.2988 166.794 76.5312 166.878 76.6953 167.047C76.8594 167.215 76.9414 167.427 76.9414 167.683C76.9414 167.933 76.8594 168.143 76.6953 168.312C76.5312 168.476 76.2988 168.558 75.998 168.558C75.6973 168.558 75.4648 168.476 75.3008 168.312C75.1413 168.143 75.0615 167.933 75.0615 167.683ZM81.6787 175.811C82.0934 175.811 82.4375 175.69 82.7109 175.448C82.9844 175.207 83.1302 174.908 83.1484 174.553H84.7139C84.6956 175.013 84.5521 175.444 84.2832 175.845C84.0143 176.241 83.6497 176.556 83.1895 176.788C82.7292 177.021 82.2324 177.137 81.6992 177.137C80.6647 177.137 79.8444 176.802 79.2383 176.132C78.6322 175.462 78.3291 174.537 78.3291 173.356V173.186C78.3291 172.06 78.6299 171.16 79.2314 170.485C79.833 169.806 80.6533 169.467 81.6924 169.467C82.5719 169.467 83.2874 169.724 83.8389 170.239C84.3949 170.75 84.6865 171.422 84.7139 172.256H83.1484C83.1302 171.832 82.9844 171.483 82.7109 171.21C82.4421 170.937 82.098 170.8 81.6787 170.8C81.141 170.8 80.7262 170.996 80.4346 171.388C80.1429 171.775 79.9948 172.365 79.9902 173.158V173.425C79.9902 174.227 80.1338 174.826 80.4209 175.223C80.7126 175.615 81.1318 175.811 81.6787 175.811ZM88.3711 173.828L87.6328 174.587V177H85.9717V166.5H87.6328V172.557L88.1523 171.907L90.1963 169.604H92.1924L89.4443 172.687L92.4863 177H90.5654L88.3711 173.828ZM98.4062 170.41C98.9486 169.781 99.6344 169.467 100.464 169.467C102.041 169.467 102.84 170.367 102.863 172.167V177H101.202V172.229C101.202 171.718 101.09 171.358 100.867 171.148C100.648 170.934 100.325 170.827 99.8965 170.827C99.2311 170.827 98.7344 171.123 98.4062 171.716V177H96.7451V166.5H98.4062V170.41ZM107.806 177.137C106.753 177.137 105.898 176.806 105.242 176.146C104.59 175.48 104.265 174.596 104.265 173.493V173.288C104.265 172.55 104.406 171.891 104.688 171.312C104.976 170.729 105.377 170.276 105.892 169.952C106.407 169.629 106.981 169.467 107.614 169.467C108.621 169.467 109.398 169.788 109.945 170.431C110.497 171.073 110.772 171.982 110.772 173.158V173.828H105.939C105.99 174.439 106.192 174.922 106.548 175.277C106.908 175.633 107.359 175.811 107.901 175.811C108.662 175.811 109.282 175.503 109.761 174.888L110.656 175.742C110.36 176.184 109.964 176.528 109.467 176.774C108.975 177.016 108.421 177.137 107.806 177.137ZM107.607 170.8C107.152 170.8 106.783 170.959 106.5 171.278C106.222 171.597 106.044 172.042 105.967 172.611H109.132V172.488C109.095 171.932 108.947 171.513 108.688 171.23C108.428 170.943 108.068 170.8 107.607 170.8ZM115.94 171.121C115.722 171.085 115.496 171.066 115.264 171.066C114.503 171.066 113.99 171.358 113.726 171.941V177H112.064V169.604H113.65L113.691 170.431C114.092 169.788 114.648 169.467 115.359 169.467C115.596 169.467 115.792 169.499 115.947 169.562L115.94 171.121ZM120.11 177.137C119.058 177.137 118.203 176.806 117.547 176.146C116.895 175.48 116.569 174.596 116.569 173.493V173.288C116.569 172.55 116.711 171.891 116.993 171.312C117.28 170.729 117.681 170.276 118.196 169.952C118.711 169.629 119.285 169.467 119.919 169.467C120.926 169.467 121.703 169.788 122.25 170.431C122.801 171.073 123.077 171.982 123.077 173.158V173.828H118.244C118.294 174.439 118.497 174.922 118.853 175.277C119.213 175.633 119.664 175.811 120.206 175.811C120.967 175.811 121.587 175.503 122.065 174.888L122.961 175.742C122.665 176.184 122.268 176.528 121.771 176.774C121.279 177.016 120.726 177.137 120.11 177.137ZM119.912 170.8C119.456 170.8 119.087 170.959 118.805 171.278C118.527 171.597 118.349 172.042 118.271 172.611H121.437V172.488C121.4 171.932 121.252 171.513 120.992 171.23C120.732 170.943 120.372 170.8 119.912 170.8Z" fill="#BFFBDE"/>
<defs>
<filter id="filter0_d" x="0" y="0" width="197" height="222" filterUnits="userSpaceOnUse" color-interpolation-filters="sRGB">
<feFlood flood-opacity="0" result="BackgroundImageFix"/>
<feColorMatrix in="SourceAlpha" type="matrix" values="0 0 0 0 0 0 0 0 0 0 0 0 0 0 0 0 0 0 127 0"/>
<feOffset dy="4"/>
<feGaussianBlur stdDeviation="2"/>
<feColorMatrix type="matrix" values="0 0 0 0 0 0 0 0 0 0 0 0 0 0 0 0 0 0 0.25 0"/>
<feBlend mode="normal" in2="BackgroundImageFix" result="effect1_dropShadow"/>
<feBlend mode="normal" in="SourceGraphic" in2="effect1_dropShadow" result="shape"/>
</filter>
<linearGradient id="paint0_linear" x1="68.6189" y1="17.1022" x2="107.826" y2="55.766" gradientUnits="userSpaceOnUse">
<stop stop-color="#387EB8"/>
<stop offset="1" stop-color="#366994"/>
</linearGradient>
<linearGradient id="paint1_linear" x1="92.5906" y1="42.0278" x2="134.687" y2="81.6672" gradientUnits="userSpaceOnUse">
<stop stop-color="#FFE052"/>
<stop offset="1" stop-color="#FFC331"/>
</linearGradient>
</defs>
</svg>
