<svg width="138" height="156" viewBox="0 0 138 156" fill="none" xmlns="http://www.w3.org/2000/svg">
<g filter="url(#filter0_d)">
<rect x="4" width="130" height="148" rx="39" fill="#405C50"/>
</g>
<g clip-path="url(#clip0)">
<path d="M70.1459 6.93155C56.3846 6.93155 57.2439 12.9554 57.2439 12.9554L57.2593 19.1961H70.3914V21.0698H52.0433C52.0433 21.0698 43.2374 20.0618 43.2374 34.0777C43.2374 48.0936 50.9234 47.5966 50.9234 47.5966H55.5104V41.0926C55.5104 41.0926 55.2631 33.3344 63.0736 33.3344H76.0983C76.0983 33.3344 83.4161 33.4538 83.4161 26.1956V14.1943C83.4161 14.1943 84.5271 6.93155 70.1459 6.93155ZM62.9049 11.1281C64.2114 11.1281 65.2674 12.1941 65.2674 13.5129C65.2674 14.8317 64.2114 15.8977 62.9049 15.8977C61.5983 15.8977 60.5423 14.8317 60.5423 13.5129C60.5423 12.1941 61.5983 11.1281 62.9049 11.1281Z" fill="url(#paint0_linear)"/>
<path d="M70.5364 61.3642C84.2977 61.3642 83.4383 55.3403 83.4383 55.3403L83.423 49.0996H70.2909V47.2259H88.639C88.639 47.2259 97.4449 48.2339 97.4449 34.218C97.4449 20.2021 89.7589 20.6992 89.7589 20.6992H85.1719V27.2031C85.1719 27.2031 85.4191 34.9613 77.6087 34.9613H64.584C64.584 34.9613 57.2662 34.8419 57.2662 42.1002V54.1015C57.2662 54.1015 56.1552 61.3642 70.5364 61.3642ZM77.7774 57.1676C76.4709 57.1676 75.4149 56.1017 75.4149 54.7828C75.4149 53.464 76.4709 52.3981 77.7774 52.3981C79.084 52.3981 80.14 53.464 80.14 54.7828C80.14 56.1017 79.084 57.1676 77.7774 57.1676Z" fill="url(#paint1_linear)"/>
</g>
<rect x="14.3175" y="69.1589" width="110.053" height="64.3178" rx="16" fill="#8AD4B5"/>
<path d="M22.5978 78.657V83.408C22.5978 84.1632 22.3553 84.7621 21.8702 85.2048C21.3885 85.6443 20.7455 85.864 19.9415 85.864C19.1277 85.864 18.4816 85.6475 18.003 85.2146C17.5245 84.7784 17.2853 84.1746 17.2853 83.4031V78.657H18.5157V83.4128C18.5157 83.8881 18.6362 84.2511 18.8771 84.5017C19.1179 84.7524 19.4728 84.8777 19.9415 84.8777C20.892 84.8777 21.3673 84.3764 21.3673 83.3738V78.657H22.5978ZM24.9073 80.4832L24.9415 81.0935C25.3321 80.6215 25.8448 80.3855 26.4796 80.3855C27.5799 80.3855 28.1398 81.0154 28.1593 82.2751V85.7664H26.9728V82.3435C26.9728 82.0082 26.8995 81.7608 26.753 81.6013C26.6098 81.4386 26.3738 81.3572 26.045 81.3572C25.5665 81.3572 25.2101 81.5736 24.9757 82.0066V85.7664H23.7892V80.4832H24.9073ZM30.6349 85.7664H29.4483V80.4832H30.6349V85.7664ZM29.3751 79.1111C29.3751 78.9288 29.4321 78.7774 29.546 78.657C29.6632 78.5365 29.8292 78.4763 30.0441 78.4763C30.2589 78.4763 30.4249 78.5365 30.5421 78.657C30.6593 78.7774 30.7179 78.9288 30.7179 79.1111C30.7179 79.2901 30.6593 79.4399 30.5421 79.5603C30.4249 79.6775 30.2589 79.7361 30.0441 79.7361C29.8292 79.7361 29.6632 79.6775 29.546 79.5603C29.4321 79.4399 29.3751 79.2901 29.3751 79.1111ZM33.7941 84.2625L34.9122 80.4832H36.1378L34.3067 85.7664H33.2765L31.4308 80.4832H32.6612L33.7941 84.2625ZM39.1407 85.864C38.3888 85.864 37.7784 85.628 37.3097 85.156C36.8442 84.6807 36.6114 84.0492 36.6114 83.2615V83.115C36.6114 82.5876 36.7123 82.1173 36.9142 81.7039C37.1192 81.2872 37.4057 80.9633 37.7735 80.7322C38.1414 80.5011 38.5515 80.3855 39.004 80.3855C39.7234 80.3855 40.2784 80.615 40.6691 81.074C41.0629 81.533 41.2599 82.1824 41.2599 83.0222V83.5007H37.8077C37.8435 83.9369 37.9884 84.282 38.2423 84.5359C38.4995 84.7898 38.8217 84.9167 39.2091 84.9167C39.7527 84.9167 40.1954 84.697 40.5372 84.2576L41.1769 84.8679C40.9653 85.1837 40.6821 85.4294 40.3273 85.6052C39.9757 85.7778 39.5802 85.864 39.1407 85.864ZM38.9991 81.3376C38.6736 81.3376 38.4099 81.4516 38.2081 81.6794C38.0095 81.9073 37.8826 82.2247 37.8273 82.6316H40.088V82.5437C40.062 82.1466 39.9562 81.8471 39.7706 81.6453C39.5851 81.4402 39.3279 81.3376 38.9991 81.3376ZM44.9513 81.5671C44.795 81.5411 44.6339 81.5281 44.4679 81.5281C43.9243 81.5281 43.558 81.7364 43.3692 82.1531V85.7664H42.1827V80.4832H43.3155L43.3448 81.074C43.6313 80.615 44.0284 80.3855 44.5362 80.3855C44.7055 80.3855 44.8455 80.4083 44.9562 80.4539L44.9513 81.5671ZM48.6622 84.3308C48.6622 84.1192 48.5743 83.9581 48.3985 83.8474C48.226 83.7367 47.9379 83.6391 47.5343 83.5544C47.1306 83.4698 46.7937 83.3624 46.5235 83.2322C45.9311 82.9457 45.6349 82.5307 45.6349 81.9871C45.6349 81.5313 45.8269 81.1505 46.211 80.8445C46.5952 80.5385 47.0834 80.3855 47.6759 80.3855C48.3074 80.3855 48.8168 80.5417 49.2042 80.8542C49.5948 81.1667 49.7901 81.572 49.7901 82.0701H48.6036C48.6036 81.8422 48.519 81.6534 48.3497 81.5037C48.1804 81.3507 47.9558 81.2742 47.6759 81.2742C47.4155 81.2742 47.2023 81.3344 47.0362 81.4548C46.8735 81.5753 46.7921 81.7364 46.7921 81.9382C46.7921 82.1205 46.8686 82.2621 47.0216 82.363C47.1746 82.4639 47.4838 82.5665 47.9493 82.6707C48.4148 82.7716 48.7794 82.8936 49.0431 83.0369C49.31 83.1768 49.5069 83.3461 49.6339 83.5447C49.7641 83.7432 49.8292 83.9841 49.8292 84.2673C49.8292 84.7426 49.6323 85.1283 49.2384 85.4246C48.8445 85.7175 48.3286 85.864 47.6905 85.864C47.2576 85.864 46.8719 85.7859 46.5333 85.6296C46.1948 85.4734 45.9311 85.2585 45.7423 84.9851C45.5535 84.7117 45.4591 84.4171 45.4591 84.1013H46.6114C46.6277 84.3813 46.7335 84.5977 46.9288 84.7507C47.1241 84.9005 47.3829 84.9753 47.7052 84.9753C48.0177 84.9753 48.2553 84.9167 48.4181 84.7996C48.5808 84.6791 48.6622 84.5229 48.6622 84.3308ZM52.129 85.7664H50.9425V80.4832H52.129V85.7664ZM50.8692 79.1111C50.8692 78.9288 50.9262 78.7774 51.0401 78.657C51.1573 78.5365 51.3233 78.4763 51.5382 78.4763C51.753 78.4763 51.9191 78.5365 52.0362 78.657C52.1534 78.7774 52.212 78.9288 52.212 79.1111C52.212 79.2901 52.1534 79.4399 52.0362 79.5603C51.9191 79.6775 51.753 79.7361 51.5382 79.7361C51.3233 79.7361 51.1573 79.6775 51.0401 79.5603C50.9262 79.4399 50.8692 79.2901 50.8692 79.1111ZM54.9122 79.199V80.4832H55.8448V81.3621H54.9122V84.3113C54.9122 84.5131 54.9513 84.6596 55.0294 84.7507C55.1108 84.8386 55.254 84.8826 55.4591 84.8826C55.5958 84.8826 55.7342 84.8663 55.8741 84.8337V85.7517C55.6039 85.8266 55.3435 85.864 55.0929 85.864C54.1814 85.864 53.7257 85.3611 53.7257 84.3552V81.3621H52.8566V80.4832H53.7257V79.199H54.9122ZM58.6036 84.0671L59.6778 80.4832H60.9425L58.8429 86.5671C58.5206 87.4558 57.9737 87.9001 57.2023 87.9001C57.0297 87.9001 56.8393 87.8708 56.631 87.8123V86.8943L56.8556 86.9089C57.1551 86.9089 57.3797 86.8536 57.5294 86.7429C57.6824 86.6355 57.8028 86.4532 57.8907 86.196L58.0616 85.7419L56.2062 80.4832H57.4855L58.6036 84.0671ZM63.8966 83.0759C63.8966 82.5583 63.9991 82.0929 64.2042 81.6794C64.4093 81.2628 64.6974 80.9438 65.0685 80.7224C65.4396 80.4978 65.866 80.3855 66.3478 80.3855C67.0607 80.3855 67.6385 80.615 68.0812 81.074C68.5271 81.533 68.768 82.1417 68.8038 82.9001L68.8087 83.1785C68.8087 83.6993 68.7078 84.1648 68.506 84.575C68.3074 84.9851 68.0209 85.3025 67.6466 85.5271C67.2755 85.7517 66.8458 85.864 66.3575 85.864C65.6121 85.864 65.0148 85.6166 64.5655 85.1218C64.1196 84.6238 63.8966 83.9613 63.8966 83.1345V83.0759ZM65.0831 83.1785C65.0831 83.7221 65.1954 84.1485 65.42 84.4578C65.6446 84.7638 65.9571 84.9167 66.3575 84.9167C66.7579 84.9167 67.0688 84.7605 67.2901 84.448C67.5148 84.1355 67.6271 83.6781 67.6271 83.0759C67.6271 82.5421 67.5115 82.1189 67.2804 81.8064C67.0525 81.4939 66.7416 81.3376 66.3478 81.3376C65.9604 81.3376 65.6528 81.4923 65.4249 81.8015C65.197 82.1075 65.0831 82.5665 65.0831 83.1785ZM70.2296 85.7664V81.3621H69.4239V80.4832H70.2296V79.9998C70.2296 79.4138 70.3924 78.9613 70.7179 78.6423C71.0434 78.3233 71.4991 78.1638 72.0851 78.1638C72.2934 78.1638 72.5148 78.1931 72.7491 78.2517L72.7198 79.1794C72.5896 79.1534 72.4383 79.1404 72.2657 79.1404C71.6993 79.1404 71.4161 79.4317 71.4161 80.0144V80.4832H72.4903V81.3621H71.4161V85.7664H70.2296ZM77.5636 78.657L79.6144 84.1062L81.6603 78.657H83.2569V85.7664H82.0265V83.4226L82.1485 80.2878L80.0489 85.7664H79.1651L77.0704 80.2927L77.1925 83.4226V85.7664H75.962V78.657H77.5636ZM85.8692 85.7664H84.6827V80.4832H85.8692V85.7664ZM84.6095 79.1111C84.6095 78.9288 84.6664 78.7774 84.7804 78.657C84.8976 78.5365 85.0636 78.4763 85.2784 78.4763C85.4933 78.4763 85.6593 78.5365 85.7765 78.657C85.8937 78.7774 85.9523 78.9288 85.9523 79.1111C85.9523 79.2901 85.8937 79.4399 85.7765 79.5603C85.6593 79.6775 85.4933 79.7361 85.2784 79.7361C85.0636 79.7361 84.8976 79.6775 84.7804 79.5603C84.6664 79.4399 84.6095 79.2901 84.6095 79.1111ZM89.336 84.9167C89.6323 84.9167 89.878 84.8305 90.0733 84.658C90.2687 84.4854 90.3728 84.2722 90.3858 84.0183H91.504C91.491 84.3471 91.3885 84.6547 91.1964 84.9412C91.0043 85.2244 90.7439 85.449 90.4151 85.615C90.0864 85.781 89.7316 85.864 89.3507 85.864C88.6118 85.864 88.0258 85.6248 87.5929 85.1462C87.1599 84.6677 86.9435 84.0069 86.9435 83.1638V83.0417C86.9435 82.2377 87.1583 81.5948 87.588 81.113C88.0177 80.628 88.6036 80.3855 89.3458 80.3855C89.9741 80.3855 90.4851 80.5694 90.879 80.9373C91.2761 81.3018 91.4845 81.782 91.504 82.3777H90.3858C90.3728 82.075 90.2687 81.8259 90.0733 81.6306C89.8813 81.4353 89.6355 81.3376 89.336 81.3376C88.9519 81.3376 88.6557 81.4776 88.4474 81.7576C88.239 82.0343 88.1332 82.4558 88.13 83.0222V83.2126C88.13 83.7856 88.2325 84.2136 88.4376 84.4968C88.6459 84.7768 88.9454 84.9167 89.336 84.9167ZM93.5694 81.0593C93.9568 80.6101 94.4467 80.3855 95.0392 80.3855C96.1655 80.3855 96.7368 81.0284 96.753 82.3142V85.7664H95.5665V82.3582C95.5665 81.9936 95.4868 81.7364 95.3273 81.5867C95.171 81.4337 94.9399 81.3572 94.6339 81.3572C94.1586 81.3572 93.8038 81.5688 93.5694 81.9919V85.7664H92.3829V78.2664H93.5694V81.0593ZM99.2189 85.7664H98.0323V80.4832H99.2189V85.7664ZM97.9591 79.1111C97.9591 78.9288 98.0161 78.7774 98.13 78.657C98.2472 78.5365 98.4132 78.4763 98.628 78.4763C98.8429 78.4763 99.0089 78.5365 99.1261 78.657C99.2433 78.7774 99.3019 78.9288 99.3019 79.1111C99.3019 79.2901 99.2433 79.4399 99.1261 79.5603C99.0089 79.6775 98.8429 79.7361 98.628 79.7361C98.4132 79.7361 98.2472 79.6775 98.13 79.5603C98.0161 79.4399 97.9591 79.2901 97.9591 79.1111ZM100.308 83.0857C100.308 82.2654 100.5 81.6111 100.884 81.1228C101.271 80.6313 101.784 80.3855 102.422 80.3855C103.024 80.3855 103.498 80.5955 103.843 81.0154L103.897 80.4832H104.966V85.6052C104.966 86.2986 104.749 86.8455 104.317 87.2458C103.887 87.6462 103.306 87.8464 102.573 87.8464C102.186 87.8464 101.807 87.7651 101.436 87.6023C101.068 87.4428 100.788 87.2328 100.596 86.9724L101.157 86.2595C101.522 86.6925 101.971 86.9089 102.505 86.9089C102.899 86.9089 103.21 86.8015 103.438 86.5867C103.665 86.3751 103.779 86.0626 103.779 85.6492V85.2927C103.438 85.6736 102.982 85.864 102.412 85.864C101.794 85.864 101.288 85.6182 100.894 85.1267C100.503 84.6352 100.308 83.9548 100.308 83.0857ZM101.489 83.1882C101.489 83.7188 101.597 84.1371 101.812 84.4431C102.03 84.7458 102.331 84.8972 102.715 84.8972C103.193 84.8972 103.548 84.6921 103.779 84.282V81.9578C103.555 81.5574 103.203 81.3572 102.725 81.3572C102.334 81.3572 102.03 81.5118 101.812 81.821C101.597 82.1303 101.489 82.586 101.489 83.1882ZM109.346 85.7664C109.294 85.6654 109.248 85.5011 109.209 85.2732C108.831 85.6671 108.369 85.864 107.822 85.864C107.292 85.864 106.859 85.7126 106.524 85.4099C106.188 85.1072 106.021 84.7328 106.021 84.2869C106.021 83.7237 106.229 83.2924 106.646 82.9929C107.066 82.6902 107.664 82.5388 108.442 82.5388H109.17V82.1921C109.17 81.9187 109.094 81.7006 108.941 81.5378C108.788 81.3718 108.555 81.2888 108.242 81.2888C107.972 81.2888 107.751 81.3572 107.578 81.4939C107.406 81.6274 107.319 81.7983 107.319 82.0066H106.133C106.133 81.7169 106.229 81.4467 106.421 81.196C106.613 80.9421 106.873 80.7436 107.202 80.6003C107.534 80.4571 107.904 80.3855 108.311 80.3855C108.929 80.3855 109.422 80.5417 109.79 80.8542C110.158 81.1635 110.347 81.5997 110.357 82.1628V84.5457C110.357 85.0209 110.423 85.4001 110.557 85.6833V85.7664H109.346ZM108.042 84.9119C108.276 84.9119 108.496 84.8549 108.701 84.741C108.91 84.627 109.066 84.474 109.17 84.282V83.2859H108.53C108.091 83.2859 107.761 83.3624 107.539 83.5154C107.318 83.6684 107.207 83.8848 107.207 84.1648C107.207 84.3927 107.282 84.575 107.432 84.7117C107.585 84.8451 107.788 84.9119 108.042 84.9119ZM112.7 80.4832L112.734 81.0935C113.125 80.6215 113.638 80.3855 114.273 80.3855C115.373 80.3855 115.933 81.0154 115.952 82.2751V85.7664H114.766V82.3435C114.766 82.0082 114.692 81.7608 114.546 81.6013C114.403 81.4386 114.167 81.3572 113.838 81.3572C113.359 81.3572 113.003 81.5736 112.769 82.0066V85.7664H111.582V80.4832H112.7ZM117.881 84.5164C118.102 84.5164 118.273 84.5798 118.394 84.7068C118.514 84.8305 118.574 84.9867 118.574 85.1755C118.574 85.3611 118.514 85.5157 118.394 85.6394C118.273 85.7598 118.102 85.8201 117.881 85.8201C117.669 85.8201 117.502 85.7598 117.378 85.6394C117.254 85.519 117.192 85.3643 117.192 85.1755C117.192 84.9867 117.253 84.8305 117.373 84.7068C117.494 84.5798 117.663 84.5164 117.881 84.5164ZM117.881 80.3708C118.102 80.3708 118.273 80.4343 118.394 80.5613C118.514 80.685 118.574 80.8412 118.574 81.03C118.574 81.2156 118.514 81.3702 118.394 81.4939C118.273 81.6143 118.102 81.6746 117.881 81.6746C117.669 81.6746 117.502 81.6143 117.378 81.4939C117.254 81.3735 117.192 81.2188 117.192 81.03C117.192 80.8412 117.253 80.685 117.373 80.5613C117.494 80.4343 117.663 80.3708 117.881 80.3708ZM25.6691 95.1248V97.7664H24.4337V90.657H27.1534C27.9477 90.657 28.5776 90.8637 29.0431 91.2771C29.5118 91.6905 29.7462 92.2374 29.7462 92.9177C29.7462 93.6143 29.5167 94.1563 29.0577 94.5437C28.602 94.9311 27.9623 95.1248 27.1388 95.1248H25.6691ZM25.6691 94.1335H27.1534C27.5929 94.1335 27.9282 94.031 28.1593 93.8259C28.3904 93.6176 28.506 93.3181 28.506 92.9275C28.506 92.5434 28.3888 92.2374 28.1544 92.0095C27.92 91.7784 27.5978 91.6596 27.1876 91.6531H25.6691V94.1335ZM32.6417 96.0671L33.7159 92.4832H34.9806L32.881 98.5671C32.5587 99.4558 32.0118 99.9001 31.2403 99.9001C31.0678 99.9001 30.8774 99.8708 30.6691 99.8123V98.8943L30.8937 98.9089C31.1931 98.9089 31.4178 98.8536 31.5675 98.7429C31.7205 98.6355 31.8409 98.4532 31.9288 98.196L32.0997 97.7419L30.2442 92.4832H31.5235L32.6417 96.0671ZM37.1534 91.199V92.4832H38.086V93.3621H37.1534V96.3113C37.1534 96.5131 37.1925 96.6596 37.2706 96.7507C37.352 96.8386 37.4952 96.8826 37.7003 96.8826C37.837 96.8826 37.9754 96.8663 38.1153 96.8337V97.7517C37.8452 97.8266 37.5847 97.864 37.3341 97.864C36.4226 97.864 35.9669 97.3611 35.9669 96.3552V93.3621H35.0978V92.4832H35.9669V91.199H37.1534ZM40.1661 93.0593C40.5535 92.6101 41.0434 92.3855 41.6358 92.3855C42.7622 92.3855 43.3334 93.0284 43.3497 94.3142V97.7664H42.1632V94.3582C42.1632 93.9936 42.0834 93.7364 41.9239 93.5867C41.7677 93.4337 41.5366 93.3572 41.2306 93.3572C40.7553 93.3572 40.4005 93.5688 40.1661 93.9919V97.7664H38.9796V90.2664H40.1661V93.0593ZM44.3312 95.0759C44.3312 94.5583 44.4337 94.0929 44.6388 93.6794C44.8439 93.2628 45.1319 92.9438 45.503 92.7224C45.8741 92.4978 46.3006 92.3855 46.7823 92.3855C47.4952 92.3855 48.073 92.615 48.5157 93.074C48.9617 93.533 49.2026 94.1417 49.2384 94.9001L49.2433 95.1785C49.2433 95.6993 49.1424 96.1648 48.9405 96.575C48.742 96.9851 48.4555 97.3025 48.0812 97.5271C47.7101 97.7517 47.2804 97.864 46.7921 97.864C46.0467 97.864 45.4493 97.6166 45.0001 97.1218C44.5541 96.6238 44.3312 95.9613 44.3312 95.1345V95.0759ZM45.5177 95.1785C45.5177 95.7221 45.63 96.1485 45.8546 96.4578C46.0792 96.7638 46.3917 96.9167 46.7921 96.9167C47.1925 96.9167 47.5034 96.7605 47.7247 96.448C47.9493 96.1355 48.0616 95.6781 48.0616 95.0759C48.0616 94.5421 47.9461 94.1189 47.715 93.8064C47.4871 93.4939 47.1762 93.3376 46.7823 93.3376C46.395 93.3376 46.0873 93.4923 45.8595 93.8015C45.6316 94.1075 45.5177 94.5665 45.5177 95.1785ZM51.3478 92.4832L51.3819 93.0935C51.7726 92.6215 52.2853 92.3855 52.92 92.3855C54.0203 92.3855 54.5802 93.0154 54.5997 94.2751V97.7664H53.4132V94.3435C53.4132 94.0082 53.34 93.7608 53.1935 93.6013C53.0502 93.4386 52.8142 93.3572 52.4855 93.3572C52.0069 93.3572 51.6505 93.5736 51.4161 94.0066V97.7664H50.2296V92.4832H51.3478ZM63.8429 95.4519C63.7713 96.2104 63.4913 96.8028 63.003 97.2292C62.5148 97.6524 61.8653 97.864 61.0548 97.864C60.4884 97.864 59.9887 97.7306 59.5558 97.4636C59.1261 97.1934 58.7941 96.811 58.5597 96.3162C58.3253 95.8214 58.2032 95.2468 58.1935 94.5925V93.9285C58.1935 93.2579 58.3123 92.6671 58.5499 92.156C58.7875 91.6449 59.1277 91.2511 59.5704 90.9744C60.0164 90.6977 60.5307 90.5593 61.1134 90.5593C61.8979 90.5593 62.5294 90.7725 63.0079 91.199C63.4864 91.6254 63.7648 92.2276 63.8429 93.0056H62.6124C62.5538 92.4945 62.4041 92.1267 62.1632 91.9021C61.9256 91.6742 61.5756 91.5603 61.1134 91.5603C60.5763 91.5603 60.1629 91.7572 59.8732 92.1511C59.5867 92.5417 59.4402 93.1163 59.4337 93.8748V94.5046C59.4337 95.2729 59.5704 95.8588 59.8439 96.2625C60.1205 96.6661 60.5242 96.8679 61.0548 96.8679C61.5398 96.8679 61.9044 96.7589 62.1485 96.5408C62.3927 96.3227 62.5473 95.9597 62.6124 95.4519H63.8429ZM66.0987 97.7664H64.9122V90.2664H66.0987V97.7664ZM70.5519 97.7664C70.4998 97.6654 70.4542 97.5011 70.4151 97.2732C70.0375 97.6671 69.5753 97.864 69.0284 97.864C68.4978 97.864 68.0649 97.7126 67.7296 97.4099C67.3943 97.1072 67.2267 96.7328 67.2267 96.2869C67.2267 95.7237 67.435 95.2924 67.8517 94.9929C68.2716 94.6902 68.8705 94.5388 69.6485 94.5388H70.3761V94.1921C70.3761 93.9187 70.2996 93.7006 70.1466 93.5378C69.9936 93.3718 69.7608 93.2888 69.4483 93.2888C69.1782 93.2888 68.9568 93.3572 68.7843 93.4939C68.6118 93.6274 68.5255 93.7983 68.5255 94.0066H67.339C67.339 93.7169 67.435 93.4467 67.6271 93.196C67.8191 92.9421 68.0795 92.7436 68.4083 92.6003C68.7403 92.4571 69.1098 92.3855 69.5167 92.3855C70.1352 92.3855 70.6284 92.5417 70.9962 92.8542C71.364 93.1635 71.5528 93.5997 71.5626 94.1628V96.5457C71.5626 97.0209 71.6293 97.4001 71.7628 97.6833V97.7664H70.5519ZM69.2482 96.9119C69.4825 96.9119 69.7023 96.8549 69.9073 96.741C70.1157 96.627 70.2719 96.474 70.3761 96.282V95.2859H69.7364C69.297 95.2859 68.9666 95.3624 68.7452 95.5154C68.5239 95.6684 68.4132 95.8848 68.4132 96.1648C68.4132 96.3927 68.4881 96.575 68.6378 96.7117C68.7908 96.8451 68.9942 96.9119 69.2482 96.9119ZM75.7667 96.3308C75.7667 96.1192 75.6788 95.9581 75.503 95.8474C75.3305 95.7367 75.0424 95.6391 74.6388 95.5544C74.2351 95.4698 73.8982 95.3624 73.628 95.2322C73.0356 94.9457 72.7394 94.5307 72.7394 93.9871C72.7394 93.5313 72.9314 93.1505 73.3155 92.8445C73.6997 92.5385 74.1879 92.3855 74.7804 92.3855C75.4119 92.3855 75.9213 92.5417 76.3087 92.8542C76.6993 93.1667 76.8946 93.572 76.8946 94.0701H75.7081C75.7081 93.8422 75.6235 93.6534 75.4542 93.5037C75.2849 93.3507 75.0603 93.2742 74.7804 93.2742C74.52 93.2742 74.3067 93.3344 74.1407 93.4548C73.978 93.5753 73.8966 93.7364 73.8966 93.9382C73.8966 94.1205 73.9731 94.2621 74.1261 94.363C74.2791 94.4639 74.5883 94.5665 75.0538 94.6707C75.5193 94.7716 75.8839 94.8936 76.1476 95.0369C76.4145 95.1768 76.6114 95.3461 76.7384 95.5447C76.8686 95.7432 76.9337 95.9841 76.9337 96.2673C76.9337 96.7426 76.7368 97.1283 76.3429 97.4246C75.949 97.7175 75.433 97.864 74.795 97.864C74.3621 97.864 73.9763 97.7859 73.6378 97.6296C73.2993 97.4734 73.0356 97.2585 72.8468 96.9851C72.658 96.7117 72.5636 96.4171 72.5636 96.1013H73.7159C73.7322 96.3813 73.838 96.5977 74.0333 96.7507C74.2286 96.9005 74.4874 96.9753 74.8097 96.9753C75.1222 96.9753 75.3598 96.9167 75.5226 96.7996C75.6853 96.6791 75.7667 96.5229 75.7667 96.3308ZM80.9327 96.3308C80.9327 96.1192 80.8448 95.9581 80.6691 95.8474C80.4965 95.7367 80.2084 95.6391 79.8048 95.5544C79.4011 95.4698 79.0642 95.3624 78.7941 95.2322C78.2016 94.9457 77.9054 94.5307 77.9054 93.9871C77.9054 93.5313 78.0974 93.1505 78.4816 92.8445C78.8657 92.5385 79.3539 92.3855 79.9464 92.3855C80.5779 92.3855 81.0873 92.5417 81.4747 92.8542C81.8653 93.1667 82.0607 93.572 82.0607 94.0701H80.8741C80.8741 93.8422 80.7895 93.6534 80.6202 93.5037C80.451 93.3507 80.2263 93.2742 79.9464 93.2742C79.686 93.2742 79.4728 93.3344 79.3067 93.4548C79.144 93.5753 79.0626 93.7364 79.0626 93.9382C79.0626 94.1205 79.1391 94.2621 79.2921 94.363C79.4451 94.4639 79.7543 94.5665 80.2198 94.6707C80.6853 94.7716 81.0499 94.8936 81.3136 95.0369C81.5805 95.1768 81.7775 95.3461 81.9044 95.5447C82.0346 95.7432 82.0997 95.9841 82.0997 96.2673C82.0997 96.7426 81.9028 97.1283 81.5089 97.4246C81.115 97.7175 80.5991 97.864 79.961 97.864C79.5281 97.864 79.1424 97.7859 78.8038 97.6296C78.4653 97.4734 78.2016 97.2585 78.0128 96.9851C77.824 96.7117 77.7296 96.4171 77.7296 96.1013H78.8819C78.8982 96.3813 79.004 96.5977 79.1993 96.7507C79.3946 96.9005 79.6534 96.9753 79.9757 96.9753C80.2882 96.9753 80.5258 96.9167 80.6886 96.7996C80.8513 96.6791 80.9327 96.5229 80.9327 96.3308ZM85.464 97.864C84.712 97.864 84.1017 97.628 83.6329 97.156C83.1674 96.6807 82.9347 96.0492 82.9347 95.2615V95.115C82.9347 94.5876 83.0356 94.1173 83.2374 93.7039C83.4425 93.2872 83.7289 92.9633 84.0968 92.7322C84.4646 92.5011 84.8748 92.3855 85.3273 92.3855C86.0467 92.3855 86.6017 92.615 86.9923 93.074C87.3862 93.533 87.5831 94.1824 87.5831 95.0222V95.5007H84.131C84.1668 95.9369 84.3116 96.282 84.5655 96.5359C84.8227 96.7898 85.145 96.9167 85.5323 96.9167C86.076 96.9167 86.5187 96.697 86.8605 96.2576L87.5001 96.8679C87.2885 97.1837 87.0053 97.4294 86.6505 97.6052C86.2989 97.7778 85.9034 97.864 85.464 97.864ZM85.3224 93.3376C84.9969 93.3376 84.7332 93.4516 84.5314 93.6794C84.3328 93.9073 84.2058 94.2247 84.1505 94.6316H86.4112V94.5437C86.3852 94.1466 86.2794 93.8471 86.0939 93.6453C85.9083 93.4402 85.6511 93.3376 85.3224 93.3376ZM91.4698 96.3308C91.4698 96.1192 91.3819 95.9581 91.2062 95.8474C91.0336 95.7367 90.7455 95.6391 90.3419 95.5544C89.9383 95.4698 89.6013 95.3624 89.3312 95.2322C88.7387 94.9457 88.4425 94.5307 88.4425 93.9871C88.4425 93.5313 88.6345 93.1505 89.0187 92.8445C89.4028 92.5385 89.8911 92.3855 90.4835 92.3855C91.115 92.3855 91.6245 92.5417 92.0118 92.8542C92.4025 93.1667 92.5978 93.572 92.5978 94.0701H91.4112C91.4112 93.8422 91.3266 93.6534 91.1573 93.5037C90.9881 93.3507 90.7635 93.2742 90.4835 93.2742C90.2231 93.2742 90.0099 93.3344 89.8439 93.4548C89.6811 93.5753 89.5997 93.7364 89.5997 93.9382C89.5997 94.1205 89.6762 94.2621 89.8292 94.363C89.9822 94.4639 90.2914 94.5665 90.7569 94.6707C91.2224 94.7716 91.587 94.8936 91.8507 95.0369C92.1176 95.1768 92.3146 95.3461 92.4415 95.5447C92.5717 95.7432 92.6368 95.9841 92.6368 96.2673C92.6368 96.7426 92.4399 97.1283 92.046 97.4246C91.6521 97.7175 91.1362 97.864 90.4982 97.864C90.0652 97.864 89.6795 97.7859 89.3409 97.6296C89.0024 97.4734 88.7387 97.2585 88.5499 96.9851C88.3611 96.7117 88.2667 96.4171 88.2667 96.1013H89.4191C89.4353 96.3813 89.5411 96.5977 89.7364 96.7507C89.9317 96.9005 90.1905 96.9753 90.5128 96.9753C90.8253 96.9753 91.0629 96.9167 91.2257 96.7996C91.3885 96.6791 91.4698 96.5229 91.4698 96.3308ZM99.3214 97.7664C99.2693 97.6654 99.2237 97.5011 99.1847 97.2732C98.8071 97.6671 98.3448 97.864 97.798 97.864C97.2674 97.864 96.8344 97.7126 96.4991 97.4099C96.1638 97.1072 95.9962 96.7328 95.9962 96.2869C95.9962 95.7237 96.2045 95.2924 96.6212 94.9929C97.0411 94.6902 97.6401 94.5388 98.4181 94.5388H99.1456V94.1921C99.1456 93.9187 99.0691 93.7006 98.9161 93.5378C98.7631 93.3718 98.5304 93.2888 98.2179 93.2888C97.9477 93.2888 97.7263 93.3572 97.5538 93.4939C97.3813 93.6274 97.295 93.7983 97.295 94.0066H96.1085C96.1085 93.7169 96.2045 93.4467 96.3966 93.196C96.5886 92.9421 96.8491 92.7436 97.1778 92.6003C97.5099 92.4571 97.8793 92.3855 98.2862 92.3855C98.9047 92.3855 99.3979 92.5417 99.7657 92.8542C100.134 93.1635 100.322 93.5997 100.332 94.1628V96.5457C100.332 97.0209 100.399 97.4001 100.532 97.6833V97.7664H99.3214ZM98.0177 96.9119C98.2521 96.9119 98.4718 96.8549 98.6769 96.741C98.8852 96.627 99.0414 96.474 99.1456 96.282V95.2859H98.506C98.0665 95.2859 97.7361 95.3624 97.5148 95.5154C97.2934 95.6684 97.1827 95.8848 97.1827 96.1648C97.1827 96.3927 97.2576 96.575 97.4073 96.7117C97.5603 96.8451 97.7638 96.9119 98.0177 96.9119ZM102.676 92.4832L102.71 93.0935C103.101 92.6215 103.613 92.3855 104.248 92.3855C105.348 92.3855 105.908 93.0154 105.928 94.2751V97.7664H104.741V94.3435C104.741 94.0082 104.668 93.7608 104.522 93.6013C104.378 93.4386 104.142 93.3572 103.814 93.3572C103.335 93.3572 102.979 93.5736 102.744 94.0066V97.7664H101.558V92.4832H102.676ZM106.919 95.0857C106.919 94.2719 107.108 93.6192 107.485 93.1277C107.863 92.6329 108.369 92.3855 109.004 92.3855C109.564 92.3855 110.016 92.5808 110.361 92.9714V90.2664H111.548V97.7664H110.474L110.415 97.2195C110.06 97.6492 109.587 97.864 108.994 97.864C108.376 97.864 107.874 97.615 107.49 97.1169C107.109 96.6189 106.919 95.9418 106.919 95.0857ZM108.106 95.1882C108.106 95.7253 108.208 96.1453 108.413 96.448C108.622 96.7475 108.916 96.8972 109.297 96.8972C109.782 96.8972 110.137 96.6807 110.361 96.2478V93.9919C110.143 93.5688 109.792 93.3572 109.307 93.3572C108.923 93.3572 108.626 93.5102 108.418 93.8162C108.21 94.1189 108.106 94.5763 108.106 95.1882ZM44.8194 109.766H43.589V102.657H44.8194V109.766ZM47.3243 104.483L47.3585 105.094C47.7491 104.622 48.2618 104.385 48.8966 104.385C49.9969 104.385 50.5567 105.015 50.5763 106.275V109.766H49.3898V106.344C49.3898 106.008 49.3165 105.761 49.17 105.601C49.0268 105.439 48.7908 105.357 48.462 105.357C47.9835 105.357 47.6271 105.574 47.3927 106.007V109.766H46.2062V104.483H47.3243ZM52.9591 105.059C53.3465 104.61 53.8364 104.385 54.4288 104.385C55.5551 104.385 56.1264 105.028 56.1427 106.314V109.766H54.9562V106.358C54.9562 105.994 54.8764 105.736 54.7169 105.587C54.5607 105.434 54.3295 105.357 54.0235 105.357C53.5483 105.357 53.1935 105.569 52.9591 105.992V109.766H51.7726V102.266H52.9591V105.059ZM59.673 109.864C58.921 109.864 58.3107 109.628 57.8419 109.156C57.3764 108.681 57.1437 108.049 57.1437 107.261V107.115C57.1437 106.588 57.2446 106.117 57.4464 105.704C57.6515 105.287 57.9379 104.963 58.3058 104.732C58.6736 104.501 59.0838 104.385 59.5362 104.385C60.2556 104.385 60.8107 104.615 61.2013 105.074C61.5952 105.533 61.7921 106.182 61.7921 107.022V107.501H58.34C58.3758 107.937 58.5206 108.282 58.7745 108.536C59.0317 108.79 59.3539 108.917 59.7413 108.917C60.2849 108.917 60.7276 108.697 61.0694 108.258L61.7091 108.868C61.4975 109.184 61.2143 109.429 60.8595 109.605C60.5079 109.778 60.1124 109.864 59.673 109.864ZM59.5314 105.338C59.2058 105.338 58.9422 105.452 58.7403 105.679C58.5418 105.907 58.4148 106.225 58.3595 106.632H60.6202V106.544C60.5942 106.147 60.4884 105.847 60.3028 105.645C60.1173 105.44 59.8601 105.338 59.5314 105.338ZM65.4835 105.567C65.3273 105.541 65.1661 105.528 65.0001 105.528C64.4565 105.528 64.0903 105.736 63.9015 106.153V109.766H62.715V104.483H63.8478L63.8771 105.074C64.1635 104.615 64.5607 104.385 65.0685 104.385C65.2377 104.385 65.3777 104.408 65.4884 104.454L65.4835 105.567ZM67.4952 109.766H66.3087V104.483H67.4952V109.766ZM66.2355 103.111C66.2355 102.929 66.2924 102.777 66.4064 102.657C66.5235 102.537 66.6896 102.476 66.9044 102.476C67.1192 102.476 67.2853 102.537 67.4025 102.657C67.5196 102.777 67.5782 102.929 67.5782 103.111C67.5782 103.29 67.5196 103.44 67.4025 103.56C67.2853 103.677 67.1192 103.736 66.9044 103.736C66.6896 103.736 66.5235 103.677 66.4064 103.56C66.2924 103.44 66.2355 103.29 66.2355 103.111ZM70.2784 103.199V104.483H71.211V105.362H70.2784V108.311C70.2784 108.513 70.3175 108.66 70.3956 108.751C70.477 108.839 70.6202 108.883 70.8253 108.883C70.962 108.883 71.1004 108.866 71.2403 108.834V109.752C70.9702 109.827 70.7097 109.864 70.4591 109.864C69.5476 109.864 69.0919 109.361 69.0919 108.355V105.362H68.2228V104.483H69.0919V103.199H70.2784ZM75.2784 109.766C75.2263 109.665 75.1808 109.501 75.1417 109.273C74.7641 109.667 74.3019 109.864 73.755 109.864C73.2244 109.864 72.7914 109.713 72.4562 109.41C72.1209 109.107 71.9532 108.733 71.9532 108.287C71.9532 107.724 72.1616 107.292 72.5782 106.993C72.9982 106.69 73.5971 106.539 74.3751 106.539H75.1026V106.192C75.1026 105.919 75.0261 105.701 74.8732 105.538C74.7202 105.372 74.4874 105.289 74.1749 105.289C73.9047 105.289 73.6834 105.357 73.5108 105.494C73.3383 105.627 73.2521 105.798 73.2521 106.007H72.0655C72.0655 105.717 72.1616 105.447 72.3536 105.196C72.5457 104.942 72.8061 104.744 73.1349 104.6C73.4669 104.457 73.8364 104.385 74.2433 104.385C74.8618 104.385 75.3549 104.542 75.7228 104.854C76.0906 105.163 76.2794 105.6 76.2892 106.163V108.546C76.2892 109.021 76.3559 109.4 76.4894 109.683V109.766H75.2784ZM73.9747 108.912C74.2091 108.912 74.4288 108.855 74.6339 108.741C74.8422 108.627 74.9985 108.474 75.1026 108.282V107.286H74.463C74.0235 107.286 73.6931 107.362 73.4718 107.515C73.2504 107.668 73.1398 107.885 73.1398 108.165C73.1398 108.393 73.2146 108.575 73.3644 108.712C73.5174 108.845 73.7208 108.912 73.9747 108.912ZM78.6329 104.483L78.6671 105.094C79.0577 104.622 79.5704 104.385 80.2052 104.385C81.3054 104.385 81.8653 105.015 81.8849 106.275V109.766H80.6983V106.344C80.6983 106.008 80.6251 105.761 80.4786 105.601C80.3354 105.439 80.0994 105.357 79.7706 105.357C79.2921 105.357 78.9357 105.574 78.7013 106.007V109.766H77.5148V104.483H78.6329ZM85.2687 108.917C85.5649 108.917 85.8107 108.83 86.006 108.658C86.2013 108.485 86.3054 108.272 86.3185 108.018H87.4366C87.4236 108.347 87.3211 108.655 87.129 108.941C86.937 109.224 86.6765 109.449 86.3478 109.615C86.019 109.781 85.6642 109.864 85.2833 109.864C84.5444 109.864 83.9584 109.625 83.5255 109.146C83.0926 108.668 82.8761 108.007 82.8761 107.164V107.042C82.8761 106.238 83.0909 105.595 83.5206 105.113C83.9503 104.628 84.5362 104.385 85.2784 104.385C85.9067 104.385 86.4178 104.569 86.8116 104.937C87.2088 105.302 87.4171 105.782 87.4366 106.378H86.3185C86.3054 106.075 86.2013 105.826 86.006 105.631C85.8139 105.435 85.5681 105.338 85.2687 105.338C84.8845 105.338 84.5883 105.478 84.38 105.758C84.1717 106.034 84.0659 106.456 84.0626 107.022V107.213C84.0626 107.786 84.1651 108.214 84.3702 108.497C84.5786 108.777 84.878 108.917 85.2687 108.917ZM90.6593 109.864C89.9073 109.864 89.297 109.628 88.8282 109.156C88.3627 108.681 88.13 108.049 88.13 107.261V107.115C88.13 106.588 88.2309 106.117 88.4327 105.704C88.6378 105.287 88.9243 104.963 89.2921 104.732C89.6599 104.501 90.0701 104.385 90.5226 104.385C91.242 104.385 91.797 104.615 92.1876 105.074C92.5815 105.533 92.7784 106.182 92.7784 107.022V107.501H89.3263C89.3621 107.937 89.5069 108.282 89.7608 108.536C90.018 108.79 90.3403 108.917 90.7276 108.917C91.2713 108.917 91.714 108.697 92.0558 108.258L92.6954 108.868C92.4838 109.184 92.2006 109.429 91.8458 109.605C91.4942 109.778 91.0987 109.864 90.6593 109.864ZM90.5177 105.338C90.1922 105.338 89.9285 105.452 89.7267 105.679C89.5281 105.907 89.4011 106.225 89.3458 106.632H91.6066V106.544C91.5805 106.147 91.4747 105.847 91.2892 105.645C91.1036 105.44 90.8465 105.338 90.5177 105.338Z" fill="#0B406C"/>
<path d="M48.6956 120.106C48.624 120.865 48.344 121.457 47.8558 121.883C47.3675 122.307 46.7181 122.518 45.9075 122.518C45.3411 122.518 44.8414 122.385 44.4085 122.118C43.9788 121.848 43.6468 121.465 43.4124 120.97C43.178 120.476 43.056 119.901 43.0462 119.247V118.583C43.0462 117.912 43.165 117.321 43.4026 116.81C43.6403 116.299 43.9804 115.905 44.4231 115.629C44.8691 115.352 45.3834 115.214 45.9661 115.214C46.7506 115.214 47.3821 115.427 47.8606 115.853C48.3392 116.28 48.6175 116.882 48.6956 117.66H47.4651C47.4065 117.149 47.2568 116.781 47.0159 116.556C46.7783 116.328 46.4283 116.215 45.9661 116.215C45.429 116.215 45.0156 116.411 44.7259 116.805C44.4394 117.196 44.2929 117.77 44.2864 118.529V119.159C44.2864 119.927 44.4231 120.513 44.6966 120.917C44.9733 121.32 45.3769 121.522 45.9075 121.522C46.3925 121.522 46.7571 121.413 47.0013 121.195C47.2454 120.977 47.4 120.614 47.4651 120.106H48.6956ZM50.9515 122.421H49.7649V114.921H50.9515V122.421ZM53.5101 122.421H52.3235V117.137H53.5101V122.421ZM52.2503 115.765C52.2503 115.583 52.3073 115.432 52.4212 115.311C52.5384 115.191 52.7044 115.131 52.9192 115.131C53.1341 115.131 53.3001 115.191 53.4173 115.311C53.5345 115.432 53.5931 115.583 53.5931 115.765C53.5931 115.944 53.5345 116.094 53.4173 116.215C53.3001 116.332 53.1341 116.39 52.9192 116.39C52.7044 116.39 52.5384 116.332 52.4212 116.215C52.3073 116.094 52.2503 115.944 52.2503 115.765ZM56.9769 121.571C57.2731 121.571 57.5188 121.485 57.7142 121.312C57.9095 121.14 58.0136 120.926 58.0267 120.673H59.1448C59.1318 121.001 59.0293 121.309 58.8372 121.595C58.6451 121.879 58.3847 122.103 58.056 122.269C57.7272 122.435 57.3724 122.518 56.9915 122.518C56.2526 122.518 55.6666 122.279 55.2337 121.8C54.8007 121.322 54.5843 120.661 54.5843 119.818V119.696C54.5843 118.892 54.7991 118.249 55.2288 117.767C55.6585 117.282 56.2444 117.04 56.9866 117.04C57.6149 117.04 58.1259 117.224 58.5198 117.591C58.917 117.956 59.1253 118.436 59.1448 119.032H58.0267C58.0136 118.729 57.9095 118.48 57.7142 118.285C57.5221 118.09 57.2763 117.992 56.9769 117.992C56.5927 117.992 56.2965 118.132 56.0882 118.412C55.8798 118.688 55.7741 119.11 55.7708 119.676V119.867C55.7708 120.44 55.8733 120.868 56.0784 121.151C56.2867 121.431 56.5862 121.571 56.9769 121.571ZM61.7571 120.155L61.2298 120.697V122.421H60.0433V114.921H61.2298V119.247L61.6009 118.783L63.0608 117.137H64.4866L62.5237 119.34L64.6966 122.421H63.3245L61.7571 120.155ZM68.9251 117.714C69.3125 117.264 69.8024 117.04 70.3948 117.04C71.5211 117.04 72.0924 117.683 72.1087 118.968V122.421H70.9222V119.012C70.9222 118.648 70.8424 118.391 70.6829 118.241C70.5267 118.088 70.2955 118.011 69.9895 118.011C69.5143 118.011 69.1595 118.223 68.9251 118.646V122.421H67.7386V114.921H68.9251V117.714ZM75.639 122.518C74.887 122.518 74.2767 122.282 73.8079 121.81C73.3424 121.335 73.1097 120.703 73.1097 119.916V119.769C73.1097 119.242 73.2106 118.771 73.4124 118.358C73.6175 117.941 73.9039 117.618 74.2718 117.386C74.6396 117.155 75.0498 117.04 75.5022 117.04C76.2216 117.04 76.7767 117.269 77.1673 117.728C77.5612 118.187 77.7581 118.837 77.7581 119.676V120.155H74.306C74.3418 120.591 74.4866 120.936 74.7405 121.19C74.9977 121.444 75.32 121.571 75.7073 121.571C76.2509 121.571 76.6936 121.351 77.0354 120.912L77.6751 121.522C77.4635 121.838 77.1803 122.084 76.8255 122.259C76.4739 122.432 76.0784 122.518 75.639 122.518ZM75.4974 117.992C75.1718 117.992 74.9082 118.106 74.7063 118.334C74.5078 118.562 74.3808 118.879 74.3255 119.286H76.5862V119.198C76.5602 118.801 76.4544 118.501 76.2688 118.299C76.0833 118.094 75.8261 117.992 75.4974 117.992ZM81.4495 118.221C81.2933 118.195 81.1321 118.182 80.9661 118.182C80.4225 118.182 80.0563 118.391 79.8675 118.807V122.421H78.681V117.137H79.8138L79.8431 117.728C80.1295 117.269 80.5267 117.04 81.0345 117.04C81.2037 117.04 81.3437 117.062 81.4544 117.108L81.4495 118.221ZM84.428 122.518C83.6761 122.518 83.0657 122.282 82.597 121.81C82.1315 121.335 81.8987 120.703 81.8987 119.916V119.769C81.8987 119.242 81.9996 118.771 82.2015 118.358C82.4065 117.941 82.693 117.618 83.0608 117.386C83.4287 117.155 83.8388 117.04 84.2913 117.04C85.0107 117.04 85.5657 117.269 85.9563 117.728C86.3502 118.187 86.5472 118.837 86.5472 119.676V120.155H83.095C83.1308 120.591 83.2757 120.936 83.5296 121.19C83.7867 121.444 84.109 121.571 84.4964 121.571C85.04 121.571 85.4827 121.351 85.8245 120.912L86.4642 121.522C86.2526 121.838 85.9694 122.084 85.6145 122.259C85.263 122.432 84.8675 122.518 84.428 122.518ZM84.2864 117.992C83.9609 117.992 83.6972 118.106 83.4954 118.334C83.2968 118.562 83.1699 118.879 83.1145 119.286H85.3753V119.198C85.3492 118.801 85.2435 118.501 85.0579 118.299C84.8724 118.094 84.6152 117.992 84.2864 117.992Z" fill="#BFFBDE"/>
<defs>
<filter id="filter0_d" x="0" y="0" width="138" height="156" filterUnits="userSpaceOnUse" color-interpolation-filters="sRGB">
<feFlood flood-opacity="0" result="BackgroundImageFix"/>
<feColorMatrix in="SourceAlpha" type="matrix" values="0 0 0 0 0 0 0 0 0 0 0 0 0 0 0 0 0 0 127 0" result="hardAlpha"/>
<feOffset dy="4"/>
<feGaussianBlur stdDeviation="2"/>
<feColorMatrix type="matrix" values="0 0 0 0 0 0 0 0 0 0 0 0 0 0 0 0 0 0 0.25 0"/>
<feBlend mode="normal" in2="BackgroundImageFix" result="effect1_dropShadow"/>
<feBlend mode="normal" in="SourceGraphic" in2="effect1_dropShadow" result="shape"/>
</filter>
<linearGradient id="paint0_linear" x1="48.4469" y1="11.8276" x2="75.5593" y2="38.4194" gradientUnits="userSpaceOnUse">
<stop stop-color="#387EB8"/>
<stop offset="1" stop-color="#366994"/>
</linearGradient>
<linearGradient id="paint1_linear" x1="64.9353" y1="29.066" x2="94.0385" y2="56.3218" gradientUnits="userSpaceOnUse">
<stop stop-color="#FFE052"/>
<stop offset="1" stop-color="#FFC331"/>
</linearGradient>
<clipPath id="clip0">
<rect width="54.3386" height="54.6355" fill="white" transform="translate(43.2063 6.91589)"/>
</clipPath>
</defs>
</svg>
