<svg width="75" height="84" viewBox="0 0 75 84" fill="none" xmlns="http://www.w3.org/2000/svg">
<g filter="url(#filter0_d)">
<rect x="4" width="67" height="76" rx="33.5" fill="#405C50"/>
</g>
<g clip-path="url(#clip0)">
<path d="M38.0906 3.55942C30.9982 3.55942 31.4411 6.65276 31.4411 6.65276L31.449 9.85743H38.2171V10.8196H28.7608C28.7608 10.8196 24.2224 10.302 24.2224 17.4993C24.2224 24.6967 28.1836 24.4415 28.1836 24.4415H30.5477V21.1016C30.5477 21.1016 30.4202 17.1176 34.4456 17.1176H41.1584C41.1584 17.1176 44.9298 17.1789 44.9298 13.4517V7.28892C44.9298 7.28892 45.5024 3.55942 38.0906 3.55942ZM34.3587 5.71442C35.032 5.71442 35.5763 6.26179 35.5763 6.93903C35.5763 7.61627 35.032 8.16364 34.3587 8.16364C33.6853 8.16364 33.141 7.61627 33.141 6.93903C33.141 6.26179 33.6853 5.71442 34.3587 5.71442Z" fill="url(#paint0_linear)"/>
<path d="M38.2918 31.5113C45.3842 31.5113 44.9413 28.418 44.9413 28.418L44.9334 25.2133H38.1653V24.2511H47.6216C47.6216 24.2511 52.16 24.7688 52.16 17.5714C52.16 10.374 48.1988 10.6293 48.1988 10.6293H45.8347V13.9691C45.8347 13.9691 45.9622 17.9531 41.9367 17.9531H35.224C35.224 17.9531 31.4526 17.8918 31.4526 21.619V27.7818C31.4526 27.7818 30.8799 31.5113 38.2918 31.5113ZM42.0237 29.3563C41.3503 29.3563 40.8061 28.8089 40.8061 28.1317C40.8061 27.4545 41.3503 26.9071 42.0237 26.9071C42.6971 26.9071 43.2413 27.4545 43.2413 28.1317C43.2413 28.8089 42.6971 29.3563 42.0237 29.3563Z" fill="url(#paint1_linear)"/>
</g>
<rect x="9.31746" y="35.514" width="56.7196" height="33.028" rx="16" fill="#8AD4B5"/>
<path d="M19.0968 40.5768V42.4772C19.0968 42.7793 18.9998 43.0189 18.8058 43.196C18.6131 43.3717 18.3559 43.4596 18.0343 43.4596C17.7088 43.4596 17.4503 43.373 17.2589 43.1999C17.0675 43.0254 16.9718 42.7838 16.9718 42.4753V40.5768H17.464V42.4792C17.464 42.6693 17.5121 42.8144 17.6085 42.9147C17.7049 43.015 17.8468 43.0651 18.0343 43.0651C18.4145 43.0651 18.6046 42.8646 18.6046 42.4635V40.5768H19.0968ZM20.0206 41.3073L20.0343 41.5514C20.1905 41.3626 20.3956 41.2682 20.6495 41.2682C21.0896 41.2682 21.3136 41.5202 21.3214 42.0241V43.4206H20.8468V42.0514C20.8468 41.9173 20.8175 41.8183 20.7589 41.7545C20.7016 41.6894 20.6072 41.6569 20.4757 41.6569C20.2843 41.6569 20.1417 41.7435 20.048 41.9167V43.4206H19.5733V41.3073H20.0206ZM22.3116 43.4206H21.837V41.3073H22.3116V43.4206ZM21.8077 40.7585C21.8077 40.6855 21.8305 40.625 21.8761 40.5768C21.923 40.5286 21.9894 40.5045 22.0753 40.5045C22.1612 40.5045 22.2276 40.5286 22.2745 40.5768C22.3214 40.625 22.3448 40.6855 22.3448 40.7585C22.3448 40.8301 22.3214 40.89 22.2745 40.9381C22.2276 40.985 22.1612 41.0085 22.0753 41.0085C21.9894 41.0085 21.923 40.985 21.8761 40.9381C21.8305 40.89 21.8077 40.8301 21.8077 40.7585ZM23.5753 42.819L24.0226 41.3073H24.5128L23.7804 43.4206H23.3683L22.63 41.3073H23.1222L23.5753 42.819ZM25.714 43.4596C25.4132 43.4596 25.169 43.3652 24.9815 43.1764C24.7953 42.9863 24.7022 42.7337 24.7022 42.4186V42.36C24.7022 42.1491 24.7426 41.9609 24.8233 41.7956C24.9054 41.6289 25.02 41.4993 25.1671 41.4069C25.3142 41.3144 25.4783 41.2682 25.6593 41.2682C25.947 41.2682 26.169 41.36 26.3253 41.5436C26.4828 41.7272 26.5616 41.987 26.5616 42.3229V42.5143H25.1808C25.1951 42.6888 25.253 42.8268 25.3546 42.9284C25.4575 43.0299 25.5864 43.0807 25.7413 43.0807C25.9588 43.0807 26.1358 42.9928 26.2726 42.817L26.5284 43.0612C26.4438 43.1875 26.3305 43.2858 26.1886 43.3561C26.048 43.4251 25.8897 43.4596 25.714 43.4596ZM25.6573 41.6491C25.5271 41.6491 25.4216 41.6947 25.3409 41.7858C25.2615 41.8769 25.2107 42.0039 25.1886 42.1667H26.0929V42.1315C26.0825 41.9726 26.0401 41.8529 25.9659 41.7721C25.8917 41.6901 25.7888 41.6491 25.6573 41.6491ZM28.0382 41.7409C27.9757 41.7305 27.9112 41.7253 27.8448 41.7253C27.6274 41.7253 27.4809 41.8086 27.4054 41.9753V43.4206H26.9308V41.3073H27.3839L27.3956 41.5436C27.5102 41.36 27.669 41.2682 27.8722 41.2682C27.9399 41.2682 27.9959 41.2773 28.0401 41.2956L28.0382 41.7409ZM29.5226 42.8463C29.5226 42.7617 29.4874 42.6973 29.4171 42.653C29.3481 42.6087 29.2328 42.5697 29.0714 42.5358C28.9099 42.5019 28.7752 42.459 28.6671 42.4069C28.4301 42.2923 28.3116 42.1263 28.3116 41.9088C28.3116 41.7266 28.3884 41.5742 28.5421 41.4518C28.6957 41.3294 28.891 41.2682 29.128 41.2682C29.3806 41.2682 29.5844 41.3307 29.7394 41.4557C29.8956 41.5807 29.9737 41.7428 29.9737 41.942H29.4991C29.4991 41.8509 29.4653 41.7754 29.3976 41.7155C29.3299 41.6543 29.24 41.6237 29.128 41.6237C29.0239 41.6237 28.9386 41.6478 28.8722 41.696C28.8071 41.7441 28.7745 41.8086 28.7745 41.8893C28.7745 41.9622 28.8051 42.0189 28.8663 42.0592C28.9275 42.0996 29.0512 42.1406 29.2374 42.1823C29.4236 42.2226 29.5694 42.2715 29.6749 42.3288C29.7817 42.3848 29.8605 42.4525 29.9112 42.5319C29.9633 42.6113 29.9894 42.7077 29.9894 42.821C29.9894 43.0111 29.9106 43.1654 29.753 43.2838C29.5955 43.401 29.3891 43.4596 29.1339 43.4596C28.9607 43.4596 28.8064 43.4284 28.671 43.3659C28.5356 43.3034 28.4301 43.2174 28.3546 43.1081C28.2791 42.9987 28.2413 42.8808 28.2413 42.7545H28.7022C28.7088 42.8665 28.7511 42.9531 28.8292 43.0143C28.9073 43.0742 29.0108 43.1042 29.1397 43.1042C29.2647 43.1042 29.3598 43.0807 29.4249 43.0338C29.49 42.9857 29.5226 42.9232 29.5226 42.8463ZM30.9093 43.4206H30.4347V41.3073H30.9093V43.4206ZM30.4054 40.7585C30.4054 40.6855 30.4282 40.625 30.4737 40.5768C30.5206 40.5286 30.587 40.5045 30.673 40.5045C30.7589 40.5045 30.8253 40.5286 30.8722 40.5768C30.919 40.625 30.9425 40.6855 30.9425 40.7585C30.9425 40.8301 30.919 40.89 30.8722 40.9381C30.8253 40.985 30.7589 41.0085 30.673 41.0085C30.587 41.0085 30.5206 40.985 30.4737 40.9381C30.4282 40.89 30.4054 40.8301 30.4054 40.7585ZM32.0226 40.7936V41.3073H32.3956V41.6588H32.0226V42.8385C32.0226 42.9193 32.0382 42.9779 32.0694 43.0143C32.102 43.0495 32.1593 43.067 32.2413 43.067C32.296 43.067 32.3513 43.0605 32.4073 43.0475V43.4147C32.2993 43.4447 32.1951 43.4596 32.0948 43.4596C31.7302 43.4596 31.548 43.2585 31.548 42.8561V41.6588H31.2003V41.3073H31.548V40.7936H32.0226ZM33.4991 42.7409L33.9288 41.3073H34.4347L33.5948 43.7409C33.4659 44.0963 33.2472 44.2741 32.9386 44.2741C32.8696 44.2741 32.7934 44.2624 32.7101 44.2389V43.8717L32.7999 43.8776C32.9197 43.8776 33.0095 43.8555 33.0694 43.8112C33.1306 43.7682 33.1788 43.6953 33.214 43.5924L33.2823 43.4108L32.5401 41.3073H33.0519L33.4991 42.7409ZM35.6163 42.3444C35.6163 42.1374 35.6573 41.9512 35.7394 41.7858C35.8214 41.6191 35.9366 41.4915 36.0851 41.403C36.2335 41.3131 36.4041 41.2682 36.5968 41.2682C36.8819 41.2682 37.1131 41.36 37.2901 41.5436C37.4685 41.7272 37.5649 41.9707 37.5792 42.2741L37.5812 42.3854C37.5812 42.5937 37.5408 42.7799 37.4601 42.944C37.3806 43.1081 37.266 43.235 37.1163 43.3249C36.9679 43.4147 36.796 43.4596 36.6007 43.4596C36.3025 43.4596 36.0636 43.3607 35.8839 43.1628C35.7055 42.9635 35.6163 42.6986 35.6163 42.3678V42.3444ZM36.0909 42.3854C36.0909 42.6029 36.1358 42.7734 36.2257 42.8971C36.3155 43.0195 36.4405 43.0807 36.6007 43.0807C36.7608 43.0807 36.8852 43.0182 36.9737 42.8932C37.0636 42.7682 37.1085 42.5853 37.1085 42.3444C37.1085 42.1308 37.0623 41.9616 36.9698 41.8366C36.8787 41.7116 36.7543 41.6491 36.5968 41.6491C36.4418 41.6491 36.3188 41.7109 36.2276 41.8346C36.1365 41.957 36.0909 42.1406 36.0909 42.3854ZM38.1495 43.4206V41.6588H37.8272V41.3073H38.1495V41.1139C38.1495 40.8795 38.2146 40.6986 38.3448 40.571C38.475 40.4433 38.6573 40.3795 38.8917 40.3795C38.975 40.3795 39.0636 40.3913 39.1573 40.4147L39.1456 40.7858C39.0935 40.7754 39.033 40.7702 38.964 40.7702C38.7374 40.7702 38.6241 40.8867 38.6241 41.1198V41.3073H39.0538V41.6588H38.6241V43.4206H38.1495ZM41.0831 40.5768L41.9034 42.7565L42.7218 40.5768H43.3605V43.4206H42.8683V42.4831L42.9171 41.2292L42.0772 43.4206H41.7237L40.8858 41.2311L40.9347 42.4831V43.4206H40.4425V40.5768H41.0831ZM44.4054 43.4206H43.9308V41.3073H44.4054V43.4206ZM43.9015 40.7585C43.9015 40.6855 43.9243 40.625 43.9698 40.5768C44.0167 40.5286 44.0831 40.5045 44.169 40.5045C44.255 40.5045 44.3214 40.5286 44.3683 40.5768C44.4151 40.625 44.4386 40.6855 44.4386 40.7585C44.4386 40.8301 44.4151 40.89 44.3683 40.9381C44.3214 40.985 44.255 41.0085 44.169 41.0085C44.0831 41.0085 44.0167 40.985 43.9698 40.9381C43.9243 40.89 43.9015 40.8301 43.9015 40.7585ZM45.7921 43.0807C45.9106 43.0807 46.0089 43.0462 46.087 42.9772C46.1651 42.9082 46.2068 42.8229 46.212 42.7213H46.6593C46.6541 42.8529 46.6131 42.9759 46.5362 43.0905C46.4594 43.2038 46.3552 43.2936 46.2237 43.36C46.0922 43.4264 45.9503 43.4596 45.798 43.4596C45.5024 43.4596 45.268 43.3639 45.0948 43.1725C44.9216 42.9811 44.8351 42.7168 44.8351 42.3795V42.3307C44.8351 42.0091 44.921 41.7519 45.0929 41.5592C45.2647 41.3652 45.4991 41.2682 45.796 41.2682C46.0473 41.2682 46.2517 41.3418 46.4093 41.4889C46.5681 41.6348 46.6515 41.8268 46.6593 42.0651H46.212C46.2068 41.944 46.1651 41.8444 46.087 41.7663C46.0102 41.6881 45.9119 41.6491 45.7921 41.6491C45.6384 41.6491 45.52 41.7051 45.4366 41.817C45.3533 41.9277 45.311 42.0963 45.3097 42.3229V42.3991C45.3097 42.6282 45.3507 42.7995 45.4327 42.9128C45.516 43.0247 45.6358 43.0807 45.7921 43.0807ZM47.4855 41.5378C47.6404 41.3581 47.8364 41.2682 48.0733 41.2682C48.5239 41.2682 48.7524 41.5254 48.7589 42.0397V43.4206H48.2843V42.0573C48.2843 41.9114 48.2524 41.8086 48.1886 41.7487C48.1261 41.6875 48.0336 41.6569 47.9112 41.6569C47.7211 41.6569 47.5792 41.7415 47.4855 41.9108V43.4206H47.0108V40.4206H47.4855V41.5378ZM49.7452 43.4206H49.2706V41.3073H49.7452V43.4206ZM49.2413 40.7585C49.2413 40.6855 49.2641 40.625 49.3097 40.5768C49.3565 40.5286 49.423 40.5045 49.5089 40.5045C49.5948 40.5045 49.6612 40.5286 49.7081 40.5768C49.755 40.625 49.7784 40.6855 49.7784 40.7585C49.7784 40.8301 49.755 40.89 49.7081 40.9381C49.6612 40.985 49.5948 41.0085 49.5089 41.0085C49.423 41.0085 49.3565 40.985 49.3097 40.9381C49.2641 40.89 49.2413 40.8301 49.2413 40.7585ZM50.1808 42.3483C50.1808 42.0202 50.2576 41.7585 50.4112 41.5631C50.5662 41.3665 50.7713 41.2682 51.0265 41.2682C51.2674 41.2682 51.4568 41.3522 51.5948 41.5202L51.6163 41.3073H52.044V43.3561C52.044 43.6335 51.9575 43.8522 51.7843 44.0124C51.6124 44.1725 51.38 44.2526 51.087 44.2526C50.9321 44.2526 50.7804 44.22 50.6319 44.1549C50.4848 44.0911 50.3728 44.0072 50.296 43.903L50.5206 43.6178C50.6664 43.791 50.8461 43.8776 51.0597 43.8776C51.2172 43.8776 51.3416 43.8346 51.4327 43.7487C51.5239 43.6641 51.5694 43.5391 51.5694 43.3737V43.2311C51.4327 43.3835 51.2504 43.4596 51.0226 43.4596C50.7752 43.4596 50.5727 43.3613 50.4151 43.1647C50.2589 42.9681 50.1808 42.696 50.1808 42.3483ZM50.6534 42.3893C50.6534 42.6016 50.6964 42.7689 50.7823 42.8913C50.8696 43.0124 50.99 43.0729 51.1437 43.0729C51.3351 43.0729 51.477 42.9909 51.5694 42.8268V41.8971C51.4796 41.737 51.339 41.6569 51.1476 41.6569C50.9913 41.6569 50.8696 41.7187 50.7823 41.8424C50.6964 41.9661 50.6534 42.1484 50.6534 42.3893ZM53.796 43.4206C53.7752 43.3802 53.7569 43.3144 53.7413 43.2233C53.5903 43.3808 53.4054 43.4596 53.1866 43.4596C52.9744 43.4596 52.8012 43.3991 52.6671 43.278C52.533 43.1569 52.4659 43.0072 52.4659 42.8288C52.4659 42.6035 52.5493 42.431 52.7159 42.3112C52.8839 42.1901 53.1235 42.1295 53.4347 42.1295H53.7257V41.9909C53.7257 41.8815 53.6951 41.7943 53.6339 41.7292C53.5727 41.6628 53.4796 41.6295 53.3546 41.6295C53.2465 41.6295 53.158 41.6569 53.089 41.7116C53.02 41.765 52.9855 41.8333 52.9855 41.9167H52.5108C52.5108 41.8008 52.5493 41.6927 52.6261 41.5924C52.7029 41.4909 52.8071 41.4114 52.9386 41.3542C53.0714 41.2969 53.2192 41.2682 53.3819 41.2682C53.6293 41.2682 53.8266 41.3307 53.9737 41.4557C54.1209 41.5794 54.1964 41.7539 54.2003 41.9792V42.9323C54.2003 43.1224 54.227 43.2741 54.2804 43.3874V43.4206H53.796ZM53.2745 43.0788C53.3683 43.0788 53.4562 43.056 53.5382 43.0104C53.6215 42.9648 53.684 42.9036 53.7257 42.8268V42.4284H53.4698C53.294 42.4284 53.1619 42.459 53.0733 42.5202C52.9848 42.5814 52.9405 42.668 52.9405 42.7799C52.9405 42.8711 52.9705 42.944 53.0304 42.9987C53.0916 43.0521 53.173 43.0788 53.2745 43.0788ZM55.1378 41.3073L55.1515 41.5514C55.3077 41.3626 55.5128 41.2682 55.7667 41.2682C56.2068 41.2682 56.4308 41.5202 56.4386 42.0241V43.4206H55.964V42.0514C55.964 41.9173 55.9347 41.8183 55.8761 41.7545C55.8188 41.6894 55.7244 41.6569 55.5929 41.6569C55.4015 41.6569 55.2589 41.7435 55.1651 41.9167V43.4206H54.6905V41.3073H55.1378ZM57.2101 42.9206C57.2986 42.9206 57.367 42.946 57.4151 42.9967C57.4633 43.0462 57.4874 43.1087 57.4874 43.1842C57.4874 43.2585 57.4633 43.3203 57.4151 43.3698C57.367 43.418 57.2986 43.442 57.2101 43.442C57.1254 43.442 57.0584 43.418 57.0089 43.3698C56.9594 43.3216 56.9347 43.2598 56.9347 43.1842C56.9347 43.1087 56.9588 43.0462 57.0069 42.9967C57.0551 42.946 57.1228 42.9206 57.2101 42.9206ZM57.2101 41.2624C57.2986 41.2624 57.367 41.2878 57.4151 41.3385C57.4633 41.388 57.4874 41.4505 57.4874 41.526C57.4874 41.6003 57.4633 41.6621 57.4151 41.7116C57.367 41.7598 57.2986 41.7838 57.2101 41.7838C57.1254 41.7838 57.0584 41.7598 57.0089 41.7116C56.9594 41.6634 56.9347 41.6016 56.9347 41.526C56.9347 41.4505 56.9588 41.388 57.0069 41.3385C57.0551 41.2878 57.1228 41.2624 57.2101 41.2624ZM16.7433 47.3639V48.4206H16.2491V45.5768H17.337C17.6547 45.5768 17.9067 45.6595 18.0929 45.8249C18.2804 45.9902 18.3741 46.209 18.3741 46.4811C18.3741 46.7598 18.2823 46.9766 18.0987 47.1315C17.9164 47.2864 17.6606 47.3639 17.3312 47.3639H16.7433ZM16.7433 46.9674H17.337C17.5128 46.9674 17.6469 46.9264 17.7394 46.8444C17.8318 46.7611 17.878 46.6413 17.878 46.485C17.878 46.3314 17.8312 46.209 17.7374 46.1178C17.6437 46.0254 17.5147 45.9779 17.3507 45.9753H16.7433V46.9674ZM19.5323 47.7409L19.962 46.3073H20.4679L19.628 48.7409C19.4991 49.0963 19.2804 49.2741 18.9718 49.2741C18.9028 49.2741 18.8266 49.2624 18.7433 49.2389V48.8717L18.8331 48.8776C18.9529 48.8776 19.0427 48.8555 19.1026 48.8112C19.1638 48.7682 19.212 48.6953 19.2472 48.5924L19.3155 48.4108L18.5733 46.3073H19.0851L19.5323 47.7409ZM21.337 45.7936V46.3073H21.7101V46.6588H21.337V47.8385C21.337 47.9193 21.3526 47.9779 21.3839 48.0143C21.4164 48.0495 21.4737 48.067 21.5558 48.067C21.6105 48.067 21.6658 48.0605 21.7218 48.0475V48.4147C21.6137 48.4447 21.5095 48.4596 21.4093 48.4596C21.0447 48.4596 20.8624 48.2585 20.8624 47.8561V46.6588H20.5147V46.3073H20.8624V45.7936H21.337ZM22.5421 46.5378C22.697 46.3581 22.893 46.2682 23.13 46.2682C23.5805 46.2682 23.809 46.5254 23.8155 47.0397V48.4206H23.3409V47.0573C23.3409 46.9114 23.309 46.8086 23.2452 46.7487C23.1827 46.6875 23.0903 46.6569 22.9679 46.6569C22.7778 46.6569 22.6358 46.7415 22.5421 46.9108V48.4206H22.0675V45.4206H22.5421V46.5378ZM24.2081 47.3444C24.2081 47.1374 24.2491 46.9512 24.3312 46.7858C24.4132 46.6191 24.5284 46.4915 24.6769 46.403C24.8253 46.3131 24.9959 46.2682 25.1886 46.2682C25.4737 46.2682 25.7049 46.36 25.8819 46.5436C26.0603 46.7272 26.1567 46.9707 26.171 47.2741L26.173 47.3854C26.173 47.5937 26.1326 47.7799 26.0519 47.944C25.9724 48.1081 25.8578 48.235 25.7081 48.3249C25.5597 48.4147 25.3878 48.4596 25.1925 48.4596C24.8943 48.4596 24.6554 48.3607 24.4757 48.1628C24.2973 47.9635 24.2081 47.6986 24.2081 47.3678V47.3444ZM24.6827 47.3854C24.6827 47.6029 24.7276 47.7734 24.8175 47.8971C24.9073 48.0195 25.0323 48.0807 25.1925 48.0807C25.3526 48.0807 25.477 48.0182 25.5655 47.8932C25.6554 47.7682 25.7003 47.5853 25.7003 47.3444C25.7003 47.1308 25.6541 46.9616 25.5616 46.8366C25.4705 46.7116 25.3461 46.6491 25.1886 46.6491C25.0336 46.6491 24.9106 46.7109 24.8194 46.8346C24.7283 46.957 24.6827 47.1406 24.6827 47.3854ZM27.0147 46.3073L27.0284 46.5514C27.1847 46.3626 27.3897 46.2682 27.6437 46.2682C28.0838 46.2682 28.3077 46.5202 28.3155 47.0241V48.4206H27.8409V47.0514C27.8409 46.9173 27.8116 46.8183 27.753 46.7545C27.6957 46.6894 27.6013 46.6569 27.4698 46.6569C27.2784 46.6569 27.1358 46.7435 27.0421 46.9167V48.4206H26.5675V46.3073H27.0147ZM31.4815 47.2155H30.337V48.4206H29.8429V45.5768H31.6495V45.9753H30.337V46.821H31.4815V47.2155ZM33.2335 48.2135C33.0942 48.3776 32.8963 48.4596 32.6397 48.4596C32.4106 48.4596 32.2368 48.3926 32.1183 48.2585C32.0011 48.1243 31.9425 47.9303 31.9425 47.6764V46.3073H32.4171V47.6706C32.4171 47.9388 32.5284 48.0729 32.7511 48.0729C32.9815 48.0729 33.1371 47.9902 33.2179 47.8249V46.3073H33.6925V48.4206H33.2452L33.2335 48.2135ZM34.6163 46.3073L34.63 46.5514C34.7862 46.3626 34.9913 46.2682 35.2452 46.2682C35.6853 46.2682 35.9093 46.5202 35.9171 47.0241V48.4206H35.4425V47.0514C35.4425 46.9173 35.4132 46.8183 35.3546 46.7545C35.2973 46.6894 35.2029 46.6569 35.0714 46.6569C34.88 46.6569 34.7374 46.7435 34.6437 46.9167V48.4206H34.169V46.3073H34.6163ZM37.2706 48.0807C37.3891 48.0807 37.4874 48.0462 37.5655 47.9772C37.6437 47.9082 37.6853 47.8229 37.6905 47.7213H38.1378C38.1326 47.8529 38.0916 47.9759 38.0147 48.0905C37.9379 48.2038 37.8338 48.2936 37.7022 48.36C37.5707 48.4264 37.4288 48.4596 37.2765 48.4596C36.9809 48.4596 36.7465 48.3639 36.5733 48.1725C36.4002 47.9811 36.3136 47.7168 36.3136 47.3795V47.3307C36.3136 47.0091 36.3995 46.7519 36.5714 46.5592C36.7433 46.3652 36.9776 46.2682 37.2745 46.2682C37.5258 46.2682 37.7302 46.3418 37.8878 46.4889C38.0466 46.6348 38.13 46.8268 38.1378 47.0651H37.6905C37.6853 46.944 37.6437 46.8444 37.5655 46.7663C37.4887 46.6881 37.3904 46.6491 37.2706 46.6491C37.117 46.6491 36.9985 46.7051 36.9151 46.817C36.8318 46.9277 36.7895 47.0963 36.7882 47.3229V47.3991C36.7882 47.6282 36.8292 47.7995 36.9112 47.9128C36.9946 48.0247 37.1144 48.0807 37.2706 48.0807ZM39.0909 45.7936V46.3073H39.464V46.6588H39.0909V47.8385C39.0909 47.9193 39.1065 47.9779 39.1378 48.0143C39.1703 48.0495 39.2276 48.067 39.3097 48.067C39.3644 48.067 39.4197 48.0605 39.4757 48.0475V48.4147C39.3676 48.4447 39.2634 48.4596 39.1632 48.4596C38.7986 48.4596 38.6163 48.2585 38.6163 47.8561V46.6588H38.2687V46.3073H38.6163V45.7936H39.0909ZM40.3331 48.4206H39.8585V46.3073H40.3331V48.4206ZM39.8292 45.7585C39.8292 45.6855 39.852 45.625 39.8976 45.5768C39.9444 45.5286 40.0108 45.5045 40.0968 45.5045C40.1827 45.5045 40.2491 45.5286 40.296 45.5768C40.3429 45.625 40.3663 45.6855 40.3663 45.7585C40.3663 45.8301 40.3429 45.89 40.296 45.9381C40.2491 45.985 40.1827 46.0085 40.0968 46.0085C40.0108 46.0085 39.9444 45.985 39.8976 45.9381C39.852 45.89 39.8292 45.8301 39.8292 45.7585ZM40.7628 47.3444C40.7628 47.1374 40.8038 46.9512 40.8858 46.7858C40.9679 46.6191 41.0831 46.4915 41.2315 46.403C41.38 46.3131 41.5506 46.2682 41.7433 46.2682C42.0284 46.2682 42.2595 46.36 42.4366 46.5436C42.615 46.7272 42.7114 46.9707 42.7257 47.2741L42.7276 47.3854C42.7276 47.5937 42.6873 47.7799 42.6065 47.944C42.5271 48.1081 42.4125 48.235 42.2628 48.3249C42.1144 48.4147 41.9425 48.4596 41.7472 48.4596C41.449 48.4596 41.2101 48.3607 41.0304 48.1628C40.852 47.9635 40.7628 47.6986 40.7628 47.3678V47.3444ZM41.2374 47.3854C41.2374 47.6029 41.2823 47.7734 41.3722 47.8971C41.462 48.0195 41.587 48.0807 41.7472 48.0807C41.9073 48.0807 42.0317 48.0182 42.1202 47.8932C42.2101 47.7682 42.255 47.5853 42.255 47.3444C42.255 47.1308 42.2088 46.9616 42.1163 46.8366C42.0252 46.7116 41.9008 46.6491 41.7433 46.6491C41.5883 46.6491 41.4653 46.7109 41.3741 46.8346C41.283 46.957 41.2374 47.1406 41.2374 47.3854ZM43.5694 46.3073L43.5831 46.5514C43.7394 46.3626 43.9444 46.2682 44.1983 46.2682C44.6384 46.2682 44.8624 46.5202 44.8702 47.0241V48.4206H44.3956V47.0514C44.3956 46.9173 44.3663 46.8183 44.3077 46.7545C44.2504 46.6894 44.156 46.6569 44.0245 46.6569C43.8331 46.6569 43.6905 46.7435 43.5968 46.9167V48.4206H43.1222V46.3073H43.5694ZM46.5401 47.8463C46.5401 47.7617 46.505 47.6973 46.4347 47.653C46.3657 47.6087 46.2504 47.5697 46.089 47.5358C45.9275 47.5019 45.7927 47.459 45.6847 47.4069C45.4477 47.2923 45.3292 47.1263 45.3292 46.9088C45.3292 46.7266 45.406 46.5742 45.5597 46.4518C45.7133 46.3294 45.9086 46.2682 46.1456 46.2682C46.3982 46.2682 46.602 46.3307 46.7569 46.4557C46.9132 46.5807 46.9913 46.7428 46.9913 46.942H46.5167C46.5167 46.8509 46.4828 46.7754 46.4151 46.7155C46.3474 46.6543 46.2576 46.6237 46.1456 46.6237C46.0414 46.6237 45.9562 46.6478 45.8897 46.696C45.8246 46.7441 45.7921 46.8086 45.7921 46.8893C45.7921 46.9622 45.8227 47.0189 45.8839 47.0592C45.9451 47.0996 46.0688 47.1406 46.255 47.1823C46.4412 47.2226 46.587 47.2715 46.6925 47.3288C46.7993 47.3848 46.878 47.4525 46.9288 47.5319C46.9809 47.6113 47.0069 47.7077 47.0069 47.821C47.0069 48.0111 46.9282 48.1654 46.7706 48.2838C46.6131 48.401 46.4067 48.4596 46.1515 48.4596C45.9783 48.4596 45.824 48.4284 45.6886 48.3659C45.5532 48.3034 45.4477 48.2174 45.3722 48.1081C45.2966 47.9987 45.2589 47.8808 45.2589 47.7545H45.7198C45.7263 47.8665 45.7687 47.9531 45.8468 48.0143C45.9249 48.0742 46.0284 48.1042 46.1573 48.1042C46.2823 48.1042 46.3774 48.0807 46.4425 48.0338C46.5076 47.9857 46.5401 47.9232 46.5401 47.8463ZM47.4894 49.0612L47.2335 48.9088C47.309 48.7904 47.3605 48.6868 47.3878 48.5983C47.4164 48.5111 47.4314 48.4219 47.4327 48.3307V47.9616H47.8605L47.8585 48.3034C47.8572 48.4414 47.822 48.5794 47.753 48.7174C47.6853 48.8568 47.5974 48.9713 47.4894 49.0612ZM50.9815 47.2155H49.837V48.4206H49.3429V45.5768H51.1495V45.9753H49.837V46.821H50.9815V47.2155ZM52.0011 48.4206H51.5265V46.3073H52.0011V48.4206ZM51.4972 45.7585C51.4972 45.6855 51.52 45.625 51.5655 45.5768C51.6124 45.5286 51.6788 45.5045 51.7647 45.5045C51.8507 45.5045 51.9171 45.5286 51.964 45.5768C52.0108 45.625 52.0343 45.6855 52.0343 45.7585C52.0343 45.8301 52.0108 45.89 51.964 45.9381C51.9171 45.985 51.8507 46.0085 51.7647 46.0085C51.6788 46.0085 51.6124 45.985 51.5655 45.9381C51.52 45.89 51.4972 45.8301 51.4972 45.7585ZM53.0245 48.4206H52.5499V45.4206H53.0245V48.4206ZM54.4737 48.4596C54.173 48.4596 53.9288 48.3652 53.7413 48.1764C53.5551 47.9863 53.462 47.7337 53.462 47.4186V47.36C53.462 47.1491 53.5024 46.9609 53.5831 46.7956C53.6651 46.6289 53.7797 46.4993 53.9269 46.4069C54.074 46.3144 54.2381 46.2682 54.419 46.2682C54.7068 46.2682 54.9288 46.36 55.0851 46.5436C55.2426 46.7272 55.3214 46.987 55.3214 47.3229V47.5143H53.9405C53.9549 47.6888 54.0128 47.8268 54.1144 47.9284C54.2172 48.0299 54.3461 48.0807 54.5011 48.0807C54.7185 48.0807 54.8956 47.9928 55.0323 47.817L55.2882 48.0612C55.2035 48.1875 55.0903 48.2858 54.9483 48.3561C54.8077 48.4251 54.6495 48.4596 54.4737 48.4596ZM54.4171 46.6491C54.2869 46.6491 54.1814 46.6947 54.1007 46.7858C54.0213 46.8769 53.9705 47.0039 53.9483 47.1667H54.8526V47.1315C54.8422 46.9726 54.7999 46.8529 54.7257 46.7721C54.6515 46.6901 54.5486 46.6491 54.4171 46.6491ZM56.8761 47.8463C56.8761 47.7617 56.8409 47.6973 56.7706 47.653C56.7016 47.6087 56.5864 47.5697 56.4249 47.5358C56.2634 47.5019 56.1287 47.459 56.0206 47.4069C55.7836 47.2923 55.6651 47.1263 55.6651 46.9088C55.6651 46.7266 55.742 46.5742 55.8956 46.4518C56.0493 46.3294 56.2446 46.2682 56.4815 46.2682C56.7341 46.2682 56.9379 46.3307 57.0929 46.4557C57.2491 46.5807 57.3272 46.7428 57.3272 46.942H56.8526C56.8526 46.8509 56.8188 46.7754 56.7511 46.7155C56.6834 46.6543 56.5935 46.6237 56.4815 46.6237C56.3774 46.6237 56.2921 46.6478 56.2257 46.696C56.1606 46.7441 56.128 46.8086 56.128 46.8893C56.128 46.9622 56.1586 47.0189 56.2198 47.0592C56.281 47.0996 56.4047 47.1406 56.5909 47.1823C56.7771 47.2226 56.923 47.2715 57.0284 47.3288C57.1352 47.3848 57.214 47.4525 57.2647 47.5319C57.3168 47.6113 57.3429 47.7077 57.3429 47.821C57.3429 48.0111 57.2641 48.1654 57.1065 48.2838C56.949 48.401 56.7426 48.4596 56.4874 48.4596C56.3142 48.4596 56.1599 48.4284 56.0245 48.3659C55.8891 48.3034 55.7836 48.2174 55.7081 48.1081C55.6326 47.9987 55.5948 47.8808 55.5948 47.7545H56.0558C56.0623 47.8665 56.1046 47.9531 56.1827 48.0143C56.2608 48.0742 56.3644 48.1042 56.4933 48.1042C56.6183 48.1042 56.7133 48.0807 56.7784 48.0338C56.8435 47.9857 56.8761 47.9232 56.8761 47.8463ZM24.2198 53.4206C24.199 53.3802 24.1808 53.3144 24.1651 53.2233C24.0141 53.3808 23.8292 53.4596 23.6105 53.4596C23.3982 53.4596 23.225 53.3991 23.0909 53.278C22.9568 53.1569 22.8897 53.0072 22.8897 52.8288C22.8897 52.6035 22.9731 52.431 23.1397 52.3112C23.3077 52.1901 23.5473 52.1295 23.8585 52.1295H24.1495V51.9909C24.1495 51.8815 24.1189 51.7943 24.0577 51.7292C23.9965 51.6628 23.9034 51.6295 23.7784 51.6295C23.6703 51.6295 23.5818 51.6569 23.5128 51.7116C23.4438 51.765 23.4093 51.8333 23.4093 51.9167H22.9347C22.9347 51.8008 22.9731 51.6927 23.0499 51.5924C23.1267 51.4909 23.2309 51.4114 23.3624 51.3542C23.4952 51.2969 23.643 51.2682 23.8058 51.2682C24.0532 51.2682 24.2504 51.3307 24.3976 51.4557C24.5447 51.5794 24.6202 51.7539 24.6241 51.9792V52.9323C24.6241 53.1224 24.6508 53.2741 24.7042 53.3874V53.4206H24.2198ZM23.6983 53.0788C23.7921 53.0788 23.88 53.056 23.962 53.0104C24.0453 52.9648 24.1078 52.9036 24.1495 52.8268V52.4284H23.8937C23.7179 52.4284 23.5857 52.459 23.4972 52.5202C23.4086 52.5814 23.3644 52.668 23.3644 52.7799C23.3644 52.8711 23.3943 52.944 23.4542 52.9987C23.5154 53.0521 23.5968 53.0788 23.6983 53.0788ZM25.5616 51.3073L25.5753 51.5514C25.7315 51.3626 25.9366 51.2682 26.1905 51.2682C26.6306 51.2682 26.8546 51.5202 26.8624 52.0241V53.4206H26.3878V52.0514C26.3878 51.9173 26.3585 51.8183 26.2999 51.7545C26.2426 51.6894 26.1482 51.6569 26.0167 51.6569C25.8253 51.6569 25.6827 51.7435 25.589 51.9167V53.4206H25.1144V51.3073H25.5616ZM27.2589 52.3483C27.2589 52.0228 27.3344 51.7617 27.4855 51.5651C27.6365 51.3672 27.839 51.2682 28.0929 51.2682C28.3168 51.2682 28.4978 51.3463 28.6358 51.5026V50.4206H29.1105V53.4206H28.6808L28.6573 53.2018C28.5154 53.3737 28.3259 53.4596 28.089 53.4596C27.8416 53.4596 27.641 53.36 27.4874 53.1608C27.3351 52.9616 27.2589 52.6907 27.2589 52.3483ZM27.7335 52.3893C27.7335 52.6042 27.7745 52.7721 27.8565 52.8932C27.9399 53.013 28.0577 53.0729 28.2101 53.0729C28.4041 53.0729 28.546 52.9863 28.6358 52.8131V51.9108C28.5486 51.7415 28.408 51.6569 28.214 51.6569C28.0603 51.6569 27.9418 51.7181 27.8585 51.8405C27.7752 51.9616 27.7335 52.1445 27.7335 52.3893ZM30.6476 53.4206V50.5768H31.4874C31.7387 50.5768 31.9614 50.6328 32.1554 50.7448C32.3507 50.8568 32.5017 51.0156 32.6085 51.2213C32.7153 51.4271 32.7687 51.6628 32.7687 51.9284V52.071C32.7687 52.3405 32.7146 52.5775 32.6065 52.7819C32.4998 52.9863 32.3468 53.1439 32.1476 53.2545C31.9496 53.3652 31.7224 53.4206 31.4659 53.4206H30.6476ZM31.1417 50.9753V53.026H31.464C31.7231 53.026 31.9216 52.9453 32.0597 52.7838C32.199 52.6211 32.27 52.388 32.2726 52.0846V51.9264C32.2726 51.6178 32.2055 51.3822 32.0714 51.2194C31.9373 51.0566 31.7426 50.9753 31.4874 50.9753H31.1417ZM33.7198 53.4206H33.2452V51.3073H33.7198V53.4206ZM33.2159 50.7585C33.2159 50.6855 33.2387 50.625 33.2843 50.5768C33.3312 50.5286 33.3976 50.5045 33.4835 50.5045C33.5694 50.5045 33.6358 50.5286 33.6827 50.5768C33.7296 50.625 33.753 50.6855 33.753 50.7585C33.753 50.8301 33.7296 50.89 33.6827 50.9381C33.6358 50.985 33.5694 51.0085 33.4835 51.0085C33.3976 51.0085 33.3312 50.985 33.2843 50.9381C33.2387 50.89 33.2159 50.8301 33.2159 50.7585ZM35.1065 53.0807C35.225 53.0807 35.3233 53.0462 35.4015 52.9772C35.4796 52.9082 35.5213 52.8229 35.5265 52.7213H35.9737C35.9685 52.8529 35.9275 52.9759 35.8507 53.0905C35.7739 53.2038 35.6697 53.2936 35.5382 53.36C35.4067 53.4264 35.2647 53.4596 35.1124 53.4596C34.8168 53.4596 34.5825 53.3639 34.4093 53.1725C34.2361 52.9811 34.1495 52.7168 34.1495 52.3795V52.3307C34.1495 52.0091 34.2355 51.7519 34.4073 51.5592C34.5792 51.3652 34.8136 51.2682 35.1105 51.2682C35.3618 51.2682 35.5662 51.3418 35.7237 51.4889C35.8826 51.6348 35.9659 51.8268 35.9737 52.0651H35.5265C35.5213 51.944 35.4796 51.8444 35.4015 51.7663C35.3246 51.6881 35.2263 51.6491 35.1065 51.6491C34.9529 51.6491 34.8344 51.7051 34.7511 51.817C34.6677 51.9277 34.6254 52.0963 34.6241 52.3229V52.3991C34.6241 52.6282 34.6651 52.7995 34.7472 52.9128C34.8305 53.0247 34.9503 53.0807 35.1065 53.0807ZM36.9269 50.7936V51.3073H37.2999V51.6588H36.9269V52.8385C36.9269 52.9193 36.9425 52.9779 36.9737 53.0143C37.0063 53.0495 37.0636 53.067 37.1456 53.067C37.2003 53.067 37.2556 53.0605 37.3116 53.0475V53.4147C37.2035 53.4447 37.0994 53.4596 36.9991 53.4596C36.6345 53.4596 36.4522 53.2585 36.4522 52.8561V51.6588H36.1046V51.3073H36.4522V50.7936H36.9269ZM38.169 53.4206H37.6944V51.3073H38.169V53.4206ZM37.6651 50.7585C37.6651 50.6855 37.6879 50.625 37.7335 50.5768C37.7804 50.5286 37.8468 50.5045 37.9327 50.5045C38.0187 50.5045 38.0851 50.5286 38.1319 50.5768C38.1788 50.625 38.2022 50.6855 38.2022 50.7585C38.2022 50.8301 38.1788 50.89 38.1319 50.9381C38.0851 50.985 38.0187 51.0085 37.9327 51.0085C37.8468 51.0085 37.7804 50.985 37.7335 50.9381C37.6879 50.89 37.6651 50.8301 37.6651 50.7585ZM38.5987 52.3444C38.5987 52.1374 38.6397 51.9512 38.7218 51.7858C38.8038 51.6191 38.919 51.4915 39.0675 51.403C39.2159 51.3131 39.3865 51.2682 39.5792 51.2682C39.8644 51.2682 40.0955 51.36 40.2726 51.5436C40.4509 51.7272 40.5473 51.9707 40.5616 52.2741L40.5636 52.3854C40.5636 52.5937 40.5232 52.7799 40.4425 52.944C40.3631 53.1081 40.2485 53.235 40.0987 53.3249C39.9503 53.4147 39.7784 53.4596 39.5831 53.4596C39.2849 53.4596 39.046 53.3607 38.8663 53.1628C38.6879 52.9635 38.5987 52.6986 38.5987 52.3678V52.3444ZM39.0733 52.3854C39.0733 52.6029 39.1183 52.7734 39.2081 52.8971C39.298 53.0195 39.423 53.0807 39.5831 53.0807C39.7433 53.0807 39.8676 53.0182 39.9562 52.8932C40.046 52.7682 40.0909 52.5853 40.0909 52.3444C40.0909 52.1308 40.0447 51.9616 39.9522 51.8366C39.8611 51.7116 39.7368 51.6491 39.5792 51.6491C39.4243 51.6491 39.3012 51.7109 39.2101 51.8346C39.1189 51.957 39.0733 52.1406 39.0733 52.3854ZM41.4054 51.3073L41.419 51.5514C41.5753 51.3626 41.7804 51.2682 42.0343 51.2682C42.4744 51.2682 42.6983 51.5202 42.7062 52.0241V53.4206H42.2315V52.0514C42.2315 51.9173 42.2022 51.8183 42.1437 51.7545C42.0864 51.6894 41.992 51.6569 41.8605 51.6569C41.669 51.6569 41.5265 51.7435 41.4327 51.9167V53.4206H40.9581V51.3073H41.4054ZM44.4542 53.4206C44.4334 53.3802 44.4151 53.3144 44.3995 53.2233C44.2485 53.3808 44.0636 53.4596 43.8448 53.4596C43.6326 53.4596 43.4594 53.3991 43.3253 53.278C43.1912 53.1569 43.1241 53.0072 43.1241 52.8288C43.1241 52.6035 43.2075 52.431 43.3741 52.3112C43.5421 52.1901 43.7817 52.1295 44.0929 52.1295H44.3839V51.9909C44.3839 51.8815 44.3533 51.7943 44.2921 51.7292C44.2309 51.6628 44.1378 51.6295 44.0128 51.6295C43.9047 51.6295 43.8162 51.6569 43.7472 51.7116C43.6782 51.765 43.6437 51.8333 43.6437 51.9167H43.169C43.169 51.8008 43.2075 51.6927 43.2843 51.5924C43.3611 51.4909 43.4653 51.4114 43.5968 51.3542C43.7296 51.2969 43.8774 51.2682 44.0401 51.2682C44.2875 51.2682 44.4848 51.3307 44.6319 51.4557C44.7791 51.5794 44.8546 51.7539 44.8585 51.9792V52.9323C44.8585 53.1224 44.8852 53.2741 44.9386 53.3874V53.4206H44.4542ZM43.9327 53.0788C44.0265 53.0788 44.1144 53.056 44.1964 53.0104C44.2797 52.9648 44.3422 52.9036 44.3839 52.8268V52.4284H44.128C43.9522 52.4284 43.8201 52.459 43.7315 52.5202C43.643 52.5814 43.5987 52.668 43.5987 52.7799C43.5987 52.8711 43.6287 52.944 43.6886 52.9987C43.7498 53.0521 43.8312 53.0788 43.9327 53.0788ZM46.462 51.7409C46.3995 51.7305 46.3351 51.7253 46.2687 51.7253C46.0512 51.7253 45.9047 51.8086 45.8292 51.9753V53.4206H45.3546V51.3073H45.8077L45.8194 51.5436C45.934 51.36 46.0929 51.2682 46.296 51.2682C46.3637 51.2682 46.4197 51.2773 46.464 51.2956L46.462 51.7409ZM47.2667 53.4206H46.7921V51.3073H47.2667V53.4206ZM46.7628 50.7585C46.7628 50.6855 46.7856 50.625 46.8312 50.5768C46.878 50.5286 46.9444 50.5045 47.0304 50.5045C47.1163 50.5045 47.1827 50.5286 47.2296 50.5768C47.2765 50.625 47.2999 50.6855 47.2999 50.7585C47.2999 50.8301 47.2765 50.89 47.2296 50.9381C47.1827 50.985 47.1163 51.0085 47.0304 51.0085C46.9444 51.0085 46.878 50.985 46.8312 50.9381C46.7856 50.89 46.7628 50.8301 46.7628 50.7585ZM48.7159 53.4596C48.4151 53.4596 48.171 53.3652 47.9835 53.1764C47.7973 52.9863 47.7042 52.7337 47.7042 52.4186V52.36C47.7042 52.1491 47.7446 51.9609 47.8253 51.7956C47.9073 51.6289 48.0219 51.4993 48.169 51.4069C48.3162 51.3144 48.4802 51.2682 48.6612 51.2682C48.949 51.2682 49.171 51.36 49.3272 51.5436C49.4848 51.7272 49.5636 51.987 49.5636 52.3229V52.5143H48.1827C48.197 52.6888 48.255 52.8268 48.3565 52.9284C48.4594 53.0299 48.5883 53.0807 48.7433 53.0807C48.9607 53.0807 49.1378 52.9928 49.2745 52.817L49.5304 53.0612C49.4457 53.1875 49.3325 53.2858 49.1905 53.3561C49.0499 53.4251 48.8917 53.4596 48.7159 53.4596ZM48.6593 51.6491C48.5291 51.6491 48.4236 51.6947 48.3429 51.7858C48.2634 51.8769 48.2127 52.0039 48.1905 52.1667H49.0948V52.1315C49.0844 51.9726 49.0421 51.8529 48.9679 51.7721C48.8937 51.6901 48.7908 51.6491 48.6593 51.6491ZM51.1183 52.8463C51.1183 52.7617 51.0831 52.6973 51.0128 52.653C50.9438 52.6087 50.8285 52.5697 50.6671 52.5358C50.5056 52.5019 50.3709 52.459 50.2628 52.4069C50.0258 52.2923 49.9073 52.1263 49.9073 51.9088C49.9073 51.7266 49.9841 51.5742 50.1378 51.4518C50.2914 51.3294 50.4868 51.2682 50.7237 51.2682C50.9763 51.2682 51.1801 51.3307 51.3351 51.4557C51.4913 51.5807 51.5694 51.7428 51.5694 51.942H51.0948C51.0948 51.8509 51.061 51.7754 50.9933 51.7155C50.9256 51.6543 50.8357 51.6237 50.7237 51.6237C50.6196 51.6237 50.5343 51.6478 50.4679 51.696C50.4028 51.7441 50.3702 51.8086 50.3702 51.8893C50.3702 51.9622 50.4008 52.0189 50.462 52.0592C50.5232 52.0996 50.6469 52.1406 50.8331 52.1823C51.0193 52.2226 51.1651 52.2715 51.2706 52.3288C51.3774 52.3848 51.4562 52.4525 51.5069 52.5319C51.559 52.6113 51.5851 52.7077 51.5851 52.821C51.5851 53.0111 51.5063 53.1654 51.3487 53.2838C51.1912 53.401 50.9848 53.4596 50.7296 53.4596C50.5564 53.4596 50.4021 53.4284 50.2667 53.3659C50.1313 53.3034 50.0258 53.2174 49.9503 53.1081C49.8748 52.9987 49.837 52.8808 49.837 52.7545H50.298C50.3045 52.8665 50.3468 52.9531 50.4249 53.0143C50.503 53.0742 50.6065 53.1042 50.7355 53.1042C50.8605 53.1042 50.9555 53.0807 51.0206 53.0338C51.0857 52.9857 51.1183 52.9232 51.1183 52.8463Z" fill="#0B406C"/>
<path d="M27.701 62.0858C27.6652 62.465 27.5252 62.7612 27.2811 62.9744C27.0369 63.186 26.7122 63.2918 26.3069 63.2918C26.0237 63.2918 25.7739 63.2251 25.5574 63.0916C25.3426 62.9565 25.1766 62.7653 25.0594 62.5179C24.9422 62.2705 24.8812 61.9832 24.8763 61.6561V61.324C24.8763 60.9888 24.9357 60.6934 25.0545 60.4378C25.1733 60.1823 25.3434 59.9853 25.5647 59.847C25.7877 59.7086 26.0449 59.6395 26.3362 59.6395C26.7285 59.6395 27.0442 59.7461 27.2835 59.9593C27.5228 60.1725 27.6619 60.4736 27.701 60.8626H27.0857C27.0564 60.6071 26.9816 60.4232 26.8611 60.3109C26.7423 60.1969 26.5673 60.14 26.3362 60.14C26.0677 60.14 25.861 60.2384 25.7161 60.4354C25.5729 60.6307 25.4996 60.918 25.4964 61.2972V61.6121C25.4964 61.9962 25.5647 62.2892 25.7015 62.491C25.8398 62.6929 26.0416 62.7938 26.3069 62.7938C26.5494 62.7938 26.7317 62.7392 26.8538 62.6302C26.9759 62.5211 27.0532 62.3397 27.0857 62.0858H27.701ZM28.8289 63.243H28.2356V59.493H28.8289V63.243ZM30.1082 63.243H29.5149V60.6014H30.1082V63.243ZM29.4783 59.9154C29.4783 59.8242 29.5068 59.7485 29.5638 59.6883C29.6224 59.6281 29.7054 59.598 29.8128 59.598C29.9202 59.598 30.0032 59.6281 30.0618 59.6883C30.1204 59.7485 30.1497 59.8242 30.1497 59.9154C30.1497 60.0049 30.1204 60.0797 30.0618 60.14C30.0032 60.1986 29.9202 60.2279 29.8128 60.2279C29.7054 60.2279 29.6224 60.1986 29.5638 60.14C29.5068 60.0797 29.4783 60.0049 29.4783 59.9154ZM31.8416 62.8182C31.9897 62.8182 32.1126 62.7751 32.2103 62.6888C32.3079 62.6025 32.36 62.4959 32.3665 62.369H32.9256C32.9191 62.5334 32.8678 62.6872 32.7718 62.8304C32.6757 62.972 32.5455 63.0843 32.3812 63.1673C32.2168 63.2503 32.0394 63.2918 31.8489 63.2918C31.4795 63.2918 31.1865 63.1722 30.97 62.9329C30.7535 62.6937 30.6453 62.3633 30.6453 61.9417V61.8807C30.6453 61.4787 30.7527 61.1572 30.9676 60.9163C31.1824 60.6738 31.4754 60.5526 31.8465 60.5526C32.1606 60.5526 32.4161 60.6445 32.6131 60.8284C32.8117 61.0107 32.9158 61.2508 32.9256 61.5487H32.3665C32.36 61.3973 32.3079 61.2728 32.2103 61.1751C32.1142 61.0775 31.9913 61.0286 31.8416 61.0286C31.6495 61.0286 31.5014 61.0986 31.3973 61.2386C31.2931 61.3769 31.2402 61.5877 31.2386 61.8709V61.9661C31.2386 62.2526 31.2898 62.4666 31.3924 62.6082C31.4965 62.7482 31.6463 62.8182 31.8416 62.8182ZM34.2317 62.1102L33.9681 62.3812V63.243H33.3748V59.493H33.9681V61.6561L34.1536 61.4241L34.8836 60.6014H35.5965L34.615 61.7025L35.7015 63.243H35.0154L34.2317 62.1102ZM37.8157 60.8895C38.0094 60.6649 38.2544 60.5526 38.5506 60.5526C39.1137 60.5526 39.3994 60.874 39.4075 61.5169V63.243H38.8143V61.5389C38.8143 61.3566 38.7744 61.228 38.6946 61.1531C38.6165 61.0767 38.5009 61.0384 38.3479 61.0384C38.1103 61.0384 37.9329 61.1442 37.8157 61.3558V63.243H37.2225V59.493H37.8157V60.8895ZM41.1727 63.2918C40.7967 63.2918 40.4915 63.1738 40.2571 62.9378C40.0244 62.7002 39.908 62.3844 39.908 61.9906V61.9173C39.908 61.6536 39.9585 61.4184 40.0594 61.2117C40.1619 61.0034 40.3051 60.8415 40.4891 60.7259C40.673 60.6103 40.8781 60.5526 41.1043 60.5526C41.464 60.5526 41.7415 60.6673 41.9368 60.8968C42.1338 61.1263 42.2322 61.451 42.2322 61.8709V62.1102H40.5062C40.5241 62.3283 40.5965 62.5008 40.7234 62.6278C40.852 62.7547 41.0131 62.8182 41.2068 62.8182C41.4786 62.8182 41.7 62.7083 41.8709 62.4886L42.1907 62.7938C42.0849 62.9517 41.9433 63.0745 41.7659 63.1624C41.5901 63.2487 41.3924 63.2918 41.1727 63.2918ZM41.1019 61.0286C40.9391 61.0286 40.8073 61.0856 40.7063 61.1995C40.6071 61.3135 40.5436 61.4722 40.5159 61.6756H41.6463V61.6317C41.6333 61.4331 41.5804 61.2834 41.4876 61.1824C41.3948 61.0799 41.2662 61.0286 41.1019 61.0286ZM44.0779 61.1434C43.9998 61.1304 43.9192 61.1239 43.8362 61.1239C43.5644 61.1239 43.3813 61.228 43.2869 61.4364V63.243H42.6937V60.6014H43.2601L43.2747 60.8968C43.4179 60.6673 43.6165 60.5526 43.8704 60.5526C43.955 60.5526 44.025 60.564 44.0804 60.5867L44.0779 61.1434ZM45.5672 63.2918C45.1912 63.2918 44.886 63.1738 44.6517 62.9378C44.4189 62.7002 44.3025 62.3844 44.3025 61.9906V61.9173C44.3025 61.6536 44.353 61.4184 44.4539 61.2117C44.5564 61.0034 44.6997 60.8415 44.8836 60.7259C45.0675 60.6103 45.2726 60.5526 45.4988 60.5526C45.8585 60.5526 46.136 60.6673 46.3313 60.8968C46.5283 61.1263 46.6268 61.451 46.6268 61.8709V62.1102H44.9007C44.9186 62.3283 44.991 62.5008 45.118 62.6278C45.2465 62.7547 45.4077 62.8182 45.6014 62.8182C45.8732 62.8182 46.0945 62.7083 46.2654 62.4886L46.5853 62.7938C46.4795 62.9517 46.3379 63.0745 46.1604 63.1624C45.9847 63.2487 45.7869 63.2918 45.5672 63.2918ZM45.4964 61.0286C45.3336 61.0286 45.2018 61.0856 45.1009 61.1995C45.0016 61.3135 44.9381 61.4722 44.9104 61.6756H46.0408V61.6317C46.0278 61.4331 45.9749 61.2834 45.8821 61.1824C45.7894 61.0799 45.6608 61.0286 45.4964 61.0286Z" fill="#BFFBDE"/>
<defs>
<filter id="filter0_d" x="0" y="0" width="75" height="84" filterUnits="userSpaceOnUse" color-interpolation-filters="sRGB">
<feFlood flood-opacity="0" result="BackgroundImageFix"/>
<feColorMatrix in="SourceAlpha" type="matrix" values="0 0 0 0 0 0 0 0 0 0 0 0 0 0 0 0 0 0 127 0" result="hardAlpha"/>
<feOffset dy="4"/>
<feGaussianBlur stdDeviation="2"/>
<feColorMatrix type="matrix" values="0 0 0 0 0 0 0 0 0 0 0 0 0 0 0 0 0 0 0.25 0"/>
<feBlend mode="normal" in2="BackgroundImageFix" result="effect1_dropShadow"/>
<feBlend mode="normal" in="SourceGraphic" in2="effect1_dropShadow" result="shape"/>
</filter>
<linearGradient id="paint0_linear" x1="26.9072" y1="6.07362" x2="40.8307" y2="19.7795" gradientUnits="userSpaceOnUse">
<stop stop-color="#387EB8"/>
<stop offset="1" stop-color="#366994"/>
</linearGradient>
<linearGradient id="paint1_linear" x1="35.4051" y1="14.9257" x2="50.3535" y2="28.9762" gradientUnits="userSpaceOnUse">
<stop stop-color="#FFE052"/>
<stop offset="1" stop-color="#FFC331"/>
</linearGradient>
<clipPath id="clip0">
<rect width="28.0053" height="28.0561" fill="white" transform="translate(24.2063 3.5514)"/>
</clipPath>
</defs>
</svg>
