<svg width="197" height="222" viewBox="0 0 197 222" fill="none" xmlns="http://www.w3.org/2000/svg">
<g filter="url(#filter0_d)">
<rect x="4" width="189" height="214" rx="39" fill="#405C50"/>
</g>
<path d="M100.166 10.0227C80.1592 10.0227 81.4085 18.7329 81.4085 18.7329L81.4308 27.7566H100.523V30.4659H73.8475C73.8475 30.4659 61.0452 29.0083 61.0452 49.2746C61.0452 69.5408 72.2194 68.8221 72.2194 68.8221H78.8882V59.4178C78.8882 59.4178 78.5287 48.1998 89.884 48.1998H108.82C108.82 48.1998 119.459 48.3724 119.459 37.8774V20.5242C119.459 20.5242 121.074 10.0227 100.166 10.0227ZM89.6386 16.0907C91.5381 16.0907 93.0734 17.632 93.0734 19.539C93.0734 21.446 91.5381 22.9872 89.6386 22.9872C87.7391 22.9872 86.2038 21.446 86.2038 19.539C86.2038 17.632 87.7391 16.0907 89.6386 16.0907Z" fill="url(#paint0_linear)"/>
<path d="M100.734 88.7293C120.741 88.7293 119.491 80.0191 119.491 80.0191L119.469 70.9955H100.377V68.2861H127.052C127.052 68.2861 139.855 69.7437 139.855 49.4775C139.855 29.2112 128.68 29.9299 128.68 29.9299H122.012V39.3342C122.012 39.3342 122.371 50.5522 111.016 50.5522H92.0798C92.0798 50.5522 81.4409 50.3796 81.4409 60.8746V78.2278C81.4409 78.2278 79.8256 88.7293 100.734 88.7293ZM111.261 82.6613C109.362 82.6613 107.826 81.12 107.826 79.213C107.826 77.3061 109.362 75.7648 111.261 75.7648C113.161 75.7648 114.696 77.3061 114.696 79.213C114.696 81.12 113.161 82.6613 111.261 82.6613Z" fill="url(#paint1_linear)"/>
<rect x="19" y="100" width="160" height="93" rx="16" fill="#8AD4B5"/>
<path d="M33.5146 114.047V120.698C33.5146 121.756 33.1751 122.594 32.4961 123.214C31.8216 123.829 30.9215 124.137 29.7959 124.137C28.6566 124.137 27.752 123.834 27.082 123.228C26.4121 122.617 26.0771 121.771 26.0771 120.691V114.047H27.7998V120.705C27.7998 121.37 27.9684 121.879 28.3057 122.229C28.6429 122.58 29.1396 122.756 29.7959 122.756C31.1266 122.756 31.792 122.054 31.792 120.65V114.047H33.5146ZM36.748 116.604L36.7959 117.458C37.3428 116.797 38.0605 116.467 38.9492 116.467C40.4896 116.467 41.2734 117.349 41.3008 119.112V124H39.6396V119.208C39.6396 118.739 39.5371 118.392 39.332 118.169C39.1315 117.941 38.8011 117.827 38.3408 117.827C37.6709 117.827 37.1719 118.13 36.8438 118.736V124H35.1826V116.604H36.748ZM44.7666 124H43.1055V116.604H44.7666V124ZM43.0029 114.683C43.0029 114.427 43.0827 114.215 43.2422 114.047C43.4062 113.878 43.6387 113.794 43.9395 113.794C44.2402 113.794 44.4727 113.878 44.6367 114.047C44.8008 114.215 44.8828 114.427 44.8828 114.683C44.8828 114.933 44.8008 115.143 44.6367 115.312C44.4727 115.476 44.2402 115.558 43.9395 115.558C43.6387 115.558 43.4062 115.476 43.2422 115.312C43.0827 115.143 43.0029 114.933 43.0029 114.683ZM49.1895 121.895L50.7549 116.604H52.4707L49.9072 124H48.4648L45.8809 116.604H47.6035L49.1895 121.895ZM56.6748 124.137C55.6221 124.137 54.7676 123.806 54.1113 123.146C53.4596 122.48 53.1338 121.596 53.1338 120.493V120.288C53.1338 119.55 53.2751 118.891 53.5576 118.312C53.8447 117.729 54.2458 117.276 54.7607 116.952C55.2757 116.629 55.8499 116.467 56.4834 116.467C57.4906 116.467 58.2676 116.788 58.8145 117.431C59.3659 118.073 59.6416 118.982 59.6416 120.158V120.828H54.8086C54.8587 121.439 55.0615 121.922 55.417 122.277C55.777 122.633 56.2282 122.811 56.7705 122.811C57.5316 122.811 58.1514 122.503 58.6299 121.888L59.5254 122.742C59.2292 123.184 58.8327 123.528 58.3359 123.774C57.8438 124.016 57.29 124.137 56.6748 124.137ZM56.4766 117.8C56.0208 117.8 55.6517 117.959 55.3691 118.278C55.0911 118.597 54.9134 119.042 54.8359 119.611H58.001V119.488C57.9645 118.932 57.8164 118.513 57.5566 118.23C57.2969 117.943 56.9368 117.8 56.4766 117.8ZM64.8096 118.121C64.5908 118.085 64.3652 118.066 64.1328 118.066C63.3717 118.066 62.859 118.358 62.5947 118.941V124H60.9336V116.604H62.5195L62.5605 117.431C62.9616 116.788 63.5176 116.467 64.2285 116.467C64.4655 116.467 64.6615 116.499 64.8164 116.562L64.8096 118.121ZM70.0049 121.99C70.0049 121.694 69.8818 121.468 69.6357 121.313C69.3942 121.159 68.9909 121.022 68.4258 120.903C67.8607 120.785 67.389 120.634 67.0107 120.452C66.1813 120.051 65.7666 119.47 65.7666 118.709C65.7666 118.071 66.0355 117.538 66.5732 117.109C67.111 116.681 67.7946 116.467 68.624 116.467C69.5081 116.467 70.2214 116.686 70.7637 117.123C71.3105 117.561 71.584 118.128 71.584 118.825H69.9229C69.9229 118.506 69.8044 118.242 69.5674 118.032C69.3304 117.818 69.016 117.711 68.624 117.711C68.2594 117.711 67.9609 117.795 67.7285 117.964C67.5007 118.132 67.3867 118.358 67.3867 118.641C67.3867 118.896 67.4938 119.094 67.708 119.235C67.9222 119.377 68.3551 119.52 69.0068 119.666C69.6585 119.807 70.1689 119.978 70.5381 120.179C70.9118 120.375 71.1875 120.612 71.3652 120.89C71.5475 121.168 71.6387 121.505 71.6387 121.901C71.6387 122.567 71.363 123.107 70.8115 123.521C70.2601 123.932 69.5378 124.137 68.6445 124.137C68.0384 124.137 67.4984 124.027 67.0244 123.809C66.5505 123.59 66.1813 123.289 65.917 122.906C65.6527 122.523 65.5205 122.111 65.5205 121.669H67.1338C67.1566 122.061 67.3047 122.364 67.5781 122.578C67.8516 122.788 68.2139 122.893 68.665 122.893C69.1025 122.893 69.4352 122.811 69.6631 122.646C69.891 122.478 70.0049 122.259 70.0049 121.99ZM74.8584 124H73.1973V116.604H74.8584V124ZM73.0947 114.683C73.0947 114.427 73.1745 114.215 73.334 114.047C73.498 113.878 73.7305 113.794 74.0312 113.794C74.332 113.794 74.5645 113.878 74.7285 114.047C74.8926 114.215 74.9746 114.427 74.9746 114.683C74.9746 114.933 74.8926 115.143 74.7285 115.312C74.5645 115.476 74.332 115.558 74.0312 115.558C73.7305 115.558 73.498 115.476 73.334 115.312C73.1745 115.143 73.0947 114.933 73.0947 114.683ZM78.7549 114.806V116.604H80.0605V117.834H78.7549V121.963C78.7549 122.245 78.8096 122.451 78.9189 122.578C79.0329 122.701 79.2334 122.763 79.5205 122.763C79.7119 122.763 79.9056 122.74 80.1016 122.694V123.979C79.7233 124.084 79.3587 124.137 79.0078 124.137C77.7318 124.137 77.0938 123.433 77.0938 122.024V117.834H75.877V116.604H77.0938V114.806H78.7549ZM83.9229 121.621L85.4268 116.604H87.1973L84.2578 125.121C83.8066 126.365 83.041 126.987 81.9609 126.987C81.7194 126.987 81.4528 126.946 81.1611 126.864V125.579L81.4756 125.6C81.8949 125.6 82.2093 125.522 82.4189 125.367C82.6331 125.217 82.8018 124.962 82.9248 124.602L83.1641 123.966L80.5664 116.604H82.3574L83.9229 121.621ZM91.333 120.233C91.333 119.509 91.4766 118.857 91.7637 118.278C92.0508 117.695 92.4541 117.248 92.9736 116.938C93.4932 116.624 94.0902 116.467 94.7646 116.467C95.7627 116.467 96.5716 116.788 97.1914 117.431C97.8158 118.073 98.153 118.925 98.2031 119.987L98.21 120.377C98.21 121.106 98.0687 121.758 97.7861 122.332C97.5081 122.906 97.1071 123.351 96.583 123.665C96.0635 123.979 95.4619 124.137 94.7783 124.137C93.7347 124.137 92.8984 123.79 92.2695 123.098C91.6452 122.4 91.333 121.473 91.333 120.315V120.233ZM92.9941 120.377C92.9941 121.138 93.1514 121.735 93.4658 122.168C93.7803 122.596 94.2178 122.811 94.7783 122.811C95.3389 122.811 95.7741 122.592 96.084 122.154C96.3984 121.717 96.5557 121.076 96.5557 120.233C96.5557 119.486 96.3939 118.894 96.0703 118.456C95.7513 118.019 95.3161 117.8 94.7646 117.8C94.2223 117.8 93.7917 118.016 93.4727 118.449C93.1536 118.878 92.9941 119.52 92.9941 120.377ZM100.199 124V117.834H99.0713V116.604H100.199V115.927C100.199 115.106 100.427 114.473 100.883 114.026C101.339 113.58 101.977 113.356 102.797 113.356C103.089 113.356 103.398 113.397 103.727 113.479L103.686 114.778C103.503 114.742 103.291 114.724 103.05 114.724C102.257 114.724 101.86 115.132 101.86 115.947V116.604H103.364V117.834H101.86V124H100.199ZM110.467 114.047L113.338 121.676L116.202 114.047H118.438V124H116.715V120.719L116.886 116.33L113.946 124H112.709L109.776 116.337L109.947 120.719V124H108.225V114.047H110.467ZM122.095 124H120.434V116.604H122.095V124ZM120.331 114.683C120.331 114.427 120.411 114.215 120.57 114.047C120.734 113.878 120.967 113.794 121.268 113.794C121.568 113.794 121.801 113.878 121.965 114.047C122.129 114.215 122.211 114.427 122.211 114.683C122.211 114.933 122.129 115.143 121.965 115.312C121.801 115.476 121.568 115.558 121.268 115.558C120.967 115.558 120.734 115.476 120.57 115.312C120.411 115.143 120.331 114.933 120.331 114.683ZM126.948 122.811C127.363 122.811 127.707 122.69 127.98 122.448C128.254 122.207 128.4 121.908 128.418 121.553H129.983C129.965 122.013 129.822 122.444 129.553 122.845C129.284 123.241 128.919 123.556 128.459 123.788C127.999 124.021 127.502 124.137 126.969 124.137C125.934 124.137 125.114 123.802 124.508 123.132C123.902 122.462 123.599 121.537 123.599 120.356V120.186C123.599 119.06 123.899 118.16 124.501 117.485C125.103 116.806 125.923 116.467 126.962 116.467C127.841 116.467 128.557 116.724 129.108 117.239C129.664 117.75 129.956 118.422 129.983 119.256H128.418C128.4 118.832 128.254 118.483 127.98 118.21C127.712 117.937 127.368 117.8 126.948 117.8C126.41 117.8 125.996 117.996 125.704 118.388C125.412 118.775 125.264 119.365 125.26 120.158V120.425C125.26 121.227 125.403 121.826 125.69 122.223C125.982 122.615 126.401 122.811 126.948 122.811ZM132.875 117.41C133.417 116.781 134.103 116.467 134.933 116.467C136.509 116.467 137.309 117.367 137.332 119.167V124H135.671V119.229C135.671 118.718 135.559 118.358 135.336 118.148C135.117 117.934 134.794 117.827 134.365 117.827C133.7 117.827 133.203 118.123 132.875 118.716V124H131.214V113.5H132.875V117.41ZM140.784 124H139.123V116.604H140.784V124ZM139.021 114.683C139.021 114.427 139.1 114.215 139.26 114.047C139.424 113.878 139.656 113.794 139.957 113.794C140.258 113.794 140.49 113.878 140.654 114.047C140.818 114.215 140.9 114.427 140.9 114.683C140.9 114.933 140.818 115.143 140.654 115.312C140.49 115.476 140.258 115.558 139.957 115.558C139.656 115.558 139.424 115.476 139.26 115.312C139.1 115.143 139.021 114.933 139.021 114.683ZM142.309 120.247C142.309 119.099 142.577 118.183 143.115 117.499C143.658 116.811 144.375 116.467 145.269 116.467C146.112 116.467 146.775 116.761 147.258 117.349L147.333 116.604H148.83V123.774C148.83 124.745 148.527 125.511 147.921 126.071C147.319 126.632 146.506 126.912 145.48 126.912C144.938 126.912 144.407 126.798 143.888 126.57C143.373 126.347 142.981 126.053 142.712 125.688L143.498 124.69C144.008 125.297 144.637 125.6 145.385 125.6C145.936 125.6 146.371 125.449 146.69 125.148C147.009 124.852 147.169 124.415 147.169 123.836V123.337C146.69 123.87 146.052 124.137 145.255 124.137C144.389 124.137 143.68 123.793 143.129 123.104C142.582 122.416 142.309 121.464 142.309 120.247ZM143.963 120.391C143.963 121.133 144.113 121.719 144.414 122.147C144.719 122.571 145.141 122.783 145.679 122.783C146.349 122.783 146.845 122.496 147.169 121.922V118.668C146.854 118.107 146.362 117.827 145.692 117.827C145.146 117.827 144.719 118.044 144.414 118.477C144.113 118.91 143.963 119.548 143.963 120.391ZM154.962 124C154.889 123.859 154.825 123.629 154.771 123.31C154.242 123.861 153.595 124.137 152.829 124.137C152.086 124.137 151.48 123.925 151.011 123.501C150.541 123.077 150.307 122.553 150.307 121.929C150.307 121.14 150.598 120.536 151.182 120.117C151.77 119.693 152.608 119.481 153.697 119.481H154.716V118.996C154.716 118.613 154.609 118.308 154.395 118.08C154.18 117.848 153.854 117.731 153.417 117.731C153.039 117.731 152.729 117.827 152.487 118.019C152.246 118.205 152.125 118.445 152.125 118.736H150.464C150.464 118.331 150.598 117.952 150.867 117.602C151.136 117.246 151.501 116.968 151.961 116.768C152.426 116.567 152.943 116.467 153.513 116.467C154.379 116.467 155.069 116.686 155.584 117.123C156.099 117.556 156.363 118.167 156.377 118.955V122.291C156.377 122.956 156.47 123.487 156.657 123.884V124H154.962ZM153.137 122.804C153.465 122.804 153.772 122.724 154.06 122.564C154.351 122.405 154.57 122.191 154.716 121.922V120.527H153.82C153.205 120.527 152.743 120.634 152.433 120.849C152.123 121.063 151.968 121.366 151.968 121.758C151.968 122.077 152.073 122.332 152.282 122.523C152.496 122.71 152.781 122.804 153.137 122.804ZM159.658 116.604L159.706 117.458C160.253 116.797 160.971 116.467 161.859 116.467C163.4 116.467 164.184 117.349 164.211 119.112V124H162.55V119.208C162.55 118.739 162.447 118.392 162.242 118.169C162.042 117.941 161.711 117.827 161.251 117.827C160.581 117.827 160.082 118.13 159.754 118.736V124H158.093V116.604H159.658ZM166.911 122.25C167.221 122.25 167.46 122.339 167.629 122.517C167.798 122.69 167.882 122.909 167.882 123.173C167.882 123.433 167.798 123.649 167.629 123.822C167.46 123.991 167.221 124.075 166.911 124.075C166.615 124.075 166.38 123.991 166.207 123.822C166.034 123.654 165.947 123.437 165.947 123.173C165.947 122.909 166.032 122.69 166.2 122.517C166.369 122.339 166.606 122.25 166.911 122.25ZM166.911 116.446C167.221 116.446 167.46 116.535 167.629 116.713C167.798 116.886 167.882 117.105 167.882 117.369C167.882 117.629 167.798 117.845 167.629 118.019C167.46 118.187 167.221 118.271 166.911 118.271C166.615 118.271 166.38 118.187 166.207 118.019C166.034 117.85 165.947 117.633 165.947 117.369C165.947 117.105 166.032 116.886 166.2 116.713C166.369 116.535 166.606 116.446 166.911 116.446ZM37.8145 136.302V140H36.085V130.047H39.8926C41.0046 130.047 41.8864 130.336 42.5381 130.915C43.1943 131.494 43.5225 132.259 43.5225 133.212C43.5225 134.187 43.2012 134.946 42.5586 135.488C41.9206 136.031 41.0251 136.302 39.8721 136.302H37.8145ZM37.8145 134.914H39.8926C40.5078 134.914 40.9772 134.771 41.3008 134.483C41.6243 134.192 41.7861 133.772 41.7861 133.226C41.7861 132.688 41.6221 132.259 41.2939 131.94C40.9658 131.617 40.5146 131.451 39.9404 131.441H37.8145V134.914ZM47.5762 137.621L49.0801 132.604H50.8506L47.9111 141.121C47.46 142.365 46.6943 142.987 45.6143 142.987C45.3727 142.987 45.1061 142.946 44.8145 142.864V141.579L45.1289 141.6C45.5482 141.6 45.8626 141.522 46.0723 141.367C46.2865 141.217 46.4551 140.962 46.5781 140.602L46.8174 139.966L44.2197 132.604H46.0107L47.5762 137.621ZM53.8926 130.806V132.604H55.1982V133.834H53.8926V137.963C53.8926 138.245 53.9473 138.451 54.0566 138.578C54.1706 138.701 54.3711 138.763 54.6582 138.763C54.8496 138.763 55.0433 138.74 55.2393 138.694V139.979C54.861 140.084 54.4964 140.137 54.1455 140.137C52.8695 140.137 52.2314 139.433 52.2314 138.024V133.834H51.0146V132.604H52.2314V130.806H53.8926ZM58.1104 133.41C58.6527 132.781 59.3385 132.467 60.168 132.467C61.7448 132.467 62.5446 133.367 62.5674 135.167V140H60.9062V135.229C60.9062 134.718 60.7946 134.358 60.5713 134.148C60.3525 133.934 60.029 133.827 59.6006 133.827C58.9352 133.827 58.4385 134.123 58.1104 134.716V140H56.4492V129.5H58.1104V133.41ZM63.9414 136.233C63.9414 135.509 64.085 134.857 64.3721 134.278C64.6592 133.695 65.0625 133.248 65.582 132.938C66.1016 132.624 66.6986 132.467 67.373 132.467C68.3711 132.467 69.18 132.788 69.7998 133.431C70.4242 134.073 70.7614 134.925 70.8115 135.987L70.8184 136.377C70.8184 137.106 70.6771 137.758 70.3945 138.332C70.1165 138.906 69.7155 139.351 69.1914 139.665C68.6719 139.979 68.0703 140.137 67.3867 140.137C66.3431 140.137 65.5068 139.79 64.8779 139.098C64.2536 138.4 63.9414 137.473 63.9414 136.315V136.233ZM65.6025 136.377C65.6025 137.138 65.7598 137.735 66.0742 138.168C66.3887 138.596 66.8262 138.811 67.3867 138.811C67.9473 138.811 68.3825 138.592 68.6924 138.154C69.0068 137.717 69.1641 137.076 69.1641 136.233C69.1641 135.486 69.0023 134.894 68.6787 134.456C68.3597 134.019 67.9245 133.8 67.373 133.8C66.8307 133.8 66.4001 134.016 66.0811 134.449C65.762 134.878 65.6025 135.52 65.6025 136.377ZM73.7646 132.604L73.8125 133.458C74.3594 132.797 75.0771 132.467 75.9658 132.467C77.5062 132.467 78.29 133.349 78.3174 135.112V140H76.6562V135.208C76.6562 134.739 76.5537 134.392 76.3486 134.169C76.1481 133.941 75.8177 133.827 75.3574 133.827C74.6875 133.827 74.1885 134.13 73.8604 134.736V140H72.1992V132.604H73.7646ZM91.2578 136.76C91.1576 137.822 90.7656 138.651 90.082 139.248C89.3984 139.84 88.4893 140.137 87.3545 140.137C86.5615 140.137 85.862 139.95 85.2559 139.576C84.6543 139.198 84.1895 138.662 83.8613 137.97C83.5332 137.277 83.3623 136.473 83.3486 135.557V134.627C83.3486 133.688 83.515 132.861 83.8477 132.146C84.1803 131.43 84.6566 130.879 85.2764 130.491C85.9007 130.104 86.6208 129.91 87.4365 129.91C88.5348 129.91 89.4189 130.209 90.0889 130.806C90.7588 131.403 91.1484 132.246 91.2578 133.335H89.5352C89.4531 132.619 89.2435 132.104 88.9062 131.79C88.5736 131.471 88.0837 131.312 87.4365 131.312C86.6846 131.312 86.1058 131.587 85.7002 132.139C85.2992 132.686 85.0941 133.49 85.085 134.552V135.434C85.085 136.509 85.2764 137.329 85.6592 137.895C86.0465 138.46 86.6117 138.742 87.3545 138.742C88.0335 138.742 88.5439 138.59 88.8857 138.284C89.2275 137.979 89.444 137.471 89.5352 136.76H91.2578ZM94.416 140H92.7549V129.5H94.416V140ZM100.65 140C100.577 139.859 100.514 139.629 100.459 139.31C99.9303 139.861 99.2832 140.137 98.5176 140.137C97.7747 140.137 97.1686 139.925 96.6992 139.501C96.2298 139.077 95.9951 138.553 95.9951 137.929C95.9951 137.14 96.2868 136.536 96.8701 136.117C97.458 135.693 98.2965 135.481 99.3857 135.481H100.404V134.996C100.404 134.613 100.297 134.308 100.083 134.08C99.8688 133.848 99.543 133.731 99.1055 133.731C98.7272 133.731 98.4173 133.827 98.1758 134.019C97.9342 134.205 97.8135 134.445 97.8135 134.736H96.1523C96.1523 134.331 96.2868 133.952 96.5557 133.602C96.8245 133.246 97.1891 132.968 97.6494 132.768C98.1143 132.567 98.6315 132.467 99.2012 132.467C100.067 132.467 100.757 132.686 101.272 133.123C101.787 133.556 102.052 134.167 102.065 134.955V138.291C102.065 138.956 102.159 139.487 102.346 139.884V140H100.65ZM98.8252 138.804C99.1533 138.804 99.4609 138.724 99.748 138.564C100.04 138.405 100.258 138.191 100.404 137.922V136.527H99.5088C98.8936 136.527 98.431 136.634 98.1211 136.849C97.8112 137.063 97.6562 137.366 97.6562 137.758C97.6562 138.077 97.7611 138.332 97.9707 138.523C98.1849 138.71 98.4697 138.804 98.8252 138.804ZM107.951 137.99C107.951 137.694 107.828 137.468 107.582 137.313C107.34 137.159 106.937 137.022 106.372 136.903C105.807 136.785 105.335 136.634 104.957 136.452C104.128 136.051 103.713 135.47 103.713 134.709C103.713 134.071 103.982 133.538 104.52 133.109C105.057 132.681 105.741 132.467 106.57 132.467C107.454 132.467 108.168 132.686 108.71 133.123C109.257 133.561 109.53 134.128 109.53 134.825H107.869C107.869 134.506 107.751 134.242 107.514 134.032C107.277 133.818 106.962 133.711 106.57 133.711C106.206 133.711 105.907 133.795 105.675 133.964C105.447 134.132 105.333 134.358 105.333 134.641C105.333 134.896 105.44 135.094 105.654 135.235C105.868 135.377 106.301 135.52 106.953 135.666C107.605 135.807 108.115 135.978 108.484 136.179C108.858 136.375 109.134 136.612 109.312 136.89C109.494 137.168 109.585 137.505 109.585 137.901C109.585 138.567 109.309 139.107 108.758 139.521C108.206 139.932 107.484 140.137 106.591 140.137C105.985 140.137 105.445 140.027 104.971 139.809C104.497 139.59 104.128 139.289 103.863 138.906C103.599 138.523 103.467 138.111 103.467 137.669H105.08C105.103 138.061 105.251 138.364 105.524 138.578C105.798 138.788 106.16 138.893 106.611 138.893C107.049 138.893 107.382 138.811 107.609 138.646C107.837 138.478 107.951 138.259 107.951 137.99ZM115.184 137.99C115.184 137.694 115.061 137.468 114.814 137.313C114.573 137.159 114.17 137.022 113.604 136.903C113.039 136.785 112.568 136.634 112.189 136.452C111.36 136.051 110.945 135.47 110.945 134.709C110.945 134.071 111.214 133.538 111.752 133.109C112.29 132.681 112.973 132.467 113.803 132.467C114.687 132.467 115.4 132.686 115.942 133.123C116.489 133.561 116.763 134.128 116.763 134.825H115.102C115.102 134.506 114.983 134.242 114.746 134.032C114.509 133.818 114.195 133.711 113.803 133.711C113.438 133.711 113.14 133.795 112.907 133.964C112.679 134.132 112.565 134.358 112.565 134.641C112.565 134.896 112.673 135.094 112.887 135.235C113.101 135.377 113.534 135.52 114.186 135.666C114.837 135.807 115.348 135.978 115.717 136.179C116.09 136.375 116.366 136.612 116.544 136.89C116.726 137.168 116.817 137.505 116.817 137.901C116.817 138.567 116.542 139.107 115.99 139.521C115.439 139.932 114.716 140.137 113.823 140.137C113.217 140.137 112.677 140.027 112.203 139.809C111.729 139.59 111.36 139.289 111.096 138.906C110.831 138.523 110.699 138.111 110.699 137.669H112.312C112.335 138.061 112.483 138.364 112.757 138.578C113.03 138.788 113.393 138.893 113.844 138.893C114.281 138.893 114.614 138.811 114.842 138.646C115.07 138.478 115.184 138.259 115.184 137.99ZM121.527 140.137C120.475 140.137 119.62 139.806 118.964 139.146C118.312 138.48 117.986 137.596 117.986 136.493V136.288C117.986 135.55 118.128 134.891 118.41 134.312C118.697 133.729 119.098 133.276 119.613 132.952C120.128 132.629 120.702 132.467 121.336 132.467C122.343 132.467 123.12 132.788 123.667 133.431C124.218 134.073 124.494 134.982 124.494 136.158V136.828H119.661C119.711 137.439 119.914 137.922 120.27 138.277C120.63 138.633 121.081 138.811 121.623 138.811C122.384 138.811 123.004 138.503 123.482 137.888L124.378 138.742C124.082 139.184 123.685 139.528 123.188 139.774C122.696 140.016 122.143 140.137 121.527 140.137ZM121.329 133.8C120.873 133.8 120.504 133.959 120.222 134.278C119.944 134.597 119.766 135.042 119.688 135.611H122.854V135.488C122.817 134.932 122.669 134.513 122.409 134.23C122.149 133.943 121.789 133.8 121.329 133.8ZM129.936 137.99C129.936 137.694 129.812 137.468 129.566 137.313C129.325 137.159 128.922 137.022 128.356 136.903C127.791 136.785 127.32 136.634 126.941 136.452C126.112 136.051 125.697 135.47 125.697 134.709C125.697 134.071 125.966 133.538 126.504 133.109C127.042 132.681 127.725 132.467 128.555 132.467C129.439 132.467 130.152 132.686 130.694 133.123C131.241 133.561 131.515 134.128 131.515 134.825H129.854C129.854 134.506 129.735 134.242 129.498 134.032C129.261 133.818 128.947 133.711 128.555 133.711C128.19 133.711 127.892 133.795 127.659 133.964C127.431 134.132 127.317 134.358 127.317 134.641C127.317 134.896 127.424 135.094 127.639 135.235C127.853 135.377 128.286 135.52 128.938 135.666C129.589 135.807 130.1 135.978 130.469 136.179C130.842 136.375 131.118 136.612 131.296 136.89C131.478 137.168 131.569 137.505 131.569 137.901C131.569 138.567 131.294 139.107 130.742 139.521C130.191 139.932 129.468 140.137 128.575 140.137C127.969 140.137 127.429 140.027 126.955 139.809C126.481 139.59 126.112 139.289 125.848 138.906C125.583 138.523 125.451 138.111 125.451 137.669H127.064C127.087 138.061 127.235 138.364 127.509 138.578C127.782 138.788 128.145 138.893 128.596 138.893C129.033 138.893 129.366 138.811 129.594 138.646C129.822 138.478 129.936 138.259 129.936 137.99ZM140.928 140C140.855 139.859 140.791 139.629 140.736 139.31C140.208 139.861 139.561 140.137 138.795 140.137C138.052 140.137 137.446 139.925 136.977 139.501C136.507 139.077 136.272 138.553 136.272 137.929C136.272 137.14 136.564 136.536 137.147 136.117C137.735 135.693 138.574 135.481 139.663 135.481H140.682V134.996C140.682 134.613 140.575 134.308 140.36 134.08C140.146 133.848 139.82 133.731 139.383 133.731C139.005 133.731 138.695 133.827 138.453 134.019C138.212 134.205 138.091 134.445 138.091 134.736H136.43C136.43 134.331 136.564 133.952 136.833 133.602C137.102 133.246 137.466 132.968 137.927 132.768C138.392 132.567 138.909 132.467 139.479 132.467C140.344 132.467 141.035 132.686 141.55 133.123C142.065 133.556 142.329 134.167 142.343 134.955V138.291C142.343 138.956 142.436 139.487 142.623 139.884V140H140.928ZM139.103 138.804C139.431 138.804 139.738 138.724 140.025 138.564C140.317 138.405 140.536 138.191 140.682 137.922V136.527H139.786C139.171 136.527 138.708 136.634 138.398 136.849C138.089 137.063 137.934 137.366 137.934 137.758C137.934 138.077 138.038 138.332 138.248 138.523C138.462 138.71 138.747 138.804 139.103 138.804ZM145.624 132.604L145.672 133.458C146.219 132.797 146.937 132.467 147.825 132.467C149.366 132.467 150.149 133.349 150.177 135.112V140H148.516V135.208C148.516 134.739 148.413 134.392 148.208 134.169C148.007 133.941 147.677 133.827 147.217 133.827C146.547 133.827 146.048 134.13 145.72 134.736V140H144.059V132.604H145.624ZM151.564 136.247C151.564 135.108 151.829 134.194 152.357 133.506C152.886 132.813 153.595 132.467 154.483 132.467C155.267 132.467 155.901 132.74 156.384 133.287V129.5H158.045V140H156.541L156.459 139.234C155.962 139.836 155.299 140.137 154.47 140.137C153.604 140.137 152.902 139.788 152.364 139.091C151.831 138.394 151.564 137.446 151.564 136.247ZM153.226 136.391C153.226 137.143 153.369 137.73 153.656 138.154C153.948 138.574 154.36 138.783 154.894 138.783C155.573 138.783 156.069 138.48 156.384 137.874V134.716C156.078 134.123 155.586 133.827 154.907 133.827C154.369 133.827 153.955 134.041 153.663 134.47C153.371 134.894 153.226 135.534 153.226 136.391ZM64.625 156H62.9023V146.047H64.625V156ZM68.1318 148.604L68.1797 149.458C68.7266 148.797 69.4443 148.467 70.333 148.467C71.8734 148.467 72.6572 149.349 72.6846 151.112V156H71.0234V151.208C71.0234 150.739 70.9209 150.392 70.7158 150.169C70.5153 149.941 70.1849 149.827 69.7246 149.827C69.0547 149.827 68.5557 150.13 68.2275 150.736V156H66.5664V148.604H68.1318ZM76.0205 149.41C76.5628 148.781 77.2487 148.467 78.0781 148.467C79.6549 148.467 80.4548 149.367 80.4775 151.167V156H78.8164V151.229C78.8164 150.718 78.7048 150.358 78.4814 150.148C78.2627 149.934 77.9391 149.827 77.5107 149.827C76.8454 149.827 76.3486 150.123 76.0205 150.716V156H74.3594V145.5H76.0205V149.41ZM85.4199 156.137C84.3672 156.137 83.5127 155.806 82.8564 155.146C82.2048 154.48 81.8789 153.596 81.8789 152.493V152.288C81.8789 151.55 82.0202 150.891 82.3027 150.312C82.5898 149.729 82.9909 149.276 83.5059 148.952C84.0208 148.629 84.5951 148.467 85.2285 148.467C86.2357 148.467 87.0127 148.788 87.5596 149.431C88.111 150.073 88.3867 150.982 88.3867 152.158V152.828H83.5537C83.6038 153.439 83.8066 153.922 84.1621 154.277C84.5221 154.633 84.9733 154.811 85.5156 154.811C86.2767 154.811 86.8965 154.503 87.375 153.888L88.2705 154.742C87.9743 155.184 87.5778 155.528 87.0811 155.774C86.5889 156.016 86.0352 156.137 85.4199 156.137ZM85.2217 149.8C84.766 149.8 84.3968 149.959 84.1143 150.278C83.8363 150.597 83.6585 151.042 83.5811 151.611H86.7461V151.488C86.7096 150.932 86.5615 150.513 86.3018 150.23C86.042 149.943 85.682 149.8 85.2217 149.8ZM93.5547 150.121C93.3359 150.085 93.1104 150.066 92.8779 150.066C92.1169 150.066 91.6042 150.358 91.3398 150.941V156H89.6787V148.604H91.2646L91.3057 149.431C91.7067 148.788 92.2627 148.467 92.9736 148.467C93.2106 148.467 93.4066 148.499 93.5615 148.562L93.5547 150.121ZM96.3711 156H94.71V148.604H96.3711V156ZM94.6074 146.683C94.6074 146.427 94.6872 146.215 94.8467 146.047C95.0107 145.878 95.2432 145.794 95.5439 145.794C95.8447 145.794 96.0771 145.878 96.2412 146.047C96.4053 146.215 96.4873 146.427 96.4873 146.683C96.4873 146.933 96.4053 147.143 96.2412 147.312C96.0771 147.476 95.8447 147.558 95.5439 147.558C95.2432 147.558 95.0107 147.476 94.8467 147.312C94.6872 147.143 94.6074 146.933 94.6074 146.683ZM100.268 146.806V148.604H101.573V149.834H100.268V153.963C100.268 154.245 100.322 154.451 100.432 154.578C100.546 154.701 100.746 154.763 101.033 154.763C101.225 154.763 101.418 154.74 101.614 154.694V155.979C101.236 156.084 100.871 156.137 100.521 156.137C99.2445 156.137 98.6064 155.433 98.6064 154.024V149.834H97.3896V148.604H98.6064V146.806H100.268ZM107.268 156C107.195 155.859 107.131 155.629 107.076 155.31C106.548 155.861 105.9 156.137 105.135 156.137C104.392 156.137 103.786 155.925 103.316 155.501C102.847 155.077 102.612 154.553 102.612 153.929C102.612 153.14 102.904 152.536 103.487 152.117C104.075 151.693 104.914 151.481 106.003 151.481H107.021V150.996C107.021 150.613 106.914 150.308 106.7 150.08C106.486 149.848 106.16 149.731 105.723 149.731C105.344 149.731 105.035 149.827 104.793 150.019C104.551 150.205 104.431 150.445 104.431 150.736H102.77C102.77 150.331 102.904 149.952 103.173 149.602C103.442 149.246 103.806 148.968 104.267 148.768C104.731 148.567 105.249 148.467 105.818 148.467C106.684 148.467 107.375 148.686 107.89 149.123C108.405 149.556 108.669 150.167 108.683 150.955V154.291C108.683 154.956 108.776 155.487 108.963 155.884V156H107.268ZM105.442 154.804C105.771 154.804 106.078 154.724 106.365 154.564C106.657 154.405 106.876 154.191 107.021 153.922V152.527H106.126C105.511 152.527 105.048 152.634 104.738 152.849C104.428 153.063 104.273 153.366 104.273 153.758C104.273 154.077 104.378 154.332 104.588 154.523C104.802 154.71 105.087 154.804 105.442 154.804ZM111.964 148.604L112.012 149.458C112.559 148.797 113.276 148.467 114.165 148.467C115.705 148.467 116.489 149.349 116.517 151.112V156H114.855V151.208C114.855 150.739 114.753 150.392 114.548 150.169C114.347 149.941 114.017 149.827 113.557 149.827C112.887 149.827 112.388 150.13 112.06 150.736V156H110.398V148.604H111.964ZM121.254 154.811C121.669 154.811 122.013 154.69 122.286 154.448C122.56 154.207 122.705 153.908 122.724 153.553H124.289C124.271 154.013 124.127 154.444 123.858 154.845C123.59 155.241 123.225 155.556 122.765 155.788C122.304 156.021 121.808 156.137 121.274 156.137C120.24 156.137 119.42 155.802 118.813 155.132C118.207 154.462 117.904 153.537 117.904 152.356V152.186C117.904 151.06 118.205 150.16 118.807 149.485C119.408 148.806 120.229 148.467 121.268 148.467C122.147 148.467 122.863 148.724 123.414 149.239C123.97 149.75 124.262 150.422 124.289 151.256H122.724C122.705 150.832 122.56 150.483 122.286 150.21C122.017 149.937 121.673 149.8 121.254 149.8C120.716 149.8 120.301 149.996 120.01 150.388C119.718 150.775 119.57 151.365 119.565 152.158V152.425C119.565 153.227 119.709 153.826 119.996 154.223C120.288 154.615 120.707 154.811 121.254 154.811ZM128.801 156.137C127.748 156.137 126.894 155.806 126.237 155.146C125.586 154.48 125.26 153.596 125.26 152.493V152.288C125.26 151.55 125.401 150.891 125.684 150.312C125.971 149.729 126.372 149.276 126.887 148.952C127.402 148.629 127.976 148.467 128.609 148.467C129.617 148.467 130.394 148.788 130.94 149.431C131.492 150.073 131.768 150.982 131.768 152.158V152.828H126.935C126.985 153.439 127.188 153.922 127.543 154.277C127.903 154.633 128.354 154.811 128.896 154.811C129.658 154.811 130.277 154.503 130.756 153.888L131.651 154.742C131.355 155.184 130.959 155.528 130.462 155.774C129.97 156.016 129.416 156.137 128.801 156.137ZM128.603 149.8C128.147 149.8 127.778 149.959 127.495 150.278C127.217 150.597 127.039 151.042 126.962 151.611H130.127V151.488C130.09 150.932 129.942 150.513 129.683 150.23C129.423 149.943 129.063 149.8 128.603 149.8Z" fill="#0B406C"/>
<path d="M70.085 173.76C69.9847 174.822 69.5928 175.651 68.9092 176.248C68.2256 176.84 67.3164 177.137 66.1816 177.137C65.3887 177.137 64.6891 176.95 64.083 176.576C63.4814 176.198 63.0166 175.662 62.6885 174.97C62.3604 174.277 62.1895 173.473 62.1758 172.557V171.627C62.1758 170.688 62.3421 169.861 62.6748 169.146C63.0075 168.43 63.4837 167.879 64.1035 167.491C64.7279 167.104 65.4479 166.91 66.2637 166.91C67.362 166.91 68.2461 167.209 68.916 167.806C69.5859 168.403 69.9756 169.246 70.085 170.335H68.3623C68.2803 169.619 68.0706 169.104 67.7334 168.79C67.4007 168.471 66.9108 168.312 66.2637 168.312C65.5117 168.312 64.9329 168.587 64.5273 169.139C64.1263 169.686 63.9212 170.49 63.9121 171.552V172.434C63.9121 173.509 64.1035 174.329 64.4863 174.895C64.8737 175.46 65.4388 175.742 66.1816 175.742C66.8607 175.742 67.3711 175.59 67.7129 175.284C68.0547 174.979 68.2712 174.471 68.3623 173.76H70.085ZM73.2432 177H71.582V166.5H73.2432V177ZM76.8252 177H75.1641V169.604H76.8252V177ZM75.0615 167.683C75.0615 167.427 75.1413 167.215 75.3008 167.047C75.4648 166.878 75.6973 166.794 75.998 166.794C76.2988 166.794 76.5312 166.878 76.6953 167.047C76.8594 167.215 76.9414 167.427 76.9414 167.683C76.9414 167.933 76.8594 168.143 76.6953 168.312C76.5312 168.476 76.2988 168.558 75.998 168.558C75.6973 168.558 75.4648 168.476 75.3008 168.312C75.1413 168.143 75.0615 167.933 75.0615 167.683ZM81.6787 175.811C82.0934 175.811 82.4375 175.69 82.7109 175.448C82.9844 175.207 83.1302 174.908 83.1484 174.553H84.7139C84.6956 175.013 84.5521 175.444 84.2832 175.845C84.0143 176.241 83.6497 176.556 83.1895 176.788C82.7292 177.021 82.2324 177.137 81.6992 177.137C80.6647 177.137 79.8444 176.802 79.2383 176.132C78.6322 175.462 78.3291 174.537 78.3291 173.356V173.186C78.3291 172.06 78.6299 171.16 79.2314 170.485C79.833 169.806 80.6533 169.467 81.6924 169.467C82.5719 169.467 83.2874 169.724 83.8389 170.239C84.3949 170.75 84.6865 171.422 84.7139 172.256H83.1484C83.1302 171.832 82.9844 171.483 82.7109 171.21C82.4421 170.937 82.098 170.8 81.6787 170.8C81.141 170.8 80.7262 170.996 80.4346 171.388C80.1429 171.775 79.9948 172.365 79.9902 173.158V173.425C79.9902 174.227 80.1338 174.826 80.4209 175.223C80.7126 175.615 81.1318 175.811 81.6787 175.811ZM88.3711 173.828L87.6328 174.587V177H85.9717V166.5H87.6328V172.557L88.1523 171.907L90.1963 169.604H92.1924L89.4443 172.687L92.4863 177H90.5654L88.3711 173.828ZM98.4062 170.41C98.9486 169.781 99.6344 169.467 100.464 169.467C102.041 169.467 102.84 170.367 102.863 172.167V177H101.202V172.229C101.202 171.718 101.09 171.358 100.867 171.148C100.648 170.934 100.325 170.827 99.8965 170.827C99.2311 170.827 98.7344 171.123 98.4062 171.716V177H96.7451V166.5H98.4062V170.41ZM107.806 177.137C106.753 177.137 105.898 176.806 105.242 176.146C104.59 175.48 104.265 174.596 104.265 173.493V173.288C104.265 172.55 104.406 171.891 104.688 171.312C104.976 170.729 105.377 170.276 105.892 169.952C106.407 169.629 106.981 169.467 107.614 169.467C108.621 169.467 109.398 169.788 109.945 170.431C110.497 171.073 110.772 171.982 110.772 173.158V173.828H105.939C105.99 174.439 106.192 174.922 106.548 175.277C106.908 175.633 107.359 175.811 107.901 175.811C108.662 175.811 109.282 175.503 109.761 174.888L110.656 175.742C110.36 176.184 109.964 176.528 109.467 176.774C108.975 177.016 108.421 177.137 107.806 177.137ZM107.607 170.8C107.152 170.8 106.783 170.959 106.5 171.278C106.222 171.597 106.044 172.042 105.967 172.611H109.132V172.488C109.095 171.932 108.947 171.513 108.688 171.23C108.428 170.943 108.068 170.8 107.607 170.8ZM115.94 171.121C115.722 171.085 115.496 171.066 115.264 171.066C114.503 171.066 113.99 171.358 113.726 171.941V177H112.064V169.604H113.65L113.691 170.431C114.092 169.788 114.648 169.467 115.359 169.467C115.596 169.467 115.792 169.499 115.947 169.562L115.94 171.121ZM120.11 177.137C119.058 177.137 118.203 176.806 117.547 176.146C116.895 175.48 116.569 174.596 116.569 173.493V173.288C116.569 172.55 116.711 171.891 116.993 171.312C117.28 170.729 117.681 170.276 118.196 169.952C118.711 169.629 119.285 169.467 119.919 169.467C120.926 169.467 121.703 169.788 122.25 170.431C122.801 171.073 123.077 171.982 123.077 173.158V173.828H118.244C118.294 174.439 118.497 174.922 118.853 175.277C119.213 175.633 119.664 175.811 120.206 175.811C120.967 175.811 121.587 175.503 122.065 174.888L122.961 175.742C122.665 176.184 122.268 176.528 121.771 176.774C121.279 177.016 120.726 177.137 120.11 177.137ZM119.912 170.8C119.456 170.8 119.087 170.959 118.805 171.278C118.527 171.597 118.349 172.042 118.271 172.611H121.437V172.488C121.4 171.932 121.252 171.513 120.992 171.23C120.732 170.943 120.372 170.8 119.912 170.8Z" fill="#BFFBDE"/>
<defs>
<filter id="filter0_d" x="0" y="0" width="197" height="222" filterUnits="userSpaceOnUse" color-interpolation-filters="sRGB">
<feFlood flood-opacity="0" result="BackgroundImageFix"/>
<feColorMatrix in="SourceAlpha" type="matrix" values="0 0 0 0 0 0 0 0 0 0 0 0 0 0 0 0 0 0 127 0"/>
<feOffset dy="4"/>
<feGaussianBlur stdDeviation="2"/>
<feColorMatrix type="matrix" values="0 0 0 0 0 0 0 0 0 0 0 0 0 0 0 0 0 0 0.25 0"/>
<feBlend mode="normal" in2="BackgroundImageFix" result="effect1_dropShadow"/>
<feBlend mode="normal" in="SourceGraphic" in2="effect1_dropShadow" result="shape"/>
</filter>
<linearGradient id="paint0_linear" x1="68.6189" y1="17.1022" x2="107.826" y2="55.766" gradientUnits="userSpaceOnUse">
<stop stop-color="#387EB8"/>
<stop offset="1" stop-color="#366994"/>
</linearGradient>
<linearGradient id="paint1_linear" x1="92.5906" y1="42.0278" x2="134.687" y2="81.6672" gradientUnits="userSpaceOnUse">
<stop stop-color="#FFE052"/>
<stop offset="1" stop-color="#FFC331"/>
</linearGradient>
</defs>
</svg>
