<svg width="167" height="49" viewBox="0 0 167 49" fill="none" xmlns="http://www.w3.org/2000/svg">
<rect width="167" height="49" rx="21" fill="#8AD4B5"/>
<path d="M31.1309 28.668C30.873 31.3984 29.8652 33.5312 28.1074 35.0664C26.3496 36.5898 24.0117 37.3516 21.0938 37.3516C19.0547 37.3516 17.2559 36.8711 15.6973 35.9102C14.1504 34.9375 12.9551 33.5605 12.1113 31.7793C11.2676 29.998 10.8281 27.9297 10.793 25.5742V23.1836C10.793 20.7695 11.2207 18.6426 12.0762 16.8027C12.9316 14.9629 14.1562 13.5449 15.75 12.5488C17.3555 11.5527 19.207 11.0547 21.3047 11.0547C24.1289 11.0547 26.4023 11.8223 28.125 13.3574C29.8477 14.8926 30.8496 17.0605 31.1309 19.8613H26.7012C26.4902 18.0215 25.9512 16.6973 25.084 15.8887C24.2285 15.0684 22.9688 14.6582 21.3047 14.6582C19.3711 14.6582 17.8828 15.3672 16.8398 16.7852C15.8086 18.1914 15.2812 20.2598 15.2578 22.9902V25.2578C15.2578 28.0234 15.75 30.1328 16.7344 31.5859C17.7305 33.0391 19.1836 33.7656 21.0938 33.7656C22.8398 33.7656 24.1523 33.373 25.0312 32.5879C25.9102 31.8027 26.4668 30.4961 26.7012 28.668H31.1309ZM39.252 37H34.9805V10H39.252V37ZM48.4629 37H44.1914V17.9805H48.4629V37ZM43.9277 13.041C43.9277 12.3848 44.1328 11.8398 44.543 11.4062C44.9648 10.9727 45.5625 10.7559 46.3359 10.7559C47.1094 10.7559 47.707 10.9727 48.1289 11.4062C48.5508 11.8398 48.7617 12.3848 48.7617 13.041C48.7617 13.6855 48.5508 14.2246 48.1289 14.6582C47.707 15.0801 47.1094 15.291 46.3359 15.291C45.5625 15.291 44.9648 15.0801 44.543 14.6582C44.1328 14.2246 43.9277 13.6855 43.9277 13.041ZM60.9434 33.9414C62.0098 33.9414 62.8945 33.6309 63.5977 33.0098C64.3008 32.3887 64.6758 31.6211 64.7227 30.707H68.748C68.7012 31.8906 68.332 32.998 67.6406 34.0293C66.9492 35.0488 66.0117 35.8574 64.8281 36.4551C63.6445 37.0527 62.3672 37.3516 60.9961 37.3516C58.3359 37.3516 56.2266 36.4902 54.668 34.7676C53.1094 33.0449 52.3301 30.666 52.3301 27.6309V27.1914C52.3301 24.2969 53.1035 21.9824 54.6504 20.248C56.1973 18.502 58.3066 17.6289 60.9785 17.6289C63.2402 17.6289 65.0801 18.291 66.498 19.6152C67.9277 20.9277 68.6777 22.6562 68.748 24.8008H64.7227C64.6758 23.7109 64.3008 22.8145 63.5977 22.1113C62.9062 21.4082 62.0215 21.0566 60.9434 21.0566C59.5605 21.0566 58.4941 21.5605 57.7441 22.5684C56.9941 23.5645 56.6133 25.082 56.6016 27.1211V27.8066C56.6016 29.8691 56.9707 31.4102 57.709 32.4297C58.459 33.4375 59.5371 33.9414 60.9434 33.9414ZM78.1523 28.8438L76.2539 30.7949V37H71.9824V10H76.2539V25.5742L77.5898 23.9043L82.8457 17.9805H87.9785L80.9121 25.9082L88.7344 37H83.7949L78.1523 28.8438ZM105.926 11.4062L113.309 31.0234L120.674 11.4062H126.422V37H121.992V28.5625L122.432 17.2773L114.873 37H111.691L104.15 17.2949L104.59 28.5625V37H100.16V11.4062H105.926ZM139.658 37.3516C136.951 37.3516 134.754 36.502 133.066 34.8027C131.391 33.0918 130.553 30.8184 130.553 27.9824V27.4551C130.553 25.5566 130.916 23.8633 131.643 22.375C132.381 20.875 133.412 19.709 134.736 18.877C136.061 18.0449 137.537 17.6289 139.166 17.6289C141.756 17.6289 143.754 18.4551 145.16 20.1074C146.578 21.7598 147.287 24.0977 147.287 27.1211V28.8438H134.859C134.988 30.4141 135.51 31.6562 136.424 32.5703C137.35 33.4844 138.51 33.9414 139.904 33.9414C141.861 33.9414 143.455 33.1504 144.686 31.5684L146.988 33.7656C146.227 34.9023 145.207 35.7871 143.93 36.4199C142.664 37.041 141.24 37.3516 139.658 37.3516ZM139.148 21.0566C137.977 21.0566 137.027 21.4668 136.301 22.2871C135.586 23.1074 135.129 24.25 134.93 25.7148H143.068V25.3984C142.975 23.9688 142.594 22.8906 141.926 22.1641C141.258 21.4258 140.332 21.0566 139.148 21.0566ZM155.145 29.459H151.471L151.066 11.4062H155.566L155.145 29.459ZM150.943 34.9785C150.943 34.3105 151.16 33.7598 151.594 33.3262C152.027 32.8809 152.619 32.6582 153.369 32.6582C154.119 32.6582 154.711 32.8809 155.145 33.3262C155.578 33.7598 155.795 34.3105 155.795 34.9785C155.795 35.623 155.584 36.1621 155.162 36.5957C154.74 37.0293 154.143 37.2461 153.369 37.2461C152.596 37.2461 151.998 37.0293 151.576 36.5957C151.154 36.1621 150.943 35.623 150.943 34.9785Z" fill="black" fill-opacity="0.66"/>
</svg>
