<svg width="204" height="46" viewBox="0 0 204 46" fill="none" xmlns="http://www.w3.org/2000/svg">
<path d="M69.918 24.3164C69.7852 26.1523 69.1055 27.5977 67.8789 28.6523C66.6602 29.707 65.0508 30.2344 63.0508 30.2344C60.8633 30.2344 59.1406 29.5 57.8828 28.0312C56.6328 26.5547 56.0078 24.5312 56.0078 21.9609V20.918C56.0078 19.2773 56.2969 17.832 56.875 16.582C57.4531 15.332 58.2773 14.375 59.3477 13.7109C60.4258 13.0391 61.6758 12.7031 63.0977 12.7031C65.0664 12.7031 66.6523 13.2305 67.8555 14.2852C69.0586 15.3398 69.7539 16.8203 69.9414 18.7266H66.4258C66.3398 17.625 66.0312 16.8281 65.5 16.3359C64.9766 15.8359 64.1758 15.5859 63.0977 15.5859C61.9258 15.5859 61.0469 16.0078 60.4609 16.8516C59.8828 17.6875 59.5859 18.9883 59.5703 20.7539V22.043C59.5703 23.8867 59.8477 25.2344 60.4023 26.0859C60.9648 26.9375 61.8477 27.3633 63.0508 27.3633C64.1367 27.3633 64.9453 27.1172 65.4766 26.625C66.0156 26.125 66.3242 25.3555 66.4023 24.3164H69.918ZM86.2422 21.8555C86.2422 23.5352 85.9453 25.0078 85.3516 26.2734C84.7578 27.5391 83.9062 28.5156 82.7969 29.2031C81.6953 29.8906 80.4297 30.2344 79 30.2344C77.5859 30.2344 76.3242 29.8945 75.2148 29.2148C74.1055 28.5352 73.2461 27.5664 72.6367 26.3086C72.0273 25.043 71.7188 23.5898 71.7109 21.9492V21.1055C71.7109 19.4258 72.0117 17.9492 72.6133 16.6758C73.2227 15.3945 74.0781 14.4141 75.1797 13.7344C76.2891 13.0469 77.5547 12.7031 78.9766 12.7031C80.3984 12.7031 81.6602 13.0469 82.7617 13.7344C83.8711 14.4141 84.7266 15.3945 85.3281 16.6758C85.9375 17.9492 86.2422 19.4219 86.2422 21.0938V21.8555ZM82.6797 21.082C82.6797 19.293 82.3594 17.9336 81.7188 17.0039C81.0781 16.0742 80.1641 15.6094 78.9766 15.6094C77.7969 15.6094 76.8867 16.0703 76.2461 16.9922C75.6055 17.9062 75.2812 19.25 75.2734 21.0234V21.8555C75.2734 23.5977 75.5938 24.9492 76.2344 25.9102C76.875 26.8711 77.7969 27.3516 79 27.3516C80.1797 27.3516 81.0859 26.8906 81.7188 25.9688C82.3516 25.0391 82.6719 23.6875 82.6797 21.9141V21.082ZM102.672 30H99.1562L92.3125 18.7734V30H88.7969V12.9375H92.3125L99.168 24.1875V12.9375H102.672V30ZM118.234 15.7852H113.008V30H109.492V15.7852H104.336V12.9375H118.234V15.7852ZM128.477 26.4844H122.312L121.141 30H117.402L123.754 12.9375H127.012L133.398 30H129.66L128.477 26.4844ZM123.262 23.6367H127.527L125.383 17.25L123.262 23.6367ZM148.129 24.3164C147.996 26.1523 147.316 27.5977 146.09 28.6523C144.871 29.707 143.262 30.2344 141.262 30.2344C139.074 30.2344 137.352 29.5 136.094 28.0312C134.844 26.5547 134.219 24.5312 134.219 21.9609V20.918C134.219 19.2773 134.508 17.832 135.086 16.582C135.664 15.332 136.488 14.375 137.559 13.7109C138.637 13.0391 139.887 12.7031 141.309 12.7031C143.277 12.7031 144.863 13.2305 146.066 14.2852C147.27 15.3398 147.965 16.8203 148.152 18.7266H144.637C144.551 17.625 144.242 16.8281 143.711 16.3359C143.188 15.8359 142.387 15.5859 141.309 15.5859C140.137 15.5859 139.258 16.0078 138.672 16.8516C138.094 17.6875 137.797 18.9883 137.781 20.7539V22.043C137.781 23.8867 138.059 25.2344 138.613 26.0859C139.176 26.9375 140.059 27.3633 141.262 27.3633C142.348 27.3633 143.156 27.1172 143.688 26.625C144.227 26.125 144.535 25.3555 144.613 24.3164H148.129ZM162.93 15.7852H157.703V30H154.188V15.7852H149.031V12.9375H162.93V15.7852ZM174.812 12.9375L179.195 25.3125L183.555 12.9375H188.172V30H184.645V25.3359L184.996 17.2852L180.391 30H177.977L173.383 17.2969L173.734 25.3359V30H170.219V12.9375H174.812ZM201.508 22.6055H194.758V27.1758H202.68V30H191.242V12.9375H202.656V15.7852H194.758V19.8516H201.508V22.6055Z" fill="#405C50"/>
<path d="M23 3.83333C12.42 3.83333 3.83337 12.42 3.83337 23C3.83337 33.58 12.42 42.1667 23 42.1667C33.58 42.1667 42.1667 33.58 42.1667 23C42.1667 12.42 33.58 3.83333 23 3.83333ZM23 9.58333C26.1817 9.58333 28.75 12.1517 28.75 15.3333C28.75 18.515 26.1817 21.0833 23 21.0833C19.8184 21.0833 17.25 18.515 17.25 15.3333C17.25 12.1517 19.8184 9.58333 23 9.58333ZM23 36.8C18.2084 36.8 13.9725 34.3467 11.5 30.6283C11.5575 26.8142 19.1667 24.725 23 24.725C26.8142 24.725 34.4425 26.8142 34.5 30.6283C32.0275 34.3467 27.7917 36.8 23 36.8Z" fill="#405C50"/>
</svg>
