<svg width="145" height="18" viewBox="0 0 145 18" fill="none" xmlns="http://www.w3.org/2000/svg">
<path fill-rule="evenodd" clip-rule="evenodd" d="M0 9C0 4.032 4.032 0 9 0C13.968 0 18 4.032 18 9C18 13.968 13.968 18 9 18C4.032 18 0 13.968 0 9ZM11.7 5.4C11.7 3.906 10.494 2.7 9 2.7C7.506 2.7 6.3 3.906 6.3 5.4C6.3 6.894 7.506 8.1 9 8.1C10.494 8.1 11.7 6.894 11.7 5.4ZM3.6 12.582C4.761 14.328 6.75 15.48 9 15.48C11.25 15.48 13.239 14.328 14.4 12.582C14.373 10.791 10.791 9.81 9 9.81C7.2 9.81 3.627 10.791 3.6 12.582ZM32.4558 14.3041C33.4779 13.4252 34.0443 12.2208 34.155 10.6909H31.2253C31.1602 11.5567 30.903 12.198 30.4538 12.6147C30.0111 13.0248 29.3373 13.2299 28.4323 13.2299C27.4297 13.2299 26.694 12.8751 26.2253 12.1655C25.763 11.4558 25.5319 10.3328 25.5319 8.79633V7.72211C25.5449 6.25075 25.7923 5.16677 26.2741 4.47015C26.7624 3.76703 27.4948 3.41547 28.4714 3.41547C29.3698 3.41547 30.0371 3.6238 30.4733 4.04047C30.916 4.45062 31.1732 5.11469 31.2448 6.03265H34.1745C34.0183 4.44411 33.4388 3.21039 32.4362 2.33148C31.4336 1.45258 30.112 1.01312 28.4714 1.01312C27.2865 1.01312 26.2448 1.29307 25.3464 1.85297C24.4545 2.40635 23.7676 3.20388 23.2858 4.24554C22.8041 5.28721 22.5632 6.49164 22.5632 7.85883V8.72797C22.5632 10.8699 23.084 12.5561 24.1257 13.7866C25.1739 15.0105 26.6094 15.6225 28.4323 15.6225C30.099 15.6225 31.4401 15.183 32.4558 14.3041ZM47.0163 12.3217C47.5111 11.267 47.7585 10.0398 47.7585 8.64008V8.00531C47.7585 6.61208 47.5046 5.38487 46.9968 4.32367C46.4955 3.25596 45.7826 2.4389 44.8581 1.8725C43.9401 1.29958 42.8887 1.01312 41.7038 1.01312C40.5189 1.01312 39.4642 1.29958 38.5397 1.8725C37.6218 2.4389 36.9089 3.25596 36.4011 4.32367C35.8998 5.38487 35.6491 6.61534 35.6491 8.01508V8.7182C35.6556 10.0854 35.9128 11.2963 36.4206 12.351C36.9284 13.3992 37.6446 14.2065 38.569 14.7729C39.4935 15.3393 40.5449 15.6225 41.7233 15.6225C42.9147 15.6225 43.9694 15.336 44.8874 14.7631C45.8119 14.1902 46.5215 13.3764 47.0163 12.3217ZM43.989 4.59711C44.5228 5.37185 44.7897 6.50466 44.7897 7.99554V8.6889C44.7832 10.1668 44.5163 11.2931 43.989 12.0678C43.4616 12.836 42.7064 13.2202 41.7233 13.2202C40.7207 13.2202 39.9525 12.8198 39.4186 12.019C38.8848 11.2182 38.6179 10.0919 38.6179 8.64008V7.94672C38.6244 6.46885 38.8946 5.34906 39.4284 4.58734C39.9623 3.81911 40.7207 3.435 41.7038 3.435C42.6934 3.435 43.4551 3.82237 43.989 4.59711ZM58.5202 15.4272H61.4499V1.20844H58.53V10.5834L52.8171 1.20844H49.8874V15.4272H52.8171V6.07172L58.5202 15.4272ZM70.0632 3.58148H74.4186V1.20844H62.8366V3.58148H67.1335V15.4272H70.0632V3.58148ZM77.8171 12.4975H82.9538L83.9401 15.4272H87.0554L81.7331 1.20844H79.0182L73.7253 15.4272H76.8405L77.8171 12.4975ZM82.1628 10.1245H78.6081L80.3757 4.80219L82.1628 10.1245ZM97.6315 14.3041C98.6537 13.4252 99.2201 12.2208 99.3307 10.6909H96.4011C96.336 11.5567 96.0788 12.198 95.6296 12.6147C95.1869 13.0248 94.513 13.2299 93.6081 13.2299C92.6055 13.2299 91.8698 12.8751 91.4011 12.1655C90.9388 11.4558 90.7077 10.3328 90.7077 8.79633V7.72211C90.7207 6.25075 90.9681 5.16677 91.4499 4.47015C91.9382 3.76703 92.6706 3.41547 93.6472 3.41547C94.5456 3.41547 95.2129 3.6238 95.6491 4.04047C96.0918 4.45062 96.349 5.11469 96.4206 6.03265H99.3503C99.194 4.44411 98.6146 3.21039 97.612 2.33148C96.6094 1.45258 95.2878 1.01312 93.6472 1.01312C92.4623 1.01312 91.4206 1.29307 90.5222 1.85297C89.6302 2.40635 88.9434 3.20388 88.4616 4.24554C87.9798 5.28721 87.739 6.49164 87.739 7.85883V8.72797C87.739 10.8699 88.2598 12.5561 89.3015 13.7866C90.3496 15.0105 91.7852 15.6225 93.6081 15.6225C95.2748 15.6225 96.6159 15.183 97.6315 14.3041ZM107.309 3.58148H111.665V1.20844H100.083V3.58148H104.38V15.4272H107.309V3.58148ZM125.219 11.5209L121.567 1.20844H117.739V15.4272H120.669V11.5405L120.376 4.84125L124.204 15.4272H126.216L130.053 4.83148L129.76 11.5405V15.4272H132.7V1.20844H128.852L125.219 11.5209ZM138.188 9.26508H143.813V6.97015H138.188V3.58148H144.77V1.20844H135.258V15.4272H144.79V13.0737H138.188V9.26508Z" fill="#405C50"/>
</svg>
