<svg width="58" height="46" viewBox="0 0 58 46" fill="none" xmlns="http://www.w3.org/2000/svg">
<path d="M4 30C1.792 30 0 31.792 0 34C0 36.208 1.792 38 4 38C6.208 38 8 36.208 8 34C8 31.792 6.208 30 4 30ZM4 31.2C4.664 31.2 5.2 31.736 5.2 32.4C5.2 33.064 4.664 33.6 4 33.6C3.336 33.6 2.8 33.064 2.8 32.4C2.8 31.736 3.336 31.2 4 31.2ZM4 36.88C3 36.88 2.116 36.368 1.6 35.592C1.612 34.796 3.2 34.36 4 34.36C4.796 34.36 6.388 34.796 6.4 35.592C5.884 36.368 5 36.88 4 36.88Z" fill="#405C50"/>
<path d="M14.3511 34.3423C14.3123 34.8778 14.1141 35.2993 13.7563 35.6069C13.4009 35.9146 12.9315 36.0684 12.3481 36.0684C11.7101 36.0684 11.2077 35.8542 10.8408 35.4258C10.4762 34.9951 10.2939 34.4049 10.2939 33.6553V33.3511C10.2939 32.8726 10.3783 32.451 10.5469 32.0864C10.7155 31.7218 10.9559 31.4427 11.2681 31.249C11.5825 31.0531 11.9471 30.9551 12.3618 30.9551C12.936 30.9551 13.3986 31.1089 13.7495 31.4165C14.1004 31.7241 14.3032 32.1559 14.3579 32.7119H13.3325C13.3075 32.3906 13.2174 32.1582 13.0625 32.0146C12.9098 31.8688 12.6763 31.7959 12.3618 31.7959C12.02 31.7959 11.7637 31.9189 11.5928 32.165C11.4242 32.4089 11.3376 32.7882 11.333 33.3032V33.6792C11.333 34.217 11.4139 34.61 11.5757 34.8584C11.7397 35.1068 11.9972 35.231 12.3481 35.231C12.6649 35.231 12.9007 35.1592 13.0557 35.0156C13.2129 34.8698 13.3029 34.6453 13.3257 34.3423H14.3511ZM19.1123 33.6245C19.1123 34.1144 19.0257 34.5439 18.8525 34.9131C18.6794 35.2822 18.431 35.5671 18.1074 35.7676C17.7861 35.9681 17.417 36.0684 17 36.0684C16.5876 36.0684 16.2196 35.9692 15.896 35.771C15.5724 35.5728 15.3218 35.2902 15.144 34.9233C14.9663 34.5542 14.8763 34.1304 14.874 33.6519V33.4058C14.874 32.9159 14.9618 32.4852 15.1372 32.1138C15.3149 31.7401 15.5645 31.4541 15.8857 31.2559C16.2093 31.0553 16.5785 30.9551 16.9932 30.9551C17.4079 30.9551 17.7759 31.0553 18.0972 31.2559C18.4207 31.4541 18.6702 31.7401 18.8457 32.1138C19.0234 32.4852 19.1123 32.9147 19.1123 33.4023V33.6245ZM18.0732 33.3989C18.0732 32.8771 17.9798 32.4806 17.793 32.2095C17.6061 31.9383 17.3395 31.8027 16.9932 31.8027C16.6491 31.8027 16.3836 31.9372 16.1968 32.2061C16.0099 32.4727 15.9154 32.8646 15.9131 33.3818V33.6245C15.9131 34.1326 16.0065 34.5269 16.1934 34.8071C16.3802 35.0874 16.6491 35.2275 17 35.2275C17.3441 35.2275 17.6084 35.0931 17.793 34.8242C17.9775 34.5531 18.071 34.1589 18.0732 33.6416V33.3989ZM23.9043 36H22.8789L20.8828 32.7256V36H19.8574V31.0234H20.8828L22.8823 34.3047V31.0234H23.9043V36ZM28.4434 31.854H26.9189V36H25.8936V31.854H24.3896V31.0234H28.4434V31.854ZM31.4307 34.9746H29.6328L29.291 36H28.2007L30.0532 31.0234H31.0034L32.8662 36H31.7759L31.4307 34.9746ZM29.9097 34.144H31.1538L30.5283 32.2812L29.9097 34.144ZM37.1626 34.3423C37.1239 34.8778 36.9256 35.2993 36.5679 35.6069C36.2124 35.9146 35.743 36.0684 35.1597 36.0684C34.5216 36.0684 34.0192 35.8542 33.6523 35.4258C33.2878 34.9951 33.1055 34.4049 33.1055 33.6553V33.3511C33.1055 32.8726 33.1898 32.451 33.3584 32.0864C33.527 31.7218 33.7674 31.4427 34.0796 31.249C34.394 31.0531 34.7586 30.9551 35.1733 30.9551C35.7476 30.9551 36.2101 31.1089 36.561 31.4165C36.9119 31.7241 37.1147 32.1559 37.1694 32.7119H36.144C36.119 32.3906 36.029 32.1582 35.874 32.0146C35.7214 31.8688 35.4878 31.7959 35.1733 31.7959C34.8315 31.7959 34.5752 31.9189 34.4043 32.165C34.2357 32.4089 34.1491 32.7882 34.1445 33.3032V33.6792C34.1445 34.217 34.2254 34.61 34.3872 34.8584C34.5513 35.1068 34.8088 35.231 35.1597 35.231C35.4764 35.231 35.7122 35.1592 35.8672 35.0156C36.0244 34.8698 36.1144 34.6453 36.1372 34.3423H37.1626ZM41.4795 31.854H39.9551V36H38.9297V31.854H37.4258V31.0234H41.4795V31.854ZM44.9453 31.0234L46.2236 34.6328L47.4951 31.0234H48.8418V36H47.813V34.6396L47.9155 32.2915L46.5723 36H45.8682L44.5283 32.2949L44.6309 34.6396V36H43.6055V31.0234H44.9453ZM52.7314 33.8433H50.7627V35.1763H53.0732V36H49.7373V31.0234H53.0664V31.854H50.7627V33.04H52.7314V33.8433Z" fill="#405C50"/>
</svg>
