<svg width="602" height="149" viewBox="0 0 602 149" fill="none" xmlns="http://www.w3.org/2000/svg">
<g filter="url(#filter0_i)">
<rect width="602" height="149" rx="54" fill="#17625D"/>
<path d="M209.608 27.0109L211.795 16.3077H214.246L210.965 30.5265H208.602L205.897 20.1456L203.133 30.5265H200.76L197.479 16.3077H199.93L202.137 26.9913L204.852 16.3077H206.922L209.608 27.0109ZM215.067 25.1456C215.067 24.1105 215.272 23.1795 215.682 22.3527C216.092 21.5193 216.668 20.8813 217.41 20.4386C218.153 19.9894 219.005 19.7648 219.969 19.7648C221.395 19.7648 222.55 20.2238 223.436 21.1417C224.328 22.0597 224.81 23.2771 224.881 24.7941L224.891 25.3507C224.891 26.3924 224.689 27.3234 224.285 28.1437C223.888 28.964 223.315 29.5988 222.567 30.048C221.825 30.4972 220.965 30.7218 219.989 30.7218C218.498 30.7218 217.303 30.227 216.405 29.2374C215.513 28.2413 215.067 26.9165 215.067 25.2628V25.1456ZM217.44 25.3507C217.44 26.4379 217.664 27.2908 218.114 27.9093C218.563 28.5213 219.188 28.8273 219.989 28.8273C220.789 28.8273 221.411 28.5148 221.854 27.8898C222.303 27.2648 222.528 26.3501 222.528 25.1456C222.528 24.0779 222.297 23.2316 221.834 22.6066C221.379 21.9816 220.757 21.6691 219.969 21.6691C219.194 21.6691 218.579 21.9783 218.123 22.5968C217.668 23.2088 217.44 24.1267 217.44 25.3507ZM232.43 22.1281C232.117 22.076 231.795 22.0499 231.463 22.0499C230.376 22.0499 229.644 22.4666 229.266 23.2999V30.5265H226.893V19.9601H229.158L229.217 21.1417C229.79 20.2238 230.584 19.7648 231.6 19.7648C231.938 19.7648 232.218 19.8103 232.44 19.9015L232.43 22.1281ZM237.362 25.9952L236.307 27.0792V30.5265H233.934V15.5265H236.307V24.1788L237.049 23.2511L239.969 19.9601H242.821L238.895 24.3644L243.241 30.5265H240.496L237.362 25.9952ZM248.836 30.7218C247.332 30.7218 246.112 30.2498 245.174 29.3058C244.243 28.3553 243.778 27.0922 243.778 25.5167V25.2238C243.778 24.1691 243.979 23.2283 244.383 22.4015C244.793 21.5682 245.366 20.9204 246.102 20.4581C246.838 19.9959 247.658 19.7648 248.563 19.7648C250.002 19.7648 251.112 20.2238 251.893 21.1417C252.681 22.0597 253.075 23.3585 253.075 25.0382V25.9952H246.17C246.242 26.8676 246.532 27.5577 247.039 28.0656C247.554 28.5734 248.198 28.8273 248.973 28.8273C250.06 28.8273 250.946 28.3878 251.629 27.5089L252.908 28.7296C252.485 29.3611 251.919 29.8527 251.209 30.2042C250.506 30.5493 249.715 30.7218 248.836 30.7218ZM248.553 21.6691C247.902 21.6691 247.375 21.8969 246.971 22.3527C246.574 22.8084 246.32 23.4432 246.209 24.257H250.731V24.0812C250.679 23.2869 250.467 22.6879 250.096 22.2843C249.725 21.8741 249.211 21.6691 248.553 21.6691ZM254.481 25.1652C254.481 23.5376 254.858 22.2322 255.614 21.2491C256.369 20.2596 257.381 19.7648 258.651 19.7648C259.77 19.7648 260.675 20.1554 261.366 20.9366V15.5265H263.739V30.5265H261.59L261.473 29.4327C260.763 30.2921 259.816 30.7218 258.631 30.7218C257.394 30.7218 256.392 30.2238 255.623 29.2277C254.862 28.2316 254.481 26.8774 254.481 25.1652ZM256.854 25.3702C256.854 26.4445 257.059 27.2843 257.469 27.8898C257.886 28.4887 258.475 28.7882 259.237 28.7882C260.207 28.7882 260.916 28.3553 261.366 27.4894V22.9777C260.929 22.1313 260.226 21.7081 259.256 21.7081C258.488 21.7081 257.895 22.0141 257.479 22.6261C257.062 23.2316 256.854 24.1463 256.854 25.3702ZM270.75 25.1456C270.75 24.1105 270.955 23.1795 271.366 22.3527C271.776 21.5193 272.352 20.8813 273.094 20.4386C273.836 19.9894 274.689 19.7648 275.653 19.7648C277.078 19.7648 278.234 20.2238 279.119 21.1417C280.011 22.0597 280.493 23.2771 280.565 24.7941L280.575 25.3507C280.575 26.3924 280.373 27.3234 279.969 28.1437C279.572 28.964 278.999 29.5988 278.25 30.048C277.508 30.4972 276.649 30.7218 275.672 30.7218C274.181 30.7218 272.987 30.227 272.088 29.2374C271.196 28.2413 270.75 26.9165 270.75 25.2628V25.1456ZM273.123 25.3507C273.123 26.4379 273.348 27.2908 273.797 27.9093C274.246 28.5213 274.871 28.8273 275.672 28.8273C276.473 28.8273 277.095 28.5148 277.537 27.8898C277.987 27.2648 278.211 26.3501 278.211 25.1456C278.211 24.0779 277.98 23.2316 277.518 22.6066C277.062 21.9816 276.44 21.6691 275.653 21.6691C274.878 21.6691 274.263 21.9783 273.807 22.5968C273.351 23.2088 273.123 24.1267 273.123 25.3507ZM284.783 19.9601L284.852 21.1808C285.633 20.2368 286.658 19.7648 287.928 19.7648C290.129 19.7648 291.248 21.0245 291.287 23.5441V30.5265H288.914V23.6808C288.914 23.0102 288.768 22.5154 288.475 22.1964C288.188 21.8709 287.716 21.7081 287.059 21.7081C286.102 21.7081 285.389 22.1411 284.92 23.007V30.5265H282.547V19.9601H284.783ZM301.532 30.5265H299.071V16.3077H301.532V30.5265ZM312.879 24.1788H307.039V28.5538H313.866V30.5265H304.569V16.3077H313.797V18.2999H307.039V22.2257H312.879V24.1788ZM324.188 24.1788H318.348V28.5538H325.174V30.5265H315.877V16.3077H325.106V18.2999H318.348V22.2257H324.188V24.1788ZM335.496 24.1788H329.657V28.5538H336.483V30.5265H327.186V16.3077H336.414V18.2999H329.657V22.2257H335.496V24.1788ZM350.907 26.8644C350.907 26.2394 350.685 25.7576 350.242 25.4191C349.806 25.0805 349.015 24.7387 347.869 24.3937C346.724 24.0486 345.812 23.6645 345.135 23.2413C343.839 22.4275 343.192 21.3663 343.192 20.0577C343.192 18.9119 343.657 17.9679 344.588 17.2257C345.526 16.4835 346.74 16.1124 348.231 16.1124C349.22 16.1124 350.103 16.2947 350.877 16.6593C351.652 17.0239 352.261 17.5447 352.703 18.2218C353.146 18.8924 353.367 19.6378 353.367 20.4581H350.907C350.907 19.7159 350.672 19.1365 350.203 18.7198C349.741 18.2967 349.077 18.0851 348.211 18.0851C347.404 18.0851 346.776 18.2576 346.326 18.6027C345.884 18.9477 345.662 19.4295 345.662 20.048C345.662 20.5688 345.903 21.005 346.385 21.3566C346.867 21.7016 347.661 22.0402 348.768 22.3722C349.875 22.6977 350.763 23.0721 351.434 23.4952C352.104 23.9119 352.596 24.3937 352.909 24.9406C353.221 25.4809 353.377 26.1157 353.377 26.8448C353.377 28.0297 352.922 28.9738 352.01 29.6769C351.105 30.3735 349.875 30.7218 348.319 30.7218C347.29 30.7218 346.343 30.533 345.477 30.1554C344.617 29.7713 343.947 29.2439 343.465 28.5734C342.99 27.9028 342.752 27.1215 342.752 26.2296H345.223C345.223 27.0369 345.49 27.6619 346.024 28.1046C346.558 28.5473 347.323 28.7687 348.319 28.7687C349.178 28.7687 349.823 28.5962 350.252 28.2511C350.688 27.8995 350.907 27.4373 350.907 26.8644ZM355.545 30.5265V16.3077H360.418C362.026 16.3077 363.25 16.63 364.09 17.2745C364.93 17.9191 365.35 18.8794 365.35 20.1554C365.35 20.8064 365.174 21.3924 364.823 21.9132C364.471 22.434 363.957 22.8377 363.28 23.1241C364.048 23.3325 364.64 23.7264 365.057 24.3058C365.48 24.8787 365.692 25.5688 365.692 26.3761C365.692 27.7107 365.262 28.7361 364.403 29.4523C363.55 30.1684 362.326 30.5265 360.731 30.5265H355.545ZM358.016 24.1105V28.5538H360.76C361.535 28.5538 362.14 28.3618 362.576 27.9777C363.013 27.5935 363.231 27.0597 363.231 26.3761C363.231 24.8982 362.476 24.143 360.965 24.1105H358.016ZM358.016 22.2941H360.438C361.206 22.2941 361.805 22.1215 362.235 21.7765C362.671 21.4249 362.889 20.9301 362.889 20.2921C362.889 19.589 362.687 19.0812 362.284 18.7687C361.886 18.4562 361.265 18.2999 360.418 18.2999H358.016V22.2941ZM371.366 16.3077L375.467 27.2062L379.559 16.3077H382.752V30.5265H380.291V25.839L380.535 19.5695L376.336 30.5265H374.569L370.379 19.5792L370.623 25.839V30.5265H368.162V16.3077H371.366ZM97.0101 50.0109L99.1976 39.3077H101.649L98.3675 53.5265H96.0042L93.2991 43.1456L90.5354 53.5265H88.1624L84.8811 39.3077H87.3323L89.5394 49.9913L92.2542 39.3077H94.3245L97.0101 50.0109ZM102.469 48.1456C102.469 47.1105 102.674 46.1795 103.084 45.3527C103.494 44.5193 104.071 43.8813 104.813 43.4386C105.555 42.9894 106.408 42.7648 107.371 42.7648C108.797 42.7648 109.953 43.2238 110.838 44.1417C111.73 45.0597 112.212 46.2771 112.283 47.7941L112.293 48.3507C112.293 49.3924 112.091 50.3234 111.688 51.1437C111.291 51.964 110.718 52.5988 109.969 53.048C109.227 53.4972 108.367 53.7218 107.391 53.7218C105.9 53.7218 104.705 53.227 103.807 52.2374C102.915 51.2413 102.469 49.9165 102.469 48.2628V48.1456ZM104.842 48.3507C104.842 49.4379 105.067 50.2908 105.516 50.9093C105.965 51.5213 106.59 51.8273 107.391 51.8273C108.192 51.8273 108.813 51.5148 109.256 50.8898C109.705 50.2648 109.93 49.3501 109.93 48.1456C109.93 47.0779 109.699 46.2316 109.237 45.6066C108.781 44.9816 108.159 44.6691 107.371 44.6691C106.597 44.6691 105.981 44.9783 105.526 45.5968C105.07 46.2088 104.842 47.1267 104.842 48.3507ZM116.532 42.9601L116.6 44.0636C117.342 43.1977 118.358 42.7648 119.647 42.7648C121.06 42.7648 122.026 43.3051 122.547 44.3859C123.315 43.3051 124.396 42.7648 125.789 42.7648C126.955 42.7648 127.821 43.087 128.387 43.7316C128.96 44.3761 129.253 45.3266 129.266 46.5831V53.5265H126.893V46.6515C126.893 45.9809 126.746 45.4894 126.453 45.1769C126.16 44.8644 125.675 44.7081 124.998 44.7081C124.458 44.7081 124.015 44.8546 123.67 45.1476C123.332 45.434 123.094 45.8116 122.957 46.2804L122.967 53.5265H120.594V46.5734C120.561 45.3299 119.927 44.7081 118.69 44.7081C117.739 44.7081 117.065 45.0955 116.668 45.8702V53.5265H114.295V42.9601H116.532ZM136.356 53.7218C134.852 53.7218 133.631 53.2498 132.694 52.3058C131.763 51.3553 131.297 50.0922 131.297 48.5167V48.2238C131.297 47.1691 131.499 46.2283 131.903 45.4015C132.313 44.5682 132.886 43.9204 133.621 43.4581C134.357 42.9959 135.177 42.7648 136.082 42.7648C137.521 42.7648 138.631 43.2238 139.412 44.1417C140.2 45.0597 140.594 46.3585 140.594 48.0382V48.9952H133.69C133.761 49.8676 134.051 50.5577 134.559 51.0656C135.073 51.5734 135.718 51.8273 136.492 51.8273C137.58 51.8273 138.465 51.3878 139.149 50.5089L140.428 51.7296C140.005 52.3611 139.438 52.8527 138.729 53.2042C138.026 53.5493 137.235 53.7218 136.356 53.7218ZM136.073 44.6691C135.422 44.6691 134.894 44.8969 134.491 45.3527C134.093 45.8084 133.839 46.4432 133.729 47.257H138.25V47.0812C138.198 46.2869 137.987 45.6879 137.616 45.2843C137.244 44.8741 136.73 44.6691 136.073 44.6691ZM144.647 42.9601L144.715 44.1808C145.496 43.2368 146.522 42.7648 147.791 42.7648C149.992 42.7648 151.112 44.0245 151.151 46.5441V53.5265H148.778V46.6808C148.778 46.0102 148.631 45.5154 148.338 45.1964C148.052 44.8709 147.58 44.7081 146.922 44.7081C145.965 44.7081 145.252 45.1411 144.783 46.007V53.5265H142.41V42.9601H144.647ZM161.082 53.5265H158.709V42.9601H161.082V53.5265ZM158.563 40.2159C158.563 39.8514 158.677 39.5486 158.905 39.3077C159.139 39.0669 159.471 38.9464 159.901 38.9464C160.33 38.9464 160.662 39.0669 160.897 39.3077C161.131 39.5486 161.248 39.8514 161.248 40.2159C161.248 40.574 161.131 40.8735 160.897 41.1144C160.662 41.3488 160.33 41.4659 159.901 41.4659C159.471 41.4659 159.139 41.3488 158.905 41.1144C158.677 40.8735 158.563 40.574 158.563 40.2159ZM165.877 42.9601L165.946 44.1808C166.727 43.2368 167.752 42.7648 169.022 42.7648C171.222 42.7648 172.342 44.0245 172.381 46.5441V53.5265H170.008V46.6808C170.008 46.0102 169.862 45.5154 169.569 45.1964C169.282 44.8709 168.81 44.7081 168.153 44.7081C167.196 44.7081 166.483 45.1411 166.014 46.007V53.5265H163.641V42.9601H165.877ZM188.328 47.1788H182.489V51.5538H189.315V53.5265H180.018V39.3077H189.246V41.2999H182.489V45.2257H188.328V47.1788ZM193.299 42.9601L193.367 44.1808C194.149 43.2368 195.174 42.7648 196.444 42.7648C198.644 42.7648 199.764 44.0245 199.803 46.5441V53.5265H197.43V46.6808C197.43 46.0102 197.283 45.5154 196.991 45.1964C196.704 44.8709 196.232 44.7081 195.575 44.7081C194.617 44.7081 193.905 45.1411 193.436 46.007V53.5265H191.063V42.9601H193.299ZM201.815 48.1652C201.815 46.5245 202.199 45.2159 202.967 44.2394C203.742 43.2563 204.767 42.7648 206.043 42.7648C207.248 42.7648 208.195 43.1847 208.885 44.0245L208.992 42.9601H211.131V53.2042C211.131 54.5909 210.698 55.6847 209.832 56.4855C208.973 57.2863 207.811 57.6866 206.346 57.6866C205.571 57.6866 204.813 57.5239 204.071 57.1984C203.335 56.8794 202.775 56.4594 202.391 55.9386L203.514 54.5128C204.243 55.3787 205.142 55.8116 206.209 55.8116C206.997 55.8116 207.619 55.5968 208.075 55.1671C208.53 54.7439 208.758 54.1189 208.758 53.2921V52.5792C208.075 53.3409 207.163 53.7218 206.024 53.7218C204.787 53.7218 203.774 53.2303 202.987 52.2472C202.205 51.2641 201.815 49.9034 201.815 48.1652ZM204.178 48.3702C204.178 49.4314 204.393 50.268 204.823 50.88C205.259 51.4855 205.861 51.7882 206.629 51.7882C207.586 51.7882 208.296 51.3781 208.758 50.5577V45.9093C208.309 45.1085 207.606 44.7081 206.649 44.7081C205.867 44.7081 205.259 45.0174 204.823 45.6359C204.393 46.2544 204.178 47.1658 204.178 48.3702ZM216.102 53.5265H213.729V42.9601H216.102V53.5265ZM213.582 40.2159C213.582 39.8514 213.696 39.5486 213.924 39.3077C214.158 39.0669 214.491 38.9464 214.92 38.9464C215.35 38.9464 215.682 39.0669 215.916 39.3077C216.151 39.5486 216.268 39.8514 216.268 40.2159C216.268 40.574 216.151 40.8735 215.916 41.1144C215.682 41.3488 215.35 41.4659 214.92 41.4659C214.491 41.4659 214.158 41.3488 213.924 41.1144C213.696 40.8735 213.582 40.574 213.582 40.2159ZM220.897 42.9601L220.965 44.1808C221.746 43.2368 222.772 42.7648 224.041 42.7648C226.242 42.7648 227.362 44.0245 227.401 46.5441V53.5265H225.028V46.6808C225.028 46.0102 224.881 45.5154 224.588 45.1964C224.302 44.8709 223.83 44.7081 223.172 44.7081C222.215 44.7081 221.502 45.1411 221.033 46.007V53.5265H218.66V42.9601H220.897ZM234.481 53.7218C232.977 53.7218 231.756 53.2498 230.819 52.3058C229.888 51.3553 229.422 50.0922 229.422 48.5167V48.2238C229.422 47.1691 229.624 46.2283 230.028 45.4015C230.438 44.5682 231.011 43.9204 231.746 43.4581C232.482 42.9959 233.302 42.7648 234.207 42.7648C235.646 42.7648 236.756 43.2238 237.537 44.1417C238.325 45.0597 238.719 46.3585 238.719 48.0382V48.9952H231.815C231.886 49.8676 232.176 50.5577 232.684 51.0656C233.198 51.5734 233.843 51.8273 234.617 51.8273C235.705 51.8273 236.59 51.3878 237.274 50.5089L238.553 51.7296C238.13 52.3611 237.563 52.8527 236.854 53.2042C236.151 53.5493 235.36 53.7218 234.481 53.7218ZM234.198 44.6691C233.547 44.6691 233.019 44.8969 232.616 45.3527C232.218 45.8084 231.964 46.4432 231.854 47.257H236.375V47.0812C236.323 46.2869 236.112 45.6879 235.741 45.2843C235.369 44.8741 234.855 44.6691 234.198 44.6691ZM245.223 53.7218C243.719 53.7218 242.498 53.2498 241.561 52.3058C240.63 51.3553 240.164 50.0922 240.164 48.5167V48.2238C240.164 47.1691 240.366 46.2283 240.77 45.4015C241.18 44.5682 241.753 43.9204 242.489 43.4581C243.224 42.9959 244.045 42.7648 244.95 42.7648C246.388 42.7648 247.498 43.2238 248.28 44.1417C249.067 45.0597 249.461 46.3585 249.461 48.0382V48.9952H242.557C242.629 49.8676 242.918 50.5577 243.426 51.0656C243.94 51.5734 244.585 51.8273 245.36 51.8273C246.447 51.8273 247.332 51.3878 248.016 50.5089L249.295 51.7296C248.872 52.3611 248.306 52.8527 247.596 53.2042C246.893 53.5493 246.102 53.7218 245.223 53.7218ZM244.94 44.6691C244.289 44.6691 243.761 44.8969 243.358 45.3527C242.961 45.8084 242.707 46.4432 242.596 47.257H247.117V47.0812C247.065 46.2869 246.854 45.6879 246.483 45.2843C246.112 44.8741 245.597 44.6691 244.94 44.6691ZM256.844 45.1281C256.532 45.076 256.209 45.0499 255.877 45.0499C254.79 45.0499 254.058 45.4666 253.68 46.2999V53.5265H251.307V42.9601H253.573L253.631 44.1417C254.204 43.2238 254.998 42.7648 256.014 42.7648C256.353 42.7648 256.632 42.8103 256.854 42.9015L256.844 45.1281ZM260.867 53.5265H258.494V42.9601H260.867V53.5265ZM258.348 40.2159C258.348 39.8514 258.462 39.5486 258.69 39.3077C258.924 39.0669 259.256 38.9464 259.686 38.9464C260.116 38.9464 260.448 39.0669 260.682 39.3077C260.916 39.5486 261.033 39.8514 261.033 40.2159C261.033 40.574 260.916 40.8735 260.682 41.1144C260.448 41.3488 260.116 41.4659 259.686 41.4659C259.256 41.4659 258.924 41.3488 258.69 41.1144C258.462 40.8735 258.348 40.574 258.348 40.2159ZM265.662 42.9601L265.731 44.1808C266.512 43.2368 267.537 42.7648 268.807 42.7648C271.007 42.7648 272.127 44.0245 272.166 46.5441V53.5265H269.793V46.6808C269.793 46.0102 269.647 45.5154 269.354 45.1964C269.067 44.8709 268.595 44.7081 267.938 44.7081C266.981 44.7081 266.268 45.1411 265.799 46.007V53.5265H263.426V42.9601H265.662ZM274.178 48.1652C274.178 46.5245 274.562 45.2159 275.33 44.2394C276.105 43.2563 277.13 42.7648 278.407 42.7648C279.611 42.7648 280.558 43.1847 281.248 44.0245L281.356 42.9601H283.494V53.2042C283.494 54.5909 283.061 55.6847 282.196 56.4855C281.336 57.2863 280.174 57.6866 278.709 57.6866C277.935 57.6866 277.176 57.5239 276.434 57.1984C275.698 56.8794 275.138 56.4594 274.754 55.9386L275.877 54.5128C276.606 55.3787 277.505 55.8116 278.573 55.8116C279.36 55.8116 279.982 55.5968 280.438 55.1671C280.894 54.7439 281.121 54.1189 281.121 53.2921V52.5792C280.438 53.3409 279.526 53.7218 278.387 53.7218C277.15 53.7218 276.138 53.2303 275.35 52.2472C274.569 51.2641 274.178 49.9034 274.178 48.1652ZM276.541 48.3702C276.541 49.4314 276.756 50.268 277.186 50.88C277.622 51.4855 278.224 51.7882 278.992 51.7882C279.95 51.7882 280.659 51.3781 281.121 50.5577V45.9093C280.672 45.1085 279.969 44.7081 279.012 44.7081C278.231 44.7081 277.622 45.0174 277.186 45.6359C276.756 46.2544 276.541 47.1658 276.541 48.3702ZM299.11 50.2159H293.602L292.45 53.5265H289.881L295.252 39.3077H297.469L302.85 53.5265H300.272L299.11 50.2159ZM294.295 48.2238H298.416L296.356 42.3253L294.295 48.2238ZM305.076 53.5265V44.7179H303.465V42.9601H305.076V41.9933C305.076 40.8214 305.402 39.9165 306.053 39.2784C306.704 38.6404 307.616 38.3214 308.787 38.3214C309.204 38.3214 309.647 38.38 310.116 38.4972L310.057 40.3527C309.797 40.3006 309.494 40.2745 309.149 40.2745C308.016 40.2745 307.45 40.8572 307.45 42.0226V42.9601H311.082V42.2374C311.089 41.4106 311.265 40.701 311.61 40.1085C311.955 39.5161 312.443 39.0701 313.075 38.7706C313.706 38.4712 314.464 38.3214 315.35 38.3214C315.871 38.3214 316.369 38.3767 316.844 38.4874C317.326 38.5981 317.824 38.7381 318.338 38.9073L317.967 40.8702C317.082 40.5577 316.265 40.4015 315.516 40.4015C314.793 40.4015 314.269 40.561 313.944 40.88C313.618 41.1925 313.455 41.6645 313.455 42.296V42.9601H315.535V44.7179H313.455V53.5265H311.082V44.7179H307.45V53.5265H305.076ZM319.461 53.5265H317.088V42.9601H319.461V53.5265ZM324.295 42.9601L324.364 44.1808C325.145 43.2368 326.17 42.7648 327.44 42.7648C329.64 42.7648 330.76 44.0245 330.799 46.5441V53.5265H328.426V46.6808C328.426 46.0102 328.28 45.5154 327.987 45.1964C327.7 44.8709 327.228 44.7081 326.571 44.7081C325.614 44.7081 324.901 45.1411 324.432 46.007V53.5265H322.059V42.9601H324.295ZM335.75 53.5265H333.377V42.9601H335.75V53.5265ZM333.231 40.2159C333.231 39.8514 333.345 39.5486 333.573 39.3077C333.807 39.0669 334.139 38.9464 334.569 38.9464C334.998 38.9464 335.33 39.0669 335.565 39.3077C335.799 39.5486 335.916 39.8514 335.916 40.2159C335.916 40.574 335.799 40.8735 335.565 41.1144C335.33 41.3488 334.998 41.4659 334.569 41.4659C334.139 41.4659 333.807 41.3488 333.573 41.1144C333.345 40.8735 333.231 40.574 333.231 40.2159ZM341.317 40.3917V42.9601H343.182V44.7179H341.317V50.6163C341.317 51.02 341.395 51.3129 341.551 51.4952C341.714 51.671 342 51.7589 342.41 51.7589C342.684 51.7589 342.961 51.7264 343.241 51.6613V53.4972C342.7 53.6469 342.179 53.7218 341.678 53.7218C339.855 53.7218 338.944 52.7159 338.944 50.7042V44.7179H337.205V42.9601H338.944V40.3917H341.317ZM348.7 50.1281L350.848 42.9601H353.377L349.178 55.1281C348.534 56.9054 347.44 57.7941 345.897 57.7941C345.552 57.7941 345.171 57.7355 344.754 57.6183V55.7823L345.203 55.8116C345.802 55.8116 346.252 55.701 346.551 55.4796C346.857 55.2648 347.098 54.9002 347.274 54.3859L347.616 53.4777L343.905 42.9601H346.463L348.7 50.1281ZM370.858 51.6808C370.343 52.3514 369.631 52.8592 368.719 53.2042C367.808 53.5493 366.772 53.7218 365.614 53.7218C364.422 53.7218 363.367 53.4516 362.45 52.9113C361.532 52.3709 360.822 51.5994 360.321 50.5968C359.826 49.5877 359.569 48.4126 359.549 47.0714V45.9581C359.549 43.8097 360.063 42.1333 361.092 40.9288C362.121 39.7179 363.556 39.1124 365.399 39.1124C366.981 39.1124 368.237 39.5031 369.168 40.2843C370.099 41.0656 370.659 42.1919 370.848 43.6632H368.426C368.153 41.951 367.16 41.0948 365.448 41.0948C364.341 41.0948 363.498 41.4952 362.918 42.296C362.345 43.0903 362.049 44.2589 362.03 45.8019V46.8956C362.03 48.4321 362.352 49.6267 362.996 50.4796C363.647 51.326 364.549 51.7491 365.701 51.7491C366.964 51.7491 367.863 51.4627 368.397 50.8898V48.1066H365.467V46.2316H370.858V51.6808ZM378.875 45.1281C378.563 45.076 378.241 45.0499 377.909 45.0499C376.821 45.0499 376.089 45.4666 375.711 46.2999V53.5265H373.338V42.9601H375.604L375.662 44.1417C376.235 43.2238 377.03 42.7648 378.045 42.7648C378.384 42.7648 378.664 42.8103 378.885 42.9015L378.875 45.1281ZM379.578 48.1456C379.578 47.1105 379.784 46.1795 380.194 45.3527C380.604 44.5193 381.18 43.8813 381.922 43.4386C382.664 42.9894 383.517 42.7648 384.481 42.7648C385.907 42.7648 387.062 43.2238 387.948 44.1417C388.839 45.0597 389.321 46.2771 389.393 47.7941L389.403 48.3507C389.403 49.3924 389.201 50.3234 388.797 51.1437C388.4 51.964 387.827 52.5988 387.078 53.048C386.336 53.4972 385.477 53.7218 384.5 53.7218C383.009 53.7218 381.815 53.227 380.916 52.2374C380.024 51.2413 379.578 49.9165 379.578 48.2628V48.1456ZM381.951 48.3507C381.951 49.4379 382.176 50.2908 382.625 50.9093C383.075 51.5213 383.7 51.8273 384.5 51.8273C385.301 51.8273 385.923 51.5148 386.366 50.8898C386.815 50.2648 387.039 49.3501 387.039 48.1456C387.039 47.0779 386.808 46.2316 386.346 45.6066C385.89 44.9816 385.269 44.6691 384.481 44.6691C383.706 44.6691 383.091 44.9783 382.635 45.5968C382.179 46.2088 381.951 47.1267 381.951 48.3507ZM397.811 52.4913C397.114 53.3116 396.125 53.7218 394.842 53.7218C393.696 53.7218 392.827 53.3865 392.235 52.7159C391.649 52.0454 391.356 51.0753 391.356 49.8058V42.9601H393.729V49.7765C393.729 51.1176 394.285 51.7882 395.399 51.7882C396.551 51.7882 397.329 51.3748 397.733 50.548V42.9601H400.106V53.5265H397.869L397.811 52.4913ZM411.776 48.3507C411.776 49.9848 411.405 51.2902 410.662 52.2667C409.92 53.2368 408.924 53.7218 407.674 53.7218C406.515 53.7218 405.588 53.3409 404.891 52.5792V57.589H402.518V42.9601H404.705L404.803 44.0343C405.5 43.1879 406.447 42.7648 407.645 42.7648C408.934 42.7648 409.943 43.2465 410.672 44.2101C411.408 45.1671 411.776 46.4985 411.776 48.2042V48.3507ZM409.412 48.1456C409.412 47.0909 409.201 46.2544 408.778 45.6359C408.361 45.0174 407.762 44.7081 406.981 44.7081C406.011 44.7081 405.314 45.1085 404.891 45.9093V50.5968C405.321 51.4171 406.024 51.8273 407 51.8273C407.756 51.8273 408.345 51.5245 408.768 50.9191C409.198 50.3071 409.412 49.3826 409.412 48.1456ZM413.992 43.5265L412.782 42.7745C413.367 41.9217 413.67 41.02 413.69 40.0695V38.5265H415.77V39.8741C415.77 40.5447 415.597 41.2218 415.252 41.9054C414.914 42.5825 414.494 43.1228 413.992 43.5265ZM421.492 50.6554C421.492 50.2322 421.317 49.91 420.965 49.6886C420.62 49.4672 420.044 49.2719 419.237 49.1027C418.429 48.9334 417.756 48.7185 417.215 48.4581C416.03 47.8852 415.438 47.0551 415.438 45.9679C415.438 45.0564 415.822 44.2947 416.59 43.6827C417.358 43.0708 418.335 42.7648 419.52 42.7648C420.783 42.7648 421.802 43.0773 422.576 43.7023C423.358 44.3273 423.748 45.1378 423.748 46.1339H421.375C421.375 45.6782 421.206 45.3006 420.867 45.0011C420.529 44.6951 420.08 44.5421 419.52 44.5421C418.999 44.5421 418.573 44.6626 418.241 44.9034C417.915 45.1443 417.752 45.4666 417.752 45.8702C417.752 46.2348 417.905 46.518 418.211 46.7198C418.517 46.9217 419.136 47.1267 420.067 47.3351C420.998 47.5369 421.727 47.781 422.254 48.0675C422.788 48.3475 423.182 48.686 423.436 49.0831C423.696 49.4803 423.826 49.962 423.826 50.5284C423.826 51.479 423.433 52.2504 422.645 52.8429C421.857 53.4288 420.825 53.7218 419.549 53.7218C418.683 53.7218 417.912 53.5656 417.235 53.2531C416.558 52.9406 416.03 52.5109 415.653 51.964C415.275 51.4171 415.086 50.8279 415.086 50.1964H417.391C417.423 50.7563 417.635 51.1892 418.026 51.4952C418.416 51.7947 418.934 51.9445 419.578 51.9445C420.203 51.9445 420.679 51.8273 421.004 51.5929C421.33 51.352 421.492 51.0395 421.492 50.6554ZM442.264 50.0109L444.451 39.3077H446.903L443.621 53.5265H441.258L438.553 43.1456L435.789 53.5265H433.416L430.135 39.3077H432.586L434.793 49.9913L437.508 39.3077H439.578L442.264 50.0109ZM452.821 53.7218C451.317 53.7218 450.096 53.2498 449.159 52.3058C448.228 51.3553 447.762 50.0922 447.762 48.5167V48.2238C447.762 47.1691 447.964 46.2283 448.367 45.4015C448.778 44.5682 449.351 43.9204 450.086 43.4581C450.822 42.9959 451.642 42.7648 452.547 42.7648C453.986 42.7648 455.096 43.2238 455.877 44.1417C456.665 45.0597 457.059 46.3585 457.059 48.0382V48.9952H450.155C450.226 49.8676 450.516 50.5577 451.024 51.0656C451.538 51.5734 452.183 51.8273 452.957 51.8273C454.045 51.8273 454.93 51.3878 455.614 50.5089L456.893 51.7296C456.47 52.3611 455.903 52.8527 455.194 53.2042C454.491 53.5493 453.7 53.7218 452.821 53.7218ZM452.537 44.6691C451.886 44.6691 451.359 44.8969 450.955 45.3527C450.558 45.8084 450.304 46.4432 450.194 47.257H454.715V47.0812C454.663 46.2869 454.451 45.6879 454.08 45.2843C453.709 44.8741 453.195 44.6691 452.537 44.6691ZM468.182 48.3507C468.182 49.9913 467.814 51.2967 467.078 52.2667C466.349 53.2368 465.343 53.7218 464.061 53.7218C462.824 53.7218 461.86 53.2758 461.17 52.3839L461.053 53.5265H458.905V38.5265H461.278V43.9757C461.961 43.1684 462.882 42.7648 464.041 42.7648C465.33 42.7648 466.343 43.2433 467.078 44.2003C467.814 45.1573 468.182 46.4952 468.182 48.214V48.3507ZM465.809 48.1456C465.809 46.9998 465.607 46.1404 465.203 45.5675C464.8 44.9946 464.214 44.7081 463.446 44.7081C462.417 44.7081 461.694 45.1573 461.278 46.0558V50.4113C461.701 51.3292 462.43 51.7882 463.465 51.7882C464.207 51.7882 464.78 51.5115 465.184 50.9581C465.588 50.4047 465.796 49.5682 465.809 48.4484V48.1456ZM476.102 50.6554C476.102 50.2322 475.926 49.91 475.575 49.6886C475.229 49.4672 474.653 49.2719 473.846 49.1027C473.039 48.9334 472.365 48.7185 471.825 48.4581C470.64 47.8852 470.047 47.0551 470.047 45.9679C470.047 45.0564 470.431 44.2947 471.2 43.6827C471.968 43.0708 472.944 42.7648 474.129 42.7648C475.392 42.7648 476.411 43.0773 477.186 43.7023C477.967 44.3273 478.358 45.1378 478.358 46.1339H475.985C475.985 45.6782 475.815 45.3006 475.477 45.0011C475.138 44.6951 474.689 44.5421 474.129 44.5421C473.608 44.5421 473.182 44.6626 472.85 44.9034C472.524 45.1443 472.362 45.4666 472.362 45.8702C472.362 46.2348 472.515 46.518 472.821 46.7198C473.127 46.9217 473.745 47.1267 474.676 47.3351C475.607 47.5369 476.336 47.781 476.864 48.0675C477.397 48.3475 477.791 48.686 478.045 49.0831C478.306 49.4803 478.436 49.962 478.436 50.5284C478.436 51.479 478.042 52.2504 477.254 52.8429C476.466 53.4288 475.435 53.7218 474.159 53.7218C473.293 53.7218 472.521 53.5656 471.844 53.2531C471.167 52.9406 470.64 52.5109 470.262 51.964C469.884 51.4171 469.696 50.8279 469.696 50.1964H472C472.033 50.7563 472.244 51.1892 472.635 51.4952C473.026 51.7947 473.543 51.9445 474.188 51.9445C474.813 51.9445 475.288 51.8273 475.614 51.5929C475.939 51.352 476.102 51.0395 476.102 50.6554ZM483.035 53.5265H480.662V42.9601H483.035V53.5265ZM480.516 40.2159C480.516 39.8514 480.63 39.5486 480.858 39.3077C481.092 39.0669 481.424 38.9464 481.854 38.9464C482.284 38.9464 482.616 39.0669 482.85 39.3077C483.084 39.5486 483.201 39.8514 483.201 40.2159C483.201 40.574 483.084 40.8735 482.85 41.1144C482.616 41.3488 482.284 41.4659 481.854 41.4659C481.424 41.4659 481.092 41.3488 480.858 41.1144C480.63 40.8735 480.516 40.574 480.516 40.2159ZM488.602 40.3917V42.9601H490.467V44.7179H488.602V50.6163C488.602 51.02 488.68 51.3129 488.836 51.4952C488.999 51.671 489.285 51.7589 489.696 51.7589C489.969 51.7589 490.246 51.7264 490.526 51.6613V53.4972C489.985 53.6469 489.464 53.7218 488.963 53.7218C487.14 53.7218 486.229 52.7159 486.229 50.7042V44.7179H484.491V42.9601H486.229V40.3917H488.602ZM496.942 53.7218C495.438 53.7218 494.217 53.2498 493.28 52.3058C492.349 51.3553 491.883 50.0922 491.883 48.5167V48.2238C491.883 47.1691 492.085 46.2283 492.489 45.4015C492.899 44.5682 493.472 43.9204 494.207 43.4581C494.943 42.9959 495.763 42.7648 496.668 42.7648C498.107 42.7648 499.217 43.2238 499.998 44.1417C500.786 45.0597 501.18 46.3585 501.18 48.0382V48.9952H494.276C494.347 49.8676 494.637 50.5577 495.145 51.0656C495.659 51.5734 496.304 51.8273 497.078 51.8273C498.166 51.8273 499.051 51.3878 499.735 50.5089L501.014 51.7296C500.591 52.3611 500.024 52.8527 499.315 53.2042C498.612 53.5493 497.821 53.7218 496.942 53.7218ZM496.659 44.6691C496.007 44.6691 495.48 44.8969 495.076 45.3527C494.679 45.8084 494.425 46.4432 494.315 47.257H498.836V47.0812C498.784 46.2869 498.573 45.6879 498.201 45.2843C497.83 44.8741 497.316 44.6691 496.659 44.6691Z" fill="white"/>
<line x1="2.87274e-07" y1="71.4779" x2="602" y2="71.478" stroke="#BFFBDE" stroke-width="10"/>
<path d="M288.321 108.968C288.178 110.485 287.618 111.67 286.641 112.523C285.665 113.369 284.366 113.793 282.745 113.793C281.612 113.793 280.613 113.526 279.747 112.992C278.888 112.451 278.224 111.686 277.755 110.697C277.286 109.707 277.042 108.558 277.022 107.25V105.922C277.022 104.58 277.26 103.399 277.735 102.377C278.21 101.354 278.891 100.567 279.776 100.013C280.668 99.4599 281.697 99.1832 282.862 99.1832C284.431 99.1832 285.694 99.6097 286.651 100.463C287.608 101.315 288.165 102.52 288.321 104.076H285.86C285.743 103.054 285.444 102.318 284.962 101.869C284.487 101.413 283.787 101.185 282.862 101.185C281.788 101.185 280.961 101.579 280.382 102.367C279.809 103.148 279.516 104.297 279.503 105.814V107.074C279.503 108.61 279.776 109.782 280.323 110.589C280.877 111.397 281.684 111.8 282.745 111.8C283.715 111.8 284.444 111.582 284.932 111.146C285.421 110.71 285.73 109.984 285.86 108.968H288.321ZM292.833 113.597H290.46V98.5973H292.833V113.597ZM297.95 113.597H295.577V103.031H297.95V113.597ZM295.431 100.287C295.431 99.9222 295.544 99.6194 295.772 99.3785C296.007 99.1377 296.339 99.0172 296.768 99.0172C297.198 99.0172 297.53 99.1377 297.765 99.3785C297.999 99.6194 298.116 99.9222 298.116 100.287C298.116 100.645 297.999 100.944 297.765 101.185C297.53 101.42 297.198 101.537 296.768 101.537C296.339 101.537 296.007 101.42 295.772 101.185C295.544 100.944 295.431 100.645 295.431 100.287ZM304.884 111.898C305.476 111.898 305.968 111.726 306.358 111.38C306.749 111.035 306.957 110.609 306.983 110.101H309.22C309.194 110.759 308.988 111.374 308.604 111.947C308.22 112.513 307.699 112.963 307.042 113.295C306.384 113.627 305.675 113.793 304.913 113.793C303.435 113.793 302.263 113.314 301.397 112.357C300.531 111.4 300.099 110.078 300.099 108.392V108.148C300.099 106.54 300.528 105.254 301.388 104.291C302.247 103.321 303.419 102.836 304.903 102.836C306.16 102.836 307.182 103.203 307.97 103.939C308.764 104.668 309.181 105.629 309.22 106.82H306.983C306.957 106.214 306.749 105.716 306.358 105.326C305.974 104.935 305.483 104.74 304.884 104.74C304.115 104.74 303.523 105.02 303.106 105.58C302.69 106.133 302.478 106.976 302.472 108.109V108.49C302.472 109.636 302.677 110.492 303.087 111.058C303.503 111.618 304.102 111.898 304.884 111.898ZM314.444 109.066L313.39 110.15V113.597H311.016V98.5973H313.39V107.25L314.132 106.322L317.052 103.031H319.903L315.977 107.435L320.323 113.597H317.579L314.444 109.066ZM323.975 109.408H321.934L321.71 99.3785H324.21L323.975 109.408ZM321.641 112.474C321.641 112.103 321.762 111.797 322.003 111.556C322.244 111.309 322.572 111.185 322.989 111.185C323.406 111.185 323.735 111.309 323.975 111.556C324.216 111.797 324.337 112.103 324.337 112.474C324.337 112.832 324.22 113.132 323.985 113.373C323.751 113.614 323.419 113.734 322.989 113.734C322.559 113.734 322.227 113.614 321.993 113.373C321.759 113.132 321.641 112.832 321.641 112.474Z" fill="white"/>
<g filter="url(#filter1_d)">
<rect x="248.266" y="81.5929" width="114.668" height="55.6991" rx="27.8496" stroke="#8AD4B5"/>
</g>
</g>
<defs>
<filter id="filter0_i" x="0" y="0" width="602" height="153" filterUnits="userSpaceOnUse" color-interpolation-filters="sRGB">
<feFlood flood-opacity="0" result="BackgroundImageFix"/>
<feBlend mode="normal" in="SourceGraphic" in2="BackgroundImageFix" result="shape"/>
<feColorMatrix in="SourceAlpha" type="matrix" values="0 0 0 0 0 0 0 0 0 0 0 0 0 0 0 0 0 0 127 0" result="hardAlpha"/>
<feOffset dy="4"/>
<feGaussianBlur stdDeviation="2"/>
<feComposite in2="hardAlpha" operator="arithmetic" k2="-1" k3="1"/>
<feColorMatrix type="matrix" values="0 0 0 0 0 0 0 0 0 0 0 0 0 0 0 0 0 0 0.25 0"/>
<feBlend mode="normal" in2="shape" result="effect1_innerShadow"/>
</filter>
<filter id="filter1_d" x="243.766" y="81.0929" width="123.668" height="64.6991" filterUnits="userSpaceOnUse" color-interpolation-filters="sRGB">
<feFlood flood-opacity="0" result="BackgroundImageFix"/>
<feColorMatrix in="SourceAlpha" type="matrix" values="0 0 0 0 0 0 0 0 0 0 0 0 0 0 0 0 0 0 127 0" result="hardAlpha"/>
<feOffset dy="4"/>
<feGaussianBlur stdDeviation="2"/>
<feColorMatrix type="matrix" values="0 0 0 0 0 0 0 0 0 0 0 0 0 0 0 0 0 0 0.25 0"/>
<feBlend mode="normal" in2="BackgroundImageFix" result="effect1_dropShadow"/>
<feBlend mode="normal" in="SourceGraphic" in2="effect1_dropShadow" result="shape"/>
</filter>
</defs>
</svg>
