<svg width="166" height="46" viewBox="0 0 166 46" fill="none" xmlns="http://www.w3.org/2000/svg">
<g filter="url(#filter0_i)">
<rect width="166" height="41" rx="20.5" fill="#17625D"/>
<path d="M51.9585 8.21643L52.7242 4.47034H53.5821L52.4336 9.4469H51.6065L50.6597 5.8136L49.6924 9.4469H48.8619L47.7134 4.47034H48.5713L49.3438 8.2096L50.294 4.47034H51.0186L51.9585 8.21643ZM53.8692 7.5636C53.8692 7.2013 53.941 6.87545 54.0845 6.58606C54.2281 6.2944 54.4297 6.07109 54.6895 5.91614C54.9493 5.75891 55.2478 5.6803 55.585 5.6803C56.084 5.6803 56.4885 5.84095 56.7984 6.16224C57.1106 6.48352 57.2792 6.90963 57.3042 7.44056L57.3077 7.63538C57.3077 7.99996 57.237 8.32581 57.0957 8.61292C56.9567 8.90003 56.7562 9.1222 56.4942 9.27942C56.2344 9.43665 55.9336 9.51526 55.5918 9.51526C55.07 9.51526 54.6519 9.34209 54.3374 8.99573C54.0253 8.6471 53.8692 8.18339 53.8692 7.60462V7.5636ZM54.6997 7.63538C54.6997 8.01591 54.7784 8.31442 54.9356 8.53089C55.0928 8.74508 55.3116 8.85218 55.5918 8.85218C55.8721 8.85218 56.0897 8.7428 56.2447 8.52405C56.4019 8.3053 56.4805 7.98515 56.4805 7.5636C56.4805 7.1899 56.3996 6.89368 56.2378 6.67493C56.0783 6.45618 55.8607 6.34681 55.585 6.34681C55.3138 6.34681 55.0985 6.45504 54.939 6.67151C54.7795 6.88571 54.6997 7.20699 54.6997 7.63538ZM59.9463 6.50745C59.837 6.48922 59.7242 6.48011 59.608 6.48011C59.2274 6.48011 58.9711 6.62594 58.8389 6.91761V9.4469H58.0083V5.74866H58.8013L58.8218 6.16224C59.0223 5.84095 59.3003 5.6803 59.6558 5.6803C59.7743 5.6803 59.8723 5.69625 59.9497 5.72815L59.9463 6.50745ZM61.6724 7.86097L61.3033 8.24036V9.4469H60.4727V4.1969H61.3033V7.22522L61.563 6.90052L62.585 5.74866H63.583L62.209 7.29016L63.73 9.4469H62.7696L61.6724 7.86097ZM65.6885 9.51526C65.1622 9.51526 64.7349 9.35006 64.4068 9.01966C64.0809 8.68697 63.918 8.24492 63.918 7.69349V7.59095C63.918 7.22181 63.9886 6.89254 64.1299 6.60315C64.2735 6.31149 64.474 6.08476 64.7315 5.92298C64.989 5.76119 65.2761 5.6803 65.5928 5.6803C66.0964 5.6803 66.4849 5.84095 66.7583 6.16224C67.0341 6.48352 67.1719 6.93811 67.1719 7.526V7.86097H64.7554C64.7805 8.1663 64.8819 8.40784 65.0596 8.58558C65.2396 8.76331 65.4652 8.85218 65.7364 8.85218C66.1169 8.85218 66.4268 8.69837 66.6661 8.39075L67.1138 8.818C66.9657 9.03903 66.7675 9.21106 66.5191 9.33411C66.273 9.45488 65.9961 9.51526 65.6885 9.51526ZM65.5894 6.34681C65.3615 6.34681 65.177 6.42656 65.0357 6.58606C64.8967 6.74557 64.8078 6.96774 64.7691 7.25257H66.3516V7.19104C66.3334 6.91305 66.2593 6.70341 66.1294 6.56214C65.9996 6.41858 65.8195 6.34681 65.5894 6.34681ZM67.6641 7.57044C67.6641 7.00078 67.7963 6.54391 68.0606 6.19983C68.3249 5.85348 68.6792 5.6803 69.1236 5.6803C69.5155 5.6803 69.8322 5.81702 70.0738 6.09046V4.1969H70.9043V9.4469H70.1524L70.1114 9.06409C69.863 9.36487 69.5315 9.51526 69.1167 9.51526C68.6838 9.51526 68.3329 9.34095 68.064 8.99231C67.7974 8.64368 67.6641 8.16972 67.6641 7.57044ZM68.4947 7.64222C68.4947 8.01819 68.5664 8.31214 68.71 8.52405C68.8558 8.73369 69.0621 8.8385 69.3287 8.8385C69.6682 8.8385 69.9165 8.68697 70.0738 8.38391V6.80481C69.9211 6.50859 69.675 6.36048 69.3355 6.36048C69.0666 6.36048 68.8593 6.46757 68.7134 6.68177C68.5676 6.89368 68.4947 7.21383 68.4947 7.64222ZM73.3584 7.5636C73.3584 7.2013 73.4302 6.87545 73.5738 6.58606C73.7173 6.2944 73.919 6.07109 74.1788 5.91614C74.4385 5.75891 74.737 5.6803 75.0743 5.6803C75.5733 5.6803 75.9777 5.84095 76.2876 6.16224C76.5998 6.48352 76.7684 6.90963 76.7935 7.44056L76.7969 7.63538C76.7969 7.99996 76.7263 8.32581 76.585 8.61292C76.446 8.90003 76.2455 9.1222 75.9834 9.27942C75.7237 9.43665 75.4229 9.51526 75.0811 9.51526C74.5593 9.51526 74.1412 9.34209 73.8267 8.99573C73.5145 8.6471 73.3584 8.18339 73.3584 7.60462V7.5636ZM74.189 7.63538C74.189 8.01591 74.2676 8.31442 74.4248 8.53089C74.5821 8.74508 74.8008 8.85218 75.0811 8.85218C75.3614 8.85218 75.579 8.7428 75.7339 8.52405C75.8912 8.3053 75.9698 7.98515 75.9698 7.5636C75.9698 7.1899 75.8889 6.89368 75.7271 6.67493C75.5676 6.45618 75.35 6.34681 75.0743 6.34681C74.8031 6.34681 74.5878 6.45504 74.4283 6.67151C74.2688 6.88571 74.189 7.20699 74.189 7.63538ZM78.2701 5.74866L78.294 6.17591C78.5674 5.8455 78.9263 5.6803 79.3706 5.6803C80.1408 5.6803 80.5328 6.12122 80.5464 7.00306V9.4469H79.7159V7.05091C79.7159 6.81621 79.6646 6.64303 79.5621 6.53138C79.4618 6.41744 79.2966 6.36048 79.0664 6.36048C78.7315 6.36048 78.482 6.51201 78.3179 6.81507V9.4469H77.4873V5.74866H78.2701ZM84.1319 9.4469H83.2705V4.47034H84.1319V9.4469ZM88.1036 7.22522H86.0596V8.75647H88.4488V9.4469H85.1949V4.47034H88.4248V5.16761H86.0596V6.54163H88.1036V7.22522ZM92.0616 7.22522H90.0176V8.75647H92.4068V9.4469H89.1529V4.47034H92.3829V5.16761H90.0176V6.54163H92.0616V7.22522ZM96.0196 7.22522H93.9756V8.75647H96.3648V9.4469H93.1109V4.47034H96.3409V5.16761H93.9756V6.54163H96.0196V7.22522ZM101.413 8.16516C101.413 7.94641 101.336 7.7778 101.181 7.65931C101.028 7.54082 100.751 7.42119 100.35 7.30042C99.9491 7.17965 99.6301 7.04521 99.3931 6.8971C98.9397 6.61227 98.7129 6.24085 98.7129 5.78284C98.7129 5.3818 98.8759 5.0514 99.2017 4.79163C99.5298 4.53186 99.9548 4.40198 100.477 4.40198C100.823 4.40198 101.132 4.46578 101.403 4.59339C101.674 4.72099 101.887 4.90328 102.042 5.14026C102.197 5.37496 102.274 5.63587 102.274 5.92298H101.413C101.413 5.66321 101.331 5.46041 101.167 5.31458C101.005 5.16647 100.773 5.09241 100.47 5.09241C100.187 5.09241 99.9673 5.1528 99.8101 5.27356C99.6552 5.39433 99.5777 5.56295 99.5777 5.77942C99.5777 5.96171 99.662 6.11438 99.8306 6.23743C99.9992 6.3582 100.277 6.47669 100.665 6.5929C101.052 6.70683 101.363 6.83785 101.598 6.98597C101.832 7.1318 102.004 7.30042 102.114 7.49183C102.223 7.68095 102.278 7.90312 102.278 8.15833C102.278 8.57304 102.118 8.90345 101.799 9.14954C101.483 9.39336 101.052 9.51526 100.507 9.51526C100.147 9.51526 99.8158 9.44918 99.5127 9.31702C99.212 9.18258 98.9773 8.99801 98.8086 8.76331C98.6423 8.52861 98.5591 8.25517 98.5591 7.943H99.4239C99.4239 8.22555 99.5173 8.4443 99.7041 8.59925C99.891 8.75419 100.159 8.83167 100.507 8.83167C100.808 8.83167 101.034 8.77128 101.184 8.65052C101.337 8.52747 101.413 8.36569 101.413 8.16516ZM103.037 9.4469V4.47034H104.742C105.305 4.47034 105.733 4.58313 106.027 4.80872C106.321 5.03431 106.468 5.37041 106.468 5.81702C106.468 6.04488 106.407 6.24996 106.284 6.43225C106.161 6.61455 105.981 6.75582 105.744 6.85608C106.013 6.929 106.22 7.06686 106.366 7.26966C106.514 7.47018 106.588 7.71171 106.588 7.99427C106.588 8.46139 106.438 8.82028 106.137 9.07093C105.838 9.32158 105.41 9.4469 104.852 9.4469H103.037ZM103.901 7.2013V8.75647H104.862C105.133 8.75647 105.345 8.68925 105.498 8.55481C105.65 8.42037 105.727 8.23352 105.727 7.99427C105.727 7.47701 105.462 7.21269 104.934 7.2013H103.901ZM103.901 6.56556H104.749C105.018 6.56556 105.228 6.50517 105.378 6.3844C105.531 6.26136 105.607 6.08818 105.607 5.86487C105.607 5.61878 105.536 5.44104 105.395 5.33167C105.256 5.22229 105.038 5.16761 104.742 5.16761H103.901V6.56556ZM108.574 4.47034L110.009 8.28479L111.441 4.47034H112.559V9.4469H111.698V7.80628L111.783 5.61194L110.314 9.4469H109.695L108.229 5.61536L108.314 7.80628V9.4469H107.453V4.47034H108.574ZM12.5494 16.2164L13.315 12.4703H14.1729L13.0245 17.4469H12.1973L11.2505 13.8136L10.2832 17.4469H9.45268L8.30424 12.4703H9.16215L9.93461 16.2096L10.8848 12.4703H11.6094L12.5494 16.2164ZM14.46 15.5636C14.46 15.2013 14.5318 14.8755 14.6753 14.5861C14.8189 14.2944 15.0205 14.0711 15.2803 13.9161C15.5401 13.7589 15.8386 13.6803 16.1758 13.6803C16.6748 13.6803 17.0793 13.8409 17.3892 14.1622C17.7014 14.4835 17.87 14.9096 17.8951 15.4406L17.8985 15.6354C17.8985 16 17.8278 16.3258 17.6866 16.6129C17.5476 16.9 17.347 17.1222 17.085 17.2794C16.8252 17.4366 16.5245 17.5153 16.1827 17.5153C15.6608 17.5153 15.2427 17.3421 14.9283 16.9957C14.6161 16.6471 14.46 16.1834 14.46 15.6046V15.5636ZM15.2906 15.6354C15.2906 16.0159 15.3692 16.3144 15.5264 16.5309C15.6836 16.7451 15.9024 16.8522 16.1827 16.8522C16.4629 16.8522 16.6805 16.7428 16.8355 16.5241C16.9927 16.3053 17.0713 15.9852 17.0713 15.5636C17.0713 15.1899 16.9904 14.8937 16.8287 14.6749C16.6692 14.4562 16.4515 14.3468 16.1758 14.3468C15.9047 14.3468 15.6893 14.455 15.5298 14.6715C15.3703 14.8857 15.2906 15.207 15.2906 15.6354ZM19.3819 13.7487L19.4058 14.1349C19.6656 13.8318 20.021 13.6803 20.4722 13.6803C20.9667 13.6803 21.3051 13.8694 21.4873 14.2477C21.7562 13.8694 22.1345 13.6803 22.6221 13.6803C23.03 13.6803 23.333 13.7931 23.5313 14.0187C23.7318 14.2443 23.8344 14.5769 23.8389 15.0167V17.4469H23.0083V15.0407C23.0083 14.806 22.9571 14.6339 22.8545 14.5245C22.752 14.4152 22.5822 14.3605 22.3453 14.3605C22.1561 14.3605 22.0012 14.4117 21.8804 14.5143C21.7619 14.6145 21.6788 14.7467 21.6309 14.9108L21.6343 17.4469H20.8038V15.0133C20.7924 14.5781 20.5702 14.3605 20.1372 14.3605C19.8046 14.3605 19.5687 14.4961 19.4297 14.7672V17.4469H18.5992V13.7487H19.3819ZM26.3204 17.5153C25.794 17.5153 25.3667 17.3501 25.0386 17.0197C24.7128 16.687 24.5498 16.2449 24.5498 15.6935V15.5909C24.5498 15.2218 24.6205 14.8925 24.7618 14.6032C24.9053 14.3115 25.1058 14.0848 25.3633 13.923C25.6208 13.7612 25.9079 13.6803 26.2247 13.6803C26.7282 13.6803 27.1167 13.8409 27.3902 14.1622C27.6659 14.4835 27.8038 14.9381 27.8038 15.526V15.861H25.3872C25.4123 16.1663 25.5137 16.4078 25.6914 16.5856C25.8715 16.7633 26.097 16.8522 26.3682 16.8522C26.7487 16.8522 27.0586 16.6984 27.2979 16.3908L27.7456 16.818C27.5975 17.039 27.3993 17.2111 27.1509 17.3341C26.9048 17.4549 26.628 17.5153 26.3204 17.5153ZM26.2212 14.3468C25.9934 14.3468 25.8088 14.4266 25.6675 14.5861C25.5285 14.7456 25.4397 14.9677 25.4009 15.2526H26.9834V15.191C26.9652 14.913 26.8912 14.7034 26.7613 14.5621C26.6314 14.4186 26.4514 14.3468 26.2212 14.3468ZM29.2222 13.7487L29.2461 14.1759C29.5196 13.8455 29.8785 13.6803 30.3228 13.6803C31.093 13.6803 31.4849 14.1212 31.4986 15.0031V17.4469H30.668V15.0509C30.668 14.8162 30.6167 14.643 30.5142 14.5314C30.4139 14.4174 30.2487 14.3605 30.0186 14.3605C29.6836 14.3605 29.4341 14.512 29.2701 14.8151V17.4469H28.4395V13.7487H29.2222ZM34.9747 17.4469H34.1441V13.7487H34.9747V17.4469ZM34.0928 12.7882C34.0928 12.6606 34.1327 12.5547 34.2124 12.4703C34.2945 12.386 34.4107 12.3439 34.5611 12.3439C34.7115 12.3439 34.8277 12.386 34.9097 12.4703C34.9917 12.5547 35.0328 12.6606 35.0328 12.7882C35.0328 12.9135 34.9917 13.0184 34.9097 13.1027C34.8277 13.1847 34.7115 13.2257 34.5611 13.2257C34.4107 13.2257 34.2945 13.1847 34.2124 13.1027C34.1327 13.0184 34.0928 12.9135 34.0928 12.7882ZM36.6529 13.7487L36.6768 14.1759C36.9502 13.8455 37.3091 13.6803 37.7535 13.6803C38.5236 13.6803 38.9156 14.1212 38.9292 15.0031V17.4469H38.0987V15.0509C38.0987 14.8162 38.0474 14.643 37.9449 14.5314C37.8446 14.4174 37.6794 14.3605 37.4493 14.3605C37.1143 14.3605 36.8648 14.512 36.7007 14.8151V17.4469H35.8702V13.7487H36.6529ZM44.5108 15.2252H42.4668V16.7565H44.856V17.4469H41.6021V12.4703H44.8321V13.1676H42.4668V14.5416H44.5108V15.2252ZM46.2505 13.7487L46.2745 14.1759C46.5479 13.8455 46.9068 13.6803 47.3511 13.6803C48.1213 13.6803 48.5132 14.1212 48.5269 15.0031V17.4469H47.6963V15.0509C47.6963 14.8162 47.6451 14.643 47.5425 14.5314C47.4423 14.4174 47.2771 14.3605 47.0469 14.3605C46.712 14.3605 46.4624 14.512 46.2984 14.8151V17.4469H45.4678V13.7487H46.2505ZM49.231 15.5704C49.231 14.9962 49.3654 14.5382 49.6343 14.1964C49.9055 13.8523 50.2644 13.6803 50.711 13.6803C51.1325 13.6803 51.4641 13.8273 51.7056 14.1212L51.7432 13.7487H52.4917V17.3341C52.4917 17.8195 52.3402 18.2023 52.0372 18.4825C51.7364 18.7628 51.3296 18.903 50.8169 18.903C50.5458 18.903 50.2803 18.846 50.0205 18.7321C49.7631 18.6204 49.5671 18.4734 49.4327 18.2911L49.8257 17.7921C50.0809 18.0952 50.3954 18.2467 50.7691 18.2467C51.0448 18.2467 51.2624 18.1715 51.4219 18.0211C51.5814 17.873 51.6612 17.6543 51.6612 17.3649V17.1154C51.4219 17.382 51.1029 17.5153 50.7041 17.5153C50.2712 17.5153 49.9169 17.3432 49.6412 16.9991C49.3677 16.6551 49.231 16.1788 49.231 15.5704ZM50.0581 15.6422C50.0581 16.0136 50.1333 16.3064 50.2837 16.5206C50.4364 16.7325 50.6472 16.8385 50.9161 16.8385C51.251 16.8385 51.4994 16.695 51.6612 16.4078V14.7809C51.5039 14.5006 51.2579 14.3605 50.9229 14.3605C50.6495 14.3605 50.4364 14.4687 50.2837 14.6852C50.1333 14.9017 50.0581 15.2207 50.0581 15.6422ZM54.2315 17.4469H53.4009V13.7487H54.2315V17.4469ZM53.3497 12.7882C53.3497 12.6606 53.3895 12.5547 53.4693 12.4703C53.5513 12.386 53.6675 12.3439 53.8179 12.3439C53.9683 12.3439 54.0845 12.386 54.1665 12.4703C54.2486 12.5547 54.2896 12.6606 54.2896 12.7882C54.2896 12.9135 54.2486 13.0184 54.1665 13.1027C54.0845 13.1847 53.9683 13.2257 53.8179 13.2257C53.6675 13.2257 53.5513 13.1847 53.4693 13.1027C53.3895 13.0184 53.3497 12.9135 53.3497 12.7882ZM55.9097 13.7487L55.9336 14.1759C56.2071 13.8455 56.566 13.6803 57.0103 13.6803C57.7805 13.6803 58.1724 14.1212 58.1861 15.0031V17.4469H57.3555V15.0509C57.3555 14.8162 57.3042 14.643 57.2017 14.5314C57.1014 14.4174 56.9362 14.3605 56.7061 14.3605C56.3711 14.3605 56.1216 14.512 55.9576 14.8151V17.4469H55.127V13.7487H55.9097ZM60.6641 17.5153C60.1377 17.5153 59.7105 17.3501 59.3824 17.0197C59.0565 16.687 58.8936 16.2449 58.8936 15.6935V15.5909C58.8936 15.2218 58.9642 14.8925 59.1055 14.6032C59.2491 14.3115 59.4496 14.0848 59.7071 13.923C59.9646 13.7612 60.2517 13.6803 60.5684 13.6803C61.072 13.6803 61.4605 13.8409 61.7339 14.1622C62.0096 14.4835 62.1475 14.9381 62.1475 15.526V15.861H59.731C59.7561 16.1663 59.8575 16.4078 60.0352 16.5856C60.2152 16.7633 60.4408 16.8522 60.712 16.8522C61.0925 16.8522 61.4024 16.6984 61.6416 16.3908L62.0894 16.818C61.9413 17.039 61.743 17.2111 61.4947 17.3341C61.2486 17.4549 60.9717 17.5153 60.6641 17.5153ZM60.565 14.3468C60.3371 14.3468 60.1525 14.4266 60.0113 14.5861C59.8723 14.7456 59.7834 14.9677 59.7447 15.2526H61.3272V15.191C61.309 14.913 61.2349 14.7034 61.105 14.5621C60.9751 14.4186 60.7951 14.3468 60.565 14.3468ZM64.4239 17.5153C63.8975 17.5153 63.4703 17.3501 63.1421 17.0197C62.8163 16.687 62.6534 16.2449 62.6534 15.6935V15.5909C62.6534 15.2218 62.724 14.8925 62.8653 14.6032C63.0088 14.3115 63.2094 14.0848 63.4668 13.923C63.7243 13.7612 64.0114 13.6803 64.3282 13.6803C64.8317 13.6803 65.2203 13.8409 65.4937 14.1622C65.7694 14.4835 65.9073 14.9381 65.9073 15.526V15.861H63.4908C63.5158 16.1663 63.6172 16.4078 63.795 16.5856C63.975 16.7633 64.2006 16.8522 64.4717 16.8522C64.8523 16.8522 65.1622 16.6984 65.4014 16.3908L65.8492 16.818C65.7011 17.039 65.5028 17.2111 65.2544 17.3341C65.0083 17.4549 64.7315 17.5153 64.4239 17.5153ZM64.3247 14.3468C64.0969 14.3468 63.9123 14.4266 63.771 14.5861C63.632 14.7456 63.5432 14.9677 63.5044 15.2526H65.087V15.191C65.0687 14.913 64.9947 14.7034 64.8648 14.5621C64.7349 14.4186 64.5549 14.3468 64.3247 14.3468ZM68.4913 14.5075C68.3819 14.4892 68.2691 14.4801 68.1529 14.4801C67.7723 14.4801 67.516 14.6259 67.3838 14.9176V17.4469H66.5533V13.7487H67.3462L67.3667 14.1622C67.5673 13.8409 67.8453 13.6803 68.2007 13.6803C68.3192 13.6803 68.4172 13.6963 68.4947 13.7282L68.4913 14.5075ZM69.8995 17.4469H69.0689V13.7487H69.8995V17.4469ZM69.0176 12.7882C69.0176 12.6606 69.0575 12.5547 69.1372 12.4703C69.2193 12.386 69.3355 12.3439 69.4859 12.3439C69.6363 12.3439 69.7525 12.386 69.8345 12.4703C69.9165 12.5547 69.9576 12.6606 69.9576 12.7882C69.9576 12.9135 69.9165 13.0184 69.8345 13.1027C69.7525 13.1847 69.6363 13.2257 69.4859 13.2257C69.3355 13.2257 69.2193 13.1847 69.1372 13.1027C69.0575 13.0184 69.0176 12.9135 69.0176 12.7882ZM71.5777 13.7487L71.6016 14.1759C71.875 13.8455 72.2339 13.6803 72.6783 13.6803C73.4484 13.6803 73.8404 14.1212 73.854 15.0031V17.4469H73.0235V15.0509C73.0235 14.8162 72.9722 14.643 72.8697 14.5314C72.7694 14.4174 72.6042 14.3605 72.3741 14.3605C72.0391 14.3605 71.7896 14.512 71.6255 14.8151V17.4469H70.795V13.7487H71.5777ZM74.5581 15.5704C74.5581 14.9962 74.6926 14.5382 74.9615 14.1964C75.2326 13.8523 75.5915 13.6803 76.0381 13.6803C76.4597 13.6803 76.7912 13.8273 77.0328 14.1212L77.0704 13.7487H77.8189V17.3341C77.8189 17.8195 77.6674 18.2023 77.3643 18.4825C77.0635 18.7628 76.6568 18.903 76.1441 18.903C75.8729 18.903 75.6075 18.846 75.3477 18.7321C75.0902 18.6204 74.8942 18.4734 74.7598 18.2911L75.1529 17.7921C75.4081 18.0952 75.7225 18.2467 76.0962 18.2467C76.3719 18.2467 76.5896 18.1715 76.7491 18.0211C76.9086 17.873 76.9883 17.6543 76.9883 17.3649V17.1154C76.7491 17.382 76.4301 17.5153 76.0313 17.5153C75.5983 17.5153 75.244 17.3432 74.9683 16.9991C74.6949 16.6551 74.5581 16.1788 74.5581 15.5704ZM75.3853 15.6422C75.3853 16.0136 75.4605 16.3064 75.6109 16.5206C75.7636 16.7325 75.9743 16.8385 76.2432 16.8385C76.5782 16.8385 76.8265 16.695 76.9883 16.4078V14.7809C76.8311 14.5006 76.585 14.3605 76.25 14.3605C75.9766 14.3605 75.7636 14.4687 75.6109 14.6852C75.4605 14.9017 75.3853 15.2207 75.3853 15.6422ZM83.2842 16.2882H81.3565L80.9532 17.4469H80.0542L81.9341 12.4703H82.71L84.5933 17.4469H83.691L83.2842 16.2882ZM81.5992 15.5909H83.0415L82.3204 13.5265L81.5992 15.5909ZM85.3726 17.4469V14.3639H84.8086V13.7487H85.3726V13.4103C85.3726 13.0001 85.4865 12.6834 85.7144 12.4601C85.9423 12.2368 86.2613 12.1251 86.6714 12.1251C86.8173 12.1251 86.9722 12.1456 87.1363 12.1866L87.1158 12.8361C87.0246 12.8178 86.9187 12.8087 86.7979 12.8087C86.4014 12.8087 86.2032 13.0127 86.2032 13.4205V13.7487H87.4747V13.4957C87.4769 13.2063 87.5385 12.958 87.6592 12.7506C87.78 12.5433 87.9509 12.3872 88.1719 12.2824C88.3929 12.1775 88.6584 12.1251 88.9683 12.1251C89.1506 12.1251 89.3249 12.1445 89.4913 12.1832C89.6599 12.222 89.8342 12.271 90.0142 12.3302L89.8843 13.0172C89.5744 12.9078 89.2885 12.8532 89.0264 12.8532C88.7735 12.8532 88.59 12.909 88.4761 13.0206C88.3622 13.13 88.3052 13.2952 88.3052 13.5162V13.7487H89.0332V14.3639H88.3052V17.4469H87.4747V14.3639H86.2032V17.4469H85.3726ZM90.4073 17.4469H89.5767V13.7487H90.4073V17.4469ZM92.0992 13.7487L92.1231 14.1759C92.3965 13.8455 92.7554 13.6803 93.1997 13.6803C93.9699 13.6803 94.3619 14.1212 94.3755 15.0031V17.4469H93.545V15.0509C93.545 14.8162 93.4937 14.643 93.3912 14.5314C93.2909 14.4174 93.1257 14.3605 92.8955 14.3605C92.5606 14.3605 92.3111 14.512 92.147 14.8151V17.4469H91.3164V13.7487H92.0992ZM96.1084 17.4469H95.2779V13.7487H96.1084V17.4469ZM95.2266 12.7882C95.2266 12.6606 95.2665 12.5547 95.3462 12.4703C95.4283 12.386 95.5445 12.3439 95.6949 12.3439C95.8453 12.3439 95.9615 12.386 96.0435 12.4703C96.1255 12.5547 96.1665 12.6606 96.1665 12.7882C96.1665 12.9135 96.1255 13.0184 96.0435 13.1027C95.9615 13.1847 95.8453 13.2257 95.6949 13.2257C95.5445 13.2257 95.4283 13.1847 95.3462 13.1027C95.2665 13.0184 95.2266 12.9135 95.2266 12.7882ZM98.0567 12.8497V13.7487H98.7095V14.3639H98.0567V16.4283C98.0567 16.5696 98.084 16.6722 98.1387 16.736C98.1957 16.7975 98.2959 16.8283 98.4395 16.8283C98.5352 16.8283 98.632 16.8169 98.73 16.7941V17.4366C98.5409 17.4891 98.3586 17.5153 98.1831 17.5153C97.5451 17.5153 97.2261 17.1632 97.2261 16.4591V14.3639H96.6177V13.7487H97.2261V12.8497H98.0567ZM100.641 16.2575L101.393 13.7487H102.278L100.808 18.0075C100.583 18.6295 100.2 18.9406 99.6597 18.9406C99.5389 18.9406 99.4056 18.92 99.2598 18.879V18.2365L99.417 18.2467C99.6267 18.2467 99.7839 18.208 99.8887 18.1305C99.9958 18.0553 100.08 17.9277 100.142 17.7477L100.261 17.4298L98.9624 13.7487H99.858L100.641 16.2575ZM108.396 16.8009C108.216 17.0356 107.967 17.2133 107.648 17.3341C107.328 17.4549 106.966 17.5153 106.561 17.5153C106.144 17.5153 105.774 17.4207 105.453 17.2316C105.132 17.0424 104.884 16.7724 104.708 16.4215C104.535 16.0683 104.445 15.657 104.438 15.1876V14.798C104.438 14.046 104.618 13.4593 104.978 13.0377C105.338 12.6139 105.841 12.402 106.485 12.402C107.039 12.402 107.479 12.5387 107.805 12.8121C108.131 13.0856 108.327 13.4798 108.393 13.9948H107.545C107.449 13.3955 107.102 13.0958 106.502 13.0958C106.115 13.0958 105.82 13.236 105.617 13.5162C105.417 13.7942 105.313 14.2033 105.306 14.7433V15.1261C105.306 15.6639 105.419 16.082 105.645 16.3805C105.872 16.6767 106.188 16.8248 106.591 16.8248C107.033 16.8248 107.348 16.7246 107.535 16.5241V15.5499H106.509V14.8937H108.396V16.8009ZM111.202 14.5075C111.093 14.4892 110.98 14.4801 110.864 14.4801C110.483 14.4801 110.227 14.6259 110.095 14.9176V17.4469H109.264V13.7487H110.057L110.078 14.1622C110.278 13.8409 110.556 13.6803 110.912 13.6803C111.03 13.6803 111.128 13.6963 111.206 13.7282L111.202 14.5075ZM111.448 15.5636C111.448 15.2013 111.52 14.8755 111.664 14.5861C111.807 14.2944 112.009 14.0711 112.269 13.9161C112.528 13.7589 112.827 13.6803 113.164 13.6803C113.663 13.6803 114.068 13.8409 114.377 14.1622C114.69 14.4835 114.858 14.9096 114.883 15.4406L114.887 15.6354C114.887 16 114.816 16.3258 114.675 16.6129C114.536 16.9 114.335 17.1222 114.073 17.2794C113.814 17.4366 113.513 17.5153 113.171 17.5153C112.649 17.5153 112.231 17.3421 111.917 16.9957C111.604 16.6471 111.448 16.1834 111.448 15.6046V15.5636ZM112.279 15.6354C112.279 16.0159 112.357 16.3144 112.515 16.5309C112.672 16.7451 112.891 16.8522 113.171 16.8522C113.451 16.8522 113.669 16.7428 113.824 16.5241C113.981 16.3053 114.06 15.9852 114.06 15.5636C114.06 15.1899 113.979 14.8937 113.817 14.6749C113.657 14.4562 113.44 14.3468 113.164 14.3468C112.893 14.3468 112.678 14.455 112.518 14.6715C112.359 14.8857 112.279 15.207 112.279 15.6354ZM117.83 17.0846C117.586 17.3717 117.239 17.5153 116.791 17.5153C116.39 17.5153 116.085 17.3979 115.878 17.1632C115.673 16.9285 115.57 16.589 115.57 16.1447V13.7487H116.401V16.1344C116.401 16.6038 116.596 16.8385 116.985 16.8385C117.389 16.8385 117.661 16.6938 117.802 16.4044V13.7487H118.633V17.4469H117.85L117.83 17.0846ZM122.717 15.6354C122.717 16.2073 122.587 16.6642 122.328 17.006C122.068 17.3455 121.719 17.5153 121.282 17.5153C120.876 17.5153 120.551 17.382 120.308 17.1154V18.8688H119.477V13.7487H120.243L120.277 14.1246C120.521 13.8284 120.852 13.6803 121.272 13.6803C121.723 13.6803 122.076 13.8489 122.331 14.1862C122.589 14.5211 122.717 14.9871 122.717 15.5841V15.6354ZM121.89 15.5636C121.89 15.1945 121.816 14.9017 121.668 14.6852C121.522 14.4687 121.313 14.3605 121.039 14.3605C120.7 14.3605 120.456 14.5006 120.308 14.7809V16.4215C120.458 16.7086 120.704 16.8522 121.046 16.8522C121.31 16.8522 121.516 16.7462 121.665 16.5343C121.815 16.3201 121.89 15.9965 121.89 15.5636ZM123.493 13.9469L123.069 13.6837C123.274 13.3852 123.38 13.0696 123.387 12.7369V12.1969H124.115V12.6686C124.115 12.9033 124.055 13.1403 123.934 13.3795C123.816 13.6165 123.669 13.8056 123.493 13.9469ZM126.118 16.442C126.118 16.2939 126.057 16.1811 125.934 16.1036C125.813 16.0262 125.611 15.9578 125.329 15.8986C125.046 15.8393 124.81 15.7641 124.621 15.673C124.206 15.4725 123.999 15.1819 123.999 14.8014C123.999 14.4824 124.134 14.2158 124.402 14.0016C124.671 13.7874 125.013 13.6803 125.428 13.6803C125.87 13.6803 126.226 13.7897 126.498 14.0084C126.771 14.2272 126.908 14.5109 126.908 14.8595H126.077C126.077 14.7 126.018 14.5678 125.899 14.463C125.781 14.3559 125.624 14.3024 125.428 14.3024C125.245 14.3024 125.096 14.3445 124.98 14.4288C124.866 14.5131 124.809 14.6259 124.809 14.7672C124.809 14.8948 124.863 14.9939 124.97 15.0646C125.077 15.1352 125.293 15.207 125.619 15.2799C125.945 15.3505 126.2 15.436 126.385 15.5363C126.572 15.6342 126.71 15.7527 126.798 15.8917C126.89 16.0307 126.935 16.1993 126.935 16.3976C126.935 16.7303 126.797 17.0003 126.522 17.2076C126.246 17.4127 125.885 17.5153 125.438 17.5153C125.135 17.5153 124.865 17.4606 124.628 17.3512C124.391 17.2418 124.206 17.0914 124.074 16.9C123.942 16.7086 123.876 16.5024 123.876 16.2814H124.683C124.694 16.4773 124.768 16.6289 124.905 16.736C125.042 16.8408 125.223 16.8932 125.448 16.8932C125.667 16.8932 125.833 16.8522 125.947 16.7701C126.061 16.6858 126.118 16.5765 126.118 16.442ZM133.388 16.2164L134.154 12.4703H135.012L133.863 17.4469H133.036L132.089 13.8136L131.122 17.4469H130.292L129.143 12.4703H130.001L130.773 16.2096L131.724 12.4703H132.448L133.388 16.2164ZM137.083 17.5153C136.557 17.5153 136.129 17.3501 135.801 17.0197C135.475 16.687 135.313 16.2449 135.313 15.6935V15.5909C135.313 15.2218 135.383 14.8925 135.524 14.6032C135.668 14.3115 135.869 14.0848 136.126 13.923C136.384 13.7612 136.671 13.6803 136.987 13.6803C137.491 13.6803 137.879 13.8409 138.153 14.1622C138.429 14.4835 138.566 14.9381 138.566 15.526V15.861H136.15C136.175 16.1663 136.276 16.4078 136.454 16.5856C136.634 16.7633 136.86 16.8522 137.131 16.8522C137.511 16.8522 137.821 16.6984 138.061 16.3908L138.508 16.818C138.36 17.039 138.162 17.2111 137.914 17.3341C137.668 17.4549 137.391 17.5153 137.083 17.5153ZM136.984 14.3468C136.756 14.3468 136.571 14.4266 136.43 14.5861C136.291 14.7456 136.202 14.9677 136.164 15.2526H137.746V15.191C137.728 14.913 137.654 14.7034 137.524 14.5621C137.394 14.4186 137.214 14.3468 136.984 14.3468ZM142.46 15.6354C142.46 16.2096 142.331 16.6665 142.073 17.006C141.818 17.3455 141.466 17.5153 141.017 17.5153C140.584 17.5153 140.247 17.3592 140.005 17.047L139.964 17.4469H139.212V12.1969H140.043V14.1041C140.282 13.8216 140.605 13.6803 141.01 13.6803C141.461 13.6803 141.816 13.8478 142.073 14.1827C142.331 14.5177 142.46 14.986 142.46 15.5875V15.6354ZM141.629 15.5636C141.629 15.1626 141.558 14.8618 141.417 14.6613C141.276 14.4607 141.071 14.3605 140.802 14.3605C140.442 14.3605 140.189 14.5177 140.043 14.8322V16.3566C140.191 16.6779 140.446 16.8385 140.809 16.8385C141.068 16.8385 141.269 16.7417 141.41 16.548C141.551 16.3543 141.624 16.0615 141.629 15.6696V15.5636ZM145.231 16.442C145.231 16.2939 145.17 16.1811 145.047 16.1036C144.926 16.0262 144.724 15.9578 144.442 15.8986C144.159 15.8393 143.924 15.7641 143.734 15.673C143.32 15.4725 143.112 15.1819 143.112 14.8014C143.112 14.4824 143.247 14.2158 143.516 14.0016C143.785 13.7874 144.126 13.6803 144.541 13.6803C144.983 13.6803 145.34 13.7897 145.611 14.0084C145.884 14.2272 146.021 14.5109 146.021 14.8595H145.19C145.19 14.7 145.131 14.5678 145.013 14.463C144.894 14.3559 144.737 14.3024 144.541 14.3024C144.359 14.3024 144.21 14.3445 144.093 14.4288C143.979 14.5131 143.922 14.6259 143.922 14.7672C143.922 14.8948 143.976 14.9939 144.083 15.0646C144.19 15.1352 144.407 15.207 144.732 15.2799C145.058 15.3505 145.314 15.436 145.498 15.5363C145.685 15.6342 145.823 15.7527 145.912 15.8917C146.003 16.0307 146.048 16.1993 146.048 16.3976C146.048 16.7303 145.911 17.0003 145.635 17.2076C145.359 17.4127 144.998 17.5153 144.551 17.5153C144.248 17.5153 143.978 17.4606 143.741 17.3512C143.504 17.2418 143.32 17.0914 143.188 16.9C143.055 16.7086 142.989 16.5024 142.989 16.2814H143.796C143.807 16.4773 143.881 16.6289 144.018 16.736C144.155 16.8408 144.336 16.8932 144.562 16.8932C144.78 16.8932 144.947 16.8522 145.061 16.7701C145.175 16.6858 145.231 16.5765 145.231 16.442ZM147.658 17.4469H146.828V13.7487H147.658V17.4469ZM146.776 12.7882C146.776 12.6606 146.816 12.5547 146.896 12.4703C146.978 12.386 147.094 12.3439 147.245 12.3439C147.395 12.3439 147.511 12.386 147.593 12.4703C147.675 12.5547 147.716 12.6606 147.716 12.7882C147.716 12.9135 147.675 13.0184 147.593 13.1027C147.511 13.1847 147.395 13.2257 147.245 13.2257C147.094 13.2257 146.978 13.1847 146.896 13.1027C146.816 13.0184 146.776 12.9135 146.776 12.7882ZM149.606 12.8497V13.7487H150.259V14.3639H149.606V16.4283C149.606 16.5696 149.634 16.6722 149.689 16.736C149.745 16.7975 149.846 16.8283 149.989 16.8283C150.085 16.8283 150.182 16.8169 150.28 16.7941V17.4366C150.091 17.4891 149.908 17.5153 149.733 17.5153C149.095 17.5153 148.776 17.1632 148.776 16.4591V14.3639H148.168V13.7487H148.776V12.8497H149.606ZM152.525 17.5153C151.999 17.5153 151.572 17.3501 151.244 17.0197C150.918 16.687 150.755 16.2449 150.755 15.6935V15.5909C150.755 15.2218 150.826 14.8925 150.967 14.6032C151.11 14.3115 151.311 14.0848 151.568 13.923C151.826 13.7612 152.113 13.6803 152.43 13.6803C152.933 13.6803 153.322 13.8409 153.595 14.1622C153.871 14.4835 154.009 14.9381 154.009 15.526V15.861H151.592C151.617 16.1663 151.719 16.4078 151.897 16.5856C152.077 16.7633 152.302 16.8522 152.573 16.8522C152.954 16.8522 153.264 16.6984 153.503 16.3908L153.951 16.818C153.803 17.039 153.604 17.2111 153.356 17.3341C153.11 17.4549 152.833 17.5153 152.525 17.5153ZM152.426 14.3468C152.198 14.3468 152.014 14.4266 151.873 14.5861C151.734 14.7456 151.645 14.9677 151.606 15.2526H153.189V15.191C153.17 14.913 153.096 14.7034 152.966 14.5621C152.836 14.4186 152.656 14.3468 152.426 14.3468Z" fill="white"/>
<line x1="1.5843e-08" y1="20.0443" x2="166" y2="20.0443" stroke="#BFFBDE" stroke-width="2"/>
<path d="M80.4168 30.6852C80.3666 31.2161 80.1707 31.6308 79.8289 31.9293C79.4871 32.2256 79.0325 32.3737 78.4651 32.3737C78.0686 32.3737 77.7188 32.2802 77.4158 32.0934C77.115 31.9043 76.8826 31.6365 76.7185 31.2902C76.5545 30.9438 76.469 30.5416 76.4622 30.0836V29.6188C76.4622 29.1494 76.5453 28.7358 76.7117 28.3781C76.878 28.0203 77.1161 27.7446 77.426 27.5509C77.7382 27.3572 78.0982 27.2604 78.5061 27.2604C79.0553 27.2604 79.4973 27.4096 79.8323 27.7081C80.1673 28.0066 80.3621 28.4282 80.4168 28.9728H79.5554C79.5144 28.615 79.4096 28.3576 79.241 28.2003C79.0746 28.0408 78.8297 27.9611 78.5061 27.9611C78.1301 27.9611 77.8408 28.0989 77.638 28.3746C77.4374 28.6481 77.3349 29.0503 77.3303 29.5812V30.0221C77.3303 30.5599 77.426 30.97 77.6174 31.2526C77.8111 31.5351 78.0937 31.6764 78.4651 31.6764C78.8046 31.6764 79.0598 31.6001 79.2307 31.4474C79.4016 31.2947 79.5099 31.0407 79.5554 30.6852H80.4168ZM81.9959 32.3053H81.1653V27.0553H81.9959V32.3053ZM83.7869 32.3053H82.9563V28.6071H83.7869V32.3053ZM82.905 27.6466C82.905 27.519 82.9449 27.4131 83.0247 27.3288C83.1067 27.2444 83.2229 27.2023 83.3733 27.2023C83.5237 27.2023 83.6399 27.2444 83.7219 27.3288C83.804 27.4131 83.845 27.519 83.845 27.6466C83.845 27.7719 83.804 27.8768 83.7219 27.9611C83.6399 28.0431 83.5237 28.0841 83.3733 28.0841C83.2229 28.0841 83.1067 28.0431 83.0247 27.9611C82.9449 27.8768 82.905 27.7719 82.905 27.6466ZM86.2136 31.7106C86.421 31.7106 86.593 31.6502 86.7298 31.5294C86.8665 31.4087 86.9394 31.2594 86.9485 31.0817H87.7312C87.7221 31.3118 87.6503 31.5272 87.5159 31.7277C87.3814 31.9259 87.1992 32.0831 86.969 32.1994C86.7389 32.3156 86.4905 32.3737 86.2239 32.3737C85.7066 32.3737 85.2965 32.2062 84.9934 31.8712C84.6904 31.5363 84.5388 31.0737 84.5388 30.4835V30.3981C84.5388 29.8353 84.6892 29.3852 84.99 29.048C85.2908 28.7085 85.7009 28.5387 86.2205 28.5387C86.6603 28.5387 87.018 28.6675 87.2937 28.9249C87.5717 29.1802 87.7175 29.5163 87.7312 29.9332H86.9485C86.9394 29.7213 86.8665 29.547 86.7298 29.4103C86.5953 29.2736 86.4233 29.2052 86.2136 29.2052C85.9448 29.2052 85.7374 29.3032 85.5916 29.4992C85.4457 29.6928 85.3717 29.9879 85.3694 30.3844V30.5177C85.3694 30.9188 85.4412 31.2184 85.5847 31.4166C85.7306 31.6126 85.9402 31.7106 86.2136 31.7106ZM89.5598 30.7194L89.1907 31.0988V32.3053H88.3601V27.0553H89.1907V30.0836L89.4505 29.7589L90.4724 28.6071H91.4705L90.0965 30.1486L91.6174 32.3053H90.657L89.5598 30.7194ZM92.8958 30.839H92.1814L92.1028 27.3288H92.9778L92.8958 30.839ZM92.0789 31.9122C92.0789 31.7824 92.121 31.6753 92.2053 31.591C92.2896 31.5044 92.4047 31.4611 92.5506 31.4611C92.6964 31.4611 92.8115 31.5044 92.8958 31.591C92.9801 31.6753 93.0222 31.7824 93.0222 31.9122C93.0222 32.0376 92.9812 32.1424 92.8992 32.2267C92.8172 32.311 92.7009 32.3532 92.5506 32.3532C92.4002 32.3532 92.284 32.311 92.2019 32.2267C92.1199 32.1424 92.0789 32.0376 92.0789 31.9122Z" fill="white"/>
<g filter="url(#filter1_d)">
<rect x="68.821" y="22.8141" width="30.8952" height="14.6018" rx="7.30089" stroke="#8AD4B5"/>
</g>
</g>
<defs>
<filter id="filter0_i" x="0" y="0" width="166" height="45" filterUnits="userSpaceOnUse" color-interpolation-filters="sRGB">
<feFlood flood-opacity="0" result="BackgroundImageFix"/>
<feBlend mode="normal" in="SourceGraphic" in2="BackgroundImageFix" result="shape"/>
<feColorMatrix in="SourceAlpha" type="matrix" values="0 0 0 0 0 0 0 0 0 0 0 0 0 0 0 0 0 0 127 0" result="hardAlpha"/>
<feOffset dy="4"/>
<feGaussianBlur stdDeviation="2"/>
<feComposite in2="hardAlpha" operator="arithmetic" k2="-1" k3="1"/>
<feColorMatrix type="matrix" values="0 0 0 0 0 0 0 0 0 0 0 0 0 0 0 0 0 0 0.25 0"/>
<feBlend mode="normal" in2="shape" result="effect1_innerShadow"/>
</filter>
<filter id="filter1_d" x="64.321" y="22.3141" width="39.8952" height="23.6018" filterUnits="userSpaceOnUse" color-interpolation-filters="sRGB">
<feFlood flood-opacity="0" result="BackgroundImageFix"/>
<feColorMatrix in="SourceAlpha" type="matrix" values="0 0 0 0 0 0 0 0 0 0 0 0 0 0 0 0 0 0 127 0" result="hardAlpha"/>
<feOffset dy="4"/>
<feGaussianBlur stdDeviation="2"/>
<feColorMatrix type="matrix" values="0 0 0 0 0 0 0 0 0 0 0 0 0 0 0 0 0 0 0.25 0"/>
<feBlend mode="normal" in2="BackgroundImageFix" result="effect1_dropShadow"/>
<feBlend mode="normal" in="SourceGraphic" in2="effect1_dropShadow" result="shape"/>
</filter>
</defs>
</svg>
