<svg width="256" height="66" viewBox="0 0 256 66" fill="none" xmlns="http://www.w3.org/2000/svg">
<g filter="url(#filter0_i)">
<rect width="256" height="62" rx="31" fill="#17625D"/>
<path d="M82.8933 12.4546L83.9871 7.10305H85.2127L83.572 14.2124H82.3904L81.0378 9.022L79.656 14.2124H78.4695L76.8289 7.10305H78.0545L79.158 12.4448L80.5154 7.10305H81.5505L82.8933 12.4546ZM85.6228 11.522C85.6228 11.0044 85.7253 10.5389 85.9304 10.1255C86.1355 9.70884 86.4236 9.38983 86.7947 9.16848C87.1658 8.94387 87.5922 8.83157 88.074 8.83157C88.7869 8.83157 89.3647 9.06106 89.8074 9.52004C90.2533 9.97903 90.4942 10.5878 90.53 11.3462L90.5349 11.6245C90.5349 12.1454 90.434 12.6109 90.2322 13.021C90.0336 13.4312 89.7472 13.7486 89.3728 13.9732C89.0017 14.1978 88.572 14.3101 88.0837 14.3101C87.3383 14.3101 86.741 14.0627 86.2918 13.5679C85.8458 13.0698 85.6228 12.4074 85.6228 11.5806V11.522ZM86.8093 11.6245C86.8093 12.1682 86.9216 12.5946 87.1462 12.9038C87.3709 13.2098 87.6834 13.3628 88.0837 13.3628C88.4841 13.3628 88.795 13.2066 89.0164 12.8941C89.241 12.5816 89.3533 12.1242 89.3533 11.522C89.3533 10.9881 89.2377 10.565 89.0066 10.2525C88.7787 9.93996 88.4679 9.78371 88.074 9.78371C87.6866 9.78371 87.379 9.93834 87.1511 10.2476C86.9233 10.5536 86.8093 11.0126 86.8093 11.6245ZM94.3045 10.0132C94.1482 9.98716 93.9871 9.97414 93.8211 9.97414C93.2774 9.97414 92.9112 10.1825 92.7224 10.5991V14.2124H91.5359V8.92922H92.6687L92.698 9.52004C92.9845 9.06106 93.3816 8.83157 93.8894 8.83157C94.0587 8.83157 94.1987 8.85435 94.3093 8.89993L94.3045 10.0132ZM96.7703 11.9468L96.2429 12.4888V14.2124H95.0564V6.71243H96.2429V11.0386L96.614 10.5747L98.074 8.92922H99.4998L97.5369 11.1314L99.7097 14.2124H98.3377L96.7703 11.9468ZM102.508 14.3101C101.756 14.3101 101.145 14.0741 100.677 13.6021C100.211 13.1268 99.9783 12.4953 99.9783 11.7075V11.5611C99.9783 11.0337 100.079 10.5633 100.281 10.1499C100.486 9.73326 100.773 9.40937 101.14 9.17825C101.508 8.94713 101.918 8.83157 102.371 8.83157C103.09 8.83157 103.645 9.06106 104.036 9.52004C104.43 9.97903 104.627 10.6284 104.627 11.4683V11.9468H101.175C101.21 12.383 101.355 12.7281 101.609 12.982C101.866 13.2359 102.189 13.3628 102.576 13.3628C103.12 13.3628 103.562 13.1431 103.904 12.7036L104.544 13.314C104.332 13.6297 104.049 13.8755 103.694 14.0513C103.343 14.2238 102.947 14.3101 102.508 14.3101ZM102.366 9.78371C102.04 9.78371 101.777 9.89765 101.575 10.1255C101.376 10.3534 101.249 10.6708 101.194 11.0777H103.455V10.9898C103.429 10.5926 103.323 10.2932 103.137 10.0913C102.952 9.88625 102.695 9.78371 102.366 9.78371ZM105.33 11.5318C105.33 10.718 105.519 10.0653 105.896 9.57375C106.274 9.07896 106.78 8.83157 107.415 8.83157C107.975 8.83157 108.427 9.02688 108.772 9.4175V6.71243H109.959V14.2124H108.885L108.826 13.6656C108.471 14.0952 107.997 14.3101 107.405 14.3101C106.787 14.3101 106.285 14.0611 105.901 13.563C105.52 13.065 105.33 12.3879 105.33 11.5318ZM106.516 11.6343C106.516 12.1714 106.619 12.5913 106.824 12.8941C107.032 13.1935 107.327 13.3433 107.708 13.3433C108.193 13.3433 108.548 13.1268 108.772 12.6939V10.438C108.554 10.0148 108.203 9.80325 107.718 9.80325C107.333 9.80325 107.037 9.95624 106.829 10.2622C106.621 10.565 106.516 11.0223 106.516 11.6343ZM113.465 11.522C113.465 11.0044 113.567 10.5389 113.772 10.1255C113.977 9.70884 114.265 9.38983 114.636 9.16848C115.008 8.94387 115.434 8.83157 115.916 8.83157C116.629 8.83157 117.206 9.06106 117.649 9.52004C118.095 9.97903 118.336 10.5878 118.372 11.3462L118.377 11.6245C118.377 12.1454 118.276 12.6109 118.074 13.021C117.875 13.4312 117.589 13.7486 117.215 13.9732C116.844 14.1978 116.414 14.3101 115.926 14.3101C115.18 14.3101 114.583 14.0627 114.134 13.5679C113.688 13.0698 113.465 12.4074 113.465 11.5806V11.522ZM114.651 11.6245C114.651 12.1682 114.763 12.5946 114.988 12.9038C115.213 13.2098 115.525 13.3628 115.926 13.3628C116.326 13.3628 116.637 13.2066 116.858 12.8941C117.083 12.5816 117.195 12.1242 117.195 11.522C117.195 10.9881 117.08 10.565 116.848 10.2525C116.621 9.93996 116.31 9.78371 115.916 9.78371C115.528 9.78371 115.221 9.93834 114.993 10.2476C114.765 10.5536 114.651 11.0126 114.651 11.6245ZM120.481 8.92922L120.515 9.53957C120.906 9.06757 121.419 8.83157 122.053 8.83157C123.154 8.83157 123.714 9.46145 123.733 10.7212V14.2124H122.547V10.7896C122.547 10.4543 122.473 10.2069 122.327 10.0474C122.184 9.88463 121.948 9.80325 121.619 9.80325C121.14 9.80325 120.784 10.0197 120.55 10.4527V14.2124H119.363V8.92922H120.481ZM128.855 14.2124H127.625V7.10305H128.855V14.2124ZM134.529 11.0386H131.609V13.2261H135.022V14.2124H130.374V7.10305H134.988V8.09914H131.609V10.062H134.529V11.0386ZM140.183 11.0386H137.263V13.2261H140.677V14.2124H136.028V7.10305H140.642V8.09914H137.263V10.062H140.183V11.0386ZM145.838 11.0386H142.918V13.2261H146.331V14.2124H141.682V7.10305H146.297V8.09914H142.918V10.062H145.838V11.0386ZM153.543 12.3814C153.543 12.0689 153.432 11.828 153.211 11.6587C152.993 11.4894 152.597 11.3185 152.024 11.146C151.451 10.9735 150.996 10.7814 150.657 10.5698C150.009 10.1629 149.685 9.63235 149.685 8.97805C149.685 8.40513 149.918 7.93313 150.384 7.56203C150.852 7.19094 151.459 7.00539 152.205 7.00539C152.7 7.00539 153.141 7.09654 153.528 7.27883C153.915 7.46112 154.22 7.72154 154.441 8.06008C154.663 8.39537 154.773 8.76809 154.773 9.17825H153.543C153.543 8.80715 153.426 8.51744 153.191 8.3091C152.96 8.09752 152.628 7.99172 152.195 7.99172C151.791 7.99172 151.477 8.07799 151.253 8.25051C151.031 8.42304 150.921 8.66392 150.921 8.97317C150.921 9.23358 151.041 9.45168 151.282 9.62746C151.523 9.79999 151.92 9.96926 152.473 10.1353C153.027 10.298 153.471 10.4852 153.806 10.6968C154.142 10.9051 154.387 11.146 154.544 11.4195C154.7 11.6896 154.778 12.007 154.778 12.3716C154.778 12.9641 154.55 13.4361 154.094 13.7876C153.642 14.1359 153.027 14.3101 152.249 14.3101C151.734 14.3101 151.261 14.2157 150.828 14.0269C150.398 13.8348 150.063 13.5711 149.822 13.2359C149.584 12.9006 149.466 12.51 149.466 12.064H150.701C150.701 12.4676 150.834 12.7801 151.101 13.0015C151.368 13.2228 151.751 13.3335 152.249 13.3335C152.678 13.3335 153.001 13.2473 153.216 13.0747C153.434 12.8989 153.543 12.6678 153.543 12.3814ZM155.862 14.2124V7.10305H158.299C159.103 7.10305 159.715 7.26418 160.135 7.58645C160.554 7.90871 160.764 8.38886 160.764 9.02688C160.764 9.3524 160.677 9.64537 160.501 9.90578C160.325 10.1662 160.068 10.368 159.729 10.5113C160.113 10.6154 160.41 10.8124 160.618 11.1021C160.83 11.3885 160.935 11.7336 160.935 12.1372C160.935 12.8045 160.72 13.3172 160.291 13.6753C159.864 14.0334 159.252 14.2124 158.455 14.2124H155.862ZM157.097 11.0044V13.2261H158.469C158.857 13.2261 159.16 13.1301 159.378 12.938C159.596 12.746 159.705 12.479 159.705 12.1372C159.705 11.3983 159.327 11.0207 158.572 11.0044H157.097ZM157.097 10.0962H158.308C158.692 10.0962 158.992 10.01 159.207 9.83743C159.425 9.66164 159.534 9.41425 159.534 9.09524C159.534 8.74368 159.433 8.48977 159.231 8.33352C159.033 8.17727 158.722 8.09914 158.299 8.09914H157.097V10.0962ZM163.772 7.10305L165.823 12.5523L167.869 7.10305H169.466V14.2124H168.235V11.8687L168.357 8.73391L166.258 14.2124H165.374L163.279 8.73879L163.401 11.8687V14.2124H162.171V7.10305H163.772ZM26.5945 24.4546L27.6882 19.1031H28.9138L27.2732 26.2124H26.0916L24.739 21.022L23.3572 26.2124H22.1707L20.53 19.1031H21.7556L22.8591 24.4448L24.2166 19.1031H25.2517L26.5945 24.4546ZM29.324 23.522C29.324 23.0044 29.4265 22.5389 29.6316 22.1255C29.8367 21.7088 30.1248 21.3898 30.4959 21.1685C30.867 20.9439 31.2934 20.8316 31.7752 20.8316C32.488 20.8316 33.0658 21.0611 33.5086 21.52C33.9545 21.979 34.1954 22.5878 34.2312 23.3462L34.2361 23.6245C34.2361 24.1454 34.1352 24.6109 33.9334 25.021C33.7348 25.4312 33.4483 25.7486 33.074 25.9732C32.7029 26.1978 32.2732 26.3101 31.7849 26.3101C31.0395 26.3101 30.4421 26.0627 29.9929 25.5679C29.547 25.0698 29.324 24.4074 29.324 23.5806V23.522ZM30.5105 23.6245C30.5105 24.1682 30.6228 24.5946 30.8474 24.9038C31.072 25.2098 31.3845 25.3628 31.7849 25.3628C32.1853 25.3628 32.4962 25.2066 32.7175 24.8941C32.9421 24.5816 33.0545 24.1242 33.0545 23.522C33.0545 22.9881 32.9389 22.565 32.7078 22.2525C32.4799 21.94 32.169 21.7837 31.7752 21.7837C31.3878 21.7837 31.0802 21.9383 30.8523 22.2476C30.6244 22.5536 30.5105 23.0126 30.5105 23.6245ZM36.3552 20.9292L36.3894 21.481C36.7605 21.048 37.2683 20.8316 37.9128 20.8316C38.6192 20.8316 39.1026 21.1017 39.363 21.6421C39.7472 21.1017 40.2875 20.8316 40.9841 20.8316C41.5668 20.8316 41.9998 20.9927 42.283 21.315C42.5694 21.6372 42.7159 22.1125 42.7224 22.7407V26.2124H41.5359V22.7749C41.5359 22.4396 41.4627 22.1939 41.3162 22.0376C41.1697 21.8814 40.9272 21.8032 40.5886 21.8032C40.3184 21.8032 40.0971 21.8765 39.9246 22.023C39.7553 22.1662 39.6365 22.355 39.5681 22.5894L39.573 26.2124H38.3865V22.7359C38.3702 22.1141 38.0528 21.8032 37.4343 21.8032C36.9591 21.8032 36.6222 21.9969 36.4236 22.3843V26.2124H35.2371V20.9292H36.3552ZM46.2673 26.3101C45.5154 26.3101 44.905 26.0741 44.4363 25.6021C43.9708 25.1268 43.738 24.4953 43.738 23.7075V23.5611C43.738 23.0337 43.839 22.5633 44.0408 22.1499C44.2459 21.7333 44.5323 21.4094 44.9002 21.1782C45.268 20.9471 45.6781 20.8316 46.1306 20.8316C46.85 20.8316 47.405 21.0611 47.7957 21.52C48.1895 21.979 48.3865 22.6284 48.3865 23.4683V23.9468H44.9343C44.9701 24.383 45.115 24.7281 45.3689 24.982C45.6261 25.2359 45.9483 25.3628 46.3357 25.3628C46.8793 25.3628 47.322 25.1431 47.6638 24.7036L48.3035 25.314C48.0919 25.6297 47.8087 25.8755 47.4539 26.0513C47.1023 26.2238 46.7068 26.3101 46.2673 26.3101ZM46.1257 21.7837C45.8002 21.7837 45.5365 21.8976 45.3347 22.1255C45.1362 22.3534 45.0092 22.6708 44.9539 23.0777H47.2146V22.9898C47.1886 22.5926 47.0828 22.2932 46.8972 22.0913C46.7117 21.8863 46.4545 21.7837 46.1257 21.7837ZM50.4128 20.9292L50.447 21.5396C50.8377 21.0676 51.3503 20.8316 51.9851 20.8316C53.0854 20.8316 53.6453 21.4614 53.6648 22.7212V26.2124H52.4783V22.7896C52.4783 22.4543 52.405 22.2069 52.2586 22.0474C52.1153 21.8846 51.8793 21.8032 51.5505 21.8032C51.072 21.8032 50.7156 22.0197 50.4812 22.4527V26.2124H49.2947V20.9292H50.4128ZM58.6306 26.2124H57.4441V20.9292H58.6306V26.2124ZM57.3709 19.5572C57.3709 19.3749 57.4278 19.2235 57.5418 19.1031C57.6589 18.9826 57.825 18.9224 58.0398 18.9224C58.2546 18.9224 58.4207 18.9826 58.5378 19.1031C58.655 19.2235 58.7136 19.3749 58.7136 19.5572C58.7136 19.7362 58.655 19.8859 58.5378 20.0064C58.4207 20.1236 58.2546 20.1822 58.0398 20.1822C57.825 20.1822 57.6589 20.1236 57.5418 20.0064C57.4278 19.8859 57.3709 19.7362 57.3709 19.5572ZM61.0281 20.9292L61.0623 21.5396C61.4529 21.0676 61.9656 20.8316 62.6003 20.8316C63.7006 20.8316 64.2605 21.4614 64.28 22.7212V26.2124H63.0935V22.7896C63.0935 22.4543 63.0203 22.2069 62.8738 22.0474C62.7306 21.8846 62.4946 21.8032 62.1658 21.8032C61.6873 21.8032 61.3308 22.0197 61.0964 22.4527V26.2124H59.9099V20.9292H61.0281ZM72.2537 23.0386H69.3337V25.2261H72.7468V26.2124H68.0984V19.1031H72.7127V20.0991H69.3337V22.062H72.2537V23.0386ZM74.739 20.9292L74.7732 21.5396C75.1638 21.0676 75.6765 20.8316 76.3113 20.8316C77.4115 20.8316 77.9714 21.4614 77.991 22.7212V26.2124H76.8045V22.7896C76.8045 22.4543 76.7312 22.2069 76.5847 22.0474C76.4415 21.8846 76.2055 21.8032 75.8767 21.8032C75.3982 21.8032 75.0418 22.0197 74.8074 22.4527V26.2124H73.6209V20.9292H74.739ZM78.9968 23.5318C78.9968 22.7114 79.1889 22.0572 79.573 21.5689C79.9604 21.0773 80.4731 20.8316 81.1111 20.8316C81.7133 20.8316 82.1869 21.0415 82.532 21.4614L82.5857 20.9292H83.655V26.0513C83.655 26.7447 83.4386 27.2915 83.0056 27.6919C82.5759 28.0923 81.9949 28.2925 81.2625 28.2925C80.8751 28.2925 80.4959 28.2111 80.1248 28.0484C79.7569 27.8889 79.477 27.6789 79.2849 27.4185L79.8464 26.7056C80.211 27.1385 80.6602 27.355 81.1941 27.355C81.588 27.355 81.8989 27.2476 82.1267 27.0327C82.3546 26.8211 82.4685 26.5086 82.4685 26.0952V25.7388C82.1267 26.1197 81.671 26.3101 81.1013 26.3101C80.4828 26.3101 79.9767 26.0643 79.5828 25.5728C79.1921 25.0812 78.9968 24.4009 78.9968 23.5318ZM80.1785 23.6343C80.1785 24.1649 80.2859 24.5832 80.5007 24.8892C80.7188 25.1919 81.0199 25.3433 81.4041 25.3433C81.8826 25.3433 82.2374 25.1382 82.4685 24.7281V22.4038C82.2439 22.0034 81.8923 21.8032 81.4138 21.8032C81.0232 21.8032 80.7188 21.9579 80.5007 22.2671C80.2859 22.5764 80.1785 23.0321 80.1785 23.6343ZM86.1404 26.2124H84.9539V20.9292H86.1404V26.2124ZM84.8806 19.5572C84.8806 19.3749 84.9376 19.2235 85.0515 19.1031C85.1687 18.9826 85.3347 18.9224 85.5496 18.9224C85.7644 18.9224 85.9304 18.9826 86.0476 19.1031C86.1648 19.2235 86.2234 19.3749 86.2234 19.5572C86.2234 19.7362 86.1648 19.8859 86.0476 20.0064C85.9304 20.1236 85.7644 20.1822 85.5496 20.1822C85.3347 20.1822 85.1687 20.1236 85.0515 20.0064C84.9376 19.8859 84.8806 19.7362 84.8806 19.5572ZM88.5378 20.9292L88.572 21.5396C88.9627 21.0676 89.4753 20.8316 90.1101 20.8316C91.2104 20.8316 91.7703 21.4614 91.7898 22.7212V26.2124H90.6033V22.7896C90.6033 22.4543 90.53 22.2069 90.3836 22.0474C90.2403 21.8846 90.0043 21.8032 89.6755 21.8032C89.197 21.8032 88.8406 22.0197 88.6062 22.4527V26.2124H87.4197V20.9292H88.5378ZM95.3298 26.3101C94.5779 26.3101 93.9675 26.0741 93.4988 25.6021C93.0333 25.1268 92.8005 24.4953 92.8005 23.7075V23.5611C92.8005 23.0337 92.9015 22.5633 93.1033 22.1499C93.3084 21.7333 93.5948 21.4094 93.9627 21.1782C94.3305 20.9471 94.7406 20.8316 95.1931 20.8316C95.9125 20.8316 96.4675 21.0611 96.8582 21.52C97.252 21.979 97.449 22.6284 97.449 23.4683V23.9468H93.9968C94.0326 24.383 94.1775 24.7281 94.4314 24.982C94.6886 25.2359 95.0108 25.3628 95.3982 25.3628C95.9418 25.3628 96.3845 25.1431 96.7263 24.7036L97.366 25.314C97.1544 25.6297 96.8712 25.8755 96.5164 26.0513C96.1648 26.2238 95.7693 26.3101 95.3298 26.3101ZM95.1882 21.7837C94.8627 21.7837 94.599 21.8976 94.3972 22.1255C94.1987 22.3534 94.0717 22.6708 94.0164 23.0777H96.2771V22.9898C96.2511 22.5926 96.1453 22.2932 95.9597 22.0913C95.7742 21.8863 95.517 21.7837 95.1882 21.7837ZM100.701 26.3101C99.949 26.3101 99.3386 26.0741 98.8699 25.6021C98.4044 25.1268 98.1716 24.4953 98.1716 23.7075V23.5611C98.1716 23.0337 98.2725 22.5633 98.4744 22.1499C98.6795 21.7333 98.9659 21.4094 99.3337 21.1782C99.7016 20.9471 100.112 20.8316 100.564 20.8316C101.284 20.8316 101.839 21.0611 102.229 21.52C102.623 21.979 102.82 22.6284 102.82 23.4683V23.9468H99.3679C99.4037 24.383 99.5486 24.7281 99.8025 24.982C100.06 25.2359 100.382 25.3628 100.769 25.3628C101.313 25.3628 101.756 25.1431 102.097 24.7036L102.737 25.314C102.525 25.6297 102.242 25.8755 101.887 26.0513C101.536 26.2238 101.14 26.3101 100.701 26.3101ZM100.559 21.7837C100.234 21.7837 99.9701 21.8976 99.7683 22.1255C99.5698 22.3534 99.4428 22.6708 99.3875 23.0777H101.648V22.9898C101.622 22.5926 101.516 22.2932 101.331 22.0913C101.145 21.8863 100.888 21.7837 100.559 21.7837ZM106.511 22.0132C106.355 21.9872 106.194 21.9741 106.028 21.9741C105.484 21.9741 105.118 22.1825 104.929 22.5991V26.2124H103.743V20.9292H104.876L104.905 21.52C105.191 21.0611 105.589 20.8316 106.096 20.8316C106.266 20.8316 106.406 20.8544 106.516 20.8999L106.511 22.0132ZM108.523 26.2124H107.337V20.9292H108.523V26.2124ZM107.263 19.5572C107.263 19.3749 107.32 19.2235 107.434 19.1031C107.552 18.9826 107.718 18.9224 107.932 18.9224C108.147 18.9224 108.313 18.9826 108.43 19.1031C108.548 19.2235 108.606 19.3749 108.606 19.5572C108.606 19.7362 108.548 19.8859 108.43 20.0064C108.313 20.1236 108.147 20.1822 107.932 20.1822C107.718 20.1822 107.552 20.1236 107.434 20.0064C107.32 19.8859 107.263 19.7362 107.263 19.5572ZM110.921 20.9292L110.955 21.5396C111.345 21.0676 111.858 20.8316 112.493 20.8316C113.593 20.8316 114.153 21.4614 114.173 22.7212V26.2124H112.986V22.7896C112.986 22.4543 112.913 22.2069 112.766 22.0474C112.623 21.8846 112.387 21.8032 112.058 21.8032C111.58 21.8032 111.223 22.0197 110.989 22.4527V26.2124H109.802V20.9292H110.921ZM115.178 23.5318C115.178 22.7114 115.371 22.0572 115.755 21.5689C116.142 21.0773 116.655 20.8316 117.293 20.8316C117.895 20.8316 118.369 21.0415 118.714 21.4614L118.767 20.9292H119.837V26.0513C119.837 26.7447 119.62 27.2915 119.187 27.6919C118.758 28.0923 118.177 28.2925 117.444 28.2925C117.057 28.2925 116.677 28.2111 116.306 28.0484C115.939 27.8889 115.659 27.6789 115.467 27.4185L116.028 26.7056C116.393 27.1385 116.842 27.355 117.376 27.355C117.77 27.355 118.08 27.2476 118.308 27.0327C118.536 26.8211 118.65 26.5086 118.65 26.0952V25.7388C118.308 26.1197 117.853 26.3101 117.283 26.3101C116.664 26.3101 116.158 26.0643 115.764 25.5728C115.374 25.0812 115.178 24.4009 115.178 23.5318ZM116.36 23.6343C116.36 24.1649 116.468 24.5832 116.682 24.8892C116.9 25.1919 117.202 25.3433 117.586 25.3433C118.064 25.3433 118.419 25.1382 118.65 24.7281V22.4038C118.426 22.0034 118.074 21.8032 117.595 21.8032C117.205 21.8032 116.9 21.9579 116.682 22.2671C116.468 22.5764 116.36 23.0321 116.36 23.6343ZM127.644 24.5572H124.89L124.314 26.2124H123.03L125.716 19.1031H126.824L129.514 26.2124H128.225L127.644 24.5572ZM125.237 23.5611H127.298L126.267 20.6118L125.237 23.5611ZM130.628 26.2124V21.8081H129.822V20.9292H130.628V20.4458C130.628 19.8599 130.79 19.4074 131.116 19.0884C131.441 18.7694 131.897 18.6099 132.483 18.6099C132.691 18.6099 132.913 18.6392 133.147 18.6978L133.118 19.6255C132.988 19.5995 132.836 19.5864 132.664 19.5864C132.097 19.5864 131.814 19.8778 131.814 20.4605V20.9292H133.631V20.5679C133.634 20.1545 133.722 19.7997 133.894 19.5034C134.067 19.2072 134.311 18.9842 134.627 18.8345C134.942 18.6848 135.322 18.6099 135.764 18.6099C136.025 18.6099 136.274 18.6376 136.511 18.6929C136.752 18.7482 137.001 18.8182 137.259 18.9029L137.073 19.8843C136.63 19.7281 136.222 19.6499 135.847 19.6499C135.486 19.6499 135.224 19.7297 135.061 19.8892C134.899 20.0454 134.817 20.2814 134.817 20.5972V20.9292H135.857V21.8081H134.817V26.2124H133.631V21.8081H131.814V26.2124H130.628ZM137.82 26.2124H136.634V20.9292H137.82V26.2124ZM140.237 20.9292L140.271 21.5396C140.662 21.0676 141.175 20.8316 141.809 20.8316C142.91 20.8316 143.469 21.4614 143.489 22.7212V26.2124H142.302V22.7896C142.302 22.4543 142.229 22.2069 142.083 22.0474C141.94 21.8846 141.704 21.8032 141.375 21.8032C140.896 21.8032 140.54 22.0197 140.305 22.4527V26.2124H139.119V20.9292H140.237ZM145.965 26.2124H144.778V20.9292H145.965V26.2124ZM144.705 19.5572C144.705 19.3749 144.762 19.2235 144.876 19.1031C144.993 18.9826 145.159 18.9224 145.374 18.9224C145.589 18.9224 145.755 18.9826 145.872 19.1031C145.989 19.2235 146.048 19.3749 146.048 19.5572C146.048 19.7362 145.989 19.8859 145.872 20.0064C145.755 20.1236 145.589 20.1822 145.374 20.1822C145.159 20.1822 144.993 20.1236 144.876 20.0064C144.762 19.8859 144.705 19.7362 144.705 19.5572ZM148.748 19.645V20.9292H149.68V21.8081H148.748V24.7573C148.748 24.9592 148.787 25.1057 148.865 25.1968C148.946 25.2847 149.09 25.3286 149.295 25.3286C149.431 25.3286 149.57 25.3124 149.71 25.2798V26.1978C149.44 26.2726 149.179 26.3101 148.928 26.3101C148.017 26.3101 147.561 25.8072 147.561 24.8013V21.8081H146.692V20.9292H147.561V19.645H148.748ZM152.439 24.5132L153.513 20.9292H154.778L152.678 27.0132C152.356 27.9019 151.809 28.3462 151.038 28.3462C150.865 28.3462 150.675 28.3169 150.467 28.2583V27.3404L150.691 27.355C150.991 27.355 151.215 27.2997 151.365 27.189C151.518 27.0816 151.638 26.8993 151.726 26.6421L151.897 26.188L150.042 20.9292H151.321L152.439 24.5132ZM163.518 25.2896C163.261 25.6249 162.905 25.8788 162.449 26.0513C161.993 26.2238 161.476 26.3101 160.896 26.3101C160.301 26.3101 159.773 26.175 159.314 25.9048C158.855 25.6346 158.5 25.2489 158.25 24.7476C158.002 24.243 157.874 23.6555 157.864 22.9849V22.4282C157.864 21.354 158.121 20.5158 158.635 19.9136C159.15 19.3081 159.868 19.0054 160.789 19.0054C161.58 19.0054 162.208 19.2007 162.674 19.5913C163.139 19.982 163.419 20.5451 163.513 21.2808H162.302C162.166 20.4247 161.669 19.9966 160.813 19.9966C160.26 19.9966 159.838 20.1968 159.549 20.5972C159.262 20.9943 159.114 21.5786 159.104 22.3501V22.897C159.104 23.6652 159.265 24.2626 159.588 24.689C159.913 25.1122 160.364 25.3238 160.94 25.3238C161.572 25.3238 162.021 25.1805 162.288 24.8941V23.5025H160.823V22.565H163.518V25.2896ZM167.527 22.0132C167.371 21.9872 167.21 21.9741 167.044 21.9741C166.5 21.9741 166.134 22.1825 165.945 22.5991V26.2124H164.759V20.9292H165.891L165.921 21.52C166.207 21.0611 166.604 20.8316 167.112 20.8316C167.281 20.8316 167.421 20.8544 167.532 20.8999L167.527 22.0132ZM167.879 23.522C167.879 23.0044 167.981 22.5389 168.186 22.1255C168.391 21.7088 168.679 21.3898 169.051 21.1685C169.422 20.9439 169.848 20.8316 170.33 20.8316C171.043 20.8316 171.621 21.0611 172.063 21.52C172.509 21.979 172.75 22.5878 172.786 23.3462L172.791 23.6245C172.791 24.1454 172.69 24.6109 172.488 25.021C172.289 25.4312 172.003 25.7486 171.629 25.9732C171.258 26.1978 170.828 26.3101 170.34 26.3101C169.594 26.3101 168.997 26.0627 168.548 25.5679C168.102 25.0698 167.879 24.4074 167.879 23.5806V23.522ZM169.065 23.6245C169.065 24.1682 169.177 24.5946 169.402 24.9038C169.627 25.2098 169.939 25.3628 170.34 25.3628C170.74 25.3628 171.051 25.2066 171.272 24.8941C171.497 24.5816 171.609 24.1242 171.609 23.522C171.609 22.9881 171.494 22.565 171.262 22.2525C171.035 21.94 170.724 21.7837 170.33 21.7837C169.942 21.7837 169.635 21.9383 169.407 22.2476C169.179 22.5536 169.065 23.0126 169.065 23.6245ZM176.995 25.6948C176.647 26.105 176.152 26.3101 175.51 26.3101C174.938 26.3101 174.503 26.1424 174.207 25.8072C173.914 25.4719 173.767 24.9868 173.767 24.3521V20.9292H174.954V24.3374C174.954 25.008 175.232 25.3433 175.789 25.3433C176.365 25.3433 176.754 25.1366 176.956 24.7232V20.9292H178.142V26.2124H177.024L176.995 25.6948ZM183.977 23.6245C183.977 24.4416 183.792 25.0943 183.421 25.5825C183.05 26.0676 182.552 26.3101 181.927 26.3101C181.347 26.3101 180.883 26.1197 180.535 25.7388V28.2437H179.348V20.9292H180.442L180.491 21.4663C180.839 21.0432 181.313 20.8316 181.912 20.8316C182.556 20.8316 183.061 21.0725 183.426 21.5542C183.793 22.0327 183.977 22.6984 183.977 23.5513V23.6245ZM182.796 23.522C182.796 22.9947 182.69 22.5764 182.478 22.2671C182.27 21.9579 181.97 21.8032 181.58 21.8032C181.095 21.8032 180.747 22.0034 180.535 22.4038V24.7476C180.75 25.1577 181.101 25.3628 181.59 25.3628C181.967 25.3628 182.262 25.2114 182.473 24.9087C182.688 24.6027 182.796 24.1405 182.796 23.522ZM185.086 21.2124L184.48 20.8364C184.773 20.41 184.925 19.9592 184.934 19.4839V18.7124H185.974V19.3863C185.974 19.7215 185.888 20.0601 185.716 20.4019C185.546 20.7404 185.336 21.0106 185.086 21.2124ZM188.836 24.7769C188.836 24.5653 188.748 24.4042 188.572 24.2935C188.399 24.1828 188.111 24.0851 187.708 24.0005C187.304 23.9159 186.967 23.8085 186.697 23.6782C186.105 23.3918 185.808 22.9767 185.808 22.4331C185.808 21.9774 186 21.5965 186.385 21.2906C186.769 20.9846 187.257 20.8316 187.849 20.8316C188.481 20.8316 188.99 20.9878 189.378 21.3003C189.768 21.6128 189.964 22.0181 189.964 22.5161H188.777C188.777 22.2883 188.692 22.0995 188.523 21.9497C188.354 21.7967 188.129 21.7202 187.849 21.7202C187.589 21.7202 187.376 21.7805 187.21 21.9009C187.047 22.0213 186.966 22.1825 186.966 22.3843C186.966 22.5666 187.042 22.7082 187.195 22.8091C187.348 22.91 187.657 23.0126 188.123 23.1167C188.588 23.2176 188.953 23.3397 189.217 23.4829C189.483 23.6229 189.68 23.7922 189.807 23.9907C189.938 24.1893 190.003 24.4302 190.003 24.7134C190.003 25.1887 189.806 25.5744 189.412 25.8706C189.018 26.1636 188.502 26.3101 187.864 26.3101C187.431 26.3101 187.045 26.232 186.707 26.0757C186.368 25.9195 186.105 25.7046 185.916 25.4312C185.727 25.1577 185.633 24.8631 185.633 24.5474H186.785C186.801 24.8273 186.907 25.0438 187.102 25.1968C187.298 25.3465 187.556 25.4214 187.879 25.4214C188.191 25.4214 188.429 25.3628 188.592 25.2456C188.754 25.1252 188.836 24.9689 188.836 24.7769ZM199.221 24.4546L200.315 19.1031H201.541L199.9 26.2124H198.719L197.366 21.022L195.984 26.2124H194.798L193.157 19.1031H194.383L195.486 24.4448L196.844 19.1031H197.879L199.221 24.4546ZM204.5 26.3101C203.748 26.3101 203.137 26.0741 202.669 25.6021C202.203 25.1268 201.97 24.4953 201.97 23.7075V23.5611C201.97 23.0337 202.071 22.5633 202.273 22.1499C202.478 21.7333 202.765 21.4094 203.133 21.1782C203.5 20.9471 203.911 20.8316 204.363 20.8316C205.082 20.8316 205.637 21.0611 206.028 21.52C206.422 21.979 206.619 22.6284 206.619 23.4683V23.9468H203.167C203.203 24.383 203.347 24.7281 203.601 24.982C203.858 25.2359 204.181 25.3628 204.568 25.3628C205.112 25.3628 205.554 25.1431 205.896 24.7036L206.536 25.314C206.324 25.6297 206.041 25.8755 205.686 26.0513C205.335 26.2238 204.939 26.3101 204.5 26.3101ZM204.358 21.7837C204.033 21.7837 203.769 21.8976 203.567 22.1255C203.369 22.3534 203.242 22.6708 203.186 23.0777H205.447V22.9898C205.421 22.5926 205.315 22.2932 205.13 22.0913C204.944 21.8863 204.687 21.7837 204.358 21.7837ZM212.18 23.6245C212.18 24.4448 211.997 25.0975 211.629 25.5825C211.264 26.0676 210.761 26.3101 210.12 26.3101C209.501 26.3101 209.02 26.0871 208.675 25.6411L208.616 26.2124H207.542V18.7124H208.728V21.437C209.07 21.0334 209.531 20.8316 210.11 20.8316C210.755 20.8316 211.261 21.0708 211.629 21.5493C211.997 22.0279 212.18 22.6968 212.18 23.5562V23.6245ZM210.994 23.522C210.994 22.9491 210.893 22.5194 210.691 22.2329C210.489 21.9465 210.196 21.8032 209.812 21.8032C209.298 21.8032 208.937 22.0279 208.728 22.4771V24.6548C208.94 25.1138 209.304 25.3433 209.822 25.3433C210.193 25.3433 210.48 25.2049 210.681 24.9282C210.883 24.6516 210.987 24.2333 210.994 23.6734V23.522ZM216.14 24.7769C216.14 24.5653 216.052 24.4042 215.877 24.2935C215.704 24.1828 215.416 24.0851 215.012 24.0005C214.609 23.9159 214.272 23.8085 214.002 23.6782C213.409 23.3918 213.113 22.9767 213.113 22.4331C213.113 21.9774 213.305 21.5965 213.689 21.2906C214.073 20.9846 214.562 20.8316 215.154 20.8316C215.786 20.8316 216.295 20.9878 216.682 21.3003C217.073 21.6128 217.268 22.0181 217.268 22.5161H216.082C216.082 22.2883 215.997 22.0995 215.828 21.9497C215.659 21.7967 215.434 21.7202 215.154 21.7202C214.894 21.7202 214.68 21.7805 214.514 21.9009C214.352 22.0213 214.27 22.1825 214.27 22.3843C214.27 22.5666 214.347 22.7082 214.5 22.8091C214.653 22.91 214.962 23.0126 215.427 23.1167C215.893 23.2176 216.258 23.3397 216.521 23.4829C216.788 23.6229 216.985 23.7922 217.112 23.9907C217.242 24.1893 217.307 24.4302 217.307 24.7134C217.307 25.1887 217.11 25.5744 216.717 25.8706C216.323 26.1636 215.807 26.3101 215.169 26.3101C214.736 26.3101 214.35 26.232 214.011 26.0757C213.673 25.9195 213.409 25.7046 213.22 25.4312C213.032 25.1577 212.937 24.8631 212.937 24.5474H214.09C214.106 24.8273 214.212 25.0438 214.407 25.1968C214.602 25.3465 214.861 25.4214 215.183 25.4214C215.496 25.4214 215.733 25.3628 215.896 25.2456C216.059 25.1252 216.14 24.9689 216.14 24.7769ZM219.607 26.2124H218.421V20.9292H219.607V26.2124ZM218.347 19.5572C218.347 19.3749 218.404 19.2235 218.518 19.1031C218.635 18.9826 218.802 18.9224 219.016 18.9224C219.231 18.9224 219.397 18.9826 219.514 19.1031C219.632 19.2235 219.69 19.3749 219.69 19.5572C219.69 19.7362 219.632 19.8859 219.514 20.0064C219.397 20.1236 219.231 20.1822 219.016 20.1822C218.802 20.1822 218.635 20.1236 218.518 20.0064C218.404 19.8859 218.347 19.7362 218.347 19.5572ZM222.39 19.645V20.9292H223.323V21.8081H222.39V24.7573C222.39 24.9592 222.429 25.1057 222.508 25.1968C222.589 25.2847 222.732 25.3286 222.937 25.3286C223.074 25.3286 223.212 25.3124 223.352 25.2798V26.1978C223.082 26.2726 222.822 26.3101 222.571 26.3101C221.66 26.3101 221.204 25.8072 221.204 24.8013V21.8081H220.335V20.9292H221.204V19.645H222.39ZM226.56 26.3101C225.808 26.3101 225.198 26.0741 224.729 25.6021C224.264 25.1268 224.031 24.4953 224.031 23.7075V23.5611C224.031 23.0337 224.132 22.5633 224.334 22.1499C224.539 21.7333 224.825 21.4094 225.193 21.1782C225.561 20.9471 225.971 20.8316 226.424 20.8316C227.143 20.8316 227.698 21.0611 228.089 21.52C228.483 21.979 228.679 22.6284 228.679 23.4683V23.9468H225.227C225.263 24.383 225.408 24.7281 225.662 24.982C225.919 25.2359 226.241 25.3628 226.629 25.3628C227.172 25.3628 227.615 25.1431 227.957 24.7036L228.596 25.314C228.385 25.6297 228.102 25.8755 227.747 26.0513C227.395 26.2238 227 26.3101 226.56 26.3101ZM226.419 21.7837C226.093 21.7837 225.83 21.8976 225.628 22.1255C225.429 22.3534 225.302 22.6708 225.247 23.0777H227.508V22.9898C227.482 22.5926 227.376 22.2932 227.19 22.0913C227.005 21.8863 226.747 21.7837 226.419 21.7837Z" fill="white"/>
<line x1="2.44326e-08" y1="30.823" x2="256" y2="30.8231" stroke="#BFFBDE" stroke-width="2"/>
<path d="M123.527 46.4643C123.456 47.2228 123.176 47.8153 122.688 48.2417C122.199 48.6649 121.55 48.8764 120.739 48.8764C120.173 48.8764 119.673 48.743 119.24 48.4761C118.811 48.2059 118.479 47.8234 118.244 47.3286C118.01 46.8338 117.888 46.2593 117.878 45.605V44.9409C117.878 44.2703 117.997 43.6795 118.234 43.1684C118.472 42.6574 118.812 42.2635 119.255 41.9868C119.701 41.7101 120.215 41.5718 120.798 41.5718C121.582 41.5718 122.214 41.785 122.692 42.2114C123.171 42.6378 123.449 43.2401 123.527 44.0181H122.297C122.238 43.507 122.089 43.1391 121.848 42.9145C121.61 42.6867 121.26 42.5727 120.798 42.5727C120.261 42.5727 119.847 42.7697 119.558 43.1636C119.271 43.5542 119.125 44.1287 119.118 44.8872V45.5171C119.118 46.2853 119.255 46.8712 119.528 47.2749C119.805 47.6785 120.209 47.8804 120.739 47.8804C121.224 47.8804 121.589 47.7713 121.833 47.5532C122.077 47.3351 122.232 46.9722 122.297 46.4643H123.527ZM125.783 48.7788H124.597V41.2788H125.783V48.7788ZM128.342 48.7788H127.155V43.4956H128.342V48.7788ZM127.082 42.1235C127.082 41.9412 127.139 41.7899 127.253 41.6694C127.37 41.549 127.536 41.4888 127.751 41.4888C127.966 41.4888 128.132 41.549 128.249 41.6694C128.366 41.7899 128.425 41.9412 128.425 42.1235C128.425 42.3026 128.366 42.4523 128.249 42.5727C128.132 42.6899 127.966 42.7485 127.751 42.7485C127.536 42.7485 127.37 42.6899 127.253 42.5727C127.139 42.4523 127.082 42.3026 127.082 42.1235ZM131.809 47.9292C132.105 47.9292 132.351 47.8429 132.546 47.6704C132.741 47.4979 132.845 47.2847 132.858 47.0307H133.977C133.964 47.3595 133.861 47.6671 133.669 47.9536C133.477 48.2368 133.216 48.4614 132.888 48.6274C132.559 48.7934 132.204 48.8764 131.823 48.8764C131.084 48.8764 130.498 48.6372 130.065 48.1587C129.633 47.6802 129.416 47.0194 129.416 46.1763V46.0542C129.416 45.2501 129.631 44.6072 130.061 44.1255C130.49 43.6404 131.076 43.3979 131.818 43.3979C132.447 43.3979 132.958 43.5819 133.352 43.9497C133.749 44.3143 133.957 44.7944 133.977 45.3901H132.858C132.845 45.0874 132.741 44.8384 132.546 44.6431C132.354 44.4477 132.108 44.3501 131.809 44.3501C131.424 44.3501 131.128 44.4901 130.92 44.77C130.712 45.0467 130.606 45.4682 130.603 46.0347V46.2251C130.603 46.798 130.705 47.2261 130.91 47.5093C131.119 47.7892 131.418 47.9292 131.809 47.9292ZM136.589 46.5132L136.062 47.0552V48.7788H134.875V41.2788H136.062V45.605L136.433 45.1411L137.893 43.4956H139.318L137.355 45.6977L139.528 48.7788H138.156L136.589 46.5132ZM141.355 46.6841H140.334L140.222 41.6694H141.472L141.355 46.6841ZM140.188 48.2173C140.188 48.0317 140.248 47.8787 140.368 47.7583C140.489 47.6346 140.653 47.5727 140.861 47.5727C141.07 47.5727 141.234 47.6346 141.355 47.7583C141.475 47.8787 141.535 48.0317 141.535 48.2173C141.535 48.3963 141.477 48.546 141.359 48.6665C141.242 48.7869 141.076 48.8472 140.861 48.8472C140.646 48.8472 140.48 48.7869 140.363 48.6665C140.246 48.546 140.188 48.3963 140.188 48.2173Z" fill="white"/>
<g filter="url(#filter1_d)">
<rect x="105.862" y="34.2434" width="48.1878" height="22.5929" rx="11.2965" stroke="#8AD4B5"/>
</g>
</g>
<defs>
<filter id="filter0_i" x="0" y="0" width="256" height="66" filterUnits="userSpaceOnUse" color-interpolation-filters="sRGB">
<feFlood flood-opacity="0" result="BackgroundImageFix"/>
<feBlend mode="normal" in="SourceGraphic" in2="BackgroundImageFix" result="shape"/>
<feColorMatrix in="SourceAlpha" type="matrix" values="0 0 0 0 0 0 0 0 0 0 0 0 0 0 0 0 0 0 127 0" result="hardAlpha"/>
<feOffset dy="4"/>
<feGaussianBlur stdDeviation="2"/>
<feComposite in2="hardAlpha" operator="arithmetic" k2="-1" k3="1"/>
<feColorMatrix type="matrix" values="0 0 0 0 0 0 0 0 0 0 0 0 0 0 0 0 0 0 0.25 0"/>
<feBlend mode="normal" in2="shape" result="effect1_innerShadow"/>
</filter>
<filter id="filter1_d" x="101.362" y="33.7434" width="57.1878" height="31.5929" filterUnits="userSpaceOnUse" color-interpolation-filters="sRGB">
<feFlood flood-opacity="0" result="BackgroundImageFix"/>
<feColorMatrix in="SourceAlpha" type="matrix" values="0 0 0 0 0 0 0 0 0 0 0 0 0 0 0 0 0 0 127 0" result="hardAlpha"/>
<feOffset dy="4"/>
<feGaussianBlur stdDeviation="2"/>
<feColorMatrix type="matrix" values="0 0 0 0 0 0 0 0 0 0 0 0 0 0 0 0 0 0 0.25 0"/>
<feBlend mode="normal" in2="BackgroundImageFix" result="effect1_dropShadow"/>
<feBlend mode="normal" in="SourceGraphic" in2="effect1_dropShadow" result="shape"/>
</filter>
</defs>
</svg>
