<svg width="127" height="37" viewBox="0 0 127 37" fill="none" xmlns="http://www.w3.org/2000/svg">
<g filter="url(#filter0_i)">
<rect width="127" height="31" rx="15.5" fill="#17625D"/>
<path d="M45.135 5.90312L45.5725 3.76249H46.0628L45.4065 6.60624H44.9339L44.3928 4.53007L43.8401 6.60624H43.3655L42.7093 3.76249H43.1995L43.6409 5.89921L44.1839 3.76249H44.5979L45.135 5.90312ZM46.2268 5.53007C46.2268 5.32304 46.2678 5.13684 46.3499 4.97148C46.4319 4.80481 46.5471 4.67721 46.6956 4.58867C46.844 4.49882 47.0146 4.4539 47.2073 4.4539C47.4925 4.4539 47.7236 4.5457 47.9007 4.72929C48.079 4.91288 48.1754 5.15637 48.1897 5.45976L48.1917 5.57109C48.1917 5.77942 48.1513 5.96562 48.0706 6.12968C47.9912 6.29374 47.8766 6.4207 47.7268 6.51054C47.5784 6.60038 47.4065 6.64531 47.2112 6.64531C46.913 6.64531 46.6741 6.54635 46.4944 6.34843C46.316 6.14921 46.2268 5.88424 46.2268 5.55351V5.53007ZM46.7014 5.57109C46.7014 5.78853 46.7464 5.95911 46.8362 6.08281C46.9261 6.2052 47.0511 6.2664 47.2112 6.2664C47.3714 6.2664 47.4957 6.2039 47.5843 6.0789C47.6741 5.9539 47.719 5.77096 47.719 5.53007C47.719 5.31653 47.6728 5.14726 47.5803 5.02226C47.4892 4.89726 47.3649 4.83476 47.2073 4.83476C47.0524 4.83476 46.9293 4.89661 46.8382 5.02031C46.747 5.1427 46.7014 5.3263 46.7014 5.57109ZM49.6995 4.92656C49.637 4.91614 49.5725 4.91093 49.5061 4.91093C49.2887 4.91093 49.1422 4.99426 49.0667 5.16093V6.60624H48.5921V4.49296H49.0452L49.0569 4.72929C49.1715 4.5457 49.3303 4.4539 49.5335 4.4539C49.6012 4.4539 49.6572 4.46301 49.7014 4.48124L49.6995 4.92656ZM50.6858 5.69999L50.4749 5.91679V6.60624H50.0003V3.60624H50.4749V5.33671L50.6233 5.15117L51.2073 4.49296H51.7776L50.9925 5.37382L51.8616 6.60624H51.3128L50.6858 5.69999ZM52.9807 6.64531C52.68 6.64531 52.4358 6.5509 52.2483 6.3621C52.0621 6.172 51.969 5.91939 51.969 5.60429V5.5457C51.969 5.33476 52.0094 5.14661 52.0901 4.98124C52.1721 4.81458 52.2867 4.68502 52.4339 4.59257C52.581 4.50012 52.7451 4.4539 52.9261 4.4539C53.2138 4.4539 53.4358 4.5457 53.5921 4.72929C53.7496 4.91288 53.8284 5.17265 53.8284 5.50859V5.69999H52.4475C52.4619 5.87447 52.5198 6.01249 52.6214 6.11406C52.7242 6.21562 52.8531 6.2664 53.0081 6.2664C53.2255 6.2664 53.4026 6.17851 53.5393 6.00273L53.7952 6.24687C53.7106 6.37317 53.5973 6.47148 53.4553 6.54179C53.3147 6.6108 53.1565 6.64531 52.9807 6.64531ZM52.9241 4.83476C52.7939 4.83476 52.6884 4.88033 52.6077 4.97148C52.5283 5.06262 52.4775 5.18958 52.4553 5.35234H53.3596V5.31718C53.3492 5.15833 53.3069 5.03853 53.2327 4.95781C53.1585 4.87577 53.0556 4.83476 52.9241 4.83476ZM54.1096 5.53398C54.1096 5.20846 54.1852 4.94739 54.3362 4.75077C54.4873 4.55286 54.6897 4.4539 54.9436 4.4539C55.1676 4.4539 55.3486 4.53202 55.4866 4.68827V3.60624H55.9612V6.60624H55.5315L55.5081 6.38749C55.3662 6.55937 55.1767 6.64531 54.9397 6.64531C54.6923 6.64531 54.4918 6.5457 54.3382 6.34648C54.1858 6.14726 54.1096 5.87643 54.1096 5.53398ZM54.5843 5.57499C54.5843 5.78984 54.6253 5.95781 54.7073 6.0789C54.7906 6.19869 54.9085 6.25859 55.0608 6.25859C55.2548 6.25859 55.3968 6.172 55.4866 5.99882V5.09648C55.3994 4.92721 55.2587 4.84257 55.0647 4.84257C54.9111 4.84257 54.7926 4.90377 54.7093 5.02617C54.6259 5.14726 54.5843 5.3302 54.5843 5.57499ZM57.3636 5.53007C57.3636 5.32304 57.4046 5.13684 57.4866 4.97148C57.5686 4.80481 57.6839 4.67721 57.8323 4.58867C57.9807 4.49882 58.1513 4.4539 58.344 4.4539C58.6292 4.4539 58.8603 4.5457 59.0374 4.72929C59.2158 4.91288 59.3121 5.15637 59.3264 5.45976L59.3284 5.57109C59.3284 5.77942 59.288 5.96562 59.2073 6.12968C59.1279 6.29374 59.0133 6.4207 58.8636 6.51054C58.7151 6.60038 58.5432 6.64531 58.3479 6.64531C58.0498 6.64531 57.8108 6.54635 57.6311 6.34843C57.4527 6.14921 57.3636 5.88424 57.3636 5.55351V5.53007ZM57.8382 5.57109C57.8382 5.78853 57.8831 5.95911 57.9729 6.08281C58.0628 6.2052 58.1878 6.2664 58.3479 6.2664C58.5081 6.2664 58.6324 6.2039 58.721 6.0789C58.8108 5.9539 58.8557 5.77096 58.8557 5.53007C58.8557 5.31653 58.8095 5.14726 58.7171 5.02226C58.6259 4.89726 58.5016 4.83476 58.344 4.83476C58.1891 4.83476 58.066 4.89661 57.9749 5.02031C57.8837 5.1427 57.8382 5.3263 57.8382 5.57109ZM60.1702 4.49296L60.1839 4.7371C60.3401 4.5483 60.5452 4.4539 60.7991 4.4539C61.2392 4.4539 61.4632 4.70585 61.471 5.20976V6.60624H60.9964V5.2371C60.9964 5.10299 60.9671 5.00403 60.9085 4.94023C60.8512 4.87512 60.7568 4.84257 60.6253 4.84257C60.4339 4.84257 60.2913 4.92916 60.1975 5.10234V6.60624H59.7229V4.49296H60.1702ZM63.5198 6.60624H63.0276V3.76249H63.5198V6.60624ZM65.7893 5.33671H64.6214V6.21171H65.9866V6.60624H64.1272V3.76249H65.9729V4.16093H64.6214V4.94609H65.7893V5.33671ZM68.0511 5.33671H66.8831V6.21171H68.2483V6.60624H66.3889V3.76249H68.2346V4.16093H66.8831V4.94609H68.0511V5.33671ZM70.3128 5.33671H69.1448V6.21171H70.51V6.60624H68.6507V3.76249H70.4964V4.16093H69.1448V4.94609H70.3128V5.33671ZM73.3948 5.87382C73.3948 5.74882 73.3505 5.65247 73.262 5.58476C73.1748 5.51705 73.0165 5.44869 72.7874 5.37968C72.5582 5.31067 72.3759 5.23385 72.2405 5.14921C71.9814 4.98645 71.8518 4.77421 71.8518 4.51249C71.8518 4.28333 71.9449 4.09452 72.1311 3.94609C72.3186 3.79765 72.5615 3.72343 72.8596 3.72343C73.0576 3.72343 73.234 3.75989 73.3889 3.83281C73.5439 3.90572 73.6656 4.00989 73.7542 4.14531C73.8427 4.27942 73.887 4.42851 73.887 4.59257H73.3948C73.3948 4.44413 73.3479 4.32825 73.2542 4.24492C73.1617 4.16028 73.0289 4.11796 72.8557 4.11796C72.6943 4.11796 72.5686 4.15247 72.4788 4.22148C72.3902 4.29049 72.346 4.38684 72.346 4.51054C72.346 4.61471 72.3942 4.70195 72.4905 4.77226C72.5869 4.84127 72.7457 4.90898 72.9671 4.97538C73.1884 5.04049 73.3662 5.11536 73.5003 5.19999C73.6344 5.28333 73.7327 5.37968 73.7952 5.48906C73.8577 5.59713 73.8889 5.72408 73.8889 5.86992C73.8889 6.10689 73.7978 6.2957 73.6155 6.43632C73.4345 6.57564 73.1884 6.64531 72.8772 6.64531C72.6715 6.64531 72.482 6.60755 72.3089 6.53202C72.137 6.4552 72.0029 6.34973 71.9065 6.21562C71.8115 6.0815 71.7639 5.92525 71.7639 5.74687H72.2581C72.2581 5.90833 72.3115 6.03333 72.4182 6.12187C72.525 6.21041 72.678 6.25468 72.8772 6.25468C73.0491 6.25468 73.178 6.22018 73.2639 6.15117C73.3512 6.08085 73.3948 5.9884 73.3948 5.87382ZM74.3225 6.60624V3.76249H75.2971C75.6188 3.76249 75.8636 3.82695 76.0315 3.95585C76.1995 4.08476 76.2835 4.27682 76.2835 4.53202C76.2835 4.66223 76.2483 4.77942 76.178 4.88359C76.1077 4.98775 76.0048 5.06848 75.8694 5.12577C76.0231 5.16744 76.1415 5.24622 76.2249 5.3621C76.3095 5.47669 76.3518 5.61471 76.3518 5.77617C76.3518 6.04309 76.2659 6.24817 76.094 6.3914C75.9234 6.53463 75.6787 6.60624 75.3596 6.60624H74.3225ZM74.8167 5.32304V6.21171H75.3655C75.5205 6.21171 75.6415 6.1733 75.7288 6.09648C75.816 6.01965 75.8596 5.91288 75.8596 5.77617C75.8596 5.48059 75.7086 5.32955 75.4065 5.32304H74.8167ZM74.8167 4.95976H75.3011C75.4547 4.95976 75.5745 4.92525 75.6604 4.85624C75.7477 4.78593 75.7913 4.68697 75.7913 4.55937C75.7913 4.41874 75.7509 4.31718 75.6702 4.25468C75.5908 4.19218 75.4664 4.16093 75.2971 4.16093H74.8167V4.95976ZM77.4866 3.76249L78.3069 5.94218L79.1253 3.76249H79.7639V6.60624H79.2718V5.66874L79.3206 4.41484L78.4807 6.60624H78.1272L77.2893 4.41679L77.3382 5.66874V6.60624H76.846V3.76249H77.4866ZM22.6155 10.9031L23.053 8.76249H23.5432L22.887 11.6062H22.4143L21.8733 9.53007L21.3206 11.6062H20.846L20.1897 8.76249H20.68L21.1214 10.8992L21.6643 8.76249H22.0784L22.6155 10.9031ZM23.7073 10.5301C23.7073 10.323 23.7483 10.1368 23.8303 9.97148C23.9124 9.80481 24.0276 9.67721 24.1761 9.58867C24.3245 9.49882 24.4951 9.4539 24.6878 9.4539C24.9729 9.4539 25.204 9.5457 25.3811 9.72929C25.5595 9.91288 25.6559 10.1564 25.6702 10.4598L25.6721 10.5711C25.6721 10.7794 25.6318 10.9656 25.5511 11.1297C25.4716 11.2937 25.357 11.4207 25.2073 11.5105C25.0589 11.6004 24.887 11.6453 24.6917 11.6453C24.3935 11.6453 24.1546 11.5463 23.9749 11.3484C23.7965 11.1492 23.7073 10.8842 23.7073 10.5535V10.5301ZM24.1819 10.5711C24.1819 10.7885 24.2268 10.9591 24.3167 11.0828C24.4065 11.2052 24.5315 11.2664 24.6917 11.2664C24.8518 11.2664 24.9762 11.2039 25.0647 11.0789C25.1546 10.9539 25.1995 10.771 25.1995 10.5301C25.1995 10.3165 25.1533 10.1473 25.0608 10.0223C24.9697 9.89726 24.8453 9.83476 24.6878 9.83476C24.5328 9.83476 24.4098 9.89661 24.3186 10.0203C24.2275 10.1427 24.1819 10.3263 24.1819 10.5711ZM26.5198 9.49296L26.5335 9.71367C26.6819 9.54049 26.885 9.4539 27.1428 9.4539C27.4254 9.4539 27.6188 9.56197 27.7229 9.77812C27.8766 9.56197 28.0927 9.4539 28.3714 9.4539C28.6044 9.4539 28.7776 9.51835 28.8909 9.64726C29.0055 9.77617 29.0641 9.96627 29.0667 10.2176V11.6062H28.5921V10.2312C28.5921 10.0971 28.5628 9.99882 28.5042 9.93632C28.4456 9.87382 28.3486 9.84257 28.2132 9.84257C28.1051 9.84257 28.0165 9.87187 27.9475 9.93046C27.8798 9.98775 27.8323 10.0633 27.805 10.157L27.8069 11.6062H27.3323V10.2156C27.3258 9.96692 27.1988 9.84257 26.9514 9.84257C26.7613 9.84257 26.6266 9.92005 26.5471 10.075V11.6062H26.0725V9.49296H26.5198ZM30.4846 11.6453C30.1839 11.6453 29.9397 11.5509 29.7522 11.3621C29.566 11.172 29.4729 10.9194 29.4729 10.6043V10.5457C29.4729 10.3348 29.5133 10.1466 29.594 9.98124C29.6761 9.81458 29.7906 9.68502 29.9378 9.59257C30.0849 9.50012 30.249 9.4539 30.43 9.4539C30.7177 9.4539 30.9397 9.5457 31.096 9.72929C31.2535 9.91288 31.3323 10.1726 31.3323 10.5086V10.7H29.9514C29.9658 10.8745 30.0237 11.0125 30.1253 11.1141C30.2281 11.2156 30.357 11.2664 30.512 11.2664C30.7294 11.2664 30.9065 11.1785 31.0432 11.0027L31.2991 11.2469C31.2145 11.3732 31.1012 11.4715 30.9593 11.5418C30.8186 11.6108 30.6604 11.6453 30.4846 11.6453ZM30.428 9.83476C30.2978 9.83476 30.1923 9.88033 30.1116 9.97148C30.0322 10.0626 29.9814 10.1896 29.9593 10.3523H30.8636V10.3172C30.8531 10.1583 30.8108 10.0385 30.7366 9.95781C30.6624 9.87577 30.5595 9.83476 30.428 9.83476ZM32.1428 9.49296L32.1565 9.7371C32.3128 9.5483 32.5178 9.4539 32.7718 9.4539C33.2119 9.4539 33.4358 9.70585 33.4436 10.2098V11.6062H32.969V10.2371C32.969 10.103 32.9397 10.004 32.8811 9.94023C32.8238 9.87512 32.7294 9.84257 32.5979 9.84257C32.4065 9.84257 32.2639 9.92916 32.1702 10.1023V11.6062H31.6956V9.49296H32.1428ZM35.43 11.6062H34.9553V9.49296H35.43V11.6062ZM34.9261 8.94413C34.9261 8.87122 34.9488 8.81067 34.9944 8.76249C35.0413 8.71432 35.1077 8.69023 35.1936 8.69023C35.2796 8.69023 35.346 8.71432 35.3928 8.76249C35.4397 8.81067 35.4632 8.87122 35.4632 8.94413C35.4632 9.01575 35.4397 9.07564 35.3928 9.12382C35.346 9.1707 35.2796 9.19413 35.1936 9.19413C35.1077 9.19413 35.0413 9.1707 34.9944 9.12382C34.9488 9.07564 34.9261 9.01575 34.9261 8.94413ZM36.3889 9.49296L36.4026 9.7371C36.5589 9.5483 36.7639 9.4539 37.0178 9.4539C37.458 9.4539 37.6819 9.70585 37.6897 10.2098V11.6062H37.2151V10.2371C37.2151 10.103 37.1858 10.004 37.1272 9.94023C37.0699 9.87512 36.9755 9.84257 36.844 9.84257C36.6526 9.84257 36.51 9.92916 36.4163 10.1023V11.6062H35.9417V9.49296H36.3889ZM40.8792 10.3367H39.7112V11.2117H41.0764V11.6062H39.2171V8.76249H41.0628V9.16093H39.7112V9.94609H40.8792V10.3367ZM41.8733 9.49296L41.887 9.7371C42.0432 9.5483 42.2483 9.4539 42.5022 9.4539C42.9423 9.4539 43.1663 9.70585 43.1741 10.2098V11.6062H42.6995V10.2371C42.6995 10.103 42.6702 10.004 42.6116 9.94023C42.5543 9.87512 42.4599 9.84257 42.3284 9.84257C42.137 9.84257 41.9944 9.92916 41.9007 10.1023V11.6062H41.4261V9.49296H41.8733ZM43.5764 10.534C43.5764 10.2059 43.6533 9.94413 43.8069 9.74882C43.9619 9.55221 44.1669 9.4539 44.4221 9.4539C44.663 9.4539 44.8525 9.53788 44.9905 9.70585L45.012 9.49296H45.4397V11.5418C45.4397 11.8191 45.3531 12.0379 45.18 12.198C45.0081 12.3582 44.7757 12.4383 44.4827 12.4383C44.3277 12.4383 44.1761 12.4057 44.0276 12.3406C43.8805 12.2768 43.7685 12.1928 43.6917 12.0887L43.9163 11.8035C44.0621 11.9767 44.2418 12.0633 44.4553 12.0633C44.6129 12.0633 44.7373 12.0203 44.8284 11.9344C44.9195 11.8497 44.9651 11.7247 44.9651 11.5594V11.4168C44.8284 11.5691 44.6461 11.6453 44.4182 11.6453C44.1708 11.6453 43.9684 11.547 43.8108 11.3504C43.6546 11.1538 43.5764 10.8816 43.5764 10.534ZM44.0491 10.575C44.0491 10.7872 44.0921 10.9546 44.178 11.0769C44.2652 11.198 44.3857 11.2586 44.5393 11.2586C44.7307 11.2586 44.8727 11.1766 44.9651 11.0125V10.0828C44.8753 9.92265 44.7346 9.84257 44.5432 9.84257C44.387 9.84257 44.2652 9.90442 44.178 10.0281C44.0921 10.1518 44.0491 10.3341 44.0491 10.575ZM46.4339 11.6062H45.9593V9.49296H46.4339V11.6062ZM45.93 8.94413C45.93 8.87122 45.9527 8.81067 45.9983 8.76249C46.0452 8.71432 46.1116 8.69023 46.1975 8.69023C46.2835 8.69023 46.3499 8.71432 46.3968 8.76249C46.4436 8.81067 46.4671 8.87122 46.4671 8.94413C46.4671 9.01575 46.4436 9.07564 46.3968 9.12382C46.3499 9.1707 46.2835 9.19413 46.1975 9.19413C46.1116 9.19413 46.0452 9.1707 45.9983 9.12382C45.9527 9.07564 45.93 9.01575 45.93 8.94413ZM47.3928 9.49296L47.4065 9.7371C47.5628 9.5483 47.7678 9.4539 48.0218 9.4539C48.4619 9.4539 48.6858 9.70585 48.6936 10.2098V11.6062H48.219V10.2371C48.219 10.103 48.1897 10.004 48.1311 9.94023C48.0738 9.87512 47.9794 9.84257 47.8479 9.84257C47.6565 9.84257 47.5139 9.92916 47.4202 10.1023V11.6062H46.9456V9.49296H47.3928ZM50.1096 11.6453C49.8089 11.6453 49.5647 11.5509 49.3772 11.3621C49.191 11.172 49.0979 10.9194 49.0979 10.6043V10.5457C49.0979 10.3348 49.1383 10.1466 49.219 9.98124C49.3011 9.81458 49.4156 9.68502 49.5628 9.59257C49.7099 9.50012 49.874 9.4539 50.055 9.4539C50.3427 9.4539 50.5647 9.5457 50.721 9.72929C50.8785 9.91288 50.9573 10.1726 50.9573 10.5086V10.7H49.5764C49.5908 10.8745 49.6487 11.0125 49.7503 11.1141C49.8531 11.2156 49.982 11.2664 50.137 11.2664C50.3544 11.2664 50.5315 11.1785 50.6682 11.0027L50.9241 11.2469C50.8395 11.3732 50.7262 11.4715 50.5843 11.5418C50.4436 11.6108 50.2854 11.6453 50.1096 11.6453ZM50.053 9.83476C49.9228 9.83476 49.8173 9.88033 49.7366 9.97148C49.6572 10.0626 49.6064 10.1896 49.5843 10.3523H50.4886V10.3172C50.4781 10.1583 50.4358 10.0385 50.3616 9.95781C50.2874 9.87577 50.1845 9.83476 50.053 9.83476ZM52.2581 11.6453C51.9573 11.6453 51.7132 11.5509 51.5257 11.3621C51.3395 11.172 51.2464 10.9194 51.2464 10.6043V10.5457C51.2464 10.3348 51.2867 10.1466 51.3675 9.98124C51.4495 9.81458 51.5641 9.68502 51.7112 9.59257C51.8583 9.50012 52.0224 9.4539 52.2034 9.4539C52.4912 9.4539 52.7132 9.5457 52.8694 9.72929C53.027 9.91288 53.1057 10.1726 53.1057 10.5086V10.7H51.7249C51.7392 10.8745 51.7971 11.0125 51.8987 11.1141C52.0016 11.2156 52.1305 11.2664 52.2854 11.2664C52.5029 11.2664 52.68 11.1785 52.8167 11.0027L53.0725 11.2469C52.9879 11.3732 52.8746 11.4715 52.7327 11.5418C52.5921 11.6108 52.4339 11.6453 52.2581 11.6453ZM52.2014 9.83476C52.0712 9.83476 51.9658 9.88033 51.885 9.97148C51.8056 10.0626 51.7548 10.1896 51.7327 10.3523H52.637V10.3172C52.6266 10.1583 52.5843 10.0385 52.51 9.95781C52.4358 9.87577 52.333 9.83476 52.2014 9.83476ZM54.5823 9.92656C54.5198 9.91614 54.4553 9.91093 54.3889 9.91093C54.1715 9.91093 54.025 9.99426 53.9495 10.1609V11.6062H53.4749V9.49296H53.928L53.9397 9.72929C54.0543 9.5457 54.2132 9.4539 54.4163 9.4539C54.484 9.4539 54.54 9.46301 54.5843 9.48124L54.5823 9.92656ZM55.387 11.6062H54.9124V9.49296H55.387V11.6062ZM54.8831 8.94413C54.8831 8.87122 54.9059 8.81067 54.9514 8.76249C54.9983 8.71432 55.0647 8.69023 55.1507 8.69023C55.2366 8.69023 55.303 8.71432 55.3499 8.76249C55.3968 8.81067 55.4202 8.87122 55.4202 8.94413C55.4202 9.01575 55.3968 9.07564 55.3499 9.12382C55.303 9.1707 55.2366 9.19413 55.1507 9.19413C55.0647 9.19413 54.9983 9.1707 54.9514 9.12382C54.9059 9.07564 54.8831 9.01575 54.8831 8.94413ZM56.346 9.49296L56.3596 9.7371C56.5159 9.5483 56.721 9.4539 56.9749 9.4539C57.415 9.4539 57.6389 9.70585 57.6468 10.2098V11.6062H57.1721V10.2371C57.1721 10.103 57.1428 10.004 57.0843 9.94023C57.027 9.87512 56.9326 9.84257 56.8011 9.84257C56.6096 9.84257 56.4671 9.92916 56.3733 10.1023V11.6062H55.8987V9.49296H56.346ZM58.0491 10.534C58.0491 10.2059 58.1259 9.94413 58.2796 9.74882C58.4345 9.55221 58.6396 9.4539 58.8948 9.4539C59.1357 9.4539 59.3251 9.53788 59.4632 9.70585L59.4846 9.49296H59.9124V11.5418C59.9124 11.8191 59.8258 12.0379 59.6526 12.198C59.4807 12.3582 59.2483 12.4383 58.9553 12.4383C58.8004 12.4383 58.6487 12.4057 58.5003 12.3406C58.3531 12.2768 58.2412 12.1928 58.1643 12.0887L58.3889 11.8035C58.5348 11.9767 58.7145 12.0633 58.928 12.0633C59.0856 12.0633 59.2099 12.0203 59.3011 11.9344C59.3922 11.8497 59.4378 11.7247 59.4378 11.5594V11.4168C59.3011 11.5691 59.1188 11.6453 58.8909 11.6453C58.6435 11.6453 58.441 11.547 58.2835 11.3504C58.1272 11.1538 58.0491 10.8816 58.0491 10.534ZM58.5218 10.575C58.5218 10.7872 58.5647 10.9546 58.6507 11.0769C58.7379 11.198 58.8583 11.2586 59.012 11.2586C59.2034 11.2586 59.3453 11.1766 59.4378 11.0125V10.0828C59.3479 9.92265 59.2073 9.84257 59.0159 9.84257C58.8596 9.84257 58.7379 9.90442 58.6507 10.0281C58.5647 10.1518 58.5218 10.3341 58.5218 10.575ZM63.0354 10.9441H61.9339L61.7034 11.6062H61.1897L62.2639 8.76249H62.7073L63.7835 11.6062H63.2678L63.0354 10.9441ZM62.0725 10.5457H62.8968L62.4846 9.36601L62.0725 10.5457ZM64.2288 11.6062V9.84452H63.9065V9.49296H64.2288V9.2996C64.2288 9.06523 64.2939 8.88424 64.4241 8.75663C64.5543 8.62903 64.7366 8.56523 64.971 8.56523C65.0543 8.56523 65.1428 8.57695 65.2366 8.60038L65.2249 8.97148C65.1728 8.96106 65.1123 8.95585 65.0432 8.95585C64.8167 8.95585 64.7034 9.07239 64.7034 9.30546V9.49296H65.43V9.34843C65.4313 9.18307 65.4664 9.04114 65.5354 8.92265C65.6044 8.80416 65.7021 8.71497 65.8284 8.65507C65.9547 8.59518 66.1064 8.56523 66.2835 8.56523C66.3876 8.56523 66.4873 8.5763 66.5823 8.59843C66.6787 8.62057 66.7783 8.64856 66.8811 8.68242L66.8069 9.07499C66.6298 9.01249 66.4664 8.98124 66.3167 8.98124C66.1721 8.98124 66.0673 9.01314 66.0022 9.07695C65.9371 9.13945 65.9046 9.23385 65.9046 9.36015V9.49296H66.3206V9.84452H65.9046V11.6062H65.43V9.84452H64.7034V11.6062H64.2288ZM67.1057 11.6062H66.6311V9.49296H67.1057V11.6062ZM68.0725 9.49296L68.0862 9.7371C68.2425 9.5483 68.4475 9.4539 68.7014 9.4539C69.1415 9.4539 69.3655 9.70585 69.3733 10.2098V11.6062H68.8987V10.2371C68.8987 10.103 68.8694 10.004 68.8108 9.94023C68.7535 9.87512 68.6591 9.84257 68.5276 9.84257C68.3362 9.84257 68.1936 9.92916 68.0999 10.1023V11.6062H67.6253V9.49296H68.0725ZM70.3636 11.6062H69.8889V9.49296H70.3636V11.6062ZM69.8596 8.94413C69.8596 8.87122 69.8824 8.81067 69.928 8.76249C69.9749 8.71432 70.0413 8.69023 70.1272 8.69023C70.2132 8.69023 70.2796 8.71432 70.3264 8.76249C70.3733 8.81067 70.3968 8.87122 70.3968 8.94413C70.3968 9.01575 70.3733 9.07564 70.3264 9.12382C70.2796 9.1707 70.2132 9.19413 70.1272 9.19413C70.0413 9.19413 69.9749 9.1707 69.928 9.12382C69.8824 9.07564 69.8596 9.01575 69.8596 8.94413ZM71.4768 8.97929V9.49296H71.8499V9.84452H71.4768V11.0242C71.4768 11.1049 71.4925 11.1635 71.5237 11.2C71.5563 11.2351 71.6136 11.2527 71.6956 11.2527C71.7503 11.2527 71.8056 11.2462 71.8616 11.2332V11.6004C71.7535 11.6303 71.6494 11.6453 71.5491 11.6453C71.1845 11.6453 71.0022 11.4441 71.0022 11.0418V9.84452H70.6546V9.49296H71.0022V8.97929H71.4768ZM72.9534 10.9266L73.3831 9.49296H73.8889L73.0491 11.9266C72.9202 12.282 72.7014 12.4598 72.3928 12.4598C72.3238 12.4598 72.2477 12.448 72.1643 12.4246V12.0574L72.2542 12.0633C72.374 12.0633 72.4638 12.0411 72.5237 11.9969C72.5849 11.9539 72.6331 11.881 72.6682 11.7781L72.7366 11.5965L71.9944 9.49296H72.5061L72.9534 10.9266ZM77.385 11.2371C77.2822 11.3712 77.1396 11.4728 76.9573 11.5418C76.775 11.6108 76.568 11.6453 76.3362 11.6453C76.0979 11.6453 75.887 11.5913 75.7034 11.4832C75.5198 11.3751 75.3779 11.2208 75.2776 11.0203C75.1787 10.8185 75.1272 10.5835 75.1233 10.3152V10.0926C75.1233 9.66288 75.2262 9.3276 75.4319 9.08671C75.6376 8.84452 75.9248 8.72343 76.2932 8.72343C76.6096 8.72343 76.8609 8.80156 77.0471 8.95781C77.2333 9.11406 77.3453 9.33932 77.3831 9.63359H76.8987C76.844 9.29114 76.6455 9.11992 76.303 9.11992C76.0817 9.11992 75.913 9.19999 75.7971 9.36015C75.6826 9.519 75.6233 9.75273 75.6194 10.0613V10.2801C75.6194 10.5874 75.6839 10.8263 75.8128 10.9969C75.943 11.1661 76.1233 11.2508 76.3538 11.2508C76.6064 11.2508 76.7861 11.1935 76.8928 11.0789V10.5223H76.3069V10.1473H77.385V11.2371ZM78.9886 9.92656C78.9261 9.91614 78.8616 9.91093 78.7952 9.91093C78.5777 9.91093 78.4313 9.99426 78.3557 10.1609V11.6062H77.8811V9.49296H78.3343L78.346 9.72929C78.4606 9.5457 78.6194 9.4539 78.8225 9.4539C78.8902 9.4539 78.9462 9.46301 78.9905 9.48124L78.9886 9.92656ZM79.1292 10.5301C79.1292 10.323 79.1702 10.1368 79.2522 9.97148C79.3343 9.80481 79.4495 9.67721 79.5979 9.58867C79.7464 9.49882 79.9169 9.4539 80.1096 9.4539C80.3948 9.4539 80.6259 9.5457 80.803 9.72929C80.9814 9.91288 81.0777 10.1564 81.0921 10.4598L81.094 10.5711C81.094 10.7794 81.0537 10.9656 80.9729 11.1297C80.8935 11.2937 80.7789 11.4207 80.6292 11.5105C80.4807 11.6004 80.3089 11.6453 80.1136 11.6453C79.8154 11.6453 79.5764 11.5463 79.3968 11.3484C79.2184 11.1492 79.1292 10.8842 79.1292 10.5535V10.5301ZM79.6038 10.5711C79.6038 10.7885 79.6487 10.9591 79.7386 11.0828C79.8284 11.2052 79.9534 11.2664 80.1136 11.2664C80.2737 11.2664 80.3981 11.2039 80.4866 11.0789C80.5764 10.9539 80.6214 10.771 80.6214 10.5301C80.6214 10.3165 80.5751 10.1473 80.4827 10.0223C80.3915 9.89726 80.2672 9.83476 80.1096 9.83476C79.9547 9.83476 79.8317 9.89661 79.7405 10.0203C79.6494 10.1427 79.6038 10.3263 79.6038 10.5711ZM82.7757 11.3992C82.6363 11.5633 82.4384 11.6453 82.1819 11.6453C81.9527 11.6453 81.7789 11.5782 81.6604 11.4441C81.5432 11.31 81.4846 11.116 81.4846 10.8621V9.49296H81.9593V10.8562C81.9593 11.1245 82.0706 11.2586 82.2932 11.2586C82.5237 11.2586 82.6793 11.1759 82.76 11.0105V9.49296H83.2346V11.6062H82.7874L82.7757 11.3992ZM85.5686 10.5711C85.5686 10.8979 85.4944 11.159 85.346 11.3543C85.1975 11.5483 84.9983 11.6453 84.7483 11.6453C84.5165 11.6453 84.331 11.5691 84.1917 11.4168V12.4187H83.7171V9.49296H84.1546L84.1741 9.70781C84.3134 9.53853 84.5029 9.4539 84.7425 9.4539C85.0003 9.4539 85.2021 9.55025 85.3479 9.74296C85.4951 9.93437 85.5686 10.2006 85.5686 10.5418V10.5711ZM85.096 10.5301C85.096 10.3191 85.0537 10.1518 84.969 10.0281C84.8857 9.90442 84.7659 9.84257 84.6096 9.84257C84.4156 9.84257 84.2763 9.92265 84.1917 10.0828V11.0203C84.2776 11.1844 84.4182 11.2664 84.6136 11.2664C84.7646 11.2664 84.8824 11.2059 84.9671 11.0848C85.053 10.9624 85.096 10.7775 85.096 10.5301ZM86.012 9.60624L85.7698 9.45585C85.887 9.28528 85.9475 9.10494 85.9514 8.91484V8.60624H86.3675V8.87577C86.3675 9.00989 86.333 9.14531 86.2639 9.28202C86.1962 9.41744 86.1123 9.52551 86.012 9.60624ZM87.512 11.032C87.512 10.9474 87.4768 10.8829 87.4065 10.8387C87.3375 10.7944 87.2223 10.7553 87.0608 10.7215C86.8994 10.6876 86.7646 10.6447 86.6565 10.5926C86.4195 10.478 86.3011 10.312 86.3011 10.0945C86.3011 9.91223 86.3779 9.75989 86.5315 9.63749C86.6852 9.5151 86.8805 9.4539 87.1175 9.4539C87.3701 9.4539 87.5738 9.5164 87.7288 9.6414C87.885 9.7664 87.9632 9.92851 87.9632 10.1277H87.4886C87.4886 10.0366 87.4547 9.96106 87.387 9.90117C87.3193 9.83997 87.2294 9.80937 87.1175 9.80937C87.0133 9.80937 86.928 9.83346 86.8616 9.88163C86.7965 9.92981 86.7639 9.99426 86.7639 10.075C86.7639 10.1479 86.7945 10.2046 86.8557 10.2449C86.9169 10.2853 87.0406 10.3263 87.2268 10.368C87.413 10.4083 87.5589 10.4572 87.6643 10.5144C87.7711 10.5704 87.8499 10.6381 87.9007 10.7176C87.9527 10.797 87.9788 10.8934 87.9788 11.0066C87.9788 11.1967 87.9 11.351 87.7425 11.4695C87.5849 11.5867 87.3785 11.6453 87.1233 11.6453C86.9501 11.6453 86.7958 11.6141 86.6604 11.5516C86.525 11.4891 86.4195 11.4031 86.344 11.2937C86.2685 11.1844 86.2307 11.0665 86.2307 10.9402H86.6917C86.6982 11.0522 86.7405 11.1388 86.8186 11.2C86.8968 11.2599 87.0003 11.2898 87.1292 11.2898C87.2542 11.2898 87.3492 11.2664 87.4143 11.2195C87.4794 11.1713 87.512 11.1088 87.512 11.032ZM91.6663 10.9031L92.1038 8.76249H92.594L91.9378 11.6062H91.4651L90.9241 9.53007L90.3714 11.6062H89.8968L89.2405 8.76249H89.7307L90.1721 10.8992L90.7151 8.76249H91.1292L91.6663 10.9031ZM93.7776 11.6453C93.4768 11.6453 93.2327 11.5509 93.0452 11.3621C92.859 11.172 92.7659 10.9194 92.7659 10.6043V10.5457C92.7659 10.3348 92.8063 10.1466 92.887 9.98124C92.969 9.81458 93.0836 9.68502 93.2307 9.59257C93.3779 9.50012 93.5419 9.4539 93.7229 9.4539C94.0107 9.4539 94.2327 9.5457 94.3889 9.72929C94.5465 9.91288 94.6253 10.1726 94.6253 10.5086V10.7H93.2444C93.2587 10.8745 93.3167 11.0125 93.4182 11.1141C93.5211 11.2156 93.65 11.2664 93.805 11.2664C94.0224 11.2664 94.1995 11.1785 94.3362 11.0027L94.5921 11.2469C94.5074 11.3732 94.3942 11.4715 94.2522 11.5418C94.1116 11.6108 93.9534 11.6453 93.7776 11.6453ZM93.721 9.83476C93.5908 9.83476 93.4853 9.88033 93.4046 9.97148C93.3251 10.0626 93.2744 10.1896 93.2522 10.3523H94.1565V10.3172C94.1461 10.1583 94.1038 10.0385 94.0296 9.95781C93.9553 9.87577 93.8525 9.83476 93.721 9.83476ZM96.8499 10.5711C96.8499 10.8992 96.7763 11.1603 96.6292 11.3543C96.4833 11.5483 96.2822 11.6453 96.0257 11.6453C95.7783 11.6453 95.5856 11.5561 95.4475 11.3777L95.4241 11.6062H94.9944V8.60624H95.469V9.69609C95.6057 9.53463 95.79 9.4539 96.0218 9.4539C96.2796 9.4539 96.482 9.5496 96.6292 9.74101C96.7763 9.93242 96.8499 10.2 96.8499 10.5437V10.5711ZM96.3753 10.5301C96.3753 10.3009 96.3349 10.129 96.2542 10.0144C96.1734 9.89986 96.0563 9.84257 95.9026 9.84257C95.6969 9.84257 95.5524 9.93242 95.469 10.1121V10.9832C95.5537 11.1668 95.6995 11.2586 95.9065 11.2586C96.055 11.2586 96.1695 11.2032 96.2503 11.0926C96.331 10.9819 96.3727 10.8146 96.3753 10.5906V10.5301ZM98.4339 11.032C98.4339 10.9474 98.3987 10.8829 98.3284 10.8387C98.2594 10.7944 98.1442 10.7553 97.9827 10.7215C97.8212 10.6876 97.6865 10.6447 97.5784 10.5926C97.3414 10.478 97.2229 10.312 97.2229 10.0945C97.2229 9.91223 97.2998 9.75989 97.4534 9.63749C97.607 9.5151 97.8024 9.4539 98.0393 9.4539C98.2919 9.4539 98.4957 9.5164 98.6507 9.6414C98.8069 9.7664 98.885 9.92851 98.885 10.1277H98.4104C98.4104 10.0366 98.3766 9.96106 98.3089 9.90117C98.2412 9.83997 98.1513 9.80937 98.0393 9.80937C97.9352 9.80937 97.8499 9.83346 97.7835 9.88163C97.7184 9.92981 97.6858 9.99426 97.6858 10.075C97.6858 10.1479 97.7164 10.2046 97.7776 10.2449C97.8388 10.2853 97.9625 10.3263 98.1487 10.368C98.3349 10.4083 98.4807 10.4572 98.5862 10.5144C98.693 10.5704 98.7718 10.6381 98.8225 10.7176C98.8746 10.797 98.9007 10.8934 98.9007 11.0066C98.9007 11.1967 98.8219 11.351 98.6643 11.4695C98.5068 11.5867 98.3004 11.6453 98.0452 11.6453C97.872 11.6453 97.7177 11.6141 97.5823 11.5516C97.4469 11.4891 97.3414 11.4031 97.2659 11.2937C97.1904 11.1844 97.1526 11.0665 97.1526 10.9402H97.6136C97.6201 11.0522 97.6624 11.1388 97.7405 11.2C97.8186 11.2599 97.9221 11.2898 98.0511 11.2898C98.1761 11.2898 98.2711 11.2664 98.3362 11.2195C98.4013 11.1713 98.4339 11.1088 98.4339 11.032ZM99.8206 11.6062H99.346V9.49296H99.8206V11.6062ZM99.3167 8.94413C99.3167 8.87122 99.3395 8.81067 99.385 8.76249C99.4319 8.71432 99.4983 8.69023 99.5843 8.69023C99.6702 8.69023 99.7366 8.71432 99.7835 8.76249C99.8303 8.81067 99.8538 8.87122 99.8538 8.94413C99.8538 9.01575 99.8303 9.07564 99.7835 9.12382C99.7366 9.1707 99.6702 9.19413 99.5843 9.19413C99.4983 9.19413 99.4319 9.1707 99.385 9.12382C99.3395 9.07564 99.3167 9.01575 99.3167 8.94413ZM100.934 8.97929V9.49296H101.307V9.84452H100.934V11.0242C100.934 11.1049 100.949 11.1635 100.981 11.2C101.013 11.2351 101.071 11.2527 101.153 11.2527C101.207 11.2527 101.263 11.2462 101.319 11.2332V11.6004C101.211 11.6303 101.106 11.6453 101.006 11.6453C100.642 11.6453 100.459 11.4441 100.459 11.0418V9.84452H100.112V9.49296H100.459V8.97929H100.934ZM102.602 11.6453C102.301 11.6453 102.057 11.5509 101.869 11.3621C101.683 11.172 101.59 10.9194 101.59 10.6043V10.5457C101.59 10.3348 101.63 10.1466 101.711 9.98124C101.793 9.81458 101.908 9.68502 102.055 9.59257C102.202 9.50012 102.366 9.4539 102.547 9.4539C102.835 9.4539 103.057 9.5457 103.213 9.72929C103.371 9.91288 103.449 10.1726 103.449 10.5086V10.7H102.069C102.083 10.8745 102.141 11.0125 102.242 11.1141C102.345 11.2156 102.474 11.2664 102.629 11.2664C102.847 11.2664 103.024 11.1785 103.16 11.0027L103.416 11.2469C103.332 11.3732 103.218 11.4715 103.076 11.5418C102.936 11.6108 102.778 11.6453 102.602 11.6453ZM102.545 9.83476C102.415 9.83476 102.31 9.88033 102.229 9.97148C102.149 10.0626 102.099 10.1896 102.076 10.3523H102.981V10.3172C102.97 10.1583 102.928 10.0385 102.854 9.95781C102.78 9.87577 102.677 9.83476 102.545 9.83476Z" fill="white"/>
<line x1="1.21208e-08" y1="14.9115" x2="127" y2="14.9116" stroke="#BFFBDE" stroke-width="2"/>
<path d="M61.3051 23.7322C61.2693 24.1114 61.1294 24.4076 60.8852 24.6209C60.6411 24.8325 60.3164 24.9382 59.9111 24.9382C59.6279 24.9382 59.3781 24.8715 59.1616 24.7381C58.9467 24.603 58.7807 24.4117 58.6635 24.1643C58.5464 23.9169 58.4853 23.6297 58.4804 23.3025V22.9705C58.4804 22.6352 58.5398 22.3398 58.6587 22.0842C58.7775 21.8287 58.9476 21.6318 59.1689 21.4934C59.3919 21.3551 59.6491 21.2859 59.9404 21.2859C60.3327 21.2859 60.6484 21.3925 60.8877 21.6057C61.1269 21.8189 61.2661 22.1201 61.3051 22.509H60.6899C60.6606 22.2535 60.5857 22.0696 60.4653 21.9573C60.3465 21.8434 60.1715 21.7864 59.9404 21.7864C59.6718 21.7864 59.4651 21.8849 59.3203 22.0818C59.1771 22.2771 59.1038 22.5644 59.1006 22.9436V23.2586C59.1006 23.6427 59.1689 23.9356 59.3056 24.1375C59.444 24.3393 59.6458 24.4402 59.9111 24.4402C60.1536 24.4402 60.3359 24.3857 60.458 24.2766C60.58 24.1676 60.6574 23.9861 60.6899 23.7322H61.3051ZM62.4331 24.8894H61.8398V21.1394H62.4331V24.8894ZM63.7124 24.8894H63.1191V22.2478H63.7124V24.8894ZM63.0825 21.5618C63.0825 21.4706 63.111 21.395 63.1679 21.3347C63.2265 21.2745 63.3095 21.2444 63.417 21.2444C63.5244 21.2444 63.6074 21.2745 63.666 21.3347C63.7246 21.395 63.7539 21.4706 63.7539 21.5618C63.7539 21.6513 63.7246 21.7262 63.666 21.7864C63.6074 21.845 63.5244 21.8743 63.417 21.8743C63.3095 21.8743 63.2265 21.845 63.1679 21.7864C63.111 21.7262 63.0825 21.6513 63.0825 21.5618ZM65.4458 24.4646C65.5939 24.4646 65.7168 24.4215 65.8144 24.3352C65.9121 24.249 65.9642 24.1423 65.9707 24.0154H66.5298C66.5232 24.1798 66.472 24.3336 66.3759 24.4768C66.2799 24.6184 66.1497 24.7307 65.9853 24.8137C65.8209 24.8967 65.6435 24.9382 65.4531 24.9382C65.0836 24.9382 64.7907 24.8186 64.5742 24.5794C64.3577 24.3401 64.2495 24.0097 64.2495 23.5882V23.5271C64.2495 23.1251 64.3569 22.8036 64.5717 22.5628C64.7866 22.3202 65.0796 22.199 65.4507 22.199C65.7648 22.199 66.0203 22.2909 66.2173 22.4749C66.4158 22.6572 66.52 22.8972 66.5298 23.1951H65.9707C65.9642 23.0437 65.9121 22.9192 65.8144 22.8215C65.7184 22.7239 65.5955 22.6751 65.4458 22.6751C65.2537 22.6751 65.1056 22.7451 65.0014 22.885C64.8973 23.0234 64.8444 23.2341 64.8427 23.5173V23.6126C64.8427 23.899 64.894 24.1131 64.9966 24.2547C65.1007 24.3946 65.2505 24.4646 65.4458 24.4646ZM67.8359 23.7566L67.5722 24.0276V24.8894H66.979V21.1394H67.5722V23.3025L67.7578 23.0706L68.4878 22.2478H69.2007L68.2192 23.3489L69.3056 24.8894H68.6196L67.8359 23.7566ZM70.2187 23.8421H69.7085L69.6523 21.3347H70.2773L70.2187 23.8421ZM69.6352 24.6087C69.6352 24.5159 69.6653 24.4394 69.7256 24.3792C69.7858 24.3173 69.868 24.2864 69.9721 24.2864C70.0763 24.2864 70.1585 24.3173 70.2187 24.3792C70.2789 24.4394 70.3091 24.5159 70.3091 24.6087C70.3091 24.6982 70.2798 24.773 70.2212 24.8333C70.1626 24.8935 70.0796 24.9236 69.9721 24.9236C69.8647 24.9236 69.7817 24.8935 69.7231 24.8333C69.6645 24.773 69.6352 24.6982 69.6352 24.6087Z" fill="white"/>
<g filter="url(#filter1_d)">
<rect x="52.7697" y="17.3717" width="23.4017" height="10.7965" rx="5.39823" stroke="#8AD4B5"/>
</g>
</g>
<defs>
<filter id="filter0_i" x="0" y="0" width="127" height="35" filterUnits="userSpaceOnUse" color-interpolation-filters="sRGB">
<feFlood flood-opacity="0" result="BackgroundImageFix"/>
<feBlend mode="normal" in="SourceGraphic" in2="BackgroundImageFix" result="shape"/>
<feColorMatrix in="SourceAlpha" type="matrix" values="0 0 0 0 0 0 0 0 0 0 0 0 0 0 0 0 0 0 127 0" result="hardAlpha"/>
<feOffset dy="4"/>
<feGaussianBlur stdDeviation="2"/>
<feComposite in2="hardAlpha" operator="arithmetic" k2="-1" k3="1"/>
<feColorMatrix type="matrix" values="0 0 0 0 0 0 0 0 0 0 0 0 0 0 0 0 0 0 0.25 0"/>
<feBlend mode="normal" in2="shape" result="effect1_innerShadow"/>
</filter>
<filter id="filter1_d" x="48.2697" y="16.8717" width="32.4017" height="19.7965" filterUnits="userSpaceOnUse" color-interpolation-filters="sRGB">
<feFlood flood-opacity="0" result="BackgroundImageFix"/>
<feColorMatrix in="SourceAlpha" type="matrix" values="0 0 0 0 0 0 0 0 0 0 0 0 0 0 0 0 0 0 127 0" result="hardAlpha"/>
<feOffset dy="4"/>
<feGaussianBlur stdDeviation="2"/>
<feColorMatrix type="matrix" values="0 0 0 0 0 0 0 0 0 0 0 0 0 0 0 0 0 0 0.25 0"/>
<feBlend mode="normal" in2="BackgroundImageFix" result="effect1_dropShadow"/>
<feBlend mode="normal" in="SourceGraphic" in2="effect1_dropShadow" result="shape"/>
</filter>
</defs>
</svg>
