<svg width="67" height="67" viewBox="0 0 67 67" fill="none" xmlns="http://www.w3.org/2000/svg">
<rect width="67" height="67" fill="#405C50"/>
<path d="M33.4721 5.58337C18.0621 5.58337 5.58337 18.09 5.58337 33.5C5.58337 48.91 18.0621 61.4167 33.4721 61.4167C48.91 61.4167 61.4167 48.91 61.4167 33.5C61.4167 18.09 48.91 5.58337 33.4721 5.58337ZM52.8184 22.3334H44.583C43.6896 18.8438 42.4055 15.4938 40.7305 12.395C45.8671 14.1538 50.1384 17.7271 52.8184 22.3334ZM33.5 11.2784C35.8171 14.6284 37.6317 18.3413 38.8321 22.3334H28.168C29.3684 18.3413 31.183 14.6284 33.5 11.2784ZM11.8925 39.0834C11.4459 37.2967 11.1667 35.4263 11.1667 33.5C11.1667 31.5738 11.4459 29.7034 11.8925 27.9167H21.3284C21.105 29.7592 20.9375 31.6017 20.9375 33.5C20.9375 35.3984 21.105 37.2409 21.3284 39.0834H11.8925ZM14.1817 44.6667H22.4171C23.3105 48.1563 24.5946 51.5063 26.2696 54.605C21.133 52.8463 16.8617 49.3009 14.1817 44.6667ZM22.4171 22.3334H14.1817C16.8617 17.6992 21.133 14.1538 26.2696 12.395C24.5946 15.4938 23.3105 18.8438 22.4171 22.3334ZM33.5 55.7217C31.183 52.3717 29.3684 48.6588 28.168 44.6667H38.8321C37.6317 48.6588 35.8171 52.3717 33.5 55.7217ZM40.0325 39.0834H26.9675C26.7163 37.2409 26.5209 35.3984 26.5209 33.5C26.5209 31.6017 26.7163 29.7313 26.9675 27.9167H40.0325C40.2838 29.7313 40.4792 31.6017 40.4792 33.5C40.4792 35.3984 40.2838 37.2409 40.0325 39.0834ZM40.7305 54.605C42.4055 51.5063 43.6896 48.1563 44.583 44.6667H52.8184C50.1384 49.273 45.8671 52.8463 40.7305 54.605ZM45.6717 39.0834C45.895 37.2409 46.0625 35.3984 46.0625 33.5C46.0625 31.6017 45.895 29.7592 45.6717 27.9167H55.1075C55.5542 29.7034 55.8334 31.5738 55.8334 33.5C55.8334 35.4263 55.5542 37.2967 55.1075 39.0834H45.6717Z" fill="#BFFBDE"/>
</svg>
